<svg width="250" height="39" viewBox="0 0 250 39" fill="none" xmlns="http://www.w3.org/2000/svg">
<path fill-rule="evenodd" clip-rule="evenodd" d="M21.4592 8.71966C20.1774 9.4424 19.0751 10.4441 18.2342 11.6505C17.8614 10.4788 17.0934 9.47237 16.061 8.80254C14.8655 8.1077 13.4955 7.77004 12.1135 7.82967C10.8956 7.82967 9.69813 8.13539 8.62993 8.71966C7.45095 9.39055 6.46058 10.3477 5.75057 11.5024V8.50633H0V30.7031H5.93563V17.356C5.92823 16.7339 6.05202 16.1173 6.29895 15.5461C6.51531 15.0162 6.82965 14.5311 7.22699 14.1194C7.63927 13.6841 8.13546 13.3365 8.68572 13.0976C9.20689 12.8965 9.76072 12.796 10.3214 12.8014C10.6942 12.8014 11.0643 12.8653 11.4168 12.9862C11.757 13.1058 12.059 13.3136 12.2904 13.5895C12.5571 13.9332 12.7503 14.3273 12.8564 14.7485C13.0102 15.3871 13.0796 16.042 13.0606 16.697V30.7031H18.9975V17.0965C18.9975 16.5394 19.1173 15.9877 19.35 15.4822C19.5813 14.9795 19.8957 14.5175 20.2794 14.118C20.6944 13.6832 21.1938 13.3367 21.7463 13.099C22.2647 12.8965 22.8172 12.796 23.3724 12.8C23.7344 12.8 24.095 12.8557 24.4406 12.9685C24.7781 13.0867 25.0761 13.2946 25.3047 13.5705C25.5782 13.9101 25.7755 14.3069 25.8803 14.7308C26.0449 15.3722 26.1225 16.0353 26.1116 16.697V30.7031H32.0581V15.8627C32.0581 13.0297 31.4852 10.9834 30.3395 9.72107C29.6628 9.0619 28.8524 8.55527 27.963 8.23533C27.0736 7.91538 26.1258 7.78957 25.1836 7.86635C23.8875 7.8647 22.6113 8.18353 21.4687 8.79439M50.5808 8.50633L45.7882 23.0872L40.5751 8.50633H33.7101L42.9061 29.7303L42.2284 31.585C42.0076 32.356 41.5843 33.0541 41.0024 33.6068C40.4488 34.0103 39.7738 34.2131 39.0891 34.1816C38.2455 34.1816 37.4045 34.0701 36.5894 33.8487L35.6151 38.2633C36.3527 38.5092 37.112 38.69 37.8808 38.8014C38.6047 38.8965 39.3341 38.9468 40.0648 38.9508C41.0826 38.9784 42.0966 38.8176 43.0558 38.4766C43.8417 38.1825 44.5501 37.7131 45.1268 37.1043C45.7733 36.3801 46.3084 35.5641 46.7148 34.683C47.1707 33.7549 47.6442 32.6149 48.1545 31.3431L57.0648 8.50633H50.5808ZM66.307 0.446135C65.4009 0.734981 64.5677 1.21559 63.8645 1.85518C63.1436 2.52676 62.5876 3.35535 62.2397 4.2765C61.8188 5.40621 61.617 6.60559 61.6451 7.81065V8.53487H58.1697V13.1723H61.6437V30.7031H67.5794V13.1438H72.7257V8.50633H67.5794V7.65303C67.5287 7.2143 67.587 6.76987 67.7491 6.35896C67.9112 5.94806 68.1721 5.58331 68.5088 5.29693C69.1137 4.86037 69.843 4.62936 70.5893 4.63793C71.4602 4.64472 72.327 4.7575 73.1721 4.97218L73.9817 0.640439C73.2015 0.391363 72.3983 0.220671 71.5841 0.130901C70.844 0.0477491 70.0999 0.00420632 69.3551 0.000459909C68.3221 -0.00945172 67.2938 0.140898 66.307 0.446135ZM76.2297 5.69641H82.3327V0.342869H76.2297V5.69641ZM76.3127 30.7031H82.2483V8.50633H76.3127V30.7031ZM88.2221 2.59706V8.50633H84.748V13.1438H88.2221V23.5153C88.2221 26.2668 88.8099 28.2234 89.987 29.3851C91.164 30.5496 92.967 31.1298 95.3932 31.1298C96.1362 31.1298 96.8765 31.0795 97.614 30.9817C98.4264 30.873 99.2279 30.6963 100.01 30.4518L99.1653 26.0657C98.7707 26.1825 98.3665 26.2627 97.9569 26.3062C97.5392 26.3062 97.1405 26.3714 96.7404 26.3714C96.0664 26.3956 95.4065 26.175 94.883 25.7504C94.6026 25.4309 94.3931 25.0559 94.2681 24.6498C94.1431 24.2438 94.1055 23.8159 94.1577 23.3943V13.19H99.2483V8.55253H94.159V2.59706H88.2221ZM111.139 8.71966C109.866 9.37507 108.791 10.3583 108.027 11.5676V8.50633H102.268V30.7031H108.203V17.356C108.195 16.7309 108.331 16.1113 108.603 15.5461C108.851 15.0175 109.187 14.5352 109.597 14.1194C110.055 13.7087 110.579 13.3788 111.148 13.1438C111.774 12.8992 112.445 12.7837 113.117 12.8014C113.992 12.7606 114.847 13.0677 115.496 13.6547C116.081 14.2199 116.425 15.2866 116.425 16.8451V30.7045H122.361V16.0298C122.361 13.1968 121.742 11.122 120.503 9.80531C119.265 8.48731 117.406 7.82967 114.93 7.82967C113.636 7.84723 112.364 8.16445 111.213 8.75635M132.319 15.2499C132.527 14.6846 132.841 14.1642 133.248 13.7199C133.67 13.2674 134.183 12.9101 134.753 12.6709C135.414 12.4067 136.122 12.2773 136.834 12.2905C137.474 12.237 138.117 12.3231 138.72 12.5427C139.324 12.7623 139.872 13.1102 140.327 13.5623C141.138 14.5732 141.545 15.8491 141.469 17.1426H131.93C131.953 16.5067 132.085 15.879 132.319 15.2866V15.2499ZM132.486 8.64629C131.16 9.14886 129.964 9.94083 128.984 10.9643C127.98 12.0316 127.209 13.2945 126.718 14.6738C126.154 16.2768 125.881 17.9672 125.91 19.6659C125.91 23.412 126.838 26.3034 128.696 28.3375C130.554 30.3729 133.316 31.3961 136.982 31.4083C140.036 31.4083 142.361 30.7629 143.959 29.4694C145.641 28.0244 146.71 25.9951 146.95 23.7924H141.181C140.754 25.7776 139.37 26.7709 137.028 26.7709C136.319 26.823 135.607 26.714 134.946 26.4521C134.285 26.1902 133.692 25.7821 133.211 25.2586C132.296 24.0551 131.817 22.5764 131.855 21.0654H147.201V18.6726C147.201 15.3518 146.346 12.7144 144.636 10.7605C142.927 8.80662 140.376 7.82967 136.982 7.82967C135.451 7.8111 133.93 8.07505 132.496 8.60824M155.737 8.34872C154.658 8.63721 153.635 9.1043 152.71 9.73058C151.907 10.2877 151.24 11.016 150.758 11.8638C150.285 12.7543 150.045 13.75 150.062 14.758C149.991 15.6421 150.13 16.5304 150.467 17.3508C150.804 18.1712 151.331 18.9006 152.004 19.4797C153.793 20.6917 155.854 21.4436 158.004 21.6687L161.061 22.1796C161.87 22.2421 162.637 22.5676 163.243 23.1063C163.615 23.5112 163.818 24.0425 163.811 24.5914C163.832 24.9368 163.756 25.2813 163.592 25.5861C163.428 25.8909 163.182 26.144 162.881 26.317C161.93 26.7373 160.89 26.9183 159.852 26.8442C158.803 26.8735 157.76 26.6712 156.797 26.2518C156.341 25.9943 155.957 25.625 155.682 25.1786C155.407 24.7322 155.251 24.2234 155.227 23.7001H149.551C149.586 25.0033 149.943 26.2777 150.591 27.4095C151.173 28.3717 151.971 29.1849 152.923 29.7846C153.911 30.396 155.004 30.82 156.147 31.0374C157.395 31.286 158.664 31.411 159.937 31.4083C163.243 31.4083 165.687 30.7684 167.275 29.5536C168.04 28.9579 168.653 28.1904 169.065 27.3135C169.476 26.4367 169.675 25.4751 169.644 24.5072C169.661 23.5669 169.539 22.6292 169.282 21.7244C169.045 20.9389 168.606 20.2291 168.009 19.6659C167.323 19.0097 166.511 18.4986 165.622 18.1631C164.374 17.7049 163.082 17.3752 161.767 17.1793L158.98 16.716C158.078 16.6117 157.206 16.3275 156.416 15.8804C156.193 15.6916 156.018 15.4529 155.905 15.1837C155.792 14.9145 155.745 14.6225 155.766 14.3314C155.77 14.0786 155.834 13.8313 155.951 13.6085C156.103 13.3313 156.324 13.099 156.592 12.9305C156.969 12.6968 157.384 12.531 157.818 12.44C158.465 12.2971 159.126 12.2314 159.788 12.2443C160.857 12.1678 161.922 12.4272 162.835 12.9862C163.528 13.5609 164.001 14.3585 164.173 15.2417L169.468 14.5624C169.308 13.6526 169.03 12.7674 168.642 11.9291C168.253 11.0981 167.673 10.3704 166.95 9.80531C166.08 9.13366 165.086 8.63881 164.024 8.34872C162.589 7.96472 161.107 7.7863 159.621 7.8188C158.311 7.80378 157.004 7.96651 155.737 8.30252M177.818 8.34872C176.739 8.63721 175.716 9.1043 174.791 9.73058C173.976 10.2934 173.302 11.0365 172.822 11.9019C172.348 12.7921 172.108 13.788 172.125 14.7961C172.062 15.6763 172.207 16.5591 172.549 17.3728C172.891 18.1866 173.42 18.9084 174.094 19.4797C175.883 20.6917 177.945 21.4436 180.095 21.6687L183.142 22.1796C183.951 22.242 184.718 22.5675 185.324 23.1063C185.699 23.5098 185.904 24.0411 185.9 24.5914C185.923 24.9369 185.847 25.2818 185.683 25.5869C185.519 25.8919 185.273 26.1449 184.972 26.317C184.017 26.7374 182.974 26.9184 181.933 26.8442C180.887 26.8733 179.846 26.671 178.887 26.2518C178.429 25.9951 178.045 25.626 177.77 25.1794C177.496 24.7328 177.34 24.2236 177.318 23.7001H171.632C171.675 25.0031 172.033 26.2749 172.672 27.4095C173.257 28.3695 174.055 29.1822 175.004 29.7846C175.994 30.3943 177.086 30.8189 178.228 31.0374C179.479 31.286 180.751 31.411 182.027 31.4083C185.334 31.4083 187.777 30.7697 189.356 29.5536C190.122 28.9585 190.737 28.1914 191.15 27.3146C191.564 26.4377 191.764 25.4758 191.735 24.5072C191.751 23.5668 191.629 22.6292 191.372 21.7244C191.132 20.9404 190.694 20.2314 190.099 19.6659C189.395 19.0193 188.567 18.5203 187.666 18.1984C186.414 17.7423 185.12 17.4131 183.802 17.216L181.015 16.7527C180.112 16.6498 179.24 16.3661 178.45 15.9184C178.226 15.7303 178.049 15.4919 177.935 15.2227C177.82 14.9535 177.771 14.6612 177.791 14.3694C177.799 14.1153 177.866 13.868 177.986 13.6452C178.136 13.3694 178.353 13.137 178.617 12.9685C178.997 12.7321 179.416 12.5663 179.853 12.4766C180.5 12.3342 181.161 12.269 181.823 12.2823C182.898 12.1954 183.973 12.4481 184.897 13.0052C185.587 13.5813 186.057 14.3776 186.225 15.2594L191.529 14.5827C191.37 13.6719 191.093 12.7857 190.704 11.9467C190.315 11.1136 189.732 10.3854 189.004 9.82298C188.147 9.14626 187.165 8.64525 186.114 8.34872C184.676 7.96414 183.19 7.78571 181.702 7.8188C180.392 7.80521 179.085 7.96826 177.818 8.30252M204.276 26.3442C203.634 26.1495 203.046 25.8102 202.557 25.3523C201.994 24.7589 201.593 24.0301 201.395 23.2367C201.123 22.1039 201.001 20.9404 201.033 19.7759V19.0993C201.007 18.0339 201.142 16.9708 201.433 15.9456C201.675 15.1752 202.107 14.4781 202.686 13.9142C203.154 13.5202 203.685 13.2049 204.257 12.9862C204.854 12.7824 205.483 12.6832 206.114 12.69C206.752 12.6859 207.384 12.8082 207.973 13.0514C208.57 13.3109 209.09 13.724 209.478 14.2471C209.943 14.8925 210.281 15.6195 210.471 16.3913C210.735 17.4623 210.857 18.5632 210.833 19.6659C210.854 20.7418 210.725 21.8153 210.452 22.8563C210.245 23.6328 209.892 24.3631 209.413 25.0085C209.005 25.5342 208.472 25.9487 207.861 26.2138C207.275 26.4691 206.642 26.5988 206.003 26.5942C205.407 26.5964 204.813 26.5187 204.238 26.3632L204.276 26.3442ZM200.921 11.4385V8.50633H195.163V38.959H201.098V28.4123C201.883 29.4733 202.948 30.2956 204.174 30.7874C205.221 31.1801 206.332 31.3852 207.452 31.3893C208.843 31.4099 210.221 31.1183 211.484 30.536C212.662 29.9736 213.697 29.1523 214.513 28.1337C215.378 27.0283 216.027 25.7698 216.426 24.4243C216.876 22.8617 217.095 21.2448 217.076 19.6183C217.076 15.9578 216.314 13.0799 214.79 10.9834C213.258 8.88679 210.964 7.83918 207.879 7.83918C206.509 7.79926 205.151 8.10867 203.933 8.7382C202.716 9.36773 201.679 10.2966 200.921 11.4372V11.4385ZM226.217 26.1581C225.965 25.945 225.765 25.6771 225.633 25.3748C225.501 25.0726 225.44 24.7442 225.455 24.4148C225.448 23.9664 225.517 23.5221 225.66 23.0968C225.825 22.6701 226.116 22.3046 226.496 22.0491C227.03 21.6962 227.625 21.4447 228.251 21.3073C229.239 21.0804 230.247 20.954 231.261 20.9268L233.89 20.7964V21.9472C233.919 22.7358 233.743 23.5183 233.38 24.2191C233.056 24.8111 232.609 25.3268 232.069 25.7314C230.976 26.472 229.673 26.8426 228.353 26.7885C227.595 26.8358 226.844 26.6123 226.236 26.1581H226.217ZM223.774 9.3773C222.929 9.94546 222.218 10.6904 221.69 11.5604C221.163 12.4304 220.831 13.4047 220.718 14.4156L226.151 14.9251C226.486 13.1452 227.833 12.2443 230.174 12.2443C231.117 12.2255 232.044 12.4942 232.831 13.0147C233.231 13.3518 233.542 13.7819 233.736 14.2672C233.931 14.7524 234.003 15.2779 233.946 15.7975V16.9008L231.113 17.0217C229.712 17.0842 228.316 17.2255 226.932 17.4484C225.644 17.6496 224.392 18.0368 223.216 18.5979C222.145 19.1075 221.224 19.8844 220.541 20.8534C219.831 21.957 219.477 23.252 219.528 24.5629C219.5 25.5933 219.704 26.6171 220.123 27.5589C220.474 28.381 221.016 29.1079 221.702 29.6827C222.39 30.2355 223.183 30.6428 224.034 30.8798C224.942 31.1325 225.879 31.2602 226.821 31.2602C228.283 31.3223 229.737 31.0025 231.038 30.3322C232.148 29.6916 233.146 28.8737 233.992 27.9109V30.6936H239.566V16.697C239.582 15.4438 239.42 14.1948 239.083 12.9875C238.783 11.9501 238.246 10.9967 237.512 10.2034C236.716 9.39267 235.735 8.78778 234.652 8.44111C233.252 8.00182 231.79 7.79525 230.323 7.82967C228.016 7.71304 225.723 8.25002 223.709 9.37866M244.025 30.7031H249.96V0.344228H244.025V30.7031Z" fill="#F2F2F2"/>
</svg>
