<svg width="135" height="42" viewBox="0 0 135 42" fill="none" xmlns="http://www.w3.org/2000/svg">
<path d="M71.1516 10.5526C71.1516 12.0661 69.9285 13.2853 68.4103 13.2853C66.892 13.2853 65.6689 12.0661 65.6689 10.5526C65.6689 9.03904 66.8498 7.81982 68.4103 7.81982C69.9707 7.86186 71.1516 9.08108 71.1516 10.5526ZM59.8489 16.0601C59.8489 16.3123 59.8489 16.7327 59.8489 16.7327C59.8489 16.7327 58.5415 15.0511 55.758 15.0511C51.161 15.0511 47.5761 18.5405 47.5761 23.3754C47.5761 28.1682 51.1188 31.6997 55.758 31.6997C58.5836 31.6997 59.8489 29.976 59.8489 29.976V30.6907C59.8489 31.027 60.1019 31.2793 60.4393 31.2793H63.8554V15.4715C63.8554 15.4715 60.7345 15.4715 60.4393 15.4715C60.1019 15.4715 59.8489 15.7658 59.8489 16.0601ZM59.8489 26.1922C59.2163 27.1171 57.951 27.9159 56.4328 27.9159C53.7336 27.9159 51.6671 26.2342 51.6671 23.3754C51.6671 20.5165 53.7336 18.8348 56.4328 18.8348C57.9089 18.8348 59.2584 19.6757 59.8489 20.5586V26.1922ZM66.3859 15.4715H70.4346V31.2793H66.3859V15.4715ZM126.864 15.0511C124.08 15.0511 122.773 16.7327 122.773 16.7327V7.86186H118.724V31.2793C118.724 31.2793 121.845 31.2793 122.14 31.2793C122.478 31.2793 122.731 30.985 122.731 30.6907V29.976C122.731 29.976 124.038 31.6997 126.822 31.6997C131.419 31.6997 135.004 28.1682 135.004 23.3754C135.004 18.5826 131.419 15.0511 126.864 15.0511ZM126.189 27.8739C124.629 27.8739 123.406 27.0751 122.773 26.1502V20.5165C123.406 19.6757 124.755 18.7928 126.189 18.7928C128.888 18.7928 130.955 20.4745 130.955 23.3333C130.955 26.1922 128.888 27.8739 126.189 27.8739ZM116.616 21.9039V31.3213H112.567V22.3664C112.567 19.7598 111.723 18.7087 109.446 18.7087C108.223 18.7087 106.958 19.3393 106.156 20.2643V31.2793H102.108V15.4715H105.313C105.65 15.4715 105.903 15.7658 105.903 16.0601V16.7327C107.084 15.5135 108.645 15.0511 110.205 15.0511C111.976 15.0511 113.452 15.5556 114.633 16.5646C116.067 17.7417 116.616 19.2553 116.616 21.9039ZM92.2809 15.0511C89.4974 15.0511 88.19 16.7327 88.19 16.7327V7.86186H84.1413V31.2793C84.1413 31.2793 87.2622 31.2793 87.5574 31.2793C87.8948 31.2793 88.1478 30.985 88.1478 30.6907V29.976C88.1478 29.976 89.4552 31.6997 92.2387 31.6997C96.8357 31.6997 100.421 28.1682 100.421 23.3754C100.463 18.5826 96.8779 15.0511 92.2809 15.0511ZM91.6061 27.8739C90.0457 27.8739 88.8226 27.0751 88.19 26.1502V20.5165C88.8226 19.6757 90.1722 18.7928 91.6061 18.7928C94.3053 18.7928 96.3718 20.4745 96.3718 23.3333C96.3718 26.1922 94.3053 27.8739 91.6061 27.8739ZM80.6408 15.0511C81.8639 15.0511 82.4965 15.2613 82.4965 15.2613V19.003C82.4965 19.003 79.1225 17.8679 77.0138 20.2643V31.3213H72.9651V15.4715C72.9651 15.4715 76.086 15.4715 76.3812 15.4715C76.7186 15.4715 76.9716 15.7658 76.9716 16.0601V16.7327C77.7308 15.8498 79.3756 15.0511 80.6408 15.0511ZM38.593 29.8498C38.3821 29.3453 38.1713 28.7988 37.9604 28.3363C37.623 27.5796 37.2856 26.8649 36.9904 26.1922L36.9482 26.1502C34.0382 19.8438 30.9173 13.4535 27.6277 7.14715L27.5012 6.89489C27.1638 6.26426 26.8264 5.59159 26.489 4.91892C26.0672 4.16216 25.6455 3.36336 24.9707 2.60661C23.6211 0.924925 21.6811 0 19.6146 0C17.5059 0 15.608 0.924925 14.2163 2.52252C13.5836 3.27928 13.1197 4.07808 12.698 4.83483C12.3606 5.50751 12.0232 6.18018 11.6858 6.81081L11.5593 7.06306C8.31186 13.3694 5.14878 19.7598 2.23875 26.0661L2.19658 26.1502C1.90136 26.8228 1.56396 27.5375 1.22657 28.2943C1.0157 28.7568 0.804827 29.2613 0.593955 29.8078C0.0456889 31.3634 -0.123008 32.8348 0.0878632 34.3483C0.551781 37.5015 2.6605 40.1502 5.57052 41.3273C6.66706 41.7898 7.80576 42 8.98664 42C9.32404 42 9.74578 41.958 10.0832 41.9159C11.4749 41.7477 12.9089 41.2853 14.3006 40.4865C16.0298 39.5195 17.6746 38.1321 19.5302 36.1141C21.3859 38.1321 23.0729 39.5195 24.7598 40.4865C26.1516 41.2853 27.5855 41.7477 28.9773 41.9159C29.3147 41.958 29.7364 42 30.0738 42C31.2547 42 32.4356 41.7898 33.4899 41.3273C36.4421 40.1502 38.5087 37.4595 38.9726 34.3483C39.31 32.8769 39.1413 31.4054 38.593 29.8498ZM19.5724 32.036C17.295 29.1772 15.8189 26.4865 15.3128 24.2162C15.1019 23.2492 15.0597 22.4084 15.1863 21.6517C15.2706 20.979 15.5237 20.3904 15.8611 19.8859C16.6624 18.7507 18.0119 18.036 19.5724 18.036C21.1328 18.036 22.5246 18.7087 23.2837 19.8859C23.6211 20.3904 23.8742 20.979 23.9585 21.6517C24.0851 22.4084 24.0429 23.2913 23.832 24.2162C23.3259 26.4444 21.8498 29.1351 19.5724 32.036ZM36.4 34.012C36.1047 36.1982 34.6286 38.0901 32.5621 38.9309C31.5499 39.3513 30.4534 39.4775 29.3568 39.3513C28.3025 39.2252 27.2481 38.8889 26.1516 38.2583C24.6333 37.4174 23.115 36.1141 21.3437 34.1802C24.1272 30.7748 25.8142 27.6637 26.4468 24.8889C26.742 23.5856 26.7842 22.4084 26.6577 21.3153C26.489 20.2643 26.1094 19.2973 25.519 18.4565C24.2116 16.5646 22.0185 15.4715 19.5724 15.4715C17.1263 15.4715 14.9332 16.6066 13.6258 18.4565C13.0354 19.2973 12.6558 20.2643 12.4871 21.3153C12.3184 22.4084 12.3606 23.6276 12.698 24.8889C13.3306 27.6637 15.0597 30.8168 17.8011 34.2222C16.0719 36.1562 14.5115 37.4595 12.9932 38.3003C11.8967 38.9309 10.8423 39.2673 9.78796 39.3934C8.64925 39.5195 7.55272 39.3513 6.58271 38.973C4.51617 38.1321 3.04007 36.2402 2.74485 34.0541C2.61832 33.003 2.70267 31.952 3.12441 30.7748C3.25094 30.3544 3.46181 29.9339 3.67268 29.4294C3.9679 28.7568 4.30529 28.042 4.64269 27.3273L4.68486 27.2432C7.59489 20.979 10.7158 14.5886 13.9632 8.36637L14.0897 8.11411C14.4271 7.48348 14.7645 6.81081 15.1019 6.18018C15.4393 5.50751 15.8189 4.87688 16.2828 4.33033C17.1685 3.32132 18.3493 2.77477 19.6567 2.77477C20.9642 2.77477 22.145 3.32132 23.0307 4.33033C23.4946 4.87688 23.8742 5.50751 24.2116 6.18018C24.549 6.81081 24.8864 7.48348 25.2238 8.11411L25.3503 8.36637C28.5555 14.6306 31.6764 21.021 34.5865 27.2853V27.3273C34.9239 28 35.2191 28.7568 35.5565 29.4294C35.7673 29.9339 35.9782 30.3544 36.1047 30.7748C36.4421 31.8679 36.5686 32.9189 36.4 34.012Z" fill="#F2F2F2"/>
</svg>
