<svg width="216" height="52" viewBox="0 0 216 52" fill="none" xmlns="http://www.w3.org/2000/svg">
<path d="M62.8253 29.0287C62.287 27.7026 62 26.266 62 24.6821C62 23.1351 62.287 21.6985 62.8253 20.3356C63.3635 19.0096 64.117 17.8677 65.0499 16.9468C65.9828 16.0259 67.0951 15.3261 68.3868 14.7735C69.6785 14.2578 71.0419 14 72.513 14C75.3835 14 77.7516 15.0682 79.5815 17.2046C79.8327 17.5362 79.9762 17.9045 79.9762 18.2729C79.9762 18.7517 79.7968 19.1569 79.4739 19.4884C79.151 19.8199 78.7204 19.9673 78.254 19.9673C77.7516 19.9673 77.3211 19.7831 76.9623 19.3779C76.3882 18.7149 75.7064 18.1624 74.9171 17.794C74.1277 17.4257 73.3383 17.2046 72.513 17.2046C70.5396 17.2046 68.8891 17.9045 67.5974 19.3042C66.3057 20.704 65.6598 22.472 65.6598 24.6085C65.6598 26.7449 66.3057 28.513 67.5974 29.9127C68.8891 31.3124 70.5396 32.0123 72.4772 32.0123C73.3024 32.0123 74.1277 31.8281 74.9171 31.4597C75.7064 31.0914 76.3523 30.5757 76.9264 29.8759C77.3211 29.4707 77.7516 29.2865 78.254 29.2865C78.7204 29.2865 79.1151 29.4338 79.438 29.7654C79.7609 30.0969 79.9045 30.502 79.9045 30.9441C79.9045 31.3492 79.7968 31.7176 79.5457 32.0123C77.7157 34.1487 75.3835 35.2169 72.4772 35.2169C71.0061 35.2169 69.6426 34.9591 68.3509 34.4434C67.0592 33.9277 65.9469 33.191 65.014 32.2701C64.0811 31.4966 63.3635 30.3547 62.8253 29.0287ZM82.9184 16.2469C82.9184 15.6944 83.062 15.2156 83.349 14.8472C83.6361 14.442 84.0666 14.2578 84.6048 14.2578C85.1431 14.2578 85.6095 14.442 86.0042 14.8472C86.363 15.2524 86.5783 15.6944 86.5783 16.2469C86.5783 16.8363 86.3989 17.3151 86.0042 17.6835C85.6454 18.0887 85.1789 18.2729 84.6048 18.2729C84.0666 18.2729 83.6361 18.0887 83.349 17.6835C83.062 17.2783 82.9184 16.7995 82.9184 16.2469ZM83.0261 33.5225V21.5143C83.0261 21.0723 83.1696 20.704 83.4925 20.3724C83.8155 20.0778 84.2102 19.8936 84.6766 19.8936C85.1072 19.8936 85.466 20.0409 85.753 20.3724C86.0759 20.704 86.2195 21.0723 86.2195 21.4775V33.4857C86.2195 33.9277 86.0759 34.296 85.753 34.6276C85.4301 34.9591 85.0713 35.1064 84.6048 35.1064C84.1384 35.1064 83.7796 34.9591 83.4567 34.6276C83.1337 34.296 83.0261 33.9645 83.0261 33.5225ZM88.6235 21.5143C88.6235 21.1091 88.767 20.7776 89.0182 20.5198C89.3052 20.2251 89.6281 20.0778 89.987 20.0778H91.2069V17.4993C91.2069 17.0573 91.3504 16.6521 91.6733 16.3574C91.9963 16.0628 92.391 15.8786 92.8574 15.8786C93.288 15.8786 93.6468 16.0259 93.9697 16.3574C94.2926 16.6889 94.4362 17.0573 94.4362 17.4993V20.0778H96.1943C96.5531 20.0778 96.876 20.2251 97.1631 20.5198C97.4143 20.8145 97.5578 21.1828 97.5578 21.588C97.5578 21.9932 97.4143 22.3247 97.1631 22.5825C96.9119 22.8772 96.589 23.0246 96.1943 23.0246H94.4362V30.6494C94.4362 31.2019 94.5797 31.6439 94.8308 31.9386C95.082 32.2333 95.4408 32.4175 95.8355 32.4175C95.9073 32.4175 96.0149 32.4175 96.1584 32.3806C96.302 32.3438 96.4096 32.3438 96.4814 32.3438C96.9119 32.3438 97.2349 32.4911 97.486 32.749C97.7372 33.0068 97.8807 33.3383 97.8807 33.7804C97.8807 34.8486 96.9119 35.4011 94.9744 35.4011C93.7544 35.4011 92.8215 35.0696 92.1757 34.4065C91.5298 33.7435 91.2069 32.7858 91.2069 31.5334V23.0614H89.987C89.5923 23.0614 89.2693 22.914 89.0182 22.6194C88.7311 22.2879 88.6235 21.9563 88.6235 21.5143ZM98.7418 21.5143C98.7418 21.1091 98.8854 20.704 99.2083 20.3724C99.4953 20.0409 99.89 19.8936 100.392 19.8936C100.715 19.8936 101.002 20.0041 101.289 20.1883C101.576 20.3724 101.756 20.6303 101.899 20.9618L105.739 31.1282L109.578 20.9618C109.685 20.6303 109.865 20.3724 110.152 20.1883C110.439 20.0041 110.762 19.8936 111.121 19.8936C111.587 19.8936 111.946 20.0409 112.233 20.3724C112.52 20.704 112.699 21.0723 112.699 21.4775C112.699 21.7353 112.664 21.9195 112.592 22.1037L106.384 37.6112C105.487 39.8581 103.909 41 101.684 41C101.074 41 100.572 40.8895 100.177 40.6317C99.7824 40.3738 99.5671 40.0055 99.5671 39.5266C99.5671 39.1214 99.7106 38.7899 99.9977 38.4952C100.285 38.2005 100.644 38.0532 101.074 38.0532C101.505 38.0532 101.828 38.0164 102.079 37.9795C102.33 37.9427 102.581 37.7954 102.796 37.6112C103.012 37.427 103.191 37.1692 103.37 36.8376L104.088 35.1801L98.8854 22.1037C98.7777 21.9195 98.7418 21.7353 98.7418 21.5143ZM115.319 33.5225V21.5143C115.319 21.0723 115.462 20.704 115.785 20.3724C116.108 20.0778 116.503 19.8936 116.969 19.8936C117.4 19.8936 117.759 20.0409 118.046 20.3724C118.333 20.704 118.512 21.0723 118.512 21.4775V22.1037C118.871 21.5512 119.517 20.9986 120.414 20.4829C121.311 19.9673 122.244 19.7094 123.248 19.7094C124.289 19.7094 125.15 19.9673 125.796 20.4461C126.478 20.925 126.908 21.6248 127.159 22.472C127.626 21.7353 128.308 21.0723 129.205 20.5198C130.102 19.9673 131.07 19.7094 132.111 19.7094C133.438 19.7094 134.479 20.0778 135.197 20.8513C135.914 21.588 136.273 22.7299 136.273 24.2401V33.5593C136.273 34.0014 136.13 34.3697 135.807 34.7012C135.484 35.0327 135.089 35.1801 134.658 35.1801C134.228 35.1801 133.869 35.0327 133.546 34.7012C133.223 34.3697 133.08 34.0014 133.08 33.5593V25.3083C133.08 23.5402 132.29 22.6562 130.712 22.6562C130.066 22.6562 129.42 22.8404 128.81 23.2456C128.2 23.6139 127.733 24.0928 127.375 24.6085V33.5593C127.375 34.0014 127.231 34.3697 126.908 34.7012C126.585 35.0327 126.226 35.1801 125.76 35.1801C125.329 35.1801 124.935 35.0327 124.612 34.7012C124.289 34.3697 124.145 34.0014 124.145 33.5593V25.3083C124.145 24.498 123.966 23.8349 123.571 23.3561C123.177 22.8772 122.603 22.6562 121.777 22.6562C121.131 22.6562 120.521 22.8404 119.911 23.2456C119.301 23.6508 118.835 24.0928 118.476 24.6085V33.5225C118.476 33.9645 118.333 34.3329 118.01 34.6644C117.687 34.9959 117.328 35.1432 116.862 35.1432C116.395 35.1432 116.036 34.9959 115.713 34.6644C115.39 34.3329 115.319 33.9645 115.319 33.5225ZM139.502 30.3915C139.502 29.5812 139.646 28.8445 139.969 28.2183C140.256 27.5921 140.651 27.0764 141.153 26.708C141.655 26.3397 142.193 26.045 142.767 25.8608C143.342 25.6767 143.916 25.5662 144.562 25.5662C145.53 25.5662 146.427 25.7135 147.253 26.045C148.078 26.3765 148.724 26.8554 149.226 27.4816V25.3083C149.226 24.498 148.903 23.8718 148.293 23.3929C147.683 22.9141 146.858 22.693 145.853 22.693C144.526 22.693 143.377 23.0246 142.409 23.6876C142.193 23.8349 141.978 23.8718 141.763 23.8718C141.44 23.8718 141.153 23.7613 140.902 23.5034C140.651 23.2456 140.507 22.9509 140.507 22.5825C140.507 22.3247 140.579 22.0668 140.758 21.8827C141.296 21.1828 142.086 20.6671 143.162 20.3356C144.239 19.9673 145.315 19.7831 146.356 19.7831C147.181 19.7831 147.97 19.8936 148.652 20.0778C149.37 20.2619 149.979 20.5566 150.554 20.9986C151.128 21.4038 151.558 21.9563 151.917 22.693C152.24 23.3929 152.419 24.2401 152.419 25.1978V33.5962C152.419 34.0382 152.276 34.4066 151.953 34.7381C151.63 35.0696 151.271 35.2169 150.841 35.2169H150.661C150.374 35.2169 150.051 35.1064 149.728 34.8486C149.405 34.5907 149.226 34.2224 149.226 33.7067V33.4488C148.688 34.075 148.042 34.5539 147.217 34.9222C146.391 35.2538 145.53 35.4379 144.562 35.4379C143.952 35.4379 143.377 35.3274 142.767 35.1064C142.193 34.8854 141.655 34.5907 141.153 34.1855C140.651 33.7804 140.256 33.2647 139.969 32.6385C139.646 31.9018 139.502 31.2019 139.502 30.3915ZM142.696 30.4652C142.696 31.2387 142.983 31.8649 143.557 32.3438C144.131 32.8226 144.849 33.0437 145.746 33.0437C146.463 33.0437 147.109 32.9332 147.719 32.6753C148.329 32.4175 148.795 32.0491 149.154 31.5703V29.3602C148.795 28.8813 148.329 28.513 147.719 28.2551C147.109 27.9973 146.463 27.8868 145.746 27.8868C144.849 27.8868 144.131 28.1078 143.557 28.5866C142.983 29.0286 142.696 29.6548 142.696 30.4652ZM156.51 39.2319V21.5143C156.51 21.0723 156.653 20.704 156.976 20.3724C157.299 20.0778 157.694 19.8936 158.16 19.8936C158.591 19.8936 158.95 20.0409 159.237 20.3724C159.524 20.704 159.703 21.0723 159.703 21.4775V22.0668C160.241 21.3301 160.923 20.7408 161.748 20.3356C162.574 19.9304 163.435 19.7094 164.332 19.7094C166.233 19.7094 167.812 20.4093 168.996 21.809C170.18 23.2087 170.754 25.0873 170.754 27.5184C170.754 29.9495 170.144 31.8649 168.96 33.2647C167.776 34.6644 166.233 35.3643 164.332 35.3643C163.435 35.3643 162.574 35.1432 161.784 34.7381C160.995 34.3329 160.313 33.7435 159.703 32.9331V39.2319C159.703 39.6739 159.56 40.0423 159.237 40.337C158.914 40.6685 158.555 40.8158 158.089 40.8158C157.658 40.8158 157.263 40.6685 156.976 40.337C156.653 40.0423 156.51 39.6739 156.51 39.2319ZM159.703 30.4284C160.062 30.9809 160.564 31.4229 161.282 31.8281C161.964 32.1964 162.681 32.4175 163.363 32.4175C164.583 32.4175 165.552 31.9754 166.305 31.0546C167.059 30.1337 167.418 28.955 167.418 27.5184C167.418 26.0819 167.059 24.94 166.305 24.0191C165.552 23.0982 164.583 22.6562 163.363 22.6562C162.645 22.6562 161.964 22.8404 161.282 23.2456C160.6 23.6139 160.062 24.0928 159.703 24.6453V30.4284ZM173.876 39.2319V21.5143C173.876 21.0723 174.02 20.704 174.342 20.3724C174.665 20.0409 175.06 19.8936 175.527 19.8936C175.957 19.8936 176.316 20.0409 176.603 20.3724C176.89 20.704 177.069 21.0723 177.069 21.4775V22.0668C177.608 21.3301 178.289 20.7408 179.115 20.3356C179.94 19.9304 180.801 19.7094 181.698 19.7094C183.6 19.7094 185.178 20.4093 186.363 21.809C187.547 23.2087 188.121 25.0873 188.121 27.5184C188.121 29.9495 187.511 31.8649 186.327 33.2647C185.143 34.6644 183.6 35.3643 181.698 35.3643C180.801 35.3643 179.94 35.1432 179.151 34.7381C178.361 34.3329 177.679 33.7435 177.069 32.9331V39.2319C177.069 39.6739 176.926 40.0423 176.603 40.337C176.28 40.6685 175.921 40.8158 175.455 40.8158C175.024 40.8158 174.63 40.6685 174.342 40.337C174.055 40.0055 173.876 39.6739 173.876 39.2319ZM177.105 30.4284C177.464 30.9809 177.966 31.4229 178.684 31.8281C179.366 32.1964 180.083 32.4175 180.765 32.4175C181.985 32.4175 182.954 31.9754 183.707 31.0546C184.461 30.1337 184.82 28.955 184.82 27.5184C184.82 26.0819 184.461 24.94 183.707 24.0191C182.954 23.0982 181.985 22.6562 180.765 22.6562C180.048 22.6562 179.366 22.8404 178.684 23.2456C178.002 23.6139 177.464 24.0928 177.105 24.6453V30.4284ZM190.489 27.4816C190.489 26.045 190.812 24.7558 191.422 23.5771C192.032 22.3984 192.929 21.4407 194.041 20.7408C195.189 20.0409 196.445 19.7094 197.844 19.7094C199.531 19.7094 200.93 20.1883 202.15 21.146C203.37 22.1037 204.159 23.3929 204.59 25.0136C204.841 25.8608 204.949 26.5239 204.949 27.0027C204.949 27.4448 204.805 27.8131 204.482 28.1446C204.159 28.4761 203.765 28.6235 203.334 28.6235H193.754C193.862 29.7285 194.328 30.6125 195.153 31.3492C195.979 32.0859 197.019 32.4543 198.311 32.4543C199.459 32.4543 200.571 32.1965 201.576 31.7176C201.791 31.6071 202.007 31.5703 202.222 31.5703C202.581 31.5703 202.904 31.7176 203.191 31.9754C203.478 32.2333 203.621 32.5648 203.621 32.9331C203.621 33.3383 203.406 33.7067 203.011 34.0382C202.616 34.3697 202.114 34.6276 201.504 34.8117C200.894 34.9959 200.284 35.1432 199.71 35.2538C199.1 35.3643 198.562 35.4011 198.06 35.4011C195.871 35.4011 194.077 34.6644 192.642 33.2278C191.206 31.7176 190.489 29.839 190.489 27.4816ZM193.682 26.3029H201.719C201.684 25.8608 201.612 25.4557 201.468 25.0505C201.325 24.6453 201.074 24.2401 200.787 23.8718C200.464 23.5034 200.069 23.2087 199.531 22.9877C198.993 22.7667 198.418 22.6562 197.737 22.6562C196.517 22.6562 195.584 23.0246 194.866 23.7613C194.185 24.498 193.79 25.3452 193.682 26.3029ZM207.963 33.5225V21.5143C207.963 21.0723 208.106 20.704 208.429 20.3724C208.752 20.0778 209.147 19.8936 209.613 19.8936C210.044 19.8936 210.403 20.0409 210.69 20.3724C211.013 20.704 211.156 21.0723 211.156 21.5143V22.3247C212.304 20.704 213.452 19.8936 214.601 19.8936C215.031 19.8936 215.354 20.0409 215.605 20.2988C215.856 20.5566 216 20.925 216 21.367C216 21.8827 215.856 22.2879 215.569 22.5825C215.282 22.8772 214.924 23.0614 214.457 23.1351C212.986 23.2824 211.874 23.8718 211.156 24.94V33.5225C211.156 33.9645 211.013 34.3329 210.69 34.6644C210.367 34.9959 210.008 35.1432 209.577 35.1432H209.506C209.075 35.1432 208.716 34.9959 208.393 34.6644C208.07 34.3329 207.963 33.9645 207.963 33.5225Z" fill="#F2F2F2"/>
<path d="M27 0C41.9117 0 54 11.6406 54 26C54 40.3594 41.9117 52 27 52C12.0883 52 0 40.3594 0 26C0 11.6406 12.0883 0 27 0ZM7.08398 30.624C6.93513 29.8808 6.11756 29.3737 5.2627 29.5088C4.40765 29.644 3.85025 30.3542 4.03613 31.0977C5.56045 38.4303 11.4341 44.4788 19.3896 46.8779C21.2112 47.4186 23.07 47.7906 24.9287 47.9258C31.2486 48.3988 37.6056 46.6075 42.4756 42.7891C43.1075 42.2822 43.1816 41.4377 42.624 40.8633C42.0292 40.3227 41.0255 40.2549 40.3936 40.7617C34.9288 45.0531 27.271 46.4045 20.3936 44.3096C13.516 42.2145 8.42232 36.9768 7.08398 30.624ZM29.0176 19.5068C28.3113 18.8313 27.1594 18.8312 26.4531 19.5068C25.7468 20.1489 25.7468 21.23 26.4531 21.8721L28.7207 24.001H21.3965C20.393 24.0012 19.5754 24.7445 19.5752 25.6904C19.5752 26.6365 20.3929 27.3797 21.3965 27.3799H28.7207L26.416 29.5088C25.7097 30.1508 25.7097 31.1992 26.416 31.875C26.7877 32.2127 27.2337 32.3818 27.7168 32.3818C28.1999 32.3818 28.683 32.2127 29.0176 31.875L34.334 26.873C34.6685 26.5689 34.8545 26.1297 34.8545 25.6904C34.8544 25.2512 34.6685 24.8119 34.334 24.5078L29.0176 19.5068ZM14.1104 23.3926C12.7721 23.3926 11.6943 24.3734 11.6943 25.5898C11.6946 26.8061 12.7722 27.7861 14.1104 27.7861C15.4485 27.7861 16.5271 26.8061 16.5273 25.5898C16.5273 24.3733 15.4487 23.3926 14.1104 23.3926ZM40.2451 23.3926C38.9068 23.3926 37.8291 24.3733 37.8291 25.5898C37.8294 26.8061 38.907 27.7861 40.2451 27.7861C41.5833 27.7861 42.6608 26.8061 42.6611 25.5898C42.6611 24.3734 41.5834 23.3926 40.2451 23.3926Z" fill="#F2F2F2"/>
</svg>
