<svg width="224" height="48" viewBox="0 0 224 48" fill="none" xmlns="http://www.w3.org/2000/svg">
<path d="M222.741 31.8405C222.046 31.8405 221.482 32.4049 221.482 33.0997C221.482 33.7945 222.046 34.3588 222.741 34.3588C223.436 34.3588 224 33.7945 224 33.0997C224 32.4049 223.436 31.8405 222.741 31.8405ZM222.741 34.1591C222.155 34.1591 221.681 33.6826 221.681 33.0997C221.681 32.514 222.158 32.0402 222.741 32.0402C223.327 32.0402 223.803 32.5167 223.803 33.0997C223.803 33.6826 223.327 34.1591 222.741 34.1591ZM223.151 32.884C223.151 32.6551 222.988 32.5193 222.749 32.5193H222.347V33.6667H222.544V33.2514H222.759L222.967 33.6667H223.18L222.951 33.2089C223.074 33.1529 223.151 33.0411 223.151 32.884ZM222.741 33.073H222.547V32.6924H222.741C222.874 32.6924 222.954 32.759 222.954 32.8814C222.954 33.0065 222.871 33.073 222.741 33.073ZM71.025 19.0975V16.0521H66.3559V34.1698H71.025V23.3062C71.025 21.3389 72.2868 20.3726 74.2541 20.3726H76.8096V16.0522H74.6267C72.9177 16.0521 71.4323 16.9439 71.025 19.0975ZM81.1833 8.88605C79.5861 8.88605 78.3615 10.1479 78.3615 11.7451C78.3615 13.305 79.5861 14.5668 81.1833 14.5668C82.7805 14.5668 84.005 13.305 84.005 11.7451C84.005 10.1478 82.7805 8.88605 81.1833 8.88605ZM78.854 34.1698H83.5126V16.0521H78.854V34.1698ZM105.703 25.111C105.703 30.2832 101.51 34.476 96.338 34.476C94.251 34.476 92.3583 33.7918 90.8409 32.6365V39.4886H86.1824V16.0521H90.8409V17.5854C92.3583 16.4301 94.251 15.746 96.338 15.746C101.51 15.746 105.703 19.9387 105.703 25.111ZM101.015 25.111C101.015 22.3026 98.7366 20.0238 95.9281 20.0238C93.1197 20.0238 90.841 22.3026 90.841 25.111C90.841 27.9194 93.1197 30.1981 95.9281 30.1981C98.7366 30.1981 101.015 27.9221 101.015 25.111ZM186.671 23.5218L183.953 22.7764C182.164 22.3105 181.469 21.7621 181.469 20.8172C181.469 19.8961 182.449 19.2519 183.849 19.2519C185.183 19.2519 186.229 20.125 186.229 21.243V21.3468H190.523V21.243C190.523 17.9554 187.842 15.7459 183.849 15.7459C179.896 15.7459 177.024 17.9527 177.024 20.9954C177.024 23.362 178.591 25.1455 181.328 25.8855L183.932 26.5963C185.909 27.1447 186.644 27.7516 186.644 28.8404C186.644 29.9878 185.582 30.7597 184.001 30.7597C182.353 30.7597 181.243 29.7162 181.243 28.1669V28.0631H176.685V28.1669C176.685 31.8831 179.678 34.4812 183.964 34.4812C188.092 34.4812 191.09 31.9443 191.09 28.4517C191.09 26.7374 190.323 24.4961 186.671 23.5218ZM122.229 16.0521H126.887V34.1698H122.229V32.6364C120.711 33.7918 118.819 34.4759 116.732 34.4759C111.56 34.4759 107.367 30.2832 107.367 25.1109C107.367 19.9386 111.56 15.7459 116.732 15.7459C118.819 15.7459 120.712 16.4301 122.229 17.5854V16.0521ZM122.229 25.111C122.229 22.2999 119.95 20.0238 117.142 20.0238C114.333 20.0238 112.055 22.3026 112.055 25.111C112.055 27.9194 114.333 30.1981 117.142 30.1981C119.953 30.1981 122.229 27.9221 122.229 25.111ZM143.709 9.60477H148.367V34.1724H143.709V32.6391C142.191 33.7944 140.299 34.4786 138.212 34.4786C133.039 34.4786 128.847 30.2859 128.847 25.1136C128.847 19.9412 133.039 15.7486 138.212 15.7486C140.299 15.7486 142.191 16.4327 143.709 17.588V9.60477ZM143.709 25.111C143.709 22.3026 141.43 20.0238 138.621 20.0238C135.813 20.0238 133.534 22.3026 133.534 25.111C133.534 27.9194 135.81 30.1981 138.621 30.1981C141.43 30.1981 143.709 27.9221 143.709 25.111ZM169.996 34.1698H174.654V16.0521H169.996V34.1698ZM172.325 8.88605C170.728 8.88605 169.503 10.1479 169.503 11.7451C169.503 13.305 170.728 14.5668 172.325 14.5668C173.922 14.5668 175.147 13.305 175.147 11.7451C175.147 10.1478 173.922 8.88605 172.325 8.88605ZM211.225 25.111C211.225 30.2832 207.032 34.476 201.86 34.476C196.688 34.476 192.495 30.2833 192.495 25.111C192.495 19.9386 196.688 15.746 201.86 15.746C207.032 15.746 211.225 19.9387 211.225 25.111ZM206.947 25.111C206.947 22.3026 204.669 20.0238 201.86 20.0238C199.052 20.0238 196.773 22.3026 196.773 25.111C196.773 27.9194 199.049 30.1981 201.86 30.1981C204.668 30.1981 206.947 27.9221 206.947 25.111ZM68.6398 9.60477H50.7698V13.7602H57.3849V34.1698H62.0274V13.7602H68.6426V9.60477H68.6398ZM159.012 29.2078L154.868 16.0522H149.975L156.191 34.1698H161.797L168.05 16.0522H163.157L159.012 29.2078ZM218.05 19.0975V16.0521H213.381V34.1698H218.05V23.3062C218.05 21.3389 219.312 20.3726 221.279 20.3726H223.835V16.0522H221.652C219.943 16.0521 218.46 16.9439 218.05 19.0975Z" fill="#F2F2F2"/>
<path d="M23.8252 0C36.9832 0.000126787 47.6504 10.6671 47.6504 23.8252C47.6504 36.9833 36.9832 47.6503 23.8252 47.6504C10.667 47.6504 0 36.9834 0 23.8252C5.15406e-06 10.667 10.667 0 23.8252 0ZM23.8252 12.5996C19.6618 12.5996 15.8173 13.8723 12.6309 16.0498H6.24023L9.11426 19.1777C7.35229 20.7855 6.24805 23.1016 6.24805 25.6729C6.24815 30.5256 10.1824 34.46 15.0352 34.46C17.3404 34.4599 19.4409 33.5707 21.0088 32.1172L23.8252 35.1836L26.6416 32.1201C28.2095 33.5735 30.3071 34.46 32.6123 34.46C37.4651 34.46 41.4052 30.5256 41.4053 25.6729C41.4079 23.0989 40.303 20.7829 38.541 19.1777L41.416 16.0498H35.04C31.8484 13.8696 27.9938 12.5997 23.8252 12.5996ZM15.0381 19.7256C18.3228 19.7258 20.9844 22.388 20.9844 25.6729C20.9843 28.9576 18.3227 31.6189 15.0381 31.6191C11.7532 31.6191 9.09092 28.9577 9.09082 25.6729C9.09082 22.3879 11.7532 19.7256 15.0381 19.7256ZM32.6152 19.7256C35.9001 19.7257 38.5615 22.388 38.5615 25.6729C38.5614 28.9576 35.8999 31.619 32.6152 31.6191C29.3303 31.6191 26.6681 28.9577 26.668 25.6729C26.668 22.3879 29.3303 19.7256 32.6152 19.7256ZM15.0381 22.5557C13.3158 22.5557 11.9209 23.9505 11.9209 25.6729C11.921 27.3951 13.3159 28.79 15.0381 28.79C16.7601 28.7898 18.1552 27.3949 18.1553 25.6729C18.1553 23.9506 16.7602 22.5532 15.0381 22.5557ZM32.6152 22.5527C30.8929 22.5527 29.4981 23.9476 29.498 25.6699C29.498 27.3922 30.8929 28.7871 32.6152 28.7871C34.3374 28.787 35.7324 27.3921 35.7324 25.6699C35.7323 23.9504 34.3374 22.5529 32.6152 22.5527ZM23.8252 15.4717C26.165 15.4717 28.3957 15.9428 30.4268 16.792C26.6734 18.2295 23.8281 21.5869 23.8281 25.5C23.8281 21.5868 20.9817 18.2268 17.2256 16.792C19.2567 15.9428 21.4853 15.4717 23.8252 15.4717Z" fill="#F2F2F2"/>
</svg>
