<svg width="88" height="27" viewBox="0 0 88 27" fill="none" xmlns="http://www.w3.org/2000/svg">
<path d="M15.9598 14.3117C16.2479 14.411 16.5832 14.5588 16.9657 14.7551C17.6363 15.1501 18.21 15.6903 18.6918 16.3784C19.268 17.3621 19.5536 18.542 19.5536 19.9181C19.5536 24.6402 16.772 27 11.2136 27H0.432152C0.144051 27 0 26.8522 0 26.5566V3.8353C0 3.53969 0.144051 3.39188 0.432152 3.39188H11.7923C13.8065 3.39188 15.4333 3.96017 16.6801 5.0891C17.9244 6.22058 18.5502 7.72157 18.5502 9.58952C18.5502 10.6726 18.3093 11.6308 17.8325 12.4666C17.3506 13.305 16.7273 13.9192 15.9598 14.3117ZM11.072 23.6056C12.7013 23.6056 13.8984 23.3354 14.6658 22.7952C15.4308 22.2549 15.8158 21.3197 15.8158 19.992C15.8158 18.6643 15.4308 17.7316 14.6658 17.1888C13.8984 16.6485 12.6988 16.3784 11.072 16.3784H4.31407C3.9291 16.3784 3.73786 16.5262 3.73786 16.8218V23.1672C3.73786 23.4629 3.9291 23.6107 4.31407 23.6107H11.072V23.6056ZM4.31407 6.78631C4.02597 6.78631 3.88191 6.93412 3.88191 7.22973V12.5405C3.88191 12.8361 4.02597 12.984 4.31407 12.984H10.928C13.4191 12.984 14.6658 11.9519 14.6658 9.88513C14.6658 7.8184 13.4191 6.78631 10.928 6.78631H4.31407ZM39.2563 14.3117C39.5444 14.411 39.8325 14.5588 40.1181 14.7551C40.883 15.1501 41.4592 15.6903 41.8442 16.3784C42.5148 17.3621 42.8501 18.542 42.8501 19.9181C42.8501 24.6402 40.0684 27 34.51 27H23.7261C23.438 27 23.294 26.8522 23.294 26.5566V3.8353C23.294 3.53969 23.438 3.39188 23.7261 3.39188H35.0863C37.0036 3.39188 38.608 3.96017 39.9045 5.0891C41.1985 6.22058 41.8467 7.72157 41.8467 9.58952C41.8467 10.6726 41.6058 11.6308 41.1289 12.4666C40.6446 13.305 40.0212 13.9192 39.2563 14.3117ZM27.464 6.78631C27.1759 6.78631 27.0318 6.93412 27.0318 7.22973V12.5405C27.0318 12.8361 27.1759 12.984 27.464 12.984H34.2219C36.713 12.984 37.9598 11.9519 37.9598 9.88513C37.9598 7.8184 36.713 6.78631 34.2219 6.78631H27.464ZM34.366 23.6056C35.9953 23.6056 37.1924 23.3354 37.9598 22.7952C38.7248 22.2549 39.1097 21.3197 39.1097 19.992C39.1097 18.6643 38.7248 17.7316 37.9598 17.1888C37.1924 16.6485 35.9928 16.3784 34.366 16.3784H27.464C27.1759 16.3784 27.0318 16.5262 27.0318 16.8218V23.1672C27.0318 23.4629 27.1759 23.6107 27.464 23.6107H34.366V23.6056ZM63.4121 3.68749C63.5064 3.49127 63.6033 3.39188 63.7002 3.39188H67.438C67.5324 3.39188 67.6293 3.44285 67.7261 3.53969C67.8205 3.63907 67.8205 3.73846 67.7261 3.8353L55.7923 26.8522C55.6954 26.9516 55.5762 27 55.4322 27C55.2881 27 55.1664 26.9516 55.072 26.8522L43.1382 3.8353C43.0413 3.73846 43.0165 3.63907 43.0662 3.53969C43.1133 3.44285 43.2326 3.39188 43.4263 3.39188H47.0201C47.2113 3.39188 47.3554 3.49127 47.4522 3.68749L55.072 18.4426C55.072 18.542 55.1664 18.5904 55.3601 18.5904C55.5514 18.5904 55.6954 18.542 55.7923 18.4426L63.4121 3.68749ZM67.7261 23.3125C67.6293 23.5113 67.4852 23.6081 67.294 23.6081H63.5561C63.4592 23.6081 63.3872 23.5597 63.34 23.4603C63.2904 23.3635 63.268 23.2641 63.268 23.1647L75.2043 0.147806C75.2987 0.0509674 75.4428 0 75.6365 0C75.8277 0 75.9718 0.0509674 76.0686 0.147806L88 23.1647C88 23.2641 87.9752 23.3635 87.928 23.4603C87.8783 23.5597 87.8063 23.6081 87.7119 23.6081H83.974C83.7803 23.6081 83.6363 23.5113 83.5419 23.3125L76.0637 8.55743C75.9668 8.36121 75.8228 8.26182 75.6315 8.26182C75.4378 8.26182 75.2937 8.36121 75.1994 8.55743L67.7261 23.3125Z" fill="#F2F2F2"/>
</svg>
