<svg width="158" height="36" viewBox="0 0 158 36" fill="none" xmlns="http://www.w3.org/2000/svg">
<path d="M63.4139 13.5636C63.2747 13.648 63.109 13.6774 62.9493 13.6459C62.7896 13.6144 62.6474 13.5243 62.5506 13.3934C62.0752 12.7108 61.4372 12.1574 60.6943 11.7832C59.9514 11.4089 59.127 11.2256 58.2955 11.2497C55.0536 11.2497 53.0637 13.8148 53.0637 17.4783C53.0637 21.1418 55.09 23.7558 58.332 23.7558C59.1746 23.7759 60.0084 23.5806 60.7544 23.1885C61.5005 22.7963 62.1341 22.2202 62.5952 21.5147C62.6874 21.382 62.826 21.2889 62.9837 21.2536C63.1413 21.2183 63.3064 21.2435 63.4463 21.3243L64.9863 22.2158C65.0704 22.2585 65.1443 22.3187 65.2031 22.3925C65.2618 22.4663 65.3039 22.5518 65.3266 22.6433C65.3493 22.7349 65.352 22.8302 65.3345 22.9229C65.317 23.0155 65.2798 23.1033 65.2253 23.1803C64.4725 24.3087 63.4454 25.2275 62.2405 25.8505C61.0355 26.4736 59.6921 26.7804 58.3361 26.7424C53.1529 26.7424 49.6393 22.9819 49.6393 17.4988C49.6393 12.0157 53.1529 8.30344 58.2591 8.30344C59.5924 8.26643 60.9146 8.55661 62.1099 9.14862C63.3052 9.74062 64.3373 10.6164 65.1159 11.6995C65.1695 11.7724 65.2075 11.8555 65.2276 11.9438C65.2477 12.032 65.2494 12.1234 65.2327 12.2123C65.216 12.3012 65.1812 12.3858 65.1304 12.4607C65.0796 12.5356 65.014 12.5992 64.9376 12.6477L63.4139 13.5636Z" fill="#F2F2F2"/>
<path fill-rule="evenodd" clip-rule="evenodd" d="M74.7447 25.0037V25.7493C74.7447 25.8369 74.7624 25.9236 74.7967 26.0041C74.8311 26.0847 74.8814 26.1574 74.9447 26.218C75.0079 26.2786 75.0827 26.3258 75.1647 26.3567C75.2466 26.3875 75.334 26.4015 75.4215 26.3977H77.1155C77.2006 26.3977 77.2849 26.381 77.3636 26.3484C77.4423 26.3158 77.5137 26.268 77.574 26.2078C77.6342 26.1476 77.6819 26.0761 77.7145 25.9974C77.7471 25.9188 77.7639 25.8344 77.7639 25.7493V17.2795C77.7639 14.2118 75.5837 12.9434 72.4956 12.9434C70.7598 12.9474 69.0513 13.3759 67.5191 14.1915C67.3728 14.273 67.2634 14.4077 67.2136 14.5676C67.1638 14.7275 67.1774 14.9005 67.2517 15.0506L67.8068 16.2097C67.8449 16.2875 67.8984 16.3567 67.964 16.4132C68.0297 16.4698 68.1061 16.5124 68.1887 16.5386C68.2713 16.5647 68.3583 16.5738 68.4445 16.5654C68.5307 16.5569 68.6143 16.531 68.6903 16.4894C69.7843 15.9208 70.9954 15.6142 72.2281 15.5937C73.3021 15.5937 74.5705 15.8897 74.5705 16.9878C74.5705 18.1366 73.1829 18.3325 71.4709 18.5741C71.3329 18.5935 71.1949 18.6132 71.057 18.6331C69.2901 18.8803 66.4249 19.4315 66.4249 22.6451C66.4249 25.2266 68.2932 26.6977 70.9841 26.6977C72.8036 26.6977 73.9343 26.0492 74.7447 25.0037ZM72.0889 20.6362C73.1123 20.4565 74.0404 20.2938 74.5705 19.8935V21.4011C74.5705 23.3706 73.1521 24.2175 71.6324 24.2175C70.4086 24.2175 69.5616 23.6704 69.5616 22.4992C69.5616 21.2267 70.5342 20.9147 71.7054 20.704C71.8342 20.6808 71.9623 20.6584 72.0889 20.6362Z" fill="#F2F2F2"/>
<path d="M80.5479 23.0431C80.6572 22.9158 80.8116 22.8359 80.9786 22.82C81.1456 22.8042 81.3123 22.8536 81.4436 22.9581C82.5271 23.7763 83.8551 24.2046 85.2125 24.1738C86.6105 24.1738 87.6439 23.724 87.6439 22.6298C87.6439 21.6328 86.6957 21.4343 84.402 21.0331C81.9704 20.6278 79.6443 19.8173 79.6443 17.0455C79.6443 14.1559 82.1366 12.9363 84.9774 12.9363C86.7588 12.9099 88.4978 13.4805 89.9174 14.5571C89.9866 14.6113 90.0442 14.6791 90.0864 14.7563C90.1286 14.8335 90.1547 14.9184 90.1631 15.006C90.1714 15.0936 90.1618 15.182 90.1349 15.2657C90.108 15.3495 90.0643 15.4269 90.0065 15.4932L89.196 16.4456C89.0886 16.5733 88.9363 16.655 88.7704 16.6739C88.6046 16.6927 88.4378 16.6473 88.3045 16.547C87.3058 15.8165 86.0971 15.4297 84.8599 15.4447C83.6644 15.4447 82.6189 15.7933 82.6189 16.7374C82.6189 17.787 84.0858 17.9856 85.5569 18.2368C88.6975 18.784 90.6914 19.6795 90.6914 22.2894C90.6914 25.0289 88.499 26.7228 85.0179 26.7228C83.1153 26.781 81.2521 26.1733 79.7497 25.0045C79.6823 24.9493 79.6265 24.8813 79.5857 24.8043C79.5448 24.7274 79.5197 24.6431 79.5118 24.5564C79.5039 24.4696 79.5133 24.3822 79.5395 24.2991C79.5657 24.216 79.6082 24.139 79.6645 24.0725L80.5479 23.0431ZM92.6164 25.7501V9.25635C92.6164 9.1712 92.6331 9.08688 92.6657 9.00821C92.6983 8.92954 92.746 8.85805 92.8062 8.79784C92.8664 8.73763 92.9379 8.68986 93.0166 8.65727C93.0953 8.62468 93.1796 8.60791 93.2647 8.60791H95.133C95.4911 8.60791 95.7814 8.89824 95.7814 9.25635V14.8894C96.2465 14.2687 96.8534 13.7682 97.5513 13.4298C98.2493 13.0914 99.018 12.9249 99.7934 12.9441C102.557 12.9441 104.178 14.9136 104.178 17.7261V25.7501C104.178 25.8353 104.161 25.9196 104.129 25.9983C104.096 26.0769 104.049 26.1484 103.988 26.2086C103.928 26.2688 103.857 26.3166 103.778 26.3492C103.699 26.3818 103.615 26.3986 103.53 26.3986H101.662C101.49 26.3986 101.325 26.3302 101.203 26.2086C101.081 26.087 101.013 25.9221 101.013 25.7501V18.4556C101.013 17.0575 100.563 15.789 98.7721 15.789C97.0742 15.789 95.7814 16.9846 95.7814 18.9783V25.7541C95.7814 25.9261 95.7131 26.091 95.5915 26.2126C95.4699 26.3342 95.305 26.4026 95.133 26.4026H93.2647C93.1791 26.4031 93.0942 26.3865 93.015 26.3539C92.9359 26.3212 92.864 26.2731 92.8036 26.2124C92.7433 26.1516 92.6956 26.0795 92.6635 26.0001C92.6313 25.9207 92.6153 25.8357 92.6164 25.7501Z" fill="#F2F2F2"/>
<path fill-rule="evenodd" clip-rule="evenodd" d="M123.392 21.9888L124.737 25.9603C124.778 26.0895 124.858 26.2028 124.966 26.2842C125.074 26.3656 125.205 26.4111 125.341 26.4142H127.655C127.76 26.4147 127.863 26.3898 127.955 26.3418C128.048 26.2938 128.128 26.224 128.188 26.1384C128.248 26.0529 128.287 25.9541 128.3 25.8504C128.314 25.7466 128.303 25.6411 128.267 25.5429L122.167 9.04913C122.121 8.92459 122.037 8.81721 121.928 8.74122C121.819 8.66522 121.689 8.6242 121.556 8.62358H118.561C118.431 8.62204 118.303 8.65991 118.195 8.73224C118.086 8.80456 118.002 8.90796 117.953 9.02889L111.829 25.5267C111.794 25.6246 111.782 25.7297 111.795 25.833C111.809 25.9364 111.847 26.035 111.907 26.1205C111.966 26.206 112.046 26.2759 112.138 26.3242C112.23 26.3725 112.333 26.3978 112.437 26.398H114.629C114.764 26.3984 114.896 26.3564 115.006 26.2779C115.116 26.1994 115.199 26.0883 115.242 25.9603L116.591 21.9888H123.392ZM117.41 19.221L120.028 11.4969L122.545 19.221H117.41ZM132.963 14.9132V13.8919C132.968 13.804 132.954 13.7161 132.924 13.6337C132.893 13.5512 132.846 13.4759 132.785 13.4124C132.724 13.3487 132.652 13.2981 132.571 13.2635C132.49 13.2289 132.403 13.2111 132.315 13.2112H130.446C130.089 13.2112 129.798 13.5015 129.798 13.8595V30.0696C129.798 30.4277 130.089 30.718 130.446 30.718H132.315C132.673 30.718 132.963 30.4277 132.963 30.0696V24.6919C133.421 25.3343 134.03 25.8529 134.738 26.2009C135.446 26.549 136.228 26.7155 137.016 26.6857C140.602 26.6857 142.92 23.683 142.92 19.7965C142.92 15.9102 140.602 12.9436 137.016 12.9436C136.231 12.9118 135.449 13.075 134.742 13.4187C134.035 13.7624 133.424 14.2758 132.963 14.9132ZM139.593 19.7965C139.593 22.0619 138.544 23.9342 136.351 23.9342C134.119 23.9342 132.963 22.0658 132.963 19.7965C132.963 17.527 134.179 15.7074 136.351 15.7074C138.523 15.7074 139.593 17.5311 139.593 19.7965ZM148.039 14.913V13.8918C148.044 13.8038 148.031 13.7158 148 13.6331C147.97 13.5504 147.923 13.4748 147.863 13.4109C147.802 13.3471 147.728 13.2965 147.647 13.2621C147.566 13.2277 147.479 13.2103 147.39 13.211H145.522C145.35 13.211 145.185 13.2794 145.063 13.4009C144.942 13.5225 144.874 13.6874 144.874 13.8593V30.0696C144.874 30.4276 145.164 30.7178 145.522 30.7178H147.39C147.748 30.7178 148.039 30.4276 148.039 30.0695V24.6917C148.496 25.3335 149.106 25.8516 149.814 26.1996C150.521 26.5476 151.304 26.7146 152.092 26.6856C155.682 26.6856 158 23.6826 158 19.7963C158 15.91 155.682 12.9435 152.092 12.9435C151.306 12.9124 150.525 13.0759 149.818 13.4195C149.111 13.7631 148.5 14.2762 148.039 14.913ZM154.673 19.7963C154.673 22.0617 153.623 23.934 151.431 23.934C149.21 23.934 148.039 22.0657 148.039 19.7963C148.039 17.5269 149.258 15.7073 151.431 15.7073C153.603 15.7073 154.673 17.5309 154.673 19.7963Z" fill="#F2F2F2"/>
<path d="M22.8076 0C26.3412 0 28.0797 5.9822e-06 29.9883 0.599609C31.0126 0.970545 31.9435 1.56267 32.7139 2.33301C33.484 3.10328 34.0754 4.03343 34.4463 5.05762C35.046 6.95022 35.0459 8.70515 35.0459 12.2227V22.8076C35.0459 26.3212 35.046 28.076 34.4463 29.9727C34.0754 30.9968 33.4841 31.927 32.7139 32.6973C31.9435 33.4676 31.0126 34.0597 29.9883 34.4307C28.0959 35.0302 26.3413 35.0303 22.8242 35.0303H12.2061C8.69262 35.0303 6.93772 35.0304 5.04102 34.4307C4.01673 34.0597 3.08671 33.4676 2.31641 32.6973C1.54617 31.927 0.954918 30.9968 0.583984 29.9727C0.000474579 28.08 0 26.3414 0 22.8076V12.2061C3.43649e-10 8.69258 -0.000118614 6.93781 0.599609 5.04102C0.970536 4.01676 1.56272 3.0867 2.33301 2.31641C3.10329 1.54617 4.03339 0.954878 5.05762 0.583984C6.93395 0.000486712 8.69258 3.3099e-10 12.2061 0H22.8076ZM18.8887 5.94043C18.7273 5.94032 18.5703 5.99575 18.4443 6.09668C18.3185 6.19761 18.2313 6.33863 18.1963 6.49609L17.8311 8.2832C14.3621 8.45353 11.4199 10.1717 11.4199 13.6934C11.4199 16.7368 13.8516 18.046 16.4209 18.9619C18.8522 19.8655 20.1406 20.2022 20.1406 21.4746C20.1404 22.7468 18.8562 23.5488 16.9639 23.5488C15.1273 23.5782 13.3524 22.8842 12.0234 21.6162C11.8916 21.4866 11.7142 21.4141 11.5293 21.4141C11.3444 21.4141 11.167 21.4866 11.0352 21.6162L9.58398 23.0342C9.51626 23.0995 9.46259 23.178 9.42578 23.2646C9.38896 23.3513 9.37012 23.4449 9.37012 23.5391C9.37014 23.6331 9.38908 23.726 9.42578 23.8125C9.46254 23.899 9.51636 23.9776 9.58398 24.043C10.766 25.1501 12.209 25.9406 13.7783 26.3408L13.373 28.1934C13.3517 28.2968 13.3535 28.4041 13.3779 28.5068C13.4024 28.6094 13.4491 28.7055 13.5146 28.7881C13.5803 28.8707 13.6633 28.9383 13.7578 28.9854C13.8524 29.0324 13.9569 29.058 14.0625 29.0605H16.6758C16.8385 29.0614 16.9971 29.0061 17.124 28.9043C17.2508 28.8025 17.3386 28.6599 17.373 28.501L17.75 26.7461C21.9078 26.4907 24.4492 24.254 24.4492 20.9795C24.4491 17.9646 21.9156 16.6918 18.8398 15.6543C17.0813 14.9939 15.5617 14.5605 15.5615 13.2559C15.5615 11.951 16.98 11.4805 18.3984 11.4805C20.12 11.4831 21.7855 12.0949 23.0996 13.207C23.2353 13.3299 23.4127 13.3963 23.5957 13.3926C23.7788 13.3888 23.9535 13.315 24.084 13.1865L25.4375 11.8291C25.5053 11.7619 25.5586 11.6815 25.5938 11.5928C25.6289 11.5039 25.646 11.4081 25.6426 11.3125C25.6391 11.217 25.6156 11.1232 25.5742 11.0371C25.5328 10.9509 25.4739 10.8738 25.4014 10.8115C24.3383 9.90729 23.1088 9.21973 21.7822 8.78613L22.1875 6.78809C22.2085 6.6855 22.2067 6.57921 22.1816 6.47754C22.1565 6.37578 22.1084 6.28033 22.042 6.19922C21.9757 6.11838 21.8923 6.05346 21.7979 6.00879C21.7031 5.96404 21.5989 5.94015 21.4941 5.94043H18.8887Z" fill="#F2F2F2"/>
</svg>
