<svg width="165" height="24" viewBox="0 0 165 24" fill="none" xmlns="http://www.w3.org/2000/svg">
<mask id="mask0_638_3804" style="mask-type:luminance" maskUnits="userSpaceOnUse" x="0" y="0" width="165" height="24">
<path d="M165 0H0V24H165V0Z" fill="white"/>
</mask>
<g mask="url(#mask0_638_3804)">
<mask id="mask1_638_3804" style="mask-type:luminance" maskUnits="userSpaceOnUse" x="0" y="0" width="165" height="24">
<path d="M0 0V24H165V0H0Z" fill="white"/>
</mask>
<g mask="url(#mask1_638_3804)">
<path d="M65.3162 3.24278V19.167C65.3162 22.3257 67.279 23.9971 70.1697 23.9971C71.5512 23.9971 72.7729 23.6368 73.0639 23.5431V20.9325C72.8077 21.0099 71.9749 21.2598 70.8449 21.2598C69.1538 21.2598 68.3802 20.2044 68.3802 18.8174V9.79194H72.6339V7.2061H68.3802V5.51587C68.3802 3.89924 67.419 3.07866 66.1942 3.07866C65.9041 3.07866 65.6067 3.13488 65.3162 3.24278ZM126.935 9.36724V9.29864C126.935 7.68201 126.079 6.86143 124.855 6.86143C124.565 6.86143 124.267 6.91764 123.976 7.02555V23.6525H127.039V12.2744C127.951 11.0389 129.794 9.59614 131.411 9.59614C133.201 9.59614 134.094 10.7573 134.094 12.4469V23.6525H137.157V12.2744C138.213 10.8445 139.911 9.59614 141.529 9.59614C143.318 9.59614 144.211 10.7573 144.211 12.4469V23.6525H147.274V12.2746C147.274 9.17644 145.875 6.86119 142.088 6.86119C139.783 6.86119 138.077 8.10028 136.697 9.60972C136.233 8.50235 135.188 6.86119 131.961 6.86119C129.775 6.86119 128.167 8.02334 126.935 9.36724ZM116.234 9.29864C116.234 7.68201 115.327 6.86143 114.102 6.86143C113.812 6.86143 113.514 6.91764 113.224 7.02555V23.6525H116.286V13.9296C117.156 11.8652 119.213 9.96058 121.93 9.96058V6.86119C119.026 6.86119 117.362 8.26821 116.234 10.3567V9.29864ZM18.7727 9.29864C18.7727 7.68201 17.8653 6.86143 16.6404 6.86143C16.3504 6.86143 16.053 6.91764 15.7625 7.02555V23.6525H18.825V13.9296C19.6942 11.8652 21.7509 9.96058 24.469 9.96058V6.86119C21.564 6.86119 19.9008 8.26821 18.7727 10.3567V9.29864ZM89.8473 15.2604C91.8345 13.0259 93.5948 10.3486 94.8486 7.08057L92.0183 6.04395C90.2129 10.7955 87.5153 13.9863 84.2563 16.63V0.388495H81.1937V23.6522H84.2563V20.2189C85.4365 19.3771 86.4987 18.5196 87.642 17.4651L90.438 22.2035C91.1365 23.3821 92.0663 23.9967 93.4593 23.9967C94.2431 23.9967 94.7064 23.7451 94.8788 23.6522L89.8473 15.2604ZM3.20284 15.4121C3.20284 11.5848 5.19297 9.59662 8.20634 9.59662C10.4917 9.59662 11.9928 10.4548 12.4707 10.7619C12.8461 10.4046 13.1466 9.78146 13.1466 9.13047C13.1466 8.04168 11.8628 6.86143 8.08366 6.86143C3.67714 6.86143 0 9.82648 0 15.4467C0 20.9287 3.34073 23.9974 7.7456 23.9974C10.3909 23.9974 12.4968 23.1489 13.1119 22.8302V19.7813C12.441 20.242 10.2787 21.26 8.25127 21.26C5.36034 21.26 3.20284 19.2768 3.20284 15.4121ZM51.7139 10.516C51.3397 10.2907 50.0028 9.59662 48.3073 9.59662C45.4767 9.59662 43.5353 11.5651 43.5353 15.6334C43.5353 19.2537 45.351 21.257 49.2497 21.257C50.1486 21.257 51.0018 21.1181 51.7139 20.9042V10.516ZM54.7408 23.1637C54.1003 23.3285 52.1399 24 49.2497 24C42.9312 24 40.4927 20.4673 40.4927 15.7211C40.4927 9.72167 43.8981 6.85595 47.7548 6.85595C49.8906 6.85595 51.3247 7.52194 51.7139 7.72322V0.388495H54.7408V23.1637ZM27.8131 14.3898C27.945 11.97 29.5067 9.49062 32.8979 9.49062C34.4123 9.49062 35.3235 10.3565 35.3235 11.4052C35.3235 13.7503 31.048 14.3898 27.8131 14.3898ZM27.834 16.7703C32.3924 16.7703 38.4253 16.0796 38.4253 11.2561C38.4253 8.84464 36.4186 6.86095 33.05 6.86095C27.364 6.86095 24.6271 10.8638 24.6271 15.6868C24.6271 20.3111 27.6062 23.9974 32.9212 23.9974C35.8791 23.9974 38.0889 23.1911 38.0889 21.5078C38.0889 20.7193 37.5814 20.0903 37.4687 19.9788C37.1765 20.1732 35.5758 21.26 33.1049 21.26C29.6251 21.26 28.1873 19.0024 27.834 16.7703ZM58.48 23.6522V7.2061H61.5428V23.6522H58.48ZM60.0284 3.89615C58.9616 3.89615 58.0668 3.03412 58.0668 1.96534C58.0668 0.896326 58.9616 0 60.0284 0C61.0954 0 61.9555 0.896326 61.9555 1.96534C61.9555 3.03412 61.0954 3.89615 60.0284 3.89615ZM160.133 19.1356C158.756 20.5495 157.361 21.2634 155.571 21.2634C153.835 21.2634 152.923 20.1522 152.923 18.9851C152.923 17.2955 154.268 15.8759 160.133 15.3085V19.1356ZM156.569 6.86119C152.656 6.86119 151.13 7.91616 151.13 9.12833C151.13 10.0487 151.666 10.6175 151.808 10.7559C152.322 10.4241 153.781 9.59066 156.132 9.59066C159.089 9.59066 160.133 10.9936 160.133 12.5088V12.964C153.285 13.6881 149.775 14.9829 149.775 19.086C149.775 21.8789 151.861 23.9974 154.821 23.9974C157.784 23.9974 159.46 22.4503 160.206 21.7695V23.6525H163.196V12.4078C163.196 8.75293 160.561 6.86119 156.569 6.86119ZM106.389 19.1356C105.012 20.5495 103.617 21.2634 101.827 21.2634C100.091 21.2634 99.1793 20.1522 99.1793 18.9851C99.1793 17.2955 100.523 15.8759 106.389 15.3085V19.1356ZM102.825 6.86119C98.9114 6.86119 97.3853 7.91616 97.3853 9.12833C97.3853 10.0487 97.9217 10.6175 98.0631 10.7559C98.5773 10.4241 100.037 9.59066 102.387 9.59066C105.345 9.59066 106.389 10.9936 106.389 12.5088V12.964C99.5404 13.6881 96.03 14.9829 96.03 19.086C96.03 21.8789 98.1168 23.9974 101.076 23.9974C104.039 23.9974 105.715 22.4503 106.462 21.7695V23.6525H109.452V12.4078C109.452 8.75293 106.817 6.86119 102.825 6.86119Z" fill="#F2F2F2"/>
</g>
<mask id="mask2_638_3804" style="mask-type:luminance" maskUnits="userSpaceOnUse" x="0" y="0" width="165" height="24">
<path d="M0 0V24H165V0H0Z" fill="white"/>
</mask>
<g mask="url(#mask2_638_3804)">
<path d="M164.614 5.77718C164.614 5.26697 164.558 4.63909 164.457 4.11196C164.211 4.4764 164.038 4.92492 163.959 5.33985H163.725C163.652 4.92492 163.478 4.47068 163.232 4.11196C163.126 4.63337 163.075 5.26125 163.075 5.77718H162.684C162.684 5.13239 162.762 4.36993 162.924 3.73633H163.271C163.483 3.98858 163.708 4.39779 163.842 4.77367C163.976 4.39779 164.2 3.9831 164.413 3.73633H164.765C164.922 4.36993 165 5.13786 165 5.77718H164.614ZM161.049 3.73633H162.56V4.05027H162.001V5.77718H161.609V4.05027H161.049V3.73633Z" fill="#F2F2F2"/>
</g>
</g>
</svg>
