<svg width="132" height="33" viewBox="0 0 132 33" fill="none" xmlns="http://www.w3.org/2000/svg">
<path d="M49.3571 7.19043H42.0525C41.5526 7.19043 41.1275 7.5527 41.0496 8.04496L38.0953 26.7307C38.0365 27.0993 38.3228 27.4318 38.6977 27.4318H42.1849C42.6848 27.4318 43.1099 27.0695 43.1879 26.5762L43.9847 21.5364C44.0616 21.043 44.4877 20.6808 44.9865 20.6808H47.2989C52.1106 20.6808 54.8876 18.358 55.6128 13.755C55.9397 11.7412 55.6267 10.1589 54.6815 9.0508C53.6433 7.83399 51.8019 7.19043 49.3571 7.19043ZM50.1998 14.015C49.8004 16.6297 47.7977 16.6297 45.8613 16.6297H44.759L45.5323 11.7465C45.5782 11.4514 45.8346 11.234 46.1336 11.234H46.6388C47.9579 11.234 49.2022 11.234 49.8452 11.9841C50.2287 12.4316 50.3461 13.0965 50.1998 14.015Z" fill="#F2F2F2"/>
<path d="M71.1919 13.9317H67.6939C67.3959 13.9317 67.1385 14.1491 67.0926 14.4442L66.9377 15.4202L66.6931 15.0665C65.9359 13.97 64.2472 13.6035 62.5618 13.6035C58.6964 13.6035 55.395 16.5241 54.752 20.6209C54.4177 22.6646 54.893 24.6187 56.055 25.9815C57.121 27.2345 58.6462 27.7566 60.4609 27.7566C63.5754 27.7566 65.3025 25.7588 65.3025 25.7588L65.1465 26.7284C65.0878 27.0992 65.374 27.4316 65.7468 27.4316H68.8976C69.3986 27.4316 69.8215 27.0693 69.9006 26.576L71.7911 14.6328C71.8509 14.2652 71.5657 13.9317 71.1919 13.9317ZM66.3161 20.7232C65.9786 22.7168 64.3925 24.055 62.3695 24.055C61.3538 24.055 60.542 23.7301 60.0208 23.1142C59.5039 22.5026 59.3073 21.6321 59.4718 20.6625C59.7869 18.686 61.3997 17.304 63.3917 17.304C64.385 17.304 65.1925 17.6332 65.7244 18.2544C66.2573 18.882 66.4688 19.7579 66.3161 20.7232Z" fill="#F2F2F2"/>
<path d="M89.8213 13.9307H86.3063C85.9709 13.9307 85.6558 14.0969 85.4657 14.375L80.6177 21.4989L78.5627 14.6531C78.4334 14.2247 78.0372 13.9307 77.5886 13.9307H74.1344C73.7147 13.9307 73.4231 14.3398 73.5566 14.7341L77.4284 26.0689L73.7884 31.195C73.5021 31.5988 73.7905 32.154 74.285 32.154H77.7958C78.129 32.154 78.4409 31.992 78.63 31.7192L90.3212 14.8843C90.601 14.4815 90.3137 13.9307 89.8213 13.9307Z" fill="#F2F2F2"/>
<path d="M101.459 7.19043H94.1534C93.6546 7.19043 93.2295 7.5527 93.1516 8.04496L90.1972 26.7307C90.1385 27.0993 90.4248 27.4318 90.7975 27.4318H94.5465C94.8947 27.4318 95.1927 27.1782 95.2471 26.833L96.0856 21.5364C96.1625 21.043 96.5886 20.6808 97.0874 20.6808H99.3988C104.212 20.6808 106.987 18.358 107.714 13.755C108.042 11.7412 107.727 10.1589 106.781 9.0508C105.744 7.83399 103.904 7.19043 101.459 7.19043ZM102.302 14.015C101.903 16.6297 99.9008 16.6297 97.9633 16.6297H96.8621L97.6364 11.7465C97.6824 11.4514 97.9366 11.234 98.2367 11.234H98.7419C100.06 11.234 101.305 11.234 101.948 11.9841C102.332 12.4316 102.448 13.0965 102.302 14.015Z" fill="#F2F2F2"/>
<path d="M123.293 13.9317H119.797C119.497 13.9317 119.242 14.1491 119.197 14.4442L119.042 15.4202L118.796 15.0665C118.039 13.97 116.351 13.6035 114.666 13.6035C110.801 13.6035 107.5 16.5241 106.857 20.6209C106.524 22.6646 106.997 24.6187 108.159 25.9815C109.227 27.2345 110.75 27.7566 112.565 27.7566C115.68 27.7566 117.407 25.7588 117.407 25.7588L117.251 26.7284C117.192 27.0992 117.478 27.4316 117.853 27.4316H121.003C121.502 27.4316 121.927 27.0693 122.005 26.576L123.896 14.6328C123.954 14.2652 123.668 13.9317 123.293 13.9317ZM118.417 20.7232C118.082 22.7168 116.493 24.055 114.47 24.055C113.457 24.055 112.643 23.7301 112.122 23.1142C111.605 22.5026 111.41 21.6321 111.573 20.6625C111.89 18.686 113.501 17.304 115.493 17.304C116.486 17.304 117.293 17.6332 117.825 18.2544C118.36 18.882 118.572 19.7579 118.417 20.7232Z" fill="#F2F2F2"/>
<path d="M127.417 7.70351L124.419 26.7313C124.36 27.0999 124.646 27.4324 125.019 27.4324H128.033C128.534 27.4324 128.959 27.0701 129.036 26.5768L131.992 7.89211C132.051 7.52344 131.765 7.18994 131.392 7.18994H128.017C127.719 7.19101 127.463 7.40837 127.417 7.70351Z" fill="#F2F2F2"/>
<path d="M7.76068 31.0629L8.31929 27.5233L7.07497 27.4946H1.13324L5.26244 1.37589C5.27526 1.29704 5.31691 1.22352 5.37779 1.17131C5.43867 1.1191 5.51664 1.09033 5.59782 1.09033H15.6164C18.9424 1.09033 21.2377 1.78078 22.4361 3.14356C22.9979 3.78286 23.3557 4.45093 23.5288 5.18612C23.7103 5.95755 23.7135 6.87921 23.5362 8.00331L23.5234 8.08536V8.80564L24.0852 9.12316C24.5584 9.37355 24.9343 9.66017 25.2227 9.98835C25.7034 10.5349 26.0142 11.2297 26.1456 12.0533C26.2812 12.9004 26.2363 13.9083 26.0142 15.0495C25.7578 16.3622 25.3434 17.5055 24.7837 18.441C24.2689 19.303 23.6131 20.0179 22.8345 20.572C22.0911 21.0983 21.2078 21.4979 20.2092 21.7536C19.2415 22.0051 18.1382 22.1319 16.928 22.1319H16.1483C15.5908 22.1319 15.0493 22.3322 14.6242 22.6913C14.198 23.0578 13.916 23.5586 13.8295 24.1063L13.7708 24.4248L12.7839 30.6634L12.739 30.8924C12.7273 30.9649 12.707 31.0011 12.6771 31.0256C12.6504 31.048 12.6119 31.0629 12.5745 31.0629H7.76068Z" fill="#F2F2F2"/>
<path d="M24.6171 8.16943C24.5872 8.36016 24.553 8.55515 24.5146 8.75546C23.1934 15.5225 18.6733 17.8602 12.9003 17.8602H9.96093C9.25493 17.8602 8.66001 18.3716 8.55 19.0663L7.04507 28.5877L6.61891 31.2866C6.54734 31.7426 6.89981 32.1539 7.36122 32.1539H12.5745C13.1919 32.1539 13.7163 31.7064 13.8135 31.0991L13.8648 30.8348L14.8463 24.6208L14.9093 24.2798C15.0055 23.6704 15.531 23.2229 16.1483 23.2229H16.928C21.979 23.2229 25.933 21.1771 27.0887 15.2572C27.5714 12.7841 27.3215 10.7192 26.0441 9.2669C25.6574 8.82898 25.1779 8.46564 24.6171 8.16943Z" fill="#F2F2F2"/>
<path d="M23.235 7.61908C23.0332 7.56048 22.8249 7.5072 22.6113 7.45925C22.3966 7.41237 22.1766 7.37082 21.9501 7.33459C21.1576 7.20673 20.2893 7.146 19.359 7.146H11.5065C11.3131 7.146 11.1294 7.18968 10.9649 7.26853C10.6029 7.44221 10.3337 7.78423 10.2685 8.20298L8.59807 18.7578L8.55 19.0658C8.66002 18.3711 9.25494 17.8596 9.96094 17.8596H12.9003C18.6733 17.8596 23.1934 15.5208 24.5146 8.75491C24.5541 8.55459 24.5872 8.3596 24.6171 8.16888C24.2828 7.99201 23.9208 7.8407 23.5309 7.71178C23.4348 7.67981 23.3354 7.64891 23.235 7.61908Z" fill="#F2F2F2"/>
<path d="M10.2685 8.20331C10.3337 7.78456 10.6028 7.44254 10.9649 7.26993C11.1305 7.19108 11.3131 7.14739 11.5064 7.14739H19.3589C20.2892 7.14739 21.1576 7.20813 21.9501 7.33599C22.1765 7.37221 22.3966 7.41377 22.6113 7.46065C22.8249 7.5086 23.0331 7.56187 23.235 7.62048C23.3354 7.65031 23.4347 7.68121 23.5319 7.71211C23.9218 7.84104 24.2839 7.9934 24.6182 8.16921C25.0112 5.66848 24.615 3.9658 23.2596 2.42402C21.7653 0.726673 19.0684 0 15.6175 0H5.59887C4.89393 0 4.2926 0.511441 4.18366 1.20721L0.0106689 27.5944C-0.0715733 28.1165 0.332161 28.5874 0.859793 28.5874H7.04505L8.59804 18.7582L10.2685 8.20331Z" fill="#F2F2F2"/>
</svg>
