<svg width="107" height="24" viewBox="0 0 107 24" fill="none" xmlns="http://www.w3.org/2000/svg">
<path d="M69.4365 8.73947C67.6322 7.1592 65.4543 6.38693 62.9362 6.38693C60.4526 6.38693 58.2747 7.16053 56.4692 8.73947C54.665 10.2852 53.7481 12.4371 53.7481 15.1935C53.7481 17.9499 54.665 20.1004 56.4692 21.6805C58.2734 23.2265 60.4526 24 62.9361 24C65.4543 24 67.6322 23.2265 69.4365 21.6805C71.2753 20.1004 72.1922 17.9499 72.1922 15.1934C72.1922 12.437 71.2741 10.2853 69.4365 8.73947ZM59.5345 18.7222C58.5829 17.8153 58.1039 16.6378 58.1039 15.1935C58.1039 13.748 58.5791 12.5717 59.5345 11.6978C60.486 10.7908 61.6109 10.3538 62.9348 10.3538C64.26 10.3538 65.4184 10.7908 66.3713 11.6978C67.3562 12.5717 67.8351 13.748 67.8351 15.1935C67.8351 16.639 67.36 17.8153 66.3712 18.7222C65.4197 19.596 64.2614 20.0331 62.9348 20.0331C61.6109 20.0331 60.4886 19.5961 59.5345 18.7222ZM78.6271 23.5283V0.463378H74.3394V23.5283H78.6271ZM92.4676 6.85662V16.0595C92.4676 18.2772 91.254 19.7469 88.9437 19.7469C86.595 19.7469 85.4136 18.2785 85.4136 16.0595V6.85662H81.1181V16.7657C81.1181 20.6044 83.5683 23.9984 88.9437 23.9984H88.9767C94.3196 23.9984 96.7654 20.5294 96.7654 16.7657V6.85662H92.4676ZM49.1836 6.85662L44.8958 18.1502L40.6081 6.85662H36.0481L42.89 23.5284H46.9068L53.7474 6.85662H49.1836ZM36.0702 14.7222C36.0702 12.3024 35.2882 10.3196 33.7563 8.73947C32.2241 7.1592 30.253 6.38693 27.8362 6.38693C25.3528 6.38693 23.2415 7.22782 21.5054 8.87404C19.8026 10.5216 18.9539 12.6047 18.9539 15.1935C18.9539 17.7822 19.8039 19.8997 21.472 21.546C23.1749 23.1934 25.2166 24 27.632 24C31.3433 24 33.9629 22.3868 35.5591 19.1261L32.3615 17.3109C31.3086 19.3612 29.7753 20.3696 27.7002 20.3696C25.1486 20.3696 23.3444 18.7565 23.072 16.202H36.069V14.7222H36.0702ZM27.6976 9.61333C30.1131 9.61333 31.7144 10.9572 32.1214 13.1091H23.0695C23.718 11.1262 25.4851 9.61333 27.6976 9.61333ZM18.954 23.5285L13.201 13.5801C16.8403 12.2692 18.6445 9.98409 18.6445 6.656C18.6484 2.58871 15.3789 0 10.1731 0H0V23.5285H4.49196V13.9828H8.30457L13.8161 23.5285H18.954ZM10.1731 3.89831C12.8274 3.89831 14.1553 4.93991 14.1553 6.99013C14.1553 9.04027 12.8261 10.0819 10.1731 10.0819H4.49196V3.89831H10.1731ZM104.034 23.9986C101.275 23.9986 99.0365 21.787 99.0365 19.0572V2.35262H103.324V6.86311H107V10.2915H103.324V18.7855C103.324 19.5858 103.98 20.2335 104.791 20.2335H107V23.9986H104.034Z" fill="#F2F2F2"/>
</svg>
