<svg width="161" height="26" viewBox="0 0 161 26" fill="none" xmlns="http://www.w3.org/2000/svg">
<path d="M62.0393 13.7757L59.9034 13.5798C58.5031 13.4578 57.9391 12.9675 57.9391 12.1091C57.9391 11.104 58.7979 10.4425 60.4674 10.4425C62.0393 10.4425 62.8252 11.1276 62.9475 12.2311H67.9569C67.6374 8.97184 65.33 6.66733 60.6154 6.66733C55.7046 6.66733 53.0025 9.16772 53.0025 12.4762C53.0025 15.5653 54.6967 17.2565 58.8966 17.6001L61.0089 17.7713C62.6526 17.8944 63.2423 18.4575 63.2423 19.4379C63.2423 20.4676 62.3835 21.2276 60.6154 21.2276C58.9695 21.2276 57.9884 20.4922 57.8168 19.1939H52.5361C53.0025 22.7475 55.5073 25.1002 60.5907 25.1002C65.5262 25.1002 68.2518 22.5762 68.2518 19.1682C68.2518 15.8597 66.4344 14.1685 62.0393 13.7757ZM44.7528 6.66733C41.6101 6.66733 39.7433 8.30928 38.8598 11.6681H38.5403V6.96168H33.5801V24.8069H38.8598V14.4136C38.8598 12.0352 40.0875 10.7369 42.2974 10.7369C44.4826 10.7369 45.5634 12.0855 45.5634 14.389V24.8069H50.842V13.4578C50.842 9.1431 48.5839 6.66733 44.7528 6.66733ZM28.4484 0C26.6557 0 25.3047 1.17741 25.3047 2.96599C25.3047 4.75565 26.631 5.93199 28.4238 5.93199C30.2165 5.93199 31.5418 4.75458 31.5418 2.96599C31.5418 1.20095 30.2165 0 28.4484 0ZM31.0754 6.96168H25.7957V24.8069H31.0754V6.96168ZM76.5509 3.18649H73.1873C73.0886 6.05508 71.8609 7.3042 69.1107 7.5247V11.1533H71.2723V18.9969C71.2723 22.9434 73.5304 25.1002 78.0241 25.1002C78.869 25.1002 79.7107 24.9931 80.5288 24.7823V20.5404C80.1072 20.6103 79.6803 20.6429 79.2529 20.6378C77.3615 20.6378 76.5509 19.9271 76.5509 17.9415V11.1533H81.1926V6.96168H76.5509V3.18649ZM160.284 11.1533V6.96168H155.643V3.18649H152.328C152.254 5.17203 151.665 6.32374 150.363 6.96168V18.9969C150.363 22.9434 152.622 25.1002 157.116 25.1002C157.961 25.1002 158.803 24.9931 159.621 24.7823V20.5404C159.199 20.6103 158.772 20.6429 158.344 20.6378C156.452 20.6378 155.643 19.9271 155.643 17.9415V11.1533H160.284ZM142.997 11.9378H142.677V6.96061H137.791V24.8069H143.071V15.1489C143.071 12.4762 144.274 11.3491 147.024 11.3491C147.491 11.3491 148.006 11.3984 148.718 11.5204V6.91245C148.237 6.74389 147.73 6.66093 147.221 6.66733C145.084 6.66733 143.61 7.89291 142.997 11.9378ZM109.283 20.5907C106.803 20.5907 105.01 18.9477 105.01 15.7612C105.01 12.9183 106.679 11.1533 109.234 11.1533C111.419 11.1533 112.671 12.3788 113.04 14.3397H118.393C117.877 9.75535 114.587 6.66733 109.308 6.66733C103.512 6.66733 99.7068 10.5892 99.7068 15.9581C99.7068 21.5219 103.365 25.1002 109.234 25.1002C114.563 25.1002 118.025 22.1352 118.516 17.3293H113.162C112.868 19.2913 111.517 20.5907 109.283 20.5907ZM90.3516 6.66733C85.7592 6.66733 82.9853 8.9226 82.4932 12.9665H87.552C87.7235 11.5696 88.6328 10.8343 90.2282 10.8343C91.8484 10.8343 92.585 11.5696 92.585 12.6239C92.585 13.5059 92.021 13.9726 90.5724 14.2413L88.1653 14.6833C83.9182 15.4668 82.297 17.2073 82.297 19.9774C82.297 23.1392 84.5315 25.1259 87.6259 25.1259C90.1543 25.1259 91.8001 23.9484 92.5614 21.0071H92.8799V24.8069H97.8658V13.1634C97.8658 9.11848 95.4339 6.66733 90.3516 6.66733ZM89.7618 21.5219C88.3379 21.5219 87.5273 20.762 87.5273 19.6338C87.5273 18.7026 88.0924 18.0657 89.4916 17.7467L90.4738 17.5262C91.3208 17.3304 91.9781 17.0692 92.5861 16.5447V18.4328C92.5861 20.6142 91.4313 21.5219 89.7618 21.5219ZM127.871 6.66733C123.279 6.66733 120.505 8.9226 120.014 12.9665H125.071C125.244 11.5696 126.152 10.8343 127.748 10.8343C129.369 10.8343 130.106 11.5696 130.106 12.6239C130.106 13.5059 129.541 13.9726 128.092 14.2413L125.686 14.6833C121.438 15.4668 119.816 17.2073 119.816 19.9774C119.816 23.1392 122.051 25.1259 125.145 25.1259C127.675 25.1259 129.32 23.9484 130.081 21.0071H130.4V24.8069H135.385V13.1634C135.385 9.11848 132.953 6.66733 127.871 6.66733ZM127.281 21.5219C125.857 21.5219 125.047 20.762 125.047 19.6338C125.047 18.7026 125.612 18.0657 127.011 17.7467L127.993 17.5262C128.84 17.3304 129.499 17.0692 130.106 16.5447V18.4328C130.106 20.6142 128.952 21.5219 127.281 21.5219Z" fill="#F2F2F2"/>
<path d="M16.9091 4.26979C15.824 4.26979 15.0499 4.74182 14.3358 5.76723L12.2771 8.71824V0.294434H7.36625V8.71824L5.30757 5.76723C4.59453 4.74182 3.82038 4.26979 2.73421 4.26979C1.09584 4.26979 0.00538393 5.47716 2.27703e-05 6.96498C-0.00426615 8.23872 0.597255 9.06932 1.8657 9.88494L9.82166 15.0013L17.7776 9.88494C19.0461 9.06932 19.6476 8.23872 19.6433 6.96498C19.639 5.47716 18.5475 4.26979 16.9091 4.26979Z" fill="#F2F2F2"/>
<path d="M9.82163 16.2266C14.5502 16.2266 18.4263 19.7502 18.4156 24.8066H1.2277C1.21805 19.7524 5.0931 16.2266 9.82163 16.2266Z" fill="#F2F2F2"/>
</svg>
