<svg width="136" height="60" viewBox="0 0 136 60" fill="none" xmlns="http://www.w3.org/2000/svg">
<path d="M135.314 36.9326L0 59.9297V23.1328L135.314 0V36.9326ZM23.4521 27.9873C21.9283 27.6439 19.9455 27.8351 18.1152 28.1455L7.43164 29.9697V34.9072L9.42188 34.5781V45.6006L7.43164 45.9297V50.8682L19.793 48.7549C21.7758 48.4169 23.9098 47.5974 25.2803 46.4502C26.6539 45.3096 27.6348 43.7767 27.6348 41.3545C27.6346 38.9314 26.0436 37.3866 23.6035 37.1396L23.6045 37.1377C24.9783 36.358 26.5635 34.4184 26.5635 31.9951C26.5634 29.5699 24.978 28.3306 23.4521 27.9873ZM67.3506 19.6797V19.6855L66.6836 19.7998V37.8643L60.3594 20.8857L52.7324 22.1973L46.3721 41.4473L43.2793 36.7871C44.1947 36.0851 46.785 34.1221 46.7852 29.8838C46.7852 27.6118 45.7187 25.977 44.1943 25.1777C42.6666 24.3785 40.6842 24.2697 38.0928 24.7109L28.9424 26.2852V47.1855L35.835 46V39.0342L36.7207 38.8809L40.0771 45.2725L45.4131 44.3506L48.0059 43.9053L52.5801 43.1221L53.374 40.0469L59.3838 39.0166L60.207 41.8135L66.6836 40.7002V40.7031L73.5771 39.5166V18.6123L67.3506 19.6797ZM18.5742 40.5801C19.3362 40.4467 19.6406 40.4551 20.0986 40.6787C20.5543 40.9012 20.709 41.3325 20.709 41.876C20.709 42.3869 20.5549 42.8686 20.0986 43.2529L19.9326 43.3857C19.5571 43.6706 19.2408 43.7952 18.5742 43.9092L16.2852 44.3008V40.9707L18.5742 40.5801ZM89.334 15.8984V23.7754C89.334 25.2896 89.4873 27.5361 89.4873 27.5361L83.3867 16.9219L75.9141 18.2061V39.1064L82.625 37.9531V30.0781C82.625 28.5648 82.4736 26.3174 82.4736 26.3174L88.8779 36.877L96.0439 35.6455V14.7471L89.334 15.8984ZM17.6582 33.1621C18.4218 33.0318 18.7262 32.9783 19.1826 33.2041C19.6402 33.4279 19.793 33.7668 19.793 34.3115C19.793 34.825 19.6402 35.2138 19.1826 35.5996C18.7262 35.9784 18.4218 36.0612 17.6582 36.1924L16.2852 36.4258V33.3984L17.6582 33.1621ZM121.41 10.3711L118.265 17.9639L115.156 11.4453L107.531 12.7559L114.82 24.2207V26.7969L105.243 28.4453V13.1465L98.3818 14.3291V35.2246L114.82 32.3984L120.619 31.4062L121.714 31.2129V23.0361L129.03 9.06055L121.41 10.3711ZM57.9502 34.0205L54.8379 34.5557L54.8389 34.5547L56.3926 28.6865L57.9502 34.0205ZM37.5459 29.958C38.3072 29.8262 38.7654 29.8969 39.0693 30.0879C39.3754 30.2463 39.833 30.469 39.833 31.3828C39.833 32.2875 39.4029 32.6676 39.0693 32.9629C38.7959 33.2265 38.3069 33.4603 37.5459 33.5889L35.8066 33.8896V30.2529L37.5459 29.958Z" fill="#F2F2F2"/>
</svg>
