<svg width="172" height="40" viewBox="0 0 172 40" fill="none" xmlns="http://www.w3.org/2000/svg">
<path d="M149.423 20C149.423 13.6747 154.278 9.21687 160.711 9.21687C167.145 9.21687 172 13.6747 172 20C172 26.3253 167.145 30.7831 160.711 30.7831C154.278 30.7831 149.423 26.2651 149.423 20ZM165.627 20C165.627 17.0482 163.746 14.8795 160.772 14.8795C157.798 14.8795 155.917 17.0482 155.917 20C155.917 22.9518 157.798 25.1205 160.772 25.1205C163.746 25.1205 165.627 23.012 165.627 20ZM145.174 15C145.599 15.8434 145.781 16.747 145.781 17.7108C145.781 20 144.567 22.1084 142.625 23.7349C145.296 25 146.874 28.0723 146.874 30.9639C146.874 36.3855 142.443 40 135.706 40C128.97 40 124.539 36.4458 124.539 30.9639C124.478 27.9518 126.117 25.1807 128.788 23.7349C126.785 22.1084 125.632 20 125.632 17.7108C125.632 12.9518 129.395 9.45783 135.342 9.45783C138.862 9.45783 139.894 10.0602 141.897 10.0602C143.232 10.1205 144.628 9.75904 145.781 9.03614C146.206 8.79518 146.631 8.61446 147.116 8.61446C147.905 8.61446 148.33 9.39759 148.33 10.3614C148.512 12.4699 147.177 14.3373 145.174 15ZM140.622 30.7831C140.622 28.3735 138.741 26.6867 135.767 26.6867C132.793 26.6867 130.912 28.3133 130.912 30.7831C130.912 33.0723 132.975 34.8795 135.767 34.8795C138.559 34.8795 140.622 33.0723 140.622 30.7831ZM131.822 18.0723C131.883 20.1807 133.704 21.8675 135.889 21.8072C137.952 21.747 139.53 20.1205 139.651 18.0723C139.651 15.9036 138.073 14.3976 135.767 14.3976C133.461 14.3976 131.822 15.8434 131.822 18.0723ZM121.626 20.4217V27.9518C121.626 29.3976 121.08 30 119.502 30H117.378C115.8 30 115.253 29.3976 115.253 27.9518V20.6024C115.253 18.7349 114.95 17.4096 114.282 16.5663C113.493 15.6024 112.279 15.1205 111.066 15.1807C109.791 15.1205 108.577 15.6627 107.728 16.5663C106.999 17.4096 106.514 18.7349 106.514 20.5422V27.8916C106.514 29.3976 105.846 29.9398 104.39 29.9398H102.265C100.809 29.9398 100.141 29.3976 100.141 27.8916V11.0241C100.141 10.0602 100.627 9.63855 101.355 9.63855C102.447 9.63855 103.965 10.5422 105.118 12.2892C106.878 10.3614 109.366 9.27711 111.976 9.27711C115.071 9.27711 117.56 10.3614 119.198 12.1687C120.837 13.9759 121.626 16.4458 121.626 20.4217ZM88.4884 3.43373C88.4884 1.50602 90.127 0 92.0085 0H92.1299C94.0113 0.120481 95.4679 1.74699 95.3465 3.61446C95.2251 5.48193 93.5864 6.92771 91.705 6.80723C89.8843 6.74699 88.4884 5.24096 88.4884 3.43373ZM88.9132 27.9518V12.1084C88.9132 10.6627 89.4594 10 91.0374 10H93.1616C94.7396 10 95.2858 10.6024 95.2858 12.1084V27.9518C95.2858 29.3976 94.7396 30 93.1616 30H91.0374C89.4594 30 88.9132 29.3976 88.9132 27.9518ZM77.6852 27.9518V8.07229C77.6852 3.07229 80.4771 0.240963 82.844 0.240963C83.5723 0.240963 84.0579 0.722892 84.0579 1.62651V27.9518C84.0579 29.4578 83.451 30 81.9337 30H79.8095C78.3529 30 77.6852 29.4578 77.6852 27.9518ZM51.4665 20C51.4665 13.6747 56.3218 9.21687 62.7551 9.21687C69.1884 9.21687 74.0438 13.6747 74.0438 20C74.0438 26.3253 69.1884 30.7831 62.7551 30.7831C56.3218 30.7831 51.4665 26.2651 51.4665 20ZM67.6105 20C67.6105 17.0482 65.729 14.8795 62.7551 14.8795C59.7812 14.8795 57.8998 17.0482 57.8998 20C57.8998 22.9518 59.7812 25.1205 62.7551 25.1205C65.729 25.1205 67.6105 23.012 67.6105 20ZM48.1891 12.1084V28.9759C48.1891 29.9398 47.7036 30.3614 46.9753 30.3614C45.8829 30.3614 44.3656 29.4578 43.2731 27.7711C41.5737 29.6988 39.1461 30.7831 36.5363 30.7229C34.1087 30.7831 31.8024 29.9398 29.9817 28.3133C28.1002 26.506 27.0685 23.7349 27.0685 19.759V12.1084C27.0685 10.6627 27.6147 10 29.1927 10H31.3169C32.8949 10 33.4411 10.6024 33.4411 12.1084V19.2169C33.4411 21.6265 33.8659 22.8916 34.6549 23.7349C35.3832 24.4578 36.4757 24.8795 37.5074 24.8193C38.6606 24.8193 39.753 24.3976 40.542 23.5542C41.331 22.7108 41.7558 21.3855 41.7558 19.3374V12.1084C41.7558 10.6024 42.4234 10 43.88 10H46.0042C47.5215 10 48.1891 10.6024 48.1891 12.1084ZM22.6987 1.62651V28.9759C22.6987 29.9398 22.2131 30.3614 21.4848 30.3614C20.3924 30.3614 18.8751 29.4578 17.7826 27.8313C16.4474 29.3976 13.7163 30.7831 10.5603 30.7831C4.24841 30.7831 0 26.2048 0 20C0 13.7952 4.3698 9.21687 10.5603 9.21687C12.6239 9.21687 14.6267 9.81928 16.3867 10.9639V8.07229C16.3867 3.07229 19.2392 0.240963 21.5455 0.240963C22.2738 0.240963 22.6987 0.722892 22.6987 1.62651ZM16.3867 20C16.3867 16.9277 14.2018 14.8795 11.4707 14.8795C8.73959 14.8795 6.494 16.9277 6.494 20C6.494 23.0723 8.6789 25.1205 11.4707 25.1205C14.2625 25.1205 16.3867 23.1325 16.3867 20Z" fill="#F2F2F2"/>
</svg>
