<svg width="130" height="45" viewBox="0 0 130 45" fill="none" xmlns="http://www.w3.org/2000/svg">
<mask id="mask0_622_3124" style="mask-type:luminance" maskUnits="userSpaceOnUse" x="0" y="0" width="130" height="45">
<path d="M0 0H130V44.183H0V0Z" fill="white"/>
</mask>
<g mask="url(#mask0_622_3124)">
<path d="M30.7273 34.934L30.875 26.0091C26.0295 25.3024 25.9409 31.7826 25.9409 31.7826C26.4136 35.965 30.7273 34.934 30.7273 34.934ZM22.9273 14.6982C22.9273 14.6982 34.6568 9.54353 36.0455 18.822L35.8682 38.7632H26.975C26.975 38.7632 23.075 38.9105 21.8636 34.61C21.8636 34.61 18.85 23.6526 30.7273 21.5616L30.7568 18.8809C30.7568 18.8809 28.5114 16.495 24.5227 18.8809L22.9273 14.6982ZM130 5.83216L125.332 35.4937L117.886 3.53464L130 5.83216ZM107.368 5.77325L107.28 14.1386L113.868 14.5804V18.6747L107.457 19.0281L107.989 31.3994C107.989 31.3994 108.018 32.3717 110.027 32.3717C112.036 32.3717 113.898 31.2819 113.898 31.2819V37.585C113.986 39.4996 111.239 40.3247 111.239 40.3247C102.434 41.6204 103.084 35.8766 103.084 35.8766L102.789 19.8824H98.6523L97.6773 13.1668L102.789 13.3433V3.8884L107.368 5.77325ZM122.673 37.762H126.632L128.139 42.092L124.593 44.183L120.989 41.7088L122.673 37.762ZM43.1954 14.4923C49.5773 12.4891 52.975 12.5185 53.8909 21.7675L56.1659 37.585H50.1386L49.7545 28.4244L49.1932 21.9148C49.0455 17.3492 44.8795 18.498 43.6091 19.0579L43.9341 37.5556L38.1727 37.3494L37.2273 1.53197L43.0773 0L43.1954 14.4923ZM24.375 10.7807L15.9545 20.0002L21.5386 40.0593H15.4818L11.0205 24.6836L6.79545 28.7484L6.85454 40.0593L0 39.8239V7.51111L6.85454 5.77325V19.5289L18.4364 8.51259L24.375 10.7807ZM88.0454 32.3128C91.0886 32.6663 93.6886 29.8972 93.5114 26.4217C93.3341 22.9163 91.9159 20.7366 89.05 20.6779C86.1841 20.6187 84.4409 23.8883 84.7659 27.688C85.0318 30.5746 86.8341 32.1655 88.0454 32.3128ZM88.725 16.0237C94.2795 16.1415 99.0364 20.766 99.3614 26.3625C99.7159 31.9885 95.225 36.9959 89.3455 37.585C83.4659 38.1741 78.7091 33.5499 78.7091 27.2462C78.7091 20.9427 83.2 15.9353 88.725 16.0237ZM70.9682 27.0989C70.7318 30.0153 68.9 31.6056 67.6886 31.7237C64.6455 32.0772 62.0455 29.3375 62.2227 25.8326C62.4 22.3271 63.8182 20.1475 66.6841 20.0888C69.55 20.0296 71.2932 23.2992 70.9682 27.0989ZM67.0091 15.4641C61.4841 15.5524 56.7273 20.2064 56.3727 25.8029C56.0477 31.4291 60.5386 36.4366 66.3886 37.0257C72.2682 37.6148 77.025 32.9608 77.025 26.6865C77.025 20.3834 72.5341 15.376 67.0091 15.4641Z" fill="#F2F2F2"/>
</g>
</svg>
