<svg width="119" height="45" viewBox="0 0 119 45" fill="none" xmlns="http://www.w3.org/2000/svg">
<path d="M18.4866 10.6346L9.242 5.31731L0 10.6346V5.31731L9.24332 0L18.488 5.31731L18.4866 10.6346Z" fill="#F2F2F2"/>
<path d="M0 15.0997H4.84205V26.8211C4.84205 29.8495 7.11176 31.3256 9.24332 31.3256C11.3933 31.3256 13.6459 29.8102 13.6459 26.7805V15.0997H18.488V27.1004C18.488 29.8901 17.6077 32.0428 15.8472 33.5189C14.0854 34.9938 11.8854 35.7122 9.20253 35.7122C6.5223 35.7122 4.321 34.9951 2.60129 33.5189C0.880253 32.0441 0 29.9714 0 27.2197V15.0997ZM60.3493 29.6673C58.8836 30.9678 57.2138 31.6049 55.3099 31.6049C51.8363 31.6049 49.5073 29.6332 49.2442 26.5799H64.8888C64.8888 26.5799 64.994 25.5941 64.994 24.6685C64.994 21.7975 64.073 19.405 62.1914 17.4516C60.352 15.4983 57.952 14.5413 55.0297 14.5413C51.9494 14.5413 49.4271 15.4983 47.4258 17.4516C45.4653 19.405 44.4653 21.9561 44.4653 25.147V25.3044C44.4653 28.4546 45.4653 30.9664 47.4258 32.8411C49.3863 34.7145 51.9876 35.6715 55.1494 35.6715C58.8257 35.6715 61.7506 34.2268 63.9453 31.736L60.3493 29.6673ZM51.1468 19.8835C52.2257 19.0458 53.5481 18.6079 55.0283 18.6079C56.4283 18.6079 57.5888 19.0458 58.5901 19.9241C59.5454 20.7238 60.0612 21.7057 60.1059 22.8345H49.3679C49.5231 21.6677 50.1152 20.6845 51.1481 19.8848L51.1468 19.8835ZM109.091 38.38C107.126 43.0012 105.071 44.573 101.92 44.573H99.7357V40.2966H101.502C102.586 40.2966 103.594 39.8902 104.554 37.6826L105.515 35.4723L97.2305 15.0997H102.153L108.036 29.7721L114.079 15.0997H119L109.091 38.38ZM37.3377 7.40564V16.9194C35.7509 15.5035 33.2825 14.6606 30.8957 14.6606C28.0536 14.6606 25.6537 15.6569 23.6932 17.6889C21.7721 19.6829 20.8116 22.1541 20.8116 25.1444C20.8116 28.1361 21.7721 30.6072 23.6932 32.6406C25.6537 34.6345 28.055 35.6322 30.8957 35.6322C34.172 35.6322 36.243 34.3488 37.3377 33.3432V35.193H42.1403V7.40695L37.3377 7.40564ZM35.897 29.5322C34.7365 30.6885 33.2562 31.2876 31.5352 31.2876C29.8141 31.2876 28.4142 30.6885 27.2536 29.5322C26.1352 28.376 25.5734 26.9011 25.5734 25.147C25.5734 23.3916 26.1339 21.9168 27.2536 20.7605C28.4142 19.6042 29.8141 19.0064 31.5352 19.0064C33.2562 19.0064 34.7365 19.6042 35.897 20.7605C37.097 21.9168 37.6996 23.3916 37.6996 25.147C37.6996 26.9011 37.097 28.376 35.897 29.5322ZM89.7648 14.7012C86.1175 14.7012 84.2214 16.2088 82.9228 17.6614C82.403 16.6742 80.9399 14.7012 77.5215 14.7012C74.6321 14.7012 72.9295 16.1564 72.0795 17.1921V15.1024H67.319V35.1956H72.0795V23.6329C72.0795 20.9218 73.761 18.9684 76.0005 18.9684C78.2833 18.9684 79.6031 20.6832 79.6031 23.4336V35.1943H84.3649V23.6315C84.3649 20.8811 86.0043 18.9671 88.3648 18.9671C90.6464 18.9671 91.9661 20.6819 91.9661 23.431V35.193H96.7687V22.7545C96.7687 17.5159 93.9424 14.7025 89.7648 14.7025V14.7012Z" fill="#F2F2F2"/>
</svg>
