<svg width="101" height="28" viewBox="0 0 101 28" fill="none" xmlns="http://www.w3.org/2000/svg">
<path d="M15.9227 0C13.1671 0 10.3678 1.24119 6.78061 4.03231V0.709316H0V27.2907H7.21815V10.7656C10.3677 8.24048 11.8102 7.44242 12.9919 7.44242C14.3908 7.44242 15.31 8.32901 15.31 10.5438V27.2907H22.5264V10.7213C25.6759 8.24046 27.0765 7.44242 28.3003 7.44242C29.7009 7.44242 30.6182 8.32901 30.6182 10.5438V27.2907H37.8348V7.97451C37.8348 1.99329 34.4664 0 31.2293 0C28.4737 0 25.6742 1.1525 21.9995 3.98796C20.8211 1.01781 18.2406 0 15.9227 0ZM52.49 0C45.3174 0 39.3683 6.24718 39.3683 13.9999C39.3683 21.7526 45.3174 28 52.49 28C56.0334 28 59.0955 26.6719 61.4589 23.7905V27.2907H68.3267V0.709316H61.4589V4.20954C59.0955 1.32806 56.0334 0 52.49 0ZM69.5943 0.709316C72.5686 5.40464 75.9368 9.61405 79.8738 13.8235C75.9368 18.2085 72.5686 22.7727 69.5943 27.2907H78.2983C80.3535 23.9235 82.6715 20.8664 85.3411 17.9869C87.9652 20.8664 90.1516 23.9235 92.2085 27.2907H101C97.982 22.6397 94.7013 18.2085 90.7643 13.8235C94.6576 9.61405 97.982 5.27336 101 0.709316H92.3836C90.2409 4.07651 87.9231 6.91171 85.3411 9.70265C82.7169 6.91171 80.3989 4.07651 78.2983 0.709316H69.5943ZM53.5825 6.15866C57.8682 6.15866 61.3242 9.65892 61.3242 13.9999C61.3242 18.3409 57.8682 21.8413 53.5825 21.8413C49.2967 21.8413 45.8408 18.3426 45.8408 13.9999C45.8408 9.65722 49.2967 6.15866 53.5825 6.15866ZM53.5825 7.93015C50.3017 7.93015 47.6335 10.6325 47.6335 13.9999C47.6335 17.3673 50.3017 20.0699 53.5825 20.0699C56.8633 20.0699 59.5312 17.3673 59.5312 13.9999C59.5312 10.6325 56.8633 7.93015 53.5825 7.93015Z" fill="#F2F2F2"/>
</svg>
