<svg width="105" height="60" viewBox="0 0 105 60" fill="none" xmlns="http://www.w3.org/2000/svg">
<path d="M1.18906 27.3388C0.969995 27.3388 0.796096 27.5086 0.767866 27.7508L0 33.5973L0.767866 39.3431C0.796096 39.5853 0.969995 39.754 1.18906 39.754C1.40136 39.754 1.57412 39.5865 1.608 39.3454L2.51815 33.5973L1.608 27.7497C1.57525 27.5086 1.40023 27.3388 1.18906 27.3388ZM5.50718 24.1444C5.47104 23.8931 5.2915 23.72 5.07017 23.72C4.84772 23.72 4.66366 23.8988 4.63317 24.1444C4.63317 24.1467 3.60106 33.5973 3.60106 33.5973L4.63317 42.8408C4.66253 43.0887 4.84659 43.2676 5.07017 43.2676C5.29037 43.2676 5.46991 43.0932 5.50605 42.8431L6.68043 33.5973L5.50718 24.1444ZM21.7724 15.425C21.3489 15.425 20.9989 15.7726 20.9785 16.214L20.1565 33.6053L20.9785 44.8444C21 45.2836 21.3489 45.6299 21.7724 45.6299C22.1936 45.6299 22.5425 45.2824 22.5674 44.8421V44.8455L23.4967 33.6053L22.5674 16.214C22.5425 15.7726 22.1936 15.425 21.7724 15.425ZM13.3541 21.4696C13.0289 21.4696 12.7635 21.73 12.7375 22.0775L11.8116 33.6007L12.7375 44.7493C12.7624 45.0945 13.0289 45.3549 13.3541 45.3549C13.6759 45.3549 13.9413 45.0945 13.9695 44.7493L15.0219 33.6007L13.9695 22.0752C13.9413 21.73 13.6759 21.4696 13.3541 21.4696ZM30.3273 45.6288C30.8524 45.6288 31.2792 45.2043 31.3007 44.661L32.107 33.6109L31.3018 10.4569C31.2804 9.91359 30.8535 9.48911 30.3284 9.48911C29.7988 9.48911 29.3709 9.91473 29.3539 10.4581C29.3539 10.4592 28.6391 33.6098 28.6391 33.6098L29.3539 44.6644C29.3709 45.2032 29.7988 45.6288 30.3273 45.6288ZM47.8414 45.6809C48.5641 45.6809 49.1604 45.0843 49.1739 44.3508L49.7362 33.6177L49.1739 6.87658C49.1615 6.14421 48.5641 5.54654 47.8414 5.54654C47.1176 5.54654 46.5202 6.14308 46.509 6.87771L46.0065 33.6086C46.0065 33.6256 46.509 44.3576 46.509 44.3576C46.5202 45.0843 47.1187 45.6809 47.8414 45.6809ZM39.0177 45.639C39.6467 45.639 40.1537 45.133 40.1707 44.4878V44.4957L40.855 33.6132L40.1695 10.2917C40.1526 9.64645 39.6456 9.14161 39.0166 9.14161C38.3831 9.14161 37.8761 9.64645 37.8626 10.2917L37.2539 33.6143L37.8637 44.4946C37.8772 45.133 38.3843 45.639 39.0177 45.639ZM17.5469 45.5371C17.9206 45.5371 18.2233 45.2371 18.2515 44.8421L19.2429 33.6007L18.2515 22.9072C18.2244 22.5122 17.9218 22.2145 17.5469 22.2145C17.1674 22.2145 16.8648 22.5144 16.8411 22.9117L15.9682 33.6007L16.8411 44.841C16.8659 45.2371 17.1674 45.5371 17.5469 45.5371ZM9.19519 44.9213C9.46846 44.9213 9.68979 44.7051 9.72141 44.4063L10.8348 33.5985L9.72254 22.3831C9.68979 22.0832 9.46846 21.867 9.19519 21.867C8.91854 21.867 8.69721 22.0843 8.66898 22.3831C8.66898 22.3843 7.68882 33.5985 7.68882 33.5985L8.66898 44.404C8.69608 44.704 8.91741 44.9213 9.19519 44.9213ZM43.4126 9.90341C42.7295 9.90341 42.1818 10.4479 42.1683 11.1452L41.6127 33.6154L42.1683 44.4278C42.1818 45.116 42.7283 45.6605 43.4126 45.6605C44.0947 45.6605 44.639 45.1172 44.6548 44.4199V44.4289L45.2781 33.6166L44.6548 11.1429C44.639 10.4479 44.0947 9.90341 43.4126 9.90341ZM26.034 45.6514C26.5061 45.6514 26.8956 45.2654 26.9182 44.773L27.7854 33.6086L26.9182 12.2397C26.8945 11.7462 26.5061 11.3614 26.034 11.3614C25.5575 11.3614 25.1691 11.7473 25.1487 12.2397C25.1487 12.2409 24.3809 33.6086 24.3809 33.6086L25.1499 44.7776C25.1691 45.2654 25.5575 45.6514 26.034 45.6514ZM35.7182 44.5919L36.4635 33.612L35.7182 9.67815C35.7001 9.08388 35.2326 8.61751 34.6556 8.61751C34.0752 8.61751 33.6077 9.08275 33.5919 9.67815L32.9302 33.6109L33.593 44.5965C33.6088 45.1851 34.0763 45.6503 34.6556 45.6503C35.2337 45.6503 35.699 45.1839 35.7182 44.5919ZM92.0863 19.8159C90.3168 19.8159 88.6287 20.1747 87.0907 20.821C86.0631 9.15293 76.3021 0 64.3957 0C61.4823 0 58.6424 0.575029 56.1344 1.54737C55.1599 1.92544 54.9001 2.31483 54.8911 3.06984V44.1595C54.9013 44.9519 55.5144 45.6118 56.2857 45.6899C56.3184 45.6933 91.8548 45.7114 92.0852 45.7114C99.2173 45.7114 105 39.9147 105 32.7642C105 25.6137 99.2184 19.8159 92.0863 19.8159ZM52.251 3.03362C51.4752 3.03362 50.8384 3.67204 50.8271 4.45648L50.2444 33.6211L50.8282 44.2059C50.8384 44.9791 51.4752 45.6163 52.251 45.6163C53.0245 45.6163 53.6614 44.9791 53.6727 44.1946V44.2071L54.3062 33.6211L53.6727 4.45421C53.6614 3.67204 53.0245 3.03362 52.251 3.03362ZM10.4294 53.9418C8.9016 53.5819 8.48831 53.3894 8.48831 52.7827C8.48831 52.3548 8.83272 51.9122 9.86482 51.9122C10.7467 51.9122 11.4356 52.2711 12.0544 52.9061L13.4444 51.5545C12.5354 50.6026 11.4344 50.0366 9.93483 50.0366C8.03323 50.0366 6.49185 51.1131 6.49185 52.8665C6.49185 54.7704 7.73173 55.3364 9.50686 55.7495C11.3238 56.1627 11.6546 56.44 11.6546 57.0615C11.6546 57.7927 11.116 58.1108 9.97548 58.1108C9.05291 58.1108 8.18568 57.7938 7.51041 57.0049L6.12034 58.2477C6.84981 59.3242 8.25569 60 9.86482 60C12.4959 60 13.6522 58.7583 13.6522 56.9234C13.6522 54.8247 11.9584 54.3006 10.4294 53.9418ZM19.2983 50.0366C16.6695 50.0366 15.1145 52.0786 15.1145 55.0183C15.1145 57.958 16.6695 59.9989 19.2983 59.9989C21.9271 59.9989 23.4843 57.958 23.4843 55.0183C23.4843 52.0786 21.9271 50.0366 19.2983 50.0366ZM19.2983 58.0825C17.7433 58.0825 17.0952 56.7434 17.0952 55.0194C17.0952 53.2943 17.7433 51.9552 19.2983 51.9552C20.8555 51.9552 21.5014 53.2943 21.5014 55.0194C21.5014 56.7434 20.8555 58.0825 19.2983 58.0825ZM31.2634 55.6126C31.2634 57.1577 30.5046 58.1108 29.2805 58.1108C28.0553 58.1108 27.3123 57.1305 27.3123 55.5854V50.1871H25.3836V55.6126C25.3836 58.4266 26.9543 60 29.2805 60C31.7309 60 33.191 58.3847 33.191 55.5854V50.1871H31.2634V55.6126ZM41.5054 54.2735C41.5054 54.8123 41.5325 56.0257 41.5325 56.3846C41.4083 56.1355 41.0921 55.6533 40.8584 55.2934L37.4425 50.186H35.5985V59.8483H37.499V55.5967C37.499 55.0579 37.4718 53.8445 37.4718 53.4856C37.5949 53.7335 37.9134 54.2169 38.146 54.5768L41.685 59.8483H43.4059V50.186H41.5054V54.2735ZM48.8984 50.1871H45.8834V59.8494H48.7595C51.2381 59.8494 53.6896 58.413 53.6896 55.0183C53.6896 51.4844 51.6514 50.1871 48.8984 50.1871ZM48.7595 57.9727H47.8109V52.065H48.8295C50.8677 52.065 51.7079 53.0442 51.7079 55.0183C51.7079 56.7853 50.7842 57.9727 48.7595 57.9727ZM59.6508 51.9541C60.518 51.9541 61.069 52.3412 61.4135 53.0034L63.2033 52.176C62.5969 50.9207 61.4948 50.0366 59.6779 50.0366C57.1608 50.0366 55.397 52.0786 55.397 55.0183C55.397 58.0678 57.0897 59.9989 59.609 59.9989C61.3581 59.9989 62.5144 59.185 63.175 57.8187L61.5512 56.8521C61.0419 57.7089 60.5315 58.0813 59.6643 58.0813C58.2189 58.0813 57.3788 56.7558 57.3788 55.0183C57.3776 53.2253 58.2065 51.9541 59.6508 51.9541ZM66.7998 50.1871H64.8722V59.8494H70.6651V57.9432H66.7998V50.1871ZM75.7432 50.0366C73.1121 50.0366 71.5572 52.0786 71.5572 55.0183C71.5572 57.958 73.1121 59.9989 75.7432 59.9989C78.372 59.9989 79.9281 57.958 79.9281 55.0183C79.9281 52.0786 78.372 50.0366 75.7432 50.0366ZM75.7432 58.0825C74.186 58.0825 73.5401 56.7434 73.5401 55.0194C73.5401 53.2943 74.186 51.9552 75.7432 51.9552C77.297 51.9552 77.944 53.2943 77.944 55.0194C77.944 56.7434 77.297 58.0825 75.7432 58.0825ZM87.7061 55.6126C87.7061 57.1577 86.9506 58.1108 85.7254 58.1108C84.498 58.1108 83.7561 57.1305 83.7561 55.5854V50.1871H81.8285V55.6126C81.8285 58.4266 83.3981 60 85.7254 60C88.1758 60 89.6348 58.3847 89.6348 55.5854V50.1871H87.7061V55.6126ZM95.0584 50.1871H92.0445V59.8494H94.9206C97.4004 59.8494 99.8497 58.413 99.8497 55.0183C99.8497 51.4844 97.8126 50.1871 95.0584 50.1871ZM94.9206 57.9727H93.971V52.065H94.9906C97.0266 52.065 97.8668 53.0442 97.8668 55.0183C97.8668 56.7853 96.9442 57.9727 94.9206 57.9727Z" fill="#F2F2F2"/>
</svg>
