<svg width="133" height="38" viewBox="0 0 133 38" fill="none" xmlns="http://www.w3.org/2000/svg">
<path d="M10.6875 8.33222H18.715C21.0781 8.33222 22.9188 8.80328 24.2013 9.74776C25.498 10.6923 26.1487 12.0463 26.1487 13.8192C26.1487 14.8324 25.9162 15.7106 25.4505 16.4468C24.985 17.1924 24.2986 17.7818 23.3866 18.2197C24.6454 18.6364 25.6096 19.2968 26.2841 20.201C26.9539 21.1053 27.2864 22.2036 27.2864 23.4914C27.2864 24.7625 26.961 25.8561 26.3126 26.758C25.6642 27.6717 24.738 28.3771 23.5339 28.8742C22.3321 29.3713 20.8976 29.6199 19.2114 29.6199H10.6851L10.6875 8.33222ZM0 37.9214H38V0.0472412H0V37.9214ZM18.3112 11.8829C20.6174 11.8829 21.7787 12.728 21.7787 14.4158C21.7787 15.2892 21.4842 15.971 20.8929 16.4562C20.3015 16.9439 19.4441 17.1853 18.3279 17.1853H15.0504V11.8829H18.3112ZM18.8622 20.523H15.0148V26.2751H18.791C20.0877 26.2751 21.0876 26.0313 21.7835 25.546C22.4818 25.0584 22.8309 24.3601 22.8309 23.4464C22.8309 21.5006 21.5033 20.5348 18.8409 20.5348L18.8622 20.523Z" fill="#F2F2F2"/>
<path d="M58.1875 8.33222H66.215C68.5781 8.33222 70.4188 8.80328 71.7013 9.74776C72.998 10.6923 73.6488 12.0463 73.6488 13.8192C73.6488 14.8324 73.4162 15.7106 72.9505 16.4468C72.485 17.1924 71.7963 17.7818 70.8866 18.2197C72.1454 18.6364 73.1096 19.2968 73.7841 20.201C74.4539 21.1053 74.7864 22.2036 74.7864 23.4914C74.7864 24.7625 74.461 25.8561 73.8126 26.758C73.1643 27.6717 72.238 28.3771 71.0339 28.8742C69.8321 29.3713 68.3976 29.6199 66.7114 29.6199H58.1851L58.1875 8.33222ZM47.5 37.9214H85.5V0.0472412H47.5V37.9214ZM65.8113 11.8829C68.1174 11.8829 69.2788 12.728 69.2788 14.4158C69.2788 15.2892 68.9843 15.971 68.3929 16.4562C67.8015 16.9439 66.9441 17.1853 65.8279 17.1853H62.5504V11.8829H65.8113ZM66.3623 20.523H62.5148V26.2751H66.291C67.5878 26.2751 68.5876 26.0313 69.2835 25.546C69.9818 25.0584 70.3309 24.3601 70.3309 23.4464C70.3309 21.5006 69.0033 20.5348 66.3409 20.5348L66.3623 20.523Z" fill="#F2F2F2"/>
<path d="M119.225 29.3998C120.391 29.1181 121.417 28.7323 122.313 28.247V24.1992C120.443 25.3473 118.394 25.9225 116.185 25.9225C114.736 25.9225 113.501 25.6503 112.48 25.1058C111.464 24.5614 110.689 23.7684 110.157 22.715C109.623 21.6735 109.357 20.4118 109.357 18.9276C109.357 17.4482 109.632 16.1817 110.186 15.1639C110.739 14.1318 111.532 13.3435 112.561 12.7991C113.596 12.2547 114.848 11.9824 116.313 11.9824C117.38 11.9824 118.396 12.124 119.353 12.4062C120.318 12.6878 121.213 13.1021 122.037 13.6465V9.50405C121.132 9.03772 120.151 8.68265 119.092 8.43884C118.035 8.19502 116.914 8.0743 115.72 8.0743C114.01 8.0743 112.466 8.32758 111.088 8.83415C109.711 9.34072 108.523 10.0698 107.55 11.0238C106.564 11.9777 105.809 13.121 105.286 14.4561C104.764 15.7888 104.502 17.273 104.502 18.93C104.502 20.6249 104.754 22.1493 105.258 23.4986C105.761 24.8526 106.483 25.984 107.431 26.9309C108.376 27.8659 109.533 28.5808 110.898 29.0779C112.266 29.575 113.796 29.8235 115.506 29.8235C116.793 29.8235 118.023 29.682 119.187 29.3998H119.225ZM133 37.8742H95V0H133V37.8742Z" fill="#F2F2F2"/>
</svg>
