<svg width="97" height="47" viewBox="0 0 97 47" fill="none" xmlns="http://www.w3.org/2000/svg">
<path d="M40.6246 0.000912115C36.3222 -0.0652826 32.5037 3.47768 32.5037 8.60505V31.6939C32.508 32.525 31.8986 33.2621 31.0113 33.2621H23.9256C8.59266 33.2808 9.96277 13.2966 23.0139 13.2778C28.8159 13.2694 30.8439 13.2778 30.8439 13.2778V7.6786H22.7356C17.6548 7.68697 13.8084 9.65771 11.2211 12.5959C8.63368 15.5341 7.30906 19.447 7.31112 23.3356C7.31313 27.0792 8.56671 30.9645 11.1852 33.9092C13.8038 36.8538 17.7852 38.8675 23.2879 38.8675H36.6622C37.4354 38.8675 38.0908 38.2005 38.0908 37.4226V9.21425C38.0823 7.73914 38.8335 6.55324 40.0412 6.1607H40.0414C41.213 5.781 42.4998 6.27552 43.2754 7.39918L43.2788 7.4042L43.2818 7.40941C45.1614 10.5464 49.8577 18.2418 54.0998 25.1786C56.2208 28.6471 58.2284 31.9262 59.7139 34.3517C60.4566 35.5644 61.0689 36.5637 61.4995 37.2667C61.9267 37.9641 62.1641 38.3515 62.1906 38.3953C62.5034 38.8456 62.8972 39.0149 63.2252 38.9096H63.2254L63.2258 38.9094C63.4118 38.8505 63.5582 38.717 63.6677 38.4972C63.7773 38.2775 63.8422 37.9723 63.8422 37.6057V9.21831C63.8377 7.74788 64.5842 6.55949 65.7961 6.16919C66.9605 5.78892 68.2511 6.28348 69.019 7.40825L69.0221 7.41269L69.0247 7.41732C70.9084 10.5523 75.6069 18.2477 79.8499 25.1846C84.0905 32.1176 87.882 38.3027 87.9414 38.399C87.9416 38.3992 87.9417 38.3994 87.9418 38.3996C88.2485 38.8471 88.6671 39.0257 89.0168 38.9135C89.2061 38.8525 89.3574 38.7162 89.4701 38.4963C89.5829 38.2763 89.6503 37.9733 89.6503 37.61V0.175743V0.173813H84.1039V22.034C84.1039 22.034 80.6693 16.1017 74.8142 5.86275C69.0858 -4.16782 58.2752 -0.0220144 58.2708 8.6091V22.03C58.2708 22.03 54.9186 16.0934 49.0674 5.85446C46.7386 1.78118 43.5683 0.0462033 40.6246 0.000912115ZM23.7377 0.173813C-8.13424 0.169772 -7.83187 46.4203 24.167 46.4414H36.6701C42.0509 46.4453 45.5061 43.1948 45.5018 37.2038V25.4887C45.5018 25.4887 52.5143 37.3311 55.2661 41.9664C59.9479 49.8481 71.2774 48.2984 71.2489 38.4532V25.497C71.2489 25.497 78.2611 37.335 81.0167 41.9767C85.6985 49.8559 97.0287 48.3046 96.9999 38.4571V0.173813H91.462V37.6096V37.61C91.4659 39.379 90.4923 40.3677 89.5647 40.6664L89.5641 40.6666C88.4326 41.034 87.2016 40.5423 86.4362 39.4256L86.4336 39.4217L86.4311 39.4179C86.2728 39.1603 71.2649 14.681 67.5125 8.42694C67.2012 7.97666 66.7452 7.79165 66.3406 7.92194C65.9205 8.059 65.6534 8.51192 65.6534 9.21753V37.6011V37.6015C65.6578 39.3777 64.7007 40.3635 63.7771 40.6664L63.7765 40.6666L63.7759 40.6668C62.661 41.0237 61.4496 40.5329 60.689 39.4171L60.6871 39.4144L60.6854 39.4117C60.655 39.3637 60.4129 38.9691 59.9799 38.2632C59.5468 37.5572 58.9325 36.5554 58.188 35.3404C56.699 32.9106 54.6893 29.6287 52.5675 26.1595C48.3258 19.2243 43.6393 11.5451 41.7656 8.41864C41.4547 7.96907 40.9945 7.78735 40.5891 7.91808V7.91788C40.1643 8.05519 39.8947 8.50803 39.8986 9.20808V9.20866V37.4224C39.8986 39.2332 38.4412 40.7085 36.6622 40.7085H23.2877C17.2026 40.7085 12.7468 38.4585 9.82365 35.1583C6.90049 31.858 5.50771 27.5172 5.50355 23.3356C5.49939 18.9968 6.97462 14.6294 9.87026 11.3398C12.7659 8.05025 17.0856 5.84588 22.7315 5.83748H22.7317H30.8439V0.173813H23.7377Z" fill="#F2F2F2"/>
</svg>
