<svg width="172" height="44" viewBox="0 0 172 44" fill="none" xmlns="http://www.w3.org/2000/svg">
<path d="M44.0062 26.4515C43.2079 26.4515 42.4761 26.8533 42.077 27.523C41.6778 28.1927 41.6778 29.0632 42.077 29.7329C42.4761 30.4025 43.2079 30.8378 44.0062 30.8043C45.2036 30.7708 46.135 29.7998 46.135 28.6279C46.1682 27.456 45.2036 26.485 44.0062 26.4515Z" fill="#F2F2F2"/>
<path d="M41.2454 32.1439C40.2143 32.1439 39.3827 32.981 39.3827 33.9855C39.3827 35.0235 40.2143 35.8605 41.2454 35.8605C42.2765 35.8605 43.1081 35.0235 43.1081 33.9855C43.1081 32.981 42.2765 32.1439 41.2454 32.1439Z" fill="#F2F2F2"/>
<path d="M37.2056 39.8084C38.0868 39.7788 38.7774 39.0358 38.7481 38.1487C38.7187 37.2616 37.9806 36.5664 37.0993 36.5959C36.2181 36.6255 35.5275 37.3685 35.5568 38.2556C35.5862 39.1427 36.3243 39.8379 37.2056 39.8084Z" fill="#F2F2F2"/>
<path d="M32.5306 39.6105C31.7988 39.6105 31.2334 40.1797 31.2334 40.9163C31.2334 41.6529 31.7988 42.2221 32.5306 42.2221C33.2624 42.2221 33.8278 41.6529 33.8278 40.9163C33.8278 40.1797 33.2624 39.6105 32.5306 39.6105Z" fill="#F2F2F2"/>
<path d="M28.007 41.1842C27.4083 41.1842 26.9093 41.6865 26.9093 42.2891C26.9093 42.8918 27.4083 43.3941 28.007 43.3941C28.6057 43.3941 29.1047 42.8918 29.1047 42.2891C29.1379 41.6865 28.639 41.1842 28.007 41.1842Z" fill="#F2F2F2"/>
<path d="M23.7826 41.8204C23.2505 41.8204 22.818 42.2557 22.818 42.7914C22.818 43.3272 23.2505 43.7624 23.7826 43.7624C24.3148 43.7624 24.7473 43.3272 24.7473 42.7914C24.714 42.2557 24.2816 41.8204 23.7826 41.8204Z" fill="#F2F2F2"/>
<path d="M19.525 41.1842C18.9263 41.1842 18.4274 41.6865 18.4274 42.2891C18.4274 42.8918 18.9263 43.3941 19.525 43.3941C20.1238 43.3941 20.6227 42.8918 20.6227 42.2891C20.6227 41.6865 20.1238 41.1842 19.525 41.1842Z" fill="#F2F2F2"/>
<path d="M15.0013 39.5769C14.5356 39.5769 14.1032 39.8113 13.8704 40.2131C13.6376 40.6149 13.6376 41.1171 13.8704 41.5189C14.1032 41.9207 14.5356 42.1551 15.0013 42.1551C15.6998 42.1551 16.2986 41.5859 16.2986 40.8493C16.2653 40.1796 15.6998 39.6104 15.0013 39.5769Z" fill="#F2F2F2"/>
<path d="M10.3779 36.5969C9.81243 36.5969 9.28023 36.8983 8.98087 37.4005C8.68151 37.9028 8.68151 38.5055 8.98087 39.0077C9.28023 39.5099 9.77917 39.8113 10.3779 39.8113C11.2427 39.8113 11.9745 39.1081 11.9745 38.2041C11.9745 37.3335 11.276 36.5969 10.3779 36.5969Z" fill="#F2F2F2"/>
<path d="M6.28656 32.1439C5.25543 32.1439 4.42387 32.981 4.42387 34.019C4.42387 35.0569 5.25543 35.894 6.28656 35.894C7.3177 35.894 8.14926 35.0569 8.14926 34.019C8.116 32.981 7.3177 32.1439 6.28656 32.1439Z" fill="#F2F2F2"/>
<path d="M3.5258 26.4516C2.7275 26.4182 1.99573 26.8534 1.59658 27.5231C1.19743 28.1927 1.19743 29.0633 1.59658 29.733C1.99573 30.4026 2.7275 30.8379 3.5258 30.8044C4.72325 30.7709 5.6546 29.7999 5.6546 28.628C5.6546 27.4561 4.68999 26.4851 3.5258 26.4516Z" fill="#F2F2F2"/>
<path d="M2.52794 19.3533C1.13092 19.3533 0 20.4917 0 21.898C0 23.3043 1.13092 24.4427 2.52794 24.4427C3.92497 24.4427 5.05589 23.3043 5.05589 21.898C5.02263 20.4917 3.92497 19.3533 2.52794 19.3533Z" fill="#F2F2F2"/>
<path d="M3.5258 12.9246C2.7275 12.9246 1.99573 13.3264 1.59658 13.996C1.19743 14.6657 1.19743 15.5362 1.59658 16.2059C1.99573 16.8756 2.7275 17.3108 3.5258 17.2774C4.72325 17.2439 5.6546 16.2729 5.6546 15.101C5.6546 13.9291 4.68999 12.958 3.5258 12.9246Z" fill="#F2F2F2"/>
<path d="M6.28664 7.86865C5.6214 7.86865 4.98941 8.20348 4.65679 8.80618C4.32416 9.37539 4.32416 10.112 4.65679 10.6812C4.98941 11.2504 5.6214 11.6187 6.28664 11.6187C7.28452 11.5853 8.11608 10.7817 8.11608 9.7437C8.08282 8.73921 7.28452 7.90214 6.28664 7.86865Z" fill="#F2F2F2"/>
<path d="M10.3779 3.9176C9.51304 3.9176 8.78127 4.62075 8.78127 5.52479C8.78127 6.39534 9.47978 7.13197 10.3779 7.13197C11.2427 7.13197 11.9745 6.42883 11.9745 5.52479C11.9745 4.65423 11.2759 3.9176 10.3779 3.9176Z" fill="#F2F2F2"/>
<path d="M15.0014 1.54028C14.3029 1.54028 13.7041 2.10949 13.7041 2.84612C13.7041 3.54926 14.2696 4.15196 15.0014 4.15196C15.6999 4.15196 16.2986 3.58275 16.2986 2.84612C16.2653 2.14298 15.6999 1.54028 15.0014 1.54028Z" fill="#F2F2F2"/>
<path d="M19.525 0.334961C18.893 0.334961 18.3941 0.837206 18.3941 1.47338C18.3941 2.10956 18.893 2.61181 19.525 2.61181C20.1237 2.61181 20.6227 2.10956 20.6227 1.50687C20.5894 0.837206 20.1237 0.334961 19.525 0.334961Z" fill="#F2F2F2"/>
<path d="M23.7494 0C23.2172 0 22.7848 0.435279 22.7848 0.971007C22.7848 1.50674 23.2172 1.94201 23.7494 1.94201C24.2816 1.94201 24.714 1.50674 24.714 0.971007C24.714 0.435279 24.2816 0 23.7494 0Z" fill="#F2F2F2"/>
<path d="M28.007 0.334961C27.4083 0.334961 26.9093 0.837206 26.9093 1.4399C26.9093 2.04259 27.4083 2.54484 28.007 2.54484C28.6057 2.54484 29.1047 2.04259 29.1047 1.4399C29.1379 0.837206 28.639 0.334961 28.007 0.334961Z" fill="#F2F2F2"/>
<path d="M32.5306 1.54028C32.065 1.54028 31.6326 1.77466 31.3997 2.17646C31.1669 2.57826 31.1669 3.0805 31.3997 3.4823C31.6326 3.88409 32.065 4.11847 32.5306 4.11847C33.2292 4.11847 33.8279 3.54926 33.8279 2.81264C33.8279 2.07601 33.2624 1.54028 32.5306 1.54028Z" fill="#F2F2F2"/>
<path d="M37.1541 3.95117C36.2893 3.95117 35.5575 4.65431 35.5575 5.55836C35.5575 6.42891 36.256 7.16554 37.1541 7.16554C38.0189 7.16554 38.7507 6.4624 38.7507 5.55836C38.7507 4.65431 38.0189 3.95117 37.1541 3.95117Z" fill="#F2F2F2"/>
<path d="M41.2454 7.86865C40.2143 7.86865 39.3827 8.70573 39.3827 9.7437C39.3827 10.7817 40.2143 11.6187 41.2454 11.6187C42.2765 11.6187 43.1081 10.7817 43.1081 9.7437C43.1081 8.70573 42.2765 7.86865 41.2454 7.86865Z" fill="#F2F2F2"/>
<path d="M44.0062 12.9246C43.2079 12.9246 42.4761 13.3264 42.077 13.996C41.6778 14.6657 41.6778 15.5362 42.077 16.2059C42.4761 16.8756 43.2079 17.3108 44.0062 17.2774C45.2036 17.2439 46.135 16.2729 46.135 15.101C46.135 13.8956 45.2036 12.9246 44.0062 12.9246Z" fill="#F2F2F2"/>
<path d="M34.0274 25.2128C33.6616 25.2128 33.3289 25.3802 33.1626 25.6815C32.9963 25.9829 32.9963 26.3847 33.1626 26.686C33.3289 26.9874 33.6616 27.1883 34.0274 27.1548C34.5596 27.1213 34.9588 26.686 34.9588 26.1838C34.9921 25.6815 34.5596 25.2463 34.0274 25.2128Z" fill="#F2F2F2"/>
<path d="M31.5993 28.8624C31.2334 28.8624 30.9008 29.0298 30.7345 29.3312C30.5681 29.6325 30.5681 30.0343 30.7345 30.3357C30.9008 30.637 31.2667 30.8379 31.5993 30.8044C32.1315 30.771 32.5306 30.3357 32.5306 29.8334C32.5306 29.3312 32.1315 28.8959 31.5993 28.8624Z" fill="#F2F2F2"/>
<path d="M27.9737 31.2063C27.6078 31.2063 27.242 31.4072 27.0424 31.742C26.8428 32.0769 26.8428 32.4787 27.0424 32.8135C27.242 33.1483 27.5746 33.3492 27.9737 33.3492C28.5725 33.3492 29.0381 32.8805 29.0381 32.2778C29.0381 31.6751 28.5725 31.2063 27.9737 31.2063Z" fill="#F2F2F2"/>
<path d="M23.7161 31.8424C22.9178 31.8424 22.2858 32.4786 22.2858 33.2822C22.2858 34.0858 22.9178 34.7219 23.7161 34.7219C24.5144 34.7219 25.1464 34.0858 25.1464 33.2822C25.1131 32.4786 24.4811 31.8424 23.7161 31.8424Z" fill="#F2F2F2"/>
<path d="M19.4253 30.9718C18.5272 30.9718 17.7954 31.7084 17.7954 32.6125C17.7954 33.5165 18.5272 34.2531 19.4253 34.2531C20.3234 34.2531 21.0552 33.5165 21.0552 32.6125C21.0552 31.7084 20.3234 30.9718 19.4253 30.9718Z" fill="#F2F2F2"/>
<path d="M15.5668 28.2263C14.569 28.2263 13.7707 29.0299 13.7707 30.0344C13.7707 31.0389 14.569 31.8425 15.5668 31.8425C16.5647 31.8425 17.363 31.0389 17.363 30.0344C17.363 29.0299 16.5647 28.2263 15.5668 28.2263Z" fill="#F2F2F2"/>
<path d="M13.0056 24.5431C12.1741 24.5431 11.5088 25.2128 11.5088 26.0498C11.5088 26.8869 12.1741 27.5566 13.0056 27.5566C13.8372 27.5566 14.5024 26.8869 14.5024 26.0498C14.5357 25.2462 13.8372 24.5431 13.0056 24.5431Z" fill="#F2F2F2"/>
<path d="M12.4069 20.5251C11.7749 20.5251 11.2427 21.0609 11.2427 21.6971C11.2427 22.3332 11.7749 22.869 12.4069 22.869C13.0389 22.869 13.5711 22.3332 13.5711 21.6971C13.5711 21.0274 13.0721 20.5251 12.4069 20.5251Z" fill="#F2F2F2"/>
<path d="M13.438 16.5742C12.9058 16.5742 12.4734 17.0095 12.4734 17.5452C12.4734 18.081 12.9058 18.5162 13.438 18.5162C13.9702 18.5162 14.4026 18.081 14.4026 17.5452C14.4358 17.0095 13.9702 16.5742 13.438 16.5742Z" fill="#F2F2F2"/>
<path d="M15.8994 12.958C15.5336 12.958 15.2009 13.1254 15.0346 13.4268C14.8683 13.7281 14.8683 14.1299 15.0346 14.4313C15.2009 14.7326 15.5668 14.9335 15.8994 14.9C16.4316 14.9 16.8641 14.4647 16.8641 13.929C16.8308 13.3933 16.3984 12.958 15.8994 12.958Z" fill="#F2F2F2"/>
<path d="M19.4918 10.4132C18.893 10.4132 18.4274 10.882 18.4274 11.4847C18.4274 12.0874 18.893 12.5561 19.4918 12.5561C20.0905 12.5561 20.5562 12.0874 20.5562 11.4847C20.5562 10.9155 20.0905 10.4132 19.4918 10.4132Z" fill="#F2F2F2"/>
<path d="M25.2054 10.5178C25.2358 9.72321 24.6204 9.05431 23.831 9.0238C23.0417 8.99328 22.3772 9.6127 22.3469 10.4073C22.3166 11.2019 22.9319 11.8708 23.7213 11.9013C24.5106 11.9318 25.1751 11.3124 25.2054 10.5178Z" fill="#F2F2F2"/>
<path d="M28.0402 9.50916C27.1421 9.50916 26.4103 10.2458 26.4103 11.1498C26.4103 12.0539 27.1421 12.7905 28.0402 12.7905C28.9383 12.7905 29.67 12.0539 29.67 11.1498C29.67 10.2458 28.9383 9.50916 28.0402 9.50916Z" fill="#F2F2F2"/>
<path d="M31.8987 11.92C30.9008 11.92 30.1025 12.7236 30.1025 13.7281C30.1025 14.7326 30.9008 15.5362 31.8987 15.5362C32.8966 15.5362 33.6949 14.7326 33.6949 13.7281C33.6949 12.7236 32.8966 11.92 31.8987 11.92Z" fill="#F2F2F2"/>
<path d="M34.4599 16.1724C33.6283 16.1724 32.9631 16.842 32.9631 17.6791C32.9631 18.5162 33.6283 19.1858 34.4599 19.1858C35.2914 19.1858 35.9567 18.5162 35.9567 17.6791C35.9567 16.842 35.2914 16.1724 34.4599 16.1724Z" fill="#F2F2F2"/>
<path d="M30.5349 24.6435C31.0309 24.6435 31.433 24.2388 31.433 23.7395C31.433 23.2402 31.0309 22.8354 30.5349 22.8354C30.0389 22.8354 29.6368 23.2402 29.6368 23.7395C29.6368 24.2388 30.0389 24.6435 30.5349 24.6435Z" fill="#F2F2F2"/>
<path d="M28.772 25.6481C28.0403 25.6481 27.4415 26.2508 27.4415 26.9874C27.4415 27.724 28.0403 28.3267 28.772 28.3267C29.5038 28.3267 30.1025 27.724 30.1025 26.9874C30.1358 26.2508 29.5371 25.6481 28.772 25.6481Z" fill="#F2F2F2"/>
<path d="M25.346 27.4563C24.581 27.4563 23.949 28.0925 23.949 28.8626C23.949 29.6327 24.581 30.2689 25.346 30.2689C26.111 30.2689 26.743 29.6327 26.743 28.8626C26.743 28.0925 26.111 27.4563 25.346 27.4563Z" fill="#F2F2F2"/>
<path d="M21.288 27.3557C20.8556 27.3557 20.4232 27.5901 20.2236 27.9919C19.9907 28.3937 19.9907 28.8625 20.2236 29.2308C20.4564 29.6326 20.8556 29.8669 21.288 29.8669C21.9865 29.8669 22.5187 29.2977 22.5187 28.6281C22.5519 27.9249 21.9865 27.3557 21.288 27.3557Z" fill="#F2F2F2"/>
<path d="M18.2943 25.3132C17.7954 25.3132 17.3962 25.715 17.3962 26.2173C17.3962 26.7195 17.7954 27.1213 18.2943 27.1213C18.7933 27.1213 19.1924 26.7195 19.1924 26.2173C19.2257 25.7485 18.7933 25.3132 18.2943 25.3132Z" fill="#F2F2F2"/>
<path d="M17.0969 22.668C16.731 22.668 16.4317 22.9693 16.4317 23.3376C16.4317 23.7059 16.731 24.0073 17.0969 24.0073C17.4628 24.0073 17.7622 23.7059 17.7622 23.3376C17.7622 22.9693 17.4628 22.668 17.0969 22.668Z" fill="#F2F2F2"/>
<path d="M17.0304 19.2194C16.5314 19.2194 16.1323 19.6212 16.1323 20.1234C16.1323 20.6256 16.5314 21.0274 17.0304 21.0274C17.5293 21.0274 17.9285 20.6256 17.9285 20.1234C17.9285 19.6212 17.5293 19.2194 17.0304 19.2194Z" fill="#F2F2F2"/>
<path d="M18.7933 15.5027C18.0615 15.5027 17.4628 16.1054 17.4628 16.842C17.4628 17.5786 18.0615 18.1813 18.7933 18.1813C19.5251 18.1813 20.1238 17.5786 20.1238 16.842C20.1238 16.1054 19.5251 15.5027 18.7933 15.5027Z" fill="#F2F2F2"/>
<path d="M22.2193 13.5607C21.4542 13.5607 20.8223 14.1968 20.8223 14.967C20.8223 15.7371 21.4542 16.3732 22.2193 16.3732C22.9843 16.3732 23.6163 15.7371 23.6163 14.967C23.6163 14.1968 22.9843 13.5607 22.2193 13.5607Z" fill="#F2F2F2"/>
<path d="M26.2773 13.996C25.8116 13.996 25.4125 14.2304 25.1796 14.5987C24.9468 15.0005 24.9468 15.4692 25.1796 15.871C25.4125 16.2728 25.8449 16.5072 26.2773 16.4737C26.9426 16.4402 27.4748 15.9045 27.4748 15.2348C27.4748 14.5652 26.9426 14.0295 26.2773 13.996Z" fill="#F2F2F2"/>
<path d="M29.2377 16.6744C28.7387 16.6744 28.3396 17.0762 28.3396 17.5785C28.3396 18.0807 28.7387 18.4825 29.2377 18.4825C29.7366 18.4825 30.1357 18.0807 30.1357 17.5785C30.169 17.0762 29.7699 16.6744 29.2377 16.6744Z" fill="#F2F2F2"/>
<path d="M30.5017 19.8553C30.1358 19.8553 29.8364 20.1567 29.8364 20.525C29.8364 20.8933 30.1358 21.1947 30.5017 21.1947C30.8676 21.1947 31.1669 20.8933 31.1669 20.525C31.1669 20.1567 30.8676 19.8553 30.5017 19.8553Z" fill="#F2F2F2"/>
<path d="M35.0586 20.8936C34.4267 20.8936 33.8945 21.4293 33.8945 22.0655C33.8945 22.7016 34.4267 23.2374 35.0586 23.2374C35.6906 23.2374 36.2228 22.7016 36.2228 22.0655C36.2228 21.4293 35.6906 20.8936 35.0586 20.8936Z" fill="#F2F2F2"/>
<path d="M39.8817 22.3333C39.1832 22.3333 38.651 22.9025 38.651 23.5721C38.651 24.2753 39.2164 24.811 39.8817 24.811C40.5802 24.811 41.1124 24.2418 41.1124 23.5721C41.1124 22.9025 40.5802 22.3333 39.8817 22.3333Z" fill="#F2F2F2"/>
<path d="M38.6509 26.7196C38.019 26.7196 37.4868 27.2553 37.4868 27.8915C37.4868 28.5277 38.019 29.0634 38.6509 29.0634C39.2829 29.0634 39.8151 28.5277 39.8151 27.8915C39.8151 27.2553 39.3162 26.7196 38.6509 26.7196Z" fill="#F2F2F2"/>
<path d="M36.5554 30.4027C36.0232 30.4027 35.5575 30.838 35.5575 31.4072C35.5575 31.9429 35.9899 32.4117 36.5554 32.4117C37.0876 32.4117 37.52 31.9429 37.52 31.4072C37.52 30.8715 37.0876 30.4362 36.5554 30.4027Z" fill="#F2F2F2"/>
<path d="M34.0275 33.1483C33.7281 33.1483 33.4288 33.3157 33.2624 33.5836C33.0961 33.8515 33.0961 34.1863 33.2624 34.4542C33.4288 34.722 33.6949 34.8894 34.0275 34.8894C34.4932 34.8894 34.8923 34.5211 34.8923 34.0189C34.8923 33.5501 34.4932 33.1483 34.0275 33.1483Z" fill="#F2F2F2"/>
<path d="M31.3665 35.1571C30.9673 35.1571 30.6347 35.4919 30.6347 35.8937C30.6347 36.2955 30.9673 36.6304 31.3665 36.6304C31.7656 36.6304 32.0983 36.2955 32.0983 35.8937C32.0983 35.4919 31.7656 35.1571 31.3665 35.1571Z" fill="#F2F2F2"/>
<path d="M28.3395 36.2958C27.8739 36.2958 27.4747 36.6641 27.4747 37.1663C27.4747 37.6351 27.8406 38.0369 28.3395 38.0369C28.8052 38.0369 29.2044 37.6686 29.2044 37.1663C29.1711 36.6641 28.8052 36.2958 28.3395 36.2958Z" fill="#F2F2F2"/>
<path d="M24.7805 36.8649C24.2483 36.8649 23.7826 37.3001 23.7826 37.8694C23.7826 38.4051 24.215 38.8738 24.7805 38.8738C25.3127 38.8738 25.7784 38.4386 25.7784 37.8694C25.7451 37.3001 25.3127 36.8649 24.7805 36.8649Z" fill="#F2F2F2"/>
<path d="M20.7225 36.463C20.0239 36.463 19.4585 37.0322 19.4585 37.7354C19.4585 38.4385 20.0239 39.0077 20.7225 39.0077C21.421 39.0077 21.9864 38.4385 21.9864 37.7354C21.9864 37.0322 21.421 36.463 20.7225 36.463Z" fill="#F2F2F2"/>
<path d="M16.4316 34.9227C15.6 34.9227 14.9348 35.5924 14.9348 36.4295C14.9348 37.2665 15.6 37.9362 16.4316 37.9362C17.2632 37.9362 17.9284 37.2665 17.9284 36.4295C17.9617 35.5924 17.2632 34.9227 16.4316 34.9227Z" fill="#F2F2F2"/>
<path d="M12.6729 32.0433C12.041 32.0433 11.4422 32.3782 11.1096 32.9139C10.777 33.4831 10.777 34.1528 11.1096 34.722C11.4422 35.2912 12.041 35.626 12.6729 35.5925C13.6375 35.5591 14.4026 34.7889 14.4026 33.8179C14.4026 32.8804 13.6375 32.0768 12.6729 32.0433Z" fill="#F2F2F2"/>
<path d="M9.51308 27.7574C8.44869 27.7574 7.58386 28.628 7.58386 29.6995C7.58386 30.7709 8.44869 31.6415 9.51308 31.6415C10.5775 31.6415 11.4423 30.7709 11.4423 29.6995C11.4423 28.5945 10.5775 27.7574 9.51308 27.7574Z" fill="#F2F2F2"/>
<path d="M9.25684 24.9039C9.31674 24.0554 8.68198 23.3187 7.83906 23.2584C6.99614 23.1981 6.26425 23.837 6.20435 24.6856C6.14445 25.5341 6.77921 26.2708 7.62213 26.3311C8.46505 26.3914 9.19694 25.7524 9.25684 24.9039Z" fill="#F2F2F2"/>
<path d="M8.86465 20.232C8.90224 19.5489 8.38253 18.9644 7.70385 18.9265C7.02516 18.8887 6.44451 19.4118 6.40693 20.095C6.36934 20.7782 6.88905 21.3627 7.56773 21.4005C8.24641 21.4384 8.82707 20.9152 8.86465 20.232Z" fill="#F2F2F2"/>
<path d="M8.88105 14.6656C8.24906 14.6656 7.71687 15.2014 7.71687 15.8376C7.71687 16.4737 8.24906 17.0095 8.88105 17.0095C9.51304 17.0095 10.0452 16.4737 10.0452 15.8376C10.0452 15.2014 9.51304 14.6656 8.88105 14.6656Z" fill="#F2F2F2"/>
<path d="M10.9766 11.3508C10.6107 11.3508 10.2781 11.5182 10.1118 11.8531C9.94545 12.1544 9.94545 12.5562 10.1118 12.8576C10.2781 13.1589 10.644 13.3598 10.9766 13.3598C11.5088 13.3598 11.9412 12.891 11.9412 12.3553C11.9412 11.7861 11.5088 11.3508 10.9766 11.3508Z" fill="#F2F2F2"/>
<path d="M13.5046 8.87305C13.0389 8.87305 12.6397 9.24136 12.6397 9.74361C12.6397 10.2124 13.0056 10.6142 13.5046 10.6142C14.0035 10.6142 14.3694 10.2459 14.3694 9.74361C14.3694 9.27484 13.9702 8.87305 13.5046 8.87305Z" fill="#F2F2F2"/>
<path d="M16.1655 7.13208C15.7663 7.13208 15.4337 7.46691 15.4337 7.86871C15.4337 8.2705 15.7663 8.60533 16.1655 8.60533C16.5646 8.60533 16.8973 8.2705 16.8973 7.86871C16.8973 7.43343 16.5646 7.13208 16.1655 7.13208Z" fill="#F2F2F2"/>
<path d="M19.1925 5.75916C18.7268 5.75916 18.3276 6.12747 18.3276 6.62971C18.3276 7.09847 18.6935 7.50027 19.1925 7.50027C19.6581 7.50027 20.0573 7.13196 20.0573 6.62971C20.0573 6.12747 19.6581 5.75916 19.1925 5.75916Z" fill="#F2F2F2"/>
<path d="M22.7515 4.88855C22.3856 4.88855 22.053 5.05596 21.8867 5.39079C21.7203 5.69214 21.7203 6.09394 21.8867 6.39529C22.053 6.69663 22.4188 6.89753 22.7515 6.89753C23.2837 6.89753 23.7161 6.42877 23.7161 5.89304C23.7161 5.35731 23.2837 4.92203 22.7515 4.88855Z" fill="#F2F2F2"/>
<path d="M26.8095 4.72119C26.3438 4.72119 25.9114 4.95557 25.6786 5.35737C25.4457 5.75916 25.4457 6.26141 25.6786 6.66321C25.9114 7.065 26.3438 7.29938 26.8095 7.29938C27.508 7.29938 28.0735 6.69669 28.0735 5.99355C28.0735 5.2904 27.508 4.72119 26.8095 4.72119Z" fill="#F2F2F2"/>
<path d="M30.9673 5.69214C30.1357 5.69214 29.4372 6.3618 29.4372 7.23236C29.4372 8.06943 30.1025 8.77258 30.9673 8.77258C31.7989 8.77258 32.4974 8.10292 32.4974 7.23236C32.4974 6.39528 31.7989 5.69214 30.9673 5.69214Z" fill="#F2F2F2"/>
<path d="M34.8922 8.10291C33.8944 8.10291 33.1293 8.9065 33.1293 9.8775C33.1293 10.8485 33.9276 11.6521 34.8922 11.6521C35.8901 11.6521 36.6551 10.8485 36.6551 9.8775C36.6551 8.9065 35.8569 8.10291 34.8922 8.10291Z" fill="#F2F2F2"/>
<path d="M38.0189 12.1208C37.3204 12.1208 36.6885 12.4892 36.3226 13.0919C35.9567 13.6946 35.9567 14.4312 36.3226 15.0339C36.6885 15.6366 37.3204 16.0049 38.0189 16.0049C39.0833 15.9714 39.9149 15.1343 39.9149 14.0629C39.8816 13.0249 39.0501 12.1543 38.0189 12.1208Z" fill="#F2F2F2"/>
<path d="M39.7818 17.4448C39.2496 17.4448 38.7174 17.7127 38.4513 18.1815C38.1852 18.6502 38.1852 19.2529 38.4513 19.7217C38.7174 20.1904 39.2496 20.4918 39.7818 20.4583C40.6134 20.4248 41.2454 19.7552 41.2454 18.9516C41.2454 18.148 40.6134 17.4783 39.7818 17.4448Z" fill="#F2F2F2"/>
<path d="M47.532 21.8644C47.532 23.2707 46.401 24.4091 45.004 24.4091C43.607 24.4091 42.4761 23.2707 42.4761 21.8644C42.4761 20.4581 43.607 19.3197 45.004 19.3197C46.401 19.3532 47.532 20.4916 47.532 21.8644Z" fill="#F2F2F2"/>
<path d="M172 25.7821C172 23.3713 170.636 22.0989 168.507 21.2284C166.844 20.5587 165.381 19.9895 164.25 19.5208C163.152 19.0855 162.188 18.3154 162.188 17.4783C162.188 16.3399 163.585 15.6702 165.447 15.6702C167.643 15.6702 169.372 15.9716 171.002 16.139H171.069C171.335 16.139 171.501 15.9381 171.501 15.6702V13.7952C171.501 13.5608 171.301 13.3599 171.035 13.3264C170.171 13.1255 167.975 12.6567 165.58 12.6567C160.924 12.6567 158.695 14.6657 158.695 17.4783C158.695 19.2529 159.46 20.994 161.655 21.898C163.851 22.8021 168.341 23.8735 168.341 25.7486C168.341 27.2218 167.676 28.0254 165.414 28.0254C163.086 28.0254 160.724 27.6906 159.726 27.5567H159.66C159.394 27.5567 159.194 27.7576 159.194 28.0254V29.8335C159.194 30.1014 159.427 30.3023 159.66 30.3358C160.857 30.6036 163.119 31.0054 165.348 31.0054C170.437 31.0724 172 28.3268 172 25.7821Z" fill="#F2F2F2"/>
<path d="M122.772 15.804H117.749V30.3357C117.749 30.6035 117.516 30.8379 117.25 30.8379H114.755C114.489 30.8379 114.256 30.6035 114.256 30.3357V15.804H109.234C108.968 15.804 108.735 15.6366 108.735 15.3353V13.3263C108.735 13.0584 108.968 12.8575 109.234 12.8575H122.772C123.038 12.8575 123.271 13.0584 123.271 13.3263V15.3353C123.271 15.6366 123.038 15.804 122.772 15.804Z" fill="#F2F2F2"/>
<path d="M106.539 23.9068V13.3596C106.539 13.0918 106.307 12.8909 106.041 12.8909H103.546C103.28 12.8909 103.047 13.0918 103.047 13.3596V23.8733C103.047 26.7528 101.716 28.1256 99.0222 28.1256C96.3279 28.1256 94.9974 26.7528 94.9974 23.8733V13.3596C94.9974 13.0918 94.7646 12.8909 94.4985 12.8909H92.0038C91.7377 12.8909 91.5049 13.0918 91.5049 13.3596V23.8733C91.5049 29.2641 94.9974 31.0387 99.0222 31.0387C103.047 31.0387 106.539 29.2975 106.539 23.9068Z" fill="#F2F2F2"/>
<path d="M129.058 23.0363H137.108C137.374 23.0363 137.607 22.8019 137.607 22.5341V20.6925C137.607 20.4246 137.374 20.1903 137.108 20.1903H129.058V17.8799C129.058 15.7705 129.125 15.7035 131.054 15.7035H137.407C137.673 15.7035 137.906 15.4692 137.906 15.2013V13.5941C137.906 13.2258 137.773 13.1253 137.407 13.0584C136.609 12.9244 134.979 12.6901 131.985 12.6901C127.827 12.6901 125.599 12.6566 125.599 17.8799V25.8824C125.599 31.1057 127.827 31.0722 131.985 31.0722C134.979 31.0722 136.609 30.8379 137.407 30.7039C137.773 30.6704 137.906 30.5365 137.906 30.1682V28.561C137.906 28.2932 137.673 28.0588 137.407 28.0588H131.054C129.158 28.0588 129.058 27.9918 129.058 25.8824V23.0363Z" fill="#F2F2F2"/>
<path d="M79.3974 23.0363H87.447C87.7131 23.0363 87.9459 22.8019 87.9459 22.5341V20.6925C87.9459 20.4246 87.7131 20.1903 87.447 20.1903H79.3974V17.8799C79.3974 15.7705 79.464 15.7035 81.3932 15.7035H87.7463C88.0124 15.7035 88.2452 15.4692 88.2452 15.2013V13.5941C88.2452 13.2258 88.1122 13.1253 87.7463 13.0584C86.948 12.9244 85.3182 12.6901 82.3245 12.6901C78.1667 12.6901 75.9382 12.6566 75.9382 17.8799V25.8824C75.9382 31.1057 78.1667 31.0722 82.3245 31.0722C85.3182 31.0722 86.948 30.8379 87.7463 30.7039C88.1122 30.6704 88.2452 30.5365 88.2452 30.1682V28.561C88.2452 28.2932 88.0124 28.0588 87.7463 28.0588H81.3932C79.4972 28.0588 79.3974 27.9918 79.3974 25.8824V23.0363Z" fill="#F2F2F2"/>
<path d="M156.599 30.3356L152.674 23.572C154.737 22.7684 156.067 21.2952 156.067 18.6166V18.4157C156.067 14.0963 152.508 12.6901 148.616 12.6901C146.787 12.6901 143.96 12.824 142.662 13.0249C142.164 13.0919 141.864 13.2928 141.864 13.795V30.3691C141.864 30.637 142.097 30.8713 142.363 30.8713H144.891C145.157 30.8713 145.357 30.637 145.357 30.3691V24.1078C145.922 24.1413 147.951 24.2082 148.616 24.2082H149.182L152.808 30.3356C152.941 30.57 153.04 30.8379 153.306 30.8379H156.367C156.566 30.8379 156.666 30.7039 156.666 30.5365C156.666 30.4695 156.633 30.4026 156.599 30.3356ZM152.575 18.6166C152.575 20.8264 151.178 21.3287 148.583 21.3287C148.151 21.3287 145.723 21.2617 145.323 21.2617V15.804C145.756 15.737 148.051 15.7035 148.583 15.7035C151.111 15.7035 152.575 16.5071 152.575 18.4157V18.6166Z" fill="#F2F2F2"/>
<path d="M73.2106 30.3356L69.2524 23.572C71.3147 22.7684 72.6452 21.2952 72.6452 18.6166V18.4157C72.6452 14.0963 69.0861 12.6901 65.1944 12.6901C63.3649 12.6901 60.5376 12.824 59.2404 13.0249C58.7415 13.0919 58.4421 13.2928 58.4421 13.795V30.3691C58.4421 30.637 58.6749 30.8713 58.941 30.8713H61.469C61.7351 30.8713 61.9347 30.637 61.9347 30.3691V24.1078C62.5001 24.1413 64.5291 24.2082 65.1944 24.2082H65.7598L69.3854 30.3356C69.5185 30.57 69.6183 30.8379 69.8844 30.8379H72.9445C73.1441 30.8379 73.2439 30.7039 73.2439 30.5365C73.2439 30.4695 73.2439 30.4026 73.2106 30.3356ZM69.1859 18.6166C69.1859 20.8264 67.7888 21.3287 65.2276 21.3287C64.7952 21.3287 62.3671 21.2617 61.9679 21.2617V15.804C62.4003 15.737 64.6954 15.7035 65.2276 15.7035C67.7556 15.7035 69.1859 16.5071 69.1859 18.4157V18.6166Z" fill="#F2F2F2"/>
</svg>
