<svg width="34" height="22" viewBox="0 0 34 22" fill="none" xmlns="http://www.w3.org/2000/svg">
<rect width="34" height="22" rx="11" fill="white"/>
<path d="M8.90039 11C8.90039 10.9086 8.91868 10.8176 8.95508 10.7334C8.99141 10.6495 9.04477 10.5736 9.11133 10.5098L15.2646 4.60156C15.3992 4.47242 15.581 4.40048 15.7695 4.40039C15.9582 4.40039 16.1398 4.47234 16.2744 4.60156C16.4091 4.73092 16.4863 4.90704 16.4863 5.0918C16.4863 5.27648 16.4091 5.45272 16.2744 5.58203L11.3496 10.3096L24.3848 10.3096C24.573 10.3096 24.7543 10.3809 24.8887 10.5098C25.0232 10.639 25.0996 10.8154 25.0996 11C25.0996 11.1846 25.0232 11.361 24.8887 11.4902C24.7543 11.6191 24.573 11.6904 24.3848 11.6904L11.3496 11.6904L16.2744 16.418C16.4091 16.5473 16.4863 16.7235 16.4863 16.9082C16.4863 17.093 16.4091 17.2691 16.2744 17.3984C16.1398 17.5277 15.9582 17.5996 15.7695 17.5996C15.581 17.5995 15.3992 17.5276 15.2646 17.3984L9.11133 11.4902C9.04477 11.4264 8.99141 11.3505 8.95508 11.2666C8.91868 11.1824 8.90039 11.0914 8.90039 11Z" fill="#04033A" stroke="#04033A" stroke-width="0.2"/>
</svg>
