<svg width="17" height="14" viewBox="0 0 17 14" fill="none" xmlns="http://www.w3.org/2000/svg">
<path d="M0.100586 6.7002C0.100586 6.60875 0.118874 6.51782 0.155274 6.43359C0.19161 6.34965 0.244961 6.27379 0.311524 6.20996L6.46484 0.301758C6.59935 0.172612 6.7812 0.100671 6.96973 0.100586C7.15837 0.100586 7.34003 0.172536 7.47461 0.301758C7.60932 0.431112 7.68652 0.607239 7.68652 0.791992C7.68647 0.976678 7.60928 1.15292 7.47461 1.28223L2.5498 6.00977L15.585 6.00977C15.7732 6.00979 15.9545 6.08111 16.0889 6.20996C16.2234 6.33918 16.2998 6.51563 16.2998 6.7002C16.2998 6.88476 16.2234 7.06121 16.0889 7.19043C15.9545 7.31928 15.7732 7.3906 15.585 7.39063L2.5498 7.39063L7.47461 12.1182C7.60928 12.2475 7.68647 12.4237 7.68652 12.6084C7.68652 12.7932 7.60932 12.9693 7.47461 13.0986C7.34003 13.2279 7.15837 13.2998 6.96973 13.2998C6.7812 13.2997 6.59935 13.2278 6.46484 13.0986L0.311524 7.19043C0.244961 7.1266 0.19161 7.05074 0.155274 6.9668C0.118874 6.88257 0.100586 6.79164 0.100586 6.7002Z" fill="#F2F2F2" stroke="#F2F2F2" stroke-width="0.2"/>
</svg>
