<svg width="22" height="22" viewBox="0 0 22 22" fill="none" xmlns="http://www.w3.org/2000/svg">
<path d="M6.92036 15.469L12.4024 13.895C12.7642 13.7864 13.0765 13.6008 13.3392 13.3381C13.6019 13.0754 13.7872 12.7635 13.895 12.4024L15.469 6.92036C15.5233 6.72134 15.4737 6.54476 15.3203 6.39061C15.1669 6.23647 14.9903 6.18689 14.7906 6.24189L9.30857 7.81594C8.94672 7.92449 8.6348 8.11012 8.37282 8.37282C8.11085 8.63553 7.92522 8.94744 7.81594 9.30856L6.2419 14.7906C6.18762 14.9896 6.23755 15.1662 6.3917 15.3203C6.54585 15.4745 6.72207 15.524 6.92036 15.469ZM10.8555 12.4838C10.4032 12.4838 10.0189 12.3257 9.70262 12.0094C9.38636 11.6931 9.22787 11.3085 9.22715 10.8555C9.22643 10.4024 9.38492 10.0181 9.70262 9.70262C10.0203 9.38708 10.4046 9.2286 10.8555 9.22715C11.3063 9.2257 11.691 9.38419 12.0094 9.70262C12.3278 10.021 12.486 10.4053 12.4838 10.8555C12.4816 11.3056 12.3235 11.6903 12.0094 12.0094C11.6953 12.3286 11.3107 12.4867 10.8555 12.4838ZM10.8555 21.7109C9.3538 21.7109 7.94259 21.4258 6.62184 20.8555C5.30109 20.2853 4.15222 19.512 3.17523 18.5357C2.19823 17.5594 1.42496 16.4106 0.855412 15.0891C0.285862 13.7676 0.000725072 12.3564 1.37411e-06 10.8555C-0.000722324 9.35452 0.284415 7.94331 0.855412 6.62184C1.42641 5.30036 2.19968 4.15149 3.17523 3.17522C4.15077 2.19896 5.29964 1.42569 6.62184 0.855411C7.94403 0.285137 9.35524 0 10.8555 0C12.3557 0 13.7669 0.285137 15.0891 0.855411C16.4113 1.42569 17.5602 2.19896 18.5357 3.17522C19.5113 4.15149 20.2849 5.30036 20.8566 6.62184C21.4283 7.94331 21.7131 9.35452 21.7109 10.8555C21.7088 12.3564 21.4236 13.7676 20.8555 15.0891C20.2874 16.4106 19.5142 17.5594 18.5357 18.5357C17.5573 19.512 16.4084 20.2856 15.0891 20.8566C13.7698 21.4276 12.3586 21.7124 10.8555 21.7109Z" fill="#04033A"/>
</svg>
