<svg width="375" height="114" viewBox="0 0 375 114" fill="none" xmlns="http://www.w3.org/2000/svg">
<path d="M370.219 62.5861L291.87 62.5861C275.511 62.5861 262.25 49.1304 262.25 32.7719C262.25 16.6268 249.162 3.34668 233.017 3.34668C216.872 3.34668 203.783 16.4348 203.783 32.5799L203.783 79.6529C203.783 95.7354 190.746 108.773 174.663 108.773C158.581 108.773 145.544 95.7354 145.544 79.6529L145.544 32.3533C145.544 16.3334 132.557 3.34668 116.537 3.34668C100.517 3.34668 87.5302 16.3334 87.5302 32.3533L87.5302 72.3821V79.5582C87.5302 95.693 74.4503 108.773 58.3156 108.773C42.1808 108.773 29.1009 95.693 29.1009 79.5583L29.1009 32.4476C29.1009 16.3756 16.072 3.34668 0 3.34668" stroke="#60E2B7" stroke-width="1.5"/>
<circle cx="117.254" cy="3.8177" r="3.8177" fill="#60E2B7"/>
<circle cx="59.3846" cy="109.507" r="3.8177" fill="#60E2B7"/>
<circle cx="176.328" cy="109.507" r="3.8177" fill="#60E2B7"/>
<circle cx="233.793" cy="3.8177" r="3.8177" fill="#60E2B7"/>
<circle cx="370.717" cy="62.8919" r="3.8177" fill="#60E2B7"/>
</svg>
