<svg width="1755" height="330" viewBox="0 0 1755 330" fill="none" xmlns="http://www.w3.org/2000/svg">
<path d="M725.75 116.731V250.256C725.75 290.431 693.181 323 653.006 323C612.83 323 580.261 290.431 580.261 250.256V80.4624C580.261 40.4425 547.819 8 507.799 8C467.779 8 435.337 40.4425 435.337 80.4624L435.337 250.82C435.337 290.684 403.02 323 363.156 323C323.292 323 290.976 290.684 290.976 250.82L290.976 116.731V80.6979C290.976 40.548 258.428 8 218.278 8C178.128 8 145.58 40.548 145.58 80.6979L145.58 250.585C145.58 290.579 113.159 323 73.165 323C33.1713 323 0.75 290.579 0.75 250.585L0.75 116.731" stroke="#60E2B7" stroke-width="1.5"/>
<path d="M725.75 213.269V79.415C725.75 39.4213 758.171 7 798.165 7C838.159 7 870.58 39.4213 870.58 79.415V249.302C870.58 289.452 903.128 322 943.278 322C983.428 322 1015.98 289.452 1015.98 249.302V213.269V79.1804C1015.98 39.3163 1048.29 7 1088.16 7C1128.02 7 1160.34 39.3163 1160.34 79.1804V249.538C1160.34 289.557 1192.78 322 1232.8 322C1272.82 322 1305.26 289.557 1305.26 249.538V79.7443C1305.26 39.5687 1337.83 7 1378.01 7C1418.18 7 1450.75 39.5687 1450.75 79.7443L1450.75 95.5C1450.75 144.377 1490.37 184 1539.25 184L1748.25 184" stroke="#60E2B7" stroke-width="1.5"/>
<circle cx="7" cy="7" r="7" transform="matrix(-1 0 0 1 1754.75 177)" fill="#60E2B7"/>
<circle cx="7" cy="7" r="7" transform="matrix(-1 0 0 1 1382.75 0)" fill="#60E2B7"/>
<circle cx="7" cy="7" r="7" transform="matrix(-1 0 0 1 1241.75 315)" fill="#60E2B7"/>
<circle cx="7" cy="7" r="7" transform="matrix(-1 0 0 1 1091.75 1)" fill="#60E2B7"/>
<circle cx="7" cy="7" r="7" transform="matrix(-1 0 0 1 945.75 315)" fill="#60E2B7"/>
<circle cx="7" cy="7" r="7" transform="matrix(-1 0 0 1 804.75 0)" fill="#60E2B7"/>
<circle cx="7" cy="7" r="7" transform="matrix(-1 0 0 1 660.75 315)" fill="#60E2B7"/>
<circle cx="7" cy="7" r="7" transform="matrix(-1 0 0 1 514.75 1)" fill="#60E2B7"/>
<circle cx="7" cy="7" r="7" transform="matrix(-1 0 0 1 370.75 316)" fill="#60E2B7"/>
<circle cx="7" cy="7" r="7" transform="matrix(-1 0 0 1 77.75 316)" fill="#60E2B7"/>
<circle cx="7" cy="7" r="7" transform="matrix(-1 0 0 1 227.75 1)" fill="#60E2B7"/>
</svg>
