<svg width="25" height="15" viewBox="0 0 25 15" fill="none" xmlns="http://www.w3.org/2000/svg">
<path d="M1 8.5C5.5 -1.5 19 -1.5 23.5 8.5" stroke="#04033A" stroke-width="2" stroke-linecap="round" stroke-linejoin="round"/>
<path d="M12.249 13.5C11.7566 13.5 11.2689 13.403 10.814 13.2145C10.359 13.0261 9.94559 12.7499 9.59737 12.4017C9.24915 12.0534 8.97293 11.64 8.78447 11.1851C8.59602 10.7301 8.49902 10.2425 8.49902 9.75C8.49902 9.25754 8.59602 8.76991 8.78447 8.31494C8.97293 7.85997 9.24915 7.44657 9.59737 7.09835C9.94559 6.75013 10.359 6.47391 10.814 6.28545C11.2689 6.097 11.7566 6 12.249 6C13.2436 6 14.1974 6.39509 14.9007 7.09835C15.6039 7.80161 15.999 8.75544 15.999 9.75C15.999 10.7446 15.6039 11.6984 14.9007 12.4017C14.1974 13.1049 13.2436 13.5 12.249 13.5Z" fill="#04033A" stroke="#04033A" stroke-width="2" stroke-linecap="round" stroke-linejoin="round"/>
</svg>
