<svg width="17" height="19" viewBox="0 0 17 19" fill="none" xmlns="http://www.w3.org/2000/svg">
<path d="M15.8333 6.33333H12.5C11.1167 6.33333 10 5.2725 10 3.95833V0.791667C10 0.348333 9.63333 0 9.16667 0H1.66667C0.75 0 0 0.7125 0 1.58333V17.4167C0 18.2875 0.75 19 1.66667 19H15C15.9167 19 16.6667 18.2875 16.6667 17.4167V7.125C16.6667 6.68167 16.3 6.33333 15.8333 6.33333ZM12.5 15.8333H4.16667C3.7 15.8333 3.33333 15.485 3.33333 15.0417C3.33333 14.5983 3.7 14.25 4.16667 14.25H12.5C12.9667 14.25 13.3333 14.5983 13.3333 15.0417C13.3333 15.485 12.9667 15.8333 12.5 15.8333ZM13.3333 11.875C13.3333 12.3183 12.9667 12.6667 12.5 12.6667H4.16667C3.7 12.6667 3.33333 12.3183 3.33333 11.875V8.70833C3.33333 8.265 3.7 7.91667 4.16667 7.91667H12.5C12.9667 7.91667 13.3333 8.265 13.3333 8.70833V11.875ZM11.6667 0.791667V3.16667C11.6667 4.0375 12.4167 4.75 13.3333 4.75H15.8333C16.5833 4.75 16.95 3.895 16.4167 3.40417L13.0833 0.2375C12.5667 -0.269167 11.6667 0.095 11.6667 0.791667Z" fill="#04033A"/>
</svg>
