<svg width="92" height="92" viewBox="0 0 92 92" fill="none" xmlns="http://www.w3.org/2000/svg">
<g clip-path="url(#clip0_139_1248)">
<path fill-rule="evenodd" clip-rule="evenodd" d="M45.84 0C71.156 0 91.68 20.523 91.68 45.84C91.68 71.157 71.157 91.68 45.84 91.68C20.523 91.68 0 71.157 0 45.84C0 20.523 20.523 0 45.84 0ZM47.7619 4.0195V22.9065C53.1291 22.7698 58.2189 22.0745 62.8399 20.9182C59.9337 13.2385 54.7657 5.3125 47.7619 4.0195ZM47.7619 26.7425V43.9185H67.0279C66.8638 36.8716 65.8131 30.2815 64.0787 24.5475C59.0514 25.8327 53.5429 26.6019 47.7619 26.7425ZM47.7619 47.7625V64.9385C53.5431 65.0791 59.0549 65.8487 64.0739 67.1338C65.8083 61.3994 66.863 54.8098 67.0231 47.7628L47.7619 47.7625ZM47.7619 68.7785V87.6655C54.7658 86.3686 59.9379 78.4467 62.8399 70.7705C58.2188 69.6103 53.129 68.9152 47.7619 68.7785ZM43.9181 87.6615V68.7785C38.5509 68.9152 33.4611 69.6105 28.8401 70.7707C31.7424 78.4426 36.9143 86.3685 43.9181 87.6615ZM43.9181 64.9385V47.7625H24.6561C24.8202 54.8094 25.8709 61.3995 27.6053 67.1335C32.6287 65.8483 38.1371 65.0791 43.9181 64.9385ZM43.9181 43.9185V26.7425C38.1369 26.6019 32.6251 25.8323 27.6061 24.5472C25.8717 30.2816 24.817 36.8712 24.6569 43.9182L43.9181 43.9185ZM43.9181 22.9025V4.0195C36.9142 5.3125 31.7461 13.2383 28.8401 20.9105C33.4612 22.0707 38.551 22.7658 43.9181 22.9025ZM3.8831 43.9185H20.8171C20.9812 36.5201 22.0944 29.5665 23.9265 23.4845C20.1023 22.2501 16.6296 20.7033 13.6145 18.9025C7.8957 25.7384 4.3128 34.4185 3.8831 43.9185ZM70.8631 43.9185H87.7971C87.3674 34.4146 83.7854 25.7345 78.0666 18.9025C75.051 20.7033 71.5783 22.2502 67.7546 23.4845C69.5905 29.5704 70.699 36.5195 70.8631 43.9185ZM87.7971 47.7623H70.8631C70.699 55.1607 69.5858 62.1143 67.7537 68.1963C71.5779 69.4307 75.0506 70.9775 78.0657 72.7783C83.7845 65.9424 87.3674 57.2623 87.7971 47.7623ZM20.8171 47.7623H3.8831C4.31279 57.2662 7.8948 65.9463 13.6136 72.7783C16.6292 70.9775 20.1019 69.4267 23.9256 68.1963C22.0897 62.1104 20.9812 55.1613 20.8171 47.7623ZM75.4191 75.6573C72.8019 74.169 69.8136 72.8761 66.5363 71.8214C64.5597 77.1339 61.7472 82.2784 57.9738 86.0594C64.6379 84.0516 70.6071 80.4343 75.4191 75.6573ZM25.1461 71.8214C21.8688 72.8761 18.8805 74.1691 16.2633 75.6573C21.0797 80.4346 27.0443 84.0518 33.7083 86.0593C29.9349 82.2781 27.1227 77.1336 25.1461 71.8214ZM16.2633 16.0244C18.8805 17.5127 21.8688 18.8056 25.1461 19.8603C27.1227 14.5478 29.9352 9.4033 33.7086 5.6223C27.0445 7.6301 21.0753 11.2474 16.2633 16.0244ZM66.5363 19.8603C69.8136 18.8056 72.8019 17.5126 75.4191 16.0244C70.6027 11.2471 64.6381 7.6299 57.9741 5.6224C61.7475 9.4036 64.5597 14.5481 66.5363 19.8603Z" fill="#5a5a7d"/>
</g>
<defs>
<clipPath id="clip0_139_1248">
<rect width="92" height="92" fill="white"/>
</clipPath>
</defs>
</svg>
