<svg width="18" height="19" viewBox="0 0 18 19" fill="none" xmlns="http://www.w3.org/2000/svg">
<rect x="0.5" y="0.5" width="16.0822" height="18" rx="4.5" stroke="#F2F2F2"/>
<path d="M8.24205 14.798C4.84841 14.798 4 11.7384 4 10.2088V8.31918C4 8.1394 4.09981 7.77928 4.49907 7.77928C4.89832 7.77928 4.99813 8.1394 4.99813 8.31918V9.39898C4.99813 9.66893 5.14785 10.2088 5.74673 10.2088C6.34561 10.2088 6.49533 9.66893 6.49533 9.39898V4.5399C6.49533 4.36011 6.59514 4 6.99439 4C7.39364 4 7.49346 4.36011 7.49346 4.5399V8.31918C7.74299 8.58913 7.89271 8.96706 8.49159 8.31918V7.23939C8.49159 7.0596 8.5914 6.69949 8.99065 6.69949C9.3899 6.69949 9.48972 7.0596 9.48972 7.23939V7.77928H9.98878C9.98878 7.5995 10.0886 7.23939 10.4878 7.23939C10.8871 7.23939 10.9869 7.5995 10.9869 7.77928V8.31918H11.486C11.486 8.1394 11.5858 7.77928 11.985 7.77928C12.3843 7.77928 12.4841 8.1394 12.4841 8.31918V10.2088C12.4841 11.7384 11.6357 14.798 8.24205 14.798Z" fill="#F2F2F2"/>
</svg>
