<svg width="26" height="28" viewBox="0 0 26 28" fill="none" xmlns="http://www.w3.org/2000/svg">
<rect x="0.5" y="0.5" width="24.1738" height="27" rx="4.5" stroke="#F2F2F2"/>
<path d="M14.3667 20.9991V17.5628L15.9989 20.328H16.801L18.4436 17.4671L18.4614 20.9976H20.1217L20.104 14.3512H18.6165L16.4273 18.1778L14.1835 14.3512H12.696V19.2483H9.20255C7.72391 19.2483 6.52594 18.0153 6.52594 16.4953C6.52594 14.9753 7.72391 13.7438 9.20255 13.7438C9.4256 13.7438 9.64126 13.7727 9.84806 13.8243C9.45219 13.2852 9.21584 12.6125 9.21584 11.8852C9.21584 10.107 10.6177 8.66598 12.3474 8.66598C14.0772 8.66598 15.479 10.107 15.479 11.8852C15.479 12.0962 15.4583 12.3028 15.4199 12.5032C15.7626 12.1858 16.2161 11.993 16.7139 11.993C17.5352 11.993 18.2368 12.5199 18.5175 13.2609H20.0449C19.7362 11.747 18.4761 10.5929 16.9369 10.4912C16.3549 8.45491 14.5218 6.9668 12.3504 6.9668C9.70773 6.9668 7.56438 9.1686 7.56438 11.8867C7.56438 12.0477 7.57176 12.2056 7.58654 12.362C5.99711 13.0332 4.87891 14.6382 4.87891 16.512C4.87891 18.9902 6.83319 20.9976 9.24243 20.9976H14.3652L14.3667 20.9991Z" fill="#F2F2F2"/>
</svg>
