<svg width="26" height="28" viewBox="0 0 26 28" fill="none" xmlns="http://www.w3.org/2000/svg">
<rect x="0.5" y="0.5" width="24.1738" height="27" rx="4.5" stroke="#F2F2F2"/>
<path d="M18.9866 13.9364C18.9539 14.1336 18.8657 14.3181 18.7316 14.4697C18.5934 14.6188 18.4176 14.7306 18.2215 14.7942L14.6513 15.4511L16.4364 18.7202C16.5065 18.826 16.5559 18.9443 16.5798 19.0679C16.6077 19.2109 16.6077 19.3577 16.5798 19.5007C16.549 19.6434 16.4864 19.7779 16.3965 19.8948C16.3073 20.0162 16.1933 20.119 16.0618 20.1962L14.715 20.8763C14.5557 20.9587 14.3776 21.0013 14.197 21C14.0854 21 13.9765 20.9845 13.8703 20.9536C13.5904 20.8673 13.356 20.6789 13.2168 20.4281L11.4237 17.1281L8.86554 19.5084C8.70227 19.6554 8.49736 19.7516 8.27722 19.7847C8.05707 19.8177 7.83176 19.7861 7.63029 19.6939C7.43476 19.5992 7.27144 19.4519 7.15981 19.2697C7.04819 19.0874 6.99296 18.8779 7.00072 18.6661V7.0815C7.00349 6.88925 7.05552 6.70069 7.15214 6.5328C7.25358 6.36213 7.40278 6.2228 7.58248 6.13093C7.75891 6.03771 7.95817 5.99278 8.15891 6.00094C8.35966 6.00911 8.55433 6.07007 8.72209 6.1773L18.5244 12.8699C18.6917 12.9882 18.824 13.1481 18.9069 13.3336C18.9922 13.5229 19.0192 13.7316 18.9866 13.9364Z" fill="#F2F2F2"/>
</svg>
