<svg width="20" height="19" viewBox="0 0 20 19" fill="none" xmlns="http://www.w3.org/2000/svg">
<path fill-rule="evenodd" clip-rule="evenodd" d="M19.7906 0.198604C19.8885 0.291544 19.9559 0.409515 19.9845 0.53817C20.0132 0.666824 20.0019 0.800618 19.952 0.923277L12.81 18.5651C12.7595 18.69 12.6712 18.7978 12.5564 18.8751C12.4415 18.9525 12.3051 18.9958 12.1644 18.9997C12.0237 19.0036 11.8849 18.9679 11.7654 18.8971C11.646 18.8263 11.5512 18.7236 11.4931 18.6018L8.82004 13.015C8.63299 12.624 8.71906 12.1571 9.03322 11.8585L12.9 8.18357C13.0893 7.99063 13.1923 7.73544 13.1874 7.47176C13.1825 7.20808 13.0701 6.9565 12.8738 6.77002C12.6775 6.58355 12.4127 6.47673 12.1352 6.47208C11.8576 6.46742 11.589 6.5653 11.3859 6.74508L7.46956 10.4647C7.17918 10.7405 6.75227 10.8165 6.38459 10.6577L0.420229 8.08315C0.291627 8.02797 0.183112 7.93783 0.10838 7.82411C0.0336489 7.71039 -0.0039502 7.57819 0.000328507 7.44419C0.00460722 7.31018 0.050572 7.18039 0.132422 7.07118C0.214271 6.96198 0.328337 6.87825 0.460223 6.83058L19.0292 0.0452562C19.1581 -0.00186852 19.2987 -0.0124639 19.4338 0.0147537C19.5689 0.0419713 19.6929 0.105834 19.7906 0.198604Z" fill="#04033A"/>
</svg>
