<svg width="18" height="18" viewBox="0 0 18 18" fill="none" xmlns="http://www.w3.org/2000/svg">
<path d="M2.70235 3.40447L2.70235 14.766L1.54192 13.5351C1.37253 13.3568 1.14279 13.2567 0.903236 13.2567C0.663683 13.2567 0.433941 13.3568 0.264552 13.5351C0.095162 13.7134 0 13.9552 0 14.2073C0 14.4595 0.095162 14.7013 0.264552 14.8796L2.96322 17.7199C3.04684 17.8087 3.14633 17.8791 3.25595 17.9272C3.36557 17.9753 3.48315 18 3.6019 18C3.72065 18 3.83823 17.9753 3.94785 17.9272C4.05747 17.8791 4.15696 17.8087 4.24059 17.7199L6.93925 14.8796C7.02357 14.7916 7.09049 14.6868 7.13616 14.5715C7.18183 14.4561 7.20534 14.3323 7.20534 14.2073C7.20534 14.0824 7.18183 13.9586 7.13616 13.8432C7.09049 13.7279 7.02357 13.6231 6.93925 13.5351C6.85563 13.4464 6.75613 13.3759 6.64652 13.3279C6.5369 13.2798 6.41932 13.2551 6.30057 13.2551C6.18182 13.2551 6.06424 13.2798 5.95462 13.3279C5.845 13.3759 5.74551 13.4464 5.66188 13.5351L4.50146 14.766L4.50146 3.40447C4.49788 3.2105 4.53064 3.01768 4.59788 2.83704C4.66512 2.6564 4.76551 2.49147 4.89332 2.35168C5.02113 2.21188 5.17385 2.09996 5.34277 2.0223C5.51168 1.94464 5.69348 1.90277 5.87778 1.89907L8.09968 1.89907C8.33825 1.89907 8.56706 1.79932 8.73576 1.62176C8.90446 1.4442 8.99923 1.20338 8.99923 0.95228C8.99923 0.701176 8.90446 0.460356 8.73576 0.282798C8.56706 0.105241 8.33825 0.00548981 8.09968 0.00548981L5.87778 0.00548981C5.45722 0.00920416 5.04149 0.100069 4.6543 0.272897C4.26712 0.445725 3.91606 0.69713 3.6212 1.01276C3.32633 1.32839 3.09341 1.70205 2.93576 2.11242C2.7781 2.5228 2.69879 2.96183 2.70235 3.40447ZM11.0592 3.12043C10.8898 3.29871 10.7947 3.54052 10.7947 3.79265C10.7947 4.04478 10.8898 4.28659 11.0592 4.46487C11.2286 4.64316 11.4583 4.74332 11.6979 4.74332C11.9375 4.74332 12.1672 4.64316 12.3366 4.46487L13.497 3.23405L13.497 14.5955C13.5006 14.7895 13.4678 14.9823 13.4006 15.163C13.3333 15.3436 13.233 15.5085 13.1052 15.6483C12.9773 15.7881 12.8246 15.9 12.6557 15.9777C12.4868 16.0554 12.305 16.0972 12.1207 16.1009L9.89879 16.1009C9.66021 16.1009 9.43141 16.2007 9.26271 16.3782C9.09401 16.5558 8.99923 16.7966 8.99923 17.0477C8.99923 17.2988 9.09401 17.5396 9.26271 17.7172C9.43141 17.8948 9.66021 17.9945 9.89879 17.9945L12.1207 17.9945C12.5412 17.9908 12.957 17.8999 13.3442 17.7271C13.7313 17.5543 14.0824 17.3029 14.3773 16.9872C14.6721 16.6716 14.9051 16.2979 15.0627 15.8876C15.2204 15.4772 15.2997 15.0382 15.2961 14.5955L15.2961 3.23405L16.4565 4.46487C16.5402 4.55361 16.6397 4.62405 16.7493 4.67212C16.8589 4.72018 16.9765 4.74493 17.0952 4.74493C17.214 4.74493 17.3316 4.72018 17.4412 4.67212C17.5508 4.62405 17.6503 4.55361 17.7339 4.46487C17.8182 4.37686 17.8851 4.27214 17.9308 4.15677C17.9765 4.04139 18 3.91764 18 3.79265C18 3.66766 17.9765 3.54391 17.9308 3.42854C17.8851 3.31316 17.8182 3.20845 17.7339 3.12043L15.0352 0.280059C14.9516 0.191318 14.8521 0.120882 14.7425 0.0728147C14.6329 0.0247474 14.5153 0 14.3966 0C14.2778 0 14.1602 0.0247474 14.0506 0.0728147C13.941 0.120882 13.8415 0.191318 13.7579 0.280059L11.0592 3.12043Z" fill="#04033A"/>
</svg>
