<svg width="33" height="33" viewBox="0 0 33 33" fill="none" xmlns="http://www.w3.org/2000/svg">
<rect width="33" height="33" rx="5" fill="#9494AA"/>
<path d="M19.6667 26C19.0861 26 18.5893 25.7935 18.1762 25.3804C17.7631 24.9673 17.5563 24.4701 17.5556 23.8889V19.6667C17.5556 19.0861 17.7624 18.5893 18.1762 18.1762C18.59 17.7631 19.0868 17.5563 19.6667 17.5556H23.8889C24.4694 17.5556 24.9666 17.7624 25.3804 18.1762C25.7942 18.59 26.0007 19.0868 26 19.6667V23.8889C26 24.4694 25.7935 24.9666 25.3804 25.3804C24.9673 25.7942 24.4701 26.0007 23.8889 26H19.6667ZM19.6667 15.4444C19.0861 15.4444 18.5893 15.2379 18.1762 14.8248C17.7631 14.4118 17.5563 13.9146 17.5556 13.3333V9.11111C17.5556 8.53056 17.7624 8.03374 18.1762 7.62067C18.59 7.20759 19.0868 7.0007 19.6667 7H23.8889C24.4694 7 24.9666 7.20689 25.3804 7.62067C25.7942 8.03444 26.0007 8.53126 26 9.11111V13.3333C26 13.9139 25.7935 14.4111 25.3804 14.8248C24.9673 15.2386 24.4701 15.4451 23.8889 15.4444H19.6667ZM9.11111 15.4444C8.53056 15.4444 8.03374 15.2379 7.62067 14.8248C7.20759 14.4118 7.0007 13.9146 7 13.3333V9.11111C7 8.53056 7.20689 8.03374 7.62067 7.62067C8.03444 7.20759 8.53126 7.0007 9.11111 7H13.3333C13.9139 7 14.4111 7.20689 14.8248 7.62067C15.2386 8.03444 15.4451 8.53126 15.4444 9.11111V13.3333C15.4444 13.9139 15.2379 14.4111 14.8248 14.8248C14.4118 15.2386 13.9146 15.4451 13.3333 15.4444H9.11111ZM9.11111 26C8.53056 26 8.03374 25.7935 7.62067 25.3804C7.20759 24.9673 7.0007 24.4701 7 23.8889V19.6667C7 19.0861 7.20689 18.5893 7.62067 18.1762C8.03444 17.7631 8.53126 17.5563 9.11111 17.5556H13.3333C13.9139 17.5556 14.4111 17.7624 14.8248 18.1762C15.2386 18.59 15.4451 19.0868 15.4444 19.6667V23.8889C15.4444 24.4694 15.2379 24.9666 14.8248 25.3804C14.4118 25.7942 13.9146 26.0007 13.3333 26H9.11111Z" fill="#04033A"/>
</svg>
