<svg width="33" height="33" viewBox="0 0 33 33" fill="none" xmlns="http://www.w3.org/2000/svg">
<rect width="32.0585" height="32.0585" rx="5" fill="#9494AA"/>
<path fill-rule="evenodd" clip-rule="evenodd" d="M7.03354 6.26186C7.03354 6.04323 7.1197 5.83355 7.27307 5.67895C7.42644 5.52435 7.63446 5.4375 7.85135 5.4375H12.7583C12.9752 5.4375 13.1832 5.52435 13.3366 5.67895C13.4899 5.83355 13.5761 6.04323 13.5761 6.26186V8.73495H18.483V6.26186C18.483 6.04323 18.5692 5.83355 18.7225 5.67895C18.8759 5.52435 19.0839 5.4375 19.3008 5.4375H24.2077C24.4246 5.4375 24.6327 5.52435 24.786 5.67895C24.9394 5.83355 25.0256 6.04323 25.0256 6.26186V8.73495C25.6763 8.73495 26.3003 8.9955 26.7604 9.4593C27.2205 9.92309 27.479 10.5521 27.479 11.208V23.5735C27.479 24.2294 27.2205 24.8584 26.7604 25.3222C26.3003 25.786 25.6763 26.0465 25.0256 26.0465H7.03354C6.38284 26.0465 5.75879 25.786 5.29868 25.3222C4.83857 24.8584 4.58008 24.2294 4.58008 23.5735V11.208C4.58008 10.5521 4.83857 9.92309 5.29868 9.4593C5.75879 8.9955 6.38284 8.73495 7.03354 8.73495V6.26186ZM17.5769 13.879C17.7463 13.6656 17.8246 13.3931 17.7947 13.1215C17.7648 12.8498 17.6291 12.6013 17.4174 12.4306C17.3126 12.346 17.1923 12.2831 17.0633 12.2454C16.9344 12.2077 16.7993 12.196 16.6659 12.211C16.3964 12.2411 16.1499 12.3779 15.9805 12.5913L12.9824 16.3685C12.8618 16.5201 12.7862 16.7029 12.7642 16.8959C12.7423 17.0889 12.7749 17.2842 12.8584 17.4593C12.9418 17.6344 13.0727 17.7822 13.2358 17.8856C13.399 17.989 13.5878 18.0438 13.7805 18.0436H16.3681L14.4299 20.9751C14.3554 21.0877 14.3036 21.2139 14.2774 21.3467C14.2513 21.4795 14.2514 21.6161 14.2777 21.7489C14.304 21.8816 14.3559 22.0078 14.4306 22.1203C14.5052 22.2328 14.6012 22.3294 14.7129 22.4045C14.8246 22.4796 14.9498 22.5319 15.0815 22.5582C15.2133 22.5845 15.3488 22.5844 15.4805 22.5579C15.6122 22.5315 15.7374 22.4791 15.849 22.4038C15.9606 22.3286 16.0564 22.2319 16.131 22.1193L19.1291 17.5853C19.2319 17.4301 19.2909 17.2497 19.2999 17.0633C19.3089 16.877 19.2675 16.6916 19.1802 16.5271C19.0929 16.3626 18.9629 16.225 18.8041 16.1292C18.6453 16.0333 18.4637 15.9827 18.2785 15.9827H15.9069L17.5769 13.879Z" fill="#04033A"/>
</svg>
