<svg width="33" height="33" viewBox="0 0 33 33" fill="none" xmlns="http://www.w3.org/2000/svg">
<rect width="32.0585" height="32.0585" rx="5" fill="#9494AA"/>
<path d="M6.2975 27.4771C5.82044 27.4771 5.41513 27.3103 5.08156 26.9767C4.748 26.6432 4.58084 26.2375 4.58008 25.7596V17.5733C4.58008 17.4397 4.58962 17.3061 4.6087 17.1725C4.62778 17.039 4.65641 16.9149 4.69457 16.8004L6.98447 10.3029C7.09896 9.95937 7.30429 9.68268 7.60045 9.47277C7.89661 9.26287 8.22559 9.15791 8.58739 9.15791H11.4498C11.7742 9.15791 12.0459 9.26783 12.265 9.48766C12.484 9.70749 12.5939 9.97922 12.5947 10.3029C12.5955 10.6265 12.4856 10.8986 12.265 11.1192C12.0444 11.3398 11.7726 11.4493 11.4498 11.4478H8.98812L7.78593 14.8826H14.1404C14.4457 14.8826 14.7369 14.9399 15.014 15.0544C15.2911 15.1689 15.5342 15.3311 15.7433 15.541L18.9205 18.7182C18.7297 18.8709 18.582 19.0617 18.4774 19.2907C18.3729 19.5197 18.3202 19.7678 18.3194 20.0349C18.3194 20.512 18.4866 20.9177 18.8209 21.252C19.1553 21.5863 19.5606 21.7531 20.0369 21.7523C20.4185 21.7523 20.762 21.6378 21.0673 21.4088C21.3726 21.1799 21.573 20.8841 21.6684 20.5215C21.8783 20.5597 22.0833 20.5833 22.2832 20.5925C22.4832 20.6017 22.6886 20.5971 22.8992 20.5788C23.0328 20.5597 23.1568 20.5406 23.2713 20.5215C23.3858 20.5024 23.5099 20.4738 23.6434 20.4356C24.0251 20.3211 24.3781 20.3498 24.7025 20.5215C25.0269 20.6933 25.1891 20.9604 25.1891 21.323V25.7596C25.1891 26.2367 25.0223 26.6424 24.6888 26.9767C24.3552 27.311 23.9495 27.4778 23.4717 27.4771C22.9939 27.4763 22.5886 27.3095 22.2558 26.9767C21.923 26.6439 21.7558 26.2382 21.7543 25.7596V25.1872H8.01492V25.7596C8.01492 26.2367 7.84814 26.6424 7.51458 26.9767C7.18102 27.311 6.77532 27.4778 6.2975 27.4771ZM9.73234 21.7523C10.2094 21.7523 10.6151 21.5855 10.9494 21.252C11.2837 20.9184 11.4505 20.5127 11.4498 20.0349C11.449 19.5571 11.2822 19.1518 10.9494 18.819C10.6166 18.4862 10.2109 18.319 9.73234 18.3175C9.25375 18.316 8.84844 18.4831 8.51641 18.819C8.18437 19.1548 8.01721 19.5601 8.01492 20.0349C8.01263 20.5097 8.17979 20.9154 8.51641 21.252C8.85302 21.5886 9.25833 21.7554 9.73234 21.7523ZM19.4644 10.3029C19.7888 10.3029 20.0609 10.1929 20.2807 9.97311C20.5006 9.75328 20.6101 9.48155 20.6093 9.15791C20.6086 8.83427 20.4987 8.56254 20.2796 8.34271C20.0605 8.12288 19.7888 8.01297 19.4644 8.01297C19.14 8.01297 18.8683 8.12288 18.6492 8.34271C18.4301 8.56254 18.3202 8.83427 18.3194 9.15791C18.3187 9.48155 18.4286 9.75367 18.6492 9.97426C18.8698 10.1949 19.1415 10.3044 19.4644 10.3029ZM21.2391 17.8023L15.3998 11.963C15.2472 11.8104 15.1231 11.6241 15.0277 11.4043C14.9323 11.1845 14.8846 10.9608 14.8846 10.7334V6.29555C14.8846 5.81848 15.0518 5.41317 15.3861 5.07961C15.7204 4.74605 16.1257 4.57889 16.602 4.57812H21.0387C21.2677 4.57812 21.4921 4.62583 21.7119 4.72124C21.9317 4.81666 22.1176 4.94069 22.2695 5.09335L28.1087 10.9326C28.4331 11.257 28.5953 11.6627 28.5953 12.1497C28.5953 12.6366 28.4331 13.042 28.1087 13.3656L23.6721 17.8023C23.3477 18.1267 22.9424 18.2889 22.4561 18.2889C21.9699 18.2889 21.5642 18.1267 21.2391 17.8023Z" fill="#04033A"/>
</svg>
