<svg width="33" height="33" viewBox="0 0 33 33" fill="none" xmlns="http://www.w3.org/2000/svg">
<rect width="32.0585" height="32.0585" rx="5" fill="#9494AA"/>
<path d="M16.4317 26.5007L15.1825 25.3765C13.3207 23.6812 11.7831 22.2179 10.5696 20.9866C9.35611 19.7552 8.38952 18.6533 7.66983 17.6807C6.94995 16.7082 6.44582 15.8234 6.15745 15.0264C5.86889 14.2293 5.72461 13.4203 5.72461 12.5994C5.72461 10.9696 6.27183 9.60739 7.36628 8.51276C8.46091 7.41832 9.81714 6.87109 11.435 6.87109C12.4225 6.87109 13.3446 7.0971 14.2012 7.54912C15.0577 8.00132 15.8013 8.64973 16.4317 9.49434C17.1336 8.61404 17.9039 7.95671 18.7426 7.52236C19.5813 7.08818 20.4766 6.87109 21.4285 6.87109C23.0463 6.87109 24.4026 7.41832 25.4972 8.51276C26.5916 9.60739 27.1389 10.9696 27.1389 12.5994C27.1389 13.4203 26.9946 14.2293 26.706 15.0264C26.4177 15.8234 25.9135 16.7082 25.1937 17.6807C24.474 18.6533 23.5074 19.7552 22.2939 20.9866C21.0804 22.2179 19.5428 23.6812 17.681 25.3765L16.4317 26.5007Z" fill="#04033A"/>
</svg>
