<svg width="33" height="33" viewBox="0 0 33 33" fill="none" xmlns="http://www.w3.org/2000/svg">
<rect width="32.0585" height="32.0585" rx="5" fill="#9494AA"/>
<path d="M10.373 27.9597C9.77121 27.9597 9.25736 27.7455 8.83146 27.317C8.40576 26.8884 8.1929 26.3733 8.1929 25.7717C8.1929 25.1699 8.40722 24.656 8.83585 24.2301C9.26429 23.8044 9.7794 23.5916 10.3812 23.5916C10.983 23.5916 11.4968 23.8059 11.9225 24.2345C12.3482 24.6629 12.561 25.1781 12.561 25.7799C12.561 26.3817 12.3468 26.8954 11.9184 27.3211C11.4897 27.7468 10.9746 27.9597 10.373 27.9597ZM22.0736 27.9597C21.4718 27.9597 20.9579 27.7455 20.532 27.317C20.1063 26.8884 19.8935 26.3733 19.8935 25.7717C19.8935 25.1699 20.1078 24.656 20.5364 24.2301C20.9649 23.8044 21.48 23.5916 22.0818 23.5916C22.6836 23.5916 23.1973 23.8059 23.623 24.2345C24.0487 24.6629 24.2616 25.1781 24.2616 25.7799C24.2616 26.3817 24.0474 26.8954 23.6189 27.3211C23.1903 27.7468 22.6752 27.9597 22.0736 27.9597ZM8.0759 6.89864H25.3161C25.7642 6.89864 26.1052 7.10184 26.339 7.50824C26.5727 7.91445 26.5758 8.32231 26.3484 8.73183L22.331 15.9666C22.1165 16.3437 21.835 16.6428 21.4865 16.8637C21.138 17.0847 20.7565 17.1952 20.3419 17.1952H11.5276L10.0065 20.0033H24.2616V21.9535H10.182C9.34346 21.9535 8.72918 21.6431 8.33916 21.0224C7.94914 20.4015 7.94592 19.7368 8.32951 19.0283L10.1039 15.7718L5.73578 6.52832H3.43457V4.57812H6.98394L8.0759 6.89864Z" fill="#04033A"/>
</svg>
