<svg width="33" height="33" viewBox="0 0 33 33" fill="none" xmlns="http://www.w3.org/2000/svg">
<rect width="32.0585" height="32.0585" rx="5" fill="#9494AA"/>
<path d="M6.47628 26.2069C5.96407 26.2069 5.51977 26.0188 5.14339 25.6426C4.7672 25.2662 4.5791 24.8219 4.5791 24.3097V19.1688H13.1351V21.0657H18.8263V19.1688H27.3441V24.3097C27.3441 24.8219 27.156 25.2662 26.7798 25.6426C26.4035 26.0188 25.9592 26.2069 25.4469 26.2069H6.47628ZM15.0319 19.1688V17.2716H16.9291V19.1688H15.0319ZM4.5791 17.2716V11.0303C4.5791 10.518 4.7672 10.0738 5.14339 9.69737C5.51977 9.32118 5.96407 9.13308 6.47628 9.13308H11.4086V6.47726C11.4086 5.96504 11.5967 5.52075 11.9729 5.14437C12.3493 4.76817 12.7936 4.58008 13.3058 4.58008H18.6174C19.1297 4.58008 19.574 4.76817 19.9503 5.14437C20.3265 5.52075 20.5146 5.96504 20.5146 6.47726V9.13308H25.4469C25.9592 9.13308 26.4035 9.32118 26.7798 9.69737C27.156 10.0738 27.3441 10.518 27.3441 11.0303V17.2716H18.8263V15.3744H13.1351V17.2716H4.5791ZM13.3058 9.13308H18.6174V6.47726H13.3058V9.13308Z" fill="#04033A"/>
</svg>
