<svg width="33" height="33" viewBox="0 0 33 33" fill="none" xmlns="http://www.w3.org/2000/svg">
<rect width="32.0585" height="32.0585" rx="5" fill="#9494AA"/>
<path fill-rule="evenodd" clip-rule="evenodd" d="M3.43457 15.117C3.43491 13.2717 3.8722 11.4528 4.71064 9.80907C5.54907 8.16534 6.76482 6.74354 8.25837 5.66008C9.75191 4.57661 11.4808 3.86227 13.3035 3.57554C15.1261 3.2888 16.9908 3.43783 18.7448 4.01041C20.4988 4.58298 22.0923 5.56284 23.3949 6.86977C24.6974 8.1767 25.672 9.77353 26.2387 11.5296C26.8055 13.2856 26.9484 15.1509 26.6557 16.9728C26.3631 18.7947 25.6431 20.5214 24.5549 22.0115L28.0746 25.5315C28.2463 25.6974 28.3832 25.8957 28.4775 26.1151C28.5717 26.3344 28.6213 26.5703 28.6233 26.809C28.6254 27.0477 28.5799 27.2845 28.4895 27.5054C28.3991 27.7263 28.2657 27.9271 28.0969 28.0959C27.9281 28.2647 27.7274 28.3982 27.5065 28.4886C27.2856 28.5789 27.0488 28.6244 26.8102 28.6224C26.5715 28.6203 26.3356 28.5707 26.1163 28.4765C25.8969 28.3822 25.6986 28.2453 25.5328 28.0736L22.013 24.5535C20.2708 25.8267 18.2102 26.5926 16.0594 26.7662C13.9087 26.9399 11.7519 26.5146 9.82801 25.5374C7.90417 24.5602 6.28846 23.0694 5.15997 21.2301C4.03148 19.3908 3.43428 17.2749 3.43457 15.117ZM13.9273 11.7372C13.9273 11.4226 14.1808 11.1673 14.4954 11.1673H15.7411C16.0557 11.1673 16.311 11.4226 16.311 11.7354V12.6307H13.9273V11.7372ZM18.2056 11.7372V12.6307H19.0326C19.4849 12.6307 19.9187 12.8101 20.2388 13.1296C20.559 13.4491 20.7393 13.8826 20.7403 14.335V18.3638C20.7393 18.8161 20.559 19.2496 20.2388 19.5691C19.9187 19.8886 19.4849 20.0681 19.0326 20.0681H11.2057C10.7534 20.0681 10.3196 19.8886 9.99941 19.5691C9.67925 19.2496 9.49891 18.8161 9.49796 18.3638V14.335C9.49891 13.8826 9.67925 13.4491 9.99941 13.1296C10.3196 12.8101 10.7534 12.6307 11.2057 12.6307H12.0308V11.7354C12.031 11.4119 12.095 11.0917 12.219 10.793C12.3429 10.4942 12.5245 10.2229 12.7534 9.99433C12.9823 9.76579 13.2539 9.58456 13.5528 9.46101C13.8516 9.33745 14.1719 9.27398 14.4954 9.27421H15.7411C16.0648 9.27374 16.3855 9.3371 16.6847 9.46066C16.9839 9.58422 17.2558 9.76557 17.4849 9.99432C17.7139 10.2231 17.8956 10.4948 18.0196 10.7938C18.1436 11.0929 18.2074 11.4134 18.2074 11.7372" fill="#04033A"/>
</svg>
