<svg width="33" height="33" viewBox="0 0 33 33" fill="none" xmlns="http://www.w3.org/2000/svg">
<rect width="32.0585" height="32.0585" rx="5" fill="#9494AA"/>
<path d="M6.97315 25.1547C6.17541 25.1547 5.55366 24.8802 5.10788 24.3313C4.66191 23.7821 4.49856 23.0601 4.61783 22.1652L5.91786 12.9303C6.07499 11.8768 6.55393 10.985 7.35468 10.2549C8.15542 9.52508 9.07703 9.16016 10.1195 9.16016H22.0083C23.0508 9.16016 23.9724 9.52508 24.7731 10.2549C25.5739 10.985 26.0527 11.8768 26.2097 12.9303L27.4911 22.1652C27.6103 23.0601 27.447 23.7821 27.001 24.3313C26.5552 24.8802 25.9335 25.1547 25.1357 25.1547C24.715 25.1547 24.3476 25.0833 24.0335 24.9405C23.7196 24.7977 23.4464 24.6089 23.2139 24.3741L20.4067 21.5368H11.7022L8.89493 24.3741C8.66243 24.6089 8.38924 24.7977 8.07535 24.9405C7.76127 25.0833 7.39387 25.1547 6.97315 25.1547ZM22.0835 18.2999C22.3913 18.2999 22.6567 18.1873 22.8796 17.962C23.1025 17.7366 23.2139 17.4684 23.2139 17.1574C23.2139 16.8465 23.1025 16.5783 22.8796 16.3529C22.6567 16.1276 22.3913 16.015 22.0835 16.015C21.7758 16.015 21.5105 16.1276 21.2876 16.3529C21.0646 16.5783 20.953 16.8465 20.953 17.1574C20.953 17.4684 21.0646 17.7366 21.2876 17.962C21.5105 18.1873 21.7758 18.2999 22.0835 18.2999ZM19.7284 14.682C20.0361 14.682 20.3015 14.5694 20.5246 14.3441C20.7475 14.1189 20.8589 13.8507 20.8589 13.5395C20.8589 13.2286 20.7475 12.9605 20.5246 12.7352C20.3015 12.5098 20.0361 12.3971 19.7284 12.3971C19.4208 12.3971 19.1554 12.5098 18.9323 12.7352C18.7094 12.9605 18.598 13.2286 18.598 13.5395C18.598 13.8507 18.7094 14.1189 18.9323 14.3441C19.1554 14.5694 19.4208 14.682 19.7284 14.682ZM11.0615 18.2048H12.5689V16.1101H14.6414V14.5869H12.5689V12.4925H11.0615V14.5869H8.98904V16.1101H11.0615V18.2048Z" fill="#04033A"/>
</svg>
