<svg width="33" height="33" viewBox="0 0 33 33" fill="none" xmlns="http://www.w3.org/2000/svg">
<rect width="32.0585" height="32.0585" rx="5" fill="#9494AA"/>
<path d="M5.72461 14.3532V8.61119C5.72461 8.14139 5.89713 7.73388 6.24218 7.38866C6.5874 7.04362 6.99491 6.87109 7.46471 6.87109H24.8647C25.3345 6.87109 25.742 7.04362 26.0872 7.38866C26.4323 7.73388 26.6048 8.14139 26.6048 8.61119V15.954C26.309 15.8205 26.0088 15.7205 25.7043 15.6538C25.3998 15.5872 25.091 15.5539 24.7778 15.5539C24.3659 15.5539 23.9599 15.6118 23.5597 15.7277C23.1595 15.8437 22.7825 16.009 22.4288 16.2236C22.2374 16.1018 22.0431 16.0003 21.8459 15.9193C21.6486 15.838 21.4369 15.7713 21.2107 15.7191V14.3532H17.7568L15.9037 10.647C15.8284 10.4962 15.7181 10.3888 15.573 10.3249C15.4281 10.2613 15.2773 10.2294 15.1207 10.2294C14.9641 10.2294 14.8133 10.2613 14.6684 10.3249C14.5233 10.3888 14.413 10.4962 14.3377 10.647L10.9447 17.4503L9.63964 14.823C9.5643 14.6664 9.45407 14.549 9.30895 14.4707C9.16401 14.3924 9.01324 14.3532 8.85664 14.3532H5.72461ZM7.46471 23.5752C6.99491 23.5752 6.5874 23.4027 6.24218 23.0577C5.89713 22.7124 5.72461 22.3049 5.72461 21.8351V16.0931H8.30853L10.1616 19.7993C10.237 19.9559 10.3472 20.0734 10.4923 20.1517C10.6373 20.23 10.7881 20.2691 10.9447 20.2691C11.1013 20.2691 11.252 20.23 11.397 20.1517C11.5421 20.0734 11.6523 19.9559 11.7277 19.7993L15.1207 12.996L16.4257 15.6233C16.501 15.7684 16.604 15.8801 16.7345 15.9584C16.865 16.0367 17.0056 16.0816 17.1565 16.0931H18.0786C17.3015 16.4527 16.6723 16.9951 16.1908 17.7202C15.7093 18.4451 15.4686 19.2657 15.4686 20.1822C15.4686 20.913 15.5948 21.5322 15.8471 22.0398C16.0994 22.5471 16.4749 23.059 16.9738 23.5752H7.46471ZM20.0797 17.3112C20.5495 17.3112 20.9845 17.4156 21.3847 17.6244C21.7849 17.8332 22.1329 18.1377 22.4288 18.5379C22.7246 18.1377 23.0726 17.8332 23.4728 17.6244C23.873 17.4156 24.308 17.3112 24.7778 17.3112C25.5782 17.3112 26.2568 17.5896 26.8136 18.1464C27.3704 18.7032 27.6488 19.3818 27.6488 20.1822C27.6488 20.8086 27.4226 21.4133 26.9702 21.9962C26.5178 22.5791 25.526 23.523 23.9948 24.828L22.4288 26.1853L20.8627 24.828C19.3315 23.523 18.3397 22.5791 17.8873 21.9962C17.4349 21.4133 17.2087 20.8086 17.2087 20.1822C17.2087 19.3818 17.4871 18.7032 18.0439 18.1464C18.6007 17.5896 19.2793 17.3112 20.0797 17.3112Z" fill="#04033A"/>
</svg>
