<svg width="33" height="33" viewBox="0 0 33 33" fill="none" xmlns="http://www.w3.org/2000/svg">
<rect width="32.0585" height="32.0585" rx="5" fill="#9494AA"/>
<path d="M13.6966 19.8918L20.859 15.3163L13.6966 10.7408V19.8918ZM12.2361 25.8753V23.7635H7.48452C7.00937 23.7635 6.59722 23.589 6.24807 23.24C5.8991 22.8909 5.72461 22.4787 5.72461 22.0036V8.62905C5.72461 8.1539 5.8991 7.74175 6.24807 7.3926C6.59722 7.04363 7.00937 6.86914 7.48452 6.86914H25.0826C25.5578 6.86914 25.9699 7.04363 26.3191 7.3926C26.668 7.74175 26.8425 8.1539 26.8425 8.62905V22.0036C26.8425 22.4787 26.668 22.8909 26.3191 23.24C25.9699 23.589 25.5578 23.7635 25.0826 23.7635H20.3311V25.8753H12.2361Z" fill="#04033A"/>
</svg>
