<svg width="33" height="33" viewBox="0 0 33 33" fill="none" xmlns="http://www.w3.org/2000/svg">
<rect width="32.0585" height="32.0585" rx="5" fill="#9494AA"/>
<path d="M6.86997 26.3337C6.24025 26.3337 5.70136 26.1096 5.25331 25.6616C4.80525 25.2135 4.58084 24.6742 4.58008 24.0438V8.0145C4.58008 7.38478 4.80449 6.84589 5.25331 6.39784C5.70213 5.94978 6.24101 5.72537 6.86997 5.72461H25.1891C25.8188 5.72461 26.3581 5.94902 26.8069 6.39784C27.2558 6.84666 27.4798 7.38555 27.479 8.0145V24.0438C27.479 24.6735 27.255 25.2127 26.8069 25.6616C26.3589 26.1104 25.8196 26.3344 25.1891 26.3337H6.86997ZM10.3048 21.7539H21.7543C22.0787 21.7539 22.3508 21.6439 22.5706 21.4241C22.7905 21.2043 22.9 20.9326 22.8992 20.6089C22.8985 20.2853 22.7885 20.0135 22.5695 19.7937C22.3504 19.5739 22.0787 19.464 21.7543 19.464H10.3048C9.98041 19.464 9.70868 19.5739 9.48961 19.7937C9.27054 20.0135 9.16063 20.2853 9.15987 20.6089C9.1591 20.9326 9.26902 21.2047 9.48961 21.4253C9.7102 21.6459 9.98194 21.7554 10.3048 21.7539ZM10.3048 17.1741H12.5947C12.9191 17.1741 13.1912 17.0642 13.4111 16.8443C13.6309 16.6245 13.7404 16.3528 13.7397 16.0291V11.4493C13.7397 11.1249 13.6297 10.8532 13.4099 10.6341C13.1901 10.4151 12.9183 10.3052 12.5947 10.3044H10.3048C9.98041 10.3044 9.70868 10.4143 9.48961 10.6341C9.27054 10.854 9.16063 11.1257 9.15987 11.4493V16.0291C9.15987 16.3535 9.26978 16.6256 9.48961 16.8455C9.70944 17.0653 9.98117 17.1748 10.3048 17.1741ZM17.1745 17.1741H21.7543C22.0787 17.1741 22.3508 17.0642 22.5706 16.8443C22.7905 16.6245 22.9 16.3528 22.8992 16.0291C22.8985 15.7055 22.7885 15.4338 22.5695 15.2139C22.3504 14.9941 22.0787 14.8842 21.7543 14.8842H17.1745C16.8501 14.8842 16.5784 14.9941 16.3593 15.2139C16.1402 15.4338 16.0303 15.7055 16.0295 16.0291C16.0288 16.3528 16.1387 16.6249 16.3593 16.8455C16.5799 17.0661 16.8516 17.1756 17.1745 17.1741ZM17.1745 12.5943H21.7543C22.0787 12.5943 22.3508 12.4844 22.5706 12.2645C22.7905 12.0447 22.9 11.773 22.8992 11.4493C22.8985 11.1257 22.7885 10.854 22.5695 10.6341C22.3504 10.4143 22.0787 10.3044 21.7543 10.3044H17.1745C16.8501 10.3044 16.5784 10.4143 16.3593 10.6341C16.1402 10.854 16.0303 11.1257 16.0295 11.4493C16.0288 11.773 16.1387 12.0451 16.3593 12.2657C16.5799 12.4863 16.8516 12.5958 17.1745 12.5943Z" fill="#04033A"/>
</svg>
