<svg width="33" height="33" viewBox="0 0 33 33" fill="none" xmlns="http://www.w3.org/2000/svg">
<rect width="32.0585" height="32.0585" rx="5" fill="#9494AA"/>
<path d="M24.6196 26.2416L17.7807 19.4027L19.6588 17.5246L26.4977 24.3635L24.6196 26.2416ZM8.36165 26.2416L6.48354 24.3635L14.603 16.244L11.9281 13.5692L11.2261 14.2709L9.90768 12.9525V15.3428L9.18689 16.0636L5.72461 12.6016L6.44541 11.8806H8.8548L7.46983 10.4959L11.302 6.66367C11.6435 6.32219 12.0134 6.08506 12.4118 5.95226C12.8102 5.81946 13.2371 5.75307 13.6924 5.75307C14.1477 5.75307 14.5745 5.8353 14.9729 5.99978C15.3713 6.16407 15.7412 6.41695 16.0827 6.75843L13.1802 9.66097L14.5651 11.0459L13.844 11.7667L16.462 14.3847L19.6303 11.2167C19.5038 10.9828 19.4042 10.7203 19.3316 10.4293C19.2587 10.1385 19.2223 9.83493 19.2223 9.51869C19.2223 8.47529 19.5938 7.58214 20.3369 6.83924C21.08 6.09615 21.9732 5.72461 23.0166 5.72461C23.3012 5.72461 23.5526 5.75307 23.7707 5.80998C23.9889 5.86689 24.1865 5.9459 24.3635 6.04702L21.8118 8.59869L23.9176 10.7045L26.4692 8.15278C26.5768 8.34249 26.6606 8.55278 26.7205 8.78366C26.7806 9.01454 26.8107 9.27225 26.8107 9.55682C26.8107 10.6002 26.4392 11.4934 25.6961 12.2363C24.9532 12.9794 24.06 13.3509 23.0166 13.3509C22.7131 13.3509 22.4412 13.3288 22.2008 13.2846C21.9604 13.2402 21.7359 13.1706 21.5272 13.0757L8.36165 26.2416Z" fill="#04033A"/>
</svg>
