<svg width="33" height="33" viewBox="0 0 33 33" fill="none" xmlns="http://www.w3.org/2000/svg">
<rect width="32.0585" height="32.0585" rx="5" fill="#9494AA"/>
<path d="M10.9021 4.6907C9.18488 4.23019 7.41852 5.24956 6.96239 6.9664L4.69072 15.4388C4.23012 17.1556 5.24969 18.9217 6.96687 19.3822L15.4409 21.6534C17.1581 22.1139 18.9245 21.0945 19.3851 19.3777L21.6567 10.9053C22.1173 9.18845 21.0978 7.42243 19.3806 6.96193L10.9021 4.6907ZM11.9306 13.8874C11.8307 13.7245 11.7644 13.5433 11.7357 13.3544C11.707 13.1655 11.7164 12.9728 11.7634 12.7876C11.8103 12.6025 11.894 12.4286 12.0093 12.2762C12.1246 12.1238 12.2692 11.9961 12.4347 11.9005C12.6001 11.805 12.7831 11.7435 12.9727 11.7198C13.1623 11.6961 13.3547 11.7106 13.5387 11.7624C13.7226 11.8142 13.8943 11.9024 14.0436 12.0216C14.1929 12.1409 14.3168 12.2888 14.4079 12.4567C14.5078 12.6196 14.5741 12.8008 14.6028 12.9897C14.6315 13.1785 14.6221 13.3713 14.5751 13.5565C14.5282 13.7416 14.4446 13.9155 14.3293 14.0679C14.214 14.2203 14.0693 14.348 13.9038 14.4435C13.7384 14.5391 13.5554 14.6006 13.3658 14.6243C13.1762 14.648 12.9838 14.6335 12.7998 14.5817C12.6159 14.5299 12.4442 14.4417 12.295 14.3225C12.1457 14.2032 12.0218 14.0553 11.9306 13.8874ZM8.12059 14.4373C8.28349 14.3374 8.46474 14.2712 8.65366 14.2425C8.84258 14.2138 9.03534 14.2232 9.22056 14.2702C9.40578 14.3171 9.57972 14.4007 9.73211 14.516C9.8845 14.6313 10.0122 14.7759 10.1078 14.9413C10.2034 15.1068 10.2649 15.2897 10.2886 15.4792C10.3123 15.6688 10.2979 15.8612 10.246 16.0451C10.1942 16.229 10.106 16.4006 9.98673 16.5499C9.86746 16.6992 9.7195 16.823 9.55157 16.9142C9.38867 17.0141 9.20742 17.0803 9.0185 17.1091C8.82958 17.1378 8.63682 17.1284 8.4516 17.0814C8.26637 17.0344 8.09244 16.9508 7.94005 16.8355C7.78766 16.7203 7.65991 16.5756 7.56433 16.4102C7.46875 16.2448 7.40729 16.0619 7.38355 15.8723C7.35982 15.6827 7.37431 15.4903 7.42615 15.3064C7.478 15.1225 7.56616 14.9509 7.68543 14.8016C7.8047 14.6524 7.95266 14.5285 8.12059 14.4373ZM16.3934 18.7473C16.2305 18.8472 16.0493 18.9134 15.8604 18.9421C15.6714 18.9708 15.4787 18.9614 15.2935 18.9145C15.1082 18.8675 14.9343 18.7839 14.7819 18.6686C14.6295 18.5533 14.5018 18.4087 14.4062 18.2433C14.3106 18.0778 14.2491 17.8949 14.2254 17.7054C14.2017 17.5158 14.2162 17.3234 14.268 17.1395C14.3199 16.9556 14.408 16.784 14.5273 16.6347C14.6466 16.4854 14.7945 16.3616 14.9624 16.2704C15.1253 16.1705 15.3066 16.1043 15.4955 16.0756C15.6844 16.0468 15.8772 16.0563 16.0624 16.1032C16.2476 16.1502 16.4216 16.2338 16.574 16.3491C16.7264 16.4643 16.8541 16.609 16.9497 16.7744C17.0453 16.9398 17.1067 17.1227 17.1305 17.3123C17.1542 17.5019 17.1397 17.6943 17.0879 17.8782C17.036 18.0621 16.9479 18.2337 16.8286 18.383C16.7093 18.5323 16.5614 18.6561 16.3934 18.7473ZM16.7959 9.42988C16.9588 9.33 17.14 9.26375 17.329 9.23504C17.5179 9.20633 17.7106 9.21574 17.8959 9.26271C18.0811 9.30969 18.255 9.39328 18.4074 9.50855C18.5598 9.62383 18.6875 9.76845 18.7831 9.93389C18.8787 10.0993 18.9402 10.2822 18.9639 10.4718C18.9876 10.6614 18.9731 10.8538 18.9213 11.0377C18.8695 11.2216 18.7813 11.3932 18.662 11.5425C18.5428 11.6917 18.3948 11.8156 18.2269 11.9068C18.064 12.0067 17.8827 12.0729 17.6938 12.1016C17.5049 12.1303 17.3121 12.1209 17.1269 12.0739C16.9417 12.027 16.7677 11.9434 16.6153 11.8281C16.463 11.7128 16.3352 11.5682 16.2396 11.4028C16.144 11.2373 16.0826 11.0544 16.0588 10.8649C16.0351 10.6753 16.0496 10.4829 16.1014 10.299C16.1533 10.1151 16.2415 9.94346 16.3607 9.79419C16.48 9.64493 16.628 9.52105 16.7959 9.42988ZM11.385 10.0737C11.2221 10.1736 11.0409 10.2398 10.8519 10.2685C10.663 10.2973 10.4703 10.2878 10.285 10.2409C10.0998 10.1939 9.92588 10.1103 9.77349 9.99502C9.6211 9.87975 9.49335 9.73512 9.39777 9.56969C9.30219 9.40425 9.24072 9.22135 9.21699 9.03178C9.19326 8.8422 9.20774 8.6498 9.25959 8.46591C9.31144 8.28203 9.3996 8.11038 9.51887 7.96111C9.63814 7.81185 9.7861 7.68797 9.95403 7.5968C10.1169 7.49692 10.2982 7.43067 10.4871 7.40196C10.676 7.37324 10.8688 7.38265 11.054 7.42963C11.2392 7.47661 11.4132 7.5602 11.5655 7.67547C11.7179 7.79075 11.8457 7.93537 11.9413 8.10081C12.0368 8.26625 12.0983 8.44915 12.122 8.63872C12.1458 8.82829 12.1313 9.0207 12.0794 9.20458C12.0276 9.38847 11.9394 9.56011 11.8202 9.70938C11.7009 9.85865 11.5529 9.98252 11.385 10.0737ZM23.2711 13.172L21.4555 19.9321C20.6864 22.7935 17.7439 24.4924 14.882 23.7279L13.1693 23.2674V24.6176C13.1693 26.1959 14.4527 27.479 16.0312 27.479H24.6171C26.1956 27.479 27.479 26.1959 27.479 24.6176V16.0334C27.479 14.4552 26.1956 13.172 24.6171 13.172H23.2711Z" fill="#04033A"/>
</svg>
