<svg width="33" height="33" viewBox="0 0 33 33" fill="none" xmlns="http://www.w3.org/2000/svg">
<rect width="32.0585" height="32.0585" rx="5" fill="#9494AA"/>
<path d="M11.4096 19.3836H20.5156V18.8145C20.5156 18.005 20.1077 17.3695 19.292 16.9079C18.4762 16.4464 17.3664 16.2156 15.9626 16.2156C14.5587 16.2156 13.449 16.4464 12.6332 16.9079C11.8175 17.3695 11.4096 18.005 11.4096 18.8145V19.3836ZM15.9626 14.5839C16.5634 14.5839 17.074 14.3737 17.4944 13.9533C17.915 13.5327 18.1253 13.022 18.1253 12.4212C18.1253 11.8206 17.915 11.31 17.4944 10.8894C17.074 10.4688 16.5634 10.2585 15.9626 10.2585C15.3618 10.2585 14.8512 10.4688 14.4308 10.8894C14.0102 11.31 13.7999 11.8206 13.7999 12.4212C13.7999 13.022 14.0102 13.5327 14.4308 13.9533C14.8512 14.3737 15.3618 14.5839 15.9626 14.5839ZM4.58008 28.4896V7.62179C4.58008 7.10958 4.76817 6.66528 5.14437 6.2889C5.52075 5.91271 5.96505 5.72461 6.47726 5.72461H25.4479C25.9601 5.72461 26.4044 5.91271 26.7808 6.2889C27.157 6.66528 27.3451 7.10958 27.3451 7.62179V22.0394C27.3451 22.5517 27.157 22.996 26.7808 23.3723C26.4044 23.7485 25.9601 23.9366 25.4479 23.9366H9.13308L4.58008 28.4896Z" fill="#04033A"/>
</svg>
