<svg width="268" height="35" viewBox="0 0 268 35" fill="none" xmlns="http://www.w3.org/2000/svg">
<path d="M20.0891 3.6157C20.0891 0.72314 17.3232 0 15.1396 0V0.433884C16.4498 0.433884 17.4688 0.867769 17.4688 1.88017C17.4688 2.45868 17.032 3.32645 15.7219 3.32645C14.7029 3.32645 12.5193 2.74793 10.918 2.16942C9.02553 1.44628 7.27865 0.867769 5.82292 0.867769C2.91146 0.867769 0.873438 3.03719 0.873438 5.49587C0.873438 7.66529 2.47474 8.38843 3.05703 8.67769L3.20261 8.38843C2.91146 8.09917 2.47474 7.80992 2.47474 6.94215C2.47474 6.36364 3.05703 5.35124 4.51276 5.35124C5.82292 5.35124 7.5698 5.92975 9.89897 6.65289C11.937 7.2314 14.1206 7.66529 15.2852 7.80992V12.2934L13.1016 14.1736V14.3182L15.2852 16.1983V22.4174C14.1206 23.1405 12.8104 23.2851 11.6458 23.2851C9.46225 23.2851 7.5698 22.7066 5.9685 20.9711L11.937 18.0785V8.09917L4.65834 11.281C5.24063 9.40083 6.84193 8.09917 8.44324 7.2314L8.29766 6.79752C3.93047 7.95455 0 12.0041 0 16.9215C0 22.7066 4.80391 27.0455 10.1901 27.0455C16.013 27.0455 19.7979 22.4174 19.7979 17.6446H19.5068C18.6334 19.5248 17.3232 21.2603 15.7219 22.1281V16.1983L18.0511 14.3182V14.1736L15.7219 12.2934V7.80992C17.9055 7.80992 20.0891 6.36364 20.0891 3.6157ZM7.42423 19.5248L5.67735 20.3926C4.65834 19.0909 4.07605 17.3554 4.07605 14.8967C4.07605 13.8843 4.07605 12.7273 4.36719 11.8595L7.42423 10.5579V19.5248ZM22.855 22.8512L20.9625 24.2975L21.2537 24.5868L22.1271 23.8636L25.3297 26.7562L29.6969 23.8636L29.5513 23.5744L28.3867 24.2975L26.931 22.8512V13.0165L28.0956 12.1488L30.5703 14.1736V22.9959C30.5703 28.4917 29.4058 29.3595 26.931 30.2273V30.6612C31.0071 30.8058 34.792 29.5041 34.792 22.4174V12.8719L36.1021 11.8595L35.811 11.5702L34.6464 12.438L31.0071 9.40083L26.931 12.438V0.578512H26.6399L21.5448 4.04959V4.33884C22.1271 4.6281 23.0005 4.91736 23.0005 6.50826L22.855 22.8512ZM49.4948 21.2603L45.8555 24.0083L42.2162 21.1157V19.3802L49.0581 14.7521V14.6074L45.5644 9.40083L37.9946 13.4504V22.9959L36.5388 24.1529L36.83 24.4421L38.1401 23.4298L43.0896 27.0455L49.6404 21.8388L49.4948 21.2603ZM42.2162 18.8017V11.7149L42.5073 11.5702L45.7099 16.6322L42.2162 18.8017ZM77.2993 2.31405C77.2993 1.88017 77.1537 1.44628 77.0081 1.0124H76.717C76.2803 2.16942 75.698 2.74793 74.2423 2.74793C72.9321 2.74793 72.0587 2.02479 71.4764 1.44628L67.2548 6.21901L67.5459 6.50826L69.0016 5.20661C69.8751 5.92975 70.6029 6.50826 72.641 6.65289V18.657L64.0521 4.04959C63.3243 2.89256 62.3053 1.30165 60.2672 1.30165C57.9381 1.30165 55.9001 3.32645 56.1912 6.50826H56.6279C56.7735 5.6405 57.2102 4.6281 58.2292 4.6281C58.9571 4.6281 59.685 5.35124 60.1217 6.07438V10.8471C57.5014 10.8471 55.7545 12.0041 55.7545 14.1736C55.7545 15.3306 56.3368 17.0661 58.0837 17.5V17.2107C57.7925 16.9215 57.6469 16.6322 57.6469 16.1983C57.6469 15.4752 58.2292 14.8967 59.2482 14.8967H59.9761V20.9711C56.9191 20.9711 54.4443 22.7066 54.4443 25.5992C54.4443 28.3471 56.7735 29.6488 59.3938 29.5041V29.2149C57.7925 29.0702 57.0646 28.3471 57.0646 27.3347C57.0646 26.0331 57.9381 25.4545 59.1027 25.4545C60.2672 25.4545 61.2863 26.1777 62.0141 27.0455L66.2357 22.4174L65.9446 22.1281L64.9256 23.2851C63.3243 21.8388 62.4508 21.405 60.5584 21.1157V6.65289L72.2042 26.9008H73.0777V6.65289C75.2613 6.50826 77.2993 4.77273 77.2993 2.31405ZM87.9261 21.2603L84.2868 24.0083L80.6475 21.1157V19.3802L87.4894 14.7521V14.6074L83.9957 9.40083L76.4259 13.4504V22.9959L74.9701 24.1529L75.2613 24.4421L76.5714 23.4298L81.5209 27.0455L88.0717 21.8388L87.9261 21.2603ZM80.6475 18.8017V11.7149L80.9386 11.5702L84.1412 16.6322L80.6475 18.8017ZM111.655 10.9917L110.636 11.7149L107.87 9.40083L104.667 12.2934L105.977 13.595V24.4421L102.483 22.2727V13.3058L103.648 12.5826L100.3 9.40083L97.0972 12.2934L98.4074 13.595V24.0083L97.9707 24.2975L94.9136 22.1281V13.4504C94.9136 11.4256 93.8946 10.8471 92.73 10.124C91.711 9.40083 91.1287 8.96694 91.1287 7.95455C91.1287 7.08678 92.0022 6.65289 92.4389 6.36364V6.07438C91.2743 6.07438 88.2173 7.2314 88.2173 9.97934C88.2173 11.4256 88.9451 12.0041 89.673 12.7273C90.4009 13.4504 91.1287 14.0289 91.1287 15.3306V23.719L89.5274 24.876L89.8186 25.1653L91.2743 24.0083L94.6225 26.9008L98.2618 24.4421L102.338 26.9008L110.053 22.4174V12.7273L111.946 11.281L111.655 10.9917ZM138.731 3.03719L137.275 4.33884L134.073 1.44628L129.269 4.91736V1.73554H128.832L128.978 25.1653C128.541 25.1653 127.231 24.876 126.212 24.5868L125.921 5.06198C125.921 3.6157 124.902 1.59091 122.281 1.59091C119.661 1.59091 117.914 3.6157 117.914 5.6405H118.351C118.496 4.77273 118.933 4.04959 119.807 4.04959C120.68 4.04959 121.408 4.6281 121.408 6.50826V12.1488C118.788 12.2934 117.186 13.7397 117.186 15.6198C117.186 16.7769 117.769 18.5124 119.515 18.5124V18.2231C118.933 17.9339 118.788 17.5 118.788 17.2107C118.788 16.343 119.515 16.0537 120.68 16.0537H121.262V25.0207C119.079 25.7438 118.205 27.3347 118.205 29.0702C118.205 31.5289 120.098 33.2645 123.009 33.2645C125.047 33.2645 126.794 32.9752 128.541 32.5413C129.997 32.2521 131.889 31.8182 132.763 31.8182C133.927 31.8182 134.364 32.3967 134.364 33.1198C134.364 34.1322 133.927 34.5661 133.345 34.7107V35C135.674 34.5661 137.13 33.1198 137.13 30.9504C137.13 28.781 134.946 27.4793 132.617 27.4793C131.452 27.4793 128.978 27.9132 127.231 28.2025C125.193 28.6364 123.155 28.9256 122.573 28.9256C121.553 28.9256 120.389 28.4917 120.389 27.0455C120.389 25.8884 121.408 24.876 123.883 24.876C125.193 24.876 126.794 25.0207 128.395 25.4545C130.142 25.8884 131.744 26.3223 133.199 26.3223C135.383 26.3223 137.275 25.5992 137.275 22.562V4.77273L139.022 3.32645L138.731 3.03719ZM132.763 11.8595C132.326 12.2934 131.744 12.7273 131.016 12.7273C130.288 12.7273 129.56 12.2934 129.269 11.8595V5.49587L130.725 4.48347L132.763 6.36364V11.8595ZM132.763 16.1983C132.471 15.9091 131.744 15.4752 131.016 15.4752C130.288 15.4752 129.56 15.9091 129.269 16.1983V12.438C129.56 12.7273 130.288 13.1612 131.016 13.1612C131.744 13.1612 132.471 12.7273 132.763 12.438V16.1983ZM132.763 22.9959C132.763 24.1529 132.035 25.3099 130.433 25.3099H129.269V16.7769C129.56 16.4876 130.288 16.0537 131.016 16.0537C131.744 16.0537 132.326 16.4876 132.763 16.7769V22.9959ZM152.706 12.7273L148.048 9.40083L140.915 13.4504V22.8512L139.459 24.0083L139.605 24.2975L140.769 23.4298L145.427 26.9008L152.706 22.562V12.7273ZM144.845 21.8388V11.4256L148.485 14.0289V24.2975L144.845 21.8388ZM166.536 9.69008H166.244C165.808 9.97934 165.371 10.2686 164.934 10.2686C164.352 10.2686 163.624 9.97934 163.333 9.54545H163.042L160.567 12.2934L158.092 9.54545L153.725 12.438L153.871 12.7273L155.035 12.0041L156.491 13.595V22.7066L154.599 24.1529L154.89 24.4421L155.763 23.719L159.257 26.6116L163.77 23.5744L163.624 23.2851L162.314 24.0083L160.567 22.562V12.438C161.295 13.1612 162.168 13.8843 163.187 13.8843C165.225 14.0289 166.39 12.0041 166.536 9.69008ZM184.004 23.5744L179.055 26.9008L172.359 16.7769L177.162 9.40083H177.454C178.036 9.97934 178.909 10.5579 179.928 10.5579C180.947 10.5579 181.675 9.97934 182.112 9.40083H182.403C182.257 12.2934 180.219 14.0289 178.764 14.0289C177.308 14.0289 176.58 13.3058 175.707 12.8719L175.27 13.595L182.549 24.2975L184.004 23.4298V23.5744ZM167.991 22.8512L166.099 24.2975L166.39 24.5868L167.263 23.8636L170.466 26.7562L174.833 23.8636L174.542 23.5744L173.378 24.2975L171.922 22.8512V0.578512H171.776L166.536 4.04959V4.33884C167.118 4.6281 167.991 4.77273 167.991 6.50826V22.8512ZM208.169 3.6157C208.169 0.72314 205.404 0 203.22 0V0.433884C204.53 0.433884 205.549 0.867769 205.549 1.88017C205.549 2.45868 205.112 3.32645 203.802 3.32645C202.783 3.32645 200.6 2.74793 198.998 2.16942C197.106 1.59091 195.359 1.0124 193.903 1.0124C190.992 1.0124 188.954 3.18182 188.954 5.6405C188.954 7.80992 190.555 8.53306 191.137 8.82231L191.283 8.53306C190.846 8.2438 190.41 7.95455 190.41 7.08678C190.41 6.50826 190.992 5.49587 192.448 5.49587C193.758 5.49587 195.505 6.07438 197.834 6.79752C199.872 7.37603 202.055 7.80992 203.22 7.95455V12.438L201.036 14.3182V14.4628L203.22 16.343V22.562C202.055 23.2851 200.745 23.4298 199.581 23.4298C197.397 23.4298 195.505 22.8512 193.903 21.1157L199.872 18.2231V8.09917L192.593 11.281C193.321 9.40083 194.922 8.09917 196.378 7.08678L196.232 6.79752C191.865 7.95455 187.935 11.8595 187.935 16.7769C187.935 22.562 192.739 26.9008 198.125 26.9008C203.948 26.9008 207.733 22.2727 207.733 17.5H207.442C206.568 19.3802 205.258 21.1157 203.657 21.9835V16.0537L205.986 14.1736V14.0289L203.802 12.1488V7.80992C205.986 7.80992 208.169 6.36364 208.169 3.6157ZM195.505 19.5248L193.758 20.3926C192.739 19.0909 192.156 17.3554 192.156 14.8967C192.156 13.8843 192.302 12.7273 192.593 11.8595L195.65 10.5579L195.505 19.5248ZM213.265 2.16942H213.119L210.207 4.6281V4.77273L212.682 7.52066H212.973L215.885 5.06198V4.91736L213.265 2.16942ZM217.632 23.5744L216.467 24.2975L215.011 22.8512V12.8719L216.467 11.8595L216.176 11.5702L215.157 12.438L212.537 9.40083L208.315 12.2934L208.606 12.7273L209.625 12.0041L210.935 13.595V22.9959L209.043 24.4421L209.188 24.7314L210.207 24.0083L213.41 26.9008L217.777 24.0083L217.632 23.5744ZM241.942 23.4298L240.923 24.1529L239.322 22.7066V12.8719L240.778 11.7149L240.487 11.4256L239.322 12.438L235.974 9.40083L231.607 12.438L228.259 9.40083L224.183 12.438L221.562 9.40083L217.341 12.2934L217.486 12.7273L218.505 12.0041L219.961 13.595V22.9959L218.796 24.1529L222.144 26.9008L225.347 24.0083L224.037 22.7066V12.8719L225.347 12.0041L227.531 14.0289V22.7066L226.366 23.8636L229.714 26.6116L232.917 23.719L231.607 22.4174V12.8719L232.771 12.1488L235.1 14.1736V22.8512L234.081 23.8636L237.43 26.9008L241.942 23.8636V23.4298ZM254.607 21.2603L250.968 24.0083L247.329 21.1157V19.3802L254.171 14.7521V14.6074L250.677 9.40083L243.107 13.4504V23.2851L248.202 26.9008L254.753 21.6942L254.607 21.2603ZM247.329 18.8017V11.7149L247.62 11.5702L250.822 16.6322L247.329 18.8017ZM267.854 17.5L265.089 15.3306C266.981 13.7397 267.709 11.5702 267.709 10.124V9.2562H267.418C267.127 9.97934 266.544 10.7025 265.38 10.7025C264.215 10.7025 263.487 10.124 262.759 9.2562L256.209 12.8719V18.0785L258.683 19.9587C256.209 22.1281 255.772 23.5744 255.772 24.7314C255.772 26.1777 256.5 27.1901 257.664 27.624L257.81 27.3347C257.519 27.0455 257.228 26.9008 257.228 26.1777C257.228 25.7438 257.81 25.0207 258.974 25.0207C260.43 25.0207 261.304 26.0331 261.74 26.4669L268 22.7066V17.5H267.854ZM266.253 13.1612C265.234 14.8967 263.051 16.6322 261.74 17.5L260.139 16.1983V11.1364C260.721 12.5826 262.323 13.7397 263.924 13.7397C264.943 13.7397 265.525 13.595 266.253 13.1612ZM263.778 24.7314C263.051 23.1405 261.304 21.9835 259.557 21.9835C259.12 21.9835 257.955 21.9835 256.791 22.7066C257.519 21.5496 259.411 19.5248 261.886 18.0785L263.633 19.5248L263.778 24.7314Z" fill="#F2F2F2"/>
</svg>
