<svg width="122" height="45" viewBox="0 0 122 45" fill="none" xmlns="http://www.w3.org/2000/svg">
<path d="M82.7914 32.0242H82.7622C77.567 35.7425 71.4379 39.6378 64.8126 43.7397L64.5499 43.8872C64.5213 43.8991 64.4957 43.9174 64.4751 43.9408C64.4545 43.9641 64.4394 43.9919 64.431 44.022C64.4225 44.0521 64.421 44.0837 64.4264 44.1146C64.4318 44.1454 64.4441 44.1745 64.4623 44.1998C64.4805 44.2251 64.5042 44.2459 64.5315 44.2606C64.5588 44.2753 64.589 44.2836 64.62 44.2848C64.6509 44.2859 64.6817 44.2799 64.71 44.2673C64.7383 44.2547 64.7634 44.2357 64.7834 44.2118L64.9877 44.0938C70.6207 41.1428 77.0708 37.6311 83.5502 34.0014L83.667 33.9424C83.2845 33.3494 82.9896 32.7032 82.7914 32.0242ZM116.881 4.10775C108.709 -5.01084 55.9983 3.19294 33.6125 8.15062L33.0871 8.26866C33.0357 8.28204 32.9904 8.31271 32.9586 8.35562C32.9267 8.39854 32.9103 8.45113 32.912 8.50474C32.9148 8.53139 32.9236 8.55704 32.9377 8.57976C32.9518 8.60247 32.9708 8.62166 32.9933 8.63587C33.0158 8.65007 33.0412 8.65894 33.0675 8.66178C33.0939 8.66463 33.1205 8.66138 33.1455 8.65229L33.6708 8.56376C52.2333 5.22913 90.8468 0.596057 99.1357 8.91788C101.675 11.4557 101.091 14.7313 98.1433 18.5972C99.7706 19.6721 100.922 21.3437 101.354 23.2597C112.824 15.5576 120.529 8.18013 116.881 4.10775Z" fill="#F2F2F2"/>
<path d="M38.8076 24.8826C38.1675 24.8846 37.5443 25.0912 37.0273 25.4728C36.4975 25.9196 36.1536 26.5518 36.0641 27.2434C35.889 28.1582 35.9766 28.7779 36.3268 29.1911C36.5308 29.3915 36.7734 29.5474 37.0395 29.6489C37.3056 29.7504 37.5896 29.7955 37.8737 29.7813C38.3159 29.7903 38.7546 29.6996 39.1579 29.5157C39.5471 29.3337 39.88 29.048 40.121 28.6894C40.394 28.2791 40.5826 27.8174 40.6755 27.3319C40.8215 26.5056 40.7047 25.9154 40.3253 25.5023C40.1316 25.2943 39.8957 25.1312 39.6337 25.0242C39.3717 24.9172 39.0899 24.8689 38.8076 24.8826ZM29.7307 36.3325L32.1532 22.5218H36.5311L36.1809 24.2924C36.6603 23.6861 37.2969 23.2264 38.0196 22.9644C38.9192 22.5929 39.8791 22.3928 40.8507 22.3742C41.9889 22.3742 42.6894 22.4333 43.5358 22.8759C44.3383 23.283 44.9624 23.9772 45.287 24.8236C45.6309 25.7157 45.712 26.6894 45.5205 27.627C45.399 28.4321 45.1195 29.2045 44.6985 29.8988C44.2775 30.5931 43.7234 31.1953 43.0688 31.6699C41.7263 32.6437 40.5296 32.9093 38.8076 32.9093C38.2866 32.919 37.7665 32.8595 37.2608 32.7323C36.9127 32.6557 36.5782 32.5264 36.2684 32.3486C35.9658 32.1279 35.6913 31.8702 35.4512 31.5814L34.634 36.3325H29.7307ZM80.2522 32.7618H75.1737L77.7421 18.4199L82.6746 18.5379L80.2522 32.7618ZM54.9185 22.4038L55.2687 20.3085L60.4639 19.1872L59.9093 22.4038H62.4777L61.9815 24.499H59.5007L58.0122 32.7618H52.963L54.4807 24.499H52.5836L52.963 22.4333H54.9185V22.4038ZM14.4663 29.073C13.1061 29.3807 11.7155 29.5292 10.3218 29.5157C7.95772 29.5157 6.06061 28.3353 6.17736 26.122C6.23573 24.676 7.95772 21.607 12.2773 21.607C13.6455 21.575 14.9936 21.944 16.1591 22.6693L16.772 19.0986C15.2144 18.4732 13.5427 18.1914 11.8687 18.2724C6.17736 18.3314 0.719522 20.9283 0.0482377 26.2401C-0.623047 31.5519 5.8855 32.9978 8.77494 32.9978C10.4386 32.9978 12.1897 32.9093 13.795 32.7618L14.4663 29.073ZM69.8326 28.0402L68.9862 28.2762L67.0308 28.6304C66.5682 28.6686 66.1198 28.8097 65.7174 29.0435C65.5999 29.1103 65.4993 29.2037 65.4233 29.3163C65.3474 29.4289 65.2982 29.5577 65.2796 29.6927C65.2447 29.8237 65.2513 29.9625 65.2984 30.0895C65.3455 30.2166 65.4308 30.3255 65.5423 30.401C65.8049 30.578 66.2135 30.637 66.7973 30.637C67.2314 30.6383 67.6636 30.5787 68.0815 30.46C68.4654 30.3464 68.8228 30.1557 69.1322 29.8993C69.3367 29.7178 69.4882 29.483 69.57 29.2206C69.693 28.836 69.781 28.4409 69.8326 28.0402ZM75.2029 24.6465C75.1737 25.1482 75.0862 25.6203 74.9694 26.3581L74.0647 31.5223C74.0165 31.7301 74.0394 31.9481 74.1294 32.141C74.2196 32.334 74.3716 32.4903 74.5608 32.5847V32.7618H69.3365V31.4338C68.5504 31.9067 67.7066 32.2738 66.8265 32.5257C66.0067 32.7379 65.1624 32.8371 64.3164 32.8208C62.6528 32.8208 61.6897 32.6437 61.0184 32.0535C60.3471 31.4633 60.0261 31.0502 60.0552 30.2239C60.1105 29.6584 60.3344 29.1233 60.6973 28.6894C61.079 28.2676 61.5472 27.9353 62.0691 27.7156C62.7278 27.4179 63.4259 27.2191 64.1413 27.1254C65.0753 26.9778 66.3595 26.8303 68.0815 26.6827C68.6593 26.6262 69.2279 26.4974 69.7743 26.2991C70.1245 26.1515 70.2704 26.004 70.3288 25.7089C70.3872 25.4138 70.2704 24.8826 69.57 24.735C67.702 24.3514 64.1997 24.9711 62.3901 25.4138L63.3533 22.7579C65.6608 22.3868 67.9924 22.1895 70.3288 22.1677C74.0355 22.1972 75.2321 23.2891 75.2029 24.6465ZM45.3745 32.7618L47.1841 22.4628H52.1749L50.3654 32.7618H45.3745ZM47.476 20.102C47.6219 19.2462 48.9353 18.5675 50.4238 18.5675C51.9123 18.5675 52.963 19.2462 52.817 20.102C52.6711 20.9578 51.3577 21.6365 49.8692 21.6365C48.3807 21.6365 47.33 20.9283 47.476 20.102ZM24.9441 28.0107C24.672 28.1222 24.388 28.2014 24.0977 28.2467L22.1714 28.6009C21.6989 28.6348 21.24 28.776 20.8289 29.014C20.7107 29.0872 20.61 29.1861 20.5343 29.3035C20.4586 29.4209 20.4097 29.5538 20.3911 29.6927C20.361 29.8226 20.3732 29.9587 20.4258 30.081C20.4784 30.2033 20.5686 30.3051 20.6829 30.3715C21.056 30.5823 21.4831 30.6748 21.9088 30.637C22.3442 30.6283 22.7764 30.5588 23.193 30.4305C23.5769 30.3169 23.9343 30.1262 24.2437 29.8698C24.4482 29.6883 24.5996 29.4535 24.6815 29.1911C24.8231 28.8119 24.9115 28.4146 24.9441 28.0107ZM30.3144 24.6465C30.2852 25.1482 30.1977 25.5908 30.0809 26.3581L29.1762 31.4928C29.128 31.7005 29.1508 31.9186 29.2409 32.1115C29.331 32.3044 29.4831 32.4608 29.6723 32.5552V32.7618H24.448V31.4633C23.6549 31.9147 22.8125 32.2712 21.938 32.5257C21.1293 32.7466 20.2948 32.8558 19.4571 32.8503C17.7643 32.8503 16.8012 32.6732 16.1591 32.083C15.517 31.4928 15.1375 31.0797 15.1667 30.2239C15.2294 29.6692 15.4528 29.1456 15.8088 28.7189C16.1888 28.2879 16.6568 27.9456 17.1806 27.7156C17.8528 27.4277 18.5592 27.2293 19.282 27.1254C20.1868 26.9778 21.471 26.8303 23.193 26.6827C23.7762 26.665 24.3508 26.5348 24.8858 26.2991C25.2652 26.1515 25.3819 26.004 25.4403 25.7089C25.4987 25.4138 25.3819 24.8826 24.6815 24.735C22.8135 24.3809 19.3112 24.9711 17.5016 25.4433L18.4648 22.7579C20.7724 22.388 23.1039 22.1907 25.4403 22.1677C29.147 22.1677 30.3436 23.2595 30.3144 24.6465Z" fill="#F2F2F2"/>
<path d="M100.566 26.0339L101.704 25.9159C102.083 25.9159 102.405 26.0044 102.434 26.3585C102.463 26.7127 102.054 28.1291 101.967 28.5128L101.179 31.9654C100.887 33.3819 100.537 34.8574 100.245 36.0378H102.229L103.339 30.549C106.782 26.9487 108.096 25.7683 108.884 25.7683C108.97 25.759 109.058 25.7694 109.14 25.7988C109.222 25.8281 109.297 25.8757 109.358 25.9379C109.42 26.0001 109.467 26.0755 109.496 26.1585C109.525 26.2415 109.535 26.33 109.526 26.4176C109.555 27.0373 109.147 28.4833 109.03 28.8964L107.862 32.8803C107.629 33.7951 107.425 34.5918 107.454 35.182C107.483 35.7722 108.008 36.451 108.767 36.451C110.226 36.451 111.306 34.9164 112.211 33.4114L111.948 32.9098C111.569 33.5 110.723 34.8279 110.022 34.8279C109.818 34.8279 109.614 34.6804 109.614 34.3262C109.637 33.7743 109.735 33.2282 109.905 32.7032L111.19 28.0111C111.511 26.7127 111.686 25.8864 111.686 25.4437C111.686 25.0011 111.131 24.1748 110.372 24.1748C109.059 24.1748 107.308 25.1486 103.63 29.4276H103.572L104.039 27.3324C104.302 26.1815 104.535 25.0011 104.769 24.1748C103.386 24.6716 101.972 25.0758 100.537 25.3847L100.566 26.0339ZM120.091 26.152C120.062 25.3257 119.654 24.765 118.807 24.765C116.764 24.765 114.604 28.8079 114.225 30.4309C117.552 30.4309 120.179 28.4242 120.091 26.152ZM120.529 32.4966L120.909 32.7622C119.916 34.7984 117.902 36.451 115.509 36.451C113.554 36.451 111.978 35.1525 111.89 32.7032C111.715 28.2767 115.83 24.1748 119.157 24.1748C120.588 24.1748 121.93 24.824 121.989 26.3881C122.105 29.8997 117.231 30.9621 114.021 31.0211C113.915 31.4452 113.876 31.8832 113.904 32.3196C113.962 33.7951 114.838 35.005 116.618 35.005C118.399 35.005 119.741 33.736 120.529 32.4966ZM86.1186 29.6342C86.2062 32.8507 88.22 35.4771 90.8468 35.4771C95.9252 35.4771 98.085 29.162 97.939 24.9421C97.8223 21.7255 95.7793 19.0991 93.1525 19.0991C88.7746 19.0991 85.9435 25.3847 86.1186 29.6342ZM83.4335 29.4571C83.2292 23.9682 87.4903 18.3613 93.6487 18.3613C97.7931 18.3613 100.478 21.1648 100.624 25.4142C100.828 31.1982 96.8591 36.51 90.409 36.51C86.2645 36.51 83.5794 33.736 83.4335 29.4571Z" fill="#F2F2F2"/>
</svg>
