<svg width="158" height="40" viewBox="0 0 158 40" fill="none" xmlns="http://www.w3.org/2000/svg">
<path d="M28.8663 11.0542C27.6448 9.80224 26.317 8.84332 24.9095 8.17741C23.502 7.5115 21.7228 7.19186 19.678 7.19186C18.0315 7.19186 16.4647 7.48486 15.0041 8.07086C13.5435 8.65687 12.2689 9.4826 11.1801 10.5481C10.0647 11.6135 9.18836 12.9187 8.55102 14.437C7.91368 15.9553 7.59501 17.6334 7.59501 19.4979C7.59501 21.3625 7.91368 23.0406 8.55102 24.5589C9.18836 26.0771 10.0647 27.3557 11.1801 28.4212C12.2954 29.4866 13.5967 30.339 15.0572 30.925C16.5178 31.511 18.1112 31.804 19.7842 31.804C21.5634 31.804 23.1302 31.5643 24.458 31.0582C25.7858 30.5521 26.9278 29.8595 27.8838 29.0072C28.5211 28.4212 29.1053 27.702 29.6099 26.8496C30.1145 25.9706 30.5128 25.0117 30.8049 23.9462H19.5717V17.5535H37.8954C38.0016 17.9796 38.0813 18.4857 38.1609 19.125C38.2406 19.7643 38.2672 20.3503 38.2672 20.9629C38.2672 23.4934 37.8954 25.7841 37.1518 27.8884C36.4082 29.9927 35.2663 31.8306 33.7792 33.4555C32.1062 35.2401 30.1145 36.5986 27.7775 37.5841C25.4406 38.5697 22.7585 39.0491 19.7576 39.0491C17.0489 39.0491 14.4996 38.5697 12.1095 37.5841C9.71948 36.5986 7.62156 35.2401 5.81576 33.5087C4.03651 31.7774 2.62904 29.7264 1.5668 27.3557C0.504563 24.9851 0 22.348 0 19.5246C0 16.7011 0.531119 14.0907 1.5668 11.6934C2.60248 9.29614 4.00995 7.24513 5.81576 5.51376C7.59501 3.78238 9.69293 2.45056 12.1095 1.46501C14.5261 0.479457 17.0755 0 19.7576 0C22.8381 0 25.5734 0.53273 27.9369 1.59819C30.3004 2.66365 32.3452 4.12866 34.0713 5.99322L28.8663 11.0542Z" fill="#F2F2F2"/>
<path d="M75.9501 28.2083C75.9501 31.4846 74.7551 34.1216 72.365 36.1193C69.9484 38.0638 67.0007 39.0493 63.5219 39.0493C60.4414 39.0493 57.7061 38.1437 55.3426 36.3324C52.9792 34.5211 51.3592 32.0439 50.4563 28.9275L55.024 27.0363C55.3426 28.155 55.7675 29.1672 56.3252 30.0728C56.8829 30.9785 57.5202 31.7509 58.2638 32.3902C59.0074 33.0295 59.8306 33.5356 60.7335 33.9085C61.6364 34.2814 62.5924 34.4679 63.6016 34.4679C65.7791 34.4679 67.5849 33.9085 68.9659 32.7631C70.3468 31.6444 71.0372 30.1261 71.0372 28.2616C71.0372 26.69 70.453 25.3582 69.3111 24.2394C68.2488 23.174 66.2306 22.1085 63.2829 21.0963C60.3086 20.0309 58.4497 19.2851 57.7061 18.9121C53.7493 16.8878 51.7841 13.9311 51.7841 9.98891C51.7841 7.24535 52.8729 4.90134 55.0505 2.95687C57.2812 1.01241 59.9899 0.0268555 63.2298 0.0268555C66.0713 0.0268555 68.541 0.746041 70.6123 2.21105C72.6837 3.64942 74.0912 5.43407 74.7816 7.59163L70.3468 9.42954C69.9219 8.04445 69.0986 6.87244 67.8771 5.9668C66.6555 5.03452 65.1418 4.5817 63.3891 4.5817C61.5036 4.5817 59.9368 5.11443 58.6621 6.15325C57.3875 7.11217 56.7501 8.39072 56.7501 9.93564C56.7501 11.2142 57.2547 12.3329 58.2638 13.2652C59.3792 14.1975 61.7957 15.3162 65.487 16.5948C69.258 17.8733 71.9667 19.4715 73.5866 21.3361C75.1534 23.2006 75.9501 25.4914 75.9501 28.2083Z" fill="#F2F2F2"/>
<path d="M102.479 38.197H97.9119V34.6544H97.6994C96.9824 35.9063 95.8405 36.9451 94.3534 37.7975C92.8397 38.6232 91.2729 39.0494 89.6529 39.0494C86.5193 39.0494 84.1293 38.1438 82.4563 36.3591C80.7833 34.5745 79.9335 32.0174 79.9335 28.7144V12.626H84.7135V28.3948C84.8198 32.5767 86.9177 34.6544 91.0073 34.6544C92.9193 34.6544 94.5127 33.8819 95.7874 32.337C97.0621 30.7921 97.6994 28.9275 97.6994 26.77V12.626H102.479V38.197Z" fill="#F2F2F2"/>
<path d="M113.394 3.80911C113.394 4.74138 113.075 5.54048 112.411 6.20639C111.748 6.8723 110.951 7.19194 110.021 7.19194C109.092 7.19194 108.295 6.8723 107.631 6.20639C106.967 5.54048 106.649 4.74138 106.649 3.80911C106.649 2.87683 106.967 2.07773 107.631 1.41182C108.295 0.745908 109.092 0.42627 110.021 0.42627C110.951 0.42627 111.748 0.745908 112.411 1.41182C113.075 2.07773 113.394 2.87683 113.394 3.80911ZM112.411 12.6258V38.1968H107.631V12.6258H112.411Z" fill="#F2F2F2"/>
<path d="M127.097 38.6233C125.025 38.6233 123.299 37.984 121.918 36.7055C120.538 35.4269 119.847 33.6156 119.821 31.3249V17.0211H115.333V12.6261H119.794V4.79492H124.574V12.6261H130.815V17.0211H124.574V29.7533C124.574 31.4581 124.893 32.6034 125.557 33.2161C126.221 33.8287 126.964 34.1217 127.787 34.1217C128.159 34.1217 128.531 34.0684 128.903 33.9885C129.274 33.9086 129.593 33.7754 129.912 33.6423L131.425 37.9307C130.23 38.3836 128.77 38.6233 127.097 38.6233Z" fill="#F2F2F2"/>
<path d="M144.996 39.0228C141.251 39.0228 138.171 37.7443 135.728 35.1605C133.311 32.5768 132.089 29.3271 132.089 25.4115C132.089 21.5226 133.258 18.273 135.621 15.6892C137.985 13.1055 140.986 11.8003 144.677 11.8003C148.448 11.8003 151.475 13.0256 153.706 15.4761C155.937 17.9267 157.052 21.3628 157.052 25.7845L156.999 26.3172H136.976C137.055 28.821 137.879 30.8454 139.472 32.3637C141.065 33.882 142.977 34.6544 145.208 34.6544C148.262 34.6544 150.652 33.1361 152.378 30.0729L156.654 32.1506C155.512 34.3081 153.918 35.9862 151.9 37.2115C149.855 38.4102 147.545 39.0228 144.996 39.0228ZM137.347 22.3217H151.98C151.847 20.5371 151.13 19.0721 149.829 17.9001C148.528 16.728 146.775 16.142 144.597 16.142C142.791 16.142 141.251 16.7014 139.95 17.8201C138.622 18.9655 137.772 20.4572 137.347 22.3217Z" fill="#F2F2F2"/>
</svg>
