<svg width="163" height="41" viewBox="0 0 163 41" fill="none" xmlns="http://www.w3.org/2000/svg">
<path d="M0 5.59328V10.561L5.69953 16.0751L12.4263 19.8837L13.6689 11.5214L12.4263 3.73868L8.94694 1.13892C5.25219 -1.64299 0 0.989888 0 5.59328Z" fill="#F2F2F2"/>
<path d="M42.2495 3.73851L41.0068 11.6206L42.2495 19.8835L48.3466 16.8698L54.6758 10.5774V5.60967C54.6758 1.00628 49.4236 -1.6266 45.7288 1.13875L42.2495 3.73851Z" fill="#F2F2F2"/>
<path d="M3.72789 40.9959H12.4263V19.8832L0 10.5605V37.2536C0 39.3069 1.67341 40.9794 3.72789 40.9794V40.9959Z" fill="#F2F2F2"/>
<path d="M42.2495 40.9959H50.9479C53.0023 40.9959 54.6758 39.3235 54.6758 37.2702V10.5605L42.2495 19.8667V40.9794V40.9959Z" fill="#F2F2F2"/>
<path d="M27.3379 14.9156L12.4263 3.73828V19.8833L27.3379 31.0606L42.2495 19.8833V3.73828L27.3379 14.9156Z" fill="#F2F2F2"/>
<path d="M98.1513 21.556C98.1513 25.1989 97.0743 28.0968 94.9038 30.266C92.4683 32.8326 89.2706 34.1242 85.3107 34.1242C81.3509 34.1242 78.3189 32.8161 75.6845 30.1832C73.0501 27.5503 71.7412 24.3379 71.7412 20.4962C71.7412 16.6545 73.0501 13.4255 75.6845 10.8092C78.3023 8.19288 81.5166 6.86816 85.3107 6.86816C87.2327 6.86816 89.0386 7.2159 90.7452 7.89482C92.4517 8.57374 93.8435 9.53416 94.937 10.7761L92.5346 13.1771C91.7393 12.2002 90.6955 11.455 89.4031 10.9251C88.1439 10.3621 86.7853 10.0806 85.3273 10.0806C82.4775 10.0806 80.0751 11.0576 78.1035 13.0281C76.165 15.0152 75.1874 17.5156 75.1874 20.4962C75.1874 23.4768 76.165 25.9772 78.1035 27.9643C80.0751 29.9348 82.4775 30.9118 85.3273 30.9118C87.9285 30.9118 90.0824 30.1832 91.8221 28.726C93.5452 27.2688 94.5393 25.2652 94.8044 22.7151H85.3273V19.5854H97.969C98.085 20.2644 98.1513 20.9267 98.1513 21.556ZM105.143 33.5447H101.796V15.6941H105.011V18.1779H105.16C105.673 17.3003 106.452 16.5717 107.496 15.9922C108.573 15.4126 109.617 15.1145 110.66 15.1145C111.969 15.1145 113.129 15.4126 114.123 16.0253C115.117 16.638 115.846 17.4659 116.31 18.5422C117.785 16.2571 119.839 15.1145 122.474 15.1145C124.545 15.1145 126.135 15.7438 127.245 17.0023C128.355 18.2607 128.919 20.0657 128.919 22.4005V33.5447H125.572V22.9138C125.572 21.2413 125.274 20.0325 124.661 19.3039C124.048 18.5588 123.037 18.1779 121.596 18.1779C120.303 18.1779 119.226 18.7244 118.348 19.8173C117.47 20.9102 117.039 22.2018 117.039 23.6755V33.5447H113.692V22.9138C113.692 21.2413 113.394 20.0325 112.781 19.3039C112.168 18.5588 111.157 18.1779 109.716 18.1779C108.424 18.1779 107.347 18.7244 106.469 19.8173C105.59 20.9102 105.16 22.2018 105.16 23.6755V33.5447H105.143ZM135.215 28.0802C135.215 28.9578 135.579 29.6864 136.308 30.266C137.054 30.8455 137.932 31.1436 138.926 31.1436C140.334 31.1436 141.594 30.6137 142.687 29.5705C143.797 28.5273 144.361 27.3019 144.361 25.8944C143.317 25.0665 141.859 24.6525 139.986 24.6525C138.628 24.6525 137.485 24.9837 136.557 25.6295C135.662 26.2918 135.215 27.1032 135.215 28.0636V28.0802ZM139.556 15.098C142.041 15.098 143.996 15.7603 145.421 17.1016C146.862 18.4098 147.575 20.2147 147.575 22.5329V33.5281H144.361V31.0443H144.211C142.82 33.081 140.981 34.1077 138.678 34.1077C136.706 34.1077 135.049 33.5281 133.724 32.3524C132.415 31.1933 131.752 29.7361 131.752 27.9808C131.752 26.1428 132.448 24.6691 133.823 23.5762C135.231 22.4833 137.104 21.9368 139.44 21.9368C141.428 21.9368 143.068 22.3011 144.361 23.0297V22.268C144.361 21.1089 143.897 20.1153 142.969 19.3205C142.041 18.4926 140.964 18.0786 139.721 18.0786C137.849 18.0786 136.375 18.8734 135.281 20.4465L132.332 18.5919C133.956 16.2571 136.358 15.098 139.556 15.098ZM155.826 9.53416C155.826 10.1965 155.594 10.743 155.13 11.2066C154.666 11.6703 154.103 11.9021 153.457 11.9021C152.81 11.9021 152.247 11.6703 151.783 11.2066C151.319 10.743 151.087 10.18 151.087 9.53416C151.087 8.88836 151.319 8.32535 151.783 7.8617C152.247 7.39805 152.81 7.16623 153.457 7.16623C154.103 7.16623 154.666 7.39805 155.13 7.8617C155.594 8.32535 155.826 8.88836 155.826 9.53416ZM155.147 15.6941V33.5447H151.8V15.6941H155.147ZM163 7.44773V33.5281H159.653V7.44773H163Z" fill="#F2F2F2"/>
</svg>
