<svg width="102" height="70" viewBox="0 0 102 70" fill="none" xmlns="http://www.w3.org/2000/svg">
<path d="M10.4551 69.4902C10.4551 36.4853 18.5486 6.73526 24.3662 6.73438C29.2621 6.73438 33.6335 19.7155 35.1797 44.6934H46.8135C48.3668 19.7155 52.7532 6.73404 57.623 6.73438C61.9243 6.73533 67.4624 22.9355 70.0693 44.6934H79.6289C75.2948 20.9932 65.7762 0.000587463 57.3516 0C47.6403 0 42.5476 20.565 41.0029 31.9668C39.4459 20.5624 34.3521 0.00321198 24.6543 0C13.2966 -0.00314331 0.00981633 37.9898 0 69.4902H10.4551ZM46.2148 65.5146C46.2148 62.5125 46.2471 59.6209 46.3096 56.8418H35.6807C35.7428 59.6209 35.7744 62.5125 35.7744 65.5146H46.2148ZM82.0068 69.4902C82.0073 65.3533 81.7748 61.1036 81.3496 56.8418H71.1631C71.414 60.964 71.5518 65.1995 71.5518 69.4902H82.0068Z" fill="#F2F2F2"/>
<path fill-rule="evenodd" clip-rule="evenodd" d="M77.4706 55.623H80.501V45.6711H77.4706V55.623Z" fill="#F2F2F2"/>
<path fill-rule="evenodd" clip-rule="evenodd" d="M91.6449 45.6707H93.7087L93.0078 48.3828H91.5073L91.6449 45.6707Z" fill="#F2F2F2"/>
<path fill-rule="evenodd" clip-rule="evenodd" d="M97.2645 47.1448C99.2804 47.1448 101.174 47.6526 101.183 49.628H98.3057C98.3057 48.9475 97.9078 48.6382 97.236 48.6382C96.8375 48.6382 96.2988 48.8034 96.2988 49.4271C96.2994 50.462 97.9388 50.255 99.3308 50.6675C100.581 51.0378 101.448 51.7825 101.448 52.9852C101.448 54.8276 100 55.847 97.2645 55.8578C94.3959 55.8692 93.3165 54.837 93.3075 52.9852H96.2232C96.2232 53.6842 96.6586 54.1002 97.2735 54.1002C98.0099 54.1002 98.3438 53.8212 98.3438 53.3016C98.3438 52.2198 96.3337 52.2478 95.1484 51.8606C94.3423 51.5969 93.6098 51.0005 93.6098 49.7341C93.6098 48.676 94.4049 47.1448 97.2645 47.1448Z" fill="#F2F2F2"/>
<path fill-rule="evenodd" clip-rule="evenodd" d="M35.2027 52.6072C34.6999 54.5857 33.0557 55.8681 31.0051 55.8687C28.5294 55.8687 26.6461 53.9985 26.6487 51.2922C26.6506 48.5894 28.3245 46.719 31.0051 46.7164C33.2278 46.7145 34.7581 48.0035 35.2176 49.9847L32.3818 49.9849C32.1643 49.3895 31.7465 48.9251 31.0051 48.9246C29.7539 48.9243 29.4239 50.2481 29.4244 51.2922C29.4247 52.3369 29.7539 53.66 31.0051 53.66C31.7434 53.66 32.1605 53.1996 32.3788 52.6074L35.2027 52.6072Z" fill="#F2F2F2"/>
<path fill-rule="evenodd" clip-rule="evenodd" d="M14.2967 45.6721H17.9172L19.4932 51.5513L21.0692 45.6721H24.6922L26.2752 55.8687H23.2881L22.4991 49.9096L20.8666 55.8687H18.1199L16.4876 49.9096L15.6981 55.8687H12.7089L14.2967 45.6721Z" fill="#F2F2F2"/>
<path fill-rule="evenodd" clip-rule="evenodd" d="M60.7352 50.747C60.7352 51.0949 60.7352 55.624 60.7352 55.624H57.7394V46.9294H60.7352V47.6087C61.4935 47.0188 62.1789 46.7156 63.7336 46.7156C65.4221 46.7156 66.7824 47.842 66.783 49.0245V55.624H63.7659V50.8382C63.7672 50.0433 63.0541 49.3952 62.2777 49.3952C61.2791 49.3952 60.7824 50.2773 60.7352 50.747Z" fill="#F2F2F2"/>
<path fill-rule="evenodd" clip-rule="evenodd" d="M87.4631 47.793V45.6715H90.4932V55.6235H87.4631V55.1406C87.0652 55.4993 86.5433 55.8657 85.2372 55.8657C83.7678 55.8657 81.4334 55.0507 81.4314 51.5494C81.4295 48.0532 83.7652 47.1457 85.4265 47.1457C86.6331 47.1457 87.2028 47.5615 87.4631 47.793ZM84.3187 51.5494C84.3187 52.9103 84.953 53.7798 85.9949 53.7798C86.6195 53.7798 87.1421 53.508 87.4644 52.941V50.3304C87.3029 49.7541 86.7423 49.3292 85.9949 49.329C84.9511 49.3283 84.3187 50.1888 84.3187 51.5494Z" fill="#F2F2F2"/>
<path fill-rule="evenodd" clip-rule="evenodd" d="M47.6812 51.2929C47.6838 48.5901 49.4397 46.7192 52.2516 46.7167C55.0646 46.7142 56.8203 48.5901 56.8222 51.2929C56.8247 53.9988 55.064 55.8687 52.2516 55.8687C49.4424 55.8689 47.679 53.9988 47.6812 51.2929ZM53.9879 51.2929C53.9885 50.2484 53.6261 48.9251 52.2516 48.9251C50.8774 48.9245 50.515 50.2484 50.5153 51.2929C50.5159 52.3372 50.8774 53.6605 52.2516 53.6605C53.6261 53.6605 53.9879 52.3372 53.9879 51.2929Z" fill="#F2F2F2"/>
<path fill-rule="evenodd" clip-rule="evenodd" d="M36.2586 45.6721H41.4647C44.7218 45.6721 46.9417 47.6917 46.9417 50.7703C46.9417 53.8487 44.7224 55.8687 41.4647 55.8687H36.2586V45.6721ZM39.7025 53.4582H41.2764C42.2963 53.4582 43.5377 52.8374 43.5377 50.7703C43.5377 48.7057 42.2963 48.0826 41.2764 48.0826H39.7025V53.4582Z" fill="#F2F2F2"/>
<path fill-rule="evenodd" clip-rule="evenodd" d="M72.1876 46.7182C74.3379 46.7163 76.1103 47.5058 76.2485 49.239V55.6241H73.2159V54.7633C72.4795 55.3932 71.7457 55.8657 70.4203 55.8657C68.8765 55.8657 67.6325 54.6474 67.6325 53.2193C67.6325 51.7909 68.5135 50.2041 72.0409 50.2049C72.9504 50.2051 73.2152 49.848 73.2159 49.4226C73.2171 48.9002 72.6139 48.6088 72.1088 48.6088C71.6036 48.6088 71.0307 48.8188 71.0307 49.3649H68.1899C68.1899 48.0836 69.0529 46.7212 72.1876 46.7182ZM72.0196 51.6177C71.3201 51.6177 70.6729 51.9904 70.6729 52.7044C70.6729 53.1669 70.9467 53.5661 71.6618 53.5659C72.3458 53.5659 73.0757 53.1608 73.2159 52.3211V51.5257C72.9846 51.6519 72.4614 51.6177 72.0196 51.6177Z" fill="#F2F2F2"/>
<path fill-rule="evenodd" clip-rule="evenodd" d="M86.6422 62.7045H88.5037C89.4255 62.7045 90.0391 63.1987 90.0391 63.8515C90.0391 64.4545 89.574 64.8502 88.9992 64.8996V64.9194C89.8809 65.2159 90.0094 65.829 90.0197 66.6596H89.1878C89.1581 65.6609 88.9397 65.226 88.0587 65.226H87.3746V66.6596H86.6422V62.7045ZM87.3746 64.593H88.2466C88.93 64.593 89.2071 64.3558 89.2071 63.9107C89.2071 63.5745 88.9992 63.3372 88.3655 63.3372H87.3746V64.593ZM88.1672 61.33C90.0494 61.33 91.5745 62.8428 91.5745 64.7315C91.5745 66.6201 90.0494 68.1328 88.1672 68.1328C86.285 68.1328 84.7599 66.6201 84.7599 64.7315C84.7599 62.8428 86.285 61.33 88.1672 61.33ZM88.1672 67.7671C89.8414 67.7671 91.2082 66.4125 91.2082 64.7315C91.2082 63.0506 89.8414 61.696 88.1672 61.696C86.4936 61.696 85.1262 63.0506 85.1262 64.7315C85.1262 66.4125 86.4936 67.7671 88.1672 67.7671Z" fill="#F2F2F2"/>
</svg>
