<svg width="145" height="16" viewBox="0 0 145 16" fill="none" xmlns="http://www.w3.org/2000/svg">
<path d="M57.5331 15.7056H46.7014V0.296875H57.2022V2.12481H48.6206V6.81188H56.6507V8.65154H48.6206V13.8776H57.5331V15.7056Z" fill="#F2F2F2"/>
<path d="M69.2363 15.7056H60.2466V0.296875H62.1659V13.8776H69.2363V15.7056Z" fill="#F2F2F2"/>
<path d="M82.3735 15.7056H71.5417V0.296875H82.0425V2.12481H73.4609V6.81188H81.491V8.65154H73.4609V13.8776H82.3735V15.7056Z" fill="#F2F2F2"/>
<path d="M110.06 2.12481H105.25V15.7056H103.331V2.12481H98.566V0.296875H110.06V2.12481Z" fill="#F2F2F2"/>
<path d="M124.234 15.7056H122.149L120.792 11.581C120.667 11.2216 120.502 10.8935 120.296 10.5967C120.097 10.292 119.858 10.0342 119.579 9.82331C119.307 9.60458 119.002 9.43272 118.663 9.30773C118.332 9.18274 117.979 9.12024 117.604 9.12024H114.053V15.7056H112.133V0.296875H118.553C118.943 0.296875 119.314 0.304687 119.667 0.320307C120.027 0.335927 120.362 0.378878 120.671 0.44919C120.987 0.519502 121.289 0.621058 121.575 0.753852C121.862 0.886645 122.134 1.07023 122.392 1.30459C122.833 1.70299 123.164 2.19903 123.384 2.79272C123.612 3.3786 123.726 3.98012 123.726 4.59725C123.726 5.12845 123.649 5.62449 123.495 6.08538C123.348 6.53846 123.134 6.94076 122.855 7.29229C122.575 7.64382 122.233 7.94068 121.829 8.18284C121.425 8.41719 120.972 8.59686 120.472 8.72185C121.472 9.04995 122.248 9.97954 122.8 11.5106L124.234 15.7056ZM114.053 7.28058H118.354C119.546 7.28058 120.41 7.08138 120.947 6.68298C121.483 6.28458 121.752 5.58934 121.752 4.59725C121.752 2.86304 120.715 1.99593 118.641 1.99593H114.053V7.28058Z" fill="#F2F2F2"/>
<path d="M128.955 15.7056H127.035V0.296875H128.955V15.7056Z" fill="#F2F2F2"/>
<path d="M144.841 1.95408L144.093 3.02603C143.555 2.79012 142.604 2.24601 141.985 1.95422C141.036 1.50634 140.298 1.52334 139.411 1.50787C138.44 1.49923 137.454 1.76938 136.555 2.18312C135.966 2.45653 135.462 2.85493 135.043 3.37832C134.632 3.90171 134.312 4.554 134.084 5.33517C133.863 6.10854 133.753 6.99517 133.753 7.99508C133.753 8.99498 133.863 9.88162 134.084 10.655C134.312 11.4205 134.628 12.0689 135.032 12.6001C135.444 13.1313 135.94 13.5375 136.521 13.8187C137.11 14.0922 137.764 14.2289 138.485 14.2289C139.308 14.2703 140.645 14.169 141.853 13.8447C142.484 13.6755 142.878 13.4874 143.284 13.2235C143.575 13.0345 143.974 12.784 144 12.5784L144.841 13.7202C144.891 14.3229 143.075 15.1036 142.777 15.2525C141.222 15.8717 140.384 15.9808 138.518 15.9748C137.481 15.9748 136.547 15.7873 135.716 15.4123C134.885 15.0374 134.176 14.5062 133.587 13.8187C133.006 13.1235 132.558 12.2837 132.242 11.2994C131.925 10.3074 131.767 9.2059 131.767 7.99508C131.767 6.78425 131.925 5.6867 132.242 4.70242C132.565 3.71033 133.017 2.87056 133.598 2.18312C134.187 1.48788 134.896 0.952774 135.727 0.57781C136.558 0.195034 137.488 0.00364288 138.518 0.00364288C139.29 0.00364288 140.579 -0.0422905 141.263 0.192055C142.076 0.333955 142.75 0.515959 143.355 0.884496C143.959 1.29176 144.383 1.50717 144.841 1.95408Z" fill="#F2F2F2"/>
<path d="M97.0539 1.95408L96.3058 3.02603C95.7673 2.79012 94.817 2.24601 94.1982 1.95422C93.2485 1.50634 92.511 1.52334 91.624 1.50787C90.6526 1.49923 89.6669 1.76938 88.7672 2.18312C88.1789 2.45653 87.6752 2.85493 87.2561 3.37832C86.8443 3.90171 86.5244 4.554 86.2964 5.33517C86.0758 6.10854 85.9655 6.99517 85.9655 7.99508C85.9655 8.99498 86.0759 9.8816 86.2964 10.655C86.5244 11.4205 86.8406 12.0689 87.245 12.6001C87.6568 13.1313 88.1532 13.5375 88.7341 13.8187C89.3224 14.0922 89.9769 14.2289 90.6975 14.2289C91.5206 14.2703 92.8574 14.1689 94.0662 13.8447C94.6971 13.6755 95.0906 13.4874 95.4967 13.2235C95.7874 13.0345 96.187 12.784 96.2123 12.5784L97.0539 13.7202C97.1032 14.3229 95.2879 15.1036 94.9897 15.2525C93.4352 15.8717 92.5971 15.9808 90.7306 15.9748C89.6938 15.9748 88.7599 15.7873 87.9289 15.4123C87.098 15.0374 86.3883 14.5062 85.8001 13.8187C85.2191 13.1235 84.7706 12.2837 84.4544 11.2994C84.1382 10.3074 83.9801 9.2059 83.9801 7.99508C83.9801 6.78425 84.1381 5.6867 84.4544 4.70242C84.7779 3.71033 85.2302 2.87056 85.8111 2.18312C86.3994 1.48788 87.109 0.952774 87.94 0.57781C88.7709 0.195034 89.7011 0.00364288 90.7306 0.00364288C91.5027 0.00364288 92.7917 -0.0422905 93.4755 0.192055C94.2885 0.333955 94.963 0.515944 95.568 0.884481C96.1713 1.29175 96.5958 1.50717 97.0539 1.95408Z" fill="#F2F2F2"/>
<path d="M33.1298 7.49198L28.3733 15.6621L24.3152 15.6782L33.1298 0.300293L41.9115 15.6782H37.789L33.1298 7.49198Z" fill="#F2F2F2"/>
<path d="M20.3221 12.0744H24.8673L22.757 15.631H16.8329L16.8489 11.3004V0.347656H20.3389L20.3221 12.0744Z" fill="#F2F2F2"/>
<path d="M7.85645 0.356445C12.1902 0.372588 15.6967 3.78563 15.6807 8.00488C15.6645 12.2086 12.1585 15.6228 7.82422 15.623C3.5066 15.6069 0.000168411 12.1936 0 7.97363C0.0159902 3.76969 3.52202 0.35659 7.85645 0.356445ZM7.85645 3.91895C5.55114 3.90295 3.66807 5.73738 3.66797 7.98145C3.65198 10.2249 5.53611 12.0586 7.84082 12.0586C10.1614 12.0585 12.0272 10.2412 12.0273 7.99707C12.0453 5.75364 10.1612 3.91895 7.85645 3.91895Z" fill="#F2F2F2"/>
</svg>
