<svg width="99" height="22" viewBox="0 0 99 22" fill="none" xmlns="http://www.w3.org/2000/svg">
<path d="M58.3733 5.78969C60.3038 5.78969 61.7964 6.22504 62.8501 7.09574C63.9037 7.96709 64.441 9.24342 64.4606 10.926H61.7716C61.7517 8.92692 60.5993 7.92736 58.3142 7.92736C57.3686 7.92736 56.6197 8.12017 56.0686 8.50611C55.5168 8.89172 55.2413 9.41168 55.2413 10.0647C55.2413 10.5007 55.3442 10.8566 55.5516 11.1334C55.7586 11.4108 56.029 11.6382 56.3641 11.8161C56.6985 11.995 57.093 12.1381 57.546 12.2466C57.9994 12.3564 58.4814 12.4598 58.9933 12.5586C59.6637 12.6975 60.3533 12.8512 61.0626 13.0188C61.7716 13.1871 62.4067 13.4393 62.9681 13.7758C63.5304 14.1124 63.9925 14.5677 64.3571 15.142C64.7217 15.7162 64.9037 16.4777 64.9037 17.4279C64.9037 18.1209 64.7461 18.7488 64.4304 19.3127C64.1153 19.8772 63.6822 20.3571 63.1307 20.7531C62.5796 21.1493 61.9237 21.4558 61.1655 21.6735C60.4074 21.8915 59.5846 21.9997 58.6984 21.9997C56.5712 21.9997 54.9352 21.5353 53.7934 20.6045C52.689 19.7057 52.1112 18.4365 52.0555 16.7994H54.8056C54.8407 17.8002 55.1802 18.5605 55.8326 19.0756C56.5216 19.6201 57.4972 19.8917 58.7573 19.8917C59.8016 19.8917 60.6045 19.6989 61.1662 19.3127C61.7273 18.9267 62.008 18.358 62.008 17.6055C62.008 17.1307 61.8993 16.75 61.6832 16.4625C61.4662 16.1764 61.1755 15.9387 60.8109 15.7504C60.4463 15.5624 60.0283 15.4136 59.555 15.3047C59.0823 15.1962 58.5897 15.0922 58.0775 14.9931C57.4041 14.8735 56.7342 14.7348 56.0686 14.5771C55.3985 14.4195 54.7928 14.1766 54.251 13.8504C53.7095 13.5233 53.2658 13.0731 52.9218 12.4995C52.5764 11.9253 52.4041 11.1738 52.4041 10.2433C52.4041 9.58964 52.5472 8.99087 52.8327 8.44668C53.1182 7.90249 53.5224 7.43259 54.0445 7.03664C54.5661 6.64069 55.1918 6.33356 55.9207 6.11621C56.6499 5.89821 57.4673 5.78969 58.3733 5.78969ZM44.042 5.78969C46.4252 5.78969 48.1737 6.5719 49.2871 8.13438C50.4 9.69847 50.9572 11.9056 50.9572 14.7557H39.5797C39.6187 15.5082 39.7566 16.1954 39.9936 16.8188C40.2299 17.4427 40.5498 17.9769 40.9537 18.4226C41.3438 18.8576 41.8159 19.2106 42.3427 19.4612C42.8642 19.7089 43.4404 19.8326 44.0712 19.8326C45.0564 19.8326 45.8982 19.6049 46.5978 19.1499C47.2965 18.6945 47.9129 17.8777 48.0798 16.7994H50.9562C50.6176 18.6874 49.7887 19.8969 48.5184 20.7379C47.2473 21.5789 45.7355 22 43.9825 22C41.6379 22 39.846 21.2824 38.6052 19.8472C37.3637 18.4122 36.7429 16.4286 36.7429 13.8944C36.7429 12.7472 36.9101 11.6779 37.2451 10.6883C37.5801 9.69847 38.0673 8.83779 38.7081 8.10499C39.3445 7.37541 40.1308 6.793 41.0128 6.39783C41.9089 5.99251 42.9189 5.78969 44.0417 5.78969H44.042ZM22.5456 5.78969C23.6883 5.78969 24.7175 5.98767 25.6339 6.38329C26.5496 6.77924 27.3277 7.33828 27.9682 8.06075C28.6081 8.78321 29.101 9.63937 29.4453 10.6289C29.79 11.6188 29.963 12.7068 29.963 13.8944C29.963 15.0822 29.79 16.1757 29.4453 17.1756C29.1003 18.1749 28.6084 19.0307 27.9679 19.7438C27.3281 20.4559 26.5445 21.0101 25.6188 21.4061C24.6928 21.8014 23.6584 22 22.5166 22C21.3938 22 20.3788 21.8014 19.4727 21.4058C18.5663 21.0101 17.793 20.4556 17.1528 19.7438C16.513 19.0307 16.0252 18.1749 15.6905 17.1756C15.3554 16.1764 15.1879 15.0822 15.1879 13.8944C15.1879 12.7068 15.3603 11.6188 15.7056 10.6292C16.0496 9.63937 16.5371 8.78321 17.1679 8.06075C17.7981 7.33828 18.5714 6.77924 19.4875 6.38329C20.4035 5.98767 21.4231 5.78969 22.5452 5.78969H22.5456ZM81.6256 5.78969C83.0635 5.78969 84.1863 6.00769 84.9937 6.44272C85.802 6.87839 86.402 7.43227 86.7965 8.10499C87.1901 8.77836 87.4319 9.52537 87.5203 10.3467C87.6079 11.1404 87.6525 11.9383 87.6541 12.7369V16.9228C87.6541 17.8135 87.6779 18.6354 87.7274 19.3869C87.773 20.1167 87.8767 20.8416 88.0377 21.5546H85.4969C85.4491 21.2839 85.4095 21.0117 85.3783 20.7385C85.3387 20.4114 85.3091 19.9909 85.2892 19.4764C84.6397 20.3477 83.8905 20.9659 83.0443 21.3318C82.1967 21.698 81.2215 21.8815 80.1183 21.8815C78.4238 21.8815 77.1194 21.4506 76.203 20.5896C75.2873 19.7286 74.8291 18.6154 74.8291 17.2493C74.8291 16.4183 74.9918 15.7207 75.3168 15.1565C75.6376 14.5969 76.0826 14.1193 76.6171 13.7607C77.1583 13.3951 77.7843 13.1076 78.4933 12.8996C79.2102 12.6905 79.9408 12.5319 80.6797 12.4249C81.4282 12.3164 82.1774 12.2321 82.9256 12.173C83.6741 12.1136 84.3635 12.0441 84.994 11.9647V11.4302C84.994 10.283 84.7281 9.39683 84.1966 8.77319C83.6642 8.14988 82.8076 7.83823 81.6256 7.83823C80.562 7.83823 79.7051 8.10047 79.055 8.62463C78.4049 9.14944 78.0798 9.92616 78.0798 10.9554H75.3908C75.3908 10.1639 75.5429 9.45141 75.8483 8.81808C76.1506 8.18852 76.5902 7.63548 77.1345 7.20006C77.6856 6.75437 78.3409 6.40816 79.0994 6.16077C79.8572 5.91306 80.6993 5.78937 81.6256 5.78937V5.78969ZM70.6569 2.52425V6.23473H73.967V8.49093H70.6569V16.1215C70.6569 16.6557 70.672 17.1356 70.7016 17.5612C70.7308 17.9869 70.8051 18.3428 70.9231 18.6299C71.0411 18.9174 71.2237 19.1347 71.4697 19.2836C71.7157 19.4318 72.0552 19.5061 72.489 19.5061C72.7054 19.5061 72.9372 19.5016 73.1835 19.4909C73.4298 19.4812 73.7102 19.4367 74.0253 19.3572V21.5546C73.2182 21.7326 72.4694 21.8214 71.7797 21.8214C71.1887 21.8214 70.652 21.7478 70.1691 21.5989C69.6868 21.4506 69.283 21.2087 68.9579 20.8722C68.6328 20.5347 68.3817 20.0803 68.2049 19.5061C68.0267 18.9325 67.9386 18.2294 67.9386 17.3981V8.49093H65.1313V6.23473H67.9386V2.52393H70.6569V2.52425ZM97.2862 6.05678C97.8573 6.05678 98.4283 6.11621 99 6.23441V8.63916C98.6858 8.58366 98.3705 8.53413 98.0544 8.4906C97.7704 8.45212 97.4843 8.43237 97.1978 8.4315C96.3705 8.4315 95.6953 8.57522 95.1734 8.86201C94.658 9.14293 94.2327 9.56518 93.9471 10.0796C93.6523 10.6037 93.4452 11.2422 93.3266 11.9947C93.2085 12.7472 93.1497 13.5882 93.1497 14.518V21.5543H90.4308V6.23473H93.0015V8.49093C93.5925 7.5608 94.2426 6.92296 94.9516 6.57642C95.6612 6.23021 96.439 6.05646 97.2859 6.05646V6.05678L97.2862 6.05678ZM34.705 0.000322959V21.5543H31.9867V0H34.705V0.000322959ZM6.50075 0.000322959C7.40651 0.000322959 8.35246 0.040047 9.33764 0.118849C10.3225 0.197974 11.2877 0.47475 12.2337 0.950147C13.179 1.46462 13.8925 2.21163 14.3761 3.19181C14.8584 4.17134 15.0998 5.2749 15.0998 6.50214C15.0998 7.80819 14.8381 8.92111 14.3166 9.84154C13.7944 10.762 13.0902 11.4903 12.2041 12.0241C11.5932 12.381 10.7958 12.6432 9.81029 12.8108C8.82512 12.9791 7.66245 13.0637 6.32391 13.0637H2.89573V21.5543H0V0H6.50075V0.000322959ZM84.9934 14.073C84.422 14.1521 83.7134 14.2167 82.8661 14.2658C82.0387 14.3125 81.2175 14.4368 80.4131 14.6372C79.6254 14.8348 78.9553 15.1368 78.4042 15.5427C77.8525 15.9481 77.5769 16.5371 77.5769 17.3093C77.5769 18.0612 77.8576 18.679 78.4187 19.1644C78.981 19.6498 79.753 19.8917 80.7382 19.8917C81.2893 19.8917 81.8218 19.8233 82.3343 19.6837C82.8425 19.5478 83.3093 19.2878 83.6931 18.9267C84.0873 18.5611 84.4024 18.0563 84.6391 17.4127C84.8757 16.7697 84.9937 15.9432 84.9937 14.934V14.073H84.9934ZM22.5456 7.98646C21.8556 7.98646 21.2308 8.12534 20.6697 8.40179C20.1074 8.67954 19.6299 9.07516 19.2364 9.58964C18.8422 10.1041 18.5367 10.7232 18.32 11.4454C18.1029 12.1678 17.9952 12.9746 17.9952 13.8653C17.9952 14.7557 18.0984 15.5673 18.3055 16.2994C18.5119 17.0319 18.8123 17.6604 19.2068 18.1849C19.6003 18.7094 20.0781 19.115 20.6398 19.4021C21.2016 19.6889 21.8263 19.8326 22.5157 19.8326C23.2256 19.8326 23.87 19.6889 24.4519 19.4021C25.0257 19.1208 25.5264 18.7091 25.9143 18.1997C26.3078 17.6856 26.6133 17.0671 26.83 16.3434C27.047 15.6222 27.1551 14.8148 27.1551 13.9241C27.1551 13.0334 27.0464 12.2276 26.83 11.5048C26.613 10.7823 26.3033 10.1587 25.8998 9.6342C25.4956 9.10972 25.013 8.70408 24.4519 8.41697C23.8902 8.13018 23.2549 7.98646 22.5452 7.98646H22.5458H22.5456ZM43.924 7.98646C42.7616 7.98646 41.8057 8.35787 41.0569 9.09971C40.3083 9.84187 39.8357 10.9851 39.6389 12.5289H48.0605C47.9026 10.9851 47.4496 9.84187 46.7011 9.09971C45.9525 8.35787 45.0265 7.98646 43.9233 7.98646H43.924ZM6.61876 2.3744H2.89573V10.689H6.6194C7.36761 10.689 8.04733 10.6541 8.65792 10.585C9.26883 10.5156 9.74084 10.4019 10.0765 10.2436C10.746 9.9071 11.2533 9.40232 11.5977 8.72895C11.943 8.05655 12.1154 7.31439 12.1154 6.50247C12.1154 5.69119 11.943 4.95355 11.5977 4.29052C11.2527 3.6278 10.746 3.12754 10.0765 2.79134C9.74084 2.61307 9.26883 2.49971 8.65792 2.45029C8.04733 2.40056 7.36761 2.37537 6.6194 2.37537L6.61876 2.3744Z" fill="#F2F2F2"/>
</svg>
