<svg width="122" height="67" viewBox="0 0 122 67" fill="none" xmlns="http://www.w3.org/2000/svg">
<path d="M86.2244 43.1437C84.5359 43.5333 80.0918 43.7576 80.0918 43.7576L79.5289 45.5287C79.5289 45.5287 81.7451 45.3398 83.3633 45.5051C83.3633 45.5051 83.8909 45.4461 83.9496 46.1073C83.973 46.7212 83.9027 47.3824 83.9027 47.3824C83.9027 47.3824 83.8675 47.7839 83.3046 47.8783C82.6949 47.9846 78.5205 48.1381 78.5205 48.1381L77.8404 50.4405C77.8404 50.4405 77.5941 50.9718 78.157 50.8183C78.6847 50.6766 83.0584 49.8501 83.633 49.9682C84.2427 50.1217 84.9228 50.9364 84.7235 51.6921C84.489 52.613 80.1269 55.4231 77.4652 55.2224C77.4652 55.2224 76.0698 55.3169 74.8855 53.4159C73.7832 51.6094 75.3076 48.1735 75.3076 48.1735C75.3076 48.1735 74.6158 46.5677 75.12 46.0364C75.12 46.0364 75.4249 45.7648 76.2926 45.694L77.3596 43.4624C77.3596 43.4624 76.1401 43.5451 75.4131 42.6478C74.733 41.7858 74.6861 41.3962 75.2021 41.16C75.7532 40.8885 80.8305 39.9557 84.3248 40.0738C84.3248 40.0738 85.5443 39.9557 86.5879 42.081C86.5762 42.081 87.0921 42.9429 86.2244 43.1437ZM73.0797 51.7157C72.6341 52.7783 71.4498 53.9118 69.9841 53.2034C68.5301 52.4949 66.2201 47.7367 66.2201 47.7367C66.2201 47.7367 65.3406 45.9656 65.1765 46.001C65.1765 46.001 64.9888 45.6586 64.8716 47.595C64.7543 49.5313 64.895 53.2978 64.1329 53.8882C63.4059 54.4786 62.5264 54.2424 62.0691 53.5458C61.6587 52.861 61.4828 51.2316 61.7056 48.3742C61.9753 45.5169 62.6319 42.4706 63.4762 41.5143C64.3205 40.5697 65.0006 41.2545 65.2585 41.5025C65.2585 41.5025 66.3842 42.5297 68.2486 45.5523L68.577 46.1073C68.577 46.1073 70.2655 48.9646 70.4414 48.9528C70.4414 48.9528 70.5821 49.0827 70.6993 48.9882C70.8752 48.941 70.8049 48.02 70.8049 48.02C70.8049 48.02 70.4531 44.9147 68.917 39.6487C68.917 39.6487 68.6825 38.9875 68.8466 38.3735C68.9991 37.7478 69.6206 38.0429 69.6206 38.0429C69.6206 38.0429 72.0126 39.2473 73.1618 43.1673C74.2992 47.1227 73.5253 50.653 73.0797 51.7157ZM61.3304 41.6441C61.131 42.0456 61.0138 42.6241 60.0054 42.7776C60.0054 42.7776 50.355 43.4388 49.8977 44.1236C49.8977 44.1236 49.5576 44.5251 50.0853 44.6432C50.6129 44.7494 52.7939 45.0446 53.8493 45.1036C54.975 45.1155 58.7741 45.1509 60.1343 46.8629C60.1343 46.8629 60.9434 47.6776 60.9082 49.5195C60.8731 51.4087 60.5447 52.0699 59.8177 52.7547C59.0556 53.3923 52.5125 56.3441 48.2912 51.8101C48.2912 51.8101 46.3447 49.6258 48.9596 47.9728C48.9596 47.9728 50.8475 46.8275 55.6433 48.1735C55.6433 48.1735 57.0973 48.7048 57.027 49.2362C56.9449 49.8029 55.8309 50.4051 54.2128 50.3697C52.6415 50.3224 51.4924 49.5668 51.7152 49.6848C51.9262 49.7675 50.0266 48.7639 49.4403 49.4487C48.8541 50.0745 48.9948 50.4641 49.5693 50.8537C51.0351 51.6921 56.6987 51.3969 58.3872 49.5077C58.3872 49.5077 59.0556 48.7403 58.0354 48.1145C57.0153 47.5241 54.0955 47.1699 52.9581 47.1109C51.8676 47.0518 47.8105 47.1227 47.2242 46.0364C47.2242 46.0364 46.6379 45.3044 47.2828 43.2263C47.9629 41.0538 52.6884 40.2155 54.7287 40.0266C54.7287 40.0266 60.3454 39.8258 61.3773 40.9829C61.3656 40.9829 61.5063 41.2545 61.3304 41.6441ZM45.3832 54.3841C44.7031 54.8918 43.2608 54.6675 42.8504 54.1007C42.44 53.593 42.2993 51.574 42.3814 48.4097C42.4635 45.2099 42.5338 41.2427 43.2139 40.6169C43.9409 39.9793 44.3865 40.5343 44.6679 40.9711C44.9728 41.3962 45.3363 41.8685 45.4184 42.8721C45.4887 43.8757 45.7233 49.1417 45.7233 49.1417C45.7233 49.1417 46.0281 53.8882 45.3832 54.3841ZM46.8489 37.4054C44.8673 38.0666 43.5071 37.8422 42.3579 37.3463C41.8537 38.2319 41.5606 38.5034 41.1736 38.5625C40.6108 38.6215 40.1066 37.7123 40.0128 37.4172C39.9189 37.1928 39.6493 36.815 39.9776 35.9177C38.8519 34.9022 38.7698 33.5326 38.9574 32.6116C39.2388 31.549 41.1384 27.5109 46.9193 27.0386C46.9193 27.0386 49.7452 26.8261 50.226 28.3492H50.3081C50.3081 28.3492 53.0519 28.3611 52.9933 30.8169C52.9581 33.2846 49.9446 36.3545 46.8489 37.4054ZM41.455 31.9386C40.8687 32.8832 40.8453 33.45 41.115 33.8396C41.7834 32.8124 43.0028 31.1948 44.7969 29.9668C43.4133 30.0849 42.2524 30.6871 41.455 31.9386ZM49.4403 30.3565C47.6228 30.628 44.8086 33.0839 43.4719 35.0912C45.5239 35.469 49.1472 35.3273 50.7536 32.0331C50.7419 32.0331 51.5158 29.9904 49.4403 30.3565ZM98.7828 49.3778C97.6923 51.2906 94.6318 55.2814 90.5512 54.3487C89.2028 57.6429 88.0771 60.9607 87.4321 65.9433C87.4321 65.9433 87.2914 66.9115 86.4941 66.5691C85.7084 66.2857 84.3951 64.9633 84.1372 63.1332C83.8558 60.7246 84.9228 56.6511 87.0921 51.9872C86.4589 50.9482 86.025 49.4605 86.4003 47.347C86.4003 47.347 86.9514 43.427 90.8561 39.8849C90.8561 39.8849 91.3251 39.4716 91.5948 39.6015C91.8997 39.7314 91.759 41.0066 91.5127 41.6205C91.2665 42.2345 89.5194 45.2808 89.5194 45.2808C89.5194 45.2808 88.4288 47.3352 88.7337 48.9528C90.7857 45.7767 95.4526 39.3654 98.3489 41.3844C99.3222 42.081 99.7678 43.6041 99.7678 45.2453C99.756 46.6976 99.416 48.2326 98.7828 49.3778ZM97.9385 44.348C97.9385 44.348 97.7744 43.0846 96.5549 44.4779C95.4995 45.6468 93.6 47.8547 92.0639 50.8419C93.6703 50.6648 95.2181 49.7793 95.6872 49.3306C96.4493 48.6458 98.2199 46.8039 97.9385 44.348ZM41.0095 45.9538C40.7867 48.8111 39.6962 53.6166 31.9688 55.9899C26.8681 57.5366 22.0487 56.7928 19.4221 56.1198C19.3635 57.1706 19.2463 57.6193 19.0821 57.7964C18.8593 58.0207 17.1942 58.9889 16.2796 57.6193C15.8692 56.9699 15.6581 55.7892 15.5409 54.7383C9.63104 51.999 6.91064 48.0554 6.80511 47.8783C6.67612 47.7485 5.32765 46.3316 6.67612 44.5959C7.94252 43.0256 12.0817 41.4552 15.8106 40.8176C15.9396 37.6061 16.3148 35.1856 16.7604 34.0757C17.2998 32.7887 17.9799 33.9459 18.5662 34.8196C19.0586 35.469 19.3518 38.2673 19.3752 40.4988C21.8142 40.3808 23.2565 40.5579 25.9769 41.0538C29.5181 41.7032 31.8867 43.5215 31.6757 45.5877C31.5232 47.6186 29.6705 48.4569 28.967 48.5159C28.2283 48.575 27.0791 48.0436 27.0791 48.0436C26.2935 47.6658 27.0205 47.3352 27.9703 46.922C29.0022 46.4142 28.7677 45.8947 28.7677 45.8947C28.3807 44.7612 23.7842 43.9702 19.2111 43.9702C19.1876 46.5087 19.3166 50.7239 19.3752 53.1798C22.5764 53.7937 24.9685 53.6757 24.9685 53.6757C24.9685 53.6757 36.6474 53.3451 36.9992 45.8357C37.3627 38.3145 25.3554 31.1003 16.4789 28.8097C7.61419 26.4719 2.59552 28.1013 2.16167 28.3256C1.69263 28.5618 2.12649 28.6326 2.12649 28.6326C2.12649 28.6326 2.60725 28.7035 3.43979 28.9868C4.31923 29.2702 3.63913 29.7307 3.63913 29.7307C2.12649 30.2148 0.426239 29.9078 0.097915 29.2112C-0.230409 28.5145 0.320706 27.8888 0.953903 26.9914C1.5871 26.0468 2.27893 26.0823 2.27893 26.0823C13.2426 22.2567 26.5984 29.1757 26.5984 29.1757C39.1099 35.5634 41.244 43.0492 41.0095 45.9538ZM7.91907 45.5641C6.67612 46.1781 7.53211 47.0636 7.53211 47.0636C9.86556 49.5904 12.7384 51.1725 15.4705 52.1525C15.7871 47.7957 15.7402 46.2608 15.7754 44.0646C11.5072 44.3598 9.04475 45.0446 7.91907 45.5641Z" fill="#F2F2F2"/>
<path d="M122 44.6667V46.2252C122 46.5676 121.73 46.8392 121.39 46.8392H114.015C114.015 47.2288 114.026 47.5712 114.026 47.89C114.026 50.1924 113.933 52.0698 113.71 54.1833C113.675 54.502 113.417 54.7382 113.112 54.7382H111.517C111.353 54.7382 111.2 54.6673 111.095 54.5493C110.989 54.4312 110.931 54.2659 110.954 54.1006C111.177 51.9989 111.283 50.1452 111.283 47.89C111.283 47.5594 111.283 47.217 111.271 46.8392H103.977C103.637 46.8392 103.368 46.5676 103.368 46.2252V44.6667C103.368 44.3242 103.637 44.0527 103.977 44.0527H111.165C111.013 41.5141 110.708 39.07 110.216 36.5905C110.192 36.437 110.227 36.2836 110.321 36.1655C110.415 36.0474 110.556 35.9766 110.708 35.9766H112.432C112.701 35.9766 112.924 36.1655 112.983 36.437C113.464 38.9992 113.768 41.4905 113.921 44.0527H121.39C121.719 44.0527 122 44.3361 122 44.6667Z" fill="#F2F2F2"/>
<path d="M23.4207 24.0864H23.4089H23.4207ZM23.3269 24.0982C23.2917 24.0982 23.2565 24.0864 23.2213 24.0864C23.2565 24.0982 23.2917 24.0982 23.3269 24.0982H23.362C23.3503 24.0982 23.3386 24.0982 23.3269 24.0982ZM23.3269 24.0982C23.2917 24.0982 23.2565 24.0864 23.2213 24.0864C23.2565 24.0982 23.2917 24.0982 23.3269 24.0982H23.362C23.3503 24.0982 23.3386 24.0982 23.3269 24.0982Z" fill="#F2F2F2"/>
<path d="M111.963 32.3045C108.152 22.8705 101.714 14.8298 93.342 9.04431C84.7704 3.12891 74.7213 0 64.2853 0C47.0248 0 31.0073 8.63105 21.4507 23.0949C21.3452 23.2484 21.3217 23.4491 21.3804 23.6262C21.439 23.8151 21.5797 23.945 21.7556 24.004L23.0923 24.4645C23.1744 24.4881 23.2565 24.4999 23.3268 24.4999C23.5731 24.4999 23.8076 24.37 23.9483 24.1693C28.3338 17.6754 34.2671 12.2795 41.115 8.5484C48.1857 4.69926 56.1944 2.65662 64.2736 2.65662C74.0412 2.65662 83.4571 5.56119 91.5245 11.0397C99.3925 16.3884 105.502 23.8623 109.195 32.6351C109.301 32.8948 109.559 33.0719 109.84 33.0719H111.435C111.623 33.0719 111.798 32.9775 111.892 32.824C112.01 32.6705 112.033 32.4816 111.963 32.3045ZM23.3268 24.0985H23.3503C23.3503 24.0985 23.3386 24.0985 23.3268 24.0985ZM109.512 32.8594C109.547 32.883 109.582 32.9066 109.617 32.9184C109.582 32.8948 109.547 32.883 109.512 32.8594Z" fill="#F2F2F2"/>
</svg>
