<svg width="146" height="44" viewBox="0 0 146 44" fill="none" xmlns="http://www.w3.org/2000/svg">
<path d="M21.8945 0C9.80276 0 0 9.84991 0 22.0001C0 34.1509 9.80276 44 21.8945 44C33.9875 44 43.7893 34.1509 43.7893 22.0001C43.7893 9.85069 33.9875 0.00105085 21.8942 0.00105085L21.8945 0ZM31.9352 31.7305C31.543 32.3768 30.7011 32.5817 30.058 32.185C24.9174 29.0298 18.446 28.3152 10.8248 30.0649C10.0904 30.233 9.35829 29.7707 9.19097 29.0324C9.02286 28.2942 9.48118 27.5586 10.2174 27.3905C18.5576 25.4758 25.7116 26.3002 31.4829 29.8442C32.126 30.2409 32.33 31.0842 31.9352 31.7305ZM34.615 25.7401C34.1209 26.5472 33.0699 26.802 32.2672 26.3055C26.382 22.6706 17.4109 21.6179 10.4498 23.7411C9.54706 24.0151 8.59356 23.5039 8.31956 22.5983C8.04765 21.6912 8.55669 20.7349 9.45791 20.4591C17.4093 18.0347 27.2945 19.2091 34.0529 23.3823C34.8556 23.8788 35.1092 24.9346 34.615 25.7401ZM34.8451 19.5023C27.7886 15.2907 16.1463 14.9035 9.40902 16.9581C8.32714 17.2878 7.18304 16.6741 6.85518 15.587C6.52733 14.4994 7.13755 13.3506 8.22021 13.0201C15.9541 10.6609 28.8109 11.1167 36.9351 15.963C37.9103 16.5433 38.2293 17.8062 37.6515 18.7827C37.0763 19.7605 35.8161 20.0828 34.8461 19.5023H34.8451ZM59.5677 20.3093C55.7871 19.4035 55.1152 18.7677 55.1152 17.4318C55.1152 16.1697 56.297 15.3204 58.0565 15.3204C59.7612 15.3204 61.4501 15.9653 63.2227 17.2931C63.275 17.3333 63.343 17.3493 63.4084 17.3388C63.4763 17.3288 63.5339 17.2923 63.5731 17.2374L65.4189 14.6229C65.4947 14.5152 65.4738 14.3667 65.3718 14.2845C63.262 12.584 60.888 11.7572 58.1114 11.7572C54.0302 11.7572 51.1778 14.2186 51.1778 17.7402C51.1778 21.5167 53.638 22.8539 57.8892 23.8861C61.505 24.7234 62.1168 25.4249 62.1168 26.6785C62.1168 28.0683 60.8828 28.9326 58.8958 28.9326C56.6891 28.9326 54.8878 28.1839 52.8746 26.4342C52.8249 26.3895 52.7569 26.3712 52.6942 26.3738C52.6262 26.379 52.5661 26.4106 52.5243 26.4605L50.4536 28.9352C50.3673 29.0403 50.3778 29.1927 50.4771 29.282C52.8197 31.3837 55.7009 32.4924 58.8121 32.4924C63.2097 32.4924 66.0516 30.078 66.0516 26.3396C66.0595 23.1852 64.1796 21.4382 59.5755 20.3127L59.5677 20.3093ZM76.0023 16.563C74.0964 16.563 72.5329 17.3175 71.2414 18.8636V17.1234C71.2414 16.986 71.1316 16.8741 70.9956 16.8741H67.6098C67.4739 16.8741 67.3641 16.986 67.3641 17.1234V36.4593C67.3641 36.596 67.4739 36.7089 67.6098 36.7089H70.9956C71.1316 36.7089 71.2414 36.596 71.2414 36.4593V30.3565C72.5329 31.8093 74.0964 32.5213 76.0023 32.5213C79.545 32.5213 83.1321 29.7812 83.1321 24.5429C83.1373 19.3036 79.5502 16.5628 76.005 16.5628L76.0023 16.563ZM79.1946 24.5429C79.1946 27.2092 77.5606 29.0718 75.218 29.0718C72.9042 29.0718 71.1577 27.1251 71.1577 24.5429C71.1577 21.9605 72.9042 20.0143 75.218 20.0143C77.5214 20.014 79.1946 21.9184 79.1946 24.5429ZM92.322 16.563C87.7597 16.563 84.1857 20.0928 84.1857 24.5999C84.1857 29.0587 87.7362 32.5502 92.2671 32.5502C96.845 32.5502 100.43 29.0324 100.43 24.5429C100.43 20.0687 96.8686 16.5635 92.322 16.5635V16.563ZM92.322 29.0981C89.8957 29.0981 88.0656 27.1383 88.0656 24.5416C88.0656 21.9331 89.833 20.0403 92.2671 20.0403C94.709 20.0403 96.5496 21.9993 96.5496 24.5986C96.5496 27.2066 94.7718 29.0981 92.322 29.0981ZM110.171 16.8741H106.445V13.0474C106.445 12.9103 106.336 12.7983 106.2 12.7983H102.814C102.678 12.7983 102.566 12.9103 102.566 13.0474V16.8741H100.939C100.803 16.8741 100.694 16.986 100.694 17.1234V20.0466C100.694 20.1837 100.803 20.2959 100.939 20.2959H102.566V27.8607C102.566 30.9161 104.079 32.4661 107.068 32.4661C108.281 32.4661 109.287 32.2139 110.236 31.6727C110.315 31.6307 110.362 31.5466 110.362 31.4573V28.6725C110.362 28.5885 110.317 28.507 110.244 28.4623C110.171 28.4151 110.08 28.4124 110.004 28.4518C109.353 28.7802 108.723 28.9326 108.017 28.9326C106.932 28.9326 106.445 28.4361 106.445 27.3274V20.2972H110.171C110.307 20.2972 110.417 20.1853 110.417 20.0479V17.125C110.422 16.9876 110.312 16.8756 110.174 16.8756L110.171 16.8741ZM123.149 16.889V16.4191C123.149 15.0364 123.678 14.4198 124.859 14.4198C125.565 14.4198 126.133 14.5606 126.768 14.7734C126.846 14.7981 126.927 14.7858 126.99 14.7387C127.055 14.6917 127.092 14.6163 127.092 14.5364V11.6702C127.092 11.5607 127.024 11.4638 126.917 11.4314C126.248 11.231 125.39 11.0253 124.104 11.0253C120.979 11.0253 119.324 12.7944 119.324 16.1395V16.8594H117.698C117.562 16.8594 117.45 16.9713 117.45 17.1084V20.0466C117.45 20.1837 117.562 20.2959 117.698 20.2959H119.324V31.9617C119.324 32.1009 119.437 32.2113 119.573 32.2113H122.956C123.094 32.2113 123.204 32.1009 123.204 31.9617V20.2967H126.365L131.207 31.9617C130.658 33.1859 130.117 33.4303 129.38 33.4303C128.784 33.4303 128.154 33.2516 127.513 32.8969C127.453 32.8654 127.38 32.8602 127.317 32.8786C127.252 32.9022 127.197 32.9495 127.17 33.0125L126.023 35.5425C125.968 35.6633 126.015 35.8026 126.13 35.8656C127.327 36.5171 128.407 36.7956 129.743 36.7956C132.243 36.7956 133.626 35.6239 134.841 32.4766L140.714 17.2295C140.745 17.1528 140.734 17.0661 140.687 16.9981C140.643 16.9306 140.567 16.8898 140.486 16.8898H136.962C136.855 16.8898 136.76 16.9574 136.726 17.0569L133.116 27.4168L129.163 17.0501C129.126 16.9537 129.035 16.8898 128.933 16.8898H123.149V16.889ZM115.625 16.8741H112.239C112.103 16.8741 111.991 16.986 111.991 17.1234V31.9617C111.991 32.1009 112.103 32.2113 112.239 32.2113H115.625C115.761 32.2113 115.873 32.1009 115.873 31.9617V17.1244C115.873 16.987 115.763 16.8751 115.625 16.8751V16.8741ZM113.952 10.1173C112.61 10.1173 111.523 11.2081 111.523 12.5556C111.523 13.9038 112.61 14.9959 113.952 14.9959C115.293 14.9959 116.378 13.9038 116.378 12.5556C116.378 11.2084 115.29 10.1173 113.952 10.1173ZM143.605 21.6452C142.267 21.6452 141.223 20.5641 141.223 19.2514C141.223 17.9386 142.28 16.8452 143.618 16.8452C144.957 16.8452 146 17.926 146 19.2377C146 20.5505 144.944 21.6452 143.605 21.6452ZM143.618 17.0832C142.397 17.0832 141.474 18.0579 141.474 19.2514C141.474 20.4443 142.392 21.4059 143.605 21.4059C144.826 21.4059 145.749 20.432 145.749 19.2377C145.749 18.0447 144.831 17.0832 143.618 17.0832ZM144.146 19.4839L144.821 20.4317H144.251L143.644 19.5622H143.124V20.4317H142.648V17.9191H143.762C144.345 17.9191 144.727 18.2178 144.727 18.7207C144.729 19.1326 144.491 19.3843 144.149 19.4839H144.146ZM143.744 18.3503H143.124V19.145H143.744C144.052 19.145 144.238 18.9929 144.238 18.7472C144.238 18.4887 144.052 18.3503 143.744 18.3503Z" fill="#F2F2F2"/>
</svg>
