<svg width="95" height="55" viewBox="0 0 95 55" fill="none" xmlns="http://www.w3.org/2000/svg">
<path d="M46.3278 54.9905C42.2089 54.8907 38.1156 54.3249 34.1295 53.3044C30.4057 52.3588 26.8227 50.9449 23.47 49.098C19.9005 47.1482 16.7002 44.6119 14.0088 41.6001C12.862 40.3158 12.2349 39.4535 11.9255 38.7447C11.8157 38.5202 11.7526 38.2765 11.7399 38.0278C11.7152 37.5694 11.8637 37.2887 12.2267 37.1151C12.3566 37.0505 12.3711 37.0484 12.6103 37.0484C12.7428 37.0396 12.8758 37.0553 13.0022 37.0949C13.4209 37.2282 13.9531 37.5533 14.642 38.0925C17.0182 39.9746 19.5941 41.6014 22.3252 42.945C25.3717 44.4494 28.3542 45.5338 32.0958 46.4991C36.3329 47.5862 40.6712 48.2519 45.0448 48.4862C46.5464 48.5689 46.9795 48.579 48.9535 48.579C51.1378 48.579 52.134 48.5488 53.945 48.4276C61.4013 47.9268 68.7689 46.2285 74.2575 43.7467C74.6941 43.5449 75.1273 43.3362 75.557 43.1207C76.4872 42.6623 76.7326 42.5512 77.1183 42.4139C77.6608 42.2241 78.0341 42.2867 78.3497 42.6199C78.4537 42.7211 78.5347 42.8426 78.5873 42.9766C78.6399 43.1106 78.663 43.254 78.655 43.3973C78.5498 44.2354 77.438 45.4248 75.2785 47.0181C70.1302 50.8145 63.0184 53.4659 55.1722 54.514C53.3692 54.7523 51.5554 54.9047 49.7372 54.9704C48.6003 55.0013 47.4629 55.008 46.3257 54.9905H46.3278ZM79.6388 50.1562C79.4007 50.0656 79.2042 49.8933 79.0861 49.6715C78.9273 49.3323 78.9768 49.0354 79.3006 48.3771C79.4977 47.9849 79.7174 47.604 79.9586 47.2362C80.8083 45.8569 81.6623 44.0173 82.0645 42.7007C82.4688 41.38 82.5182 40.6288 82.2295 40.2007C81.982 39.8331 81.1879 39.6029 79.8946 39.5201C79.3893 39.4878 77.766 39.508 77.2813 39.5504C76.1984 39.6494 75.4456 39.7564 74.4349 39.9563C73.713 40.0997 73.5727 40.1179 73.0633 40.1179C72.5703 40.1179 72.4692 40.1037 72.2692 40.0068C72.1184 39.9264 71.9962 39.8029 71.9188 39.6529C71.8415 39.5028 71.8126 39.3333 71.836 39.1668C71.8876 38.8901 72.0712 38.6296 72.4094 38.353C73.2737 37.6462 74.6247 36.9596 76.0953 36.483C77.6394 35.9778 79.264 35.75 80.8909 35.8106C81.8174 35.8395 82.7377 35.9709 83.6341 36.2023C85.1027 36.5739 85.9917 37.0505 86.3011 37.6361C86.5383 38.0864 86.627 38.5428 86.6249 39.3243C86.6122 40.6662 86.3782 41.9973 85.9319 43.2661C85.293 45.177 84.1845 46.905 82.7039 48.2983C81.6107 49.3545 80.8537 49.9138 80.2391 50.1158C80.0465 50.1794 79.8405 50.1933 79.6409 50.1562H79.6388ZM0.46364 35.435C0.28774 35.3653 0.142446 35.2374 0.053181 35.0735L0.00574105 34.9887L0.00161584 21.7315C-0.00250938 9.72029 -0.00044677 8.46424 0.0284297 8.3653C0.0696818 8.22596 0.240878 8.0422 0.405887 7.96546L0.521393 7.90892H4.25471L4.35165 7.95334C4.50494 8.02444 4.62714 8.14694 4.69611 8.29866C4.77036 8.45415 4.79305 8.55915 5.09419 10.005L5.30664 11.0288H5.5129L5.60572 10.833C5.82002 10.3779 6.08792 9.94889 6.40395 9.5547C6.79659 9.09654 7.2519 8.69358 7.75702 8.35722C8.40983 7.92604 9.14617 7.63078 9.92036 7.48975C10.6946 7.34871 11.4901 7.36492 12.2576 7.53735C13.8293 7.87459 15.2484 8.89841 16.2797 10.4392C17.2759 11.9295 17.9752 14.066 18.1979 16.3095C18.2639 16.9759 18.2742 17.1617 18.2846 18.1209C18.3135 19.0673 18.2673 20.0146 18.1464 20.9541C17.8163 23.5328 16.9232 25.7642 15.63 27.2343C15.3351 27.556 15.0181 27.8576 14.6812 28.137C13.8659 28.7794 12.8905 29.1976 11.8554 29.3486C11.4511 29.4092 10.4776 29.4152 10.0919 29.3587C8.59237 29.1386 7.46206 28.456 6.46582 27.1677C6.19217 26.805 5.94409 26.4244 5.72329 26.0287C5.6676 25.9338 5.66553 25.9318 5.56447 25.9318H5.46134L5.45721 30.4613L5.45102 34.9887L5.38914 35.0957C5.30303 35.2425 5.17262 35.3596 5.01581 35.4309C4.92918 35.4592 4.6858 35.4632 2.73044 35.4632C0.944227 35.4632 0.52758 35.4572 0.46364 35.435ZM9.61336 24.8595C10.3972 24.7121 11.0201 24.2779 11.511 23.5368C12.1297 22.6079 12.4928 21.2549 12.6021 19.4617C12.6351 18.9266 12.6165 17.3394 12.5711 16.883C12.4763 15.9137 12.3216 15.1261 12.0967 14.486C11.577 13.0018 10.7664 12.1698 9.61336 11.9416C9.22106 11.8916 8.82379 11.8916 8.43149 11.9416C7.48681 12.1274 6.76903 12.715 6.23894 13.7328C5.93398 14.3322 5.71865 14.9715 5.59953 15.631C5.33345 16.9476 5.28601 18.9387 5.48609 20.4654C5.65522 21.7598 6.00999 22.8099 6.53183 23.5671C7.08873 24.3688 7.7797 24.7969 8.69138 24.8999C8.91414 24.9262 9.36997 24.906 9.61336 24.8595ZM85.4616 29.391L85.1419 29.3607C83.5941 29.2276 82.1142 28.6775 80.8661 27.7714C80.2675 27.323 79.7235 26.8088 79.2449 26.2387C77.9248 24.6071 77.106 22.5312 76.8626 20.1847C76.7986 19.5607 76.7842 19.175 76.7945 18.3127C76.7889 17.4949 76.86 16.6784 77.007 15.8733C77.7763 11.5781 80.5588 8.36933 84.1848 7.59793C84.849 7.45658 85.375 7.40408 86.1319 7.40408C87.1509 7.38941 88.1631 7.5684 89.1124 7.93113C89.4745 8.0791 89.8278 8.24698 90.1705 8.43395C91.2807 9.08218 92.2315 9.96194 92.955 11.0107C93.821 12.3035 94.4208 13.7496 94.7206 15.2675C94.9331 16.3055 95.0094 17.2223 94.9991 18.6399C94.9929 19.5001 94.9908 19.5203 94.9454 19.6011C94.9014 19.6886 94.8373 19.7651 94.7583 19.8246C94.6793 19.8841 94.5873 19.9251 94.4896 19.9444C94.3947 19.9666 93.3016 19.9726 88.4359 19.9726H82.4997L82.5121 20.11C82.6771 21.8507 83.003 22.9855 83.5784 23.8276C84.059 24.5344 84.6489 24.9383 85.4348 25.1039C85.6864 25.1564 86.2846 25.1766 86.5857 25.1442C87.4025 25.0514 87.9986 24.7808 88.4957 24.2699C88.8958 23.8599 89.1702 23.347 89.3682 22.6382C89.4692 22.2747 89.4919 22.2202 89.5909 22.1132C89.6982 21.996 89.8178 21.9456 89.989 21.9456C90.1746 21.9456 94.0688 22.7977 94.2297 22.8725C94.328 22.9153 94.4094 22.9884 94.4615 23.0806C94.5136 23.1727 94.5336 23.279 94.5185 23.3834C94.4772 23.6984 94.007 24.7707 93.6398 25.3967C92.8661 26.7325 91.7075 27.8156 90.3087 28.5105C89.3468 28.9673 88.3097 29.2531 87.2457 29.3546C86.9652 29.3849 85.6782 29.4112 85.4616 29.391ZM89.4239 16.2933C89.397 16.0106 89.3063 15.4351 89.2362 15.0878C88.9041 13.4864 88.2379 12.3798 87.3303 11.9174C86.9534 11.7347 86.5387 11.6391 86.1182 11.6381C85.6977 11.637 85.2825 11.7305 84.9047 11.9113C84.6144 12.0548 84.3525 12.2476 84.1312 12.4808C83.8611 12.7352 83.6335 13.0295 83.4567 13.3531C83.0648 14.0458 82.7699 14.9787 82.6069 16.0551C82.5843 16.2045 82.5657 16.3519 82.5657 16.3842V16.4387H89.4362L89.4218 16.2933H89.4239ZM21.7085 28.8417C21.544 28.7605 21.4129 28.6265 21.3372 28.4621C21.3083 28.3752 21.3042 27.4968 21.3042 18.3773C21.3042 9.34065 21.3083 8.38145 21.3372 8.29462C21.3661 8.22171 21.4093 8.1551 21.4646 8.09862C21.5198 8.04213 21.5859 7.99688 21.659 7.96546L21.7889 7.9069L23.5937 7.90084C25.4707 7.89478 25.5594 7.8968 25.7203 7.97758C25.8337 8.03412 25.976 8.19971 26.0255 8.335C26.0503 8.39962 26.1864 9.01149 26.3267 9.69404L26.5948 10.9824C26.6072 11.0228 26.6154 11.0288 26.7103 11.0228L26.8134 11.0167L26.9228 10.7744C27.1497 10.2592 27.4422 9.77409 27.7932 9.33055C27.9891 9.09025 28.412 8.68436 28.6595 8.50059C29.6227 7.7817 30.6478 7.45052 31.9246 7.45254C32.7909 7.45254 33.554 7.59793 34.2553 7.89276C34.4863 7.98969 34.6122 8.08864 34.6885 8.22596C34.738 8.32289 34.7421 8.34914 34.7421 8.5531C34.7421 8.77523 34.74 8.78129 34.2306 10.7946C33.9501 11.9053 33.7046 12.8544 33.6881 12.8988C33.6469 13.0038 33.5396 13.1169 33.4365 13.1613C33.3621 13.1859 33.2838 13.1968 33.2055 13.1936C33.0301 13.1936 33.0157 13.1896 32.3041 12.9069C31.5595 12.61 30.9985 12.4384 30.5653 12.3778C30.1879 12.3423 29.8077 12.345 29.4309 12.3859C29.0534 12.4438 28.6911 12.5734 28.3645 12.7675C28.117 12.917 27.7313 13.2926 27.5498 13.5611C27.0486 14.3063 26.8217 15.1665 26.7701 16.4993C26.7598 16.7719 26.7516 19.5627 26.7495 22.6988C26.7495 29.0134 26.7619 28.4843 26.6175 28.6781C26.5683 28.7435 26.503 28.7956 26.4277 28.8296L26.306 28.8882L24.0681 28.8942L21.8302 28.8983L21.7085 28.8417ZM37.0749 28.87C36.8728 28.8094 36.7428 28.6882 36.6768 28.5065C36.6418 28.4075 36.6397 27.9471 36.6397 18.3874V8.37135L36.6933 8.26029C36.7614 8.11893 36.8583 8.02806 37.0027 7.9594L37.1141 7.9069L39.2901 7.90084C41.5446 7.89478 41.6477 7.89882 41.8065 7.97758C41.912 8.03829 41.9967 8.12824 42.0499 8.23606C42.085 8.30673 42.087 8.84187 42.0912 18.347C42.0953 27.5009 42.0932 28.3914 42.0644 28.4944C42.0378 28.582 41.9854 28.6599 41.9138 28.7185C41.7178 28.9104 41.9014 28.9003 39.3644 28.8962C37.6442 28.8962 37.1368 28.8902 37.0749 28.87ZM46.3422 28.87C46.171 28.8094 46.0204 28.6781 45.9297 28.5105L45.8802 28.4237V8.35116L45.9297 8.24413C45.993 8.11407 46.1043 8.01232 46.2411 7.9594L46.3546 7.9069H48.2315C49.9786 7.9069 50.1168 7.90892 50.2034 7.94325C50.2943 7.97663 50.3765 8.02923 50.4442 8.0973C50.512 8.16536 50.5636 8.24721 50.5953 8.33702C50.6304 8.42992 50.8119 9.26997 51.1522 10.9218L51.1728 11.0268H51.3894L51.4616 10.8491C51.6109 10.5036 51.7839 10.1683 51.9793 9.84549C52.8126 8.54098 54.0172 7.72717 55.4816 7.48283C56.4552 7.31926 57.538 7.39802 58.427 7.69688C59.5924 8.08864 60.5659 8.86812 61.2837 9.98685C61.4625 10.2789 61.6237 10.581 61.7664 10.8915L61.8262 11.0268H62.0324L62.1974 10.7805C62.9379 9.66981 63.8558 8.751 64.7654 8.21182C65.9742 7.51821 67.3905 7.2543 68.7751 7.46466C69.4751 7.56496 70.1478 7.80049 70.754 8.15756C71.3602 8.51463 71.8878 8.98612 72.3063 9.54461C72.5538 9.86771 72.7456 10.1767 72.9539 10.5927C73.4882 11.6549 73.8202 12.8705 73.9543 14.2619C74.0244 14.9828 74.0306 15.5462 74.0224 22.0223L74.0162 28.4237L73.9626 28.5348C73.9094 28.6693 73.8052 28.7786 73.6717 28.8397L73.5624 28.8882H69.0453L68.9566 28.8417C68.8219 28.7686 68.71 28.6611 68.6328 28.5307L68.5709 28.4237L68.5606 21.9617C68.5482 15.0918 68.5523 15.4169 68.4575 14.8737C68.2574 13.7166 67.7335 12.9109 66.9414 12.5393C66.5495 12.3556 66.1659 12.2869 65.6255 12.3051C64.8623 12.3313 64.2931 12.5615 63.8083 13.0361C63.2267 13.6035 62.8905 14.4396 62.7296 15.7118C62.6987 15.9601 62.6945 16.5599 62.6842 22.204L62.6718 28.4237L62.6182 28.5348C62.5651 28.6693 62.4609 28.7786 62.3274 28.8397L62.2181 28.8882H57.701L57.5937 28.8276C57.4603 28.7532 57.3504 28.6442 57.2761 28.5126L57.2266 28.4237L57.2163 21.9617C57.2039 15.0918 57.208 15.4169 57.1131 14.8737C56.9131 13.7166 56.3891 12.9109 55.5971 12.5393C55.2052 12.3556 54.8216 12.2869 54.2812 12.3051C53.518 12.3313 52.9487 12.5615 52.464 13.0361C51.8824 13.6035 51.5462 14.4396 51.3853 15.7118C51.3543 15.9601 51.3502 16.5599 51.3399 22.204L51.3275 28.4237L51.2739 28.5348C51.2207 28.6693 51.1165 28.7786 50.9831 28.8397L50.8737 28.8882L48.6461 28.8922C46.8599 28.8962 46.4041 28.8922 46.3443 28.872L46.3422 28.87ZM38.9395 6.24092C38.2004 6.15855 37.5142 5.8248 37.0007 5.29787C36.6053 4.89758 36.3397 4.39169 36.2375 3.84392C36.1756 3.54102 36.1591 2.9554 36.2045 2.61615C36.3282 1.70743 36.7511 1.02084 37.4895 0.536195C38.5517 -0.160488 40.109 -0.180682 41.1589 0.48975C41.5641 0.744688 41.9047 1.0865 42.1551 1.48934C42.5986 2.22439 42.6914 3.36735 42.3841 4.26597C42.2374 4.66893 42.0037 5.03623 41.6991 5.34288C41.3944 5.64952 41.0258 5.88832 40.6185 6.04302C40.1276 6.2288 39.5047 6.30352 38.9395 6.24092Z" fill="#F2F2F2"/>
</svg>
