<svg width="125" height="42" viewBox="0 0 125 42" fill="none" xmlns="http://www.w3.org/2000/svg">
<path fill-rule="evenodd" clip-rule="evenodd" d="M91.2884 29.9522C91.6222 28.2789 91.789 26.6056 92.1228 25.0996C93.1242 19.745 93.9586 14.3904 94.9599 9.03586C95.2937 7.52988 94.2924 6.35857 92.6235 6.35857C91.6222 6.35857 90.6208 6.35857 89.4526 6.35857C87.2831 6.35857 85.9479 7.69721 85.4473 9.70518C84.279 16.2311 83.1108 22.9243 81.9426 29.4502C81.9426 29.6175 81.6088 29.9522 81.4419 29.9522C78.4379 29.9522 75.6008 29.9522 72.5968 29.6175C70.761 29.4502 69.0921 28.6135 68.0908 26.9402C68.0908 26.9402 67.9239 26.7729 67.9239 26.6056C67.5901 27.1076 67.0895 27.4422 66.7557 27.7769C65.4206 29.1155 63.9186 29.9522 61.9159 29.7849C60.5808 29.6175 59.0788 29.7849 57.7437 29.6175C55.4072 29.1155 53.4045 27.9442 52.2363 25.6016C52.0694 26.4382 51.9025 27.2749 51.7356 27.9442C51.4019 29.9522 51.4019 29.7849 49.3992 29.7849C47.8972 29.7849 46.5621 29.4502 45.3939 28.7809C44.3925 28.2789 43.725 27.4422 42.7236 26.6056C42.3899 26.9402 42.0561 27.2749 41.7223 27.7769C40.3872 29.1155 38.8852 29.7849 36.8825 29.7849C35.0467 29.7849 33.211 29.7849 31.3752 29.1155C28.2043 27.9442 26.3685 25.0996 27.036 21.753C27.7036 17.4024 28.3712 12.8845 29.3725 8.53386C30.3738 4.18327 33.0441 1.17132 37.717 0.167331C38.3845 6.35822e-07 39.0521 0 39.7196 0C43.5581 0 47.3965 0 51.235 0C51.4019 0 51.5688 0 51.9025 0C51.5688 2.1753 51.0681 4.18327 50.7343 6.35857C49.8999 11.2112 49.0654 15.8964 48.231 20.749C48.231 21.251 48.3979 21.753 48.5648 22.0876C49.0654 23.0916 50.9012 23.761 52.0694 23.5936C52.5701 18.5737 53.5714 13.5538 54.5728 8.53386C55.5741 4.18327 58.2443 1.00398 62.9172 0.167331C63.5848 6.35822e-07 64.2523 0 64.9199 0C68.7583 0 72.5968 0 76.4353 0C76.6021 0 76.769 0 77.1028 0C76.9359 1.33865 76.6021 2.50996 76.4353 3.84861C75.4339 9.53785 74.4326 15.2271 73.2643 20.9163C73.0975 21.753 73.4312 22.4223 74.0988 22.9243C74.4326 23.0916 74.5995 23.259 74.9332 23.4263C75.6008 23.5936 76.2684 23.9283 76.769 23.761C77.6035 23.5936 77.2697 22.757 77.4366 22.0876C78.6048 15.7291 79.773 9.20319 80.9413 2.84462C81.1081 2.00797 81.275 1.00398 81.4419 0.167331C81.6088 0.167331 81.9426 0.167331 82.1095 0.167331C85.9479 0.167331 89.6195 0.167331 93.4579 0.167331C94.9599 0.167331 96.2951 0.501993 97.6302 1.17132C99.9666 2.34263 101.135 4.01594 101.135 6.5259C101.135 8.70119 100.634 10.7092 100.3 12.7171C99.466 17.9044 98.4646 23.259 97.4633 28.4462C97.4633 28.7809 97.4633 29.1155 97.2964 29.2829C97.2964 29.4502 96.9626 29.6175 96.9626 29.6175C95.1268 29.9522 93.2911 29.9522 91.2884 29.9522ZM44.7263 6.35857C44.5594 6.35857 44.3925 6.35857 44.3925 6.35857C42.5567 6.35857 40.5541 6.35857 38.7183 6.35857C36.8825 6.35857 35.3805 7.52988 35.0467 9.37052C34.3792 13.2191 33.5447 17.2351 32.8772 21.0837C32.5434 23.0916 33.5447 24.263 35.7143 24.263C36.5487 24.263 37.3832 24.263 38.2176 24.263C40.5541 24.263 41.8892 23.0916 42.223 20.9163C42.8905 17.4024 43.5581 14.0558 44.0588 10.5418C44.2256 9.03586 44.5594 7.69721 44.7263 6.35857ZM70.0935 6.35857C69.9266 6.35857 69.7597 6.35857 69.7597 6.35857C67.757 6.35857 65.9212 6.35857 64.0854 6.35857C62.0828 6.35857 60.7477 7.52988 60.4139 9.37052C59.7463 13.2191 58.9119 17.2351 58.2443 21.0837C57.9106 22.9243 58.745 23.9283 60.5808 24.0956C61.5821 24.2629 62.5834 24.0956 63.5848 24.0956C65.7543 24.0956 67.2563 22.9243 67.5901 20.749L69.4259 11.2112C69.4259 9.70518 69.7597 8.03187 70.0935 6.35857ZM17.6903 29.9522C17.1896 29.9522 16.6889 29.9522 16.3551 29.9522C14.1856 29.9522 12.1829 29.9522 10.0134 29.7849C6.84246 29.4502 4.6729 27.4422 4.00534 24.7649C3.67156 23.259 3.83845 21.9203 4.17223 20.4143C4.83979 16.5657 5.50735 12.7171 6.34179 8.86853C7.17624 4.18327 10.8478 0.836655 15.6876 0.501994C18.5247 0.334663 21.3618 0.334663 24.1989 0.334663C25.7009 0.334663 27.2029 0.334663 28.8718 0.334663C28.7049 1.50598 28.5381 2.67729 28.3712 3.68127C27.2029 9.87251 26.2016 15.8964 25.0334 22.0876C24.3658 25.9363 23.6983 29.7849 22.8638 33.6335C21.8625 38.8207 17.6902 41.3307 13.6849 41.8327C12.6836 42 11.6822 42 10.6809 42C7.17624 42 3.67156 42 0.166887 42H0C0 41.8327 0 41.8327 0 41.6653C1.00134 39.992 2.00268 38.1514 3.00401 36.4781C3.1709 36.3108 3.67156 36.1434 4.00534 36.1434C7.00935 36.1434 10.1802 36.1434 13.1842 36.1434C15.5207 36.1434 16.6889 35.1394 17.1896 32.9641C17.3565 31.9602 17.5234 31.1235 17.6903 29.9522ZM15.3538 24.0956C16.1882 24.2629 16.8558 24.0956 17.6903 24.263C18.5247 24.263 18.6916 24.0956 18.8585 23.259C19.6929 18.5737 20.5274 13.8884 21.3618 9.20319C21.6956 7.36255 20.6943 6.35856 18.8585 6.19123C17.8571 6.19123 16.8558 6.19123 15.8545 6.19123C13.8518 6.19123 12.5167 7.36255 12.016 9.37052C11.6822 11.5458 11.1816 13.7211 10.8478 15.7291C10.514 17.7371 10.1802 19.5777 9.84647 21.5857C9.67958 22.9243 10.514 23.9283 11.8491 24.0956C13.1842 24.2629 14.3525 24.0956 15.3538 24.0956ZM125 0.334663C124.499 3.34661 123.999 6.19123 123.498 9.03586C122.83 13.0518 121.996 17.0677 121.328 20.9163C120.995 22.5896 121.662 23.5936 123.331 24.0956C123.498 24.0956 123.832 24.5976 123.665 24.7649C123.331 26.4382 122.997 28.1116 122.83 29.9522C120.16 29.7849 117.824 28.9482 116.155 26.7729C115.654 27.2749 115.32 27.6096 114.987 28.1116C113.652 29.4502 112.15 30.1195 110.147 30.1195C108.478 29.9522 106.809 30.1195 105.14 29.6175C101.469 28.4462 99.6328 25.6016 100.134 21.753C100.801 17.4024 101.469 13.0518 102.47 8.70119C103.471 4.68526 105.808 1.67331 110.147 0.669322C110.981 0.501991 111.983 0.334663 112.817 0.334663C116.822 0.334663 120.661 0.334663 124.666 0.334663C124.666 0.334663 124.833 0.334663 125 0.334663ZM117.991 6.35857C117.657 6.35857 117.49 6.35857 117.323 6.35857C115.487 6.35857 113.652 6.35857 111.816 6.35857C109.98 6.35857 108.478 7.52988 108.144 9.37052C107.31 13.3865 106.642 17.4024 105.975 21.5857C105.641 23.0916 106.475 24.0956 108.144 24.4303C109.146 24.5976 110.147 24.5976 111.315 24.5976C113.652 24.5976 114.987 23.4263 115.487 21.0837C116.155 17.2351 116.822 13.5538 117.49 9.87251C117.657 8.36653 117.824 7.36255 117.991 6.35857Z" fill="#F2F2F2"/>
</svg>
