<svg width="111" height="61" viewBox="0 0 111 61" fill="none" xmlns="http://www.w3.org/2000/svg">
<path d="M56.8246 24.6176L51.2063 39.9527H50.3158L50.4232 25.9399C50.4232 25.9399 50.7476 25.1153 49.9889 25.2885C49.2302 25.4617 38.5157 28.5649 38.5157 28.5649L47.1273 21.0827L31.2921 12.8833L48.0373 16.0718C48.0373 16.0718 48.1446 16.1792 48.5789 16.006L44.9122 8.8483L51.3551 12.6003C51.3551 12.6003 51.4844 12.8614 51.8332 12.8614C52.1821 12.8614 55.717 1.38811 55.717 1.38811L56.6489 12.776C56.6489 12.776 56.6489 13.925 56.888 14.0763C57.171 14.2056 76.324 0 76.324 0L76.8656 0.0219552L59.8814 19.1091L69.7518 26.984C69.7518 26.984 57.6053 24.2737 57.2588 24.5103C56.8905 24.7274 56.8246 24.6176 56.8246 24.6176Z" fill="#F2F2F2"/>
<path d="M10.7632 43.4175H7.85767L7.88451 55.2689C7.88451 55.2689 8.33095 58.5647 5.20343 58.5647C2.07591 58.5647 2.6614 55.4348 2.6614 55.4348L0.00715691 55.3518C0.00715691 55.3518 -0.412448 60.7237 5.17415 60.7237C10.7608 60.7237 10.7876 55.8227 10.7876 55.8227L10.7608 43.4175H10.7632Z" fill="#F2F2F2"/>
<path d="M13.332 47.7378L13.2759 60.4186L15.9302 60.3918V47.7378H13.332Z" fill="#F2F2F2"/>
<path d="M14.6714 42.9465C14.6714 42.9465 13.0783 42.7806 12.9954 44.5517C12.9954 44.5517 13.0515 46.0472 14.6714 46.074C14.6714 46.074 16.1522 46.3229 16.2644 44.3297C16.2376 44.3297 15.957 42.9733 14.6714 42.9441V42.9465Z" fill="#F2F2F2"/>
<path d="M23.5831 47.3496C22.0462 47.3496 17.9404 48.0424 17.8575 54.8537C17.8575 54.8537 18.5552 60.6135 24.2808 60.7526C24.2808 60.7526 30.592 60.3379 30.5651 53.9413C30.5383 47.5448 24.1418 47.3521 24.1418 47.3521H23.5831V47.3496ZM24.3077 49.4525C27.5206 49.4794 27.7157 53.551 27.7157 53.551C27.7426 58.7009 24.2247 58.5911 24.2247 58.5911C20.5654 58.618 20.7337 53.9389 20.7337 53.9389C20.5385 49.5355 24.3077 49.4525 24.3077 49.4525Z" fill="#F2F2F2"/>
<path d="M35.1442 52.8044L35.171 60.4183L32.4338 60.4451L32.407 43.417H35.2003L35.1735 50.3405H43.4973L43.385 43.3901H46.2906L46.2637 60.4744L43.3314 60.4476V52.7215L35.1491 52.8044H35.1442Z" fill="#F2F2F2"/>
<path d="M54.668 47.1543C54.668 47.1543 48.0495 47.4324 48.1593 54.1046C48.1593 54.1046 48.3544 60.6402 54.5265 60.667C54.5265 60.667 60.9499 60.7768 60.8377 53.2752C60.8377 53.302 60.4181 47.3226 54.6656 47.1567L54.668 47.1543ZM54.7241 49.3987C57.9078 49.5085 58.0468 53.8289 58.0468 53.8289C57.8517 58.7032 54.4729 58.5373 54.4729 58.5373C51.26 58.5934 50.9526 54.4681 50.9526 54.4681C50.7281 49.206 54.7241 49.4011 54.7241 49.4011V49.3987Z" fill="#F2F2F2"/>
<path d="M63.2992 49.7577L60.8694 49.7308V47.6816H63.3261L63.2431 43.7222H66.0364L66.1194 47.6816L68.9956 47.7645L69.0224 49.7577H66.0608L66.034 56.486C66.1169 57.3179 66.3682 58.0375 67.0952 58.34L68.9395 58.3669L68.9663 60.3893H66.5634C66.5634 60.3893 63.7701 60.8601 63.3797 57.6765L63.2968 49.7577H63.2992Z" fill="#F2F2F2"/>
<path d="M80.3639 50.9773L77.9341 51.0042C77.9341 51.0042 77.8219 49.2599 75.2238 49.2599C75.2238 49.2599 72.0402 49.4526 73.1843 51.5579L75.9215 52.6094C75.9215 52.6094 81.2276 53.3022 80.7543 56.8737C80.7543 56.8737 80.7811 60.6112 75.6995 60.7234C70.6179 60.8356 70.0568 57.3446 70.0568 57.3446L69.9738 56.542H72.4866C72.4866 56.542 72.5988 58.7571 75.3921 58.6741C75.3921 58.6741 78.2976 58.701 78.2684 56.9299C78.2415 55.1295 74.9457 54.9075 74.9457 54.9075L72.3207 54.1878C72.3207 54.1878 70.3935 53.3291 70.3105 50.8919C70.3105 50.8919 70.2276 47.3204 75.1701 47.2643C80.1419 47.2375 80.3639 50.9749 80.3639 50.9749V50.9773Z" fill="#F2F2F2"/>
<path d="M86.4531 49.731L89.3293 49.7042V47.711H86.5092L86.536 43.9443H83.5207L83.6037 47.6817L81.1739 47.7086L81.2007 49.731L83.6574 49.7578L83.5451 56.513C83.5451 56.513 83.35 60.3894 86.6458 60.3333L89.244 60.3065L89.2708 58.367H87.6778C87.1191 58.228 86.6166 57.923 86.4482 56.9545V49.7285L86.4531 49.731Z" fill="#F2F2F2"/>
<path d="M95.9479 47.1548C90.3906 47.1548 90.8077 51.0044 90.8077 51.0044L93.4059 51.0313C93.4059 51.0313 93.4059 49.204 96.226 49.2309C99.0461 49.2577 98.6558 52.5804 98.6558 52.5804L95.8357 52.6072C95.8357 52.6072 90.3906 52.5804 90.2783 56.3446C90.1661 60.1113 93.1839 60.6919 94.6622 60.609C96.1406 60.526 98.0703 59.8625 98.768 58.5597L98.8802 60.387L101.393 60.304L101.366 51.5826C101.366 51.5826 101.505 47.1523 95.9479 47.1523V47.1548ZM98.6851 54.4369L98.7119 55.8494C98.7119 55.8494 98.1264 58.7281 95.0526 58.7281C95.0526 58.7281 91.4493 58.2572 93.601 55.1004C93.601 55.1004 95.277 54.2978 97.0921 54.5198L98.6851 54.4369Z" fill="#F2F2F2"/>
<path d="M103.74 47.7379V60.448H106.616L106.589 52.4731C106.589 52.4731 106.98 49.7603 109.912 49.7603L110.973 49.9823L111 47.4061C111 47.4061 107.285 46.7962 106.475 49.731L106.448 47.6256L103.737 47.7354L103.74 47.7379Z" fill="#F2F2F2"/>
</svg>
