<svg width="185" height="32" viewBox="0 0 185 32" fill="none" xmlns="http://www.w3.org/2000/svg">
<path d="M72.2584 2.86178C72.2584 1.27966 73.5111 2.86102e-06 75.053 2.86102e-06C76.6002 2.86102e-06 77.8577 1.27966 77.8577 2.86178C77.8577 4.44186 76.6002 5.72287 75.053 5.72287C73.5111 5.72287 72.2584 4.44186 72.2584 2.86178Z" fill="#F2F2F2"/>
<path d="M116.435 21.8966C116.435 20.3139 117.687 19.0328 119.229 19.0328C120.775 19.0328 122.033 20.3139 122.033 21.8966C122.033 23.4754 120.775 24.7578 119.229 24.7578C117.687 24.7578 116.435 23.4754 116.435 21.8966Z" fill="#F2F2F2"/>
<path d="M26.3066 20.6597C23.8952 20.6597 22.2195 18.7073 22.2195 15.9174C22.2195 13.1282 23.8952 11.1772 26.3066 11.1772C28.7318 11.1772 30.426 13.1282 30.426 15.9174C30.426 18.7514 28.7671 20.6597 26.3066 20.6597ZM26.3066 7.00933C21.205 7.00933 17.5027 10.7567 17.5027 15.9174C17.5027 21.0781 21.205 24.8249 26.3066 24.8249C31.4273 24.8249 35.145 21.0781 35.145 15.9174C35.145 10.7567 31.4273 7.00933 26.3066 7.00933Z" fill="#F2F2F2"/>
<path d="M66.8358 16.363C66.6375 15.9826 66.4101 15.6604 66.1679 15.4048L66.0137 15.2379L66.176 15.0793C66.4102 14.8277 66.6496 14.5293 66.8804 14.1834L71.3824 7.36062H65.9172L62.5346 12.6976C62.3431 12.9838 61.9565 13.1283 61.3778 13.1283H60.6069V3.03811C60.6069 1.01995 59.3736 0.7453 58.0413 0.7453H55.7604L55.7642 24.5625H60.6069V17.4182H61.0606C61.6126 17.4182 61.9885 17.4833 62.1609 17.7891L64.8323 22.9295C65.5785 24.3244 66.3222 24.5625 67.7212 24.5625H71.4324L68.6684 19.9016L66.8358 16.363Z" fill="#F2F2F2"/>
<path d="M90.345 6.97135C87.8817 6.97135 86.31 8.0869 85.4293 9.0302L85.1352 9.33334L85.0315 8.92104C84.7727 7.91058 83.9006 7.3545 82.5882 7.3545H80.4178L80.4314 24.5564H85.2412V16.6282C85.2412 15.853 85.34 15.1803 85.5411 14.5666C86.0765 12.7091 87.5699 11.5543 89.4365 11.5543C90.9378 11.5543 91.5245 12.3619 91.5245 14.4493V21.9414C91.5245 23.7229 92.3327 24.5564 94.0815 24.5564H96.3704L96.3626 13.6158C96.3626 9.26892 94.2817 6.97135 90.345 6.97135Z" fill="#F2F2F2"/>
<path d="M75.1168 7.36196H72.837L72.8526 20.6624L72.8511 24.5604H75.2845C75.3151 24.5604 75.3396 24.5638 75.3703 24.5638L76.5037 24.5604H77.6319V24.5536H77.6398L77.6495 9.97351C77.6495 8.2144 76.8229 7.36196 75.1168 7.36196Z" fill="#F2F2F2"/>
<path d="M45.1988 20.6597C42.7876 20.6597 41.1086 18.7073 41.1086 15.9174C41.1086 13.1282 42.7876 11.1772 45.1988 11.1772C47.6189 11.1772 49.3178 13.1282 49.3178 15.9174C49.3178 18.7514 47.6595 20.6597 45.1988 20.6597ZM45.1988 7.00933C40.0922 7.00933 36.389 10.7567 36.389 15.9174C36.389 21.0781 40.0922 24.8249 45.1988 24.8249C50.3142 24.8249 54.038 21.0781 54.038 15.9174C54.038 10.7567 50.3142 7.00933 45.1988 7.00933Z" fill="#F2F2F2"/>
<path d="M148.296 20.6597C145.886 20.6597 144.205 18.7073 144.205 15.9174C144.205 13.1282 145.886 11.1772 148.296 11.1772C150.716 11.1772 152.416 13.1282 152.416 15.9174C152.416 18.7514 150.757 20.6597 148.296 20.6597ZM148.296 7.00933C143.19 7.00933 139.487 10.7567 139.487 15.9174C139.487 21.0781 143.19 24.8249 148.296 24.8249C153.412 24.8249 157.135 21.0781 157.135 15.9174C157.135 10.7567 153.412 7.00933 148.296 7.00933Z" fill="#F2F2F2"/>
<path d="M106.504 19.9029C103.875 19.9029 102.939 17.564 102.939 15.3722C102.939 14.4065 103.178 11.2593 106.252 11.2593C107.779 11.2593 109.815 11.7055 109.815 15.5343C109.815 19.1454 108.013 19.9029 106.504 19.9029ZM112.312 7.31584C111.399 7.31584 110.697 7.68678 110.345 8.36426L110.212 8.62736L109.989 8.43003C109.212 7.7451 107.82 6.93269 105.56 6.93269C101.062 6.93269 98.0345 10.3763 98.0345 15.5011C98.0345 20.6197 101.168 24.1969 105.65 24.1969C107.182 24.1969 108.392 23.8328 109.351 23.0922L109.722 22.8081V23.2862C109.722 25.5837 108.265 26.8512 105.623 26.8512C104.339 26.8512 103.17 26.5325 102.388 26.2436C101.368 25.9296 100.77 26.1893 100.356 27.233L99.9743 28.196L99.4341 29.6024L99.7687 29.7842C101.46 30.699 103.661 31.2449 105.65 31.2449C109.747 31.2449 114.529 29.1074 114.529 23.0922L114.547 7.31584H112.312Z" fill="#F2F2F2"/>
<path d="M8.39404 20.4624L4.47878 20.4584V15.6863C4.47878 14.6664 4.86662 14.1361 5.72396 14.014H8.39404C10.2998 14.014 11.5312 15.2394 11.5325 17.2216C11.5312 19.2561 10.3304 20.4611 8.39404 20.4624ZM4.47878 7.58914V6.33322C4.47878 5.23395 4.93503 4.71111 5.93628 4.64396H7.93967C9.65787 4.64396 10.687 5.69237 10.687 7.44606C10.687 8.78337 9.98254 10.3438 8.00286 10.3438H4.47878V7.58914ZM13.3944 12.3518L12.6866 11.9462L13.3045 11.4078C14.023 10.7778 15.2276 9.36183 15.2276 6.91508C15.2276 3.1717 12.3794 0.755465 7.97097 0.755465H2.94011L2.36732 0.75411C1.06034 0.80295 0.0146238 1.88661 0 3.22732V24.4757H2.30877C2.31462 24.477 2.31658 24.4757 2.31853 24.477L8.07034 24.4757C12.9709 24.4757 16.1339 21.7563 16.1339 17.5443C16.1339 15.2766 15.1126 13.3378 13.3944 12.3518Z" fill="#F2F2F2"/>
<path d="M178.62 7.02698C176.624 7.02698 174.695 7.97976 173.457 9.57747L173.108 10.0278L172.835 9.5239C171.944 7.86787 170.411 7.02698 168.279 7.02698C166.043 7.02698 164.544 8.29849 163.847 9.05462L163.391 9.55781L163.216 8.89594C162.962 7.94315 162.13 7.41825 160.869 7.41825H158.848L158.828 24.5536H163.421V16.9896C163.421 16.3271 163.502 15.6713 163.665 14.9857C164.104 13.1581 165.309 11.1921 167.334 11.3888C168.583 11.5109 169.193 12.4949 169.193 14.3957V24.5536H173.819V16.9896C173.819 16.1616 173.895 15.5418 174.078 14.9199C174.45 13.175 175.708 11.3861 177.662 11.3861C179.077 11.3861 179.6 12.2026 179.6 14.3957V22.0486C179.6 23.7799 180.357 24.5536 182.054 24.5536H184.216L184.22 13.6145C184.22 9.24451 182.334 7.02698 178.62 7.02698Z" fill="#F2F2F2"/>
<path d="M136.828 18.6043C136.814 18.6212 134.837 20.7459 132.235 20.7459C129.864 20.7459 127.469 19.2627 127.469 15.952C127.469 13.0937 129.326 11.0958 131.984 11.0958C132.848 11.0958 133.83 11.4112 133.983 11.9415L134.006 12.031C134.36 13.2334 135.432 13.2978 135.642 13.2978L138.159 13.3006V11.0579C138.159 8.09988 134.468 7.02705 131.984 7.02705C126.673 7.02705 122.82 10.7969 122.82 15.9881C122.82 21.1772 126.631 24.9416 131.887 24.9416C136.447 24.9416 138.927 21.8859 138.95 21.8554L139.083 21.6899L137.09 18.3195L136.828 18.6043Z" fill="#F2F2F2"/>
</svg>
