<svg width="203" height="58" viewBox="0 0 203 58" fill="none" xmlns="http://www.w3.org/2000/svg">
<path d="M97.338 44.974H91.0486C91.0205 44.974 91.0036 44.9684 90.9867 44.9486L85.5676 38.3112L80.143 44.9486C80.1317 44.9684 80.112 44.974 80.0838 44.974H75.0478C75.0169 44.974 74.9943 44.9599 74.9718 44.926C74.9633 44.9062 74.9633 44.8695 74.9831 44.8469L82.9652 35.0152L75.076 25.2767C75.0535 25.2428 75.0535 25.2145 75.0619 25.1835C75.076 25.1665 75.107 25.1383 75.1323 25.1383H81.4245C81.4442 25.1383 81.4667 25.1496 81.4836 25.1778L86.238 31.0864L91.0768 25.175C91.0909 25.1496 91.1134 25.1383 91.136 25.1383H96.2649C96.2959 25.1383 96.3268 25.1665 96.3381 25.1835C96.3522 25.2145 96.3466 25.2484 96.3268 25.2767L88.8377 34.295L97.3915 44.8469C97.414 44.8695 97.4225 44.9062 97.4056 44.926C97.3915 44.9599 97.3633 44.974 97.338 44.974Z" fill="#F2F2F2"/>
<path d="M131.379 28.6355C128.593 28.6355 126.692 30.3301 126.148 33.276H135.623V33.0867C135.623 30.7284 133.891 28.6355 131.379 28.6355ZM140.51 36.2981C140.496 36.3207 140.467 36.3348 140.442 36.3348H126.047C126.345 39.6958 128.523 41.6107 132.046 41.6107C134.215 41.6107 136.519 40.8679 139.775 39.1309C139.834 39.097 139.893 39.1479 139.893 39.21L139.887 43.65C139.882 43.6867 139.865 43.7093 139.839 43.7177C136.812 44.9972 133.77 45.8699 131.379 45.8699C125.179 45.8699 120.687 41.3396 120.687 35.1005C120.687 28.8614 125.179 24.3311 131.379 24.3311C137.034 24.3311 140.667 28.1525 140.667 33.4087C140.667 34.2588 140.521 36.2359 140.51 36.2981Z" fill="#F2F2F2"/>
<path d="M169.753 21.0435C167.987 21.0435 166.55 19.6257 166.55 17.8802C166.55 16.0839 167.987 14.6293 169.753 14.6293C171.519 14.6293 172.958 16.0839 172.958 17.8802C172.958 19.6257 171.519 21.0435 169.753 21.0435ZM167.167 44.9746C167.117 44.9746 167.086 44.9435 167.086 44.8927V25.2208C167.086 25.1812 167.114 25.1502 167.148 25.1417H172.347C172.389 25.1502 172.412 25.1812 172.412 25.2208V44.8927C172.412 44.9435 172.378 44.9746 172.336 44.9746H167.167Z" fill="#F2F2F2"/>
<path d="M106.847 42.0117C105.909 42.0117 104.949 41.879 103.845 41.5824L103.856 28.963C105.149 28.5507 106.273 28.3558 107.385 28.3558C110.99 28.3558 113.41 31.022 113.41 34.9818C113.41 39.2523 110.833 42.0117 106.847 42.0117ZM108.261 24.3339C106.794 24.3339 105.312 24.6022 103.757 25.1388H98.5834C98.5411 25.1388 98.5101 25.1755 98.5101 25.2207V57.481C100.073 57.2663 101.989 56.7071 103.847 55.3796L103.845 45.5677C105.121 45.7484 106.174 45.8699 107.191 45.8699C114.277 45.8699 118.862 41.6107 118.862 35.0157C118.862 28.7286 114.5 24.3339 108.261 24.3339Z" fill="#F2F2F2"/>
<path d="M157.7 40.3782C156.08 41.2311 154.633 41.635 153.272 41.635C150.064 41.635 148.14 39.3614 148.14 35.5541C148.14 31.148 150.596 28.2982 154.393 28.2982C155.441 28.2982 156.46 28.5552 157.7 29.1173V40.3782ZM157.7 14.7242V25.0219C156.182 24.587 154.844 24.3864 153.495 24.3864C147.329 24.3864 142.673 29.0467 142.673 35.2378C142.673 41.4006 146.78 45.8688 152.43 45.8688C154.387 45.8688 156.218 45.3773 158.373 44.2645L158.37 46.0411C159.792 45.7699 161.426 45.1994 163.037 44.0555V12.6172C161.454 12.829 159.578 13.36 157.7 14.7242Z" fill="#F2F2F2"/>
<path d="M190.425 40.3392C188.859 41.2459 187.516 41.6808 186.316 41.6808C182.88 41.6808 180.821 39.4157 180.821 35.5942C180.821 31.2532 183.246 28.3412 186.851 28.3412C187.817 28.3412 188.989 28.7112 190.425 29.4738V40.3392ZM195.768 24.9011C195.768 24.7796 195.664 24.6836 195.546 24.6836L191.344 24.6893C191.22 24.6893 191.115 24.7966 191.115 24.9152V25.6326H191.008C189.068 24.7796 187.415 24.387 185.784 24.387C179.97 24.387 175.413 29.2196 175.413 35.4135C175.413 41.6752 179.492 45.8722 185.561 45.8722C187.186 45.8722 189.268 45.7592 191.217 43.511V46.0417C192.594 45.7479 194.219 45.1605 195.763 44.0477L195.768 24.9011Z" fill="#F2F2F2"/>
<path d="M60.6625 40.0516L73.7144 40.046C73.5172 41.509 73.0243 43.2206 71.8921 44.9661H60.6935H58.4628H58.3135C56.6518 44.9661 55.2857 43.6753 55.1224 42.0428C55.1139 42.0174 55.1055 41.9948 55.1027 41.9722V28.5676V16.1601C55.1055 16.1403 55.1139 16.112 55.1224 16.0951C55.2857 14.4598 56.6518 13.1634 58.3135 13.1634C58.367 13.1634 58.4177 13.169 58.4628 13.169L73.6862 13.1662C73.4863 14.6264 72.9934 16.3832 71.8639 18.123H60.6625V25.1501H71.7513C71.7963 25.1501 71.8301 25.1812 71.8301 25.2264V30.1013C71.8301 30.1408 71.7963 30.1775 71.7513 30.1775H60.6625V40.046V40.0516Z" fill="#F2F2F2"/>
<path d="M44.3244 45.3759C43.0344 45.3759 42.2374 44.3648 42.2374 43.1277C42.2374 41.8031 43.1499 40.8795 44.3244 40.8795C45.4877 40.8795 46.3974 41.8031 46.3974 43.1277C46.3974 44.4552 45.4877 45.3759 44.3244 45.3759ZM44.3244 40.6253C43.0035 40.6253 41.874 41.6223 41.874 43.1277C41.874 44.5512 42.8936 45.6216 44.3244 45.6216C45.6285 45.6216 46.7635 44.6303 46.7635 43.1277C46.7635 41.6223 45.6285 40.6253 44.3244 40.6253Z" fill="#F2F2F2"/>
<path d="M43.7387 42.9221V42.0098H44.3527C44.6626 42.0098 45.0287 42.0578 45.0287 42.4363C45.0287 42.8854 44.6907 42.9221 44.3049 42.9221H43.7387ZM45.4822 42.4956C45.4822 41.8997 45.116 41.6455 44.4063 41.6455H43.2881V44.6026H43.7753V43.3373H44.226L44.9893 44.6026H45.5385L44.7104 43.3034C45.1583 43.2497 45.4822 43.0322 45.4822 42.4956Z" fill="#F2F2F2"/>
<path d="M200.06 28.4135C198.77 28.4135 197.967 27.4023 197.967 26.1652C197.967 24.8406 198.883 23.917 200.06 23.917C201.22 23.917 202.133 24.8406 202.133 26.1652C202.133 27.4927 201.22 28.4135 200.06 28.4135ZM200.06 23.6628C198.739 23.6628 197.609 24.6598 197.609 26.1652C197.609 27.5887 198.626 28.6592 200.06 28.6592C201.361 28.6592 202.493 27.665 202.493 26.1652C202.493 24.6598 201.361 23.6628 200.06 23.6628Z" fill="#F2F2F2"/>
<path d="M199.472 25.9582V25.0487H200.086C200.396 25.0487 200.762 25.0939 200.762 25.4724C200.762 25.9243 200.421 25.9582 200.041 25.9582H199.472ZM201.215 25.5317C201.215 24.9357 200.849 24.6815 200.139 24.6815H199.021V27.6387H199.503V26.3762H199.959L200.722 27.6387H201.269L200.443 26.3394C200.888 26.2886 201.215 26.0683 201.215 25.5317Z" fill="#F2F2F2"/>
<path d="M27.4885 18.099L26.5422 15.413L18.515 4.6549L19.9571 4.2962L33.7976 16.2942L41.943 13.9585C42.9007 13.7099 43.9879 13.6562 44.8159 13.6619C42.2557 8.12608 37.5718 3.58163 31.3866 1.37295C19.16 -2.99639 5.71663 3.40934 1.36788 15.6757C0.0215686 19.4689 -0.299517 23.3835 0.266609 27.106L19.7796 20.3077L27.4885 18.099Z" fill="#F2F2F2"/>
<path d="M45.6732 15.7821C44.9578 16.2481 43.9072 16.8582 42.8651 17.1943L34.7027 19.5301L29.2555 37.0639L27.8416 37.5243L28.9908 24.1338L28.3486 21.3518L20.6989 23.5407L0.481689 28.3139C2.08149 36.1177 7.59065 42.9132 15.6206 45.7828C27.8501 50.1522 41.2878 43.7436 45.6366 31.4857C47.5124 26.2013 47.3913 20.6881 45.6732 15.7821Z" fill="#F2F2F2"/>
</svg>
