<svg width="264" height="36" viewBox="0 0 264 36" fill="none" xmlns="http://www.w3.org/2000/svg">
<mask id="mask0_633_3667" style="mask-type:luminance" maskUnits="userSpaceOnUse" x="0" y="0" width="264" height="36">
<path d="M264 0H0V35.1416H264V0Z" fill="white"/>
</mask>
<g mask="url(#mask0_633_3667)">
<path fill-rule="evenodd" clip-rule="evenodd" d="M47.5396 12.1857C46.1001 11.4335 44.5 11.0406 42.8755 11.0406C41.2516 11.0406 39.6514 11.4335 38.2118 12.1857C37.5159 12.577 36.8792 13.0657 36.3215 13.6367V0.036377H30.0531V34.6169H36.3215V21.3675C36.3032 20.5163 36.5089 19.6752 36.9182 18.9283C37.3052 18.2425 37.877 17.6793 38.5695 17.3033C39.306 16.9124 40.1296 16.7147 40.9633 16.7284C41.5818 16.6968 42.2003 16.7952 42.7782 17.017C43.3562 17.2388 43.8815 17.5793 44.3196 18.0164C44.7578 18.4535 45.0997 18.9776 45.3226 19.5548C45.5459 20.132 45.6452 20.7495 45.6148 21.3675V34.6169H51.8867V19.9817C51.9186 18.361 51.522 16.7606 50.7364 15.3426C49.9822 14.0159 48.8759 12.9234 47.5396 12.1857ZM20.2586 28.7099C19.3574 29.0877 18.3876 29.2748 17.4104 29.2596C16.3291 29.2779 15.2627 29.0052 14.3228 28.4706C13.417 27.9477 12.6719 27.1869 12.1681 26.2707C11.6295 25.2811 11.3574 24.1686 11.3784 23.0423C11.3501 21.9152 11.6227 20.8008 12.1681 19.8139C12.6842 18.9191 13.4274 18.1763 14.3228 17.6606C15.2635 17.1283 16.3295 16.8569 17.4104 16.8745C18.3688 16.8629 19.3199 17.0414 20.2088 17.3996C21.039 17.7412 21.7825 18.2635 22.3853 18.9283L26.4057 14.8641C25.304 13.6317 23.9483 12.6522 22.4319 11.993C20.8451 11.3129 19.1337 10.9711 17.4072 10.9894C15.1891 10.9613 13.0022 11.514 11.0643 12.5927C9.18552 13.6199 7.62398 15.1412 6.54861 16.992C5.4733 18.8427 4.92512 20.9523 4.96377 23.092C4.93186 25.2179 5.48125 27.3122 6.55241 29.1494C7.62358 30.9864 9.17605 32.4961 11.0425 33.5168C12.9909 34.5865 15.1844 35.1307 17.4072 35.0953C19.1337 35.1135 20.8451 34.7716 22.4319 34.0919C23.9765 33.4116 25.3625 32.4182 26.502 31.174L22.4319 27.1066C21.8391 27.7995 21.0958 28.3477 20.2586 28.7099ZM71.0615 12.0427C71.9024 12.4679 72.6632 13.0356 73.3095 13.7206V11.5176H79.5282V34.6169H73.3095V32.3798C72.6586 33.0621 71.8988 33.6321 71.0615 34.0666C69.6843 34.7691 68.155 35.1226 66.6091 35.0953C64.5997 35.1226 62.6242 34.5749 60.9162 33.5168C59.2269 32.4673 57.8537 30.9798 56.9424 29.2131C55.9972 27.3021 55.5054 25.1989 55.5054 23.0672C55.5054 20.9354 55.9972 18.8323 56.9424 16.9211C57.8532 15.1538 59.2264 13.6664 60.9162 12.6175C62.6242 11.5593 64.5997 11.0116 66.6091 11.0391C68.1525 11.0113 69.6797 11.3556 71.0615 12.0427ZM67.7594 29.3097C69.5156 29.3077 70.9354 28.7255 72.0194 27.5633C73.1034 26.3992 73.6454 24.8921 73.6454 23.0423C73.6671 21.9218 73.4134 20.8131 72.9053 19.8139C72.4368 18.9039 71.7241 18.1421 70.8473 17.614C69.9097 17.0732 68.8419 16.8002 67.7594 16.8248C66.6927 16.8033 65.6401 17.0764 64.7187 17.614C63.8419 18.1414 63.1297 18.9034 62.6632 19.8139C62.1531 20.8124 61.8978 21.9214 61.9201 23.0423C61.8948 24.1795 62.1501 25.3054 62.6632 26.3205C63.1307 27.2304 63.8424 27.9922 64.7187 28.5202C65.6401 29.0578 66.6927 29.331 67.7594 29.3097ZM100.339 11.5891C99.3793 11.2097 98.3545 11.0229 97.3227 11.0391C94.7379 11.0391 92.7604 11.8594 91.3902 13.5L91.3406 13.5653V11.5176H85.0722V34.6169H91.3406V21.846C91.3406 20.1246 91.7635 18.8414 92.6094 17.9962C93.041 17.5728 93.5541 17.2419 94.1184 17.0239C94.6822 16.8059 95.285 16.7053 95.8893 16.7284C96.4682 16.7186 97.0441 16.8166 97.5871 17.0174C98.0714 17.2012 98.506 17.496 98.856 17.8781L102.78 13.3819C102.116 12.604 101.28 11.9903 100.339 11.5891ZM118.491 12.0427C119.333 12.4678 120.094 13.0356 120.742 13.7206L120.751 11.5176H126.97V34.6169H120.751V32.3798C120.099 33.0621 119.339 33.6321 118.5 34.0666C117.124 34.7691 115.596 35.1221 114.051 35.0953C112.041 35.1226 110.064 34.5749 108.355 33.5168C106.666 32.4673 105.293 30.9798 104.381 29.2131C103.436 27.3021 102.945 25.1989 102.945 23.0672C102.945 20.9354 103.436 18.8323 104.381 16.9211C105.289 15.1549 106.659 13.6677 108.345 12.6175C110.055 11.5594 112.031 11.0117 114.041 11.0391C115.584 11.0117 117.11 11.356 118.491 12.0427ZM115.189 29.3097C116.945 29.3077 118.365 28.7255 119.449 27.5634C120.533 26.3992 121.075 24.8921 121.075 23.0423C121.097 21.9219 120.843 20.8131 120.335 19.8139C119.868 18.9032 119.154 18.1412 118.276 17.614C117.339 17.0732 116.271 16.8002 115.189 16.8248C114.123 16.8038 113.072 17.0768 112.151 17.614C111.273 18.1403 110.559 18.9026 110.093 19.8139C109.583 20.8124 109.328 21.9214 109.35 23.0423C109.324 24.1795 109.579 25.3054 110.093 26.3205C110.56 27.2312 111.273 27.9932 112.151 28.5202C113.072 29.0573 114.123 29.3305 115.189 29.3097ZM146.276 28.7099C145.374 29.0872 144.405 29.2748 143.428 29.2596C142.346 29.2789 141.28 29.0063 140.34 28.4706C139.434 27.9487 138.688 27.1876 138.185 26.2707C137.647 25.2811 137.375 24.1686 137.396 23.0423C137.367 21.9152 137.64 20.8008 138.185 19.8139C138.701 18.9185 139.444 18.1755 140.34 17.6606C141.281 17.1276 142.347 16.8562 143.428 16.8745C144.386 16.8623 145.338 17.0408 146.226 17.3996C147.057 17.7408 147.8 18.2631 148.403 18.9283L152.42 14.8641C151.319 13.6318 149.965 12.6523 148.449 11.993C146.862 11.3135 145.151 10.9718 143.424 10.9894C141.206 10.9613 139.02 11.514 137.082 12.5927C135.203 13.6199 133.641 15.1412 132.566 16.992C131.49 18.8427 130.942 20.9523 130.981 23.092C130.949 25.2175 131.499 27.3113 132.569 29.1484C133.64 30.9849 135.191 32.4956 137.057 33.5168C139.006 34.5865 141.201 35.1302 143.424 35.0953C145.151 35.113 146.862 34.7711 148.449 34.0919C149.993 33.4126 151.378 32.4187 152.516 31.174L148.449 27.1066C147.856 27.7988 147.113 28.3472 146.276 28.7099ZM159.077 1.90073H165.349V11.5145H170.755V17.0143H165.349V34.6169H159.077V17.0143H153.67V11.5145H159.077V1.90073ZM190.257 12.4964C188.461 11.4693 186.419 10.9485 184.349 10.9894C182.186 10.9639 180.055 11.5175 178.178 12.5927C176.367 13.6213 174.857 15.1048 173.797 16.8962C172.971 18.2787 172.433 19.8131 172.215 21.4079C171.996 23.0027 172.1 24.6252 172.523 26.1786C172.945 27.732 173.676 29.1848 174.672 30.4497C175.668 31.7147 176.909 32.7662 178.32 33.5416C180.306 34.6027 182.531 35.1373 184.782 35.0953C186.577 35.1115 188.358 34.7701 190.021 34.0919C191.601 33.443 193.004 32.4263 194.113 31.1275L190.428 27.4421C189.748 28.2238 188.897 28.8383 187.94 29.2379C186.921 29.6476 185.83 29.8504 184.732 29.8347C183.53 29.86 182.343 29.5722 181.287 28.9987C180.302 28.4504 179.507 27.6173 179.005 26.6094C178.791 26.1881 178.624 25.7454 178.504 25.2888L195.397 25.2453C195.513 24.765 195.601 24.2785 195.661 23.788C195.928 21.3114 195.444 18.8118 194.271 16.6134C193.329 14.9046 191.942 13.482 190.257 12.4964ZM178.51 20.5969C178.621 20.1788 178.773 19.7728 178.964 19.3851C179.429 18.4115 180.169 17.5958 181.094 17.0392C182.08 16.466 183.206 16.1767 184.346 16.2033C185.393 16.1692 186.429 16.4263 187.337 16.9459C188.16 17.4508 188.811 18.1928 189.203 19.0744C189.42 19.5516 189.584 20.0505 189.694 20.5627L178.51 20.5969ZM217.324 13.3819L213.397 17.8781C213.048 17.4961 212.615 17.2013 212.131 17.0174C211.587 16.8162 211.01 16.7182 210.431 16.7284C209.826 16.705 209.224 16.8054 208.661 17.0235C208.097 17.2415 207.584 17.5725 207.153 17.9961C206.307 18.8414 205.884 20.1246 205.884 21.846V34.6169H199.613V11.5176H205.884V13.5653L205.931 13.5C207.306 11.8594 209.284 11.0391 211.867 11.0391C212.898 11.0235 213.923 11.2103 214.883 11.589C215.824 11.9911 216.659 12.6046 217.324 13.3819ZM215.051 27.1563C214.525 27.1377 214.002 27.2302 213.515 27.4278C213.028 27.6253 212.588 27.9234 212.224 28.3027C211.517 29.073 211.124 30.08 211.124 31.126C211.124 32.1714 211.517 33.1789 212.224 33.9487C212.588 34.3281 213.028 34.626 213.515 34.8237C214.002 35.0215 214.525 35.114 215.051 35.0953C215.568 35.1095 216.082 35.0149 216.56 34.8177C217.038 34.6199 217.469 34.324 217.824 33.9487C218.532 33.1789 218.925 32.1714 218.925 31.126C218.925 30.08 218.532 29.073 217.824 28.3027C217.469 27.9274 217.038 27.6315 216.56 27.434C216.082 27.2364 215.568 27.1418 215.051 27.1563ZM238.321 12.0427C239.162 12.4679 239.922 13.0356 240.569 13.7206L240.56 11.5176H246.778V34.626H240.56V32.3889C239.908 33.0712 239.149 33.6412 238.312 34.0762C236.934 34.7782 235.405 35.1312 233.859 35.1044C231.848 35.1317 229.872 34.584 228.163 33.5259C226.474 32.4764 225.102 30.9894 224.192 29.2227C223.247 27.3114 222.756 25.2083 222.756 23.0765C222.756 20.9447 223.247 18.8416 224.192 16.9304C225.102 15.1632 226.474 13.6758 228.163 12.6269C229.874 11.564 231.854 11.0131 233.868 11.0391C235.412 11.0117 236.939 11.3559 238.321 12.0427ZM235.016 29.3097C236.769 29.3077 238.189 28.7255 239.276 27.5633H239.266C240.353 26.3992 240.899 24.8921 240.905 23.0423C240.926 21.9216 240.671 20.8129 240.162 19.8139C239.694 18.9032 238.981 18.1412 238.103 17.614C237.166 17.0732 236.098 16.8002 235.016 16.8248C233.95 16.8038 232.899 17.0768 231.978 17.614C231.1 18.1412 230.387 18.9032 229.919 19.8139C229.412 20.8131 229.158 21.9218 229.179 23.0423C229.155 24.179 229.408 25.3046 229.919 26.3205C230.388 27.2306 231.101 27.9922 231.978 28.5202C232.899 29.0573 233.95 29.3305 235.016 29.3097ZM258.653 11.5145H252.335V34.6169H258.653V11.5145ZM256.885 7.54548C256.443 7.72276 255.969 7.80464 255.494 7.78583C255.023 7.79994 254.554 7.71573 254.118 7.53865C253.681 7.36153 253.287 7.09544 252.96 6.75732C252.313 6.06663 251.954 5.15643 251.954 4.21093C251.954 3.26542 252.313 2.35522 252.96 1.66458C253.636 0.990024 254.552 0.611144 255.507 0.611144C256.463 0.611144 257.38 0.990024 258.056 1.66458C258.688 2.36225 259.038 3.26977 259.038 4.21093C259.038 5.15208 258.688 6.05965 258.056 6.75732C257.726 7.09964 257.326 7.3682 256.885 7.54548Z" fill="#F2F2F2"/>
</g>
</svg>
