<svg width="72" height="72" viewBox="0 0 72 72" fill="none" xmlns="http://www.w3.org/2000/svg">
<path d="M54.8105 0C64.2492 0 71.9011 7.65121 71.9014 17.0898V54.8105C71.9012 64.2493 64.2493 71.9004 54.8105 71.9004H17.0908C7.65206 71.9004 0.000149498 64.2493 0 54.8105V17.0898C0.000258702 7.65121 7.65212 0 17.0908 0H54.8105ZM35.7998 15.8545C24.7841 15.8549 15.8535 24.785 15.8535 35.8008C15.8536 39.7302 16.9909 43.3938 18.9531 46.4814L16.1074 56.5693L26.79 53.5986C29.4962 54.9718 32.5575 55.747 35.7998 55.7471C46.8158 55.7471 55.7459 46.8167 55.7461 35.8008C55.7461 24.7847 46.8158 15.8545 35.7998 15.8545ZM27.8643 26.7021C28.5572 26.6047 29.2612 26.6048 29.9541 26.7021C30.3973 26.8921 32.1699 31.3883 32.1699 31.7051C32.0235 32.271 31.7416 32.7928 31.3477 33.2246C30.8477 33.9121 30.4705 34.353 30.4609 34.3643C31.0574 35.8269 31.9902 37.1292 33.1836 38.1641C35.2725 40.063 37.4886 40.9496 37.9961 40.9502C38.5026 40.9502 38.6928 40.6329 39.1992 39.9365C39.7055 39.2403 40.0863 38.4171 40.5293 38.29C40.9752 38.1651 45.5288 40.2523 45.5947 40.6963C45.6672 41.1153 45.6672 41.5439 45.5947 41.9629C45.5224 42.4404 45.395 42.9084 45.2148 43.3564C44.4462 44.3412 43.3795 45.0521 42.1748 45.3828C40.816 45.648 39.4089 45.5162 38.123 45.0029C35.9183 44.3033 33.8579 43.2088 32.0439 41.7734C29.9702 39.9471 28.1391 37.8608 26.5977 35.5674C26.5716 35.5237 25.0809 33.0133 25.3945 30.5654C25.5304 29.7904 25.8194 29.0497 26.2432 28.3867C26.667 27.7238 27.2179 27.1507 27.8643 26.7021Z" fill="#F2F2F2"/>
</svg>
