<svg width="159" height="45" viewBox="0 0 159 45" fill="none" xmlns="http://www.w3.org/2000/svg">
<path d="M26.2032 10.6624L29.4019 5.09054C30.3305 3.4912 29.763 1.37594 28.1637 0.447292C26.5643 -0.481356 24.4491 0.0861511 23.5204 1.68549L20.3218 7.25738C13.5117 5.09054 5.82451 7.87648 2.10992 14.377C-0.263297 18.5044 -0.572845 23.1992 0.871719 27.3781L6.80475 17.1114C8.14613 14.7382 10.3646 13.0872 12.9957 12.365C15.6269 11.6427 18.3613 12.0038 20.7345 13.3968C25.5841 16.1827 27.2866 22.4769 24.4491 27.3265C21.6631 32.1761 15.4206 33.8786 10.5193 31.0411L13.9244 25.1081C15.5237 26.0367 17.639 25.4692 18.5676 23.8699C19.4963 22.2189 18.9288 20.1553 17.3294 19.2266C15.7301 18.298 13.6148 18.8655 12.6862 20.4648L1.85196 39.2442C0.92331 40.8951 1.49082 42.9588 3.09016 43.8874C4.6895 44.8161 6.80475 44.2486 7.7334 42.6492L10.9321 37.0773C17.7422 39.2442 25.4293 36.4582 29.1439 29.9577C32.9101 23.5087 31.4655 15.512 26.2032 10.6624Z" fill="#F2F2F2"/>
<path d="M40.5972 14.6863H45.8596C48.9035 14.6863 51.4315 16.1824 51.4315 19.6907C51.4315 23.1989 48.9035 24.7466 45.8596 24.7466H43.6927V29.6478H40.5972V14.6863ZM45.7564 22.0123C47.2526 22.0123 48.2328 21.3416 48.2328 19.6907C48.2328 18.0397 47.201 17.369 45.7564 17.369H43.6411V22.0123H45.7564Z" fill="#F2F2F2"/>
<path d="M55.92 14.6863H65.8255V17.4206H59.0155V20.8773H65.0001V23.5084H59.0155V26.9651H66.1351V29.6478H55.92V14.6863Z" fill="#F2F2F2"/>
<path d="M71.2942 14.6863H74.3897V26.9651H81.1482V29.6478H71.2942V14.6863Z" fill="#F2F2F2"/>
<path d="M84.6049 22.1674C84.6049 17.7305 88.0615 14.4802 92.3436 14.4802C96.6773 14.4802 100.082 17.7305 100.082 22.1674C100.082 26.6042 96.6773 29.8545 92.3436 29.8545C88.0615 29.8545 84.6049 26.6042 84.6049 22.1674ZM96.9353 22.1674C96.9353 19.3814 95.078 17.2146 92.3436 17.2146C89.6093 17.2146 87.752 19.3298 87.752 22.1674C87.752 24.9533 89.6093 27.1202 92.3436 27.1202C95.078 27.1202 96.9353 24.9533 96.9353 22.1674Z" fill="#F2F2F2"/>
<path d="M107.666 17.3694H103.384V14.635H115.044V17.3694H110.762V29.6482H107.666V17.3694Z" fill="#F2F2F2"/>
<path d="M118.346 22.1674C118.346 17.7305 121.802 14.4802 126.085 14.4802C130.418 14.4802 133.823 17.7305 133.823 22.1674C133.823 26.6042 130.367 29.8545 126.085 29.8545C121.751 29.8545 118.346 26.6042 118.346 22.1674ZM130.625 22.1674C130.625 19.3814 128.767 17.2146 126.033 17.2146C123.299 17.2146 121.441 19.3298 121.441 22.1674C121.441 24.9533 123.299 27.1202 126.033 27.1202C128.819 27.1202 130.625 24.9533 130.625 22.1674Z" fill="#F2F2F2"/>
<path d="M143.213 22.6832C142.491 21.9609 141.407 20.6195 141.407 20.6195C141.407 20.6195 141.614 22.2705 141.614 23.3539V29.6481H138.776V14.5317H139.086L146.618 21.6514C147.34 22.3221 148.372 23.715 148.372 23.715C148.372 23.715 148.166 22.0125 148.166 20.9807V14.6865H151.055V29.8029H150.745L143.213 22.6832Z" fill="#F2F2F2"/>
<path d="M157.039 8.23779C158.123 8.23779 159 9.11485 159 10.1983C159 11.2817 158.123 12.1588 157.039 12.1588C155.956 12.1588 155.079 11.2817 155.079 10.1983C155.079 9.16644 155.956 8.23779 157.039 8.23779ZM157.039 11.9008C157.968 11.9008 158.69 11.1785 158.69 10.2499C158.69 9.32122 157.968 8.59893 157.039 8.59893C156.111 8.59893 155.389 9.32122 155.389 10.2499C155.389 11.1269 156.162 11.9008 157.039 11.9008ZM156.369 9.32122C156.369 9.26962 156.42 9.21803 156.472 9.21803H157.246C157.607 9.21803 157.917 9.4244 157.917 9.83713C157.917 10.2499 157.607 10.4046 157.452 10.4562C157.555 10.6626 157.659 10.869 157.762 11.1269C157.813 11.1785 157.762 11.2817 157.659 11.2817H157.452C157.401 11.2817 157.349 11.2301 157.349 11.2301L157.039 10.5594H156.627V11.2301C156.627 11.2817 156.575 11.3333 156.524 11.3333H156.369C156.317 11.3333 156.266 11.2817 156.266 11.2301V9.32122H156.369ZM157.246 10.1467C157.452 10.1467 157.555 9.99191 157.555 9.83713C157.555 9.63077 157.452 9.52758 157.246 9.52758H156.73V10.1467H157.246Z" fill="#F2F2F2"/>
</svg>
