<svg width="93" height="40" viewBox="0 0 93 40" fill="none" xmlns="http://www.w3.org/2000/svg">
<path d="M91.021 20.0261C91.021 19.7825 91.021 19.5305 91.021 19.2695C91.021 18.9914 90.9957 18.7217 90.945 18.461C90.9112 18.2 90.8858 17.9392 90.8689 17.6783C90.852 17.4175 90.8183 17.174 90.7675 16.9479H76.6507L72.3673 23.8606H83.2149C82.8937 25.0258 82.4292 26.0866 81.821 27.043C81.2295 27.9821 80.5199 28.7994 79.692 29.495V29.5211C78.8303 30.2167 77.8755 30.7645 76.8281 31.1645C75.7974 31.5472 74.6991 31.7385 73.5333 31.7385C73.4995 31.7385 73.4657 31.7385 73.4318 31.7385C73.4149 31.7385 73.4065 31.7385 73.4065 31.7385C71.8858 31.7385 70.4496 31.4255 69.0979 30.7993C67.7462 30.1734 66.5889 29.3385 65.6257 28.2951C64.6288 27.1995 63.8433 25.9474 63.2687 24.5388C62.6942 23.1302 62.407 21.626 62.407 20.0261C62.407 20.0087 62.407 20 62.407 20C62.407 19.9825 62.407 19.9564 62.407 19.9216C62.407 18.3391 62.6942 16.8523 63.2687 15.461C63.8433 14.0524 64.6373 12.8264 65.6511 11.783C66.6479 10.7396 67.8223 9.90483 69.174 9.27876C70.5257 8.65271 71.9619 8.33969 73.4826 8.33969C73.4826 8.33969 73.4913 8.33969 73.5079 8.33969C73.5248 8.33969 73.5333 8.33969 73.5333 8.33969C73.5333 8.33969 73.542 8.33969 73.5585 8.33969C73.5924 8.33969 73.6093 8.33969 73.6093 8.33969C74.2513 8.33969 74.885 8.40062 75.5101 8.5223C76.1521 8.62661 76.769 8.78315 77.3602 8.99183L77.2336 8.93961C77.8419 9.1657 78.4078 9.42654 78.9316 9.72217C79.4554 10.0178 79.9454 10.3395 80.4017 10.6873V10.6612L82.3025 7.55706L84.2033 4.42679C83.4937 3.92247 82.7333 3.47032 81.9223 3.07034C81.1283 2.67036 80.3002 2.33126 79.4385 2.05301L79.3118 2.00079C78.467 1.75732 77.563 1.56603 76.6 1.42691C75.6368 1.27039 74.6653 1.19213 73.6854 1.19213C73.6516 1.19213 73.6262 1.19213 73.6093 1.19213C73.6093 1.19213 73.5924 1.19213 73.5585 1.19213C73.5418 1.19213 73.5164 1.19213 73.4826 1.19213C73.4657 1.19213 73.4403 1.19213 73.4065 1.19213C72.1055 1.19213 70.8382 1.31385 69.6048 1.55733C68.3882 1.80079 67.2055 2.16599 66.0566 2.65293L66.2087 2.60071C65.0934 3.10503 64.0545 3.68761 63.0913 4.34846C62.1283 5.00927 61.2497 5.74838 60.4554 6.56572C59.5093 7.59175 58.7066 8.60039 58.0477 9.59166C57.4057 10.6177 56.8735 11.6176 56.4511 12.5915C56.0287 13.5653 55.6823 14.5479 55.412 15.5392C55.1585 16.4956 54.9303 17.4434 54.7277 18.3825C54.3391 20.2259 53.9335 21.9823 53.5112 23.6517C53.0887 25.3212 52.2185 26.8256 50.9007 28.1646C50.3938 28.7037 49.8362 29.1993 49.2278 29.6515C48.6365 30.0862 48.0197 30.4514 47.3777 30.747L47.3016 30.7992C46.6596 31.0601 45.9838 31.2688 45.2741 31.4253C44.5813 31.5818 43.8465 31.66 43.0692 31.66C43.0692 31.66 43.0523 31.66 43.0184 31.66C43.0015 31.66 42.9931 31.66 42.9931 31.66C41.4218 31.66 39.9433 31.347 38.5578 30.721C37.1723 30.0949 35.9558 29.2428 34.9082 28.1646C33.8944 27.1386 33.0835 25.9126 32.4751 24.4866C31.8669 23.0431 31.5628 21.5127 31.5628 19.8954C31.5628 18.3303 31.8585 16.8521 32.4497 15.4609C33.0412 14.0523 33.8521 12.8263 34.8828 11.7828C35.9135 10.722 37.1216 9.87858 38.5071 9.25254C39.8926 8.60909 41.3711 8.28737 42.9425 8.28737C43.6014 8.28737 44.2434 8.34829 44.8687 8.46998C45.4938 8.57429 46.1104 8.72212 46.7188 8.91342H46.6173C47.2257 9.10472 47.7833 9.34818 48.2902 9.64383C48.797 9.92206 49.287 10.2351 49.7601 10.5829H49.7095L51.6355 7.47871L53.5871 4.32236C52.8943 3.83542 52.1424 3.39198 51.3314 2.992C50.5373 2.59202 49.701 2.25291 48.8224 1.97466H48.7209C47.8761 1.69641 46.9721 1.48773 46.0091 1.3486C45.0628 1.20949 44.0913 1.13992 43.0945 1.13992C43.0776 1.13992 43.0522 1.13992 43.0184 1.13992C43.0015 1.13992 42.9846 1.13992 42.9678 1.13992C42.9678 1.13992 42.9591 1.13992 42.9424 1.13992C42.9255 1.13992 42.917 1.13992 42.917 1.13992C41.3457 1.13992 39.825 1.33991 38.355 1.73989C36.902 2.12248 35.5334 2.66158 34.2492 3.35719L34.3253 3.33108C33.058 3.99192 31.8922 4.80055 30.8277 5.75702C29.7632 6.71349 28.8171 7.76562 27.9891 8.91338L27.9385 8.93949C27.6005 7.89607 27.1104 6.94829 26.4684 6.09616C25.8264 5.22664 25.066 4.50495 24.1873 3.93107H24.162C23.2328 3.305 22.2106 2.81808 21.0953 2.47027C19.9803 2.10508 18.8143 1.92247 17.5978 1.92247C17.5471 1.92247 17.505 1.92247 17.4711 1.92247C17.4373 1.92247 17.4119 1.92247 17.3951 1.92247H1.09863V38.077H19.0933C19.1271 38.077 19.1608 38.077 19.1946 38.077C19.2284 38.077 19.2538 38.077 19.2707 38.077C20.3521 38.077 21.3828 37.9379 22.3627 37.6598C23.3427 37.3988 24.272 37.0249 25.1506 36.538L25.0745 36.5642C25.9024 36.0945 26.6459 35.5382 27.3048 34.8946C27.9807 34.2338 28.5467 33.5034 29.0029 32.7034L29.0536 32.6252C29.8646 33.5817 30.7686 34.4338 31.7654 35.1816C32.7624 35.9293 33.8185 36.5815 34.9336 37.138L35.0602 37.164C36.1755 37.6857 37.3751 38.0944 38.6593 38.39C39.9433 38.7032 41.2781 38.8597 42.6636 38.8597C42.6636 38.8597 42.6723 38.8597 42.689 38.8597C42.7059 38.8597 42.7228 38.8597 42.7397 38.8597C42.7735 38.8597 42.7989 38.8597 42.8157 38.8597C42.8326 38.8597 42.858 38.8597 42.8918 38.8597C44.4632 38.8597 45.9922 38.6597 47.4791 38.2596C48.966 37.877 50.3515 37.3205 51.6356 36.5903L51.5596 36.6685C52.8774 35.9555 54.0686 35.1121 55.1331 34.1381C56.1976 33.1469 57.1439 32.0513 57.9718 30.8514L57.9971 30.7731C58.8081 31.9904 59.7373 33.0947 60.7849 34.0861C61.8494 35.0598 62.9984 35.8945 64.2317 36.5903L64.3078 36.6424C65.592 37.338 66.9775 37.8771 68.4643 38.2597C69.9512 38.6597 71.4972 38.8597 73.1024 38.8597C73.1024 38.8597 73.1111 38.8597 73.1277 38.8597C73.1446 38.8597 73.17 38.8597 73.2038 38.8597C73.2206 38.8597 73.2375 38.8597 73.2544 38.8597C73.2714 38.8597 73.2798 38.8597 73.2798 38.8597C74.5133 38.8597 75.7129 38.7294 76.8787 38.4684C78.0447 38.2075 79.1598 37.8338 80.2242 37.3467C81.3057 36.8772 82.3194 36.3033 83.2655 35.6251C84.2118 34.9295 85.082 34.1556 85.876 33.3035C86.687 32.4688 87.4051 31.5471 88.0304 30.5385C88.6555 29.5471 89.1877 28.495 89.627 27.382C90.0664 26.2691 90.4043 25.1039 90.6409 23.8866C90.8942 22.6867 91.0209 21.4346 91.0209 20.1303C91.0209 20.1128 91.0209 20.0954 91.0209 20.078C91.0209 20.0608 91.021 20.0435 91.021 20.0261ZM8.67676 16.6088V8.60054H17.3192C17.3361 8.60054 17.3446 8.60054 17.3446 8.60054C17.8853 8.60054 18.3837 8.70486 18.8399 8.91357C19.2962 9.10487 19.7101 9.3831 20.0818 9.74832H20.0564C20.4113 10.1135 20.6817 10.5309 20.8676 11.0004C21.0702 11.47 21.1717 11.9743 21.1717 12.5134C21.1717 12.5134 21.1717 12.5223 21.1717 12.5395C21.1717 12.5569 21.1717 12.5656 21.1717 12.5656C21.1717 12.6004 21.1717 12.6178 21.1717 12.6178C21.1717 12.6178 21.1717 12.6352 21.1717 12.67C21.1717 13.1918 21.0702 13.6961 20.8676 14.183C20.6817 14.6526 20.4197 15.0699 20.0818 15.4351H20.0564C19.7016 15.8003 19.2962 16.0873 18.8399 16.2959C18.3837 16.5046 17.8853 16.609 17.3446 16.609C17.3446 16.609 17.3359 16.609 17.3192 16.609L8.67676 16.6088ZM8.67676 31.3994V23.1824H18.9919C19.0088 23.1824 19.0173 23.1824 19.0173 23.1824C19.5749 23.1824 20.0987 23.2867 20.5886 23.4954C21.0955 23.7041 21.5434 23.9824 21.9319 24.3302C22.3036 24.6953 22.5994 25.1301 22.8189 25.6344C23.0387 26.1387 23.1484 26.6691 23.1484 27.2256C23.1484 27.2256 23.1484 27.2346 23.1484 27.2517C23.1484 27.843 23.0386 28.3908 22.8189 28.8951C22.5994 29.3994 22.2952 29.843 21.9067 30.2254C21.5349 30.608 21.0955 30.9038 20.5886 31.1123C20.0987 31.321 19.5664 31.4255 18.9919 31.4255H8.67676V31.3994Z" fill="white"/>
</svg>
