<svg width="96" height="41" viewBox="0 0 96 41" fill="none" xmlns="http://www.w3.org/2000/svg">
<path d="M95.9423 20.1505C95.9423 19.8907 95.9423 19.6217 95.9423 19.3433C95.9423 19.0465 95.9154 18.7588 95.8612 18.4806C95.8251 18.2022 95.7981 17.9239 95.78 17.6456C95.762 17.3673 95.726 17.1075 95.6719 16.8663H80.61L76.0399 24.2417H87.6137C87.271 25.485 86.7753 26.6168 86.1264 27.6372C85.4954 28.6392 84.7382 29.5112 83.8549 30.2533V30.2812C82.9355 31.0234 81.9168 31.6078 80.7993 32.0347C79.6996 32.4429 78.5278 32.647 77.2839 32.647C77.2478 32.647 77.2117 32.647 77.1756 32.647C77.1576 32.647 77.1486 32.647 77.1486 32.647C75.5261 32.647 73.9938 32.3131 72.5516 31.645C71.1094 30.9771 69.8746 30.0864 68.8469 28.9731C67.7833 27.8042 66.9451 26.4682 66.3322 24.9653C65.7192 23.4624 65.4128 21.8575 65.4128 20.1505C65.4128 20.1319 65.4128 20.1226 65.4128 20.1226C65.4128 20.1041 65.4128 20.0762 65.4128 20.0391C65.4128 18.3506 65.7192 16.7642 66.3322 15.2799C66.9451 13.777 67.7924 12.4689 68.874 11.3556C69.9376 10.2423 71.1906 9.35169 72.6328 8.68371C74.075 8.01574 75.6073 7.68177 77.2298 7.68177C77.2298 7.68177 77.2391 7.68177 77.2568 7.68177C77.2749 7.68177 77.2839 7.68177 77.2839 7.68177C77.2839 7.68177 77.2932 7.68177 77.3108 7.68177C77.3469 7.68177 77.365 7.68177 77.365 7.68177C78.05 7.68177 78.7261 7.74677 79.3931 7.8766C80.0781 7.9879 80.7362 8.15491 81.367 8.37756L81.2319 8.32185C81.881 8.56307 82.4848 8.84138 83.0436 9.1568C83.6025 9.47224 84.1252 9.8155 84.6121 10.1866V10.1587L86.6402 6.84675L88.6683 3.50691C87.9111 2.96883 87.0998 2.48641 86.2345 2.05965C85.3873 1.6329 84.5038 1.27109 83.5844 0.974218L83.4493 0.918501C82.5479 0.658733 81.5834 0.454628 80.5559 0.306199C79.5282 0.139197 78.4917 0.0557036 77.4462 0.0557036C77.4101 0.0557036 77.383 0.0557036 77.365 0.0557036C77.365 0.0557036 77.3469 0.0557036 77.3108 0.0557036C77.2929 0.0557036 77.2659 0.0557036 77.2298 0.0557036C77.2117 0.0557036 77.1847 0.0557036 77.1486 0.0557036C75.7606 0.0557036 74.4084 0.185574 73.0924 0.445355C71.7944 0.70511 70.5325 1.09476 69.3067 1.6143L69.4689 1.55858C68.279 2.09666 67.1705 2.71825 66.1429 3.42333C65.1154 4.12839 64.1779 4.91698 63.3305 5.78903C62.3211 6.88375 61.4647 7.95992 60.7616 9.01755C60.0766 10.1123 59.5087 11.1792 59.0582 12.2182C58.6074 13.2573 58.2378 14.3056 57.9495 15.3632C57.679 16.3837 57.4355 17.3949 57.2193 18.3969C56.8047 20.3637 56.372 22.2377 55.9214 24.0189C55.4706 25.8002 54.5422 27.4052 53.1361 28.8338C52.5953 29.409 52.0003 29.9378 51.3513 30.4203C50.7204 30.8841 50.0623 31.2737 49.3773 31.5891L49.2961 31.6448C48.6111 31.9232 47.89 32.1459 47.1328 32.3129C46.3937 32.4799 45.6097 32.5633 44.7803 32.5633C44.7803 32.5633 44.7623 32.5633 44.7262 32.5633C44.7081 32.5633 44.6991 32.5633 44.6991 32.5633C43.0227 32.5633 41.4452 32.2293 39.9669 31.5614C38.4887 30.8934 37.1907 29.9842 36.073 28.8338C34.9914 27.7392 34.1261 26.4311 33.477 24.9096C32.8281 23.3696 32.5037 21.7366 32.5037 20.011C32.5037 18.3412 32.8191 16.7641 33.4499 15.2797C34.081 13.7768 34.9462 12.4687 36.0459 11.3554C37.1456 10.2236 38.4346 9.32368 39.9128 8.65573C41.3911 7.9692 42.9686 7.62594 44.6451 7.62594C45.3482 7.62594 46.0332 7.69094 46.7003 7.82077C47.3673 7.93207 48.0252 8.0898 48.6743 8.2939H48.566C49.2151 8.49801 49.81 8.75776 50.3508 9.07321C50.8917 9.37007 51.4144 9.70404 51.9191 10.0751H51.8651L53.9201 6.76314L56.0023 3.39549C55.2632 2.87595 54.4609 2.40282 53.5957 1.97606C52.7484 1.54931 51.8561 1.1875 50.9187 0.890615H50.8104C49.9091 0.593743 48.9445 0.371093 47.917 0.22265C46.9074 0.0742213 45.8709 0 44.8073 0C44.7893 0 44.7622 0 44.7261 0C44.7081 0 44.69 0 44.6721 0C44.6721 0 44.6628 0 44.6451 0C44.627 0 44.618 0 44.618 0C42.9414 0 41.319 0.213378 39.7505 0.640134C38.2003 1.04833 36.74 1.62353 35.3699 2.3657L35.4511 2.33784C34.099 3.04293 32.8551 3.9057 31.7193 4.92619C30.5836 5.94669 29.5741 7.06926 28.6907 8.29386L28.6366 8.32172C28.2761 7.20844 27.7532 6.19722 27.0682 5.28804C26.3832 4.36031 25.5719 3.59031 24.6344 2.978H24.6074C23.616 2.31003 22.5253 1.7905 21.3354 1.41941C20.1457 1.02977 18.9017 0.834939 17.6038 0.834939C17.5496 0.834939 17.5047 0.834939 17.4686 0.834939C17.4325 0.834939 17.4054 0.834939 17.3875 0.834939H0V39.4099H19.1993C19.2354 39.4099 19.2713 39.4099 19.3074 39.4099C19.3435 39.4099 19.3706 39.4099 19.3886 39.4099C20.5424 39.4099 21.6421 39.2615 22.6876 38.9647C23.7332 38.6863 24.7248 38.2874 25.6622 37.7679L25.581 37.7958C26.4643 37.2947 27.2576 36.7011 27.9606 36.0144C28.6817 35.3094 29.2857 34.5301 29.7723 33.6765L29.8265 33.5931C30.6917 34.6136 31.6563 35.5228 32.7198 36.3207C33.7836 37.1184 34.9103 37.8143 36.1 38.408L36.2352 38.4358C37.4251 38.9924 38.705 39.4285 40.0752 39.7438C41.4452 40.078 42.8693 40.2449 44.3476 40.2449C44.3476 40.2449 44.3569 40.2449 44.3746 40.2449C44.3927 40.2449 44.4107 40.2449 44.4288 40.2449C44.4649 40.2449 44.4919 40.2449 44.5098 40.2449C44.5279 40.2449 44.555 40.2449 44.591 40.2449C46.2676 40.2449 47.8991 40.0315 49.4854 39.6047C51.072 39.1965 52.5502 38.6027 53.9202 37.8236L53.8391 37.907C55.2452 37.1463 56.5161 36.2465 57.6519 35.2073C58.7877 34.1498 59.7973 32.9808 60.6806 31.7006L60.7077 31.617C61.5729 32.9158 62.5643 34.0941 63.682 35.1518C64.8178 36.1907 66.0438 37.0813 67.3596 37.8237L67.4408 37.8792C68.811 38.6214 70.2893 39.1966 71.8756 39.6048C73.462 40.0316 75.1115 40.245 76.8241 40.245C76.8241 40.245 76.8334 40.245 76.8512 40.245C76.8692 40.245 76.8963 40.245 76.9324 40.245C76.9503 40.245 76.9683 40.245 76.9864 40.245C77.0044 40.245 77.0135 40.245 77.0135 40.245C78.3295 40.245 79.6094 40.1059 80.8533 39.8275C82.0973 39.5491 83.287 39.1503 84.4228 38.6307C85.5766 38.1298 86.6582 37.5174 87.6677 36.7938C88.6773 36.0517 89.6057 35.2259 90.4529 34.3168C91.3182 33.4262 92.0844 32.4428 92.7515 31.3667C93.4185 30.309 93.9864 29.1864 94.455 27.9989C94.9238 26.8115 95.2843 25.5683 95.5368 24.2695C95.8071 22.9893 95.9423 21.6533 95.9423 20.2617C95.9423 20.2431 95.9423 20.2245 95.9423 20.2059C95.9423 20.1875 95.9423 20.1691 95.9423 20.1505ZM8.08546 16.5045V7.96008H17.3065C17.3246 7.96008 17.3336 7.96008 17.3336 7.96008C17.9105 7.96008 18.4423 8.07138 18.929 8.29407C19.4158 8.49817 19.8574 8.79503 20.254 9.1847H20.227C20.6055 9.57434 20.8941 10.0197 21.0924 10.5206C21.3086 11.0216 21.4169 11.5597 21.4169 12.1349C21.4169 12.1349 21.4169 12.1444 21.4169 12.1627C21.4169 12.1813 21.4169 12.1906 21.4169 12.1906C21.4169 12.2277 21.4169 12.2463 21.4169 12.2463C21.4169 12.2463 21.4169 12.2649 21.4169 12.302C21.4169 12.8587 21.3086 13.3968 21.0924 13.9163C20.8941 14.4173 20.6146 14.8626 20.254 15.2522H20.227C19.8484 15.6418 19.4158 15.948 18.929 16.1707C18.4423 16.3933 17.9105 16.5046 17.3336 16.5046C17.3336 16.5046 17.3243 16.5046 17.3065 16.5046L8.08546 16.5045ZM8.08546 32.2852V23.5181H19.0912C19.1092 23.5181 19.1182 23.5181 19.1182 23.5181C19.7132 23.5181 20.272 23.6294 20.7948 23.8521C21.3356 24.0747 21.8135 24.3717 22.2279 24.7428C22.6246 25.1323 22.9402 25.5962 23.1744 26.1343C23.4088 26.6723 23.5259 27.2382 23.5259 27.832C23.5259 27.832 23.5259 27.8416 23.5259 27.8599C23.5259 28.4908 23.4088 29.0753 23.1744 29.6133C22.9402 30.1514 22.6156 30.6246 22.2011 31.0327C21.8044 31.4409 21.3356 31.7564 20.7948 31.9789C20.272 32.2016 19.7041 32.3131 19.0912 32.3131H8.08546V32.2852Z" fill="white"/>
</svg>
