<svg width="291" height="51" viewBox="0 0 291 51" fill="none" xmlns="http://www.w3.org/2000/svg">
<g clip-path="url(#clip0_1210_55)">
<mask id="mask0_1210_55" style="mask-type:luminance" maskUnits="userSpaceOnUse" x="0" y="3" width="158" height="45">
<path d="M157.589 3.90808H0V47.1467H157.589V3.90808Z" fill="white"/>
</mask>
<g mask="url(#mask0_1210_55)">
<path d="M35.3495 38.4552L28.4809 26.6644H23.9302V41.7542H13.2395C8.71475 41.7516 5.04588 37.955 5.04588 33.2724C5.04588 28.5897 8.71475 24.7929 13.2395 24.7929C13.921 24.7929 14.5836 24.8808 15.2155 25.0418C14.0012 23.3801 13.2796 21.311 13.2796 19.066C13.2796 13.5856 17.571 9.14455 22.8667 9.14455C28.1626 9.14455 32.454 13.5856 32.454 19.066C32.454 19.7175 32.3902 20.3543 32.2748 20.9718C33.324 19.9932 34.7129 19.3979 36.2336 19.3979C38.6575 19.3979 40.7373 20.9059 41.6545 23.0604H46.3726C45.3446 18.517 41.5413 15.0789 36.9127 14.769C35.1254 8.49304 29.516 3.90808 22.8667 3.90808C14.7769 3.90808 8.21959 10.694 8.21959 19.066C8.21959 19.5614 8.24317 20.0495 8.28798 20.5325C3.426 22.5993 0 27.5453 0 33.3235C0 40.9587 5.9796 47.1467 13.3574 47.1467H29.0398V36.5592L34.0384 45.0825H36.4954L41.5201 36.2688L41.5767 47.1467H46.6578L46.6013 26.667H42.0505L35.3495 38.4576V38.4552Z" fill="white"/>
<path d="M68.2991 28.7896C67.3135 27.8185 66.1558 27.0693 64.8189 26.54C63.4843 26.0104 62.0106 25.7468 60.4025 25.7468C58.7945 25.7468 57.3445 26.0104 56.0003 26.54C54.6563 27.0693 53.4869 27.8185 52.4918 28.7896C51.4967 29.7608 50.7258 30.8906 50.1765 32.1838C49.6269 33.4771 49.3535 34.8973 49.3535 36.4467C49.3535 37.9962 49.6269 39.4164 50.1765 40.7096C50.7258 42.0029 51.4967 43.1351 52.4918 44.1037C53.4869 45.075 54.654 45.824 56.0003 46.3536C57.3445 46.8831 58.8109 47.1465 60.4025 47.1465C61.9941 47.1465 63.4843 46.8831 64.8189 46.3536C66.1534 45.824 67.3135 45.0797 68.2991 44.1184C69.2823 43.1595 70.0558 42.0274 70.6145 40.7242C71.1734 39.4213 71.4516 37.9962 71.4516 36.4467C71.4516 34.8973 71.1711 33.4771 70.6145 32.1838C70.0558 30.8906 69.2846 29.7584 68.2991 28.7896ZM65.3589 38.8575C65.083 39.5823 64.7056 40.2044 64.2224 40.7242C63.739 41.244 63.1708 41.6393 62.5175 41.915C61.8644 42.1907 61.1594 42.3273 60.4002 42.3273C59.6409 42.3273 58.9384 42.1907 58.2851 41.915C57.632 41.6416 57.0638 41.244 56.5804 40.7242C56.097 40.2044 55.7198 39.5823 55.4439 38.8575C55.168 38.1328 55.0314 37.3301 55.0314 36.4467C55.0314 35.5634 55.168 34.7363 55.4439 34.0213C55.7175 33.3064 56.097 32.6889 56.5804 32.1693C57.0638 31.6495 57.632 31.2542 58.2851 30.9785C58.9384 30.7052 59.6432 30.566 60.4002 30.566C61.1571 30.566 61.8621 30.7028 62.5175 30.9785C63.1708 31.2542 63.739 31.6495 64.2224 32.1693C64.7056 32.6889 65.083 33.3064 65.3589 34.0213C65.6323 34.7363 65.7714 35.5463 65.7714 36.4467C65.7714 37.3471 65.6346 38.1328 65.3589 38.8575Z" fill="white"/>
<path d="M79.939 26.5691H74.3154V47.1465H89.4272V42.5297H79.939V26.5691Z" fill="white"/>
<path d="M109.542 28.7896C108.557 27.8185 107.399 27.0693 106.062 26.54C104.727 26.0104 103.254 25.7468 101.646 25.7468C100.038 25.7468 98.5876 26.0104 97.2436 26.54C95.8996 27.0693 94.7301 27.8185 93.735 28.7896C92.7401 29.7608 91.9689 30.8906 91.4196 32.1838C90.8703 33.4771 90.5967 34.8973 90.5967 36.4467C90.5967 37.9962 90.8703 39.4164 91.4196 40.7096C91.9689 42.0029 92.7401 43.1351 93.735 44.1037C94.7301 45.0725 95.8973 45.824 97.2436 46.3536C98.5876 46.8831 100.057 47.1465 101.646 47.1465C103.235 47.1465 104.727 46.8831 106.062 46.3536C107.397 45.824 108.557 45.0797 109.542 44.1184C110.528 43.1595 111.299 42.0274 111.858 40.7242C112.417 39.4213 112.695 37.9962 112.695 36.4467C112.695 34.8973 112.414 33.4771 111.858 32.1838C111.299 30.8906 110.528 29.7584 109.542 28.7896ZM106.602 38.8575C106.329 39.5823 105.949 40.2044 105.466 40.7242C104.982 41.244 104.414 41.6393 103.761 41.915C103.108 42.1907 102.403 42.3273 101.646 42.3273C100.889 42.3273 100.184 42.1907 99.5285 41.915C98.8752 41.6416 98.3069 41.244 97.8237 40.7242C97.3403 40.2044 96.963 39.5823 96.6872 38.8575C96.4136 38.1328 96.2745 37.3301 96.2745 36.4467C96.2745 35.5634 96.4113 34.7363 96.6872 34.0213C96.9607 33.3064 97.3403 32.6889 97.8237 32.1693C98.3069 31.6495 98.8752 31.2542 99.5285 30.9785C100.182 30.7052 100.887 30.566 101.646 30.566C102.405 30.566 103.108 30.7028 103.761 30.9785C104.414 31.2542 104.982 31.6495 105.466 32.1693C105.949 32.6889 106.326 33.3064 106.602 34.0213C106.876 34.7363 107.015 35.5463 107.015 36.4467C107.015 37.3471 106.878 38.1328 106.602 38.8575Z" fill="white"/>
<path d="M122.186 32.1693C122.669 31.6495 123.252 31.2542 123.933 30.9785C124.615 30.7052 125.362 30.566 126.178 30.566C127.123 30.566 127.982 30.771 128.748 31.1835C129.514 31.5958 130.219 32.1935 130.863 32.9769L134.442 29.6265C133.476 28.3724 132.271 27.4134 130.82 26.7473C129.373 26.0812 127.729 25.7468 125.893 25.7468C124.32 25.7468 122.867 26.0079 121.533 26.5253C120.198 27.0451 119.043 27.7843 118.069 28.7433C117.093 29.7047 116.331 30.8345 115.782 32.1375C115.233 33.4406 114.959 34.8752 114.959 36.4443C114.959 38.0132 115.233 39.448 115.782 40.751C116.331 42.0541 117.093 43.1863 118.069 44.1453C119.043 45.1067 120.198 45.8461 121.533 46.3633C122.867 46.8831 124.32 47.1418 125.893 47.1418C127.729 47.1418 129.373 46.8026 130.82 46.1267C132.268 45.4508 133.476 44.4941 134.442 43.2619L130.863 39.9117C130.219 40.6949 129.514 41.2928 128.748 41.7051C127.982 42.1176 127.123 42.3224 126.178 42.3224C125.364 42.3224 124.617 42.1858 123.933 41.9101C123.252 41.6367 122.669 41.2391 122.186 40.7193C121.703 40.1996 121.325 39.5774 121.05 38.8527C120.776 38.1279 120.637 37.3252 120.637 36.4418C120.637 35.5586 120.774 34.7557 121.05 34.0311C121.323 33.3064 121.703 32.684 122.186 32.1644V32.1693Z" fill="white"/>
<path d="M156.752 32.184C156.193 30.8908 155.423 29.7585 154.437 28.7899C153.451 27.8187 152.294 27.0696 150.957 26.54C149.622 26.0105 148.148 25.7471 146.54 25.7471C144.932 25.7471 143.482 26.0105 142.138 26.54C140.794 27.0696 139.625 27.8187 138.63 28.7899C137.635 29.761 136.863 30.8908 136.314 32.184C135.765 33.4772 135.491 34.8974 135.491 36.4469C135.491 37.9963 135.765 39.4164 136.314 40.7098C136.863 42.003 137.635 43.1351 138.63 44.1039C139.625 45.0751 140.792 45.8243 142.138 46.3538C143.482 46.8832 144.949 47.1467 146.54 47.1467C148.132 47.1467 149.622 46.8832 150.957 46.3538C152.291 45.8243 153.451 45.08 154.437 44.1186C155.423 43.1596 156.193 42.0274 156.752 40.7245C157.311 39.4213 157.589 37.9963 157.589 36.4469C157.589 34.8974 157.309 33.4772 156.752 32.184ZM151.499 38.8578C151.223 39.5823 150.846 40.2047 150.362 40.7245C149.879 41.244 149.311 41.6393 148.658 41.9152C148.005 42.191 147.3 42.3275 146.543 42.3275C145.786 42.3275 145.081 42.191 144.428 41.9152C143.774 41.6419 143.206 41.244 142.723 40.7245C142.239 40.2047 141.862 39.5823 141.586 38.8578C141.31 38.133 141.174 37.3301 141.174 36.4469C141.174 35.5635 141.31 34.7364 141.586 34.0214C141.86 33.3064 142.239 32.6891 142.723 32.1694C143.206 31.6496 143.774 31.2543 144.428 30.9786C145.081 30.7052 145.786 30.5663 146.543 30.5663C147.3 30.5663 148.005 30.7029 148.658 30.9786C149.311 31.2543 149.879 31.6496 150.362 32.1694C150.846 32.6891 151.223 33.3064 151.499 34.0214C151.772 34.7364 151.912 35.5465 151.912 36.4469C151.912 37.3473 151.775 38.133 151.499 38.8578Z" fill="white"/>
<path d="M156.752 32.184C156.193 30.8908 155.423 29.7585 154.437 28.7899C153.451 27.8187 152.294 27.0696 150.957 26.54C149.622 26.0105 148.148 25.7471 146.54 25.7471C144.932 25.7471 143.482 26.0105 142.138 26.54C140.794 27.0696 139.625 27.8187 138.63 28.7899C137.635 29.761 136.863 30.8908 136.314 32.184C135.765 33.4772 135.491 34.8974 135.491 36.4469C135.491 37.9963 135.765 39.4164 136.314 40.7098C136.863 42.003 137.635 43.1351 138.63 44.1039C139.625 45.0751 140.792 45.8243 142.138 46.3538C143.482 46.8832 144.949 47.1467 146.54 47.1467C148.132 47.1467 149.622 46.8832 150.957 46.3538C152.291 45.8243 153.451 45.08 154.437 44.1186C155.423 43.1596 156.193 42.0274 156.752 40.7245C157.311 39.4213 157.589 37.9963 157.589 36.4469C157.589 34.8974 157.309 33.4772 156.752 32.184ZM151.499 38.8578C151.223 39.5823 150.846 40.2047 150.362 40.7245C149.879 41.244 149.311 41.6393 148.658 41.9152C148.005 42.191 147.3 42.3275 146.543 42.3275C145.786 42.3275 145.081 42.191 144.428 41.9152C143.774 41.6419 143.206 41.244 142.723 40.7245C142.239 40.2047 141.862 39.5823 141.586 38.8578C141.31 38.133 141.174 37.3301 141.174 36.4469C141.174 35.5635 141.31 34.7364 141.586 34.0214C141.86 33.3064 142.239 32.6891 142.723 32.1694C143.206 31.6496 143.774 31.2543 144.428 30.9786C145.081 30.7052 145.786 30.5663 146.543 30.5663C147.3 30.5663 148.005 30.7029 148.658 30.9786C149.311 31.2543 149.879 31.6496 150.362 32.1694C150.846 32.6891 151.223 33.3064 151.499 34.0214C151.772 34.7364 151.912 35.5465 151.912 36.4469C151.912 37.3473 151.775 38.133 151.499 38.8578Z" fill="white"/>
</g>
<path d="M180.452 0V50.8904" stroke="white" stroke-width="2"/>
<mask id="mask1_1210_55" style="mask-type:luminance" maskUnits="userSpaceOnUse" x="203" y="7" width="88" height="37">
<path d="M291 7.22986H203.299V43.7828H291V7.22986Z" fill="white"/>
</mask>
<g mask="url(#mask1_1210_55)">
<path d="M291 25.5318V24.7989C291 24.5296 290.975 24.2676 290.926 24.0155C290.893 23.7625 290.868 23.5094 290.851 23.2573C290.836 23.0043 290.803 22.7682 290.754 22.5494H276.985L272.806 29.2486H283.388C283.074 30.3772 282.622 31.4056 282.027 32.3324C281.45 33.2424 280.759 34.0346 279.95 34.7085V34.7337C279.11 35.4075 278.179 35.9388 277.157 36.3262C276.152 36.6969 275.08 36.8827 273.945 36.8827H273.821C272.338 36.8827 270.936 36.5793 269.619 35.9728C268.301 35.3662 267.172 34.5569 266.232 33.5457C265.259 32.484 264.495 31.27 263.933 29.9053C263.373 28.5404 263.092 27.0823 263.092 25.5318V25.4306C263.092 23.8971 263.373 22.456 263.933 21.1083C264.495 19.7434 265.269 18.5555 266.256 17.5442C267.229 16.533 268.375 15.7245 269.692 15.1171C271.01 14.5105 272.411 14.2072 273.894 14.2072H274.018C274.644 14.2072 275.262 14.2664 275.871 14.384C276.498 14.4854 277.1 14.637 277.677 14.8389L277.553 14.7886C278.147 15.0076 278.699 15.2606 279.209 15.5468C279.719 15.8331 280.199 16.1453 280.644 16.4818V16.4567L282.497 13.449L284.351 10.4152C283.659 9.92621 282.918 9.48834 282.127 9.10072C281.351 8.71308 280.545 8.38467 279.704 8.11458L279.58 8.06434C278.756 7.82836 277.874 7.64261 276.935 7.50801C275.995 7.35638 275.048 7.28012 274.092 7.28012H273.821C272.552 7.28012 271.316 7.39765 270.112 7.63364C268.926 7.86962 267.774 8.22317 266.652 8.69514L266.801 8.64488C265.712 9.13392 264.699 9.6983 263.761 10.339C262.821 10.9796 261.965 11.6957 261.189 12.488C260.266 13.4822 259.483 14.4593 258.841 15.4203C258.214 16.4145 257.697 17.3836 257.284 18.3276C256.871 19.2715 256.535 20.2235 256.271 21.1837C256.023 22.1105 255.801 23.0293 255.602 23.9393C255.224 25.7257 254.829 27.4278 254.418 29.0457C254.005 30.6635 253.157 32.1216 251.871 33.419C251.376 33.9413 250.833 34.4215 250.239 34.8601C249.662 35.281 249.06 35.6355 248.433 35.9216L248.359 35.972C247.732 36.225 247.075 36.4269 246.381 36.5785C245.707 36.7301 244.988 36.8056 244.232 36.8056H244.157C242.623 36.8056 241.182 36.5021 239.831 35.8956C238.481 35.289 237.294 34.4627 236.272 33.4183C235.282 32.4241 234.493 31.236 233.899 29.8541C233.305 28.4552 233.008 26.9721 233.008 25.4054C233.008 23.8387 233.297 22.456 233.874 21.1083C234.451 19.7434 235.242 18.5555 236.247 17.5442C237.252 16.5159 238.431 15.6985 239.782 15.0919C241.133 14.4683 242.575 14.1569 244.108 14.1569C244.75 14.1569 245.376 14.2162 245.986 14.3337C246.595 14.4351 247.197 14.5778 247.791 14.7635H247.692C248.284 14.9493 248.829 15.1853 249.324 15.4715C249.817 15.7407 250.296 16.0448 250.757 16.3813H250.709L252.587 13.3727L254.49 10.3139C253.814 9.84188 253.08 9.41207 252.289 9.02443C251.515 8.63681 250.7 8.3084 249.844 8.03832H249.744C248.921 7.76823 248.038 7.56634 247.1 7.43175C246.177 7.29715 245.229 7.22986 244.257 7.22986H244.085C242.55 7.22986 241.068 7.42368 239.635 7.8113C238.217 8.18188 236.883 8.70411 235.63 9.37887L235.704 9.35374C234.468 9.99441 233.331 10.7777 232.294 11.7046C231.256 12.6316 230.331 13.6509 229.525 14.7635L229.475 14.7886C229.147 13.7774 228.669 12.8595 228.042 12.0331C227.416 11.1905 226.674 10.4906 225.816 9.93518H225.794C224.886 9.32862 223.89 8.85664 222.801 8.51926C221.714 8.16574 220.577 7.98808 219.391 7.98808H203.299V43.0246H221.023C222.077 43.0246 223.082 42.89 224.038 42.6199C224.993 42.3669 225.901 42.0044 226.757 41.5333L226.682 41.5585C227.49 41.1034 228.214 40.5643 228.858 39.9406C229.516 39.2999 230.068 38.5919 230.515 37.8168L230.563 37.7413C231.354 38.6683 232.235 39.4937 233.207 40.2188C234.18 40.9428 235.209 41.5755 236.299 42.1148L236.421 42.1398C237.51 42.645 238.679 43.0416 239.933 43.3279C241.184 43.6312 242.485 43.7828 243.838 43.7828H244.06C245.592 43.7828 247.084 43.5889 248.535 43.2015C249.985 42.8308 251.336 42.2915 252.587 41.5835L252.515 41.659C253.799 40.968 254.96 40.1506 256 39.2067C257.037 38.2465 257.96 37.184 258.767 36.0212L258.791 35.945C259.582 37.1248 260.488 38.1945 261.51 39.1555C262.548 40.0995 263.669 40.9078 264.871 41.5828L264.946 41.633C266.199 42.3067 267.55 42.829 269 43.2005C270.45 43.5882 271.958 43.782 273.525 43.782H273.697C274.9 43.782 276.07 43.6554 277.207 43.4023C278.344 43.1493 279.431 42.7878 280.47 42.3157C281.525 41.8608 282.513 41.3045 283.436 40.6478C284.358 39.9738 285.207 39.2237 285.983 38.3981C286.774 37.5897 287.473 36.6959 288.084 35.7189C288.694 34.7579 289.212 33.7385 289.642 32.6599C290.07 31.5815 290.398 30.4526 290.629 29.2728C290.878 28.1098 291 26.8967 291 25.6325V25.531V25.5318ZM210.689 22.2199V14.4593H219.144C219.672 14.4593 220.157 14.5607 220.602 14.7626C221.047 14.9484 221.451 15.2176 221.814 15.572H221.789C222.135 15.9255 222.398 16.3302 222.58 16.7851C222.777 17.24 222.876 17.7291 222.876 18.2513V18.4029C222.876 18.9081 222.777 19.3971 222.58 19.8691C222.398 20.324 222.142 20.7286 221.814 21.0823H221.789C221.443 21.4358 221.047 21.7139 220.602 21.9167C220.159 22.1185 219.672 22.2199 219.144 22.2199H210.691H210.689ZM210.689 36.5533V28.5908H220.774C221.319 28.5908 221.829 28.6923 222.308 28.8941C222.801 29.096 223.239 29.366 223.617 29.7035C223.98 30.0569 224.269 30.4786 224.483 30.9667C224.697 31.4558 224.804 31.9692 224.804 32.5092V32.5345C224.804 33.1078 224.697 33.6381 224.483 34.127C224.269 34.6161 223.973 35.046 223.592 35.4164C223.231 35.7871 222.801 36.0742 222.308 36.276C221.829 36.4779 221.311 36.5793 220.751 36.5793H210.689V36.5543V36.5533Z" fill="white"/>
</g>
</g>
<defs>
<clipPath id="clip0_1210_55">
<rect width="291" height="51" fill="white"/>
</clipPath>
</defs>
</svg>
