<svg width="291" height="51" viewBox="0 0 291 51" fill="none" xmlns="http://www.w3.org/2000/svg">
<g clip-path="url(#clip0_1210_55)">
<g clip-path="url(#clip1_1210_55)">
<mask id="mask0_1210_55" style="mask-type:luminance" maskUnits="userSpaceOnUse" x="0" y="3" width="158" height="44">
<path d="M157.589 3.83142H0V46.2222H157.589V3.83142Z" fill="white"/>
</mask>
<g mask="url(#mask0_1210_55)">
<path d="M35.3495 37.7012L28.4809 26.1416H23.9302V40.9354H13.2395C8.71475 40.933 5.04588 37.2107 5.04588 32.6199C5.04588 28.0291 8.71475 24.3067 13.2395 24.3067C13.921 24.3067 14.5836 24.3929 15.2155 24.5508C14.0012 22.9217 13.2796 20.8931 13.2796 18.6921C13.2796 13.3191 17.571 8.96521 22.8667 8.96521C28.1626 8.96521 32.454 13.3191 32.454 18.6921C32.454 19.3308 32.3902 19.9552 32.2748 20.5605C33.324 19.6012 34.7129 19.0175 36.2336 19.0175C38.6575 19.0175 40.7373 20.496 41.6545 22.6082H46.3726C45.3446 18.1539 41.5413 14.7832 36.9127 14.4794C35.1254 8.32648 29.516 3.83142 22.8667 3.83142C14.7769 3.83142 8.21959 10.4843 8.21959 18.6921C8.21959 19.1778 8.24317 19.6563 8.28798 20.1299C3.426 22.1561 0 27.0052 0 32.6701C0 40.1556 5.9796 46.2222 13.3574 46.2222H29.0398V35.8423L34.0384 44.1985H36.4954L41.5201 35.5577L41.5767 46.2222H46.6578L46.6013 26.1441H42.0505L35.3495 37.7035V37.7012Z" fill="#F2F2F2"/>
<path d="M68.2991 28.2251C67.3135 27.273 66.1558 26.5385 64.8189 26.0195C63.4843 25.5004 62.0106 25.2419 60.4025 25.2419C58.7945 25.2419 57.3445 25.5004 56.0003 26.0195C54.6563 26.5385 53.4869 27.273 52.4918 28.2251C51.4967 29.1772 50.7258 30.2849 50.1765 31.5527C49.6269 32.8207 49.3535 34.213 49.3535 35.732C49.3535 37.2511 49.6269 38.6435 50.1765 39.9113C50.7258 41.1793 51.4967 42.2893 52.4918 43.2389C53.4869 44.1912 54.654 44.9255 56.0003 45.4446C57.3445 45.9638 58.8109 46.222 60.4025 46.222C61.9942 46.222 63.4843 45.9638 64.8189 45.4446C66.1534 44.9255 67.3135 44.1958 68.2991 43.2532C69.2823 42.3132 70.0558 41.2032 70.6145 39.9257C71.1734 38.6483 71.4516 37.2511 71.4516 35.732C71.4516 34.213 71.1711 32.8207 70.6145 31.5527C70.0558 30.2849 69.2846 29.1749 68.2991 28.2251ZM65.3589 38.0956C65.083 38.8061 64.7056 39.4161 64.2224 39.9257C63.739 40.4352 63.1708 40.8228 62.5175 41.0931C61.8644 41.3634 61.1594 41.4973 60.4002 41.4973C59.6409 41.4973 58.9384 41.3634 58.2851 41.0931C57.632 40.8251 57.0638 40.4352 56.5804 39.9257C56.097 39.4161 55.7198 38.8061 55.4439 38.0956C55.168 37.385 55.0314 36.5981 55.0314 35.732C55.0314 34.8661 55.168 34.0552 55.4439 33.3542C55.7175 32.6532 56.097 32.0479 56.5804 31.5385C57.0638 31.0289 57.632 30.6414 58.2851 30.3711C58.9384 30.1031 59.6432 29.9667 60.4002 29.9667C61.1571 29.9667 61.8621 30.1008 62.5175 30.3711C63.1708 30.6414 63.739 31.0289 64.2224 31.5385C64.7056 32.0479 65.083 32.6532 65.3589 33.3542C65.6323 34.0552 65.7714 34.8492 65.7714 35.732C65.7714 36.6147 65.6346 37.385 65.3589 38.0956Z" fill="#F2F2F2"/>
<path d="M79.939 26.0481H74.3154V46.222H89.4272V41.6958H79.939V26.0481Z" fill="#F2F2F2"/>
<path d="M109.542 28.2251C108.557 27.273 107.399 26.5385 106.062 26.0195C104.727 25.5004 103.254 25.2419 101.646 25.2419C100.038 25.2419 98.5876 25.5004 97.2436 26.0195C95.8996 26.5385 94.7301 27.273 93.735 28.2251C92.7401 29.1772 91.9689 30.2849 91.4196 31.5527C90.8703 32.8207 90.5967 34.213 90.5967 35.732C90.5967 37.2511 90.8703 38.6435 91.4196 39.9113C91.9689 41.1793 92.7401 42.2893 93.735 43.2389C94.7301 44.1887 95.8973 44.9255 97.2436 45.4446C98.5876 45.9638 100.057 46.222 101.646 46.222C103.235 46.222 104.727 45.9638 106.062 45.4446C107.397 44.9255 108.557 44.1958 109.542 43.2532C110.528 42.3132 111.299 41.2032 111.858 39.9257C112.417 38.6483 112.695 37.2511 112.695 35.732C112.695 34.213 112.414 32.8207 111.858 31.5527C111.299 30.2849 110.528 29.1749 109.542 28.2251ZM106.602 38.0956C106.329 38.8061 105.949 39.4161 105.466 39.9257C104.982 40.4352 104.414 40.8228 103.761 41.0931C103.108 41.3634 102.403 41.4973 101.646 41.4973C100.889 41.4973 100.184 41.3634 99.5285 41.0931C98.8752 40.8251 98.3069 40.4352 97.8237 39.9257C97.3403 39.4161 96.963 38.8061 96.6872 38.0956C96.4136 37.385 96.2745 36.5981 96.2745 35.732C96.2745 34.8661 96.4113 34.0552 96.6872 33.3542C96.9607 32.6532 97.3403 32.0479 97.8237 31.5385C98.3069 31.0289 98.8752 30.6414 99.5285 30.3711C100.182 30.1031 100.887 29.9667 101.646 29.9667C102.405 29.9667 103.108 30.1008 103.761 30.3711C104.414 30.6414 104.982 31.0289 105.466 31.5385C105.949 32.0479 106.326 32.6532 106.602 33.3542C106.876 34.0552 107.015 34.8492 107.015 35.732C107.015 36.6147 106.878 37.385 106.602 38.0956Z" fill="#F2F2F2"/>
<path d="M122.186 31.5385C122.669 31.0289 123.252 30.6414 123.933 30.3711C124.615 30.1031 125.362 29.9667 126.178 29.9667C127.123 29.9667 127.982 30.1676 128.748 30.572C129.514 30.9762 130.219 31.5623 130.863 32.3303L134.442 29.0456C133.476 27.8161 132.271 26.8759 130.82 26.2228C129.373 25.5697 127.729 25.2419 125.893 25.2419C124.32 25.2419 122.867 25.4979 121.533 26.0052C120.198 26.5147 119.043 27.2395 118.069 28.1797C117.093 29.1222 116.331 30.2299 115.782 31.5073C115.233 32.7849 114.959 34.1914 114.959 35.7297C114.959 37.2678 115.233 38.6745 115.782 39.9519C116.331 41.2295 117.093 42.3395 118.069 43.2797C119.043 44.2222 120.198 44.9471 121.533 45.4542C122.867 45.9638 124.32 46.2174 125.893 46.2174C127.729 46.2174 129.373 45.8849 130.82 45.2222C132.268 44.5596 133.476 43.6216 134.442 42.4136L130.863 39.1291C130.219 39.8969 129.514 40.4831 128.748 40.8873C127.982 41.2918 127.123 41.4925 126.178 41.4925C125.364 41.4925 124.617 41.3586 123.933 41.0883C123.252 40.8203 122.669 40.4304 122.186 39.9209C121.703 39.4113 121.325 38.8013 121.05 38.0908C120.776 37.3803 120.637 36.5933 120.637 35.7272C120.637 34.8613 120.774 34.0741 121.05 33.3638C121.323 32.6532 121.703 32.0431 122.186 31.5337V31.5385Z" fill="#F2F2F2"/>
<path d="M156.752 31.5529C156.193 30.2851 155.423 29.1749 154.437 28.2253C153.451 27.2732 152.294 26.5387 150.957 26.0196C149.622 25.5004 148.148 25.2422 146.54 25.2422C144.932 25.2422 143.482 25.5004 142.138 26.0196C140.794 26.5387 139.625 27.2732 138.63 28.2253C137.635 29.1774 136.863 30.2851 136.314 31.5529C135.765 32.8207 135.491 34.2131 135.491 35.7322C135.491 37.2512 135.765 38.6435 136.314 39.9115C136.863 41.1794 137.635 42.2893 138.63 43.2391C139.625 44.1912 140.792 44.9257 142.138 45.4449C143.482 45.9638 144.949 46.2223 146.54 46.2223C148.132 46.2223 149.622 45.9638 150.957 45.4449C152.291 44.9257 153.451 44.196 154.437 43.2535C155.423 42.3133 156.193 41.2033 156.752 39.9259C157.311 38.6483 157.589 37.2512 157.589 35.7322C157.589 34.2131 157.309 32.8207 156.752 31.5529ZM151.499 38.0958C151.223 38.8062 150.846 39.4163 150.362 39.9259C149.879 40.4353 149.311 40.8228 148.658 41.0933C148.005 41.3636 147.3 41.4976 146.543 41.4976C145.786 41.4976 145.081 41.3636 144.428 41.0933C143.774 40.8253 143.206 40.4353 142.723 39.9259C142.239 39.4163 141.862 38.8062 141.586 38.0958C141.31 37.3853 141.174 36.5981 141.174 35.7322C141.174 34.8661 141.31 34.0552 141.586 33.3543C141.86 32.6533 142.239 32.0481 142.723 31.5385C143.206 31.029 143.774 30.6414 144.428 30.3711C145.081 30.1031 145.786 29.9669 146.543 29.9669C147.3 29.9669 148.005 30.1008 148.658 30.3711C149.311 30.6414 149.879 31.029 150.362 31.5385C150.846 32.0481 151.223 32.6533 151.499 33.3543C151.772 34.0552 151.912 34.8495 151.912 35.7322C151.912 36.615 151.775 37.3853 151.499 38.0958Z" fill="#F2F2F2"/>
<path d="M156.752 31.5529C156.193 30.2851 155.423 29.1749 154.437 28.2253C153.451 27.2732 152.294 26.5387 150.957 26.0196C149.622 25.5004 148.148 25.2422 146.54 25.2422C144.932 25.2422 143.482 25.5004 142.138 26.0196C140.794 26.5387 139.625 27.2732 138.63 28.2253C137.635 29.1774 136.863 30.2851 136.314 31.5529C135.765 32.8207 135.491 34.2131 135.491 35.7322C135.491 37.2512 135.765 38.6435 136.314 39.9115C136.863 41.1794 137.635 42.2893 138.63 43.2391C139.625 44.1912 140.792 44.9257 142.138 45.4449C143.482 45.9638 144.949 46.2223 146.54 46.2223C148.132 46.2223 149.622 45.9638 150.957 45.4449C152.291 44.9257 153.451 44.196 154.437 43.2535C155.423 42.3133 156.193 41.2033 156.752 39.9259C157.311 38.6483 157.589 37.2512 157.589 35.7322C157.589 34.2131 157.309 32.8207 156.752 31.5529ZM151.499 38.0958C151.223 38.8062 150.846 39.4163 150.362 39.9259C149.879 40.4353 149.311 40.8228 148.658 41.0933C148.005 41.3636 147.3 41.4976 146.543 41.4976C145.786 41.4976 145.081 41.3636 144.428 41.0933C143.774 40.8253 143.206 40.4353 142.723 39.9259C142.239 39.4163 141.862 38.8062 141.586 38.0958C141.31 37.3853 141.174 36.5981 141.174 35.7322C141.174 34.8661 141.31 34.0552 141.586 33.3543C141.86 32.6533 142.239 32.0481 142.723 31.5385C143.206 31.029 143.774 30.6414 144.428 30.3711C145.081 30.1031 145.786 29.9669 146.543 29.9669C147.3 29.9669 148.005 30.1008 148.658 30.3711C149.311 30.6414 149.879 31.029 150.362 31.5385C150.846 32.0481 151.223 32.6533 151.499 33.3543C151.772 34.0552 151.912 34.8495 151.912 35.7322C151.912 36.615 151.775 37.3853 151.499 38.0958Z" fill="#F2F2F2"/>
</g>
<path d="M180.452 0V49.8925" stroke="#F2F2F2" stroke-width="2"/>
<mask id="mask1_1210_55" style="mask-type:luminance" maskUnits="userSpaceOnUse" x="203" y="10" width="88" height="37">
<path d="M291 10.3448H203.299V46.1811H291V10.3448Z" fill="white"/>
</mask>
<g mask="url(#mask1_1210_55)">
<path d="M291 28.288V27.5694C291 27.3054 290.975 27.0485 290.926 26.8014C290.893 26.5533 290.868 26.3052 290.851 26.0581C290.836 25.81 290.803 25.5786 290.754 25.364H276.985L272.806 31.9318H283.388C283.074 33.0383 282.622 34.0466 282.027 34.9552C281.45 35.8473 280.759 36.624 279.95 37.2847V37.3094C279.11 37.9699 278.179 38.4908 277.157 38.8707C276.152 39.2341 275.08 39.4163 273.945 39.4163H273.821C272.338 39.4163 270.936 39.1188 269.619 38.5242C268.301 37.9295 267.172 37.136 266.232 36.1447C265.259 35.1039 264.495 33.9136 263.933 32.5757C263.373 31.2376 263.092 29.8081 263.092 28.288V28.1887C263.092 26.6853 263.373 25.2724 263.933 23.9512C264.495 22.613 265.269 21.4483 266.256 20.4569C267.229 19.4655 268.375 18.673 269.692 18.0774C271.01 17.4827 272.411 17.1854 273.894 17.1854H274.018C274.644 17.1854 275.262 17.2434 275.871 17.3587C276.498 17.4581 277.1 17.6067 277.677 17.8047L277.553 17.7554C278.147 17.9701 278.699 18.2181 279.209 18.4988C279.719 18.7794 280.199 19.0855 280.644 19.4153V19.3908L282.497 16.442L284.351 13.4678C283.659 12.9883 282.918 12.559 282.127 12.179C281.351 11.799 280.545 11.477 279.704 11.2122L279.58 11.163C278.756 10.9316 277.874 10.7495 276.935 10.6175C275.995 10.4689 275.048 10.3941 274.092 10.3941H273.821C272.552 10.3941 271.316 10.5094 270.112 10.7407C268.926 10.9721 267.774 11.3187 266.652 11.7814L266.801 11.7321C265.712 12.2116 264.699 12.7649 263.761 13.393C262.821 14.0211 261.965 14.7231 261.189 15.4999C260.266 16.4746 259.483 17.4326 258.841 18.3747C258.214 19.3494 257.697 20.2994 257.284 21.2249C256.871 22.1504 256.535 23.0837 256.271 24.0251C256.023 24.9337 255.801 25.8345 255.602 26.7267C255.224 28.478 254.829 30.1468 254.418 31.733C254.005 33.319 253.157 34.7485 251.871 36.0205C251.376 36.5326 250.833 37.0033 250.239 37.4334C249.662 37.846 249.06 38.1935 248.433 38.474L248.359 38.5234C247.732 38.7715 247.075 38.9694 246.381 39.118C245.707 39.2667 244.988 39.3406 244.232 39.3406H244.157C242.623 39.3406 241.182 39.0431 239.831 38.4485C238.481 37.8539 237.294 37.0437 236.272 36.0198C235.282 35.045 234.493 33.8803 233.899 32.5255C233.305 31.154 233.008 29.7 233.008 28.164C233.008 26.628 233.297 25.2724 233.874 23.9512C234.451 22.613 235.242 21.4483 236.247 20.4569C237.252 19.4489 238.431 18.6474 239.782 18.0528C241.133 17.4414 242.575 17.1361 244.108 17.1361C244.75 17.1361 245.376 17.1942 245.986 17.3094C246.595 17.4088 247.197 17.5487 247.791 17.7308H247.692C248.284 17.9129 248.829 18.1443 249.324 18.4249C249.817 18.6888 250.296 18.987 250.757 19.3169H250.709L252.587 16.3673L254.49 13.3684C253.814 12.9057 253.08 12.4843 252.289 12.1042C251.515 11.7242 250.7 11.4022 249.844 11.1375H249.744C248.921 10.8727 248.038 10.6747 247.1 10.5428C246.177 10.4108 245.229 10.3448 244.257 10.3448H244.085C242.55 10.3448 241.068 10.5349 239.635 10.9149C238.217 11.2782 236.883 11.7902 235.63 12.4517L235.704 12.4271C234.468 13.0552 233.331 13.8232 232.294 14.7319C231.256 15.6406 230.331 16.64 229.525 17.7308L229.475 17.7554C229.147 16.764 228.669 15.8641 228.042 15.0539C227.416 14.2278 226.674 13.5417 225.816 12.9971H225.794C224.886 12.4025 223.89 11.9397 222.801 11.609C221.714 11.2624 220.577 11.0882 219.391 11.0882H203.299V45.4378H221.023C222.077 45.4378 223.082 45.3058 224.038 45.041C224.993 44.7929 225.901 44.4376 226.757 43.9757L226.682 44.0004C227.49 43.5542 228.214 43.0257 228.858 42.4142C229.516 41.786 230.068 41.092 230.515 40.332L230.563 40.2581C231.354 41.1669 232.235 41.9761 233.207 42.687C234.18 43.3968 235.209 44.0171 236.299 44.5458L236.421 44.5703C237.51 45.0655 238.679 45.4544 239.933 45.7351C241.184 46.0324 242.485 46.1811 243.838 46.1811H244.06C245.592 46.1811 247.084 45.991 248.535 45.6111C249.985 45.2477 251.336 44.719 252.587 44.0249L252.515 44.0989C253.799 43.4215 254.96 42.6201 256 41.6947C257.037 40.7533 257.96 39.7117 258.767 38.5717L258.791 38.497C259.582 39.6537 260.488 40.7023 261.51 41.6445C262.548 42.5699 263.669 43.3625 264.871 44.0242L264.946 44.0734C266.199 44.7339 267.55 45.246 269 45.6102C270.45 45.9903 271.958 46.1803 273.525 46.1803H273.697C274.9 46.1803 276.07 46.0562 277.207 45.8081C278.344 45.56 279.431 45.2056 280.47 44.7427C281.525 44.2968 282.513 43.7514 283.436 43.1075C284.358 42.4468 285.207 41.7113 285.983 40.9019C286.774 40.1094 287.473 39.2332 288.084 38.2753C288.694 37.3332 289.212 36.3337 289.642 35.2763C290.07 34.219 290.398 33.1123 290.629 31.9556C290.878 30.8153 291 29.6261 291 28.3866V28.2872V28.288ZM210.689 25.041V17.4326H219.144C219.672 17.4326 220.157 17.532 220.602 17.7299C221.047 17.912 221.451 18.1759 221.814 18.5234H221.789C222.135 18.87 222.398 19.2667 222.58 19.7127C222.777 20.1588 222.876 20.6381 222.876 21.1502V21.2989C222.876 21.7941 222.777 22.2736 222.58 22.7362C222.398 23.1822 222.142 23.5789 221.814 23.9257H221.789C221.443 24.2722 221.047 24.5449 220.602 24.7437C220.159 24.9416 219.672 25.041 219.144 25.041H210.691H210.689ZM210.689 39.0933V31.287H220.774C221.319 31.287 221.829 31.3864 222.308 31.5843C222.801 31.7822 223.239 32.047 223.617 32.3778C223.98 32.7243 224.269 33.1378 224.483 33.6163C224.697 34.0958 224.804 34.5991 224.804 35.1286V35.1533C224.804 35.7153 224.697 36.2353 224.483 36.7146C224.269 37.1941 223.973 37.6155 223.592 37.9788C223.231 38.3422 222.801 38.6236 222.308 38.8215C221.829 39.0194 221.311 39.1188 220.751 39.1188H210.689V39.0943V39.0933Z" fill="#F2F2F2"/>
</g>
</g>
</g>
<defs>
<clipPath id="clip0_1210_55">
<rect width="291" height="51" fill="white"/>
</clipPath>
<clipPath id="clip1_1210_55">
<rect width="291" height="50" fill="white"/>
</clipPath>
</defs>
</svg>
