<svg width="35" height="32" viewBox="0 0 35 32" fill="none" xmlns="http://www.w3.org/2000/svg">
<g>
<path d="M26.4387 25.2658L21.3016 16.6428H17.898V27.6785H9.90219C6.51798 27.6767 3.77394 24.8999 3.77394 21.4754C3.77394 18.0508 6.51798 15.274 9.90219 15.274C10.4118 15.274 10.9074 15.3383 11.38 15.456C10.4718 14.2408 9.93217 12.7275 9.93217 11.0857C9.93217 7.07755 13.1418 3.82966 17.1027 3.82966C21.0635 3.82966 24.2731 7.07755 24.2731 11.0857C24.2731 11.5621 24.2255 12.0279 24.1391 12.4794C24.9239 11.7638 25.9626 11.3284 27.1001 11.3284C28.913 11.3284 30.4684 12.4312 31.1544 14.007H34.6832C33.9143 10.6841 31.0698 8.1697 27.608 7.94306C26.2712 3.35318 22.0758 0 17.1027 0C11.052 0 6.14764 4.96285 6.14764 11.0857C6.14764 11.4479 6.16528 11.8048 6.19879 12.1582C2.5624 13.6697 0 17.287 0 21.5128C0 27.0967 4.4723 31.6223 9.99036 31.6223H21.7196V23.8792L25.4582 30.1126H27.2958L31.0539 23.6668L31.0962 31.6223H34.8966L34.8543 16.6446H31.4507L26.4387 25.2675V25.2658Z" fill="#F2F2F2"/>
</g>
</svg>
