<svg width="151" height="41" viewBox="0 0 151 41" fill="none" xmlns="http://www.w3.org/2000/svg">
<g clip-path="url(#clip0_355_3681)">
<path d="M33.7725 32.2742L27.2104 21.2594H22.8627V35.3562H12.6489C8.32598 35.3539 4.82078 31.8069 4.82078 27.4324C4.82078 23.0579 8.32598 19.5109 12.6489 19.5109C13.2999 19.5109 13.933 19.593 14.5367 19.7435C13.3765 18.1911 12.6872 16.258 12.6872 14.1608C12.6872 9.04089 16.7871 4.89207 21.8467 4.89207C26.9063 4.89207 31.0062 9.04089 31.0062 14.1608C31.0062 14.7694 30.9453 15.3644 30.835 15.9411C31.8374 15.027 33.1643 14.4708 34.6172 14.4708C36.933 14.4708 38.9199 15.8796 39.7962 17.8924H44.3039C43.3217 13.6479 39.6881 10.436 35.266 10.1465C33.5585 4.28343 28.1993 0.00012207 21.8467 0.00012207C14.1177 0.00012207 7.85291 6.3396 7.85291 14.1608C7.85291 14.6235 7.87544 15.0795 7.91824 15.5308C3.27317 17.4616 0 22.0823 0 27.4803C0 34.6131 5.71285 40.3941 12.7615 40.3941H27.7443V30.503L32.52 38.4655H34.8673L39.6678 30.2317L39.7219 40.3941H44.5764L44.5224 21.2617H40.1747L33.7725 32.2765V32.2742Z" fill="white"/>
<path d="M65.2518 23.2448C64.3102 22.3376 63.2041 21.6377 61.9268 21.1431C60.6518 20.6484 59.2439 20.4022 57.7075 20.4022C56.1712 20.4022 54.7858 20.6484 53.5017 21.1431C52.2177 21.6377 51.1004 22.3376 50.1497 23.2448C49.1991 24.1521 48.4624 25.2075 47.9376 26.4157C47.4127 27.6239 47.1514 28.9506 47.1514 30.3981C47.1514 31.8457 47.4127 33.1724 47.9376 34.3805C48.4624 35.5887 49.1991 36.6464 50.1497 37.5514C51.1004 38.4587 52.2154 39.1585 53.5017 39.6532C54.7858 40.1478 56.187 40.394 57.7075 40.394C59.2281 40.394 60.6518 40.1478 61.9268 39.6532C63.2019 39.1585 64.3102 38.4632 65.2518 37.5651C66.1912 36.6692 66.9301 35.6115 67.464 34.3942C67.9979 33.1769 68.2637 31.8457 68.2637 30.3981C68.2637 28.9506 67.9956 27.6239 67.464 26.4157C66.9301 25.2075 66.1934 24.1498 65.2518 23.2448ZM62.4427 32.6503C62.1791 33.3274 61.8187 33.9087 61.3569 34.3942C60.8951 34.8798 60.3522 35.249 59.7282 35.5066C59.1042 35.7642 58.4306 35.8919 57.7053 35.8919C56.9799 35.8919 56.3086 35.7642 55.6846 35.5066C55.0606 35.2513 54.5177 34.8798 54.0559 34.3942C53.5941 33.9087 53.2337 33.3274 52.9701 32.6503C52.7065 31.9733 52.5759 31.2233 52.5759 30.3981C52.5759 29.5729 52.7065 28.8001 52.9701 28.1322C53.2314 27.4643 53.5941 26.8876 54.0559 26.402C54.5177 25.9165 55.0606 25.5472 55.6846 25.2896C56.3086 25.0343 56.9822 24.9044 57.7053 24.9044C58.4284 24.9044 59.1019 25.032 59.7282 25.2896C60.3522 25.5472 60.8951 25.9165 61.3569 26.402C61.8187 26.8876 62.1791 27.4643 62.4427 28.1322C62.704 28.8001 62.8369 29.557 62.8369 30.3981C62.8369 31.2393 62.7063 31.9733 62.4427 32.6503Z" fill="white"/>
<path d="M76.3737 21.1705H71.001V40.3941H85.4385V36.0812H76.3737V21.1705Z" fill="white"/>
<path d="M104.656 23.2448C103.714 22.3376 102.608 21.6377 101.331 21.1431C100.056 20.6484 98.6482 20.4022 97.1118 20.4022C95.5755 20.4022 94.1901 20.6484 92.906 21.1431C91.622 21.6377 90.5046 22.3376 89.554 23.2448C88.6034 24.1521 87.8667 25.2075 87.3419 26.4157C86.817 27.6239 86.5557 28.9506 86.5557 30.3981C86.5557 31.8457 86.817 33.1724 87.3419 34.3805C87.8667 35.5887 88.6034 36.6464 89.554 37.5514C90.5046 38.4564 91.6197 39.1585 92.906 39.6532C94.1901 40.1478 95.5935 40.394 97.1118 40.394C98.6301 40.394 100.056 40.1478 101.331 39.6532C102.606 39.1585 103.714 38.4632 104.656 37.5651C105.598 36.6692 106.334 35.6115 106.868 34.3942C107.402 33.1769 107.668 31.8457 107.668 30.3981C107.668 28.9506 107.4 27.6239 106.868 26.4157C106.334 25.2075 105.598 24.1498 104.656 23.2448ZM101.847 32.6503C101.586 33.3274 101.223 33.9087 100.761 34.3942C100.299 34.8798 99.7565 35.249 99.1325 35.5066C98.5085 35.7642 97.8349 35.8919 97.1118 35.8919C96.3887 35.8919 95.7151 35.7642 95.0889 35.5066C94.4649 35.2513 93.922 34.8798 93.4602 34.3942C92.9984 33.9087 92.638 33.3274 92.3744 32.6503C92.1131 31.9733 91.9802 31.2233 91.9802 30.3981C91.9802 29.5729 92.1108 28.8001 92.3744 28.1322C92.6357 27.4643 92.9984 26.8876 93.4602 26.402C93.922 25.9165 94.4649 25.5472 95.0889 25.2896C95.7129 25.0343 96.3864 24.9044 97.1118 24.9044C97.8372 24.9044 98.5085 25.032 99.1325 25.2896C99.7565 25.5472 100.299 25.9165 100.761 26.402C101.223 26.8876 101.583 27.4643 101.847 28.1322C102.108 28.8001 102.241 29.557 102.241 30.3981C102.241 31.2393 102.111 31.9733 101.847 32.6503Z" fill="white"/>
<path d="M116.735 26.402C117.196 25.9165 117.753 25.5472 118.404 25.2896C119.055 25.0343 119.769 24.9044 120.548 24.9044C121.452 24.9044 122.272 25.0959 123.004 25.4811C123.736 25.8663 124.41 26.4248 125.025 27.1566L128.444 24.0267C127.521 22.855 126.369 21.9592 124.984 21.3368C123.601 20.7145 122.031 20.4022 120.276 20.4022C118.773 20.4022 117.386 20.6461 116.111 21.1294C114.836 21.615 113.732 22.3057 112.801 23.2015C111.869 24.0997 111.141 25.1551 110.616 26.3724C110.091 27.5897 109.83 28.9301 109.83 30.3958C109.83 31.8616 110.091 33.202 110.616 34.4193C111.141 35.6366 111.869 36.6943 112.801 37.5902C113.732 38.4883 114.836 39.179 116.111 39.6623C117.386 40.1478 118.773 40.3895 120.276 40.3895C122.031 40.3895 123.601 40.0726 124.984 39.4412C126.367 38.8097 127.521 37.9161 128.444 36.765L125.025 33.6351C124.41 34.3669 123.736 34.9253 123.004 35.3106C122.272 35.6958 121.452 35.8873 120.548 35.8873C119.771 35.8873 119.057 35.7597 118.404 35.5021C117.753 35.2468 117.196 34.8752 116.735 34.3896C116.273 33.9041 115.912 33.3228 115.649 32.6458C115.387 31.9688 115.255 31.2188 115.255 30.3936C115.255 29.5684 115.385 28.8184 115.649 28.1414C115.91 27.4643 116.273 26.883 116.735 26.3975V26.402Z" fill="white"/>
<path d="M149.76 26.4157C149.226 25.2075 148.489 24.1498 147.548 23.2448C146.606 22.3376 145.5 21.6377 144.223 21.1431C142.948 20.6484 141.54 20.4022 140.003 20.4022C138.467 20.4022 137.082 20.6484 135.798 21.1431C134.514 21.6377 133.396 22.3376 132.446 23.2448C131.495 24.1521 130.758 25.2075 130.233 26.4157C129.709 27.6239 129.447 28.9506 129.447 30.3981C129.447 31.8457 129.709 33.1724 130.233 34.3805C130.758 35.5887 131.495 36.6464 132.446 37.5514C133.396 38.4587 134.511 39.1585 135.798 39.6532C137.082 40.1478 138.483 40.394 140.003 40.394C141.524 40.394 142.948 40.1478 144.223 39.6532C145.498 39.1585 146.606 38.4632 147.548 37.5651C148.489 36.6692 149.226 35.6115 149.76 34.3942C150.294 33.1769 150.56 31.8457 150.56 30.3981C150.56 28.9506 150.292 27.6239 149.76 26.4157ZM144.741 32.6503C144.477 33.3274 144.117 33.9087 143.655 34.3942C143.193 34.8798 142.65 35.249 142.026 35.5066C141.402 35.7642 140.729 35.8919 140.006 35.8919C139.283 35.8919 138.609 35.7642 137.985 35.5066C137.361 35.2513 136.818 34.8798 136.356 34.3942C135.894 33.9087 135.534 33.3274 135.27 32.6503C135.007 31.9733 134.876 31.2233 134.876 30.3981C134.876 29.5729 135.007 28.8001 135.27 28.1322C135.532 27.4643 135.894 26.8876 136.356 26.402C136.818 25.9165 137.361 25.5472 137.985 25.2896C138.609 25.0343 139.283 24.9044 140.006 24.9044C140.729 24.9044 141.402 25.032 142.026 25.2896C142.65 25.5472 143.193 25.9165 143.655 26.402C144.117 26.8876 144.477 27.4643 144.741 28.1322C145.002 28.8001 145.135 29.557 145.135 30.3981C145.135 31.2393 145.004 31.9733 144.741 32.6503Z" fill="white"/>
</g>
<defs>
<clipPath id="clip0_355_3681">
<rect width="150.559" height="40.3939" fill="white"/>
</clipPath>
</defs>
</svg>
