<svg width="249" height="57" viewBox="0 0 249 57" fill="none" xmlns="http://www.w3.org/2000/svg">
<path d="M155.962 33.1429L149.563 16.8839H144.025L144.334 17.6326L153.803 40.6052H157.993L167.738 16.8839H162.33L155.964 33.1429H155.962ZM213.547 31.3382L202.359 16.8509H197.892V40.3762H202.894V25.4352L214.441 40.3762H218.549V16.8179H213.547V31.3361V31.3382ZM178.341 16.7045L167.997 40.4257H173.162L177.449 30.4265L180.469 23.2076V23.0942L183.247 29.7768L181.347 34.135H185.066L186.38 37.2886L187.631 40.2793H192.989L182.709 16.7045H178.341ZM238.428 16.7045H234.044L223.7 40.4257H228.865L233.152 30.4265L236.155 23.3871L236.236 23.2241L239.013 29.8903L237.113 34.2794H240.848L242.165 37.433L243.415 40.4237H248.823L238.43 16.7024L238.428 16.7045Z" fill="#F2F2F2"/>
<path d="M86.067 35.2407C85.1214 36.2307 84.0254 37.064 82.8182 37.7116C81.4914 38.3881 80.0184 38.7222 78.531 38.6872C77.229 38.6872 75.9414 38.3984 74.763 37.8415C73.6464 37.3486 72.641 36.6349 71.8067 35.7439C70.9373 34.7993 70.2595 33.6958 69.8083 32.4913C69.3283 31.2414 69.0852 29.9131 69.0934 28.5725C69.0873 27.238 69.3304 25.9159 69.8083 24.6701C70.2554 23.4697 70.929 22.3663 71.7902 21.4175C72.6245 20.5079 73.6361 19.7778 74.763 19.2704C75.9352 18.7362 77.2104 18.464 78.498 18.4743C79.3118 18.4701 80.1235 18.5588 80.9167 18.7341C81.6006 18.895 82.264 19.1302 82.8985 19.4333C83.4774 19.7118 84.0213 20.0542 84.5219 20.4584C85.0246 20.8441 85.5067 21.2566 85.9661 21.6939L86.3719 22.0672L87.8985 20.4419L87.4927 20.0686C86.9241 19.5488 86.339 19.06 85.756 18.6207C85.142 18.1649 84.4848 17.773 83.7906 17.4512C83.0263 17.1109 82.2249 16.8614 81.4029 16.7025C80.4428 16.4984 79.4622 16.4014 78.4795 16.4097C76.8664 16.3911 75.2698 16.7294 73.8029 17.4017C72.4309 18.0329 71.1989 18.9342 70.1812 20.0521C69.1367 21.1741 68.3209 22.488 67.777 23.9214C67.2063 25.4106 66.92 26.9926 66.9323 28.5869C66.9241 30.1978 67.2166 31.7962 67.7935 33.3019C68.3209 34.7498 69.1326 36.076 70.1812 37.2042C71.2216 38.2974 72.4618 39.1801 73.8359 39.8051C75.2883 40.4465 76.8602 40.7724 78.4486 40.7642C79.4169 40.7683 80.381 40.659 81.3225 40.4383C82.1713 40.2403 82.9995 39.9577 83.7906 39.5926C84.5302 39.2358 85.2327 38.8047 85.8858 38.3077C86.512 37.8065 87.1033 37.262 87.6554 36.6824L88.0448 36.2926L86.4214 34.8612L86.032 35.2345M103.428 16.7046L92.2722 40.3764H94.5466L104.291 19.7613L109.765 31.3363L108.385 34.2795H111.162L114.036 40.3764H116.244L105.136 16.7046H103.512M133.243 30.5257C133.931 30.4246 134.604 30.2493 135.255 30.0059C136.137 29.6945 136.957 29.2242 137.674 28.624C138.366 28.0506 138.92 27.3267 139.297 26.5099C139.683 25.6395 139.876 24.697 139.866 23.7461C139.87 22.884 139.709 22.028 139.394 21.2257C139.087 20.4708 138.64 19.7819 138.078 19.1941C137.245 18.3835 136.24 17.773 135.138 17.4059C133.863 16.9975 132.53 16.7995 131.193 16.8201H121.448V40.3785H123.607V30.7856H130.735L138.043 40.3785H140.803L133.236 30.5257M123.613 28.7045V18.9487H131.18C132.905 18.8331 134.621 19.2972 136.053 20.2666C137.14 21.104 137.748 22.422 137.676 23.7936C137.682 24.468 137.538 25.1342 137.254 25.7447C136.955 26.3449 136.52 26.8688 135.987 27.2731C135.358 27.7413 134.648 28.0898 133.891 28.2982C132.942 28.5663 131.957 28.6983 130.968 28.688H123.611" fill="#F2F2F2"/>
<path d="M34.7156 32.0047C34.6023 32.0047 32.0642 31.9077 28.29 31.9077C24.5158 31.9077 21.8974 32.0047 21.782 32.0047C20.9044 32.0377 21.473 33.2752 21.473 33.2752C23.5063 33.4546 26.4338 33.4546 28.2076 33.4546C29.9814 33.4546 32.9089 33.4381 34.9423 33.2752L34.9258 33.3412C34.9258 33.3412 35.4944 32.1037 34.7136 32.0047H34.7156Z" fill="#F2F2F2"/>
<path d="M18.9369 30.571C18.3292 30.1647 17.6658 29.845 16.9695 29.6264C16.4689 29.5294 15.9703 29.7934 15.7664 30.2616C15.5603 30.8185 15.4882 31.4146 15.5542 32.0045C15.5542 32.0045 15.6201 32.4129 16.2855 32.5758C17.5855 32.8481 18.8998 33.044 20.2225 33.1616C20.2225 33.1616 20.0762 31.1588 18.9369 30.571Z" fill="#F2F2F2"/>
<path d="M23.1499 15.7165C24.8599 16.0032 26.5904 16.1393 28.323 16.1249C29.8846 16.1414 31.4462 16.0321 32.9913 15.799C33.7144 15.7165 34.421 15.5288 35.0906 15.2462H34.9608C34.489 15.0544 33.9987 14.9121 33.496 14.8234C31.7861 14.5367 30.0556 14.4006 28.323 14.4171V14.4006C26.7552 14.3923 25.1895 14.5016 23.6382 14.7265C22.9151 14.811 22.2064 15.0028 21.5389 15.2957H21.6687C22.1446 15.4917 22.6411 15.6319 23.1479 15.7185L23.1499 15.7165Z" fill="#F2F2F2"/>
<path d="M19.6848 25.8807H36.7655C36.7655 25.8807 37.1714 25.8807 36.9942 25.3919C36.3391 23.911 35.5377 22.4961 34.6023 21.174C34.6023 21.174 32.6493 21.0605 30.0309 21.0605L30.1133 21.2565V21.7123C30.1133 21.7123 30.1133 21.7226 30.1133 21.7288C30.105 21.9 29.9588 22.0299 29.7878 22.0217H26.7449C26.5739 22.0217 26.4359 21.8835 26.4359 21.7123V21.0605C23.8174 21.077 21.8479 21.174 21.8479 21.174C20.9373 22.5043 20.1648 23.9234 19.5385 25.4084C19.2789 25.8972 19.6848 25.8807 19.6848 25.8807Z" fill="#F2F2F2"/>
<path d="M39.4334 29.6261C38.7371 29.8489 38.0737 30.1665 37.4659 30.5707C36.3432 31.1565 36.1804 33.1613 36.1804 33.1613C37.5092 33.0437 38.8277 32.8478 40.1338 32.5755C40.653 32.4456 40.8096 32.161 40.8508 32.0496C40.9188 31.4473 40.8508 30.8347 40.653 30.2614C40.4388 29.7952 39.9361 29.5353 39.4334 29.6261Z" fill="#F2F2F2"/>
<path d="M28.1767 4.04454e-06C12.6143 4.04454e-06 0 12.6289 0 28.2094C0 43.7898 12.6143 56.4188 28.1767 56.4188C43.7391 56.4188 56.3534 43.7898 56.3534 28.2094V28.1764C56.3431 12.6063 43.7288 -0.00824612 28.1767 4.04454e-06ZM20.5789 14.6255C20.7519 14.4646 20.9497 14.3326 21.164 14.2336C21.7202 14.0088 22.297 13.8438 22.8883 13.7448C24.6662 13.4375 26.4689 13.2951 28.2736 13.322C29.9073 13.3034 31.5389 13.4127 33.1541 13.6478C34.1697 13.7303 35.1462 14.0789 35.9847 14.6585C36.1907 14.8276 36.3164 15.0751 36.3267 15.3433C36.3123 15.6093 36.1887 15.8568 35.9847 16.028C35.8137 16.1745 35.6221 16.2961 35.4161 16.3869C34.8619 16.62 34.283 16.7891 33.6917 16.8922C31.918 17.1913 30.1215 17.3315 28.323 17.315V17.282C26.6893 17.2944 25.0576 17.181 23.4425 16.9397C22.4248 16.8675 21.44 16.5416 20.5789 15.995C20.3914 15.8135 20.276 15.5701 20.2534 15.3103C20.2719 15.0504 20.3893 14.8049 20.5789 14.6255ZM41.5348 40.135C41.5512 40.3598 41.3823 40.5537 41.1577 40.5702H37.709C37.709 40.5702 37.6946 40.5702 37.6884 40.5681C37.466 40.5413 37.3073 40.3371 37.3341 40.1144V39.5781H18.9843V40.1144C18.9843 40.1144 18.9843 40.1288 18.9864 40.135C19.0029 40.3598 18.8339 40.5537 18.6094 40.5702H15.1442C15.1442 40.5702 15.1401 40.5702 15.138 40.5702C14.9155 40.5413 14.7569 40.3371 14.7857 40.1144V35.7335C14.7857 35.7335 14.6724 32.2478 14.6724 31.4496C14.658 30.9629 14.7363 30.4761 14.9011 30.0162C15.1401 29.5665 15.4306 29.1478 15.7622 28.7621C16.3638 27.9949 16.9077 27.1843 17.3898 26.3366H17.26C17.26 26.3366 14.2501 26.1737 14.7878 25.1321C14.7878 25.1321 15.3729 23.8781 17.5855 23.8781H17.878C17.9913 23.8781 18.187 23.9276 18.187 24.6928C18.8669 23.084 19.934 21.667 21.2937 20.5718C21.6151 20.3882 21.9695 20.2686 22.3341 20.2129C22.9687 20.05 27.7667 20.05 28.1582 20.05C28.5496 20.05 33.3477 20.0995 33.9822 20.2129C34.3469 20.2707 34.6992 20.3924 35.0226 20.5718C36.3823 21.667 37.4515 23.0819 38.1293 24.6928C38.1788 23.8781 38.325 23.8781 38.4219 23.8781H38.7309C40.9435 23.8781 41.5286 25.1321 41.5286 25.1321C42.0642 26.1737 39.0564 26.3366 39.0564 26.3366H38.9266C39.4087 27.1843 39.9526 27.9949 40.5541 28.7621C40.8858 29.1437 41.1701 29.5665 41.4008 30.0162C41.5842 30.472 41.6666 30.9588 41.6439 31.4496C41.611 32.2478 41.5306 35.7335 41.5306 35.7335V40.1144C41.5306 40.1144 41.5306 40.1288 41.5306 40.135H41.5348Z" fill="#F2F2F2"/>
</svg>
