<svg width="205" height="33" viewBox="0 0 205 33" fill="none" xmlns="http://www.w3.org/2000/svg">
<path d="M66.1531 12.0822H66.2554C69.2577 12.0822 71.4411 14.368 71.7141 16.6196H60.5921C60.7968 14.368 62.912 12.0822 66.1531 12.0822ZM66.119 8.97757C60.9333 8.97757 56.8393 13.1056 56.8393 18.3596C56.8393 22.9312 60.3192 27.6733 66.1531 27.6733C67.9954 27.6733 69.7353 27.1616 71.1682 26.1722C72.294 25.4217 73.2493 24.4323 73.9657 23.2723C74.1704 22.9312 74.1704 22.5218 73.9998 22.1806C73.7951 21.8394 73.454 21.6006 73.0446 21.6006H71.7141C71.3388 21.6006 70.9976 21.8053 70.7929 22.1124C69.7694 23.7158 68.2001 24.5346 66.1872 24.5346C63.5944 24.5346 60.7627 22.7947 60.5239 19.5195H74.2728C74.8528 19.5195 75.3645 19.0419 75.3645 18.4619C75.3986 15.8008 74.4775 13.4127 72.6693 11.5704C70.9294 9.89872 68.6095 8.97757 66.119 8.97757ZM92.9685 18.2231C93.0368 19.8266 92.4568 21.3618 91.3309 22.4876C90.2051 23.6135 88.704 24.2617 87.1005 24.2617C83.2454 24.2617 81.1984 21.2595 81.1643 18.2913V18.2572C81.1643 14.8797 83.723 12.321 87.1005 12.321C88.704 12.321 90.171 12.901 91.2627 13.9927C92.3544 15.1185 92.9685 16.5855 92.9685 18.2231ZM95.2884 3.21191H93.8897C93.2756 3.21191 92.7979 3.72366 92.7979 4.30364V11.9457C91.945 10.6834 89.8981 8.97757 86.5547 8.97757C81.4372 8.97757 77.5821 12.9692 77.5821 18.2913C77.5821 23.7158 81.369 27.6733 86.5888 27.6733C90.2051 27.6733 92.0474 25.8652 92.9003 24.5005V26.0357C92.9003 26.6498 93.3779 27.1275 93.992 27.1275H95.2884C95.9025 27.1275 96.3802 26.6498 96.3802 26.0357V4.30364C96.3802 3.68955 95.8684 3.21191 95.2884 3.21191ZM120.364 8.97757C118.556 8.97757 116.884 9.62578 115.69 10.854C115.178 11.3657 114.837 11.8775 114.564 12.3892V12.3551C114.325 11.9457 113.95 11.2634 113.575 10.8881C112.176 9.31874 110.334 8.97757 109.003 8.97757C106.649 8.97757 104.773 10.2399 103.886 11.5704V10.581C103.886 9.96695 103.408 9.48932 102.794 9.48932H101.566C100.952 9.48932 100.474 9.96695 100.474 10.581V26.0699C100.474 26.684 100.952 27.1616 101.566 27.1616H102.965C103.579 27.1616 104.056 26.684 104.056 26.0699V17.5067C104.056 16.0738 104.363 14.9138 104.943 14.0268C105.557 12.9692 106.752 12.3892 108.082 12.3892C109.515 12.4233 110.573 12.9692 111.255 14.0609C111.767 14.9138 111.971 15.9032 111.937 17.4384V26.0699C111.937 26.684 112.415 27.1616 113.029 27.1616H114.462C115.076 27.1616 115.554 26.684 115.554 26.0699V17.4384C115.554 15.9373 115.656 15.0162 116.338 13.9927C116.952 13.0033 118.146 12.3892 119.545 12.3892C120.944 12.3892 121.865 12.8327 122.513 13.7539C123.127 14.5727 123.434 15.7667 123.434 17.5408V26.0357C123.434 26.6498 123.912 27.1275 124.526 27.1275H125.925C126.539 27.1275 127.017 26.6498 127.017 26.0357V17.4043C127.017 13.8903 126.539 12.2527 125.072 10.7516C123.605 9.18227 121.49 8.94346 120.364 8.97757ZM145.712 9.45521H144.314C143.7 9.45521 143.222 9.93283 143.222 10.5469V19.3148C143.222 22.4535 141.584 24.2276 138.616 24.2617C135.648 24.2617 134.147 22.4876 134.147 19.0419V10.581C134.147 9.96695 133.669 9.48932 133.055 9.48932H131.656C131.042 9.48932 130.565 9.96695 130.565 10.581V19.8266C130.565 26.6157 135.034 27.6392 137.695 27.6733H137.797C140.322 27.6733 142.335 26.684 143.392 24.9099V26.0699C143.392 26.684 143.87 27.1616 144.484 27.1616H145.712C146.326 27.1616 146.804 26.684 146.804 26.0699V10.581C146.804 9.96695 146.292 9.45521 145.712 9.45521ZM159.939 8.97757C157.346 8.94346 155.299 9.93283 154.241 11.741V10.581C154.241 9.96695 153.764 9.48932 153.15 9.48932H151.922C151.307 9.48932 150.83 9.96695 150.83 10.581V26.0699C150.83 26.684 151.307 27.1616 151.922 27.1616H153.32C153.934 27.1616 154.412 26.684 154.412 26.0699V17.3361C154.412 14.1974 156.05 12.4233 159.018 12.3892C160.348 12.3551 161.406 12.7304 162.156 13.4809C163.009 14.3338 163.453 15.7326 163.453 17.609V26.0699C163.453 26.684 163.931 27.1616 164.545 27.1616H165.977C166.592 27.1616 167.069 26.684 167.069 26.0699V16.8243C167.103 10.0352 162.6 8.97757 159.939 8.97757ZM185.458 18.2231C185.526 19.8266 184.946 21.3618 183.82 22.4876C182.694 23.6135 181.193 24.2617 179.59 24.2617C175.735 24.2617 173.688 21.2595 173.654 18.2913V18.2572C173.654 14.8797 176.212 12.321 179.59 12.321C181.193 12.321 182.66 12.901 183.752 13.9927C184.878 15.1185 185.458 16.5855 185.458 18.2231ZM187.778 3.21191H186.379C185.765 3.21191 185.287 3.72366 185.287 4.30364V11.9457C184.434 10.6834 182.387 8.97757 179.044 8.97757C173.927 8.97757 170.071 12.9692 170.071 18.2913C170.071 23.7158 173.858 27.6733 179.078 27.6733C182.695 27.6733 184.537 25.8652 185.39 24.5005V26.0357C185.39 26.6498 185.867 27.1275 186.481 27.1275H187.778C188.392 27.1275 188.87 26.6498 188.87 26.0357V4.30364C188.87 3.68955 188.392 3.21191 187.778 3.21191ZM199.036 16.4491L198.968 16.4149C197.194 15.9032 196 15.3232 195.932 14.0268C195.932 13.4809 196.102 13.0033 196.477 12.628C196.921 12.1845 197.535 11.9457 198.286 11.9457H198.354C199.514 11.9457 200.299 12.4916 200.571 13.4809C200.708 13.9586 201.117 14.2997 201.629 14.2997H202.96C203.301 14.2997 203.608 14.1291 203.813 13.8562C204.017 13.5833 204.085 13.2421 204.017 12.901C203.267 9.96695 200.571 8.94346 198.32 8.94346C194.874 8.94346 192.349 11.2293 192.349 14.368C192.384 17.302 194.738 18.3937 196.819 19.0078C199.923 20.0313 201.117 20.5771 201.151 22.1806C201.151 23.5453 199.957 24.637 198.456 24.637C197.433 24.637 196.068 24.1252 195.659 22.6582C195.522 22.1806 195.113 21.8394 194.601 21.8394H193.168C192.827 21.8394 192.52 21.9759 192.315 22.2488C192.111 22.5218 192.042 22.8629 192.111 23.2041C192.827 26.2746 195.795 27.6733 198.388 27.6733C200.264 27.6733 202.004 26.991 203.164 25.7969C204.188 24.7393 204.734 23.3747 204.7 21.8394C204.597 18.0184 201.629 17.1996 199.036 16.4491ZM34.6637 5.25889H30.3309C29.3416 5.25889 28.5569 5.90711 28.5569 6.7259V9.07993C28.5569 9.21639 28.5569 9.38697 28.6251 9.52344C29.5804 8.36348 31.0133 7.68116 32.5144 7.68116C33.6402 7.68116 35.4825 8.36348 36.4036 9.48932C36.4378 9.35285 36.4719 9.21639 36.4719 9.07993V6.7259C36.4378 5.90711 35.6531 5.25889 34.6637 5.25889Z" fill="#F2F2F2"/>
<path d="M25.4864 24.7734C24.9747 24.8757 24.4629 24.9099 23.9512 24.944C23.4394 24.9099 22.9277 24.8757 22.4159 24.7734C18.7314 24.0911 15.8656 21.4641 14.6033 18.1207C16.3774 20.1677 19.9596 21.2253 23.9512 21.2594C27.9428 21.2253 31.4909 20.1677 33.2991 18.1207C32.0368 21.4641 29.171 24.0569 25.4864 24.7734ZM11.5328 7.2717V9.62574C11.5328 9.89867 11.6352 10.1375 11.7717 10.3422C10.3729 10.4786 9.00823 10.6833 7.78004 10.9222C8.46237 9.18222 9.86114 6.4188 11.567 4.67887C11.874 4.37182 13.034 3.34833 14.7739 3.04128C15.6268 2.90482 18.6632 2.46131 23.3712 2.46131H24.6335C29.3416 2.46131 32.3779 2.90482 33.2308 3.04128C34.4249 3.2801 35.5507 3.82596 36.4378 4.67887C38.1095 6.4188 39.5424 9.21634 40.2247 10.9222C37.5636 10.3422 34.4931 10.1375 31.218 10.0351C30.8427 10.0351 29.8533 10.001 28.9322 10.001H19.3796C19.4137 9.86455 19.4478 9.72809 19.4478 9.59162V7.2376C19.4478 6.4188 18.6632 5.77059 17.6738 5.77059H13.341C12.3516 5.83882 11.5328 6.48703 11.5328 7.2717ZM38.3483 22.5558C36.9495 22.4194 35.8578 21.2935 35.7213 19.8947C35.5507 18.2572 36.7448 16.8243 38.3483 16.6537C38.553 16.6196 38.7577 16.6196 38.9624 16.6537C40.3611 16.7902 41.4529 17.916 41.5893 19.3148C41.7599 20.9524 40.5658 22.3852 38.9624 22.5558C38.7236 22.5558 38.553 22.5558 38.3483 22.5558ZM9.00823 22.5558C7.60946 22.4194 6.51774 21.2935 6.38127 19.8947C6.21069 18.2572 7.40476 16.8243 9.00823 16.6537C9.21293 16.6196 9.41763 16.6196 9.62232 16.6537C11.2599 16.8584 12.3857 18.3595 12.181 19.9971C11.9764 21.5323 10.5776 22.6582 9.00823 22.5558ZM47.8667 9.25046C47.8326 8.56813 47.2526 8.02227 46.5703 8.05639L43.8069 8.12461C43.1928 8.15873 42.6811 8.60225 42.6128 9.21634C42.6128 9.3528 42.5787 9.48927 42.5446 9.62574L42.2375 9.01164C41.1117 6.93054 39.5765 4.40593 38.0412 2.83658C38.0412 2.83658 36.6766 1.16488 33.9814 0.619019C31.6274 0.107274 27.7722 -0.029187 23.9853 0.00492934C20.1984 -0.029187 16.3774 0.107274 13.9892 0.619019C11.294 1.16488 9.92937 2.83658 9.92937 2.83658C8.39414 4.40593 6.8589 6.93054 5.73306 9.01164L5.3919 9.69397C5.35778 9.52338 5.32367 9.38692 5.28955 9.21634C5.22132 8.60225 4.70957 8.15873 4.09548 8.12461L1.33205 8.05639C0.649728 8.02227 0.0697494 8.56813 0.0356331 9.25046L0.00151661 10.581C-0.0325997 11.2633 0.513262 11.8433 1.19559 11.8774L4.12959 12.2186L4.16371 12.1503L4.09548 12.2868C3.14022 13.4126 2.52613 14.7091 2.35554 15.7326C2.0485 16.8243 1.87792 18.1889 1.87792 19.963C1.87792 22.4876 2.56024 25.9333 2.73082 27.6392V30.1638C2.73082 31.4261 3.75431 32.4154 4.9825 32.4154H8.05297C9.31528 32.4154 10.3047 31.392 10.3047 30.1638V28.2874C13.5116 27.9803 18.7314 27.878 23.9853 27.878C29.2392 27.878 34.459 27.9803 37.666 28.2874V30.1638C37.666 31.4261 38.6894 32.4154 39.9176 32.4154H42.9881C44.2504 32.4154 45.2398 31.392 45.2398 30.1638V27.6392C45.4104 25.9675 46.0927 22.4876 46.0927 19.963C46.0927 16.0396 44.6257 13.2762 43.8751 12.2868L43.841 12.1845L46.7068 11.8433C47.3891 11.8092 47.935 11.2292 47.9009 10.5469C47.9009 10.6151 47.8667 9.25046 47.8667 9.25046Z" fill="#F2F2F2"/>
</svg>
