<svg width="272" height="75" viewBox="0 0 272 75" fill="none" xmlns="http://www.w3.org/2000/svg">
<path d="M71.7332 42.4415L67.1069 34.1621L65.4185 36.1132V42.4415H60.5337V22.2631H65.4185V29.4237L71.2396 22.2905H77.2918L70.4326 30.4405L77.5268 42.4455H71.7332V42.4415Z" fill="#F2F2F2"/>
<path d="M82.5409 36.3213C82.5683 37.6757 83.6848 38.7435 85.0362 38.716C85.0871 38.716 85.1655 38.716 85.2164 38.716C86.4112 38.822 87.555 38.3273 88.362 37.4401L91.1433 40.2274C89.6351 41.8919 87.4532 42.7792 85.2203 42.6221C81.8671 42.6221 77.9969 41.3973 77.9969 34.8373C77.9969 29.8634 80.8291 27.0525 84.8051 27.0525C88.4678 26.9465 91.535 29.8124 91.6642 33.5104C91.6642 33.7695 91.6643 34.0326 91.6368 34.2917V36.3762L82.5409 36.3213ZM86.8029 32.05C86.2036 30.9312 84.8012 30.5386 83.6848 31.1393C83.293 31.3473 82.9836 31.6614 82.776 32.05C82.5958 32.4151 82.5174 32.8313 82.5174 33.2474H87.0379C87.0615 32.8313 86.9831 32.4151 86.8029 32.05Z" fill="#F2F2F2"/>
<path d="M98.4921 42.4653C96.0751 42.6459 93.9716 40.8519 93.7914 38.4296C93.7914 38.2726 93.764 38.1156 93.7914 37.9625V22.2869H98.4177V37.6249C98.3668 38.092 98.7036 38.5121 99.1463 38.5631C99.2246 38.5631 99.2756 38.5631 99.3539 38.5631H100.964V42.4693H98.4921V42.4653Z" fill="#F2F2F2"/>
<path d="M107.561 42.4653C105.144 42.6459 103.04 40.8519 102.86 38.4296C102.86 38.2726 102.832 38.1156 102.86 37.9625V22.2869H107.486V37.6249C107.435 38.092 107.745 38.5121 108.215 38.5631C108.293 38.5631 108.344 38.5631 108.422 38.5631H110.032V42.4693H107.561V42.4653Z" fill="#F2F2F2"/>
<path d="M115.227 36.3212C115.254 37.6756 116.371 38.7435 117.722 38.716C117.773 38.716 117.851 38.716 117.902 38.716C119.097 38.822 120.241 38.3273 121.048 37.4401L123.829 40.2274C122.321 41.8919 120.139 42.7791 117.906 42.6221C114.553 42.6221 110.683 41.3973 110.683 34.8373C110.683 29.8634 113.515 27.0525 117.491 27.0525C121.154 26.9465 124.221 29.8398 124.35 33.5104C124.35 33.7695 124.35 34.005 124.323 34.2641V36.3487L115.227 36.3212ZM119.485 32.05C118.885 30.9312 117.483 30.5386 116.367 31.1392C115.975 31.3473 115.665 31.6614 115.458 32.05C115.278 32.4151 115.199 32.8312 115.199 33.2474H119.72C119.747 32.8312 119.669 32.4151 119.485 32.05Z" fill="#F2F2F2"/>
<path d="M132.995 44.2633C132.76 45.017 132.345 45.6962 131.801 46.2694C130.892 47.1801 129.642 47.6238 128.369 47.5452H126.63V43.3525H127.617C128.369 43.4585 129.047 42.9639 129.176 42.2062L129.591 40.9303L124.526 27.1823H129.384L131.957 35.0731L134.425 27.1823H139.283L132.995 44.2633Z" fill="#F2F2F2"/>
<path d="M155.03 42.4652H146.275V22.2867H154.615C157.706 21.8431 160.565 24.0062 160.98 27.1036C161.031 27.4412 161.031 27.7789 161.031 28.1204C161.004 29.7339 160.173 31.2453 158.822 32.1051C160.432 32.9648 161.396 34.6843 161.317 36.5058C161.447 39.6582 159.006 42.3395 155.861 42.4691C155.547 42.4926 155.289 42.4927 155.03 42.4652ZM154.301 26.7385H151.211V30.0205H154.301C155.21 30.099 155.99 29.4198 156.068 28.509C156.146 27.5983 155.469 26.8171 154.56 26.7385C154.458 26.7111 154.38 26.7111 154.301 26.7385ZM154.56 34.4723H151.234V38.0133H154.56C155.469 38.0919 156.276 37.4402 156.378 36.5019C156.378 36.3959 156.378 36.3213 156.378 36.2153C156.456 35.3046 155.755 34.5233 154.869 34.4448C154.744 34.4448 154.638 34.4448 154.56 34.4723Z" fill="#F2F2F2"/>
<path d="M168.435 42.4653C166.018 42.6459 163.914 40.8519 163.734 38.4296C163.734 38.2726 163.707 38.1156 163.734 37.9625V22.2869H168.384V37.6249C168.333 38.092 168.643 38.5121 169.113 38.5631C169.191 38.5631 169.242 38.5631 169.32 38.5631H170.93V42.4693H168.435V42.4653Z" fill="#F2F2F2"/>
<path d="M181.272 42.4653V41.2169C180.312 42.1277 179.063 42.6223 177.739 42.6223C176.465 42.6734 175.243 42.2062 174.307 41.319C173.191 40.1491 172.646 38.5592 172.775 36.9457V27.2058H177.402V36.3175C177.272 37.3579 178.001 38.2961 179.039 38.4257C180.077 38.5552 181.013 37.825 181.143 36.7847C181.17 36.6277 181.17 36.4706 181.143 36.3175V27.2058H185.792V42.4378H181.272V42.4653Z" fill="#F2F2F2"/>
<path d="M192.597 36.3213C192.624 37.6757 193.741 38.7435 195.092 38.716C195.143 38.716 195.221 38.716 195.272 38.716C196.467 38.822 197.611 38.3273 198.418 37.4401L201.199 40.2274C199.691 41.8919 197.509 42.7792 195.276 42.6221C191.923 42.6221 188.053 41.3973 188.053 34.8373C188.053 29.8634 190.885 27.0525 194.861 27.0525C198.524 26.9465 201.591 29.8124 201.72 33.5104C201.72 33.7695 201.72 34.0326 201.693 34.2917V36.3762L192.597 36.3213ZM196.886 32.05C196.287 30.9312 194.885 30.5386 193.768 31.1393C193.376 31.3473 193.067 31.6614 192.859 32.05C192.679 32.4151 192.601 32.8313 192.601 33.2474H197.121C197.145 32.8313 197.043 32.4151 196.886 32.05Z" fill="#F2F2F2"/>
<path d="M218.737 42.4652H209.982V22.2867H218.322C221.412 21.8431 224.272 24.0062 224.687 27.1036C224.738 27.4412 224.738 27.7789 224.738 28.1204C224.711 29.7339 223.88 31.2453 222.529 32.1051C224.139 32.9648 225.102 34.6843 225.024 36.5058C225.153 39.6582 222.713 42.3395 219.567 42.4691C219.281 42.4926 218.995 42.4927 218.737 42.4652ZM218.008 26.7385H214.917V30.0205H218.008C218.917 30.099 219.697 29.4198 219.775 28.509C219.853 27.5983 219.176 26.8171 218.267 26.7385C218.165 26.7111 218.087 26.7111 218.008 26.7385ZM218.267 34.4723H214.941V38.0133H218.267C219.176 38.0919 219.982 37.4402 220.084 36.5019C220.084 36.3959 220.084 36.3213 220.084 36.2153C220.163 35.3046 219.461 34.5233 218.576 34.4448C218.451 34.4448 218.345 34.4448 218.267 34.4723Z" fill="#F2F2F2"/>
<path d="M238.484 40.6711C235.73 43.2739 231.444 43.2739 228.714 40.6711C227.363 39.0576 226.767 36.922 227.053 34.8374C226.767 32.7528 227.367 30.6211 228.714 29.0037C231.468 26.4009 235.753 26.4009 238.484 29.0037C239.835 30.6172 240.431 32.7528 240.145 34.8374C240.431 36.9181 239.831 39.0537 238.484 40.6711ZM234.845 31.6615C234.116 31.1158 233.105 31.1158 232.349 31.6615C231.75 32.5997 231.491 33.7186 231.676 34.8374C231.519 35.9327 231.754 37.0751 232.349 38.0134C233.078 38.5865 234.116 38.5865 234.845 38.0134C235.444 37.0751 235.703 35.9563 235.518 34.8374C235.703 33.7186 235.467 32.5958 234.845 31.6615Z" fill="#F2F2F2"/>
<path d="M253.475 40.6711C250.721 43.2739 246.436 43.2739 243.706 40.6711C242.354 39.0576 241.759 36.922 242.045 34.8374C241.759 32.7528 242.358 30.6211 243.706 29.0037C246.459 26.4009 250.745 26.4009 253.475 29.0037C254.827 30.6172 255.422 32.7528 255.136 34.8374C255.422 36.9181 254.823 39.0537 253.475 40.6711ZM249.836 31.6615C249.107 31.1158 248.097 31.1158 247.341 31.6615C246.741 32.5997 246.483 33.7186 246.667 34.8374C246.51 35.9327 246.745 37.0751 247.341 38.0134C248.069 38.5865 249.107 38.5865 249.836 38.0134C250.435 37.0751 250.694 35.9563 250.51 34.8374C250.694 33.7186 250.435 32.5958 249.836 31.6615Z" fill="#F2F2F2"/>
<path d="M266.257 42.4418L263.088 36.8711L262.179 37.8604V42.4418H257.553V22.2869H262.179V32.5449L266.285 27.2059H271.843L266.257 33.5342L272 42.4653L266.257 42.4418Z" fill="#F2F2F2"/>
<path d="M41.6171 74.519L26.7315 63.0636L11.8184 74.519V51.6043L7.79146 52.4915L8.70027 48.3498L4.4657 48.4283L6.18146 44.5497L2.02523 43.7959L4.44219 40.3059L0.493575 38.7434L3.5608 35.803L0 33.5104L3.58431 31.2177L0.51708 28.2773L4.4657 26.7424L2.04873 23.2524L6.23239 22.5222L4.54404 18.616L8.77861 18.6945L7.86981 14.5528L11.8968 15.4401V0H41.672V15.4911L45.7264 14.6039L44.7901 18.7456L49.0247 18.667L47.3364 22.5457L51.4926 23.2995L49.0756 26.7895L53.0243 28.3519L50.0119 31.2688L53.5727 33.5614L49.9884 35.8541L53.0556 38.7945L49.107 40.3295L51.5239 43.8195L47.3403 44.5497L49.0286 48.4283L44.7941 48.3498L45.7029 52.4915L41.6759 51.6043L41.6171 74.519ZM26.7315 62.357L41.0726 73.3962V50.9526L44.9194 51.8123L44.0341 47.8277L48.112 47.9062L46.4746 44.1571L50.4741 43.4544L48.1355 40.0939L51.9274 38.61L48.9934 35.7716L52.4249 33.585L48.9934 31.3708L51.9274 28.5325L48.1355 27.0486L50.4741 23.6881L46.4746 22.9579L48.112 19.2363L44.0341 19.3148L44.9194 15.3301L41.0217 16.1624V0.537829H12.3629V16.1624L8.51616 15.3027L9.40146 19.2873L5.32358 19.2088L6.961 22.9579L2.96146 23.6881L5.30007 27.0486L1.50815 28.5325L4.44219 31.3708L1.01066 33.5575L4.44219 35.7716L1.50815 38.61L5.30007 40.0939L2.96146 43.4544L6.961 44.1571L5.32358 47.9062L9.40146 47.8277L8.51616 51.8123L12.3864 50.9526V73.4237L26.7315 62.357Z" fill="#F2F2F2"/>
<path d="M44.0106 73.8676C43.1801 73.8676 42.5025 73.1923 42.5025 72.3562C42.5025 71.52 43.1762 70.8447 44.0106 70.8447C44.8411 70.8447 45.5188 71.52 45.5188 72.3562C45.5148 73.1923 44.8411 73.8676 44.0106 73.8676ZM44.0106 71.0803C43.3094 71.0803 42.7101 71.626 42.7101 72.3562C42.7101 73.0589 43.2546 73.6595 43.9832 73.6595C44.6844 73.6595 45.2837 73.1138 45.2837 72.3836C45.2837 72.3836 45.2837 72.3836 45.2837 72.3562C45.2837 71.6534 44.7118 71.0803 44.0106 71.0803ZM44.3749 73.1923L44.0106 72.5171H43.7521V73.1923H43.517V71.5278H44.089C44.3749 71.5278 44.61 71.7359 44.61 72.0225C44.61 72.2305 44.4533 72.4111 44.2456 72.4661L44.6374 73.1688L44.3749 73.1923ZM44.0615 71.732H43.7481V72.3051H44.0615C44.2182 72.3051 44.3475 72.1991 44.3749 72.046V72.0185C44.3749 71.8615 44.2417 71.732 44.0615 71.732Z" fill="#F2F2F2"/>
<path d="M16.6759 9.24158L20.08 11.6127L21.5881 7.73408L24.4713 10.753L26.7041 7.26299L28.9369 10.753L31.8201 7.75763L33.3282 11.6363L36.7323 9.26514L37.4609 13.3519L40.0072 12.233V1.5824H13.401V12.2055L15.9747 13.3244L16.6759 9.24158Z" fill="#F2F2F2"/>
<path d="M36.7088 57.7757L33.3047 55.4045L31.7965 59.2832L28.9134 56.2878L26.6806 59.7778L24.4477 56.2878L21.5646 59.2832L20.0565 55.4045L16.6523 57.7757L15.9237 53.689L13.3775 54.8078V71.2646L26.708 61.0302L40.0111 71.2646V54.8078L37.4374 53.689L36.7088 57.7757Z" fill="#F2F2F2"/>
<path d="M10.0243 32.0776C10.0752 31.689 9.78925 31.3239 9.40144 31.2964C9.35052 31.2964 9.3231 31.2964 9.27217 31.2964H8.17925V32.8863H9.27217C9.6639 32.9138 10.0008 32.5997 10.0243 32.2111C10.0243 32.1561 10.0243 32.1286 10.0243 32.0776Z" fill="#F2F2F2"/>
<path d="M9.35054 34.1073H8.18319V35.7993H9.35054C9.76577 35.7993 10.1027 35.4617 10.1027 35.0456C10.1027 35.0181 10.1027 34.9945 10.1027 34.9396C10.1536 34.5234 9.86762 34.1583 9.45239 34.1073C9.42888 34.1073 9.37404 34.0798 9.35054 34.1073Z" fill="#F2F2F2"/>
<path d="M30.0847 32.0776C30.1356 31.689 29.8497 31.3239 29.4618 31.2964C29.4109 31.2964 29.3835 31.2964 29.3326 31.2964H28.2162V32.8863H29.3326C29.7243 32.9138 30.0612 32.5997 30.0847 32.2111C30.0847 32.1561 30.0847 32.1286 30.0847 32.0776Z" fill="#F2F2F2"/>
<path d="M33.9549 31.2453C33.669 31.2453 33.383 31.3748 33.2263 31.6104C33.0187 31.897 32.9404 32.211 32.9404 33.538C32.9404 34.8649 32.9913 35.1789 33.2263 35.4655C33.4065 35.7011 33.669 35.8306 33.9549 35.8306C34.2409 35.8306 34.4994 35.7011 34.6836 35.4655C34.8912 35.1789 34.9695 34.8649 34.9695 33.538C34.9695 32.211 34.8912 31.897 34.6836 31.6104C34.5269 31.3748 34.2409 31.2178 33.9549 31.2453Z" fill="#F2F2F2"/>
<path d="M29.407 34.1073H28.2396V35.7993H29.407C29.8222 35.7993 30.1591 35.4617 30.1591 35.0456C30.1591 35.0181 30.1591 34.9945 30.1591 34.9396C30.21 34.5234 29.9241 34.1583 29.5088 34.1073C29.4853 34.1073 29.4344 34.0798 29.407 34.1073Z" fill="#F2F2F2"/>
<path d="M38.7889 31.2453C38.5029 31.2453 38.217 31.3748 38.0603 31.6104C37.8252 31.897 37.7743 32.211 37.7743 33.538C37.7743 34.8649 37.8252 35.1789 38.0603 35.4655C38.3462 35.8542 38.9182 35.9602 39.3334 35.6461C39.4117 35.5951 39.4627 35.5401 39.5136 35.4655C39.7212 35.1789 39.7995 34.8649 39.7995 33.538C39.7995 32.211 39.7486 31.897 39.5136 31.6104C39.3334 31.3748 39.0709 31.2178 38.7889 31.2453Z" fill="#F2F2F2"/>
<path d="M13.871 41.7116C13.922 41.5546 13.871 41.374 13.7927 41.2169C13.6869 41.0599 13.5577 40.9814 13.3775 40.9578C13.1699 40.9304 13.0132 41.0089 12.4412 41.4015C11.8693 41.794 11.74 41.9236 11.6891 42.1317C11.6382 42.2887 11.6891 42.4693 11.7949 42.6263C11.9007 42.7833 12.0299 42.8618 12.2101 42.8854C12.4177 42.9129 12.5744 42.8344 13.1464 42.4418C13.7144 42.0492 13.8436 41.9197 13.871 41.7116Z" fill="#F2F2F2"/>
<path d="M38.0328 43.792C37.8252 43.7645 37.6411 43.8431 37.5118 44.0001L37.1475 44.3652L38.8084 46.0847L39.1728 45.7196C39.3294 45.59 39.4078 45.4055 39.3804 45.1975C39.3529 44.9894 39.2002 44.7813 38.8084 44.3888C38.4246 43.9765 38.2404 43.8195 38.0328 43.792Z" fill="#F2F2F2"/>
<path d="M24.8355 50.2503L25.7208 50.3288L25.4074 48.9469L24.8355 50.2503Z" fill="#F2F2F2"/>
<path d="M26.6806 11.7146C14.6506 11.7421 4.90834 21.5055 4.93576 33.5615C4.96319 45.6175 14.7055 55.3809 26.7354 55.3535C38.7379 55.326 48.4802 45.5901 48.4802 33.534C48.5037 21.478 38.734 11.7146 26.6806 11.7146C26.7041 11.6871 26.6806 11.6871 26.6806 11.7146ZM39.8269 25.0465L37.7234 26.5304L37.0222 25.5412L39.1258 24.0572L41.0726 20.4102L41.8248 21.5055L40.4224 23.9002L43.1488 23.4055L43.9009 24.5008M26.6257 23.0169C22.4695 23.0169 18.7011 25.4901 17.0401 29.3177H16.3899C18.6776 23.6411 25.1215 20.9323 30.7584 23.2249C33.5397 24.3438 35.7216 26.5579 36.8381 29.3177H36.1878C34.5778 25.5137 30.8094 23.0169 26.6257 23.0169ZM36.0859 33.5615C36.2426 34.5233 36.035 35.4891 35.514 36.3213C35.1497 36.816 34.5543 37.0751 33.9549 37.0751C33.3556 37.0751 32.7602 36.7885 32.3959 36.3213C31.8749 35.5126 31.6673 34.5233 31.8239 33.5615C31.6673 32.5997 31.8749 31.6339 32.3959 30.8017C32.7602 30.3345 33.3556 30.0479 33.9549 30.0479C34.5543 30.0479 35.1497 30.307 35.514 30.8017C36.0311 31.6065 36.2426 32.5958 36.0859 33.5615ZM31.2794 35.018C31.4087 35.9798 30.7349 36.867 29.7713 36.9965C29.6929 36.9965 29.5911 37.024 29.5128 37.024H27.0958V30.099H29.407C30.3667 30.0479 31.1737 30.8017 31.2011 31.7399C31.2011 31.8459 31.2011 31.9205 31.2011 32.0265C31.2285 32.5997 30.9426 33.1218 30.4725 33.4594C31.017 33.7696 31.3304 34.3938 31.2794 35.018ZM24.5221 32.9373V34.1347H22.2345V35.7992H24.91V36.9691H21.118V30.0676H24.91V31.2649H22.2345V32.8784L24.5221 32.9373ZM17.1459 30.099V34.6018C17.1459 35.4105 17.5376 35.8777 18.1331 35.8777C18.7324 35.8777 19.1476 35.4105 19.1476 34.6018V30.099H20.2641V34.6293C20.4208 35.7992 19.5903 36.867 18.3916 37.024C17.2243 37.1811 16.1588 36.3488 16.0021 35.1475C15.9746 34.9669 15.9746 34.7824 16.0021 34.6018V30.0715L17.1459 30.099ZM17.0676 37.7778C19.4062 43.0619 25.5641 45.4605 30.8368 43.1168C33.2028 42.0765 35.1223 40.149 36.1643 37.7778H36.8146C34.4759 43.427 28.032 46.1083 22.3951 43.7646C19.6921 42.6457 17.5376 40.4826 16.4212 37.7778H17.0676ZM36.6304 33.5615C36.4738 32.5997 36.6814 31.6339 37.2024 30.8017C37.8761 29.9419 39.1493 29.7849 40.0071 30.4876C40.1364 30.5936 40.2422 30.6957 40.3205 30.8017C40.8415 31.6104 41.0491 32.5997 40.8924 33.5615C41.0491 34.5233 40.8415 35.4891 40.3205 36.3213C39.6467 37.1811 38.3736 37.3381 37.5158 36.6354C37.3865 36.5294 37.2807 36.4273 37.2024 36.3213C36.6814 35.4891 36.4738 34.5233 36.6304 33.5615ZM36.889 17.0026L40.1638 19.5033L39.5136 20.3631L37.2024 18.62L36.3171 19.7899L38.2914 21.2738L37.6411 22.1336L35.6668 20.6496L34.758 21.8745L37.0692 23.6175L36.4189 24.4773L33.1441 21.9766L36.889 17.0026ZM30.3941 14.4744L31.5615 14.7885L30.1826 19.7624L32.909 20.5162L32.6231 21.5565L28.698 20.4612L30.3941 14.4744ZM24.6514 14.2663L25.1176 19.3973L27.9498 19.1382L28.0281 20.2335L23.9737 20.5986L23.4018 14.3763L24.6514 14.2663ZM22.7045 19.7349L23.1707 20.7242L19.4297 22.4437L16.8325 16.7671L20.5735 15.0476L21.0162 16.0369L18.3642 17.2342L18.9635 18.5611L21.2238 17.5444L21.6665 18.5336L19.4336 19.5504L20.0564 20.9323L22.7045 19.7349ZM11.6891 21.4544L13.7418 23.2524L13.1699 19.7899L14.157 18.671L14.6506 21.8745L18.9635 22.7067L18.0273 23.7746L14.8308 23.0993L15.011 24.3477L16.4134 25.5961L15.6064 26.5069L10.9292 22.3652L11.6891 21.4544ZM15.7161 35.7756V36.973H11.9751V30.0715H13.0915V35.7756H15.7161ZM9.45238 36.973H7.03542V30.0715H9.34662C10.3064 30.0205 11.1133 30.7742 11.1407 31.7125C11.1407 31.8185 11.1407 31.8931 11.1407 31.9991C11.1681 32.5722 10.9057 33.0943 10.4395 33.432C10.984 33.746 11.2974 34.3702 11.2465 34.9944C11.3758 35.9562 10.702 36.8434 9.73835 36.973C9.6365 36.9965 9.55815 36.9965 9.45238 36.973ZM11.2739 43.0108C11.0663 42.6968 10.988 42.3356 11.0663 41.9705C11.1721 41.4484 11.5325 41.1893 12.0535 40.8242C12.5745 40.4591 12.9388 40.2 13.4558 40.2785C13.8201 40.3295 14.1296 40.5376 14.3411 40.8517C14.5488 41.1657 14.6271 41.5269 14.5488 41.892C14.443 42.4141 14.0826 42.6732 13.5616 43.0383C13.0406 43.4034 12.6763 43.6625 12.1592 43.584C11.791 43.533 11.4815 43.3249 11.2739 43.0108ZM13.0915 45.4605L12.6254 44.9384L15.25 42.3592L16.86 44.0786L16.3938 44.5223L15.2774 43.2974L14.6271 43.9216L15.5868 44.9619L15.1207 45.4056L14.161 44.3652L13.0915 45.4605ZM16.5191 46.6579L15.6613 47.8827L15.1168 47.4666L17.2752 44.4712L19.1476 45.8767L18.7833 46.3988L17.4593 45.4095L16.9383 46.1397L18.0547 46.9719L17.6904 47.4941L16.5191 46.6579ZM17.8706 49.3392L19.5315 46.0337L20.1544 46.3477L18.4935 49.6532L17.8706 49.3392ZM20.4717 50.513C20.1348 50.3834 19.8488 50.1243 19.7196 49.8103C19.5629 49.2881 19.6412 48.7425 19.8998 48.2989C20.1074 47.6982 20.2641 47.2585 20.7302 47.023C21.0436 46.8659 21.4314 46.8424 21.7683 46.9719C22.4186 47.2075 22.7829 47.8827 22.5988 48.5344L21.9485 48.2989C22.0268 48.0123 21.8427 47.6982 21.5568 47.5961C21.4001 47.5176 21.2199 47.5451 21.0632 47.6236C20.883 47.7296 20.7772 47.8827 20.5422 48.5619C20.3072 49.2371 20.2837 49.4216 20.362 49.6022C20.4129 49.7592 20.5422 49.8888 20.6989 49.9398C20.9848 50.0458 21.2982 49.9123 21.4275 49.6532L22.0778 49.8888C21.7957 50.4855 21.0945 50.7721 20.4717 50.513ZM22.4969 51.1607L23.249 47.5137L23.9228 47.6707L23.1707 51.3178L22.4969 51.1607ZM26.0029 51.6318L25.8462 50.9566L24.6005 50.8506L24.342 51.5023L23.6133 51.4512L25.1998 47.8592L25.7443 47.9102L26.7315 51.7103L26.0029 51.6318ZM27.1741 51.6318L26.9665 47.9338L27.6677 47.9063L27.8479 50.9802L29.4579 50.8742L29.4853 51.5258L27.1741 51.6318ZM33.0187 50.0183C32.862 50.3834 32.5761 50.6425 32.2118 50.7721C31.8749 50.9016 31.4831 50.8781 31.1737 50.7211C30.7075 50.4855 30.5743 50.0458 30.3432 49.4452C30.0847 48.978 30.0298 48.4284 30.163 47.9338C30.4764 47.2585 31.2559 46.9445 31.9297 47.2585C32.2157 47.3881 32.4507 47.5961 32.58 47.8827L31.9297 48.1183C31.8004 47.8317 31.4361 47.7021 31.1502 47.8317C30.9935 47.8827 30.8642 48.0123 30.8133 48.1693C30.7349 48.3499 30.7624 48.5344 30.9935 49.2096C31.2285 49.8849 31.3304 50.0419 31.5145 50.1479C31.6712 50.2264 31.8514 50.2539 31.9806 50.1754C32.1608 50.1243 32.294 49.9948 32.3724 49.8103C32.4233 49.6297 32.4233 49.4452 32.3449 49.2881L32.294 49.1586L31.6712 49.3941L31.4636 48.821L32.7093 48.3538L32.8894 48.8759C33.1245 49.2096 33.148 49.6258 33.0187 50.0183ZM35.4357 49.3902C34.8637 49.7553 34.1116 49.5708 33.7473 49.0016C33.7199 48.9741 33.6964 48.923 33.6964 48.8956L32.5291 46.76L33.1284 46.4223L34.2957 48.5305C34.4015 48.8445 34.7384 48.9976 35.0479 48.8681C35.0753 48.8406 35.1262 48.8406 35.1536 48.8171C35.467 48.66 35.5689 48.2714 35.4122 47.9573C35.4122 47.9298 35.3848 47.9298 35.3848 47.9063L34.2174 45.7981L34.8167 45.4605L35.9841 47.5961C36.3484 48.1968 36.1408 49.0016 35.5179 49.3392C35.4866 49.3667 35.4631 49.3667 35.4357 49.3902ZM37.5158 48.0397L35.2046 45.1504L35.7491 44.7068L38.0367 47.5961L37.5158 48.0397ZM39.6703 46.1632L38.7614 47.074L36.2152 44.4163L37.124 43.5055C37.3591 43.2464 37.6959 43.0894 38.0328 43.0894C38.6048 43.1168 38.9181 43.478 39.3059 43.8981C39.7486 44.2121 40.0346 44.7068 40.1129 45.225C40.062 45.5626 39.9053 45.9041 39.6703 46.1632ZM41.0726 44.4437L38.0328 42.3866L39.3334 40.408L39.8544 40.7732L38.9456 42.1786L39.6467 42.6732L40.4263 41.4759L40.9473 41.841L40.1677 43.0383L40.8964 43.533L41.8052 42.1275L42.3262 42.4926L41.0726 44.4437ZM43.517 33.8716L42.7649 34.9394V37.024H41.6485V30.099H42.7649V33.0943L44.7901 30.099H46.169L44.2731 32.8313L46.3257 36.9965H45.0017L43.517 33.8716Z" fill="#F2F2F2"/>
</svg>
