<svg width="72" height="72" viewBox="0 0 72 72" fill="none" xmlns="http://www.w3.org/2000/svg">
<path d="M54.8105 0C64.2493 0.000168366 71.9004 7.65207 71.9004 17.0908V54.8105C71.9004 64.2493 64.2493 71.9012 54.8105 71.9014H17.0898C7.65121 71.9011 2.06175e-05 64.2492 0 54.8105V17.0908C0 7.65212 7.6512 0.000243965 17.0898 0H54.8105ZM36.6201 11.0615C23.5372 11.0615 16.5928 19.8032 16.5928 29.332C16.5929 33.7563 18.9573 39.2685 22.7441 41.0225C23.3203 41.2894 23.6252 41.1722 23.7559 40.6211C23.8572 40.2004 24.3702 38.1531 24.5986 37.1973C24.674 36.8922 24.6368 36.6298 24.3867 36.3281C23.1404 34.8214 22.1367 32.0352 22.1367 29.4424C22.1369 22.7866 27.1984 16.3467 35.8203 16.3467C43.2709 16.3467 48.4805 21.3966 48.4805 28.624C48.4804 36.791 44.3459 42.4463 38.9551 42.4463C35.9784 42.4463 33.7509 39.9999 34.4648 36.9893C35.3226 33.4036 36.9765 29.5276 36.9766 26.9434C36.9766 24.6213 35.7261 22.6885 33.1396 22.6885C30.0991 22.6887 27.6543 25.8234 27.6543 30.0225C27.6544 32.6951 28.5625 34.501 28.5625 34.501C28.5424 34.5855 25.5587 47.1595 25.0117 49.5068C24.0756 53.5032 25.1341 59.9784 25.2275 60.5439C25.2752 60.8473 25.6134 60.9495 25.8047 60.6943C26.1006 60.3012 29.7211 54.8936 30.7451 50.9834C31.107 49.5785 32.6146 43.863 32.6289 43.8086C33.6226 45.686 36.5055 47.2734 39.5771 47.2734C48.7182 47.2732 55.3086 38.8974 55.3086 28.498C55.3085 18.5239 47.1367 11.0617 36.6201 11.0615Z" fill="#F2F2F2"/>
</svg>
