<svg width="72" height="72" viewBox="0 0 72 72" fill="none" xmlns="http://www.w3.org/2000/svg">
<path d="M54.8105 0C64.2494 4.67688e-05 71.9014 7.65199 71.9014 17.0908V54.8105C71.9013 64.2494 64.2494 71.9013 54.8105 71.9014H17.0908C7.65198 71.9014 2.06176e-05 64.2494 0 54.8105V17.0908C0 7.65197 7.65197 0 17.0908 0H54.8105ZM50.3643 14.749C48.9602 14.7491 47.7207 15.5632 47.1426 16.7441L38.7598 14.9932C38.5119 14.9522 38.2632 14.993 38.0977 15.1152C37.8914 15.2375 37.7674 15.4412 37.7266 15.6855L35.166 27.5762C29.7972 27.7394 24.9645 29.3271 21.4541 31.8115C20.5087 30.9213 19.2507 30.4249 17.9434 30.4268C15.1352 30.427 12.9053 32.6668 12.9053 35.3955C12.9054 37.4311 14.144 39.1408 15.8789 39.915C15.7958 40.403 15.7549 40.8922 15.7549 41.4219C15.7549 49.077 24.8002 55.3086 35.9512 55.3086C47.1021 55.3085 56.1465 49.1179 56.1465 41.4219C56.1465 40.9331 56.1048 40.403 56.0225 39.915C57.7568 39.1408 58.996 37.3902 58.9961 35.3545C58.9961 32.5854 56.7246 30.3857 53.957 30.3857C52.5947 30.3858 51.3556 30.9153 50.4473 31.7705C46.9784 29.3271 42.2278 27.7396 36.9414 27.5361L39.2539 16.8662L46.7705 18.4541C46.8536 20.3274 48.4228 21.8349 50.3643 21.835C52.3466 21.835 53.957 20.2464 53.957 18.291C53.9568 16.3366 52.3465 14.749 50.3643 14.749ZM43.1777 47.001C43.5496 46.6351 44.1282 46.6351 44.5 47.001C44.83 47.3676 44.8301 47.9372 44.5 48.3037C42.0221 50.747 37.3141 50.9101 35.9512 50.9102C34.547 50.9102 29.8387 50.7061 27.4014 48.3037C27.0304 47.9371 27.0304 47.3676 27.4014 47.001C27.7732 46.6351 28.3508 46.6351 28.7227 47.001C30.2924 48.5487 33.597 49.0771 35.9512 49.0771C38.3051 49.0771 41.6495 48.5483 43.1777 47.001ZM43.8389 35.3955C45.8217 35.3956 47.4325 36.9831 47.4326 38.9375C47.4326 40.851 45.8218 42.4803 43.8389 42.4805C41.8566 42.4805 40.2461 40.8921 40.2461 38.9375C40.2463 36.9831 41.8567 35.3955 43.8389 35.3955ZM27.9805 35.3545C29.9625 35.3547 31.5731 36.9422 31.5732 38.8965C31.5732 40.8509 29.9626 42.4402 27.9805 42.4404C25.9974 42.4807 24.3867 40.8511 24.3867 38.8965C24.3869 36.9421 25.9975 35.3545 27.9805 35.3545Z" fill="#F2F2F2"/>
</svg>
