<svg width="72" height="72" viewBox="0 0 72 72" fill="none" xmlns="http://www.w3.org/2000/svg">
<path d="M54.8105 0C64.2492 0 71.9011 7.65121 71.9014 17.0898V54.8105C71.9012 64.2493 64.2493 71.9004 54.8105 71.9004H17.0908C7.65208 71.9004 0.000149496 64.2493 0 54.8105V17.0898C0.000258699 7.65122 7.65215 2.5353e-05 17.0908 0H54.8105ZM11.0625 12.9053L29.8057 38.0762L12.0576 58.9961H19.6875L33.4541 42.8721L45.4805 58.9961H60.8398L41.2666 32.4639L58.0195 12.9053H50.3896L37.668 27.6338L26.8027 12.9053H11.0625ZM24.5801 17.3271L51.9492 54.4033H47.7197L20.0352 17.3271H24.5801Z" fill="#F2F2F2"/>
</svg>
