<svg width="174" height="33" viewBox="0 0 174 33" fill="none" xmlns="http://www.w3.org/2000/svg">
<path d="M143.139 5.20825C144.879 5.20825 145.95 6.34337 145.95 8.07943C145.95 9.81549 144.879 10.8171 143.139 10.8171C141.264 10.8171 140.327 9.68195 140.327 8.07943C140.327 6.47691 141.331 5.20825 143.139 5.20825ZM145.616 13.0205H140.595V31.5162H145.616V13.0205ZM95.006 10.2829V31.5162H100.428V10.2829H107.792V6.744H88.6463V10.2829H95.006Z" fill="#F2F2F2"/>
<path d="M117.098 17.8947C116.428 17.6944 115.692 17.6277 114.955 17.6277C112.478 17.6277 111.14 19.0966 111.14 22.1014V31.4494H106.186V13.0204H110.872V18.0951C111.809 14.6229 114.219 12.553 117.098 12.4862V17.8947ZM154.519 31.5161V6.7439H149.565V31.5161H154.519ZM170.251 18.5625C169.983 18.0283 168.711 16.0251 165.967 16.0251C163.423 16.0251 162.82 17.227 162.887 17.9615C163.021 18.9631 163.557 19.4973 166.837 20.2317C171.322 21.1666 174 22.5688 174 26.1076C174 30.1807 170.184 31.9835 165.565 31.9835C163.155 31.9835 159.005 31.3158 156.996 27.7102L160.544 25.3732C160.544 25.3732 162.352 28.1108 165.498 28.1108C168.444 28.1108 168.711 26.8421 168.778 26.308C168.845 25.5067 168.644 24.7054 165.297 23.971C160.611 22.9694 157.733 21.901 157.733 17.9615C157.733 15.9584 159.54 12.3527 165.833 12.3527C171.724 12.3527 173.398 15.5577 173.732 16.2255C173.732 16.2922 173.799 16.2922 173.799 16.2922L170.251 18.5625Z" fill="#F2F2F2"/>
<path fill-rule="evenodd" clip-rule="evenodd" d="M127.273 20.8327C121.984 21.8343 118.704 23.1697 118.704 27.2428C118.704 30.2475 120.98 31.9835 124.461 31.9835C127.675 31.9835 129.884 30.381 131.089 27.7102C131.223 30.7149 132.562 32.0503 135.574 32.0503C136.98 32.0503 137.582 31.7832 138.252 31.3158V27.9772C137.917 28.1108 137.649 28.2443 137.114 28.2443C135.842 28.2443 135.641 27.7102 135.641 25.9741V19.4973C135.641 14.6897 132.629 12.3527 127.876 12.3527C123.658 12.3527 120.779 14.2891 119.173 18.4957L123.524 19.7643C124.194 17.6944 125.198 16.2255 127.608 16.2255C130.085 16.2255 131.022 17.227 131.022 18.4289C131.022 19.9647 129.415 20.4321 127.273 20.8327ZM131.156 22.1681V23.3032C131.156 25.3732 129.549 28.4447 126.135 28.4447C124.261 28.4447 123.457 27.7102 123.457 26.4415C123.457 24.9725 124.461 24.3048 127.675 23.5036C129.683 23.0362 130.754 22.7023 131.156 22.1681ZM46.2038 31.5161H50.4882L52.0949 26.308H62.8059L64.4795 31.5161H70.1698L61.4671 6.7439H54.7727L46.2038 31.5161ZM56.5132 12.4862L53.2999 22.8358H61.7348L58.2537 12.4862L57.3835 9.74862H57.3165L56.5132 12.4862Z" fill="#F2F2F2"/>
<path d="M72.1781 31.5161V6.7439H77.132V31.5161H72.1781ZM81.0147 31.5161V6.7439H85.9686V31.5161C86.0355 31.5161 81.0147 31.5161 81.0147 31.5161Z" fill="#F2F2F2"/>
<path fill-rule="evenodd" clip-rule="evenodd" d="M33.6853 9.88219C32.5472 7.7455 31.677 6.67716 30.5389 6.67716C29.267 6.67716 28.7314 7.34487 27.9281 8.54676C27.3256 9.34802 26.7231 10.4164 25.7189 10.3496C24.6478 10.216 24.0453 7.7455 23.3089 5.74235C22.2378 2.93795 21.5684 0 19.7609 0C18.7568 0 17.8195 0.934802 16.4807 3.00472L2.08768 24.9726C0.41408 27.7102 -0.9248 29.6466 0.815745 31.4494C2.89101 33.4525 7.71098 29.9804 10.9912 27.9105C14.2715 25.8406 17.6856 23.7707 22.4387 23.9042C28.8653 24.0378 32.0117 30.4478 35.8944 31.7165C38.5052 32.5845 40.9822 31.5829 41.4508 28.8453C41.7855 27.3763 41.25 25.9074 40.5136 24.3716L33.6853 9.88219ZM33.2167 22.7691C31.9447 23.7039 30.0703 22.1682 28.9322 21.5004C27.6603 20.8327 25.585 19.1634 21.7692 19.2302C18.6898 19.297 17.0162 20.4321 15.2087 21.634C11.259 24.3048 7.64404 27.5099 6.57293 25.8406C5.90349 24.7722 7.71098 22.7023 11.8615 16.2255C14.8071 11.6182 16.9493 7.94581 18.422 7.94581C20.0287 7.94581 20.1626 9.54833 20.4304 11.2176C20.899 13.8217 22.1709 15.2239 23.8445 15.4242C25.7189 15.6913 27.3256 14.0888 28.5975 14.1556C29.8025 14.1556 30.6058 15.8916 31.5431 17.6945C32.8819 19.8979 34.1539 22.1014 33.2167 22.7691Z" fill="#F2F2F2"/>
</svg>
