<svg width="128" height="36" viewBox="0 0 128 36" fill="none" xmlns="http://www.w3.org/2000/svg">
<path d="M38.1765 24.2123C38.4376 25.2248 39.3195 26.2597 40.5294 26.519H44.1862L44.3727 26.5922V35.7648H46.6562V26.5922L46.8636 26.519H50.5236C51.747 26.2057 52.6099 25.2248 52.8666 24.2123V24.1899H38.1765V24.2123Z" fill="#F2F2F2"/>
<path d="M60.7767 35.7912H69.4639C70.6725 35.5524 71.5708 34.4939 71.8226 33.4692H58.418C58.6682 34.4942 59.5797 35.5524 60.7767 35.7912Z" fill="#F2F2F2"/>
<path d="M60.7767 31.0858H69.4639C70.6725 30.8489 71.5708 29.7901 71.8226 28.7642H58.418C58.6682 29.7904 59.5797 30.8489 60.7767 31.0858Z" fill="#F2F2F2"/>
<path d="M60.7767 26.5077H69.4639C70.6725 26.2682 71.5708 25.2103 71.8226 24.1851H58.418C58.6682 25.2103 59.5797 26.2682 60.7767 26.5077Z" fill="#F2F2F2"/>
<path d="M80.5893 26.4855H88.6149C89.8248 26.1361 90.8408 25.2198 91.0884 24.2041H78.3396V31.0505H88.7741V33.4531L80.5893 33.4595C79.3066 33.815 78.2189 34.6711 77.6764 35.8019L78.3396 35.7898H91.016V28.7742H80.5893V26.4855Z" fill="#F2F2F2"/>
<path d="M107.901 35.7924C109.041 35.3122 109.654 34.4817 109.888 33.5098H99.7521L99.7585 24.2007L97.4863 24.2071V35.7924H107.901Z" fill="#F2F2F2"/>
<path d="M116.754 26.517H125.444C126.651 26.2785 127.549 25.2196 127.802 24.1953H114.397C114.647 25.22 115.558 26.2785 116.754 26.517Z" fill="#F2F2F2"/>
<path d="M114.746 28.7822V35.7875H117.006V31.1234H125.231V35.7875H127.49V28.7944L114.746 28.7822Z" fill="#F2F2F2"/>
<path d="M17.7839 35.2012L22.7592 7.38621C27.5016 7.38621 28.9974 7.90314 29.2134 10.0131C29.2134 10.0131 32.3947 8.83398 33.9993 6.4392C27.7379 3.55508 21.4467 3.42501 21.4467 3.42501L17.7756 7.86969L17.7839 7.86913L14.1128 3.42432C14.1128 3.42432 7.82145 3.55453 1.56092 6.43864C3.16406 8.83343 6.34664 10.0126 6.34664 10.0126C6.56388 7.90245 8.0579 7.38551 12.7684 7.38217L17.7839 35.2012Z" fill="#F2F2F2"/>
<path d="M17.7819 2.14134C22.8434 2.10286 28.6367 2.91967 34.5674 5.48913C35.3601 4.07091 35.5639 3.44413 35.5639 3.44413C29.0808 0.894455 23.0094 0.0218874 17.7812 0C12.5533 0.0218874 6.48226 0.894595 0 3.44413C0 3.44413 0.289185 4.21618 0.995738 5.48913C6.92529 2.91967 12.7196 2.10286 17.7812 2.14134H17.7819Z" fill="#F2F2F2"/>
</svg>
