<svg width="154" height="28" viewBox="0 0 154 28" fill="none" xmlns="http://www.w3.org/2000/svg">
<path d="M18.5664 18.2142L22.9993 26.2095H14.7743L11.0315 19.3768H7.48567V26.2095H0V1.98867H13.6909C19.3543 1.98867 22.95 5.0864 22.95 10.6572C22.95 14.2419 21.2755 16.8098 18.5664 18.2142ZM7.48567 8.28356V13.0793H12.8044C14.3804 13.0793 15.3653 12.1589 15.3653 10.6572C15.3653 9.15552 14.3804 8.28356 12.8044 8.28356H7.48567ZM46.786 28L24.3782 22.0416L30.3865 0L41.5902 2.97918L52.7941 5.95834L46.786 28ZM42.5506 11.7714L36.2961 10.0759L34.6217 16.228L40.8762 17.924L42.5506 11.7714ZM78.4528 19.3768C78.4528 24.0271 75.4486 26.2095 70.7701 26.2095H56.0943V1.98867H70.2777C74.9562 1.98867 77.9604 4.36232 77.9604 8.52832C77.9604 11.1442 76.9754 12.8886 75.1039 14.0997C77.2216 15.017 78.4528 16.8583 78.4528 19.3768ZM63.3829 7.80169V11.3864H68.2559C69.5857 11.3864 70.3736 10.8051 70.3736 9.5456C70.3736 8.383 69.5857 7.80169 68.2559 7.80169H63.3829ZM63.3829 20.3966H68.8495C70.1299 20.3966 70.8712 19.7184 70.8712 18.5553C70.8712 17.2963 70.1326 16.715 68.8495 16.715H63.3829V20.3966ZM82.1465 1.98867H89.6311V19.0381H100.367V26.2095H82.1453L82.1465 1.98867ZM127.898 14.0997C127.898 16.5907 127.147 19.0258 125.74 21.097C124.333 23.1683 122.333 24.7825 119.994 25.7358C117.654 26.6891 115.08 26.9386 112.596 26.4525C110.112 25.9665 107.83 24.767 106.04 23.0055C104.249 21.2441 103.029 19 102.535 16.5568C102.041 14.1136 102.295 11.5812 103.264 9.2798C104.233 6.97837 105.874 5.01133 107.98 3.62738C110.086 2.24343 112.561 1.50476 115.094 1.50476C116.776 1.50147 118.442 1.82491 119.997 2.45653C121.552 3.08817 122.965 4.01555 124.154 5.18547C125.344 6.3554 126.287 7.74486 126.929 9.27413C127.572 10.8034 127.901 12.4424 127.898 14.0971V14.0997ZM120.412 14.0997C120.412 11.0957 117.999 8.72209 115.094 8.72209C112.188 8.72209 109.774 11.0957 109.774 14.0997C109.774 17.1036 112.188 19.4767 115.094 19.4767C117.999 19.4767 120.412 17.1 120.412 14.0971V14.0997ZM145.923 13.7116L154 26.2095H145.084L140.653 19.0861L136.073 26.2095H127.012L135.433 14.0017L127.701 1.98867H136.615L140.702 8.52832L144.642 1.98867H153.507L145.923 13.7116Z" fill="#F2F2F2"/>
</svg>
