<svg width="72" height="72" viewBox="0 0 72 72" fill="none" xmlns="http://www.w3.org/2000/svg">
<path d="M54.8105 0C64.2494 0 71.9014 7.65197 71.9014 17.0908V54.8105C71.9013 64.2494 64.2494 71.9014 54.8105 71.9014H17.0908C7.65198 71.9014 2.06173e-05 64.2494 0 54.8105V17.0908C0 7.65197 7.65197 0 17.0908 0H54.8105ZM41.6055 12.9053C35.3396 12.9053 31.0568 16.718 31.0566 23.7324V29.7783H23.9678V37.9727H31.0566V58.9961H39.5166V37.9727H46.584L47.6387 29.7783H39.5166V24.5547C39.5166 22.1744 40.1704 20.5734 43.5879 20.5732H47.9346V13.2217C47.1751 13.1164 44.6012 12.9053 41.6055 12.9053Z" fill="#F2F2F2"/>
</svg>
