<svg width="72" height="72" viewBox="0 0 72 72" fill="none" xmlns="http://www.w3.org/2000/svg">
<path d="M54.8105 0C64.2494 0 71.9014 7.65197 71.9014 17.0908V54.8105C71.9013 64.2494 64.2494 71.9014 54.8105 71.9014H17.0908C7.65208 71.9012 2.06168e-05 64.2493 0 54.8105V17.0908C0 7.65204 7.65207 0.000123576 17.0908 0H54.8105ZM35.9492 12.9053C29.6944 12.9053 28.9086 12.9331 26.4512 13.0449C23.9978 13.1573 22.3227 13.5453 20.8574 14.1152C19.3418 14.7038 18.0562 15.4912 16.7754 16.7725C15.4935 18.0534 14.7058 19.3393 14.1152 20.8545C13.5439 22.3203 13.1553 23.9958 13.0449 26.4482C12.935 28.906 12.9063 29.6922 12.9062 35.9502C12.9062 42.2086 12.9335 42.9923 13.0449 45.4502C13.1577 47.9035 13.5458 49.5787 14.1152 51.0439C14.7043 52.5596 15.4921 53.8451 16.7734 55.126C18.0539 56.4079 19.3398 57.1975 20.8545 57.7861C22.3208 58.356 23.9963 58.7441 26.4492 58.8564C28.9071 58.9683 29.6923 58.9961 35.9502 58.9961C42.2094 58.9961 42.993 58.9683 45.4512 58.8564C47.9043 58.7441 49.5807 58.3559 51.0469 57.7861C52.5621 57.1975 53.8465 56.4079 55.127 55.126C56.4087 53.8451 57.1956 52.5591 57.7861 51.0439C58.3526 49.5782 58.7422 47.9034 58.8574 45.4512C58.9678 42.993 58.9961 42.2089 58.9961 35.9502C58.9961 29.6919 58.9678 28.9063 58.8574 26.4482C58.7422 23.9951 58.3526 22.3207 57.7861 20.8555C57.1956 19.3398 56.4088 18.0534 55.127 16.7725C53.8451 15.4906 52.563 14.7034 51.0459 14.1152C49.5767 13.5453 47.9007 13.1573 45.4473 13.0449C42.9897 12.9331 42.2068 12.9053 35.9492 12.9053ZM33.8857 17.0586C34.4993 17.0576 35.184 17.0586 35.9531 17.0586C42.1063 17.0586 42.8358 17.08 45.2656 17.1904C47.5122 17.2932 48.7316 17.669 49.5439 17.9844C50.6193 18.402 51.3863 18.9015 52.1924 19.708C52.999 20.5146 53.4983 21.283 53.917 22.3584C54.2324 23.1698 54.6087 24.3891 54.7109 26.6357C54.8214 29.0651 54.8457 29.7951 54.8457 35.9453C54.8457 42.0955 54.8214 42.8255 54.7109 45.2549C54.6082 47.5016 54.2324 48.7209 53.917 49.5322C53.4993 50.6077 52.999 51.3736 52.1924 52.1797C51.3858 52.9862 50.6198 53.4856 49.5439 53.9033C48.7326 54.2202 47.5122 54.5945 45.2656 54.6973C42.8362 54.8077 42.1063 54.832 35.9531 54.832C29.7996 54.832 29.07 54.8077 26.6406 54.6973C24.3939 54.5935 23.1741 54.2187 22.3613 53.9033C21.2861 53.4857 20.5183 52.986 19.7119 52.1797C18.9053 51.3731 18.406 50.6062 17.9873 49.5303C17.6719 48.7189 17.2956 47.4997 17.1934 45.2529C17.0829 42.8236 17.0605 42.0935 17.0605 35.9395C17.0605 29.7855 17.0829 29.0592 17.1934 26.6299C17.2961 24.3832 17.6719 23.1639 17.9873 22.3516C18.405 21.2762 18.9053 20.5077 19.7119 19.7012C20.5183 18.8948 21.2861 18.3951 22.3613 17.9766C23.1736 17.6597 24.3939 17.2859 26.6406 17.1826C28.7666 17.0866 29.5908 17.0575 33.8857 17.0527V17.0586ZM35.9531 24.1162C29.4175 24.1163 24.1184 29.4147 24.1182 35.9502C24.1182 42.4859 29.4174 47.7831 35.9531 47.7832C42.4889 47.7832 47.7861 42.4859 47.7861 35.9502C47.7859 29.4147 42.4888 24.1162 35.9531 24.1162ZM35.9531 28.2686C40.1953 28.2686 43.6345 31.7077 43.6348 35.9502C43.6348 40.1924 40.1954 43.6328 35.9531 43.6328C31.7104 43.6327 28.2715 40.1924 28.2715 35.9502C28.2717 31.7077 31.7105 28.2686 35.9531 28.2686ZM48.2549 20.8848C46.7281 20.8848 45.4893 22.1222 45.4893 23.6494C45.4893 25.1761 46.7282 26.415 48.2549 26.415C49.7815 26.415 51.0204 25.176 51.0205 23.6494C51.0205 22.1227 49.7816 20.8848 48.2549 20.8848Z" fill="#F2F2F2"/>
</svg>
