<svg width="72" height="72" viewBox="0 0 72 72" fill="none" xmlns="http://www.w3.org/2000/svg">
<path d="M54.8105 0C64.2494 2.47394e-05 71.9014 7.65198 71.9014 17.0908V54.8105C71.9013 64.2494 64.2494 71.9013 54.8105 71.9014H17.0908C7.65206 71.9013 2.06174e-05 64.2493 0 54.8105V17.0908C0 7.65202 7.65205 9.47223e-05 17.0908 0H54.8105ZM35.4473 12.9131C33.3939 12.9131 26.4344 13.4774 23.1514 20.7285C22.0467 23.1686 22.3107 27.3122 22.5234 30.6416C22.5488 31.0338 22.5752 31.4418 22.5977 31.8359C22.4278 31.9282 22.1176 32.0439 21.6299 32.0439C20.9781 32.0439 20.2082 31.8422 19.3408 31.4414C19.1105 31.3356 18.8445 31.2812 18.5518 31.2812C17.5358 31.2813 16.3212 31.9403 16.1328 32.9209C15.9963 33.6275 16.3173 34.6578 18.6221 35.5547C18.8299 35.6364 19.0802 35.7142 19.3447 35.7959C20.2972 36.0939 21.7366 36.5446 22.1279 37.4512C22.3298 37.9213 22.2487 38.5262 21.8877 39.2471C21.8799 39.2634 21.872 39.2796 21.8652 39.2969C21.7384 39.5872 18.6909 46.4294 11.9258 47.5264C11.4059 47.6111 11.0344 48.069 11.0635 48.5869C11.0723 48.7417 11.1094 48.8949 11.1729 49.0439C11.6813 50.2131 13.8228 51.0709 17.7227 51.667C17.8533 51.8405 17.9884 52.4534 18.0713 52.8271C18.1523 53.1963 18.2364 53.5766 18.3564 53.9785C18.4736 54.3726 18.7794 54.8436 19.5635 54.8438C19.8807 54.8438 20.2561 54.7711 20.6885 54.6875C21.3384 54.5625 22.2284 54.3916 23.3418 54.3916C23.9595 54.3916 24.6001 54.444 25.2441 54.5488C26.5019 54.7556 27.5713 55.501 28.8086 56.3623C30.5819 57.5978 32.5908 58.9961 35.6426 58.9961C35.7264 58.9961 35.8107 58.994 35.8945 58.9873C35.993 58.9921 36.1215 58.9961 36.2578 58.9961C39.3105 58.9961 41.3195 57.5978 43.0908 56.3633C44.3312 55.5 45.4003 54.7555 46.6582 54.5488C47.3021 54.4441 47.942 54.3916 48.5596 54.3916C49.6224 54.3916 50.4634 54.5238 51.2129 54.668C51.6831 54.7593 52.0608 54.8057 52.3369 54.8057H52.3945C52.9741 54.8056 53.3829 54.5039 53.5449 53.957C53.663 53.5638 53.7471 53.1933 53.8301 52.8184C53.913 52.4453 54.048 51.8351 54.1777 51.6621C58.0782 51.066 60.219 50.2101 60.7266 49.0459C60.791 48.8969 60.8291 48.7417 60.8379 48.5859C60.867 48.067 60.4955 47.611 59.9756 47.5264C53.2075 46.4274 50.162 39.5863 50.0361 39.2959C50.0293 39.2796 50.0215 39.2634 50.0127 39.2471C49.6517 38.5252 49.5716 37.9213 49.7734 37.4512C50.1638 36.5445 51.6041 36.094 52.5566 35.7969C52.8229 35.7133 53.0725 35.6344 53.2783 35.5547C54.9656 34.8981 55.8114 34.0927 55.7939 33.1592C55.7793 32.4256 55.1996 31.7713 54.2783 31.4473L54.2754 31.4463C53.9661 31.3195 53.5982 31.251 53.2383 31.251C52.9914 31.251 52.6267 31.2838 52.2852 31.4414C51.4829 31.8116 50.7613 32.0131 50.1396 32.04C49.727 32.0218 49.4579 31.9186 49.3037 31.835C49.3232 31.4976 49.3457 31.1495 49.3682 30.7861L49.377 30.6445C49.5907 27.3132 49.8547 23.1656 48.75 20.7246C45.465 13.4697 38.4908 12.9053 36.4316 12.9053H36.3076C36.289 12.9055 35.5105 12.9131 35.4473 12.9131Z" fill="#F2F2F2"/>
</svg>
