<svg width="72" height="72" viewBox="0 0 72 72" fill="none" xmlns="http://www.w3.org/2000/svg">
<path d="M54.8105 0C64.2491 0.000214278 71.9001 7.65134 71.9004 17.0898V54.8105C71.9002 64.2491 64.2491 71.9002 54.8105 71.9004H17.0898C7.65125 71.9002 0.0001495 64.2492 0 54.8105V17.0898C0.000258705 7.65133 7.65132 0.000198049 17.0898 0H54.8105ZM54.8848 16.5928C53.358 16.6286 50.9826 17.4881 39.6846 22.4688C35.715 24.2245 27.8094 27.8436 15.9346 33.29C14.0346 34.1142 13.0168 34.9031 12.915 35.6914C12.7455 37.1962 14.7807 37.6626 17.3252 38.5225C19.4286 39.2391 22.2109 40.0627 23.6699 40.0986C24.9931 40.1345 26.4525 39.5614 28.0811 38.3789C39.1757 30.4599 44.8758 26.4467 45.249 26.375C45.5203 26.3034 45.8593 26.2317 46.0967 26.4463C46.3342 26.6613 46.3347 27.0917 46.3008 27.1992C46.0961 28.0959 35.6836 38.125 35.0703 38.7725C32.7632 41.2807 30.151 42.8223 34.1885 45.6172C37.6829 48.0536 39.685 49.5941 43.2812 52.0664C45.5544 53.643 47.3526 55.507 49.7275 55.292C50.8132 55.1844 51.933 54.1085 52.5098 50.8838C53.8669 43.2871 56.5133 26.769 57.124 19.9609C57.1919 19.3876 57.1235 18.6347 57.0557 18.2764C56.9878 17.9182 56.8861 17.4529 56.4795 17.0947C55.9707 16.6649 55.2242 16.5928 54.8848 16.5928Z" fill="#F2F2F2"/>
</svg>
