<svg width="72" height="72" viewBox="0 0 72 72" fill="none" xmlns="http://www.w3.org/2000/svg">
<path d="M54.8105 0C64.2492 9.63252e-05 71.9011 7.65127 71.9014 17.0898V54.8105C71.9012 64.2492 64.2492 71.9003 54.8105 71.9004H17.0908C7.65206 71.9004 0.0001495 64.2493 0 54.8105V17.0898C0.000258705 7.65121 7.65212 0 17.0908 0H54.8105ZM35.1113 44.0771C34.9278 47.4109 32.1564 50.0205 28.7998 50.0205C25.309 50.0204 22.4795 47.2057 22.4795 43.7334C22.4795 40.2611 25.309 37.4464 28.7998 37.4463C29.5365 37.4463 30.2676 37.5748 30.96 37.8252L31.0312 29.5947C30.2608 29.4648 29.4807 29.3994 28.6992 29.3994C20.9947 29.3994 14.7492 35.6119 14.749 43.2754C14.749 50.9391 20.9946 57.1523 28.6992 57.1523C36.1406 57.1523 42.2716 51.3423 42.6328 43.9492V27.7109C42.6328 27.7109 46.6335 31.145 53.4648 31.2881V23.8486C42.2013 22.7782 42.3897 12.9509 42.3906 12.9053H35.1113V44.0771Z" fill="#F2F2F2"/>
</svg>
