<svg width="123" height="23" viewBox="0 0 123 23" fill="none" xmlns="http://www.w3.org/2000/svg">
<path d="M107.655 0C107.212 0 106.853 0.358286 106.853 0.800082V6.41149H121.709L114.944 0.000517594L107.655 0Z" fill="#F2F2F2"/>
<path d="M122.252 8.10914C122.252 7.66631 121.896 7.30957 121.45 7.30957H115.828V22.1327L122.25 15.3795L122.252 8.10914Z" fill="#F2F2F2"/>
<path d="M114.124 22.6693C114.566 22.6693 114.925 22.3105 114.925 21.8676V16.2583H100.069L106.835 22.6682L114.124 22.6693Z" fill="#F2F2F2"/>
<path d="M99.5259 14.5611C99.5259 15.0034 99.8849 15.3638 100.329 15.3638H105.951V0.539551L99.5269 7.29076L99.5259 14.5611Z" fill="#F2F2F2"/>
<path d="M31.4311 2.70573V9.55127H21.8726V2.70573L18.3912 2.70264V19.9632H21.8726V12.548H31.4311V19.9632H34.9182V2.70573H31.4311Z" fill="#F2F2F2"/>
<path d="M77.7447 2.70557V19.9589H93.0183L91.0838 16.9215H81.2359V12.5478H90.7718V9.62225H81.2359V5.67185H91.0673L92.9625 2.70557H77.7447Z" fill="#F2F2F2"/>
<path d="M5.45046 2.70166C1.82906 2.70166 0 4.89828 0 8.09449V14.5374C0 18.2362 2.35709 19.9632 5.43237 19.9632L16.355 19.9622L14.3301 16.8072H6.10716C4.36026 16.8072 3.5992 16.1773 3.5992 14.2266V8.38112C3.5992 6.49535 4.23988 5.75971 6.15365 5.75971H14.4159L16.3601 2.70166H5.45046Z" fill="#F2F2F2"/>
<path d="M62.4676 2.69748C60.376 2.69748 58.2323 3.95173 58.2323 7.17785V8.00679C58.2323 11.37 60.2949 12.6531 62.3585 12.6619H69.6019C70.3542 12.6619 70.9654 12.7867 70.9654 14.0553L70.9643 15.521C70.9452 16.6608 70.3753 16.9216 69.576 16.9216H60.0469L58.0949 19.9591H69.8003C72.6229 19.9591 74.5393 18.5579 74.5393 15.3215V14.1322C74.5393 11.003 72.7588 9.52447 69.9982 9.52447H63.0819C62.3151 9.52447 61.7809 9.31569 61.7809 8.18258V6.98916C61.7809 6.02411 62.1472 5.67202 63.0405 5.67202L72.1155 5.66841L74.0122 2.69336L62.4676 2.69748Z" fill="#F2F2F2"/>
<path d="M45.0327 2.70557L36.8304 19.962H40.7071L42.3047 16.3982H51.2179L52.8103 19.962H56.704L48.4826 2.70557H45.0327ZM46.7528 6.28841L49.9045 13.4608H43.6212L46.7528 6.28841Z" fill="#F2F2F2"/>
</svg>
