<svg width="64" height="42" viewBox="0 0 64 42" fill="none" xmlns="http://www.w3.org/2000/svg">
<path d="M19.4876 33.5125L19.3731 33.6239C17.5279 35.5154 15.3922 36.5179 13.1915 36.5179C8.59798 36.5179 5.26352 33.0507 5.26352 28.2667C5.26352 23.4913 8.59798 20.0192 13.1915 20.0192C15.3922 20.0192 17.5279 21.0258 19.3731 22.9223L19.4876 23.0371L22.4418 19.443L22.3628 19.3455C19.906 16.4245 16.9582 15.0024 13.3341 15.0024C9.69758 15.0024 6.37329 16.2338 3.97748 18.4545C1.37437 20.8593 0 24.2508 0 28.2667C0 32.2806 1.37437 35.6804 3.97748 38.0859C6.37329 40.3169 9.69758 41.5415 13.3341 41.5415C16.9582 41.5415 19.906 40.1202 22.3628 37.198L22.4418 37.1072L19.4876 33.5125Z" fill="#F2F2F2"/>
<path d="M25.427 41.0523H30.6459V15.4189H25.427V41.0523Z" fill="#F2F2F2"/>
<path d="M51.0886 35.4785C49.6963 36.3315 48.4005 36.7603 47.2369 36.7603C45.5507 36.7603 44.7888 35.8649 44.7888 33.8705V20.2693H50.1039V15.4423H44.7888V7.46631L39.6735 10.2207V15.4423H35.2607V20.2693H39.6735V34.7381C39.6735 38.6801 41.9943 41.3731 45.4587 41.4431C47.8111 41.4895 49.2292 40.7844 50.0904 40.269L50.1409 40.2313L51.3973 35.2888L51.0886 35.4785Z" fill="#F2F2F2"/>
<path d="M55.4111 41.0523H60.6334V15.4189H55.4111V41.0523Z" fill="#F2F2F2"/>
<path fill-rule="evenodd" clip-rule="evenodd" d="M63.7594 10.8706C58.9821 4.06211 51.0482 0 42.9762 0C34.9074 0 26.972 4.06211 22.2025 10.8706L21.9579 11.2209H27.9732L28.0399 11.1482C32.1341 6.89657 37.4787 4.6481 42.9762 4.6481C48.4743 4.6481 53.8178 6.89657 57.92 11.1482L57.9865 11.2209H64L63.7594 10.8706Z" fill="#F2F2F2"/>
</svg>
