<svg width="112" height="31" viewBox="0 0 112 31" fill="none" xmlns="http://www.w3.org/2000/svg">
<path d="M60.3077 15.0353L45.2396 0V30.0353L60.3077 15.0353Z" fill="#F2F2F2"/>
<path d="M30.1716 15.0353L45.2396 0H15.1035L30.1716 15.0353Z" fill="#F2F2F2"/>
<path d="M0 15.0353L15.1035 30.0353V0L0 15.0353Z" fill="#F2F2F2"/>
<path d="M30.1716 15.0352L15.1035 30.0352H45.2396L30.1716 15.0352Z" fill="#F2F2F2"/>
<path d="M73.5321 15.9178H68.0722V21.2825H65.3422V8.71777H68.0722V13.8707H73.5321V8.71777H76.2621V21.2825H73.5321V15.9178Z" fill="#F2F2F2"/>
<path d="M82.8566 21.5294C80.1266 21.5294 77.893 20.4353 77.8575 17.4353H80.5875C80.623 18.7764 81.403 19.5882 82.892 19.5882C83.9911 19.5882 85.2675 19.0235 85.2675 17.7882C85.2675 16.8 84.4166 16.5176 82.9984 16.0941L82.0766 15.847C80.0912 15.2823 78.1057 14.5059 78.1057 12.247C78.1057 9.4588 80.7293 8.50586 83.1048 8.50586C85.5511 8.50586 87.6784 9.35292 87.7138 12.1412H84.9838C84.8775 11.0117 84.2039 10.3412 82.9275 10.3412C81.8993 10.3412 80.9066 10.8706 80.9066 12C80.9066 12.9176 81.7575 13.2 83.5302 13.7647L84.5939 14.0823C86.7566 14.7529 88.1393 15.4941 88.1393 17.6117C88.1038 20.4353 85.3384 21.5294 82.8566 21.5294Z" fill="#F2F2F2"/>
<path d="M89.6638 8.75296H94.0601C94.8756 8.71767 95.7265 8.75296 96.5419 8.89414C98.0665 9.24708 99.2365 10.2353 99.2365 11.9294C99.2365 13.553 98.2083 14.3647 96.7192 14.753C98.421 15.0706 99.6974 15.9177 99.6974 17.7883C99.6974 20.6471 96.861 21.2824 94.6629 21.2824H89.6993L89.6638 8.75296ZM94.0601 13.9765C95.2656 13.9765 96.5065 13.7294 96.5065 12.2824C96.5065 10.9765 95.372 10.6236 94.2374 10.6236H92.3229V13.9765H94.0601ZM94.3083 19.4118C95.5847 19.4118 96.8256 19.1294 96.8256 17.5765C96.8256 16.0236 95.762 15.7412 94.4501 15.7412H92.2874V19.4118H94.3083Z" fill="#F2F2F2"/>
<path d="M106.788 21.5295C102.711 21.5295 100.903 18.9531 100.903 15.106C100.903 11.2589 102.924 8.4707 106.93 8.4707C109.447 8.4707 111.894 9.60012 111.965 12.4236H109.128C108.986 11.1531 108.136 10.5178 106.93 10.5178C104.448 10.5178 103.704 13.1648 103.704 15.1766C103.704 17.1884 104.448 19.5178 106.824 19.5178C108.065 19.5178 108.986 18.8472 109.164 17.5766H112C111.716 20.4707 109.412 21.5295 106.788 21.5295Z" fill="#F2F2F2"/>
</svg>
