<svg width="124" height="35" viewBox="0 0 124 35" fill="none" xmlns="http://www.w3.org/2000/svg">
<path d="M22.5586 0C22.854 0.177828 23.0794 0.480116 23.0273 1.03125L23.4453 0.177734C23.7927 0.480069 23.8618 0.978158 23.7402 1.44043C23.7055 1.56477 23.671 1.63598 23.6709 1.70703C23.6709 2.04489 24.6609 2.29411 24.6611 3.05859C24.6611 3.82322 24.6263 3.32569 24.5742 3.46777L26.8516 6.40234C26.9905 6.58014 27.042 6.77631 27.042 6.9541C27.0417 7.55865 26.5206 8.2168 25.7734 8.2168C25.0263 8.21671 24.7652 7.80693 24.7305 7.61133L22.75 6.61621C22.6284 6.81185 22.5059 7.13172 22.5059 7.4873C22.506 9.71023 25.5828 9.78187 26.3301 12.6807L29.3711 11.6484C31.5434 13.818 33.8549 15.9166 35.2627 16.7881L36.167 17.9619H33.4385V17.1445L32.6904 16.9307C31.5435 15.0992 29.9974 14.0851 29.1631 13.8359C28.1551 14.4584 27.3903 15.1169 26.5039 16.1484C27.9463 16.024 29.5625 16.1837 30.918 16.4326L30.2051 22.6572L29.6318 24.2578L28.1025 25.5918V22.835H28.9189L28.6934 21.9639C29.3711 20.15 29.458 18.9227 29.458 18.2646C29.458 17.6066 29.4582 17.8729 29.3887 17.8018C29.3363 17.7487 29.0931 17.8022 28.8848 17.8555C28.3286 18.0155 27.4418 18.442 26.2773 19.4023C25.2346 20.2737 24.6615 20.6649 23.2539 20.5049C21.6724 22.1944 18.3002 23.0133 15.3457 22.96C15.1195 25.4137 12.4614 26.8186 12.4609 27.9922C12.4609 29.166 12.8437 29.0953 13.6953 30.3936C14.6337 31.8518 15.5372 33.239 16.6494 33.6836L17.5879 34.8574H14.8594V34.0215C14.842 34.0215 14.0596 33.5771 14.0596 33.5771C13.1732 31.8876 11.7828 30.0378 9.87109 28.2949C10.3403 27.3524 10.584 26.374 10.584 25.4492C9.71501 26.783 8.46324 26.7832 8.2373 27.7969C8.15045 28.1703 8.20344 28.9171 8.39453 29.8594C8.68998 31.2999 8.95045 32.9902 10.2539 33.666L11.1572 34.875H8.44629V34.0391L8.48145 34.0566L7.78613 33.5586C7.49064 30.002 6.39577 27.8323 5.82227 26.7119C6.43057 26.3028 7.45605 25.3421 7.45605 23.9551C7.45585 22.5682 6.36035 21.8566 6.36035 20.1494C6.36038 18.4425 6.67385 18.4247 7.17773 17.8203C6.84752 17.3401 6.46493 17.0732 5.87402 17.0732C5.28316 17.0733 4.65723 17.6244 4.65723 18.4424C4.65724 19.2604 4.8665 19.4563 5.31836 19.6875C5.00553 20.1498 4.17062 20.1855 3.71875 19.5098C3.71901 21.1279 5.40525 22.2661 5.40527 24.0088C5.40527 25.7515 4.5361 26.2138 3.26758 26.2139C1.99888 26.2139 1.4421 25.7691 0.990234 24.8799C2.01552 25.1466 2.74594 24.7381 2.74609 23.8135C2.74609 22.124 0 20.4697 0 17.6064C8.90468e-06 14.7434 1.70288 14.1026 3.63184 14.1025C5.56096 14.1025 6.96956 14.9386 8.15137 17.0371C8.75952 16.5749 9.48924 16.3085 10.2363 16.1484C12.2523 15.7394 14.7199 16.1121 16.6143 15.2764C17.4659 14.9029 18.1611 14.2626 18.1611 13.5156C18.1611 12.7692 17.9702 12.9473 17.6748 12.9473C17.3795 12.9473 17.31 13.0181 17.1885 13.3379C16.8235 13.0178 16.7012 12.6623 16.7012 12.3066C16.7012 11.72 16.8755 11.4534 17.084 11.1689C16.8928 10.671 16.3021 10.5462 15.9023 11.0439C15.4157 10.1192 15.711 8.83852 16.9971 8.44727C15.5025 8.1805 15.1026 7.23775 15.2764 6.18848C15.4154 6.31297 15.5723 6.38477 15.7461 6.38477C15.9892 6.38456 16.1455 6.18883 16.1455 5.88672C16.1455 5.58441 15.9892 5.08622 15.2246 4.55273C15.9024 3.50371 17.0839 3.34329 17.6748 3.73438C17.3795 3.28977 17.2235 2.54343 17.71 1.81445C17.8318 1.97452 18.0923 2.22263 18.5264 2.22266C19.7777 2.22266 19.8303 0.818056 20.7861 0.675781C20.734 1.12039 20.8382 1.72461 21.377 1.72461C21.9156 1.72424 22.3848 0.657905 22.5586 0ZM20.332 3.26953C18.3087 4.38473 17.5391 5.48299 17.5391 8.21094C17.5391 10.9384 19.0768 12.4139 19.0771 13.4775C19.0771 14.5412 18.1413 15.3307 17.2217 15.7939C15.2485 16.789 12.8565 16.5836 11.084 16.8066H11.1016C8.07489 17.1841 7.05425 18.8484 7.52246 20.667C7.5559 17.939 10.1149 17.4757 11.7871 17.4414C13.8269 17.39 16.0506 18.0245 15.3154 19.9971C18.7931 18.3841 19.9137 12.7066 22.873 12.7061C23.3412 12.7061 23.9934 12.8436 24.5117 13.2725C23.9265 12.02 22.572 12.0023 21.1172 11.4189C19.0442 10.5782 18.4425 8.87999 18.4424 7.30176C18.4424 5.72332 19.0444 4.40189 20.332 3.26953ZM4.02734 14.9365C2.33864 14.9367 0.98469 16.052 1.35254 17.7676C1.43615 17.047 1.80425 16.3773 2.27246 16.1543C2.28918 16.4116 2.35586 16.7207 2.57324 16.9609C2.70701 15.3826 4.61292 14.9876 5.88379 15.5879C5.3487 15.0734 4.57908 14.9365 4.02734 14.9365ZM22.3213 2.58301C22.5888 2.87467 22.7393 3.13245 22.7393 3.47559C22.7392 3.81868 22.6222 4.12773 22.0537 4.43652C22.756 4.40221 23.1916 4.55645 23.71 5.10547C24.0945 5.53436 24.4789 6.10084 24.6963 6.42676C24.8299 6.64949 24.8633 6.6839 24.8633 6.92383C24.8633 7.16384 24.7794 7.4383 24.7793 7.59277L24.7627 7.55859C24.7627 7.79868 25.0136 7.86713 25.1475 7.86719C25.2812 7.86719 25.4321 7.81612 25.499 7.76465C25.3987 7.62739 25.248 7.36995 25.248 7.16406C25.2481 7.06124 25.2648 6.99223 25.415 6.99219C25.5655 6.99219 25.7494 7.06108 25.833 6.92383L23.4922 3.92188C23.6092 3.81894 23.6592 4.12739 23.6592 3.5957C23.6592 3.06384 22.6892 2.65164 22.3213 2.58301Z" fill="#F2F2F2"/>
<path d="M40.4568 24.7569V12.7374C40.4568 12.0607 40.2869 11.2951 40.0416 10.3335H44.1368C43.8914 11.2951 43.7216 12.0607 43.7216 12.7196V24.383H48.2131C49.7228 24.383 50.6664 24.3117 51.6666 24.0624L50.6475 27.1252H40.0416C40.2869 26.1636 40.4568 25.3979 40.4568 24.7391V24.7569Z" fill="#F2F2F2"/>
<path d="M53.3273 24.7391V12.7196C53.3273 12.0429 53.1763 11.2772 52.9583 10.3335H56.5984C56.3804 11.2951 56.2294 12.0607 56.2294 12.7196V24.383H60.2218C61.5638 24.383 62.4025 24.3117 63.2916 24.0624L62.3858 27.1252H52.9583C53.1763 26.1636 53.3273 25.3979 53.3273 24.7391Z" fill="#F2F2F2"/>
<path d="M63.2916 18.7293C63.2916 14.0457 66.7405 10.3335 71.6874 10.3335C76.6344 10.3335 80.0833 14.0457 80.0833 18.7293C80.0833 23.413 76.6344 27.1252 71.6874 27.1252C66.7405 27.1252 63.2916 23.413 63.2916 18.7293ZM77.035 18.7293C77.035 15.3467 75.0144 13.0222 71.6874 13.0222C68.3605 13.0222 66.3399 15.3467 66.3399 18.7293C66.3399 22.112 68.3605 24.4364 71.6874 24.4364C75.0144 24.4364 77.035 22.112 77.035 18.7293Z" fill="#F2F2F2"/>
<path d="M86.2391 20.9172C83.5666 18.3024 81.2628 14.7271 80.0833 10.3335H83.7509C83.8062 11.0806 83.9537 11.7743 84.2486 12.5925C85.0779 14.905 86.3496 16.826 87.8056 18.4625C89.2985 16.8972 90.6808 14.8872 91.5286 12.5925C91.8235 11.7921 91.9709 11.0984 92.0262 10.3335H95.5833C94.4222 14.7271 92.0999 18.2846 89.4275 20.9172V27.1252H86.2391V20.9172Z" fill="#F2F2F2"/>
<path d="M97.2599 24.7238V12.7171C97.2599 12.0411 97.1025 11.2762 96.875 10.3335H102.439C107.741 10.3335 111.083 13.7665 111.083 18.7293C111.083 23.6921 107.741 27.1252 102.439 27.1252H96.875C97.1025 26.1646 97.2599 25.3998 97.2599 24.7416V24.7238ZM108.039 18.7116C108.039 15.0651 106.009 13.0728 102.264 13.0728H100.305V24.3859H102.264C106.009 24.3859 108.039 22.3758 108.039 18.7293V18.7116Z" fill="#F2F2F2"/>
<path d="M112.627 25.9803L112.573 22.7017C114.729 24.0375 116.166 24.6619 117.837 24.6619C119.508 24.6619 120.963 23.9334 120.963 22.6324C120.963 21.3314 120.442 21.0885 118.736 20.4293L116.004 19.3712C113.489 18.3998 112.375 17.0641 112.375 14.9651C112.375 12.8661 114.657 10.3335 118.196 10.3335C121.736 10.3335 121.772 10.8886 122.778 11.357V14.5141C120.874 13.2998 119.472 12.7967 118.035 12.7967C116.597 12.7967 115.376 13.4733 115.376 14.5141C115.376 15.5549 115.933 16.0753 117.28 16.5957L120.712 17.9314C122.706 18.712 124 20.1171 124 22.2507C124 24.3844 121.736 27.1252 117.693 27.1252C113.651 27.1252 113.741 26.4833 112.609 25.9976L112.627 25.9803Z" fill="#F2F2F2"/>
</svg>
