<svg width="68" height="68" viewBox="0 0 68 68" fill="none" xmlns="http://www.w3.org/2000/svg">
<path d="M68 0V68H0V0H68ZM19.8281 36.793L16.4336 45.374C16.1332 46.1169 15.5954 46.2383 14.7471 46.2383V47.4346H19.7539V46.2383H18.626C18.3098 46.2383 18.1201 46.1641 18.1201 45.9375C18.1201 45.7848 18.1621 45.6531 18.2148 45.4951C18.2931 45.2865 18.7531 44.0453 18.7627 44.0195H22.5576C22.5654 44.0408 23.0586 45.391 23.1162 45.5322C23.1794 45.706 23.2109 45.8696 23.2109 45.9697C23.2107 46.1591 23.0899 46.2382 22.7637 46.2383H21.583V47.4346H32.208V46.2383H31.0381C30.5745 46.2383 30.3791 46.0906 30.3789 45.6641V42.4482H31.2227C33.0039 42.4483 33.7842 43.1868 33.7842 45.0156V45.5684C33.7842 47.0177 34.3057 47.7666 35.8604 47.7666C37.1884 47.7666 38.0633 47.0604 38.0635 45.2266V44.9365H37.0039V45.2266C37.0038 45.9376 36.804 46.2381 36.4248 46.2383C36.0401 46.2383 35.8076 45.9953 35.8076 44.9043V44.2822C35.8074 42.6435 34.8588 42.18 33.7363 42.0957V42.0693C34.6956 42.0166 36.7461 41.6106 36.7461 39.5498C36.7461 37.8896 35.655 36.793 33.3359 36.793H26.3477V37.9795H27.4648C27.9652 37.9795 28.1288 38.132 28.1289 38.5586V45.6641C28.1288 46.0905 27.923 46.2382 27.4648 46.2383H27.0322C26.1839 46.2383 25.6356 46.1274 25.3457 45.374L21.8672 36.793H19.8281ZM43.7188 36.4717C40.5723 36.4717 38.5957 38.87 38.5957 42.1113C38.5957 45.379 40.6039 47.7666 43.7188 47.7666C45.7207 47.7666 46.8064 46.8502 47.0547 46.623L47.6504 47.4346H48.7412V43.7451C48.7412 43.1179 48.9738 42.9492 49.5957 42.9492H49.8906V41.7578H44.9785V42.9492H45.7061C46.2329 42.9493 46.5547 43.1867 46.5547 43.7031V44.3252C46.5546 45.5424 45.8059 46.3905 44.1777 46.3906C42.1381 46.3906 41.1153 44.5568 41.1152 42.1113C41.1152 39.7027 42.1378 37.8584 44.1143 37.8584C46.1749 37.8585 46.8761 39.7766 47.1133 40.4248H48.4307V36.793H47.3076L46.9131 37.6631C46.6812 37.4575 45.6846 36.4717 43.7188 36.4717ZM56.7266 36.4717C53.2375 36.4717 50.9287 38.9121 50.9287 42.1113C50.9287 45.3052 53.2375 47.7666 56.7266 47.7666C60.205 47.7665 62.5185 45.3052 62.5186 42.1113C62.5186 38.9122 60.205 36.4718 56.7266 36.4717ZM6.30371 37.9795H7.36816C7.84778 37.9795 8.11621 38.1953 8.11621 38.5801V45.4531C8.11608 45.9009 7.87375 46.2383 7.30469 46.2383H6.30371V47.4346H12.1855V46.2383H11.3848C10.6417 46.2383 10.3672 46.0167 10.3672 45.416V42.5166H11.0264C12.0222 42.5167 12.4541 42.9494 12.4541 44.0771V44.4307H13.5713V39.5342H12.4541V39.7451C12.454 40.5724 12.1537 41.3309 11.1211 41.3311H10.3672V37.9795H12.46C14.8154 37.9797 15.0636 39.1652 15.2217 40.4248H16.3701V36.793H6.30371V37.9795ZM56.7266 37.7266C59.2457 37.7267 59.999 39.8187 59.999 42.1113C59.999 44.4039 59.2457 46.5019 56.7266 46.502C54.1915 46.502 53.4434 44.404 53.4434 42.1113C53.4434 39.8187 54.1914 37.7266 56.7266 37.7266ZM20.6865 38.9648L22.1201 42.8389H19.2061L20.6396 38.9648H20.6865ZM32.3555 37.9795C33.8417 37.9795 34.5116 38.6854 34.5117 39.6182C34.5117 40.6459 33.7258 41.2627 32.3555 41.2627H30.3789V37.9795H32.3555ZM58.0068 19.9014C55.9989 19.9015 53.9697 20.9187 53.9697 23.1006C53.9697 25.0768 55.5455 25.9781 57.3584 26.3682C57.9592 26.4947 58.3181 26.5637 58.8662 26.6797C60.2258 26.9695 61.1326 27.3801 61.1328 28.3232C61.1328 29.04 60.3732 29.8096 58.8711 29.8096C56.7738 29.8094 55.5298 28.6399 55.2715 26.8535H54.0381V30.8535H55.1299L55.4824 29.8994C55.7407 30.126 56.7633 31.1699 58.708 31.1699C61.1851 31.1699 63.0566 30.0682 63.0566 27.8916C63.0566 25.7835 61.3118 24.8771 59.1826 24.4502C58.8032 24.3553 58.4553 24.2966 58.0654 24.207C56.7426 23.9224 55.8937 23.596 55.8936 22.6475C55.8936 21.8253 56.7633 21.2608 58.0703 21.2607C60.0362 21.2607 60.7953 22.5105 61.2012 23.8545H62.3975V20.2178H61.5332L61.001 21.0186C60.9009 20.9184 59.92 19.9014 58.0068 19.9014ZM4.33789 20.2178V21.4033H4.55859C5.16989 21.4033 5.39649 21.5353 5.52832 21.9727L8.54395 30.8535H10.7783L12.6436 25.3301H12.6758L14.3564 30.8535H16.5654L19.4688 22.3789C19.7375 21.5831 20.102 21.4033 20.8662 21.4033H21.1924C21.9354 21.4033 22.2518 21.6142 22.252 22.3096V28.5449C22.252 29.5094 21.9567 29.6621 21.4033 29.6621H20.5127V30.8535H31.0381V26.8535H29.873C29.6991 28.6979 29.1718 29.6621 27.7119 29.6621H24.5078V25.9258H25.2725C26.2366 25.9259 26.6738 26.4211 26.6738 27.7227V27.9443H27.7969V22.7578H26.6738V22.9639C26.6738 24.2758 26.2366 24.745 25.2725 24.7451H24.5078V21.4033H27.3271C29.4617 21.4033 29.5993 22.3155 29.8418 23.8545H31.0381V20.2178H16.4492V21.4033H17.2236C17.7876 21.4033 17.9092 21.6357 17.9092 21.8887C17.9091 22.0888 17.8513 22.2469 17.7881 22.4365L15.7432 28.2344H15.7109L13.9512 22.2998C13.8984 22.147 13.8194 21.9202 13.8193 21.7568C13.8193 21.546 13.9457 21.4033 14.2725 21.4033H15.1211V20.2178H10.3193V21.4033H10.6992C11.1682 21.4033 11.49 21.5247 11.6533 21.999L11.9219 22.7578L10.0029 28.3398H9.97168L7.95898 22.4053C7.87471 22.184 7.81643 21.9833 7.81641 21.8252C7.81641 21.6144 7.95848 21.4034 8.31152 21.4033H8.98633V20.2178H4.33789ZM32.1553 21.4033H33.083C33.726 21.4033 33.9424 21.6147 33.9424 22.0996V28.9512C33.9423 29.5096 33.6358 29.6621 33.1826 29.6621H32.1553V30.8535H41.9902V26.8535H40.7617C40.5983 28.682 40.2666 29.6619 38.6016 29.6621H36.1816V22.1416C36.1816 21.5513 36.4246 21.4033 37.1309 21.4033H38.0322V20.2178H32.1553V21.4033ZM43.0596 21.4033H43.9932C44.6412 21.4034 44.8574 21.6148 44.8574 22.0996V28.9512C44.8573 29.5094 44.5463 29.662 44.0986 29.6621H43.0596V30.8535H52.9053V26.8535H51.6719C51.5085 28.6821 51.1658 29.6621 49.5215 29.6621H47.0977V22.1416C47.0977 21.5513 47.3396 21.4033 48.0459 21.4033H48.9414V20.2178H43.0596V21.4033Z" fill="#F2F2F2"/>
</svg>
