<svg width="137" height="41" viewBox="0 0 137 41" fill="none" xmlns="http://www.w3.org/2000/svg">
<path d="M84.5994 31.8652C76.6749 37.6568 65.1888 40.7468 55.2995 40.7468C41.4331 40.7468 28.9497 35.6615 19.5056 27.2037C18.7636 26.5386 19.4284 25.6322 20.3188 26.1501C30.5109 32.03 43.113 35.5673 56.1305 35.5673C64.9098 35.5673 74.5677 33.7663 83.4479 30.0289C84.7894 29.4638 85.9113 30.8999 84.5994 31.8652Z" fill="#F2F2F2"/>
<path d="M87.8939 28.1279C86.8848 26.8448 81.1982 27.5217 78.6457 27.8219C77.8681 27.9161 77.7494 27.2451 78.4498 26.7624C82.9789 23.6018 90.4108 24.5141 91.2774 25.5735C92.1441 26.6388 91.0519 34.0255 86.7958 37.551C86.1428 38.0925 85.5195 37.8041 85.8104 37.086C86.7661 34.72 88.909 29.4169 87.8939 28.1279Z" fill="#F2F2F2"/>
<path d="M78.8238 4.44913V1.37677C78.8238 0.911797 79.1799 0.599854 79.6073 0.599854H93.4797C93.9249 0.599854 94.2811 0.917684 94.2811 1.37677V4.0077C94.2751 4.44913 93.9011 5.02593 93.2363 5.93822L86.0479 16.1147C88.719 16.0499 91.5386 16.4443 93.9605 17.798C94.5066 18.104 94.655 18.5514 94.6966 18.9928V22.2711C94.6966 22.7185 94.1979 23.2423 93.6756 22.9715C89.4076 20.7526 83.7388 20.5113 79.0197 22.9951C78.5389 23.2541 78.0343 22.7361 78.0343 22.2888V19.1752C78.0343 18.675 78.0402 17.8215 78.5448 17.0623L86.873 5.22016H79.6251C79.1799 5.22016 78.8238 4.90822 78.8238 4.44913Z" fill="#F2F2F2"/>
<path d="M28.2196 23.6195H23.9992C23.5955 23.5901 23.275 23.2899 23.2453 22.9073V1.43029C23.2453 1.00063 23.6074 0.659257 24.0585 0.659257H27.9941C28.4036 0.676903 28.7301 0.988858 28.7598 1.37732V4.18482H28.837C29.8639 1.47149 31.7931 0.206055 34.393 0.206055C37.0345 0.206055 38.6847 1.47149 39.8719 4.18482C40.8929 1.47149 43.2139 0.206055 45.7011 0.206055C47.47 0.206055 49.4051 0.93 50.5864 2.55446C51.922 4.36139 51.6489 6.98643 51.6489 9.28775L51.643 22.8426C51.643 23.2723 51.2809 23.6195 50.8297 23.6195H46.6152C46.1938 23.5901 45.8554 23.2546 45.8554 22.8426V11.4596C45.8554 10.5532 45.9385 8.29306 45.7367 7.43374C45.4221 5.99174 44.4783 5.58562 43.2554 5.58562C42.2345 5.58562 41.166 6.26248 40.7327 7.34546C40.2993 8.42843 40.3409 10.2412 40.3409 11.4596V22.8426C40.3409 23.2723 39.9788 23.6195 39.5277 23.6195H35.3131C34.8857 23.5901 34.5533 23.2546 34.5533 22.8426L34.5474 11.4596C34.5474 9.06409 34.9451 5.53853 31.9474 5.53853C28.9141 5.53853 29.0329 8.9758 29.0329 11.4596V22.8426C29.0329 23.2723 28.6708 23.6195 28.2196 23.6195Z" fill="#F2F2F2"/>
<path d="M106.224 0.206055C112.487 0.206055 115.876 5.53853 115.876 12.3189C115.876 18.8697 112.131 24.0668 106.224 24.0668C100.075 24.0668 96.7267 18.7344 96.7267 12.0894C96.7267 5.40316 100.116 0.206055 106.224 0.206055ZM106.26 4.59093C103.149 4.59093 102.953 8.79335 102.953 11.4125C102.953 14.0375 102.912 19.6408 106.224 19.6408C109.495 19.6408 109.649 15.1205 109.649 12.366C109.649 10.5532 109.572 8.38723 109.02 6.6686C108.545 5.17362 107.601 4.59093 106.26 4.59093Z" fill="#F2F2F2"/>
<path d="M123.997 23.6195H119.794C119.372 23.5901 119.034 23.2546 119.034 22.8426L119.028 1.35966C119.064 0.965314 119.414 0.659257 119.841 0.659257H123.753C124.121 0.676903 124.424 0.924116 124.507 1.2596V4.54384H124.584C125.765 1.60686 127.422 0.206055 130.336 0.206055C132.23 0.206055 134.076 0.882915 135.263 2.73692C136.367 4.45556 136.367 7.34546 136.367 9.42312V22.9427C136.32 23.3193 135.969 23.6195 135.554 23.6195H131.322C130.936 23.5901 130.615 23.3076 130.574 22.9427V11.2771C130.574 8.92872 130.847 5.49145 127.932 5.49145C126.905 5.49145 125.961 6.1742 125.492 7.21008C124.899 8.52261 124.822 9.82924 124.822 11.2771V22.8426C124.816 23.2723 124.448 23.6195 123.997 23.6195Z" fill="#F2F2F2"/>
<path d="M67.765 13.3606V12.4542C64.714 12.4542 61.4907 13.1017 61.4907 16.6684C61.4907 18.4753 62.4345 19.6996 64.0551 19.6996C65.2423 19.6996 66.3048 18.9756 66.9756 17.7985C67.8066 16.3506 67.765 14.991 67.765 13.3606ZM72.0211 23.5606C71.7421 23.8078 71.3385 23.8255 71.0239 23.6607C69.623 22.5071 69.3737 21.9715 68.602 20.8708C66.287 23.2134 64.6487 23.9138 61.6451 23.9138C58.0953 23.9138 55.3292 21.7419 55.3292 17.3924C55.3292 13.9963 57.1871 11.6832 59.8287 10.5531C62.1199 9.55255 65.3194 9.37598 67.765 9.09935V8.55787C67.765 7.56317 67.8422 6.38603 67.2546 5.52671C66.7381 4.75568 65.7528 4.43785 64.8861 4.43785C63.2775 4.43785 61.8409 5.25596 61.4907 6.95106C61.4195 7.32775 61.1405 7.69855 60.7606 7.71621L56.6648 7.28066C56.3205 7.20415 55.9406 6.92751 56.0356 6.40369C56.9794 1.48321 61.461 0 65.4738 0C67.5276 0 70.2107 0.541488 71.8312 2.08355C73.885 3.98464 73.6891 6.5214 73.6891 9.28181V15.8032C73.6891 17.7632 74.5083 18.6225 75.28 19.6819C75.553 20.0586 75.6124 20.5118 75.2681 20.7943C74.4074 21.5065 72.8759 22.8308 72.033 23.5724L72.0211 23.5606Z" fill="#F2F2F2"/>
<path d="M12.4359 13.3606V12.4542C9.38477 12.4542 6.16154 13.1017 6.16154 16.6684C6.16154 18.4753 7.10535 19.6996 8.72587 19.6996C9.91307 19.6996 10.9756 18.9756 11.6464 17.7985C12.4774 16.3506 12.4359 14.991 12.4359 13.3606ZM16.6919 23.5606C16.413 23.8078 16.0093 23.8255 15.6947 23.6607C14.2938 22.5071 14.0445 21.9715 13.2728 20.8708C10.9578 23.2134 9.31948 23.9138 6.31587 23.9138C2.76616 23.9138 0 21.7419 0 17.3924C0 13.9963 1.85796 11.6832 4.49946 10.5531C6.79075 9.55255 9.99024 9.37598 12.4359 9.09935V8.55787C12.4359 7.56317 12.513 6.38603 11.9254 5.52671C11.4089 4.75568 10.4236 4.43785 9.55691 4.43785C7.94827 4.43785 6.51176 5.25596 6.16154 6.95106C6.0903 7.32775 5.81131 7.69855 5.43141 7.71621L1.33559 7.28066C0.991307 7.20415 0.611404 6.92751 0.70638 6.40369C1.6502 1.48321 6.13186 0 10.1446 0C12.1984 0 14.8815 0.541488 16.502 2.08355C18.5558 3.98464 18.36 6.5214 18.36 9.28181V15.8032C18.36 17.7632 19.1791 18.6225 19.9508 19.6819C20.2239 20.0586 20.2832 20.5118 19.9389 20.7943C19.0782 21.5065 17.5467 22.8308 16.7038 23.5724L16.6919 23.5606Z" fill="#F2F2F2"/>
</svg>
