<svg width="128" height="26" viewBox="0 0 128 26" fill="none" xmlns="http://www.w3.org/2000/svg">
<path d="M19.9654 18.85C19.9654 19.825 19.7436 20.6916 19.2999 21.45C18.8562 22.3166 18.1907 22.9666 17.4143 23.6166C16.6378 24.2666 15.6396 24.8084 14.5303 25.1334C13.4212 25.4584 12.201 25.675 10.87 25.675C9.64994 25.675 8.54075 25.5666 7.6534 25.4584C6.65513 25.35 5.76779 25.1334 4.88043 24.9166C3.99308 24.7 3.21664 24.2666 2.44022 23.9416C1.66378 23.5084 0.887351 22.9666 0 22.425L3.88216 19.0666C4.99135 19.9334 6.10054 20.475 7.20972 20.8C8.31892 21.125 9.42811 21.3416 10.6482 21.3416C11.2028 21.3416 11.6465 21.2334 12.0902 21.125C12.5338 21.0166 12.9775 20.8 13.3103 20.5834C13.643 20.3666 13.8648 20.0416 14.0867 19.825C14.3085 19.5 14.4195 19.175 14.4195 18.85C14.4195 18.4166 14.3085 18.0916 14.1976 17.7666C14.0867 17.4416 13.754 17.1166 13.3103 16.9C12.8666 16.575 12.312 16.3584 11.5356 16.0334C10.7591 15.7084 9.87178 15.3834 8.65167 15.0584C7.6534 14.7334 6.65513 14.4084 5.65686 13.975C4.65859 13.5416 3.88216 13 3.21664 12.4584C2.55113 11.9166 1.88562 11.1583 1.55286 10.4C0.99827 9.425 0.776433 8.45 0.776433 7.36666C0.776433 6.28334 0.99827 5.30834 1.44195 4.44166C1.88562 3.575 2.55113 2.81666 3.43849 2.16666C4.21491 1.625 5.21318 1.08333 6.32238 0.758334C7.43157 0.433334 8.65167 0.216666 9.87178 0.216666C11.9792 0.216666 13.8648 0.433334 15.3068 0.975C16.7488 1.51666 18.0798 2.16666 19.1889 3.14166L15.4178 6.5C14.7523 5.95834 13.9758 5.41666 13.0885 5.09166C12.201 4.76666 11.2028 4.65834 10.0936 4.65834C9.53902 4.65834 9.09535 4.76666 8.65167 4.875C8.09708 4.98334 7.76433 5.2 7.43157 5.41666C7.09881 5.63334 6.87697 5.95834 6.65513 6.28334C6.4333 6.60834 6.32238 6.93334 6.32238 7.25834C6.32238 7.69166 6.4333 8.01666 6.65513 8.34166C6.76606 8.66666 7.09881 8.88334 7.54248 9.20834C7.98616 9.53334 8.54075 9.75 9.31719 10.075C10.0936 10.4 10.981 10.725 12.0902 11.05C13.5321 11.4833 14.6413 11.9166 15.6396 12.4584C16.6378 13 17.4143 13.5416 18.0798 14.1916C18.7453 14.8416 19.1889 15.4916 19.5217 16.25C19.8544 17.0084 19.9654 17.875 19.9654 18.85ZM51.1336 25.35H45.6986V14.5166H35.605V25.35H30.1699V0.758334H35.605V10.5083H45.6986V0.758334H51.1336V25.35ZM81.1926 25.35H61.3382V0.758334H81.1926V4.65834H66.6623V10.5083H80.0834V14.3H66.6623V21.0166H81.1926V25.35ZM97.2759 25.35H91.8409V0.758334H97.2759V25.35ZM128 0.758334V26L112.805 13.1084V25.1334H107.48V0L122.676 12.8916V0.758334H128Z" fill="#F2F2F2"/>
</svg>
