<svg width="166" height="33" viewBox="0 0 166 33" fill="none" xmlns="http://www.w3.org/2000/svg">
<path d="M165.079 8.12451H161.62V20.5268L151.627 8.12451H147.526V24.8204H150.984V12.4182L160.976 24.8204H165.079V8.12451ZM131.485 8.12451H127.669L119.465 24.8188H123.281L124.307 22.673C124.735 21.7671 125.404 21.3606 126.406 21.3606H132.607L131.868 19.7867C131.414 18.8082 130.675 18.3561 129.579 18.3561H126.408L129.579 11.7737L135.874 24.819H139.691L131.485 8.12451ZM111.64 8.12451H108.062V24.8188H111.64V8.12451ZM100.172 8.12451H96.3562L90.2986 21.0517L84.2403 8.12451H80.4248L88.3904 24.8204H92.2061L100.172 8.12451ZM72.599 8.12451H69.0211V24.8188H72.599V8.12451ZM59.7362 13.683C59.7362 10.8692 57.8282 8.12625 53.7257 8.12625H43.1128V24.8205H46.6909V11.1307H53.2025C55.2065 11.1307 56.1597 12.1091 56.1597 13.683C56.1597 15.2805 55.2048 16.2589 53.2025 16.2589H50.4325C49.1775 16.2589 48.4722 16.9641 48.4722 18.2192V19.2651H50.4594C51.389 19.2651 52.0807 19.5755 52.6542 20.3143L56.1833 24.8218H60.571L55.6586 18.5734C58.2818 17.9746 59.7362 16.2573 59.7362 13.683Z" fill="#F2F2F2"/>
<path d="M18.244 20.0204C19.101 19.2377 20.6108 17.7735 21.1726 17.1172C21.4289 16.8271 21.4121 16.4644 21.4121 16.4644C21.4121 16.4644 21.4289 16.1016 21.1726 15.8115C20.6108 15.1553 19.101 13.691 18.244 12.9083C17.8931 12.581 17.8088 12.3753 17.8088 11.9737V7.53545C17.8088 7.32458 18.0095 7.2318 18.18 7.38025C20.0912 9.14988 24.3491 13.3689 25.7762 15.0035C26.4577 15.7272 26.3953 16.4645 26.3953 16.4645C26.3953 16.4645 26.4577 17.2 25.7762 17.9253C24.3473 19.56 20.0895 23.779 18.18 25.5486C18.0095 25.6971 17.8088 25.6042 17.8088 25.3934V20.9551C17.8105 20.5519 17.8931 20.3477 18.244 20.0204ZM15.7305 20.017C14.8735 19.2343 13.3637 17.77 12.802 17.1138C12.5455 16.8237 12.5624 16.4609 12.5624 16.4609C12.5624 16.4609 12.5455 16.0983 12.802 15.8081C13.3637 15.1519 14.8735 13.6876 15.7305 12.9049C16.0813 12.5777 16.1657 12.3718 16.1657 11.9703V7.51853C16.1657 7.33972 15.9565 7.22838 15.7946 7.37851C13.8833 9.14814 9.62548 13.3672 8.19831 15.0018C7.5151 15.7255 7.5792 16.4627 7.5792 16.4627C7.5792 16.4627 7.51679 17.1982 8.19831 17.9236C9.62714 19.5583 13.885 23.7773 15.7946 25.5468C15.965 25.6953 16.1657 25.6026 16.1657 25.3917V20.9533C16.1657 20.5485 16.0813 20.3427 15.7305 20.017ZM0.0670906 17.748C1.98851 19.7302 12.3835 30.4524 14.3314 31.9992C15.0113 32.5441 15.8868 32.9439 16.985 32.9439C18.0849 32.9439 18.9604 32.5441 19.6386 31.9992C21.587 30.4523 31.9814 19.7298 33.9029 17.748C34.0597 17.5675 33.918 17.2842 33.6819 17.2842C32.722 17.2842 30.497 17.2808 29.1559 17.2808C28.6835 17.2808 28.5435 17.3634 28.2465 17.6823C27.9497 18.0011 26.472 19.5868 26.472 19.5868C24.5926 21.6128 20.0093 26.0866 18.3341 27.4969C17.705 28.0266 16.9931 28.0097 16.9829 28.0097C16.9727 28.0097 16.2609 28.0266 15.6317 27.4969C13.9565 26.0849 9.37316 21.6111 7.49384 19.5868C7.49384 19.5868 6.01607 18.0011 5.71918 17.6823C5.42228 17.3634 5.28226 17.2808 4.80993 17.2808C3.47049 17.2808 1.24376 17.2842 0.283837 17.2842C0.0510368 17.2842 -0.0906656 17.5675 0.0662239 17.748H0.0670906ZM33.9055 15.1958C31.9841 13.2136 21.5891 2.49143 19.6411 0.944655C18.9613 0.399768 18.0858 0 16.9876 0C15.8877 0 15.0122 0.399801 14.3341 0.944655C12.3856 2.4916 1.98876 13.214 0.0672557 15.1958C-0.0896256 15.3763 0.0520735 15.6597 0.288245 15.6597C1.24809 15.6597 3.47317 15.663 4.81434 15.663C5.28668 15.663 5.42669 15.5804 5.72358 15.2616C6.02049 14.9427 7.49825 13.357 7.49825 13.357C9.37749 11.331 13.9609 6.85723 15.6361 5.44698C16.2653 4.91728 16.9772 4.93415 16.9873 4.93415C16.9974 4.93415 17.7093 4.91728 18.3385 5.44698C20.0137 6.85897 24.597 11.3326 26.4763 13.357C26.4763 13.357 27.9541 14.9427 28.251 15.2616C28.5478 15.5804 28.6879 15.663 29.1602 15.663C30.4996 15.663 32.7264 15.6597 33.6863 15.6597C33.9224 15.6614 34.0624 15.3763 33.9055 15.1958Z" fill="#F2F2F2"/>
</svg>
