<svg width="172" height="20" viewBox="0 0 172 20" fill="none" xmlns="http://www.w3.org/2000/svg">
<path d="M49.893 5.68455V14.4959H52.0832C52.6422 14.4875 53.1938 14.3669 53.7055 14.1409C54.2171 13.915 54.6784 13.5885 55.062 13.1806C55.8494 12.3445 56.2802 11.233 56.2627 10.0829C56.2794 9.51169 56.1834 8.94278 55.9802 8.40887C55.777 7.87496 55.4707 7.38659 55.0788 6.9718C54.6935 6.56337 54.229 6.23836 53.7139 6.01678C53.1987 5.79521 52.6438 5.68176 52.0832 5.68343H49.8941L49.893 5.68455ZM52.0832 2.92185C56.1655 2.92185 59.2538 6.09459 59.2538 10.0829C59.2538 14.0713 56.1655 17.2619 52.0832 17.2619H47.2526C47.2065 17.2614 47.161 17.2517 47.1187 17.2335C47.0764 17.2152 47.0381 17.1888 47.0059 17.1557C46.9738 17.1227 46.9484 17.0835 46.9313 17.0406C46.9143 16.9977 46.9058 16.9519 46.9064 16.9057V3.29267C46.9064 3.09549 47.0616 2.93529 47.2526 2.93529L52.0832 2.92185ZM69.7762 14.8028C71.6302 14.8084 73.3045 13.6646 74.0182 11.9046C74.3678 11.0446 74.4612 10.1015 74.2872 9.18933C74.1131 8.27721 73.679 7.4353 73.0375 6.76566C72.4073 6.10702 71.5926 5.65567 70.7012 5.47124C69.8098 5.28681 68.8836 5.37799 68.0449 5.73273C66.3316 6.45869 65.2125 8.17614 65.2091 10.0829C65.2091 12.6821 67.2497 14.7905 69.7762 14.8028ZM69.7773 2.59695C74.074 2.59695 77.3588 5.99376 77.3588 10.0829C77.3588 14.1721 74.074 17.5689 69.7762 17.5689C65.4794 17.5689 62.2225 14.1889 62.2225 10.0829C62.2225 5.97696 65.5084 2.59695 69.7773 2.59695ZM87.7963 14.8028C90.3239 14.7961 92.369 12.6854 92.3667 10.0863C92.3634 7.48491 90.3138 5.37871 87.7874 5.37759C85.2587 5.37759 83.2081 7.48267 83.2047 10.0829C83.2047 11.3354 83.6884 12.5364 84.5495 13.4215C84.971 13.8576 85.4754 14.2046 86.0329 14.4419C86.5904 14.6791 87.1907 14.8019 87.7963 14.8028ZM87.7952 2.59695C92.0786 2.59695 95.3634 5.97696 95.3634 10.0829C95.3634 14.1889 92.0652 17.5689 87.7952 17.5689C83.5264 17.5689 80.2137 14.1889 80.2137 10.0829C80.2137 5.97696 83.4985 2.59695 87.7952 2.59695ZM105.382 5.68455H102.294V9.47684H105.382C105.626 9.48769 105.87 9.44825 106.098 9.36096C106.326 9.27367 106.534 9.14039 106.709 8.96933C107.066 8.62203 107.27 8.14029 107.274 7.63391C107.283 7.37701 107.24 7.12093 107.148 6.88105C107.056 6.64117 106.916 6.42244 106.738 6.23799C106.563 6.05647 106.352 5.91375 106.118 5.81901C105.885 5.72428 105.634 5.67962 105.382 5.68791V5.68455ZM99.3061 3.29267C99.3061 3.09549 99.4624 2.93529 99.6534 2.93529H105.468C108.24 2.93529 110.246 5.02469 110.246 7.64847C110.267 9.42306 109.301 11.0531 107.759 11.8474L110.441 16.7242C110.478 16.7802 110.499 16.8455 110.501 16.9127C110.503 16.98 110.487 17.0466 110.454 17.1051C110.422 17.1627 110.374 17.2098 110.315 17.2408C110.257 17.2718 110.191 17.2853 110.126 17.2799H107.772C107.707 17.2808 107.643 17.2632 107.587 17.2291C107.531 17.195 107.486 17.1458 107.457 17.0872L104.873 12.2608H102.283V16.8945C102.283 16.9408 102.275 16.9867 102.258 17.0298C102.241 17.0728 102.216 17.1121 102.183 17.1453C102.151 17.1785 102.113 17.205 102.071 17.2233C102.028 17.2416 101.983 17.2513 101.936 17.2519H99.6691C99.6229 17.2513 99.5773 17.2416 99.5349 17.2233C99.4925 17.205 99.4541 17.1785 99.422 17.1453C99.3898 17.1121 99.3645 17.0728 99.3475 17.0298C99.3305 16.9867 99.3221 16.9408 99.3228 16.8945L99.3072 3.29379L99.3061 3.29267ZM118.033 5.75177V14.5642H120.222C120.781 14.5566 121.333 14.4367 121.845 14.2116C122.357 13.9864 122.818 13.6606 123.202 13.2534C123.99 12.4183 124.422 11.3076 124.405 10.158C124.423 9.58605 124.328 9.01622 124.125 8.48131C123.923 7.9464 123.617 7.45699 123.225 7.04126C122.839 6.63214 122.373 6.30673 121.857 6.08513C121.341 5.86353 120.785 5.75046 120.224 5.75289L118.033 5.75177ZM120.222 2.9857C124.305 2.9857 127.393 6.16181 127.393 10.158C127.393 14.1542 124.305 17.3303 120.222 17.3303H115.406C115.36 17.3297 115.315 17.32 115.272 17.3017C115.23 17.2834 115.191 17.2569 115.159 17.2237C115.127 17.1905 115.102 17.1512 115.085 17.1082C115.068 17.0652 115.059 17.0192 115.06 16.9729V3.36101C115.06 3.16271 115.215 3.00251 115.406 3.00251L120.222 2.9857ZM136.502 6.49006L134.808 11.2021H138.193L136.502 6.49006ZM133.814 13.8651L132.705 17.002C132.683 17.0758 132.637 17.1401 132.574 17.1847C132.511 17.2294 132.436 17.2518 132.359 17.2485H129.953C129.892 17.2542 129.83 17.2433 129.774 17.2169C129.719 17.1905 129.671 17.1495 129.637 17.0984C129.602 17.0466 129.58 16.9866 129.575 16.9242C129.57 16.8618 129.581 16.7991 129.607 16.7421L134.805 3.14255C134.829 3.07083 134.876 3.00903 134.938 2.96656C135.001 2.92408 135.076 2.90327 135.151 2.90728H137.843C137.918 2.90302 137.993 2.92372 138.056 2.96621C138.119 3.0087 138.166 3.07064 138.19 3.14255L143.388 16.7421C143.414 16.7992 143.425 16.8619 143.419 16.9244C143.414 16.9868 143.392 17.0467 143.357 17.0984C143.322 17.1493 143.275 17.1901 143.219 17.2163C143.164 17.2425 143.102 17.2532 143.041 17.2474H140.636C140.559 17.2507 140.484 17.2282 140.421 17.1836C140.358 17.139 140.312 17.0747 140.29 17.0009L139.181 13.864H133.814V13.8651ZM146.177 6.79591C146.177 4.54407 148.069 2.59695 151.057 2.59695C152.666 2.56091 154.224 3.16461 155.39 4.27631C155.426 4.31003 155.454 4.35067 155.474 4.39574C155.493 4.44082 155.503 4.48939 155.503 4.53847C155.503 4.58755 155.493 4.63611 155.474 4.68119C155.454 4.72627 155.426 4.7669 155.39 4.80062L154.058 6.16181C154.026 6.19488 153.988 6.22117 153.946 6.23913C153.904 6.25709 153.858 6.26635 153.812 6.26635C153.766 6.26635 153.721 6.25709 153.679 6.23913C153.637 6.22117 153.598 6.19488 153.567 6.16181C152.939 5.57176 152.115 5.23745 151.255 5.2241C150.059 5.2241 149.176 5.93775 149.176 6.76118C149.176 9.42306 156.238 7.8871 156.238 13.0092C156.235 15.605 154.328 17.5689 150.957 17.5689C150.021 17.5785 149.093 17.3992 148.227 17.0416C147.362 16.684 146.577 16.1554 145.919 15.4874C145.884 15.4536 145.855 15.413 145.836 15.3679C145.816 15.3228 145.807 15.2743 145.807 15.2252C145.807 15.1761 145.816 15.1276 145.836 15.0825C145.855 15.0374 145.884 14.9968 145.919 14.963L147.208 13.6366C147.24 13.6019 147.279 13.5742 147.322 13.5553C147.365 13.5364 147.412 13.5266 147.459 13.5266C147.506 13.5266 147.553 13.5364 147.596 13.5553C147.64 13.5742 147.679 13.6019 147.711 13.6366C148.522 14.4431 149.614 14.9012 150.756 14.9137C152.25 14.9137 153.234 14.0937 153.234 13.0663C153.234 10.4033 146.175 11.9404 146.175 6.8172M169.045 3.27475V8.65676H163.067V3.27475C163.068 3.22855 163.059 3.18269 163.042 3.13978C163.025 3.09687 163 3.05776 162.967 3.02468C162.935 2.9916 162.897 2.96519 162.855 2.94697C162.812 2.92875 162.767 2.91907 162.721 2.91848H160.453C160.407 2.91907 160.362 2.92875 160.32 2.94697C160.277 2.96519 160.239 2.9916 160.207 3.02468C160.175 3.05776 160.149 3.09687 160.132 3.13978C160.115 3.18269 160.107 3.22855 160.107 3.27475V16.8721C160.107 17.0692 160.264 17.2294 160.453 17.2294H162.721C162.911 17.2294 163.067 17.0692 163.067 16.8721V11.4049H169.04V16.8721C169.04 17.0692 169.197 17.2294 169.386 17.2294H171.654C171.845 17.2294 172 17.0692 172 16.8721V3.27475C172.001 3.22855 171.992 3.18269 171.975 3.13978C171.958 3.09687 171.933 3.05776 171.9 3.02468C171.868 2.9916 171.83 2.96519 171.788 2.94697C171.745 2.92875 171.7 2.91907 171.654 2.91848H169.386C169.294 2.92083 169.207 2.95955 169.143 3.02623C169.079 3.09292 169.043 3.18221 169.045 3.27475ZM34.1792 4.7334C32.6066 1.80937 29.5295 -0.0111518 26.1833 5.14117e-05H0.865201C0.694221 0.000747562 0.527226 0.0518946 0.385022 0.147119C0.242818 0.242344 0.131694 0.377437 0.065495 0.535564C0.000263687 0.692678 -0.0167254 0.865747 0.0167037 1.0326C0.0501327 1.19946 0.132458 1.35251 0.253135 1.47215L5.76842 6.96172C6.2554 7.44794 6.91884 7.72017 7.60909 7.72017H25.4573C26.7294 7.70673 27.7693 8.71726 27.7827 9.97538C27.7961 11.2335 26.7763 12.2642 25.5042 12.2765H13.1992C13.0281 12.2766 12.8608 12.3272 12.7182 12.422C12.5756 12.5169 12.464 12.6517 12.3973 12.8098C12.3314 12.9671 12.314 13.1405 12.3472 13.3078C12.3805 13.4752 12.4629 13.6287 12.5838 13.7486L18.1024 19.2427C18.5925 19.7286 19.254 20.0008 19.9431 20H25.5086C32.7496 20 38.2246 12.337 34.1792 4.73004" fill="#F2F2F2"/>
</svg>
