<svg width="98" height="69" viewBox="0 0 98 69" fill="none" xmlns="http://www.w3.org/2000/svg">
<path fill-rule="evenodd" clip-rule="evenodd" d="M0 1.20413H14.8818V40.9351C14.8818 47.2227 17.773 50.9681 20.0592 52.5736C17.6388 54.714 10.2425 56.5869 4.7289 52.0383C1.47827 49.3572 0 44.9484 0 40.8012V1.20413ZM93.0052 34.2077V30.0324H97.544V15.3843H92.5597C90.6462 6.58999 82.7756 0 73.3629 0C62.5194 0 53.7294 8.74462 53.7294 19.5311V53.7388C56.8186 54.1708 60.499 53.6852 63.6303 51.1021C66.8804 48.4205 68.3587 44.0122 68.3587 39.865V38.6047H75.7912V23.9566H68.3587V19.5311H68.3765C68.3765 16.7919 70.6088 14.5713 73.3629 14.5713C76.1165 14.5713 78.3576 16.7919 78.3576 19.5311V34.2077C78.3576 44.9942 87.157 53.7388 98 53.7388V39.1676C95.2464 39.1676 93.0052 36.947 93.0052 34.2077ZM36.6426 15.3843V36.882C36.6426 38.1023 35.6247 39.0918 34.3687 39.0918C33.1127 39.0918 32.0949 38.1023 32.0949 36.882V15.3843H17.3695V40.6677C17.3695 45.2158 18.9201 50.9681 25.9763 52.841C33.04 54.7159 37.1376 50.8346 37.1376 50.8346C36.7644 53.3916 34.3435 55.2646 30.4438 55.666C27.4932 55.9693 23.7198 54.9972 21.8375 54.1944V67.5896C26.6338 68.9966 31.7067 69.4512 36.6713 68.4928C45.6811 66.7538 51.3674 59.2626 51.3674 49.2961V15.3843H36.6426Z" fill="#F2F2F2"/>
</svg>
