<svg width="94" height="33" viewBox="0 0 94 33" fill="none" xmlns="http://www.w3.org/2000/svg">
<path d="M5.3978 23.0498C5.79427 24.0924 6.34318 24.9839 7.04463 25.7242C7.74607 26.4646 8.57708 27.0312 9.53765 27.4241C10.4983 27.817 11.5428 28.0133 12.6712 28.0133C13.7691 28.0133 14.7983 27.8093 15.759 27.4013C16.7196 26.9933 17.5582 26.4192 18.2749 25.6789C18.9915 24.9385 19.5481 24.0546 19.9446 23.0271C20.341 21.9997 20.5392 20.8514 20.5392 19.5821V0H25.3424V31.7303H20.585V28.7838C19.5176 29.9019 18.2596 30.7632 16.811 31.3677C15.3624 31.972 13.7996 32.2742 12.1223 32.2742C10.4144 32.2742 8.82102 31.9795 7.34191 31.3902C5.8629 30.801 4.58197 29.9625 3.49944 28.8745C2.4169 27.7866 1.56292 26.4798 0.937792 24.9536C0.312564 23.4275 0 21.7278 0 19.8541V0H4.80314V19.5821C4.80314 20.8514 5.00132 22.0072 5.3978 23.0498Z" fill="#F2F2F2"/>
<path d="M33.6216 0V11.5589C34.689 10.5012 35.9242 9.66269 37.327 9.04314C38.7298 8.42358 40.2546 8.11386 41.9013 8.11386C43.6092 8.11386 45.2101 8.43111 46.7045 9.0657C48.1988 9.7003 49.4948 10.5616 50.5927 11.6495C51.6906 12.7375 52.5598 14.0217 53.2002 15.5024C53.8406 16.9833 54.1608 18.5547 54.1608 20.2167C54.1608 21.8787 53.8406 23.4426 53.2002 24.9082C52.5598 26.3738 51.6906 27.6507 50.5927 28.7384C49.4948 29.8264 48.1988 30.6876 46.7045 31.3222C45.2101 31.9568 43.6091 32.2741 41.9013 32.2741C40.2545 32.2741 38.7222 31.9644 37.3041 31.3448C35.886 30.7254 34.6433 29.8867 33.5759 28.8291V31.7302H29.0015V0H33.6216ZM34.1477 23.3444C34.5593 24.3115 35.1312 25.1576 35.8631 25.8829C36.5951 26.6081 37.4489 27.1824 38.4248 27.6054C39.4007 28.0285 40.4528 28.24 41.5812 28.24C42.6791 28.24 43.7159 28.0285 44.6917 27.6054C45.6676 27.1824 46.5138 26.6082 47.2306 25.8829C47.9472 25.1577 48.519 24.3115 48.946 23.3444C49.3729 22.3774 49.5864 21.3349 49.5864 20.2167C49.5864 19.0986 49.3729 18.0485 48.946 17.0663C48.519 16.0842 47.9472 15.2305 47.2306 14.5053C46.5139 13.7801 45.6677 13.2134 44.6917 12.8055C43.7158 12.3976 42.679 12.1935 41.5812 12.1935C40.4834 12.1935 39.4465 12.3975 38.4706 12.8055C37.4948 13.2135 36.6409 13.7801 35.9089 14.5053C35.1771 15.2305 34.5976 16.0842 34.1707 17.0663C33.7437 18.0485 33.5303 19.0986 33.5303 20.2167C33.5301 21.3349 33.736 22.3774 34.1477 23.3444Z" fill="#F2F2F2"/>
<path d="M56.7678 15.5482C57.3776 14.0976 58.2164 12.8209 59.2837 11.7179C60.3509 10.6149 61.6166 9.74611 63.0805 9.11151C64.5443 8.47692 66.1301 8.15967 67.8379 8.15967C69.5152 8.15967 71.0705 8.46187 72.5038 9.06618C73.9371 9.67059 75.1722 10.5092 76.2091 11.582C77.2459 12.6547 78.0542 13.924 78.6334 15.3896C79.2129 16.8553 79.5026 18.4493 79.5026 20.1719V21.6678H60.5188C60.6714 22.6046 60.9763 23.4733 61.4337 24.274C61.8913 25.0748 62.4629 25.7699 63.1491 26.3592C63.8353 26.9485 64.6129 27.4094 65.4821 27.7417C66.3513 28.0741 67.2737 28.2404 68.2496 28.2404C71.0248 28.2404 73.2663 27.1071 74.9741 24.8406L78.3134 27.2884C77.1545 28.8296 75.7213 30.0384 74.0135 30.9147C72.3057 31.791 70.3844 32.2292 68.2497 32.2292C66.5114 32.2292 64.8875 31.9269 63.378 31.3226C61.8684 30.7183 60.5571 29.8721 59.444 28.7841C58.3309 27.6962 57.4541 26.4195 56.8137 24.9539C56.1733 23.4883 55.853 21.8941 55.853 20.1717C55.8528 18.5399 56.1579 16.9987 56.7678 15.5482ZM63.1948 13.7576C61.8987 14.8304 61.0373 16.2583 60.6103 18.0412H74.8368C74.4404 16.2583 73.5941 14.8304 72.298 13.7576C71.0019 12.6849 69.4847 12.1485 67.7465 12.1485C66.0081 12.1485 64.491 12.6849 63.1948 13.7576Z" fill="#F2F2F2"/>
<path d="M88.148 14.2786C87.1722 15.3363 86.6842 16.7717 86.6842 18.5849V31.7304H82.064V8.61259H86.6383V11.4683C87.2178 10.5315 87.9726 9.79112 88.9027 9.24719C89.8328 8.70317 90.9383 8.43115 92.2192 8.43115H93.8202V12.6921H91.899C90.3742 12.6922 89.1239 13.221 88.148 14.2786Z" fill="#F2F2F2"/>
</svg>
