<svg width="162" height="51" viewBox="0 0 162 51" fill="none" xmlns="http://www.w3.org/2000/svg">
<path d="M74.6148 33.4973V17.2051H85.9484V18.8436H76.239V24.6143H84.8061V25.9946H76.239V31.7296H85.9484V33.4973H74.6148Z" fill="#F2F2F2"/>
<path d="M87.7511 17.2051V18.8436H93.6321V33.4973H95.3143V18.8436H101.119V17.2051H87.7511Z" fill="#F2F2F2"/>
<path d="M118.075 17.2051L112.293 26.6358L106.514 17.2051H102.976V33.4973H107.023V25.3534L111.146 31.9077H112.293H113.439L117.562 25.3534V33.4973H121.614V17.2051H118.075Z" fill="#F2F2F2"/>
<path d="M158.462 17.1914L152.679 26.6221L146.9 17.1914H143.362V33.488H147.413V25.3397L151.532 31.8984H152.679H153.825L157.948 25.3397V33.488H162V17.1914H158.462Z" fill="#F2F2F2"/>
<path d="M135.812 29.4584C135.113 29.8546 134.323 30.0632 133.519 30.0639C132.263 30.0639 131.059 29.5662 130.171 28.6802C129.283 27.7943 128.784 26.5926 128.784 25.3397C128.784 24.0867 129.283 22.8851 130.171 21.9991C131.059 21.1132 132.263 20.6154 133.519 20.6154C134.314 20.6104 135.1 20.79 135.814 21.1401C136.528 21.4902 137.15 22.0011 137.633 22.6325C138.293 21.978 139.725 20.5531 140.591 19.7116C139.648 18.7606 138.523 18.0084 137.282 17.4998C136.042 16.9911 134.712 16.7363 133.371 16.7506C128.253 16.7506 124.099 20.6154 124.099 25.3798C124.099 30.1441 128.253 34.009 133.371 34.009C136.013 34.009 138.628 33.0205 140.064 31.7826V24.8098H135.794L135.812 29.4584Z" fill="#F2F2F2"/>
<path d="M69.0149 25.1264C69.7627 24.8937 70.4092 24.4146 70.8486 23.7675C71.2879 23.1204 71.4941 22.3436 71.4333 21.5643C71.4333 21.5643 71.7992 17.2007 66.8195 17.2007H58.4532V33.4973H67.944C71.1611 33.4973 71.9599 30.7946 71.9599 29.2139C71.9599 27.6332 71.8394 25.6117 69.0149 25.1264ZM60.1844 18.7457H66.3778C69.47 18.7457 69.4611 21.3238 69.4611 21.3238C69.4611 21.3238 69.4611 24.4896 66.4224 24.4896H60.1755L60.1844 18.7457ZM66.8463 32.0591H60.1844V25.9946H66.7972C70.0992 25.9946 70.0902 28.7107 70.0902 28.7107C70.0902 28.7107 70.4651 32.0591 66.8463 32.0591Z" fill="#F2F2F2"/>
<path d="M11.6683 22.1294C11.6683 22.1294 5.5999 23.5987 2.55231 21.0474C2.55231 21.0474 2.15072 28.4521 5.22955 32.6865H5.64899C5.64899 32.6865 3.49827 25.8607 11.6683 22.1294Z" fill="#F2F2F2"/>
<path d="M4.73872 5.78845C3.62942 4.16333 1.92994 3.03274 0 2.63599L0 10.2411C4.25236 11.6704 6.58156 8.55353 4.73872 5.78845Z" fill="#F2F2F2"/>
<path d="M14.6222 17.5837C15.4745 18.6924 15.818 18.8749 15.1532 17.6638C14.9041 17.1941 14.5183 16.8107 14.0466 16.564C13.4615 16.337 12.8354 16.2339 12.2082 16.2612C10.9633 16.2256 10.8696 15.7358 9.87456 15.2727C9.58453 15.1392 7.89787 14.6048 6.84928 15.1926C5.80069 15.7803 4.77442 17.0404 3.02975 17.4189C1.15568 17.7128 3.1993 18.0734 3.77045 17.8642C4.21666 17.7172 4.83242 16.8846 5.55528 16.9113C6.02826 16.9113 6.22905 17.2185 5.93009 17.4367C5.63113 17.6549 3.76153 17.882 4.18542 18.1269C4.42637 18.2783 4.7878 18.4029 5.79623 18.2827C6.53957 18.0915 7.23833 17.7572 7.85325 17.2987C8.67873 16.6976 12.5206 16.751 13.3371 16.9425C13.8183 17.0285 14.2645 17.2511 14.6222 17.5837Z" fill="#F2F2F2"/>
<path d="M18.8255 13.7719C19.9633 14.2171 19.8696 13.7719 18.9281 13.1841C18.4819 12.908 18.3347 12.4093 17.7769 12.1333C16.6658 11.5767 17.3708 12.6364 17.3708 12.6364C17.7322 13.1505 18.2385 13.5457 18.8255 13.7719Z" fill="#F2F2F2"/>
<path d="M7.40704 7.80992C7.64799 9.34162 7.66584 9.07001 9.01785 8.80731C9.87508 8.53824 10.7859 8.48622 11.6683 8.65592C12.1993 8.73161 12.7705 8.7227 13.0962 7.76539C13.3193 7.12421 14.7248 4.17212 11.7665 0H0V1.33579C2.88696 1.78105 6.69311 3.27714 7.40704 7.80992Z" fill="#F2F2F2"/>
<path d="M7.53644 43.5692C7.53644 39.74 3.68567 34.4814 0 30.5186V50.7602H4.46207C5.45771 49.8489 6.24697 48.736 6.77714 47.4959C7.30731 46.2558 7.56617 44.9171 7.53644 43.5692Z" fill="#F2F2F2"/>
<path d="M16.1839 42.4556C13.8592 38.2078 9.9995 34.806 10.2628 30.8565C10.5037 27.1787 13.3059 24.1776 14.1894 23.4607L14.0288 23.2158C14.0288 23.2158 9.34358 27.0317 9.18294 32.1834C9.02231 37.3351 10.0397 42.7451 8.67427 46.7524C8.2073 48.1702 7.54985 49.5183 6.71988 50.7598H14.3902C15.6173 48.8674 18.2588 46.2448 16.1839 42.4556Z" fill="#F2F2F2"/>
<path d="M24.6842 0C32.1805 6.4296 37.1512 15.277 37.1512 25.055C37.1512 35.1669 32.1805 44.2859 24.2112 50.76H50.466V0H24.6842Z" fill="#F2F2F2"/>
<path d="M21.1904 5.39663C17.9375 5.61481 15.171 8.01478 15.0059 8.78508C16.0947 8.95428 18.4596 10.909 19.8071 12.1958C20.887 13.2377 19.3609 14.1104 20.2266 14.2752C20.646 14.3553 22.6896 14.3331 22.3907 15.8425C23.8364 16.0072 24.7466 16.123 24.827 17.2228C24.6663 18.0822 24.5414 18.7011 22.7566 18.5987C20.7754 18.4918 18.8032 18.1534 18.6827 18.3226C18.5622 18.4918 20.5746 19.2131 21.3332 19.2131C22.0917 19.2131 23.002 19.881 23.4437 20.2907C23.8855 20.7003 24.7823 20.0636 25.0367 18.9549C25.291 17.8462 26.4333 18.3671 26.7947 19.1063C27.1562 19.8454 26.7947 21.7779 27.3123 22.2632C27.8299 22.7485 34.1393 29.2316 28.7937 42.3713L29.4854 42.1086C33.2647 37.9097 34.8399 31.3777 34.5721 25.6338C34.2642 19.0484 34.6435 14.7249 27.6425 7.68528C26.4216 6.47812 24.8424 5.69719 23.1403 5.45896C22.4953 5.35866 21.8405 5.33773 21.1904 5.39663Z" fill="#F2F2F2"/>
<path d="M27.9861 42.6474C30.4447 37.6293 30.9177 27.7489 26.0139 23.6302C25.416 23.7415 24.2648 23.8662 23.6356 23.4165C22.4621 24.2224 20.1864 26.2929 18.9861 26.7115C17.3396 27.2858 14.3277 26.4844 13.9663 25.3757C13.3585 26.175 12.9294 27.0951 12.708 28.074C12.1725 30.2424 12.0342 32.1882 13.0426 33.4527C13.6406 34.2097 16.3312 36.6898 18.3347 36.761C22.5781 36.908 24.3897 35.1047 24.3897 35.1047C24.5771 35.0022 25.9023 36.0308 25.2821 36.6987C24.1354 37.9054 22.1051 39.958 19.2538 39.958C17.3842 39.8289 17.4378 39.958 18.4239 41.3962C19.0307 42.2868 19.1512 46.4678 16.4517 50.7468H18.357C20.4686 49.6875 22.4649 48.4132 24.3138 46.9442C25.5409 45.9335 27.5979 43.6715 27.9861 42.6474ZM24.5414 33.9203C22.8547 36.3247 19.2092 36.2668 19.2092 36.2668C17.8706 35.3763 18.9326 33.5151 18.9326 33.5151C18.994 33.7294 19.0974 33.9295 19.2368 34.1038C19.3762 34.278 19.5488 34.423 19.7447 34.5303C19.7447 34.5303 20.7843 34.606 20.8959 34.223C21.0074 33.8401 22.2077 33.3325 22.7833 33.5507C22.81 33.4651 22.8554 33.3865 22.9162 33.3206C22.977 33.2546 23.0517 33.2029 23.1349 33.1693C23.2182 33.1356 23.3079 33.1208 23.3975 33.126C23.4872 33.1311 23.5746 33.156 23.6534 33.1989C23.7217 32.8241 23.888 32.4739 24.1354 32.1837C24.3337 32.4217 24.4737 32.7026 24.5442 33.0041C24.6146 33.3055 24.6137 33.6192 24.5414 33.9203ZM24.412 27.0988C24.2826 25.8922 23.466 25.763 23.466 25.763C22.0426 25.7987 20.5969 27.74 20.5969 27.74C20.5612 28.5326 20.4318 29.6235 20.4318 29.6235C19.5037 28.6172 19.9499 27.1612 19.9499 27.1612C20.4675 25.4959 23.5776 24.4896 23.6891 24.6098C24.0474 24.7046 24.4241 24.7046 24.7824 24.6098C24.9328 25.0217 24.9793 25.4642 24.9178 25.8983C24.8563 26.3323 24.6887 26.7447 24.4298 27.0988H24.412Z" fill="#F2F2F2"/>
<path d="M14.0198 0C15.1223 1.86359 15.6137 4.02434 15.4254 6.18025C15.4254 6.18025 19.1111 2.91202 23.2028 3.81591C23.2028 3.81591 19.8696 0.601105 17.6475 0H14.0198Z" fill="#F2F2F2"/>
</svg>
