<svg width="169" height="30" viewBox="0 0 169 30" fill="none" xmlns="http://www.w3.org/2000/svg">
<path d="M45.8757 16.4106C45.8757 11.6364 48.9237 11.5508 53.0315 11.5508H53.4998C57.5068 11.5508 59.7017 12.2271 59.7017 16.8464V20.0633C59.7017 23.9336 58.7061 25.5804 53.3576 25.5804H52.3358C47.2612 25.5804 45.8757 24.1819 45.8757 20.3294V16.4106ZM45.8757 26.6727H45.9583C47.2177 28.3397 49.5378 29.2004 52.3888 29.2004H53.8632C59.8266 29.2004 64.1899 27.6781 64.1872 20.7861V16.5779C64.1872 10.1998 61.3788 7.93032 54.0495 7.93032H51.7717C48.5708 7.93032 46.7891 9.01896 45.9535 10.1957H45.8757V0.00167084H41.3908V28.5475H45.8757V26.6727Z" fill="#F2F2F2"/>
<path d="M118.557 8.43709H112.535V6.59627C112.535 4.83904 113.684 3.4247 116.133 3.4247L120.606 3.42936V0.000253677L114.659 0.00177956C111.064 0.00177956 108.047 1.87751 108.047 6.61495V8.43709H105.632V12.0491H108.047V29.1921H112.535V12.0491H118.557V8.43709Z" fill="#F2F2F2"/>
<path d="M92.6343 22.5732C92.6343 27.3124 95.6532 29.1921 99.2497 29.1921H104.819V25.5792L100.343 25.5806C97.8975 25.5806 97.1213 24.3531 97.1213 22.5942V12.0491H103.148V8.43709H97.1213V0.000253677H92.6373V8.43709H90.2221V12.0491H92.6373L92.6343 22.5732Z" fill="#F2F2F2"/>
<path d="M144.296 4.56714H148.782V1.85966e-05L144.296 0.00154352V4.56714Z" fill="#F2F2F2"/>
<path d="M144.293 29.1965H148.782V7.93027H144.296L144.293 29.1965Z" fill="#F2F2F2"/>
<path d="M70.9158 16.0416C70.9158 11.957 72.8135 11.5493 77.4418 11.5493L78.3483 11.5507C83.5549 11.5507 84.2265 12.8644 84.2265 15.5505L84.231 16.6907L70.9158 16.696V16.0416ZM75.8067 29.1965H79.8409C85.274 29.1965 87.7569 27.467 88.3918 24.4433L84.4012 23.2315C83.7391 25.0947 82.141 25.5804 78.6246 25.5804H77.5891C71.8465 25.5804 70.9132 24.8526 70.9075 20.3107L70.9158 20.3065H88.7149V16.3723C88.7149 9.25414 85.0272 7.93026 79.1344 7.93026H76.9404C72.2758 7.93026 66.6206 8.74885 66.6206 15.9926V21.014C66.6206 28.0507 71.5213 29.2004 75.8067 29.1965Z" fill="#F2F2F2"/>
<path d="M135.829 22.8431C135.829 24.8402 134.463 25.5804 129.152 25.5804H127.952C123.439 25.5804 122.866 24.7079 122.866 22.984L122.867 21.8625C122.866 19.8646 123.991 19.1106 127.728 19.1106H129.726C133.131 19.1106 135.829 19.7806 135.829 22.0174V22.8431ZM130.254 7.93027H128.577C122.494 7.93027 119.857 9.8075 119.686 12.6187L123.962 14.0398C124.158 12.119 126.357 11.5507 129.691 11.5507C134.65 11.5507 135.822 11.8388 135.822 15.4299V17.381H135.733C134.612 15.8829 133.082 15.4958 129.198 15.4958H127.445C121.717 15.4958 118.382 16.9256 118.382 21.4688V22.7676C118.387 26.5185 119.812 29.1965 125.791 29.1965H130.142C134.471 29.1965 134.904 28.4845 135.759 27.2422H135.829V29.192H140.311V15.5223C140.311 9.5676 136.368 7.93027 130.254 7.93027Z" fill="#F2F2F2"/>
<path d="M162.462 7.93027C160.47 7.93027 158.436 8.68735 157.178 10.7555H157.017V7.93027L152.768 7.93317V29.1965H157.254V16.4018C157.254 13.8203 158.734 11.5493 162.217 11.5493C164.708 11.5493 165.908 12.227 166.175 12.9378L169 11.0269C168.304 9.09222 166.432 7.93027 162.462 7.93027Z" fill="#F2F2F2"/>
<path d="M33.129 0.0733719H21.5166V5.91524H15.3104L27.3232 19.9844L39.3399 5.91524H33.129V0.0733719Z" fill="#F2F2F2"/>
<path d="M0 23.2189H6.2088V29.0664H17.8206V23.2189H24.0298L12.0182 9.15425L0 23.2189Z" fill="#F2F2F2"/>
</svg>
