<svg width="177" height="32" viewBox="0 0 177 32" fill="none" xmlns="http://www.w3.org/2000/svg">
<path d="M42.0385 25.6325H45.4848C45.6283 25.6325 45.754 25.5087 45.754 25.3671V17.4598H51.9286C52.0363 17.4598 52.144 17.389 52.1799 17.2829L53.2748 14.311C53.3286 14.1695 53.2568 14.028 53.1133 13.9749C53.0774 13.9572 53.0594 13.9572 53.0235 13.9572H45.754V9.00405H55.0338C55.1415 9.00405 55.2492 8.93329 55.2851 8.82715L56.398 5.85526C56.4518 5.71374 56.38 5.57222 56.2365 5.51915C56.2006 5.50146 56.1826 5.50146 56.1467 5.50146H42.0385C41.8949 5.50146 41.7692 5.62529 41.7692 5.76681V25.3671C41.7692 25.5264 41.8949 25.6325 42.0385 25.6325Z" fill="#F2F2F2"/>
<path d="M64.1162 5.67836L56.8826 25.2787C56.8288 25.4202 56.9006 25.5617 57.0442 25.6148C57.0801 25.6325 57.098 25.6325 57.1339 25.6325H60.7238C60.8315 25.6325 60.9392 25.5617 60.9751 25.4556L62.1418 22.0768H69.4113L70.5601 25.4556C70.596 25.5617 70.7037 25.6325 70.8114 25.6325H74.3833C74.5269 25.6325 74.6525 25.5087 74.6525 25.3671C74.6525 25.3318 74.6525 25.3141 74.6346 25.2787L67.383 5.67836C67.3471 5.57222 67.2394 5.50146 67.1317 5.50146H64.3855C64.2598 5.50146 64.1701 5.57222 64.1162 5.67836ZM63.2726 18.7688L65.8573 11.4452L68.3523 18.7688H63.2726Z" fill="#F2F2F2"/>
<path d="M90.9686 17.8313L82.9452 5.62529C82.8913 5.55453 82.8016 5.50146 82.7118 5.50146H79.5707C79.4271 5.50146 79.3014 5.62529 79.3014 5.76681V25.3671C79.3014 25.5087 79.4271 25.6325 79.5707 25.6325H83.017C83.1606 25.6325 83.2862 25.5087 83.2862 25.3671V13.2673L91.3096 25.5087C91.3634 25.5794 91.4532 25.6325 91.5429 25.6325H94.6841C94.8277 25.6325 94.9533 25.5087 94.9533 25.3671V5.76681C94.9533 5.62529 94.8277 5.50146 94.6841 5.50146H91.2378C91.0942 5.50146 90.9686 5.62529 90.9686 5.76681V17.8313Z" fill="#F2F2F2"/>
<path d="M133.419 18.5919C133.419 20.9093 132.019 22.3068 129.865 22.3068C127.711 22.3068 126.329 20.927 126.329 18.5919V5.76681C126.329 5.62529 126.203 5.50146 126.06 5.50146H122.613C122.47 5.50146 122.344 5.62529 122.344 5.76681V18.7335C122.344 23.0144 125.683 25.8094 129.865 25.8094C134.047 25.8094 137.386 23.0144 137.386 18.7335V5.76681C137.386 5.62529 137.26 5.50146 137.116 5.50146H133.706C133.563 5.50146 133.437 5.62529 133.437 5.76681L133.419 18.5919Z" fill="#F2F2F2"/>
<path d="M157.363 8.82715L158.458 5.85526C158.512 5.71374 158.44 5.57222 158.297 5.51915C158.261 5.50146 158.243 5.50146 158.207 5.50146H144.117C143.973 5.50146 143.848 5.62529 143.848 5.76681V25.3671C143.848 25.5087 143.973 25.6325 144.117 25.6325H158.207C158.351 25.6325 158.476 25.5087 158.476 25.3671C158.476 25.3318 158.476 25.3141 158.458 25.2787L157.363 22.3068C157.328 22.2007 157.22 22.1299 157.112 22.1299H147.832V17.2298H155.299C155.443 17.2298 155.568 17.106 155.568 16.9645V13.9926C155.568 13.8511 155.443 13.7272 155.299 13.7272H147.832V9.00405H157.112C157.22 9.00405 157.328 8.93329 157.363 8.82715Z" fill="#F2F2F2"/>
<path d="M175.654 22.1299H167.218V5.76681C167.218 5.62529 167.092 5.50146 166.948 5.50146C166.948 5.50146 166.948 5.50146 166.93 5.50146H163.484C163.341 5.50146 163.215 5.62529 163.215 5.76681V25.3671C163.215 25.5087 163.341 25.6325 163.484 25.6325H176.731C176.874 25.6325 177 25.5087 177 25.3671C177 25.3318 177 25.3141 176.982 25.2787L175.887 22.3068C175.869 22.2007 175.762 22.1299 175.654 22.1299Z" fill="#F2F2F2"/>
<path d="M114.5 7.42966C113.154 6.10292 111.233 5.50146 109.097 5.50146H100.984C100.841 5.50146 100.715 5.62529 100.715 5.76681C100.715 5.7845 100.715 5.80219 100.715 5.81988L101.307 8.79177C101.343 8.9156 101.433 9.00405 101.559 9.00405H108.685C110.067 9.00405 110.982 9.42861 111.664 10.2423C112.418 11.1445 112.526 12.4182 112.526 15.4785C112.526 18.5389 112.418 19.9718 111.664 20.8739C110.982 21.6877 110.049 22.1122 108.685 22.1122H105.723V11.6575C105.723 11.516 105.597 11.3922 105.454 11.3922H102.007C101.864 11.3922 101.738 11.516 101.738 11.6575V25.3848C101.738 25.5264 101.864 25.6502 102.007 25.6502H109.115C111.233 25.6502 113.172 25.0487 114.518 23.722C116.816 21.4577 116.582 18.5212 116.582 15.4962C116.564 12.4536 116.798 9.67627 114.5 7.42966Z" fill="#F2F2F2"/>
<path d="M13.0681 5.14774C13.6784 3.85638 14.3784 2.63579 15.1861 1.50364C15.5092 1.0437 15.8502 0.619144 16.1913 0.212278C16.2451 0.123829 16.1913 0 16.0836 0C15.9938 0 15.9041 0 15.8143 0C12.2065 0 8.72431 0.601455 5.49342 1.69822C3.82413 2.2643 2.20868 2.97189 0.665029 3.80332C0.234243 4.03328 -0.0170486 4.47553 0.000900823 4.95315C0.0367996 6.72214 0.234243 8.43805 0.575282 10.1186C0.880422 11.693 1.31121 13.232 1.84969 14.7179C2.49587 16.5046 3.30359 18.2205 4.27286 19.8303C6.0319 22.8199 8.27558 25.4911 10.9141 27.7377C11.3629 28.1268 11.8296 28.4983 12.2962 28.8521C12.4039 28.9229 12.5475 28.8167 12.4937 28.7106C12.2962 28.233 12.1168 27.7377 11.9552 27.2423C11.1475 24.8542 10.6449 22.2892 10.4834 19.6357C10.4834 19.5119 10.4295 19.4058 10.3757 19.3173C9.71153 18.4151 9.1192 17.4953 8.58072 16.5046C9.06535 16.2393 9.58589 16.0093 10.1064 15.8147C10.3398 15.7263 10.4834 15.514 10.5013 15.2663C10.627 13.4973 10.8962 11.7461 11.327 10.0832C11.3449 9.99476 11.2731 9.90631 11.1834 9.924C9.54999 10.2955 7.97044 10.8439 6.51654 11.5692C6.1037 10.1893 5.79856 8.77416 5.61907 7.32359C7.80889 6.40372 10.1603 5.78458 12.6014 5.48385C12.7809 5.48385 12.9604 5.34233 13.0681 5.14774Z" fill="#F2F2F2"/>
<path d="M30.9637 3.80342C29.42 2.972 27.8225 2.2821 26.1353 1.69833C23.8916 0.937669 21.5582 0.424664 19.1171 0.177006C18.9196 0.159317 18.7401 0.230076 18.5965 0.353905C17.2862 1.68064 16.1195 3.29042 15.1682 5.13016C15.1323 5.21861 15.1861 5.30706 15.2759 5.30706C15.4554 5.30706 15.6169 5.30706 15.7964 5.30706C19.4222 5.30706 22.8864 6.03234 26.0455 7.34139C25.866 8.79196 25.5609 10.2248 25.1481 11.587C24.6275 13.3029 23.9275 14.948 23.0659 16.5047C21.271 19.7597 18.776 22.6077 15.7964 24.8189C14.7554 24.0406 13.7861 23.2092 12.8886 22.2893C12.7989 22.2009 12.6553 22.2716 12.6732 22.3954C12.9066 23.7399 13.2117 25.0489 13.6066 26.2872C14.163 28.0208 14.881 29.6129 15.7426 31.0635C15.7785 31.1165 15.8503 31.1519 15.9221 31.1165C17.6273 30.1259 19.2427 28.9937 20.7325 27.7201C23.3531 25.4735 25.6148 22.8023 27.3738 19.8127C28.3251 18.1853 29.1328 16.487 29.797 14.7004C30.3354 13.2144 30.7662 11.6754 31.0714 10.101C31.3945 8.42047 31.5919 6.68687 31.6458 4.93557C31.6458 4.45795 31.3945 4.0157 30.9637 3.80342Z" fill="#F2F2F2"/>
</svg>
