<svg width="187" height="38" viewBox="0 0 187 38" fill="none" xmlns="http://www.w3.org/2000/svg">
<path d="M75.6682 10.5951C75.8523 10.7185 76.0719 10.786 76.2798 10.8007C76.6449 10.8271 77.307 10.6216 77.9126 10.2223C78.1115 10.0901 78.2956 9.94039 78.4618 9.78478C78.827 9.45006 79.0645 9.10947 79.2219 8.7454C79.4356 8.23158 79.5187 7.77061 79.3614 7.32726C79.3169 7.19807 79.2575 7.07475 79.1803 6.97199C78.7647 6.46698 78.1264 6.51689 77.6217 6.66663C77.4317 6.71948 77.0309 6.89271 76.6241 7.15403C76.0007 7.55334 75.4337 8.26975 75.2882 8.79531C75.2377 8.95973 75.208 9.13296 75.1961 9.30326C75.2229 9.77303 75.1041 10.1665 75.6652 10.5981L75.6682 10.5951Z" fill="#F2F2F2"/>
<path d="M53.4852 28.5997C53.1942 28.9403 52.8974 29.2721 52.6509 29.5451C52.1462 30.103 51.7959 30.4377 51.3595 30.793C50.9676 31.1101 50.5876 31.3861 50.2789 31.5417C49.7296 31.8059 49.1923 32.0144 48.6044 31.8823C48.4649 31.8265 48.3283 31.7619 48.1888 31.5299C47.9394 31.0396 48.168 30.5023 48.3521 29.9856C48.5658 29.4923 48.8419 29.046 49.1091 28.5762C54.9637 21.3182 60.8241 14.066 66.6816 6.81089L62.4926 6.83144L46.7074 27.4223C46.4461 27.7659 46.173 28.1006 45.8939 28.4294C45.6148 28.7583 45.3269 29.0812 45.0745 29.3514C44.5609 29.9033 44.1601 30.2733 43.694 30.6579C43.2546 31.0161 42.842 31.3332 42.4857 31.5094C41.8919 31.7707 41.3249 31.988 40.6361 31.6944C40.1611 31.2921 40.173 30.8165 40.3214 30.332C40.5619 29.5833 41.0904 28.7817 41.7079 28.0565L52.2027 14.9057L48.2749 14.8822L40.1641 25.922C39.0805 27.4605 38.3561 28.9432 38.4867 30.4994C38.5105 30.7313 38.558 30.9633 38.6262 31.1864C38.7153 31.4448 38.8489 31.6856 39.0181 31.897C39.3981 32.3667 39.9028 32.631 40.3957 32.7308C42.1146 33.0244 43.8335 32.2287 45.6564 30.1823C45.8939 29.9063 46.1403 29.6332 46.3897 29.3602C46.2502 30.2116 45.9711 31.0308 46.5589 31.9586C46.9983 32.5634 47.4941 32.6926 48.0077 32.8306C49.1062 33.0978 50.2996 32.7132 51.4694 31.7736C52.452 31.0484 53.4466 30.0648 54.2571 29.14C54.171 29.5128 54.1324 29.8975 54.1383 30.2762C54.1413 30.4671 54.1591 30.6579 54.1769 30.793C54.2125 31.0514 54.2511 31.1541 54.3016 31.3244C54.3432 31.4771 54.4738 31.7678 54.7143 32.0584C55.023 32.4108 55.3704 32.5781 55.7415 32.6809C56.3976 32.8629 57.1546 32.8336 57.8167 32.5928C58.4995 32.3491 59.2684 31.9439 60.0047 31.2598C60.7024 30.5816 61.3407 29.8857 61.9344 29.1781C61.7919 30.0971 61.4772 30.9457 62.0977 31.9557C62.2165 32.1289 62.3649 32.2845 62.5341 32.4108C63.1131 32.8306 63.8701 32.9275 64.6004 32.8101C65.3753 32.675 66.4055 32.1172 67.4 31.3861C67.7207 31.1453 68.0265 30.8869 68.2907 30.6491C68.8399 30.1529 69.2377 29.7213 69.6237 29.2457C69.4752 30.1735 69.5049 31.1248 70.0809 32.0995C70.1878 32.2845 70.4223 32.5077 70.642 32.6075C71.0339 32.7925 71.4643 32.8776 71.883 32.8659C72.5628 32.8424 73.6078 32.4754 74.5905 31.8206C75.5643 31.1482 76.3451 30.2645 77.212 29.4688C77.0576 30.3907 76.7934 31.3127 77.6246 32.3286C78.0789 32.8394 78.6073 32.8571 79.1209 32.8776C79.8156 32.8864 80.54 32.6515 81.2377 32.2258C81.4871 32.079 81.9265 31.7296 82.3837 31.3068C82.639 31.066 82.8824 30.8135 83.0576 30.6256C83.396 30.2615 83.5385 30.0824 83.7582 29.8211L93.9858 17.466C94.2471 17.1489 94.538 16.8318 94.8824 16.5265C95.3247 16.133 95.684 15.8717 96.0284 15.7366C96.441 15.584 96.8448 15.4137 97.3376 15.8335C97.777 16.2769 97.6493 16.8436 97.5335 17.3632C97.2842 18.1971 96.4856 19.028 95.8977 19.8266C92.4391 24.1192 88.9774 28.4118 85.5187 32.7073C86.8369 32.7044 88.158 32.7014 89.4762 32.6956L98.7508 20.5107C99.5405 19.5007 100.401 18.6463 101.384 17.6715C102.209 16.8758 103.041 16.1741 103.893 15.6838C104.101 15.5634 104.338 15.5047 104.57 15.5106C104.816 15.5282 105.027 15.537 105.229 15.7601C105.359 15.9157 105.401 16.0978 105.413 16.271C105.416 16.5852 105.261 17.2575 104.935 17.8037C104.62 18.3233 104.273 18.8342 103.887 19.3392C100.312 23.7874 96.7379 28.2356 93.1634 32.6868C94.4252 32.7014 95.6899 32.7191 96.9546 32.7308C100.247 28.4881 103.528 24.2484 106.832 19.9999C106.954 19.8501 107.197 19.5741 107.449 19.2717C107.904 18.7315 108.405 18.0444 109.121 17.3867C109.519 17.0197 109.902 16.6997 110.219 16.503C110.73 16.2064 111.229 15.9128 111.763 15.9745C111.962 16.0097 112.149 16.0185 112.297 16.2211C112.381 16.3415 112.404 16.4795 112.419 16.6145C112.434 16.7144 112.398 16.9669 112.336 17.2282C112.297 17.3838 112.244 17.5365 112.176 17.6833C112.036 18.0004 111.733 18.4525 111.386 18.9429C110.095 20.6194 108.747 22.2489 107.426 23.9019C107.298 24.0605 107.176 24.2279 107.058 24.3952C106.936 24.5596 106.82 24.7299 106.648 24.9883C106.479 25.2496 106.256 25.6019 106.048 25.9631C105.84 26.3242 105.65 26.6942 105.502 26.9907C105.202 27.5809 105.039 27.9479 104.878 28.4235C104.599 29.3249 104.436 30.2762 104.843 31.2862C104.935 31.4888 105.06 31.6767 105.205 31.8441C105.766 32.4577 106.514 32.6897 107.242 32.8013C107.512 32.8365 107.782 32.8394 107.981 32.8365C108.358 32.8277 108.53 32.7866 108.791 32.7279C108.913 32.6985 109.032 32.6633 109.246 32.5781C109.673 32.4108 110.374 32.0849 110.938 31.709C111.736 31.1894 112.63 30.4201 113.521 29.3748C113.788 29.0577 114.04 28.7289 114.432 28.174C114.824 27.619 115.352 26.8351 115.851 26.0336C117.383 23.5555 118.464 21.1684 119.123 18.7491C119.351 17.9182 119.532 17.0726 119.651 16.4619C119.767 15.8511 119.817 15.4724 119.862 15.0936C119.999 13.9574 120.052 12.8182 119.91 11.6731C119.785 10.6542 119.565 9.73818 119.173 8.83386C119.055 8.55787 118.921 8.28775 118.796 8.05579C118.559 7.62125 118.318 7.28066 117.995 6.91071C117.843 6.74042 117.683 6.57893 117.463 6.37928C117.244 6.18256 116.961 5.94767 116.662 5.73627C115.341 4.80553 113.966 4.44145 112.574 4.4209C111.463 4.4209 110.163 4.58238 108.877 5.08739C108.462 5.25182 108.055 5.44853 107.758 5.61002C107.458 5.77151 107.265 5.89776 107.072 6.02988C106.577 6.34992 105.989 6.87842 105.686 7.38343C105.051 8.45217 104.662 9.72057 105.06 10.9978C105.152 11.2561 105.285 11.4969 105.457 11.7112C105.63 11.9226 105.837 12.1047 105.983 12.2192C106.265 12.4335 106.36 12.4482 106.544 12.5245C106.859 12.6391 107.322 12.7183 107.758 12.7536C108.248 12.7947 108.824 12.7741 109.391 12.5451C109.575 12.4746 109.75 12.3865 110.032 12.1898C110.314 11.9902 110.7 11.6819 111.033 11.3237C111.365 10.9655 111.647 10.5603 111.873 10.1228C112.096 9.68827 112.262 9.22143 112.363 8.74578L112.167 8.64889C111.912 9.20087 111.579 9.74699 111.104 10.299C110.608 10.8392 110.05 11.215 109.477 11.4587C109.168 11.5909 108.845 11.6848 108.61 11.7435C108.162 11.8551 107.963 11.8551 107.654 11.8463C107.298 11.8258 106.986 11.77 106.68 11.5527C106.597 11.4969 106.523 11.4323 106.422 11.3119C106.194 11.0477 105.962 10.619 105.894 10.2432C105.739 9.42402 105.977 8.34353 106.737 7.44215C106.93 7.21313 107.167 6.97824 107.429 6.76391C107.687 6.54957 107.969 6.36166 108.263 6.20018C109.931 5.35752 111.796 5.08446 113.628 5.46028C114.518 5.66581 115.409 6.00639 116.299 6.74042C116.472 6.88723 116.632 7.04284 116.783 7.2102C116.935 7.37755 117.077 7.55079 117.249 7.81503C117.627 8.38757 118.039 9.20381 118.262 9.93784C118.49 10.6777 118.618 11.403 118.677 12.0694C118.707 12.3865 118.722 12.7036 118.728 13.103C118.743 13.9163 118.704 14.9615 118.588 15.904C118.532 16.3826 118.458 16.8582 118.339 17.422C118.102 18.5494 117.71 19.9265 117.247 21.1831C117.018 21.8114 116.769 22.4339 116.433 23.1532C116.098 23.8726 115.679 24.6888 115.216 25.4816C114.756 26.2743 114.254 27.0465 113.889 27.5838C113.524 28.1211 113.298 28.4265 113.063 28.726C112.829 29.0254 112.582 29.3161 112.351 29.5716C111.603 30.3907 110.908 30.8957 110.13 31.3127C109.599 31.5887 109.079 31.7384 108.539 31.7766C108.266 31.7971 107.99 31.7854 107.785 31.7648C107.58 31.7413 107.449 31.7061 107.328 31.6474C106.577 31.2246 106.678 30.5346 106.838 29.9562C106.915 29.7125 107.081 29.413 107.28 29.093C107.387 28.9227 107.503 28.7553 108.008 28.0771C108.512 27.3988 109.43 26.2273 110.308 25.0265C111.561 23.3793 112.648 21.6558 113.535 19.95C113.755 19.5037 113.948 19.0809 114.07 18.7256C114.399 17.7009 114.56 16.6762 113.877 15.5693C113.589 15.2081 113.301 15.1054 112.986 14.985C112.392 14.7795 111.739 14.8441 111.116 15.0584C110.881 15.1347 110.501 15.3256 110.092 15.5517C109.86 15.6809 109.634 15.8218 109.415 15.9715C108.952 16.2798 108.346 16.776 107.702 17.3691C107.354 17.6891 107.019 18.0239 106.698 18.3703C106.796 17.9475 106.862 17.5189 106.891 17.0902C106.906 16.8758 106.915 16.6586 106.912 16.4942C106.9 16.0625 106.888 15.81 106.716 15.4577C106.663 15.3549 106.6 15.2581 106.523 15.17C106.33 14.9556 106.152 14.8264 106.01 14.756C105.903 14.6943 105.597 14.618 105.282 14.5886C104.445 14.5005 103.572 14.9145 102.711 15.3872C101.797 15.9304 100.808 16.7349 99.8641 17.7273C99.5731 18.0268 99.2941 18.338 99.015 18.6463C99.2555 17.833 99.3891 17.0227 99.2851 16.1829C99.2198 15.8277 99.0714 15.4577 98.7953 15.1113C97.8126 14.1834 96.6637 14.4536 95.5415 14.9762C95.013 15.2551 94.5232 15.5986 94.0274 16.0978C90.1204 20.7163 86.3322 25.3994 82.4074 30.0501C82.2026 30.3144 81.9621 30.5728 81.6682 30.8223C81.4426 31.0132 81.2229 31.1805 81.0507 31.2686C80.6825 31.4595 80.3708 31.5945 79.9522 31.5065C79.78 31.4595 79.6405 31.4184 79.5009 31.2862C79.2011 30.9339 79.2634 30.564 79.3495 30.1881C79.4416 29.8182 79.5514 29.6127 79.7177 29.2574C79.8186 29.046 79.9106 28.8493 80.0116 28.6907C80.0472 28.6349 80.0858 28.5792 81.9116 26.2684C83.7374 23.9548 87.3505 19.3862 90.9665 14.8176C89.7463 14.8353 88.5291 14.8558 87.9205 14.8646C87.5148 14.8705 87.3109 14.8734 87.3089 14.8734C86.8755 15.4225 86.442 15.9745 86.0116 16.5235C86.1125 16.0831 86.1511 15.6104 85.6316 15.1054C85.3376 14.8206 84.8151 14.6708 84.4826 14.6444C84.3995 14.6356 84.3193 14.6327 84.1145 14.6444C83.687 14.665 82.921 14.753 82.3065 14.9204C81.9918 15.0026 81.68 15.1024 81.2199 15.2845C80.3114 15.6397 78.9606 16.2769 77.8354 17.0491C76.7548 17.7684 75.6029 18.7726 74.4302 20.0468C73.8542 20.6722 73.3139 21.3299 72.8152 22.017C72.3164 22.704 71.8592 23.4175 71.5297 23.9548C71.2001 24.4921 71.0042 24.8503 70.8112 25.2114C70.262 26.2391 69.7691 27.299 69.0032 28.3384C68.7687 28.6614 68.5222 28.9726 68.2758 29.2603C67.7533 29.874 67.2457 30.3467 66.6994 30.7548C66.4114 30.9691 66.1116 31.1688 65.88 31.3039C65.4258 31.571 65.1705 31.6327 64.8172 31.6885C64.645 31.709 64.4698 31.7149 64.3481 31.709C64.0542 31.6944 63.9562 31.6533 63.7306 31.5446C63.6445 31.4947 63.5762 31.4477 63.5049 31.3303C63.404 31.1394 63.3773 30.7225 63.4782 30.3496C63.6742 29.7419 64.2382 28.8199 64.8914 28.0037L75.3773 14.8676H71.6573C68.2105 19.3833 64.7904 23.8873 61.3199 28.4147C61.2427 28.5058 61.1625 28.5968 61.0141 28.7583C60.8657 28.9197 60.646 29.1546 60.4263 29.3895C60.2066 29.6244 59.9869 29.8593 59.7939 30.056C59.0577 30.8165 58.4223 31.2598 57.7425 31.5799C57.3239 31.7472 56.6915 31.8177 56.2313 31.6004C56.1363 31.5564 56.0443 31.5035 55.9879 31.4653C55.792 31.3039 55.8276 31.2833 55.786 31.1717C55.7504 31.0396 55.7177 30.8165 55.7355 30.6344C55.8038 30.1089 56.169 29.1693 56.7776 28.4294C62.6945 21.1978 68.5787 13.9779 74.4777 6.75216H70.1373L54.3254 27.5662C54.0552 27.9215 53.7702 28.2679 53.4792 28.6056L53.4852 28.5997ZM71.399 30.4348C71.4228 30.285 71.4584 30.1382 71.5 29.9944C71.5415 29.8505 71.595 29.7066 71.7137 29.4189C71.8325 29.1311 72.0195 28.6966 72.2244 28.2709C72.4292 27.8451 72.6519 27.4282 73.0289 26.8175C73.406 26.2068 73.9344 25.3994 74.4955 24.6154C75.0566 23.8315 75.6533 23.074 76.1551 22.4574C76.6538 21.8408 77.0606 21.3681 77.4673 20.8954C77.874 20.4227 78.2837 19.9558 78.6548 19.5477C79.0259 19.1396 79.3525 18.7931 79.6969 18.4584C80.0383 18.1237 80.3916 17.8007 80.6855 17.5482C81.2733 17.0373 81.6771 16.7496 82.1758 16.4325C82.4252 16.2769 82.6835 16.1301 82.8735 16.0303C83.2446 15.8335 83.4257 15.7807 83.6959 15.7132C84.0878 15.6427 84.4084 15.534 84.7854 15.9187C85.1417 16.4237 84.9814 16.8083 84.8567 17.3163C84.7112 17.8066 84.2659 18.6404 83.8265 19.3334C83.7018 19.536 83.5801 19.7385 83.3574 20.0821C82.9121 20.775 82.1521 21.876 81.3891 22.7774L77.9275 27.3372C77.8206 27.4781 77.7107 27.6161 77.595 27.7482C77.4792 27.8833 77.3604 28.0125 77.1615 28.221C76.9626 28.4294 76.6806 28.7142 76.3985 28.999C75.5613 29.8534 74.8844 30.4818 74.1749 30.9134C73.3406 31.3919 72.5153 31.9292 71.6276 31.665C71.2951 31.4477 71.3723 31.1541 71.3575 30.8899C71.3575 30.7401 71.3783 30.5875 71.405 30.4377L71.399 30.4348Z" fill="#F2F2F2"/>
<path d="M19.4388 36.985C18.8123 36.9909 18.183 36.9997 17.3517 36.9615C16.5204 36.9234 15.4843 36.8323 14.4808 36.6004C13.4774 36.3655 12.5066 35.9897 11.607 35.4876C10.7075 34.9855 9.88214 34.3601 9.2765 33.8316C8.67086 33.3032 8.29085 32.8686 7.93459 32.4164C7.58131 31.9643 7.25177 31.4916 6.96379 30.9954C6.67582 30.5021 6.42347 29.9854 6.2394 29.5831C5.8772 28.7933 5.72283 28.3265 5.54766 27.7099C5.46454 27.4104 5.39329 27.108 5.33391 26.7997C6.69363 27.0581 8.14835 26.9582 9.56745 26.3152C9.65354 26.2712 9.73667 26.2213 9.81683 26.1567C9.89698 26.0891 9.97417 26.004 10.1553 26.0657C10.3364 26.1273 10.6243 26.3328 10.9301 26.4855C11.2359 26.6382 11.5595 26.738 11.892 26.7997C12.2245 26.8613 12.56 26.8819 12.8302 26.879C13.3497 26.8701 13.6852 26.7909 14.0979 26.6969C14.2938 26.647 14.4897 26.5912 14.8044 26.4591C15.1191 26.3299 15.5526 26.1273 15.9652 25.8895C16.3779 25.6487 16.7668 25.3727 17.132 25.0644C17.4972 24.7562 17.8297 24.4156 18.1473 24.0456C18.8094 23.2764 19.3794 22.4396 19.8633 21.6087C20.1157 21.177 20.3472 20.7366 20.5758 20.2492C21.0479 19.248 21.4754 18.1264 21.7782 17.0401C21.9355 16.4851 22.0662 15.9214 22.1612 15.4516C22.3423 14.5326 22.3927 13.872 22.4046 13.094C22.4076 12.7152 22.3957 12.3364 22.3631 12.0223C22.2799 11.2178 22.0691 10.6188 21.514 9.89947C21.3418 9.65284 21.0033 9.35336 20.6916 9.20361C21.7871 8.66924 22.9093 8.25232 24.0404 7.95577C24.6164 7.80603 25.2042 7.68565 25.6673 7.6005C26.5669 7.43902 27.128 7.39791 27.8405 7.37736C29.2091 7.3891 30.5481 7.39791 31.9642 8.19066C31.5515 8.4872 31.1389 8.78375 30.75 9.10672C29.9424 9.72624 29.2893 10.5072 28.6005 11.2501C27.7871 12.1691 27.1161 13.1468 26.5164 14.1157C26.2077 14.6207 25.9227 15.1375 25.1953 16.5791C24.4679 18.0237 23.2953 20.3931 22.6035 21.8024C21.9088 23.2118 21.6921 23.661 21.4813 24.1131C21.036 25.0527 20.5699 26.1185 20.0117 27.2313C19.7178 27.8126 19.4061 28.3852 19.1894 28.7639C18.9727 29.1456 18.8539 29.3365 18.7292 29.5244C18.3997 30.0147 18.1265 30.4904 17.5743 30.9719C17.4259 31.1011 17.2686 31.2215 17.1023 31.3301C16.3512 31.1921 15.5971 31.0746 14.8133 31.2185C14.6382 31.2596 14.469 31.3242 14.3116 31.4094C14.1543 31.4945 14.0088 31.6031 13.9108 31.6824C13.6347 31.9232 13.6288 32.0817 13.6347 32.299C13.6704 32.4957 13.7089 32.6572 13.9435 32.8304C14.3027 32.9626 14.6619 33.0976 15.033 33.1329C15.4012 33.171 15.7812 33.1123 16.1612 33.0536C16.5056 32.9068 16.8529 32.7541 17.0756 32.6543C17.4972 32.4634 17.5833 32.4106 17.8148 32.2961C18.5303 32.3988 19.2814 32.3665 20.0147 32.1727C20.9766 31.9173 21.8584 31.4182 22.752 30.7546C23.2478 30.3788 23.7139 29.9619 24.1592 29.495C24.367 29.2807 24.5659 29.0575 24.8925 28.67C25.222 28.2824 25.6792 27.7246 26.1156 27.155C26.555 26.5853 26.9736 25.9981 27.2854 25.5489C27.5941 25.0997 27.796 24.7855 27.9919 24.4684C28.1879 24.1513 28.3838 23.8342 28.8945 22.9739C29.4051 22.1137 30.2364 20.7161 30.8628 19.6708C31.4892 18.6256 31.9137 17.9356 32.3531 17.2544C32.7925 16.5732 33.2467 15.9038 33.5703 15.437C33.8939 14.9701 34.0839 14.7088 34.2769 14.4504C34.4699 14.1921 34.6629 13.9337 34.8202 13.737C35.1023 13.3788 35.2952 13.1762 35.5951 12.9178C35.7287 12.8033 35.8712 12.6976 36.0166 12.5977C35.8712 12.9501 35.5387 13.2936 35.4199 13.6313C35.2923 13.8955 35.1646 14.1598 35.0399 14.4269C34.9122 14.6912 34.7876 14.9584 34.4313 15.7922C34.075 16.6261 33.4902 18.0325 33.1072 18.9515C32.7272 19.8705 32.5491 20.308 32.3709 20.7425C32.1928 21.177 32.0087 21.6116 31.89 21.8935C31.6644 22.4249 31.605 22.5365 31.4684 22.833C30.839 24.166 30.2245 25.4931 29.5773 26.832C29.5001 26.9847 29.4199 27.1344 29.2893 27.3752C29.037 27.8361 28.6213 28.5966 28.2562 29.2249C27.7871 30.0353 27.2705 30.7634 26.5105 31.5327C25.8039 31.4123 25.0706 31.2714 24.3551 31.4094C24.1829 31.4417 24.0137 31.4857 23.8861 31.5268C23.6575 31.6031 23.5298 31.6824 23.3665 31.8116C23.221 31.9349 23.1082 32.0553 23.0993 32.1287C23.031 32.3372 23.2003 32.7541 23.5832 32.9538C23.7109 33.0242 23.8712 33.0888 24.0226 33.124C24.0998 33.1446 24.18 33.1593 24.3611 33.1681C24.7203 33.1857 25.3912 33.171 25.9167 32.9244C26.175 32.8099 26.4185 32.6455 26.6471 32.5838C26.8757 32.5221 27.0954 32.5633 27.2735 32.669C27.4754 32.6983 27.6802 32.7189 27.8851 32.7365C28.7698 32.8246 30.0285 32.622 31.0854 31.9819C31.6169 31.6707 32.1898 31.2537 32.7272 30.7752C32.9825 30.5461 33.2289 30.3054 33.6921 29.8121C34.1552 29.3189 34.8321 28.5731 35.4912 27.8068C36.1473 27.0404 36.7826 26.2565 38.1661 24.4596C39.5495 22.6627 41.6841 19.8558 43.2398 17.8299C44.7954 15.804 45.7722 14.562 46.7816 13.3435C47.791 12.125 48.833 10.9359 49.5307 10.1578C50.2284 9.37978 50.5846 9.0157 50.9498 8.66044C51.315 8.30517 51.692 7.96458 51.9948 7.70033C52.5975 7.1777 52.9805 6.91052 53.4703 6.58755C53.7138 6.429 53.9632 6.28219 54.3075 6.09134C55.0349 5.68616 56.0235 5.20171 56.9142 4.87286C57.3803 4.6967 57.8523 4.54402 58.2056 4.43832C58.8855 4.23866 59.2239 4.19462 59.7138 4.12122C59.9483 4.09186 60.1799 4.06837 60.4975 4.05075C60.8122 4.03314 61.21 4.02433 61.6049 4.0302C61.9997 4.03607 62.3976 4.05956 62.7152 4.08892C63.3298 4.14471 63.7395 4.22692 64.2353 4.35904C64.7251 4.49117 65.2684 4.69376 65.8384 4.95214C66.3877 5.20464 66.8953 5.48651 67.3644 5.75957C67.5811 5.88582 67.7949 6.01207 67.9611 6.11483C68.2729 6.30568 68.4599 6.44074 68.6974 6.63746C68.7657 6.59929 68.834 6.55819 68.7241 6.39964C68.6143 6.24109 68.3263 5.95922 68.0413 5.68029C67.1417 4.8112 66.1709 4.25922 65.215 3.79531C64.8736 3.63089 64.5262 3.48115 64.0631 3.32554C63.1041 2.99963 61.8068 2.73538 60.643 2.74712C57.9325 2.75887 55.1804 3.74246 52.4639 5.4777C51.9859 5.78305 51.5169 6.10309 51.0597 6.44074C50.6025 6.77546 50.1542 7.12779 49.4832 7.74144C48.8093 8.35508 47.9127 9.23298 47.0636 10.152C46.2145 11.071 45.41 12.037 44.5015 13.1938C43.5931 14.3506 42.5748 15.7012 41.5951 17.0782C40.1463 19.1276 38.6797 21.1682 37.2517 23.2294C36.7767 23.8988 36.2987 24.5653 35.9187 25.0938C35.5357 25.6194 35.2507 26.0069 34.9598 26.3886C34.369 27.1726 33.6327 28.0974 32.742 29.0517C32.2819 29.5449 31.8009 30.0206 31.4506 30.3494C31.1003 30.6783 30.8836 30.8632 30.655 31.0306C29.5921 31.7588 28.4937 32.3519 27.3536 31.976C27.8821 31.6061 28.4016 31.1862 28.9123 30.7047C29.1557 30.4757 29.3932 30.2379 29.7198 29.8826C30.0493 29.5273 30.4679 29.0575 30.8806 28.5819C31.2933 28.1062 31.697 27.6218 31.9998 27.243C32.3027 26.8643 32.5045 26.5912 32.6975 26.3123C32.8905 26.0334 33.0716 25.7456 33.3299 25.2847C33.5882 24.8237 33.9236 24.1924 34.2443 23.5494C34.5619 22.9064 34.8647 22.2575 35.1943 21.5206C35.5238 20.7836 35.886 19.9586 36.2334 19.1276C36.5807 18.2967 36.9132 17.4599 37.1864 16.767C37.7118 15.4193 38.077 14.4622 38.555 13.3376L40.1314 9.6176C40.271 9.28876 40.4283 8.97166 40.5975 8.6575C40.7638 8.34334 40.9449 8.03504 41.0755 7.81777C41.316 7.41553 41.4318 7.25991 41.6396 7.00154C41.7673 6.82537 41.981 6.66095 42.0463 6.49653C42.0641 6.44074 41.9691 6.3233 41.8919 6.31742C41.8593 6.31155 41.7435 6.33798 41.6277 6.3644C41.2863 6.45542 40.6955 6.69618 40.2057 7.02503C38.8756 7.93228 37.5575 9.0069 36.2452 10.3692C35.408 11.2383 34.6629 12.1397 34.0097 13.0528C33.6713 13.5256 33.3507 14.013 33.0894 14.4211C32.8281 14.8292 32.6263 15.158 32.4273 15.4898C32.2284 15.8216 32.0325 16.1534 31.4773 17.1164C30.9222 18.0795 30.0048 19.6708 29.2566 20.9392C28.5085 22.2076 27.9296 23.153 27.321 24.0809C26.7124 25.0087 26.077 25.9188 25.605 26.5648C25.133 27.2137 24.8301 27.5983 24.5125 27.9741C24.1948 28.3499 23.8653 28.717 23.5506 29.0399C22.4016 30.2144 21.3477 30.8955 20.1928 31.3976C19.7831 31.5532 19.3942 31.6061 18.8895 31.6707C18.6698 31.6971 18.5303 31.6883 18.3492 31.6531C19.1478 30.9455 20.0147 30.2966 20.8074 29.3247C21.5793 28.4439 22.3482 27.3487 22.9746 26.327C23.2834 25.8278 23.5595 25.3551 24.2661 24.0251C24.9726 22.695 26.1067 20.5047 26.7658 19.2304C27.4249 17.9532 27.6119 17.5891 27.8019 17.228C27.9919 16.8668 28.1908 16.5086 28.4877 15.9919C28.7846 15.4751 29.1795 14.7998 29.5684 14.1216C29.9573 13.4433 30.3373 12.7592 30.655 12.2014C30.9726 11.6435 31.2279 11.209 31.4951 10.7832C31.7623 10.3575 32.0414 9.94058 32.2463 9.64403C32.6233 9.10085 32.8044 8.88652 33.1221 8.54006C33.4249 8.53125 33.7247 8.50776 34.0246 8.47546C34.3244 8.44316 34.6243 8.39619 34.8469 8.35802C35.2685 8.28168 35.4823 8.22002 35.7851 8.12019C36.174 7.98513 36.5985 7.82365 37.026 7.45957C37.5664 6.9986 37.6584 6.66976 37.3229 6.21466C37.1596 6.0473 36.9875 6.0062 36.836 5.97684C36.6253 5.94454 36.1918 5.95628 35.8059 6.04143C35.3219 6.14126 34.5382 6.47891 33.8197 6.92813C33.5733 7.08375 33.3358 7.24817 33.1072 7.42727C32.6263 7.08375 32.1334 6.79601 31.6287 6.55231C31.3734 6.42312 31.1062 6.31155 30.6757 6.16475C30.2453 6.01794 29.6426 5.83297 29.031 5.70084C26.6708 5.16941 24.1592 5.45715 21.7248 6.22053C21.1488 6.41432 20.5788 6.62572 20.1513 6.79601C19.3556 7.11898 18.94 7.3568 18.373 7.71795C18.0375 7.62105 17.6931 7.5682 17.3487 7.55352C16.9687 7.53297 16.4165 7.6005 15.8227 7.72088C14.2196 8.04679 12.6699 8.91294 11.0934 10.0668C10.4611 10.4926 9.75448 11.0651 9.02415 11.7668C8.65899 12.1221 8.31164 12.5009 7.98803 12.8943C7.66443 13.2907 7.36458 13.7017 7.12708 14.0482C6.66394 14.7235 6.38784 15.2285 6.08799 15.8157C5.94252 16.1005 5.80892 16.3794 5.67532 16.6613C5.54173 16.9402 5.40813 17.2221 5.23891 17.6155C4.87671 18.4465 4.46108 19.5945 4.24138 20.6192C3.897 22.143 3.802 23.5524 3.91481 24.9499C3.63871 24.7826 3.36855 24.58 3.1073 24.3187C2.98557 24.1983 2.86979 24.072 2.73026 23.8841C2.41853 23.476 2.07712 22.9035 1.8693 22.3838C1.34382 21.0508 1.21616 19.6796 1.36757 18.2997C1.42991 17.7594 1.5457 17.228 1.6882 16.7406C1.96727 15.804 2.35618 14.9642 2.8401 14.101C3.29136 13.3142 3.81981 12.5537 4.43139 11.8138C4.72233 11.4644 5.02812 11.1268 5.52391 10.6364C6.52144 9.6499 8.18694 8.21121 9.5912 7.20119C11.0251 6.14713 12.3106 5.38081 13.706 4.72018C14.4215 4.38253 15.1518 4.08305 16.0365 3.76301C17.8623 3.10826 20.1097 2.45058 22.1879 1.96612C24.5867 1.44643 27.0033 1.21741 29.4199 1.19686C31.7772 1.22916 34.1611 1.46405 36.5481 2.12467C37.2576 2.31845 37.9583 2.54453 38.5401 2.74419C39.122 2.94384 39.5852 3.11707 40.0453 3.29617C41.7287 3.93331 43.3823 4.7055 45.0448 5.92105L45.2764 5.6891C44.6618 5.19877 44.0236 4.7378 43.3615 4.30619C42.7024 3.87752 42.0196 3.47821 41.3219 3.11414C40.6243 2.75006 39.9058 2.41828 39.125 2.10412C37.5248 1.45817 35.7495 0.920867 34.0246 0.592023C33.1428 0.421729 32.2552 0.295477 31.4536 0.21033C30.655 0.125183 29.9454 0.081141 29.2329 0.0488438C28.5234 0.0165467 27.8108 -0.00694212 26.9232 0.00186619C25.1241 0.0136106 22.8202 0.175096 20.748 0.568534C19.7 0.759381 18.6639 1.00014 17.6961 1.26733C16.7282 1.53451 15.8317 1.83399 14.9499 2.16577C14.0682 2.50049 13.1983 2.87044 12.3492 3.27856C11.5001 3.68668 10.6659 4.13003 9.92964 4.56163C9.19337 4.99031 8.55211 5.4043 7.93459 5.84765C7.31411 6.291 6.71738 6.76371 6.25424 7.15715C5.31313 7.95577 4.8114 8.51069 4.22654 9.19774C3.9356 9.54714 3.6595 9.90828 3.36558 10.3252C2.46009 11.623 1.54273 13.1967 1.00537 14.609C0.45911 16.0066 0.0672259 17.5833 0.00488069 19.0161C-0.0307451 20.3549 0.117696 21.7261 0.815368 23.1149C1.03209 23.5494 1.29335 23.9605 1.59023 24.3451C2.27306 25.2435 3.15777 25.91 3.96825 26.3328C4.38389 28.1796 4.92124 30.0969 6.16815 31.9907C6.44425 32.4194 6.73816 32.8363 7.22208 33.3736C7.706 33.908 8.37695 34.5598 9.11025 35.1323C9.84651 35.7049 10.6451 36.1981 11.4883 36.5945C12.3314 36.9909 13.2221 37.2933 13.8425 37.4783C14.466 37.6633 14.8223 37.7279 15.1815 37.7836C15.9088 37.8952 16.651 37.9598 17.4022 37.9804C17.7822 37.9921 18.1651 37.9921 18.7619 37.9892C19.3586 37.9892 20.1721 37.9804 21.1933 37.9833C22.2146 37.9833 23.4407 38.0097 24.6669 38.0097L186.981 37.8776C186.987 37.584 186.996 37.2874 186.999 36.9938C131.147 36.9938 75.2912 36.9703 19.4388 36.9938V36.985ZM17.6664 10.6159C18.3284 10.2166 18.9994 9.87304 19.6763 9.57943C19.9791 9.68513 20.2789 9.87011 20.5313 10.1608C20.7807 10.4544 20.9172 10.7803 21.0122 11.0592C21.5882 13.2965 21.128 15.663 20.4155 17.6596C19.9019 19.204 19.2369 20.7249 18.1889 22.1724C17.8059 22.7038 17.3873 23.2059 17.0815 23.5524C16.7757 23.8988 16.5857 24.0867 16.3868 24.2688C15.3299 25.2259 14.2344 25.7221 13.1835 25.8161C12.5155 25.8631 11.8327 25.8866 11.1973 25.5195L12.7322 24.1043C13.2102 23.5993 13.6555 23.065 14.0593 22.4983C14.463 21.9346 14.8252 21.3415 15.0984 20.8658C15.3715 20.3902 15.5556 20.032 15.7277 19.665C16.0721 18.9427 16.3928 18.0912 16.5709 17.5157C16.66 17.2309 16.7045 17.043 16.749 16.8463C16.7935 16.6496 16.8411 16.447 16.8114 16.3237C16.7817 16.2003 16.6748 16.1563 16.5887 16.1827C16.2592 17.3454 15.6951 18.4758 14.9826 19.6561C14.2522 20.9833 13.1775 22.3985 12.0316 23.5201C11.6842 23.8577 11.3576 24.1513 11.0994 24.3392C10.844 24.5271 10.5828 24.6857 10.3215 24.8178C9.97714 24.3011 9.75151 23.7667 9.60901 23.2353C9.20228 21.6175 9.54963 20.0613 10.1968 18.5434C10.4967 17.8681 10.7639 17.3396 11.3428 16.5174C11.6337 16.1035 12.0167 15.5896 12.4294 15.0964C12.8421 14.6031 13.2785 14.1304 13.7386 13.6782C14.2107 13.2437 14.6857 12.8062 15.1815 12.401C15.992 11.7492 16.8411 11.1091 17.6664 10.6188V10.6159ZM5.10234 24.6739C5.06078 23.9722 5.05484 23.4026 5.15578 22.5306C5.20625 22.0814 5.29235 21.5206 5.40516 20.9656C5.72579 19.3919 6.31362 17.8299 7.0677 16.3941C7.51302 15.5456 8.04147 14.6677 8.60258 13.8896C8.87571 13.5138 9.14587 13.1762 9.43088 12.8503C10.3779 11.7786 11.3369 11.0211 12.1681 10.4485C13.0232 9.86424 13.9257 9.38272 14.5818 9.10672C14.9915 8.93643 15.3982 8.79256 15.8079 8.71035C16.2265 8.6252 16.654 8.60171 17.0697 8.63401C16.5175 8.99515 15.9801 9.37978 15.4606 9.78496C14.941 10.1901 14.4393 10.6218 14.0533 10.9623C13.6674 11.3029 13.4002 11.5554 13.133 11.8109C12.8658 12.0663 12.5986 12.3188 12.3077 12.6154C12.0167 12.9119 11.705 13.2466 11.4081 13.5931C11.1112 13.9395 10.8262 14.3007 10.559 14.6706C10.0632 15.3665 9.65354 16.0183 9.38041 16.538C9.1429 16.9931 8.94696 17.413 8.82524 17.7447C8.63227 18.2586 8.51351 18.8076 8.39179 19.4565C8.34429 19.7119 8.30273 19.9703 8.27304 20.1817C8.20179 20.6897 8.1721 21.1447 8.26413 21.82C8.29679 22.0432 8.34429 22.3221 8.4007 22.5981C8.50758 23.1266 8.69164 23.7403 8.84009 24.1513C8.90837 24.3451 8.95884 24.4655 9.01228 24.5859C9.11915 24.8178 9.24681 25.0439 9.39822 25.267C9.08947 25.4491 8.76289 25.5988 8.42445 25.7163C7.33489 26.0568 6.23643 26.2125 5.21219 25.684C5.16172 25.3492 5.12609 25.0116 5.10234 24.6739Z" fill="#F2F2F2"/>
<path d="M54.2511 10.8007C54.6163 10.8271 55.2784 10.6216 55.884 10.2223C56.0829 10.0901 56.267 9.94039 56.4332 9.78478C56.7984 9.45006 57.0359 9.10947 57.1932 8.7454C57.407 8.23158 57.4901 7.77061 57.3328 7.32726C57.2882 7.19807 57.2289 7.07475 57.1517 6.97199C56.736 6.46698 56.0977 6.51689 55.593 6.66663C55.403 6.71948 55.0023 6.89271 54.5985 7.15109C53.975 7.5504 53.405 8.26681 53.2625 8.79237C53.2121 8.95679 53.1824 9.12709 53.1705 9.30032C53.1972 9.7701 53.0785 10.1635 53.6396 10.5951C53.8236 10.7185 54.0433 10.786 54.2511 10.8007Z" fill="#F2F2F2"/>
<path d="M173.149 32.7396H186.981L186.987 24.0252L181.403 24.034L181.397 4.69687H173.149V32.7396ZM143.031 4.65283L134.771 4.67045L134.789 14.5328L131.087 14.5592V4.67045H122.792V32.722L131.129 32.7278L131.12 21.5736L134.81 21.5912V32.7278H143.025V4.65283M158.136 32.719H171.84V24.0663L166.416 24.0546L166.425 4.67926H158.136V32.719ZM154.532 4.67926H146.412V32.7132H154.532V4.67926Z" fill="#F2F2F2"/>
</svg>
