<svg width="109" height="93" viewBox="0 0 109 93" fill="none" xmlns="http://www.w3.org/2000/svg">
<path fill-rule="evenodd" clip-rule="evenodd" d="M47.6964 67.4889H53.3204L53.3461 70.027C54.7103 69.7321 55.5854 69.5398 56.9882 69.4629V75.0006C56.2289 75.1032 54.0025 75.5262 53.3333 76.103C53.3333 81.1023 53.256 86.1786 53.3333 91.1779C51.48 91.1779 49.5624 91.1779 47.7092 91.1779V67.5017L47.6964 67.4889ZM65.7267 48.7479C67.5671 46.3379 69.8321 45.1971 71.2221 45.4278C76.9877 46.402 69.06 55.7469 65.4822 57.721C62.046 55.5546 56.1774 49.1196 59.1761 46.0559C61.0808 44.1203 64.6585 46.8251 65.7267 48.7479ZM85.1856 67.5914V74.0905C84.6451 73.5777 83.77 73.0265 82.9077 72.7958C81.8009 72.5138 81.0802 72.7317 80.7713 73.3342C79.9992 74.8212 81.7366 76.4491 82.7147 77.5259C84.0402 79.1154 85.1213 80.2948 85.7648 82.1663C86.6013 84.7172 86.0093 87.6271 84.5164 89.2422C83.178 90.6908 81.0545 91.6137 78.8538 91.524C75.6235 91.5752 70.3598 92.1393 67.9017 89.6524C67.7086 89.4217 67.5027 89.2038 67.3869 88.9346C67.2711 88.9346 65.9069 91.9854 62.4578 91.8701C59.974 91.7932 58.4296 89.6396 58.3782 86.8323L58.4039 67.5017H63.5904V86.3965C64.5298 86.0376 66.3059 83.6276 66.3059 82.6278V67.5017H71.5052V85.3966C71.5052 85.5633 71.5567 86.8964 73.0624 87.1912C74.6068 87.4348 76.2284 87.1912 77.7598 87.0246C78.9438 86.781 79.9091 86.5888 80.3724 85.5761C81.1832 83.7943 79.0725 81.9484 78.043 80.7306C75.7908 78.3335 74.388 75.6928 75.3275 71.9369C76.0224 69.4501 78.4033 67.6299 80.4882 67.2197C81.9425 66.9248 83.7056 67.0787 85.2114 67.6042L85.1856 67.5914ZM93.049 69.2963C93.9885 68.0144 94.9923 67.2453 96.2921 67.1556C98.7502 67.1171 100.269 69.2707 100.565 71.5011C100.629 77.0773 100.565 81.7817 100.578 88.1398C100.719 89.1653 101.672 89.7165 102.431 89.5114C104.246 89.0884 103.924 86.6272 108.982 86.0376C108.094 89.8447 106.884 91.8316 101.723 92.0111C99.5868 92.088 97.1287 91.6906 95.61 91.2163C95.5843 86.4478 95.5843 76.8465 95.61 72.36C94.4646 73.0265 93.5509 74.1546 92.8946 75.8595V91.1907H87.4249V60.195C89.6643 58.9259 91.273 57.9261 93.049 56.7852V69.3219V69.2963ZM68.8154 59.6951V59.6566C74.2722 60.0924 80.1793 58.1825 84.4649 55.5931C88.403 53.0806 90.7968 50.7604 91.9937 48.2992C93.1133 45.9662 93.4994 42.6718 93.5123 38.9672C92.6114 39.8645 91.6462 40.5311 90.4622 40.4413C88.1971 40.2747 86.035 38.5057 86.0479 35.4677V16.6754L91.6462 16.6113L91.6719 34.4806C92.6758 33.4808 93.5638 32.8142 93.5638 30.9555L93.538 16.637L99.2135 16.6626L99.1749 39.1979C99.1749 45.274 96.202 52.8883 91.3373 56.6058C83.667 62.4126 75.2889 64.6559 66.0356 62.3101C54.8776 65.566 51.8661 61.0538 42.8059 57.298C39.2925 55.8366 35.3544 55.8751 31.3133 58.285C27.0663 61.0026 24.6211 66.3864 24.9171 72.219C25.2259 76.8722 27.7355 80.846 31.5707 83.32C35.4444 85.8068 41.1071 86.2298 45.7015 83.9481V90.601C39.7429 92.6136 33.4754 91.7547 28.4562 88.7167C22.7035 85.23 18.9842 79.2308 18.6624 72.5266C18.2635 64.1944 21.957 56.5801 28.2632 52.9524C32.5745 50.4784 37.0403 50.363 41.0685 51.2347C44.9937 52.0936 48.5329 54.183 52.6254 56.6186C55.8042 58.9388 59.3048 60.0283 62.4321 59.413C59.3048 57.4646 55.3538 52.9652 54.6974 49.2222C53.3075 41.2617 63.0498 39.4671 65.8039 44.9535C71.0033 38.3006 78.9953 41.8258 76.6016 50.4399C75.4433 54.0676 71.6339 58.3106 68.8283 59.7207L68.8154 59.6951ZM26.9505 1.0622V7.7023C23.4885 5.98459 19.5633 5.81795 16.6033 6.61271C10.4516 8.26633 5.7799 14.0091 6.06304 20.9953C6.47486 28.725 12.5365 34.1217 19.7563 34.5191C22.1115 34.6473 24.4924 34.173 26.899 33.1347L28.8809 38.3775C26.5386 40.2362 21.6739 40.9541 17.6071 40.4413C12.4979 39.826 8.05783 37.1726 4.87903 33.4808C1.72596 29.8915 0.0657803 25.4947 0.00143203 20.4185C-0.0886555 12.8554 4.08111 6.40761 9.85958 2.88246C14.8916 -0.168396 20.7859 -0.83497 26.9505 1.0622ZM44.7749 23.1617V34.3524C45.3927 36.1471 46.8984 35.865 47.9409 35.3267V16.5985C49.7812 16.5985 51.7503 16.5857 53.5778 16.5985V18.2649C54.646 16.8292 56.0745 16.0601 57.7089 16.0858C59.9869 16.2396 61.1065 18.688 61.1065 21.303V39.6081L55.8943 40.9797V23.3155C55.8686 22.6618 55.9329 22.008 55.8943 21.3799C54.6588 22.2387 53.166 23.9821 53.166 25.4819V40.2875C50.5019 40.2875 48.224 40.3516 46.2421 40.2491C45.1224 40.1978 44.2602 40.0824 43.192 39.8004C42.6257 39.6722 42.1238 39.4543 41.5961 39.0825C39.9102 40.2747 37.9926 40.7874 36.1265 40.6464C32.4844 40.3772 29.0225 37.5443 28.675 33.2116C28.5077 30.8529 29.4472 28.5968 31.1717 26.956C32.523 25.6742 34.4149 24.8025 36.3067 24.7897C37.4778 24.7897 38.1599 24.9691 39.1766 25.6485V23.1617C39.1252 22.1746 38.3015 21.6363 37.5551 21.6619C36.7057 21.7004 36.1265 22.431 36.1008 23.2514L30.6698 21.7516C31.5707 17.624 35.3157 15.714 38.5203 16.0858C41.6476 16.4575 44.7878 19.111 44.7878 23.1489L44.7749 23.1617ZM34.6208 34.4037C35.7018 35.724 37.8897 35.6215 38.842 34.2243C39.9617 32.7629 39.1509 30.6863 37.5293 30.1735C36.2038 29.7121 34.8653 30.3658 34.3119 31.3785C33.8229 32.263 33.7971 33.4295 34.6208 34.4037ZM83.5769 2.92092L83.5512 34.3012C83.667 34.7883 84.2333 35.0446 85.1985 35.0703L85.8677 40.5952C84.1947 40.6977 81.6851 40.1721 80.3209 39.0825C77.052 41.5566 71.6725 40.8515 68.2492 38.7364C64.9545 36.6983 62.5994 33.25 62.638 28.5071C62.6251 23.777 64.9803 19.8032 69.3174 17.3035C71.724 15.9319 75.2374 15.4833 77.9529 16.2268C77.9529 13.2144 77.9529 10.3173 77.9529 7.31774L83.5898 2.93374L83.5769 2.92092ZM77.9658 34.6088V22.0208C73.1139 20.0596 68.4808 23.6744 68.2363 28.0841C68.0304 33.1347 73.397 37.0444 77.9658 34.596V34.6088Z" fill="#F2F2F2"/>
<path fill-rule="evenodd" clip-rule="evenodd" d="M65.5078 56.6441C66.9234 55.7212 68.4549 54.106 69.4588 52.9139C70.3082 51.9012 72.9979 48.3504 72.2257 46.9275C72.0198 46.543 71.4793 46.3891 71.0803 46.3251C69.4974 46.0559 67.3095 48.1838 66.4601 49.299L65.6107 50.4014L64.9287 49.1836C64.2466 47.953 61.2351 45.2611 59.8323 46.684C59.6264 46.9019 59.4719 47.1455 59.369 47.4275C58.4424 50.1963 63.0626 54.888 65.5078 56.6313V56.6441Z" fill="#F2F2F2"/>
</svg>
