<svg width="133" height="64" viewBox="0 0 133 64" fill="none" xmlns="http://www.w3.org/2000/svg">
<path d="M133 0V23.7637H104.181C106.141 25.5475 106.016 26.0953 106.038 28.6322C106.076 33.243 106.038 43.8919 105.26 48.0675C105.118 48.8252 104.996 49.2464 104.182 49.4563C105.813 51.4515 108.559 52.3512 106.801 55.3201C106.432 55.9404 101.978 60.6499 101.394 61.0172C97.6063 63.3966 94.1279 56.8909 91.3138 55.0932C83.7561 64.3565 68.9134 65.3348 61.3387 55.5531V58.5621C61.3387 60.4848 54.6163 62.7547 53.0151 63.1899C35.6449 67.9256 18.2748 51.0704 27.6588 34.4065C34.0144 23.1202 49.9035 21.9398 58.4876 31.3234C61.1168 27.6554 64.9558 25.171 69.1985 23.7653H0V0.231465L0.23117 0H133ZM5.85323 2.31619L3.56773 20.0371L7.17399 20.5309L8.09096 12.6534L13.4834 20.9846L18.7248 12.6503L19.7265 20.6775L23.4114 20.0479L21.3463 2.46587L13.4834 14.5005L5.85323 2.31619ZM42.5353 2.46896V20.6775L46.2341 20.0603V10.956L56.7138 20.909V2.93189L53.0351 3.64634L52.9396 12.6519L42.5338 2.46896H42.5353ZM32.4656 2.68499C20.0456 2.68808 20.8084 21.9274 33.344 20.8102C44.4725 19.818 43.7374 2.6819 32.4656 2.68499ZM119.281 2.62481L116.371 5.14469L122.616 13.0376L119.595 20.0556L123.195 20.6636L130.702 4.10773L127.301 2.62481L124.448 9.10428L119.281 2.62481ZM72.9928 5.30363C64.233 -3.32075 51.5202 10.5841 60.7192 18.5959C69.5345 26.2728 81.1793 13.3632 72.9928 5.30363ZM104.432 18.1515C112.956 9.47154 99.4849 -3.28834 91.3847 5.62768C83.5188 14.2875 96.2254 26.5073 104.432 18.1515ZM111.732 2.93189L107.879 3.62628V20.2917L108.111 20.5232H117.512L119.284 16.6655H111.732V2.93189ZM83.1443 3.0862C81.2764 2.83776 78.9061 3.27137 76.9797 3.0862L76.7486 3.31766V20.4461L80.5783 20.0371L80.6014 15.431H83.2984C89.1886 15.431 90.9624 4.12779 83.1443 3.0862ZM92.8164 45.1757C93.1416 45.4689 99.9026 44.4104 100.143 43.7144C100.084 37.5667 100.838 31.3666 100.796 25.2358C100.792 24.6001 101 22.486 100.377 22.2468L91.9519 23.952L92.8149 45.1742L92.8164 45.1757ZM90.7729 23.7637H79.8308C84.4635 25.1957 87.6475 28.6816 90.8484 32.098L90.7729 23.7637ZM72.5582 24.2745C50.2364 25.9703 51.4493 59.6901 74.799 56.4543C95.6799 53.5609 94.6997 22.594 72.5582 24.2745ZM47.3129 46.2929V49.1477C42.6818 51.6367 35.9008 49.9316 35.312 44.0354C34.5014 35.9141 43.8977 31.4345 49.7386 37.0081L50.5015 36.8307C51.0809 35.6764 55.1572 31.3357 54.9923 30.3605C54.6718 28.4594 47.487 26.3731 45.6978 26.228C21.6175 24.2683 19.0176 60.278 43.8391 58.4788C47.8368 58.1887 52.3616 56.4311 55.7722 54.3788L55.5672 38.4108L41.7648 39.2734C41.4458 40.4076 38.9291 45.8485 39.6426 46.5645L47.3113 46.2929H47.3129ZM101.197 49.4347C100.852 48.9857 96.5907 45.2251 96.267 45.2467L91.1535 50.788L96.0174 55.6271L96.5414 55.712L101.683 50.2525C101.564 49.9578 101.39 49.6847 101.199 49.4347H101.197Z" fill="#F2F2F2"/>
<path d="M72.5536 32.4483C84.596 30.9731 83.1782 49.8143 71.4316 48.4533C62.6025 47.4302 63.6474 33.5393 72.5536 32.4483Z" fill="#F2F2F2"/>
<path d="M31.7135 6.52575C39.2897 5.67551 39.5979 16.9818 32.5858 17.1299C25.945 17.2703 25.3085 7.24484 31.7135 6.52575Z" fill="#F2F2F2"/>
<path d="M65.9236 6.52268C72.2746 5.75885 74.1687 14.4959 68.7917 16.6454C61.1322 19.7069 58.4784 7.41768 65.9236 6.52268Z" fill="#F2F2F2"/>
<path d="M101.658 15.6825C96.2948 20.7038 89.0746 11.9189 94.8615 7.56583C100.286 3.48588 106.398 11.243 101.658 15.6825Z" fill="#F2F2F2"/>
<path d="M80.6014 11.8818V6.63531H82.836C85.5484 6.63531 85.4899 11.8818 82.9901 11.8818H80.6014Z" fill="#F2F2F2"/>
</svg>
