<svg width="136" height="82" viewBox="0 0 136 82" fill="none" xmlns="http://www.w3.org/2000/svg">
<path d="M75.4209 0V0.000976562L80.5537 7.44141L73.1924 11.2842C76.0533 11.3424 78.6774 12.345 80.6904 14.1768L81.1611 11.4062L83.4111 10.2031L83.4092 10.2832L83.4219 10.2139H90.0322L90.0537 10.0928L92.3164 8.91016L92.3193 8.89648H92.3438L92.3584 8.88867L92.3604 8.89648H100.557L102.426 20.3535C103.188 19.8158 104.029 19.3736 104.935 19.0371C106.224 18.5641 107.551 18.347 108.839 18.376L108.763 12.2832L111.051 11.085L123.437 13.7334L123.707 15.0332L125.359 14.1777L125.363 14.1631L135.904 16.6514L125.781 46.2861L125.765 46.2812L125.771 46.2852L123.47 47.4697L115.739 45.0771L115.668 42.1299L108.217 41.0879L110.497 39.9238H110.495L110.941 36.0293C110.925 36.0376 110.907 36.0445 110.891 36.0527C110.173 36.6289 108.404 37.3937 107.582 37.667C106.888 37.907 106.08 38.0075 105.306 38.0928L105.739 40.7607L105.708 40.7549L105.732 40.7695L103.486 41.9697L92.248 40.0332L91.8916 37.1689L90.1006 38.124L88.8896 35.9512L86.9902 36.9453L77.0967 35.4072L77.7861 31.335C77.7582 31.3515 77.7309 31.3697 77.7031 31.3857C76.1192 32.3105 74.5078 32.9845 72.6309 33.2559L72.627 33.2363V40.5693L72.6387 40.5762L70.3584 41.7725L54.3047 34.0479L54.3145 39.4131L45.5439 40.667L45.167 36.7178C44.1306 37.7019 42.9075 38.5289 41.5322 39.0957C38.7901 40.2253 35.8259 40.2219 33.3965 39.0879C31.1471 38.0357 29.5256 36.1367 28.8301 33.7324C28.4942 32.5842 28.4167 31.3842 28.5654 30.1992C27.9063 30.8101 27.1918 31.3942 26.4268 31.9443L29.0869 41.8613L29.666 44.0312L27.4707 44.709L22.4629 46.2666L20.3955 46.9141L19.5029 44.9854L10.2471 24.9199L9.96582 25.0449L8.1709 25.9014L6.06543 27.8525L0 17.9082L1.87988 16.0518L1.87891 16.0498L3.86719 14.8262C5.43959 13.8534 7.18286 12.9746 9.05176 12.2002C14.136 10.0962 19.3025 9.34578 23.6045 10.0762C25.3548 10.2687 27.0272 10.8351 28.4307 11.7432C30.4329 12.8282 32.0662 14.548 32.9941 16.6289C33.7798 18.3899 33.8907 20.3643 33.4248 22.3672C34.1106 21.8843 34.8551 21.4688 35.6533 21.1309C38.3474 20.0253 41.2522 19.9997 43.6689 21.0537L43.3564 17.7656L41.7744 18.1641L41.7998 18.3545L38.957 19.4697L38.6318 13.0117L40.9229 11.8164V11.8105L53.3555 7.95312L53.3164 9.75684L53.7529 8.95312L56.0254 7.75586L56.0283 7.75098L63.6758 14.3418L65.458 13.4199L63.8174 11.5361L73.1514 1.13965L75.4209 0ZM23.1797 12.4102C19.4805 11.7754 14.8553 12.3726 10.0078 14.375C8.2806 15.0838 6.65642 15.898 5.17578 16.8164L8.89941 22.9268C9.84786 22.4752 10.8801 21.9956 11.4395 21.71L21.7227 44.0156L26.7344 42.4609L23.6377 30.9219C29.5591 27.3723 32.5507 21.5872 30.7598 17.5674C30.0254 15.9168 28.7525 14.6205 27.0879 13.71C25.8744 12.9276 24.4884 12.5532 23.1797 12.4102ZM113.129 16.0244L114.901 16.4834L114.506 20.5156C115.693 21.5688 116.535 22.9548 116.926 24.5459C117.815 28.139 116.192 32.1038 113.13 34.6172L112.794 38.0361L117.484 38.7637L119.646 26.8877L120.012 41.9521L120.719 42.4834L124.319 43.5254L132.978 18.0635L126.83 16.7441L124.044 27.9629L121.327 15.4492L113.247 13.8721L113.129 16.0244ZM54.4199 14.5732L51.2803 18.8594L51.2549 18.4639L51.2559 18.4619L50.9863 14.0654L50.9756 14.0693L50.9854 14.0498L50.8174 11.291L43.2637 13.4756L43.3564 15.4424L45.4688 14.9111L46.1436 22.6895C47.188 23.6888 47.957 24.9363 48.373 26.373C49.1309 28.9867 48.5998 31.8371 47.1475 34.2559L47.4746 38.0713L52.1787 37.4482L52.1631 33.0176L52.0303 32.9541L52.1621 32.8564L52.1465 28.1924L70.3311 37.0264L70.3301 32.0469C68.5397 31.8749 66.8464 31.3515 65.3691 30.4658C63.8413 29.546 62.6235 28.2975 61.8252 26.8281L54.6777 24.082L62.2852 16.2969L56.8447 11.2646L54.4199 14.5732ZM94.4893 11.1143L92.8438 20.1357L91.376 12.3516H85.5107L83.5645 23.5967L85.3955 25.1904L83.5117 27.0742C83.2995 27.2862 83.0835 27.4873 82.8643 27.6875L82.0469 32.4102L83.6865 32.6865L88.0938 31.9531L89.2383 24.9307H89.2773L92.7656 32.2383L95.0957 26.3916L96.4785 35.292L100.216 37.5039L102.929 37.9072L102.707 36.4824C102.479 36.3933 102.258 36.2899 102.045 36.1855C99.9253 35.0863 98.4464 33.2043 97.874 30.8672C97.1337 27.8526 98.2102 24.5567 100.426 22.1055L98.6846 11.1143H94.4893ZM43.875 23.2178C41.9414 21.9417 39.2418 21.6802 36.5518 22.7832C32.3395 24.5457 29.7215 29.1608 30.8467 33.0371C32.0083 37.0459 36.3559 38.8348 40.7031 37.0459C42.4029 36.3352 43.8475 35.1727 44.8818 33.7646C45.9692 32.3083 46.6193 30.5861 46.6768 28.8682C46.6999 28.2977 46.6508 27.7189 46.5293 27.1543C46.4935 26.9926 46.4578 26.8272 46.4043 26.6699C45.9791 25.1878 45.0691 24.0045 43.875 23.2178ZM112.614 21.543C110.834 20.3003 108.307 19.9805 105.743 20.9092C104.642 21.3206 103.652 21.9293 102.798 22.6729C102.032 23.3492 101.385 24.1337 100.881 24.9688C99.8692 26.6773 99.4616 28.6284 99.9033 30.4551C100.282 31.9756 101.142 33.1868 102.309 34.0068C103.042 34.5138 103.886 34.8637 104.811 35.041C106.137 35.2972 107.627 35.1819 109.124 34.6279C109.883 34.3561 110.588 33.9795 111.229 33.5361C112.087 32.9425 112.831 32.2178 113.441 31.4111C114.866 29.5183 115.516 27.1682 114.971 24.9746C114.818 24.3409 114.565 23.7609 114.24 23.2344C113.812 22.5677 113.269 21.9936 112.614 21.543ZM39.4668 23.8516C39.721 23.8516 39.9676 23.8754 40.2041 23.917C38.9696 24.0218 38.0061 24.9239 38.0059 26.0176C38.0059 27.1907 39.1007 28.1317 40.4502 28.1318C41.7963 28.1318 42.8955 27.1913 42.8955 26.0176C42.8955 25.8208 42.8612 25.6357 42.8047 25.4688C43.2228 26.0233 43.4658 26.6974 43.4658 27.4121C43.4656 29.4757 41.6879 31.0957 39.4307 31.0957C37.2123 31.0956 35.4329 29.4766 35.4326 27.4121C35.4326 25.4772 37.2115 23.8517 39.4668 23.8516ZM79.9102 16.6914C77.7647 14.1343 74.2647 12.956 70.291 13.8867C68.5239 14.2992 66.9694 15.0669 65.752 16.1221C65.4198 16.4073 65.1147 16.7159 64.8359 17.043C64.8392 17.0403 64.8425 17.0378 64.8457 17.0352C64.7047 17.2029 64.5703 17.3679 64.4424 17.54C63.1497 19.3202 62.625 21.5915 63.2393 24.1328C63.3356 24.5276 63.4635 24.8973 63.6289 25.2627C64.9568 28.2801 68.4558 30.1412 72.627 29.7432C73.1777 29.6961 73.741 29.6025 74.3154 29.4746C75.8489 29.1147 77.164 28.652 78.3408 28.0518L79.1895 23.0371L77.9727 21.9736C77.6407 22.3519 77.2912 22.7176 76.8906 23.0508L76.8945 23.0557C76.8588 23.084 76.8247 23.1108 76.79 23.1416C76.7963 23.1328 76.8029 23.1239 76.8096 23.1152C76.1525 23.6451 75.3561 24.0857 74.2705 24.3428C73.6678 24.4829 72.8513 24.6136 72.3379 24.5195L79.9102 16.6914ZM108.062 21.9277C108.319 21.9366 108.564 21.9642 108.799 22.0156C107.561 22.0711 106.558 22.9356 106.513 24.0283C106.46 25.1942 107.519 26.1883 108.866 26.2334C110.215 26.2946 111.346 25.3915 111.398 24.2227C111.405 24.0274 111.38 23.8437 111.332 23.6582C111.724 24.2396 111.941 24.923 111.915 25.6357C111.825 27.6921 109.982 29.2497 107.724 29.1621C105.504 29.0685 103.798 27.3836 103.885 25.3174C103.962 23.3854 105.807 21.8332 108.062 21.9277ZM20.0098 19.7842C23.1639 18.1133 26.3454 19.4162 26.7988 21.7793C27.4302 25.0525 25.0519 26.8278 22.6855 28.3057L22.1025 26.4854L20.8232 22.4893L20.0098 19.7842ZM24.0762 21.0469C23.5478 20.8002 22.9057 20.7532 22.2373 20.8691C22.4126 21.4418 22.5612 21.9442 22.5664 21.9629C22.5664 21.9629 23.3216 24.3212 23.666 25.4131C24.7947 24.4358 25.2661 23.4653 25.0049 22.1064C24.8912 21.5023 24.3716 21.1835 24.0762 21.0469ZM68.415 18.292C70.0233 16.581 72.7642 16.4585 74.5273 18.0293C74.6317 18.1214 74.7326 18.2233 74.833 18.3252L69.1455 24.5811C68.9892 24.4728 68.8342 24.3622 68.6904 24.2275C66.9248 22.663 66.7973 20.0002 68.415 18.292ZM58.3594 23.2803L60.8887 24.2285C60.6683 23.1449 60.6169 22.0756 60.7178 21.0537L58.3594 23.2803ZM72.6152 18.5996C71.5703 18.2083 70.3448 18.4495 69.5449 19.2959C68.7133 20.1786 68.6009 21.4387 69.1572 22.4307L72.6152 18.5996ZM111.782 18.9092C112.137 19.0358 112.483 19.1825 112.816 19.3535C112.83 19.3638 112.845 19.3784 112.869 19.3877L112.985 18.3418L111.782 18.9092ZM69.4424 9.83203L69.9785 10.623L77.7393 6.88672L75.0244 3.30469L69.4424 9.83203Z" fill="#F2F2F2"/>
<path d="M95.696 64.1905C95.6958 64.191 95.6956 64.1914 95.6956 64.1921C95.8751 64.2184 96.0548 64.2438 96.2343 64.2709C96.0548 64.2438 95.8755 64.2169 95.696 64.1905Z" fill="#F2F2F2"/>
<path d="M78.869 62.7351C79.4834 62.7555 80.1022 62.7801 80.7235 62.8074C80.7235 62.8071 80.7235 62.8068 80.7235 62.8066C80.1017 62.7793 79.4836 62.7555 78.869 62.7351Z" fill="#F2F2F2"/>
<path d="M76.0372 63.3174C75.9366 63.3157 75.8363 63.3143 75.736 63.3123C75.8363 63.314 75.9366 63.3157 76.0372 63.3174Z" fill="#F2F2F2"/>
<path d="M80.1191 63.4348C80.1113 63.4346 80.1036 63.4342 80.096 63.434C80.1036 63.4345 80.1113 63.4346 80.1191 63.4348Z" fill="#F2F2F2"/>
<path d="M97.7831 65.1773C97.7835 65.1775 97.7841 65.1775 97.7847 65.1778C97.7842 65.1776 97.7835 65.1776 97.7831 65.1773Z" fill="#F2F2F2"/>
<path d="M75.7637 62.6586C74.9296 62.6453 74.1046 62.6375 73.2891 62.6352C74.1046 62.6375 74.9298 62.6453 75.7637 62.6586Z" fill="#F2F2F2"/>
<path d="M77.2849 63.3431C77.2772 63.3429 77.2697 63.3428 77.2621 63.3425C77.2697 63.3427 77.2772 63.3429 77.2849 63.3431Z" fill="#F2F2F2"/>
<path d="M102.056 65.9708C102.165 65.9929 102.273 66.0155 102.382 66.0381C102.273 66.0155 102.165 65.9929 102.056 65.9708Z" fill="#F2F2F2"/>
<path d="M72.7249 62.6337C72.7249 62.634 72.7249 62.6346 72.7249 62.6348C72.8218 62.6348 72.9176 62.6344 73.0147 62.6344C72.9184 62.6344 72.8212 62.6337 72.7249 62.6337" fill="#F2F2F2"/>
<path d="M103.506 65.6119C103.506 65.6117 103.506 65.6113 103.506 65.6111C103.176 65.5386 102.846 65.4678 102.516 65.3987C102.846 65.4678 103.176 65.5395 103.506 65.6119" fill="#F2F2F2"/>
<path d="M88.2255 47.0079C96.8038 47.0079 103.758 54.0655 103.758 62.7714C103.758 63.5161 103.705 64.2482 103.607 64.9655C103.577 65.1822 103.544 65.3974 103.506 65.611C103.506 65.6112 103.506 65.6116 103.506 65.6118C103.467 65.8264 103.424 66.04 103.377 66.2517C103.377 66.2519 103.377 66.2523 103.377 66.2527C103.329 66.466 103.277 66.6777 103.221 66.888C102.639 69.0779 101.604 71.0795 100.224 72.782C102.45 70.0539 103.788 66.5527 103.788 62.7338C103.788 54.0279 96.8341 46.9704 88.256 46.9704C83.4223 46.9704 79.1045 49.2113 76.256 52.7251C79.105 49.2329 83.409 47.0079 88.2255 47.0079" fill="#F2F2F2"/>
<path d="M99.1042 65.4051C99.2123 65.424 99.3203 65.4435 99.4285 65.463C99.3201 65.4435 99.2123 65.424 99.1042 65.4051Z" fill="#F2F2F2"/>
<path d="M64.1577 62.8164C63.8026 62.8312 63.4527 62.8471 63.1051 62.8636C63.4527 62.8471 63.8028 62.8312 64.1577 62.8164Z" fill="#F2F2F2"/>
<path d="M46.2089 63.6596C46.2321 63.8786 46.2656 64.0945 46.3072 64.3076C46.3494 64.5241 46.4017 64.7373 46.462 64.947C46.524 65.1617 46.5949 65.3727 46.6747 65.5793C47.7756 68.4213 50.5458 70.4437 53.783 70.4437C56.1669 70.4437 58.2973 69.347 59.6947 67.6342C58.2969 69.3255 56.18 70.4061 53.8137 70.4061C49.6136 70.4061 46.1968 67.0035 46.1968 62.8211C46.1968 61.0028 46.8429 59.3327 47.9182 58.0246C46.8246 59.3381 46.1661 61.0233 46.1661 62.8588C46.1661 63.1292 46.181 63.3963 46.2089 63.6596Z" fill="#F2F2F2"/>
<path d="M53.783 46.9359C58.321 46.9359 62.6469 48.8988 65.653 52.3216L65.6885 52.2895C62.6823 48.8633 58.3541 46.8983 53.8137 46.8983C48.8922 46.8983 44.4883 49.1685 41.5821 52.7219C44.4886 49.19 48.8789 46.9359 53.783 46.9359Z" fill="#F2F2F2"/>
<path d="M69.2097 58.9072L69.2093 59.2626C69.4155 60.1608 69.5436 61.0799 69.5926 62.005C69.6041 62.2226 69.6104 62.4406 69.613 62.6586C69.613 62.6588 69.613 62.6591 69.613 62.6592C69.6139 62.7257 69.6159 62.7922 69.6159 62.8589C69.6159 63.0107 69.6132 63.1619 69.609 63.313C69.609 63.313 69.609 63.3135 69.609 63.3137C69.603 63.5324 69.5918 63.7505 69.5769 63.9674C69.3434 67.3666 68.0448 70.4755 66.0146 72.9583C68.2822 70.2027 69.6465 66.6692 69.6465 62.8212C69.6465 61.609 69.5096 60.3992 69.24 59.2251L69.2402 58.8696L69.002 58.8646H53.4781V58.902H68.9714L69.2096 58.9072" fill="#F2F2F2"/>
<path d="M60.5673 62.9986C60.24 63.0178 59.9154 63.0377 59.5966 63.058C59.9154 63.0377 60.2401 63.0178 60.5673 62.9986Z" fill="#F2F2F2"/>
<path d="M59.5561 62.4052C62.9203 62.1906 66.2834 62.057 69.5927 62.005C69.5436 61.0799 69.4155 60.1607 69.2093 59.2625L69.2097 58.9071L68.9715 58.9019H53.4782V62.8764C55.3801 62.703 57.4143 62.5418 59.5561 62.4052" fill="#F2F2F2"/>
<path d="M60.848 63.6372C60.7678 63.6419 60.688 63.6468 60.6081 63.6512C60.6879 63.6468 60.7678 63.6419 60.848 63.6372Z" fill="#F2F2F2"/>
<path d="M65.5254 63.418C65.4378 63.4212 65.3506 63.4243 65.2634 63.4277C65.3505 63.4243 65.4378 63.4212 65.5254 63.418Z" fill="#F2F2F2"/>
<path d="M69.613 62.659C69.613 62.6589 69.613 62.6588 69.613 62.6585C69.0722 62.667 68.5369 62.6773 68.0075 62.6899C68.5363 62.6773 69.0727 62.6674 69.613 62.659" fill="#F2F2F2"/>
<path d="M88.2693 56.5934C84.9259 56.5934 82.2057 59.354 82.2057 62.7472C82.2057 66.1404 84.9259 68.901 88.2693 68.901C91.6128 68.901 94.3329 66.1404 94.3329 62.7472C94.3329 59.354 91.6128 56.5934 88.2693 56.5934ZM88.2693 57.1342C91.3237 57.1342 93.8 59.6473 93.8 62.7472C93.8 65.8472 91.3237 68.3602 88.2693 68.3602C85.2147 68.3602 82.7386 65.8472 82.7386 62.7472C82.7386 59.6473 85.2147 57.1342 88.2693 57.1342Z" fill="#F2F2F2"/>
<path d="M82.3 63H86.3" stroke="#F2F2F2" stroke-width="0.389455" stroke-miterlimit="10"/>
<path d="M90.2 63H94.2" stroke="#F2F2F2" stroke-width="0.389455" stroke-miterlimit="10"/>
<path d="M88.2558 60.3811C86.9627 60.3811 85.9106 61.4488 85.9106 62.7612C85.9106 64.0735 86.9627 65.1412 88.2558 65.1412C89.5489 65.1412 90.6009 64.0735 90.6009 62.7612C90.6009 61.4488 89.5489 60.3811 88.2558 60.3811ZM88.2558 60.9219C89.2567 60.9219 90.0681 61.7454 90.0681 62.7612C90.0681 63.7769 89.2567 64.6005 88.2558 64.6005C87.2548 64.6005 86.4435 63.7769 86.4435 62.7612C86.4435 61.7454 87.2548 60.9219 88.2558 60.9219Z" fill="#F2F2F2"/>
<path d="M88.2559 81.2518C98.3166 81.2518 106.502 72.9448 106.502 62.7343C106.502 52.5237 98.3167 44.2167 88.2559 44.2167C80.2911 44.2167 73.2383 49.4964 70.8564 57.1444C70.829 57.057 70.8011 56.968 70.7715 56.8778L70.7227 56.7303H64.0059L68.6729 52.5116L68.5684 52.3553C65.1636 47.2592 59.5149 44.2167 53.459 44.2167C43.3981 44.2169 35.2129 52.5238 35.2129 62.7343C35.2131 72.9446 43.3982 81.2516 53.459 81.2518C61.4232 81.2518 68.4753 75.9725 70.8574 68.3251C73.2397 75.9725 80.2916 81.2518 88.2559 81.2518ZM88.2559 79.8055C78.9808 79.8055 71.4348 72.1473 71.4346 62.7343C71.4346 53.321 78.9807 45.663 88.2559 45.663C97.5309 45.663 105.077 53.321 105.077 62.7343C105.077 72.1473 97.5308 79.8055 88.2559 79.8055ZM53.8135 79.7255C44.5504 79.7253 37.0147 72.1421 37.0146 62.8212C37.0146 53.5005 44.5504 45.917 53.8135 45.9169C58.6293 45.9169 63.2208 48.0025 66.4102 51.6376L67.0527 52.37L66.3311 53.0223L60.9521 57.8837H69.0225L69.2607 57.8885C69.2607 57.8885 69.6668 58.143 69.793 58.2821C69.9209 58.4238 70.1182 58.8466 70.124 58.8593L70.2061 59.1141C70.4759 60.3261 70.6133 61.5728 70.6133 62.8212C70.6133 72.1421 63.0767 79.7255 53.8135 79.7255ZM53.8135 78.744C62.5436 78.744 69.6465 71.6012 69.6465 62.8212C69.6465 61.609 69.5099 60.3986 69.2402 59.2245C69.2377 59.213 69.1814 58.9593 69.1445 58.9081C69.1162 58.8692 69.097 58.8645 69.0947 58.8641H53.4785V63.5341C55.393 63.3588 57.4413 63.1959 59.5967 63.0585C59.9155 63.0381 60.2402 63.018 60.5674 62.9989C60.65 62.9939 60.7331 62.989 60.8164 62.9843C61.1454 62.9652 61.4774 62.9465 61.8145 62.9286C61.8166 62.9283 61.8192 62.9278 61.8213 62.9276C62.1587 62.9097 62.5016 62.8926 62.8467 62.8759C62.9324 62.8719 63.0191 62.8683 63.1055 62.8641C63.453 62.8476 63.8033 62.8311 64.1582 62.8163C64.1598 62.8161 64.1615 62.8164 64.1631 62.8163C64.5185 62.8013 64.8789 62.7877 65.2412 62.7743C65.3292 62.771 65.4176 62.7677 65.5059 62.7645C66.2385 62.7384 66.9852 62.7152 67.7441 62.6962C67.8319 62.6941 67.9199 62.6925 68.0078 62.6903C68.5365 62.6777 69.0731 62.6675 69.6133 62.6591C69.6142 62.7256 69.6162 62.7926 69.6162 62.8593C69.6162 63.011 69.6135 63.1624 69.6094 63.3134C69.4633 63.3155 69.316 63.3176 69.1709 63.3202C69.167 63.3202 69.1629 63.3202 69.1592 63.3202C68.7777 63.3272 68.4 63.3348 68.0244 63.3436C67.9331 63.3458 67.8419 63.3479 67.751 63.3505C67.3742 63.3594 66.9993 63.3702 66.6289 63.3817H66.625C66.2548 63.3931 65.889 63.4049 65.5254 63.4178C65.4379 63.421 65.3507 63.4243 65.2637 63.4276C64.5383 63.4544 63.8264 63.4845 63.1299 63.5175C63.0462 63.5212 62.9622 63.5252 62.8789 63.5292C62.5336 63.5458 62.1902 63.5631 61.8525 63.5809C61.8514 63.5811 61.8498 63.5808 61.8486 63.5809C61.5107 63.5989 61.1778 63.6184 60.8477 63.6376C60.7676 63.6422 60.688 63.6468 60.6084 63.6512C60.2811 63.6707 59.9558 63.6907 59.6367 63.7108C57.4656 63.8494 55.4038 64.0137 53.4785 64.1903V66.0585H60.7002C59.4782 68.6257 56.851 70.4061 53.8135 70.4061C49.6135 70.406 46.1973 67.0034 46.1973 62.8212C46.1973 58.6389 49.6135 55.2363 53.8135 55.2362C56.0119 55.2362 58.104 56.1836 59.5527 57.8348L65.6885 52.2899C62.6823 48.8637 58.3539 46.8983 53.8135 46.8983C45.0833 46.8984 37.9805 54.0412 37.9805 62.8212C37.9805 71.6012 45.0833 78.7439 53.8135 78.744ZM88.2559 78.4969C96.8339 78.4969 103.788 71.44 103.788 62.7343C103.788 54.0283 96.834 46.9706 88.2559 46.9706C79.8116 46.9707 72.9412 53.8092 72.7285 62.327L72.7246 62.6346H73.0146C73.1059 62.6348 73.1974 62.6353 73.2891 62.6356C74.1045 62.638 74.9298 62.6458 75.7637 62.6591C75.8576 62.6607 75.9517 62.6623 76.0459 62.6639C76.8809 62.6787 77.7247 62.6986 78.5752 62.7255C78.673 62.7285 78.7712 62.732 78.8691 62.7352C79.4836 62.7557 80.1024 62.7801 80.7236 62.8075C80.7262 63.0281 80.7371 63.2469 80.7578 63.4628C80.5446 63.4533 80.3307 63.4432 80.1182 63.4344C80.1107 63.4343 80.1029 63.4346 80.0957 63.4344C79.6779 63.4175 79.2622 63.4024 78.8477 63.3885C78.7441 63.3853 78.6405 63.3821 78.5371 63.3788C78.118 63.3655 77.6995 63.3538 77.2842 63.3436C77.2767 63.3434 77.269 63.3428 77.2617 63.3427C76.8513 63.3328 76.4434 63.3244 76.0371 63.3173C75.9366 63.3155 75.8365 63.3143 75.7363 63.3124C75.3254 63.3058 74.9153 63.3007 74.5088 63.2968C74.5018 63.2968 74.4944 63.296 74.4873 63.2958C74.0862 63.292 73.6877 63.29 73.291 63.2889C73.1932 63.2888 73.0955 63.2891 72.998 63.2889C72.9102 63.2889 72.8219 63.288 72.7344 63.288C72.728 63.1042 72.7236 62.9196 72.7236 62.7343C72.7238 71.44 79.6777 78.4969 88.2559 78.4969ZM88.3096 70.3495C84.1357 70.3495 80.7521 66.9156 80.752 62.6796C80.752 58.4434 84.1356 55.0087 88.3096 55.0087C92.4839 55.0087 95.8672 58.4434 95.8672 62.6796C95.8672 63.1988 95.8157 63.7059 95.7188 64.1962C95.8905 64.2212 96.0627 64.2444 96.2344 64.2704C96.346 64.2874 96.4578 64.3049 96.5693 64.3221C97.008 64.3898 97.4469 64.4586 97.8848 64.5311C97.8904 64.5322 97.8958 64.5332 97.9014 64.5341C98.3398 64.6069 98.7782 64.6829 99.2158 64.7606C99.3278 64.7805 99.4406 64.8009 99.5527 64.8212C99.9899 64.9002 100.427 64.9813 100.863 65.0653C100.868 65.0663 100.873 65.0676 100.877 65.0682C101.314 65.1527 101.75 65.2405 102.185 65.33C102.295 65.3528 102.405 65.3751 102.516 65.3983C102.846 65.4674 103.176 65.5397 103.506 65.6122C103.467 65.8267 103.424 66.0402 103.377 66.2518C103.046 66.179 102.714 66.1077 102.382 66.038C102.273 66.0154 102.165 65.9927 102.057 65.9706C101.184 65.7906 100.307 65.6215 99.4287 65.4628C99.3204 65.4433 99.2126 65.4241 99.1045 65.4052C98.6652 65.327 98.2254 65.2505 97.7852 65.1776H97.7832C97.3426 65.1045 96.9015 65.0347 96.46 64.9667C96.3519 64.9498 96.2429 64.9334 96.1348 64.9169C95.944 64.8881 95.7533 64.8598 95.5625 64.8319C94.6454 68.0197 91.7471 70.3495 88.3096 70.3495ZM53.8135 69.4257C55.8032 69.4257 57.6746 68.5241 58.9238 67.0389H52.5117V57.8837H58.2285C57.0176 56.8164 55.4497 56.2177 53.8135 56.2177C50.1464 56.2178 47.1631 59.1799 47.1631 62.8212C47.1631 66.4626 50.1465 69.4255 53.8135 69.4257ZM38.2061 65.5018C38.7023 65.4118 41.6744 64.8851 46.3076 64.3075C46.3498 64.524 46.4016 64.7374 46.4619 64.9471C41.8234 65.5236 38.8427 66.0503 38.3291 66.1434C38.284 65.9309 38.2425 65.717 38.2061 65.5018Z" fill="#F2F2F2"/>
</svg>
