<svg width="111" height="67" viewBox="0 0 111 67" fill="none" xmlns="http://www.w3.org/2000/svg">
<path d="M103.754 66.5368C98.1823 67.3548 98.2524 60.0553 102.64 59.6215C107.651 59.1217 108.266 65.8717 103.754 66.5368Z" fill="#F2F2F2"/>
<path d="M110.559 40.784L106.406 57.4031L101.143 56.3993L102.348 39.2969L110.559 40.784Z" fill="#F2F2F2"/>
<path d="M98.1658 42.0317L95.7367 60.3569L89.9918 59.51L90.3795 52.9169L85.0594 52.5534L84.6057 58.7045H78.4196L79.2444 39.2845L85.7852 40.1727L85.4305 47.5507L90.8166 47.7903L91.6167 40.937L98.1658 42.0317Z" fill="#F2F2F2"/>
<path d="M73.2685 51.7478L75.7718 56.2341C67.2143 62.0547 55.5678 54.8088 59.7827 44.3739C62.5871 37.442 71.4415 37.5123 77.1823 40.532L74.1634 45.4356C71.59 43.5642 66.1132 43.4238 65.6183 47.3234C64.9543 52.574 69.231 54.5775 73.2685 51.7478Z" fill="#F2F2F2"/>
<path d="M59.4445 43.4155L54.4997 43.4196V57.052H48.7259L48.3176 43.4155L43.8182 43.3742L43.3646 38.4583L59.061 38.2269L59.4445 43.4155Z" fill="#F2F2F2"/>
<path d="M39.8714 38.8631L31.5036 39.3836L27.2847 57.8782L33.4131 57.4114L34.0688 54.5527L39.1827 54.214L40.721 57.3949L46.6639 57.0478L39.8714 38.8631ZM37.6485 49.8475H34.7617C34.5885 47.8729 35.1658 45.9685 35.5906 44.0682C36.5969 44.4152 37.9331 49.5666 37.6485 49.8475Z" fill="#F2F2F2"/>
<path d="M25.833 57.8659C25.0205 58.0352 21.0944 58.5599 20.7232 58.2459C20.1623 55.8912 19.9685 53.4209 19.4447 51.0621C19.3128 50.4713 19.4365 49.7732 18.624 49.6162L17.7415 58.2335L12.2894 59.1506L8.72203 51.2686V59.9438L2.94827 60.3569C3.15448 55.9491 2.66783 51.3141 2.9524 46.9352C3.02251 45.8529 3.33594 42.0482 4.04116 41.8251L9.48087 41.4203L13.8772 51.2645L15.766 40.561L22.278 40.1686L26.4681 57.2545C26.5712 58.1757 26.3361 57.7585 25.833 57.8659Z" fill="#F2F2F2"/>
<path d="M111 24.0039V32.2659H94.2974C93.8767 32.2659 92.99 31.6091 92.0333 32.27L91.1837 4.77396L91.8229 3.34875H100.277V24.0039H111Z" fill="#F2F2F2"/>
<path d="M84.1933 7.47974L74.081 7.88458L66.4596 31.8486L74.0439 32.2906L75.1203 27.7217L81.8797 27.697L83.4056 32.6377L91.2043 32.2617L84.1933 7.47974ZM80.6012 21.9342L76.2668 21.5335L78.0113 14.4033L79.1495 13.6845L81.0466 21.0914L80.6012 21.9342Z" fill="#F2F2F2"/>
<path d="M73.8913 5.21177L64.81 20.9055V32.2658H55.3245C54.8461 28.8536 55.972 23.6609 55.3245 20.4924C54.6317 17.0926 48.8167 9.68567 47.299 5.81077C47.134 5.38528 46.9814 5.07545 47.0763 4.58799L56.5783 3.95181L58.9661 9.82199L60.4755 12.4328L64.5955 4.17076C65.0327 3.6709 65.6472 3.71635 66.2493 3.72461C67.9319 3.737 71.5364 4.25338 73.2603 4.60038C73.7758 4.70366 73.9944 4.29056 73.8913 5.21177Z" fill="#F2F2F2"/>
<path d="M50.9035 15.4196C48.7795 8.52077 42.5233 6.44286 35.8339 7.57476C23.8122 9.61136 23.6967 32.5096 39.0796 32.6377C48.8909 32.7203 53.6707 24.4045 50.9035 15.4196ZM38.2342 25.9206C33.4873 24.4293 33.71 15.4981 38.4651 13.8787C45.9834 12.2139 45.8968 28.3207 38.2342 25.9206Z" fill="#F2F2F2"/>
<path d="M21.9274 18.6458C27.9733 15.9524 27.5238 6.06685 22.7069 2.34893C20.8551 0.9196 18.2611 0.213196 15.9557 0.0272999C13.7287 -0.150334 1.52128 0.547809 0.432513 1.86147C-0.140739 2.83639 0.00772903 4.13353 0.0448461 5.22825C0.263424 12.1271 0.931531 20.2197 1.71099 27.0979C1.81409 27.9819 2.19351 31.8651 2.51107 32.084L11.5635 31.3941L10.7552 21.7978L12.2522 21.1203L20.9788 31.3776L28.027 28.4694C29.2271 26.4039 21.2304 19.6125 21.9274 18.6458ZM15.4072 12.3088C14.0173 13.891 11.9429 13.796 10.017 13.7258L9.77775 7.91342C10.2933 7.18223 14.1534 7.34747 14.9535 8.16128C15.9763 9.04532 16.1248 11.1976 15.4072 12.3088Z" fill="#F2F2F2"/>
</svg>
