<svg width="154" height="22" viewBox="0 0 154 22" fill="none" xmlns="http://www.w3.org/2000/svg">
<path d="M20.8267 10.695C20.8267 4.77603 25.7097 0 31.8234 0C37.9782 0 42.861 4.77603 42.861 10.695C42.861 16.5729 37.9782 21.4305 31.8234 21.4305C25.7097 21.4305 20.8267 16.5321 20.8267 10.695ZM37.609 10.695C37.609 7.75621 35.0238 5.1431 31.8234 5.1431C28.6638 5.1431 26.12 7.75621 26.12 10.695C26.12 13.6749 28.7049 16.2874 31.8234 16.2874C35.0238 16.2874 37.609 13.6749 37.609 10.695Z" fill="#F2F2F2"/>
<path d="M131.299 10.8578C131.299 4.36755 136.613 0 141.43 0C144.726 0 146.62 0.979492 147.897 2.89861L148.391 0.367695H153.333V21.0226H148.391L147.773 18.8996C146.332 20.451 144.519 21.4305 141.472 21.4305C136.654 21.4305 131.299 17.2669 131.299 10.8578ZM148.103 10.8171C148.103 7.67464 145.508 5.1431 142.296 5.1431C139.125 5.1431 136.571 7.71543 136.571 10.8996C136.571 13.7565 139.166 16.3282 142.296 16.3282C145.549 16.2874 148.103 13.7157 148.103 10.8171Z" fill="#F2F2F2"/>
<path d="M125.375 2.88972V0.521945H120.131V20.8266H125.375V9.87129C125.375 6.58106 126.977 4.85545 129.818 4.85545C130.018 4.85545 130.179 4.85546 130.339 4.89563L131.299 0C128.578 0.0401733 126.616 0.962934 125.375 2.88972Z" fill="#F2F2F2"/>
<path d="M71.8084 2.88972V0.521945H66.4041L66.4455 20.8266H71.8505L71.8084 9.87129C71.8084 6.58106 73.4589 4.85545 76.3474 4.85545C76.5535 4.85545 76.7182 4.85546 76.8841 4.89563L77.874 0C75.068 0.0401733 73.0468 0.962934 71.8084 2.88972Z" fill="#F2F2F2"/>
<path d="M44.9739 12.9464V0.301636H50.2513V12.2935C50.2513 14.9447 51.7018 16.4946 54.2398 16.4946C57.0599 16.4946 58.7119 14.741 58.7119 11.3965V0.301636H63.9894V20.9403H58.7119V18.5345C57.4629 20.4919 55.4487 21.43 52.6688 21.43C47.9148 21.4708 44.9739 18.004 44.9739 12.9464Z" fill="#F2F2F2"/>
<path d="M96.8898 10.675C96.8898 4.88913 101.067 -0.0405354 107.619 0.000251301C113.719 0.000251301 118.019 4.88914 118.019 10.5928C118.019 11.1635 117.977 11.7747 117.896 12.3046L102.131 12.2638C102.746 14.7491 104.793 16.5008 107.864 16.5415C109.747 16.5415 111.754 15.8488 112.982 14.3004L116.627 17.2343C114.743 19.8821 111.426 21.4304 107.905 21.4304C101.681 21.3492 96.8898 16.7044 96.8898 10.675ZM112.655 8.55625C112.368 6.47797 110.157 4.84834 107.619 4.84834C105.121 4.84834 103.114 6.31513 102.336 8.51546L112.655 8.55625Z" fill="#F2F2F2"/>
<path d="M77.874 16.56L82.6341 14.0843C83.4136 15.7887 85.0138 16.7627 87.2292 16.7627C89.2811 16.7627 90.0609 16.1132 90.0609 15.2205C90.0609 11.9327 78.7357 13.9221 78.7357 6.37223C78.7357 2.19206 82.4289 0 86.9832 0C90.4298 0 93.5072 1.50174 95.1896 4.34332L90.4706 6.81905C89.7739 5.43905 88.4604 4.66778 86.7781 4.66778C85.1368 4.66778 84.3572 5.23634 84.3572 6.16952C84.3572 9.37603 95.6824 7.3462 95.6824 15.0178C95.6824 18.9952 92.3999 21.4305 87.1062 21.4305C82.593 21.39 79.4334 19.9287 77.874 16.56Z" fill="#F2F2F2"/>
<path d="M0 10.5846C0 4.70856 4.84217 0 10.905 0C14.8113 0 18.1887 1.93231 20.1419 4.82908L15.5845 7.44557C14.5264 5.99687 12.8582 5.03117 10.905 5.03117C7.77185 5.03117 5.24906 7.60656 5.24906 10.5444C5.24906 13.4817 7.81249 16.0571 10.905 16.0571C12.9395 16.0571 14.7299 15.011 15.7065 13.4415L20.2231 16.0972C18.3108 19.1158 14.8519 21.1284 10.905 21.1284C4.84217 21.1686 0 16.3395 0 10.5846Z" fill="#F2F2F2"/>
</svg>
