<svg width="141" height="25" viewBox="0 0 141 25" fill="none" xmlns="http://www.w3.org/2000/svg">
<path d="M28.4575 6.97952C23.3353 6.97952 19.333 10.839 19.333 16.0056C19.333 21.1723 23.2342 24.9987 28.4575 24.9987C33.6808 24.9987 37.6498 21.1063 37.6498 15.9726C37.6498 10.872 33.7487 6.97952 28.4575 6.97952ZM28.4921 21.2752C25.5752 21.2752 23.4377 19.0266 23.4377 16.0069C23.4377 12.9529 25.5406 10.7056 28.4575 10.7056C31.409 10.7056 33.5452 12.9872 33.5452 16.0069C33.5452 19.0266 31.409 21.2752 28.4921 21.2752ZM38.7685 10.9063H41.3129V24.6646H45.383V7.31491H38.7685V10.9063ZM9.08992 10.7043C11.2274 10.7043 12.9233 12.0128 13.567 13.959H17.8752C17.0945 9.79852 13.6349 6.97952 9.12448 6.97952C4.00228 6.97952 0 10.839 0 16.0069C0 21.1749 3.90117 25 9.12448 25C13.5338 25 17.0612 22.181 17.8419 17.9862H13.567C12.9565 19.9324 11.2606 21.2752 9.1232 21.2752C6.17173 21.2752 4.10339 19.0266 4.10339 16.0069C4.10467 12.9529 6.13973 10.7043 9.08992 10.7043ZM116.103 14.3287L113.118 13.893C111.694 13.6923 110.676 13.2222 110.676 12.1144C110.676 10.9063 112 10.3029 113.797 10.3029C115.764 10.3029 117.02 11.1413 117.291 12.5172H121.225C120.784 9.02739 118.07 6.98079 113.899 6.98079C109.591 6.98079 106.742 9.16205 106.742 12.2491C106.742 15.2015 108.608 16.914 112.372 17.4501L115.357 17.8858C116.816 18.0865 117.63 18.6582 117.63 19.7317C117.63 21.1075 116.206 21.6779 114.238 21.6779C111.83 21.6779 110.473 20.7048 110.269 19.2286H106.267C106.641 22.618 109.32 25 114.204 25C118.648 25 121.598 22.9864 121.598 19.5297C121.598 16.4427 119.462 14.8318 116.103 14.3287ZM43.348 0.167691C41.8556 0.167691 40.7357 1.24117 40.7357 2.71736C40.7357 4.19356 41.8543 5.26704 43.348 5.26704C44.8404 5.26704 45.9603 4.19356 45.9603 2.71736C45.9603 1.24117 44.8404 0.167691 43.348 0.167691ZM103.079 13.2552C103.079 9.49743 100.772 6.98079 95.8883 6.98079C91.2755 6.98079 88.6978 9.29671 88.1884 12.8538H92.2252C92.4287 11.478 93.5141 10.3372 95.8205 10.3372C97.8901 10.3372 98.9076 11.243 98.9076 12.3507C98.9076 13.7939 97.0415 14.1623 94.7351 14.3973C91.6147 14.7327 87.7481 15.8062 87.7481 19.8333C87.7481 22.9547 90.089 24.967 93.82 24.967C96.7369 24.967 98.5684 23.7588 99.4848 21.8456C99.6205 23.5568 100.909 24.6646 102.708 24.6646H105.082V21.0745H103.08V13.2552H103.079ZM99.0766 17.6178C99.0766 19.9337 97.0415 21.6449 94.5649 21.6449C93.0379 21.6449 91.7491 21.0072 91.7491 19.6656C91.7491 17.9544 93.8187 17.4844 95.7181 17.2837C97.5496 17.116 98.5671 16.7132 99.0766 15.9409V17.6178ZM77.4704 6.97952C75.1973 6.97952 73.2979 7.91961 71.9412 9.49616V0H67.8711V24.6646H71.8733V22.383C73.23 24.0269 75.164 25 77.4704 25C82.3545 25 86.0522 21.1749 86.0522 16.0069C86.0522 10.839 82.2867 6.97952 77.4704 6.97952ZM76.8599 21.2752C73.943 21.2752 71.8055 19.0266 71.8055 16.0069C71.8055 12.9872 73.9762 10.7056 76.8932 10.7056C79.8446 10.7056 81.913 12.9542 81.913 16.0069C81.913 19.0266 79.7768 21.2752 76.8599 21.2752ZM58.1361 6.97952C55.4905 6.97952 53.7601 8.053 52.7425 9.56349V7.31491H48.7057V24.6633H52.7758V15.2345C52.7758 12.5832 54.4717 10.7043 56.9816 10.7043C59.3225 10.7043 60.7804 12.3482 60.7804 14.7314V24.6646H64.8505V14.4304C64.8518 10.0666 62.5799 6.97952 58.1361 6.97952ZM141 15.4365C141 10.4706 137.337 6.98079 132.418 6.98079C127.195 6.98079 123.362 10.8733 123.362 16.0069C123.362 21.4099 127.466 25 132.486 25C136.726 25 140.05 22.5164 140.898 18.9936H136.657C136.047 20.5371 134.554 21.4099 132.553 21.4099C129.94 21.4099 127.973 19.799 127.533 16.98H140.999V15.4365H141ZM127.771 14.0937C128.416 11.6774 130.247 10.5036 132.35 10.5036C134.657 10.5036 136.42 11.8121 136.827 14.0937H127.771Z" fill="#F2F2F2"/>
</svg>
