<svg width="165" height="33" viewBox="0 0 165 33" fill="none" xmlns="http://www.w3.org/2000/svg">
<path d="M39.874 8.52354C38.3156 8.52354 36.6688 9.28177 35.6396 10.4483H35.5809V3.12842H32.7284V24.4173H35.3456V22.93H35.4043C36.4041 24.0673 38.2272 24.8547 39.8153 24.8547C43.9319 24.8547 46.5785 21.6467 46.5785 16.6891C46.5785 11.8772 43.8144 8.52354 39.874 8.52354ZM39.3741 22.2884C37.2275 22.2884 35.5809 20.8303 35.5809 18.9055V14.7644C35.5809 12.6938 37.2275 11.119 39.3741 11.119C42.1676 11.119 43.726 13.1312 43.726 16.6891C43.726 20.2762 42.1676 22.2884 39.3741 22.2884Z" fill="#F2F2F2"/>
<path d="M23.4657 8.52393C19.2312 8.52393 16.3201 11.8777 16.3201 16.6895C16.3201 21.6181 19.143 24.8551 23.4657 24.8551C27.7295 24.8551 30.523 21.6181 30.523 16.6895C30.523 11.8777 27.6412 8.52393 23.4657 8.52393ZM23.4657 22.2888C20.7898 22.2888 19.143 20.1306 19.143 16.6895C19.143 13.2483 20.7898 11.1194 23.4657 11.1194C26.0533 11.1194 27.7001 13.3066 27.7001 16.6895C27.7001 20.1016 26.0533 22.2888 23.4657 22.2888Z" fill="#F2F2F2"/>
<path d="M14.9969 9.92346C14.9969 6.30727 12.2915 4.00342 8.05713 4.00342H0V24.4174H2.94056V16.3393H7.14556C10.3802 16.3393 11.5564 17.6224 11.5564 21.1802V24.4174H14.4087V21.1802C14.4087 17.9228 13.4089 15.9864 11.23 15.1903C13.4619 14.4145 14.9969 12.5889 14.9969 9.92346ZM7.8219 13.7438H2.94056V6.65722H7.79249C10.586 6.65722 12.0269 7.8529 12.0269 10.2151C12.0269 12.4898 10.5566 13.7438 7.8219 13.7438Z" fill="#F2F2F2"/>
<path d="M62.1339 8.52393C60.4873 8.52393 58.7229 9.31132 57.8701 10.4487H57.8114V8.96138H55.0179V24.4177H57.8701V14.7064C57.8701 12.5192 59.3111 11.1486 61.5754 11.1486C63.8101 11.1486 64.8686 12.4317 64.8686 15.1147V24.4177H67.7505V14.2982C67.7505 10.7403 65.5745 8.52393 62.1339 8.52393Z" fill="#F2F2F2"/>
<path d="M108.654 8.52393C104.419 8.52393 101.508 11.8777 101.508 16.6895C101.508 21.6181 104.331 24.8551 108.654 24.8551C112.917 24.8551 115.711 21.6181 115.711 16.6895C115.711 11.8777 112.829 8.52393 108.654 8.52393ZM108.654 22.2888C105.978 22.2888 104.331 20.1306 104.331 16.6895C104.331 13.2483 105.978 11.1194 108.654 11.1194C111.241 11.1194 112.888 13.3066 112.888 16.6895C112.888 20.1016 111.241 22.2888 108.654 22.2888Z" fill="#F2F2F2"/>
<path d="M128.473 3.12842V10.4483H128.414C127.385 9.25261 125.768 8.52354 124.209 8.52354C120.269 8.52354 117.475 11.9356 117.475 16.6891C117.475 21.6467 120.122 24.8547 124.239 24.8547C125.827 24.8547 127.65 24.0673 128.649 22.93H128.708V24.4173H131.325V3.12842H128.473ZM128.473 18.9055C128.473 20.8303 126.826 22.2884 124.68 22.2884C121.886 22.2884 120.328 20.2762 120.328 16.6891C120.328 13.1312 121.886 11.119 124.68 11.119C126.826 11.119 128.473 12.6938 128.473 14.7644V18.9055Z" fill="#F2F2F2"/>
<path d="M92.6864 8.52393C88.4519 8.52393 85.5409 11.8777 85.5409 16.6895C85.5409 21.6181 88.3638 24.8551 92.6864 24.8551C96.9503 24.8551 99.7438 21.6181 99.7438 16.6895C99.7438 11.8777 96.862 8.52393 92.6864 8.52393ZM92.6864 22.2888C90.0106 22.2888 88.3638 20.1306 88.3638 16.6895C88.3638 13.2483 90.0106 11.1194 92.6864 11.1194C95.2741 11.1194 96.9208 13.3066 96.9208 16.6895C96.9208 20.1016 95.2741 22.2888 92.6864 22.2888Z" fill="#F2F2F2"/>
<path d="M51.9008 3.12842H48.8132V6.13218H51.9008V3.12842Z" fill="#F2F2F2"/>
<path d="M77.9249 8.52354C76.1899 8.52354 74.4256 9.34009 73.6022 10.5066H73.5434V3.12842H70.6911V24.4173H73.5434V14.706C73.5434 12.6063 75.0725 11.1482 77.2484 11.1482C79.395 11.1482 80.63 12.548 80.63 14.9685V24.4173H83.4825V14.2686C83.4825 10.7399 81.3359 8.52354 77.9249 8.52354Z" fill="#F2F2F2"/>
<path d="M51.7832 8.96094H48.931V24.4171H51.7832V8.96094Z" fill="#F2F2F2"/>
<path d="M150.992 25.1519L150.777 25.222C149.395 25.677 147.351 26.3798 145.517 27.2167C145.419 27.2633 145.355 27.3917 145.355 27.3917C145.32 27.4705 145.278 27.5668 145.231 27.6747L145.225 27.6891C145.02 28.153 144.737 28.8498 144.614 29.1357L144.52 29.3603C144.505 29.3952 144.514 29.436 144.543 29.4623C144.561 29.4798 144.581 29.4885 144.605 29.4885C144.617 29.4885 144.631 29.4856 144.646 29.4798L144.867 29.3749C145.369 29.1385 146.005 28.7798 146.669 28.4649L146.693 28.4533C147.96 27.8584 149.389 27.1846 150.251 26.7763C150.251 26.7763 150.389 26.7035 150.46 26.5664L151.104 25.2833C151.121 25.2512 151.115 25.2103 151.092 25.1811C151.065 25.1519 151.027 25.1403 150.992 25.1519Z" fill="#F2F2F2"/>
<path d="M145.84 23.1657C145.931 22.9907 146.349 22.1916 146.443 22.0137L146.461 21.9817C149.26 16.747 152.671 11.8068 156.597 7.30406L156.705 7.17865C156.738 7.14075 156.744 7.0824 156.72 7.03866C156.694 6.992 156.644 6.96868 156.594 6.97452L156.429 6.99784C153.853 7.3507 151.245 7.83773 148.675 8.44723C148.419 8.51722 148.254 8.68345 148.219 8.72135C146.296 11.0048 144.476 13.4078 142.805 15.8721C142.723 15.9975 142.694 16.1608 142.714 16.2949C142.732 16.4262 143.135 19.5028 143.746 21.8651C142.229 26.1958 140.873 31.9029 140.873 31.9029C140.862 31.9408 140.87 31.9787 140.891 32.0108C140.915 32.0428 140.95 32.0603 140.991 32.0603H141.856C141.911 32.0603 141.958 32.0282 141.979 31.9787L142.038 31.8182C142.92 29.4328 143.926 27.0764 145.037 24.7783C145.293 24.2446 145.84 23.1657 145.84 23.1657Z" fill="#F2F2F2"/>
<path d="M157.864 8.24093L157.861 8.07762C157.858 8.02514 157.826 7.98137 157.779 7.96389C157.732 7.94639 157.676 7.96097 157.64 7.99887L157.532 8.12136C152.953 13.3736 149.104 19.2003 146.093 25.444L146.022 25.59C145.999 25.6365 146.008 25.692 146.043 25.7299C146.066 25.7531 146.099 25.7677 146.131 25.7677C146.146 25.7677 146.163 25.7648 146.181 25.7591L146.331 25.6977C148.904 24.6421 151.53 23.7264 154.138 22.9768C154.294 22.9332 154.426 22.8223 154.5 22.6795C155.644 20.4689 158.299 16.1878 158.299 16.1878C158.367 16.0916 158.349 15.9486 158.349 15.9486C158.349 15.9486 157.893 10.8306 157.864 8.24093Z" fill="#F2F2F2"/>
<path d="M163.783 0.856496C163.133 0.29657 162.189 0.0341061 160.725 0.00202693C159.396 -0.0271358 157.817 0.25866 156.026 0.841915C155.758 0.935237 155.544 1.08397 155.353 1.26769C153.532 2.96205 151.762 4.76139 150.089 6.61616L149.96 6.75612C149.924 6.79695 149.919 6.85529 149.945 6.89903C149.972 6.94568 150.027 6.96902 150.08 6.95736L150.268 6.91652C152.965 6.34494 155.688 5.90749 158.361 5.61879C158.537 5.59837 158.72 5.65669 158.849 5.77626C158.981 5.89583 159.055 6.06788 159.052 6.24577C159.008 8.87627 159.105 11.5184 159.34 14.0993L159.355 14.2685C159.361 14.321 159.396 14.3618 159.449 14.3764C159.458 14.3793 159.467 14.3793 159.478 14.3822C159.517 14.3822 159.558 14.3647 159.584 14.3297L159.681 14.1926C161.187 12.0638 162.825 9.9932 164.548 8.03345C164.742 7.81474 164.792 7.67767 164.827 7.47937C165.368 4.04398 164.533 1.501 163.783 0.856496Z" fill="#F2F2F2"/>
</svg>
