<svg width="124" height="23" viewBox="0 0 124 23" fill="none" xmlns="http://www.w3.org/2000/svg">
<path d="M20.3817 0C21.2189 1.33675 21.5964 2.71361 21.5964 4.45286C21.5964 10.0002 16.698 17.2066 12.7224 22.2668H3.64181L0 1.21457L7.95101 0.484791L9.87647 15.4648C11.6756 12.6313 13.8957 8.17845 13.8957 5.14253C13.8957 3.48079 13.6013 2.34893 13.1411 1.41696L20.3817 0Z" fill="#F2F2F2"/>
<path d="M30.6869 9.27175C32.15 9.27175 35.8335 8.62467 35.8335 6.60071C35.8335 5.62886 35.1227 5.14408 34.285 5.14408C32.8196 5.14408 30.8964 6.84301 30.6869 9.27175ZM30.5192 13.2802C30.5192 15.7515 31.9406 16.7211 33.8251 16.7211C35.8771 16.7211 37.8419 16.2362 40.3957 14.9816L39.4338 21.2961C37.6345 22.1459 34.8303 22.7131 32.1085 22.7131C25.2043 22.7131 22.7332 18.6652 22.7332 13.6047C22.7332 7.04586 26.7527 0.081543 35.0395 0.081543C39.6019 0.081543 42.1531 2.55265 42.1531 5.99353C42.1535 11.5407 34.7891 13.24 30.5192 13.2802Z" fill="#F2F2F2"/>
<path d="M65.0991 4.85973C65.0991 5.66928 64.9723 6.84353 64.8456 7.61093L62.4601 22.1862H54.7178L56.8942 8.8253C56.9354 8.46292 57.0623 7.73336 57.0623 7.32857C57.0623 6.35666 56.4342 6.1142 55.6791 6.1142C54.6762 6.1142 53.6708 6.55906 53.0013 6.88388L50.5329 22.1864H42.7471L46.3041 0.364681H53.0426L53.1279 2.10643C54.7177 1.09446 56.811 6.6779e-08 59.781 6.6779e-08C63.7162 -0.000416009 65.0991 1.94352 65.0991 4.85973Z" fill="#F2F2F2"/>
<path d="M88.0838 2.47037C90.3013 0.933507 92.3951 0.081543 95.2817 0.081543C99.257 0.081543 100.64 2.02548 100.64 4.94169C100.64 5.75129 100.513 6.92554 100.387 7.69294L98.0038 22.2681H90.2595L92.4776 8.6249C92.5183 8.26017 92.6043 7.81531 92.6043 7.53312C92.6043 6.43884 91.976 6.19615 91.2209 6.19615C90.2595 6.19615 89.2981 6.60094 88.5842 6.96583L86.1162 22.2684H78.3743L80.5918 8.62507C80.6325 8.2604 80.7162 7.81554 80.7162 7.53335C80.7162 6.43907 80.0872 6.19638 79.3351 6.19638C78.33 6.19638 77.3268 6.64124 76.6572 6.96606L74.1867 22.2686H66.4035L69.9603 0.446846H76.6165L76.8257 2.2686C78.3742 1.17684 80.4656 0.0823734 83.2697 0.0823734C85.6977 0.0815424 87.2868 1.09372 88.0838 2.47037Z" fill="#F2F2F2"/>
<path d="M116.046 8.82627C116.046 7.04484 115.585 5.83029 114.205 5.83029C111.15 5.83029 110.522 11.0524 110.522 13.7238C110.522 15.7505 111.109 17.0047 112.488 17.0047C115.376 17.0047 116.046 11.4975 116.046 8.82627ZM102.654 13.4013C102.654 6.51972 106.42 0.0805664 115.084 0.0805664C121.613 0.0805664 124 3.80614 124 8.94847C124 15.7502 120.275 22.7941 111.401 22.7941C104.83 22.7941 102.654 18.6237 102.654 13.4013Z" fill="#F2F2F2"/>
</svg>
