<svg width="86" height="70" viewBox="0 0 86 70" fill="none" xmlns="http://www.w3.org/2000/svg">
<path d="M86 49.9287H85.8398C84.8858 47.589 83.8065 45.3049 82.6018 43.0836H83.6602C84.4959 44.6852 85.2758 46.3077 86 47.9581V49.9287ZM0 9.55401C4.23385 8.13344 8.58607 7.13069 13.0149 6.55271L14.2753 0H24.4909L22.1998 5.94688C24.9504 5.93992 27.6941 6.10008 30.4238 6.42737L33.6062 0H44.8314L39.4834 8.11951C46.5793 9.95789 53.3339 12.9104 59.4897 16.8727C60.7153 17.6596 61.9061 18.4883 63.062 19.3448H61.4395C54.6361 14.5538 47.011 11.0303 38.9402 8.9621L32.4015 19.108H27.708V26.0159L16.1276 44.908H12.423V51.224L0.557085 69.754H0.181053L29.9921 7.3187C27.2972 7.00534 24.5814 6.85911 21.8726 6.88L0.0835628 69.754H0M0 68.5911L12.806 7.54154C8.46769 8.14737 4.19903 9.17798 0.0557085 10.6055H0" fill="#F2F2F2"/>
<path d="M35.354 35.0476H41.6351V29.1773H35.354V26.378H43L42.5822 20.4938H28.9615V42.039H35.354V35.0476ZM61.927 41.9764H68.8L71.9336 36.691L75.1438 41.9833H82.177L75.3945 30.8207L81.5015 20.5286H74.538L71.9127 24.9992L69.19 20.5147H62.108L68.3961 30.8695L61.927 41.9764ZM53.9328 42.2131C60.012 42.2967 65.0118 37.4501 65.1163 31.3709C64.8586 25.1872 59.6429 20.3824 53.4523 20.633C47.6238 20.8768 42.9582 25.5424 42.7145 31.3709C42.812 37.457 47.8258 42.3106 53.9119 42.2131H53.9328ZM51.9551 26.6426C51.9621 25.5772 52.8047 24.7137 53.8632 24.665C54.9564 24.6858 55.8408 25.5563 55.8826 26.6426V35.7858C55.806 36.8721 54.8659 37.6868 53.7796 37.6102C52.7977 37.5406 52.0248 36.7607 51.9551 35.7858V26.6426ZM36.8094 58.1249H43.3134V53.8144H36.8094V50.8828H44.7339V46.2172H31.7887V66.3628H44.8314V61.5161H36.8094V58.1249ZM64.8029 46.2172L62.31 57.7488L59.8727 46.2172H55.5692L53.2504 57.8672L50.834 46.2172H45.7019L50.3605 66.3628H55.04L57.331 54.8172L59.6917 66.3628H64.2737L68.9532 46.2172H64.8029ZM81.794 55.3186C80.457 54.086 78.925 53.7587 77.205 53.2713C75.1717 52.7003 74.0505 52.6376 74.0505 51.4538C74.1341 50.5764 74.914 49.9357 75.7914 50.0193C75.7984 50.0193 75.8053 50.0193 75.8053 50.0193C77.1006 49.9148 78.2844 50.7713 78.5838 52.0387L82.9778 50.5764C82.1631 47.5124 79.3219 45.4303 76.1535 45.5696C71.5645 45.5696 68.7582 48.3898 68.7582 52.185C68.7582 55.4648 70.6662 57.0803 74.4892 58.2224C76.7733 58.9118 77.9849 58.856 77.9849 60.3254C77.9849 61.0983 77.2677 61.7041 76.0769 61.7041C74.5032 61.8852 73.0687 60.8058 72.7971 59.246L67.9783 60.3045C68.8 64.1275 71.6481 66.3976 76.0143 66.3976C78.173 66.4533 80.2551 65.5968 81.7453 64.0369C82.8455 62.8253 83.4513 61.2445 83.4374 59.6011C83.5279 57.9995 82.9221 56.4397 81.787 55.3116H81.794V55.3186ZM25.5354 56.3283L19.5328 46.3077H13.7113V66.3767H18.8225V54.6501L25.6747 66.3488H30.5213V46.2798H25.5493L25.5354 56.3283Z" fill="#F2F2F2"/>
</svg>
