<svg width="205" height="33" viewBox="0 0 205 33" fill="none" xmlns="http://www.w3.org/2000/svg">
<path d="M34.8529 0C35.3533 0.211901 35.4189 0.387477 35.3831 0.932366L31.5165 24.187L18.2069 31.4159L11.9453 19.4949L1.13197 32.542C0.774508 33.0021 0.172775 32.8689 0 32.3301V32.209L5.85052 7.88273L17.6588 3.70525L26.095 16.165L34.3167 0.211901L34.7337 0H34.8529Z" fill="#F2F2F2"/>
<path d="M204.726 25.967C204.166 26.5361 203.38 26.1607 202.742 25.2163L195.921 16.831L192.209 20.6271L192.197 25.3373C191.965 26.4816 190.356 26.3 190.285 25.1557V7.71926C190.285 6.36309 192.191 6.35704 192.191 7.65872V17.7997L192.37 17.7089L202.945 6.96247C203.827 6.34493 204.869 7.38627 204.315 8.29442L197.333 15.4082L204.369 24.1446C204.595 24.3989 205.423 25.2586 204.726 25.973V25.967Z" fill="#F2F2F2"/>
<path d="M85.7917 19.9792L85.9228 19.9005L89.1936 11.9088C89.8549 10.7282 91.4457 10.7463 92.1129 11.8906L95.4671 19.9852C95.5386 19.9368 95.5505 19.8641 95.5744 19.7915C96.9625 15.9954 97.7609 11.7271 99.1729 7.94924C99.8878 6.03608 102.426 6.58096 102.348 8.57284L97.0459 24.9195C96.6289 26.2636 95.0084 26.5905 94.1922 25.3917C92.9172 22.7702 92.0533 19.8278 90.7963 17.2184C90.7546 17.1276 90.7129 16.9944 90.6056 16.9581L87.162 25.2949C86.5186 26.536 84.8147 26.3302 84.3202 25.0709L79.0297 8.95426C78.4577 7.01082 81.0553 5.87866 82.0205 7.67074L85.7798 19.9852L85.7917 19.9792Z" fill="#F2F2F2"/>
<path d="M55.9433 19.1922V8.02198C55.9433 7.97355 56.1638 7.52553 56.2174 7.45288C57.0992 6.16936 59.0652 6.81112 59.1546 8.33681L59.1665 24.4353C59.0295 26.0154 57.2958 26.6875 56.277 25.4342L47.9063 13.5072V24.738C47.9063 24.8348 47.7038 25.2707 47.6323 25.3676C46.8518 26.5119 45.2194 26.2213 44.7785 24.9499C44.57 19.4102 44.7487 13.822 44.6891 8.27021C44.8202 6.69609 46.6016 6.11487 47.5787 7.33179L55.9493 19.1983L55.9433 19.1922Z" fill="#F2F2F2"/>
<path d="M67.3823 10.1107V14.6818L67.4716 14.7726H73.7868C74.4541 14.7726 75.1393 15.7897 75.1273 16.4375C75.1154 17.164 74.4184 18.1024 73.6677 18.1024H67.3823V22.7643H74.7401C74.8294 22.7643 75.181 22.9398 75.2882 22.9943C76.7061 23.7935 76.2295 25.967 74.5673 26.0941C71.6659 26.3121 68.4963 25.9246 65.5711 26.0941C64.6178 25.9488 64.177 25.2405 64.1055 24.3142V8.62743C64.1174 7.73744 64.6 6.93222 65.5115 6.79297H74.7341C76.0031 7.0412 76.5751 8.50634 75.7231 9.54163C74.8712 10.5769 75.0082 10.1168 74.7401 10.1168H67.3823V10.1107Z" fill="#F2F2F2"/>
<path d="M110.504 6.79898C112.798 6.61735 115.175 7.48917 116.992 8.88772C118.553 10.0865 117.159 12.3266 115.515 11.5395C114.723 11.1581 114.061 10.5284 113.168 10.1712C111.541 9.52948 109.134 9.66268 107.955 11.1097C106.477 12.9138 108.884 13.931 110.266 14.3306C112.28 14.9178 114.049 14.9965 115.932 16.1408C120.043 18.6352 118.947 23.5029 114.919 25.3373C112.048 26.645 108.991 26.1546 106.322 24.629C105.208 23.9872 103.135 22.7945 104.344 21.2506C105.423 19.8703 106.674 21.3354 107.633 21.9045C109.414 22.964 111.333 23.4363 113.34 22.7037C115.354 21.9711 116.623 19.949 114.264 18.617C112.375 17.5454 109.891 17.5878 107.847 16.6615C101.842 13.937 104.654 7.26516 110.499 6.79898H110.504Z" fill="#F2F2F2"/>
<path d="M123.731 6.7384C125.149 6.78078 126.662 6.62942 128.068 6.72024C132.405 6.99874 134.371 12.1086 131.375 15.2871C134.496 16.8007 135.67 20.7299 133.686 23.6905C131.291 27.2626 127.133 25.9185 123.51 26.1243C123.081 25.9488 122.843 25.5734 122.855 25.0951V7.65866C122.903 7.19853 123.284 6.79289 123.737 6.7384H123.731ZM124.815 14.7725H128.3C128.467 14.7725 129.093 14.5243 129.277 14.4334C131.541 13.2952 131.369 9.88665 129.045 8.93007C128.95 8.88769 128.473 8.71817 128.419 8.71817H124.815V14.7725ZM124.815 24.2172H129.492C129.974 24.2172 130.952 23.7389 131.339 23.4302C133.531 21.6441 133.025 18.0842 130.433 17.0308C130.29 16.9702 129.73 16.7765 129.611 16.7765H124.815V24.2233V24.2172Z" fill="#F2F2F2"/>
<path d="M141.199 25.4584C141.032 26.409 139.411 26.4937 139.292 25.3374V7.65874C139.298 7.11385 139.715 6.79297 140.216 6.72032C143.439 6.94433 147.145 5.84244 149.569 8.59716C151.899 11.2429 151.315 15.4385 148.348 17.2851C149.569 18.1872 150.445 19.3012 150.666 20.8632C150.791 21.7411 150.654 22.6311 150.88 23.4908C151.047 24.1083 151.113 23.848 151.524 24.1083C152.268 24.5685 151.953 25.7914 151.113 25.9065C150.213 26.0336 149.528 25.3737 149.212 24.5806C148.348 22.401 149.641 20.5 147.27 18.9258C146.93 18.7018 145.697 18.1024 145.339 18.1024H141.199V25.4584ZM145.995 8.71825H141.199V16.1651H145.935C146.406 16.1651 147.407 15.6262 147.782 15.3175C150.213 13.2893 149.051 9.0694 145.995 8.71825Z" fill="#F2F2F2"/>
<path d="M158.536 8.71821V15.4991H166.132C166.269 15.4991 166.573 15.7412 166.662 15.8684C166.99 16.3285 166.942 16.9097 166.49 17.2548C166.037 17.5999 166.21 17.4364 166.192 17.4364H158.536V24.2173H167.264C167.288 24.2173 167.616 24.3989 167.651 24.4292C168.205 24.8833 168.009 26.0094 167.264 26.1486H157.44C157.082 26.1123 156.826 25.9246 156.683 25.5916L156.635 7.59211C156.671 7.02906 157.172 6.73845 157.678 6.71423H167.091C167.741 6.82927 168.08 7.33783 167.949 8.0038C167.818 8.66978 167.449 8.71216 167.157 8.71216H158.548L158.536 8.71821Z" fill="#F2F2F2"/>
<path d="M183.016 21.3172H175.075L173.371 25.7611C172.632 26.651 171.333 25.9911 171.685 24.8347C173.913 19.2708 175.659 13.3981 177.917 7.85843C178.048 7.53149 178.137 7.21061 178.441 6.99871C178.882 6.696 179.597 6.79892 179.877 7.28327L186.406 25.2162C186.305 26.3483 184.947 26.5239 184.524 25.5068L183.016 21.3172ZM175.754 19.3737H182.248L179.06 10.595L175.754 19.3737Z" fill="#F2F2F2"/>
</svg>
