<svg width="188" height="41" viewBox="0 0 188 41" fill="none" xmlns="http://www.w3.org/2000/svg">
<path d="M22.1845 0C22.1328 0 0.0415977 8.22648 0.0114752 8.2578C0 8.26777 -0.00286881 13.8147 0.00286881 20.5833L0.014344 32.8888L2.7684 31.8196C4.28313 31.2316 5.97285 30.5752 6.52079 30.3602L7.51914 29.9716V19.954C7.51914 13.0445 7.53348 9.92787 7.56791 9.90794C7.6511 9.85669 22.1357 6.43112 22.173 6.45248C22.2189 6.48095 22.2189 35.8887 22.173 35.9158C22.1543 35.9271 17.2128 35.2622 11.1912 34.4393C5.17102 33.615 0.229504 32.9458 0.212292 32.9515C0.193644 32.9586 5.0993 34.7696 11.1138 36.9793C17.1268 39.1876 22.0984 40.9972 22.1615 41C22.2246 41.0014 25.0189 40.2511 28.3696 39.3314L34.463 37.6584L34.4515 20.5776L34.44 3.49675L28.3352 1.74838C24.9787 0.787339 22.2103 0 22.1845 0ZM80.8917 6.45105C79.7886 6.45105 79.0987 6.59628 78.271 7.00063C76.9959 7.62423 75.9947 8.79741 75.5428 10.1941C75.2775 11.0199 75.2602 11.1979 75.2373 13.315L75.2158 15.2627H72.1935V17.6318H75.2229V32.849H78.0229V17.6318H84.9539V32.849H87.7539V17.6318H91.9309V15.2627H87.7539V13.7478C87.7568 11.6307 87.8385 11.0057 88.2201 10.2126C88.56 9.50929 89.1955 9.02521 90.003 8.85578C90.7102 8.70914 91.7616 8.83016 92.3913 9.13057L92.6208 9.2402V6.70875L92.3554 6.63757C91.8606 6.49946 91.403 6.45105 90.6227 6.45248C89.5196 6.45248 88.8297 6.59485 88.002 7.00063C86.7269 7.62423 85.7256 8.79741 85.2738 10.1941C85.0084 11.0199 84.9912 11.1979 84.9683 13.315L84.9468 15.2627H78.0229V13.7478C78.0258 11.6307 78.1075 11.0057 78.4891 10.2126C78.829 9.50929 79.4645 9.02521 80.272 8.85578C80.9792 8.70914 82.0306 8.83016 82.6603 9.13057L82.8898 9.2402V6.70875L82.6245 6.63757C82.1296 6.49946 81.672 6.45105 80.8917 6.45248V6.45105ZM95.9701 7.16293C95.2816 7.18429 94.7007 7.5445 94.3923 8.15672C94.0337 8.8686 94.1671 9.74848 94.7136 10.2753C94.9634 10.5087 95.2714 10.6718 95.6058 10.748C97.1177 11.0427 98.2939 9.69438 97.7617 8.28059C97.5494 7.71962 96.9068 7.24124 96.2714 7.17432C96.171 7.16293 96.0691 7.16009 95.9701 7.16293ZM144.708 7.80363C144.492 7.80647 144.271 7.81502 144.046 7.82925C142.357 7.93746 141.214 8.21652 139.909 8.84012C139.55 9.01097 139.245 9.17898 139.232 9.21172C139.217 9.24589 139.213 9.85953 139.22 10.5771L139.232 11.8813L139.737 11.5453C141.076 10.654 142.377 10.2254 143.898 10.1742C146.698 10.0788 148.343 11.131 148.729 13.2666C149.004 14.7872 148.715 16.201 147.931 17.162C147.319 17.9123 146.322 18.442 145.035 18.6997C144.18 18.8705 143.65 18.9075 142.142 18.9075H140.769V21.2667L142.548 21.2881C144.054 21.3066 144.421 21.3251 144.939 21.4062C146.319 21.6198 147.373 22.0099 148.116 22.5766C148.505 22.8871 148.843 23.2543 149.12 23.6657C149.798 24.7877 149.918 26.6271 149.396 27.9199C148.93 29.0789 147.804 30.0641 146.45 30.4984C145.16 30.9112 143.469 30.9625 141.97 30.6336C140.703 30.3546 139.58 29.8392 138.394 28.992L138.289 28.9194L138.302 30.44L138.314 31.9606L138.91 32.2581C140.003 32.802 141.2 33.0996 142.763 33.2149C143.466 33.2661 144.905 33.2305 145.566 33.1437C146.734 32.9928 147.702 32.7151 148.594 32.2738C150.127 31.5149 151.292 30.3816 151.942 29.0176C152.441 27.9698 152.645 26.9233 152.599 25.6319C152.566 24.6567 152.415 24.0331 152.035 23.2813C151.157 21.5443 149.397 20.3768 147.161 20.0423C146.952 20.0109 146.782 19.9711 146.782 19.9526C146.782 19.9355 147.005 19.8458 147.276 19.7532C147.86 19.5491 148.425 19.2927 148.963 18.9873C149.412 18.7003 149.827 18.3646 150.201 17.9864C150.961 17.1606 151.443 16.1212 151.624 14.921C151.715 14.323 151.715 13.0744 151.625 12.5618C151.324 10.8434 150.268 9.45376 148.627 8.61802C147.525 8.05563 146.223 7.78512 144.707 7.80363H144.708ZM59.0945 7.80363C57.9652 7.79097 56.8385 7.91189 55.738 8.16384C54.0316 8.55383 52.4418 9.3377 51.0977 10.4518C48.9992 12.2016 47.5863 14.9523 47.113 18.2241C46.8533 20.0294 46.905 22.3103 47.2464 23.9903C47.7972 26.6955 49.1728 29.1244 51.0303 30.6706C52.2699 31.6887 53.7154 32.4306 55.269 32.8461C55.9884 33.0239 56.7208 33.1457 57.4593 33.2106C58.1478 33.2661 59.5822 33.232 60.2994 33.1437C63.6846 32.7265 66.4415 31.0693 68.2116 28.3841C68.6814 27.6249 69.0846 26.8271 69.4165 25.9993C69.8183 24.8677 70.0982 23.697 70.2513 22.5068C70.3187 22.0113 70.3345 21.5756 70.3345 20.2743C70.3345 18.5345 70.2986 18.0988 70.0519 16.9285C69.0751 12.2771 65.9581 9.00528 61.6133 8.06702C60.7848 7.89558 59.9409 7.80781 59.0945 7.80505V7.80363ZM165.831 7.81786C164.712 7.81359 164.255 7.86485 163.376 8.08838C161.687 8.51693 160.165 9.47085 158.975 10.8462C157.622 12.4081 156.641 14.4725 156.083 16.9257C155.445 19.7362 155.387 23.4963 155.943 26.1089C156.191 27.2792 156.495 28.1634 156.975 29.113C158.209 31.5619 160.135 32.9486 162.667 33.2135C163.235 33.2718 164.351 33.2291 164.965 33.1252C166.307 32.8914 167.56 32.3032 168.594 31.4224C169.776 30.4115 170.727 28.75 171.09 27.0628C171.354 25.8313 171.359 24.2808 171.106 22.9709C170.684 20.7983 169.317 18.9673 167.456 18.086C165.5 17.1577 162.694 17.1976 161.009 18.18C160.076 18.7224 159.402 19.4158 158.814 20.4338C158.726 20.5758 158.648 20.7232 158.579 20.8752C158.579 20.8951 158.559 20.9122 158.533 20.9122C158.433 20.9122 158.5 19.3432 158.651 18.2241C159.196 14.165 161.204 11.195 163.931 10.4105C164.665 10.1998 165.124 10.1486 166.039 10.1756C167.253 10.2112 168.331 10.4589 169.357 10.9359C169.491 11.0002 169.626 11.0605 169.763 11.1167C169.772 11.1167 169.779 10.523 169.779 9.79974V8.48133L169.463 8.36316C168.519 8.00438 167.312 7.82213 165.831 7.81786ZM181.139 8.20085C177.998 8.20085 175.423 8.20655 175.422 8.21224C175.407 8.27347 174.571 20.5292 174.581 20.542C174.588 20.552 174.818 20.5363 175.09 20.5078C176.697 20.3427 179.606 20.3242 180.474 20.4751C182.158 20.7684 183.322 21.3749 184.118 22.3744C184.796 23.2244 185.11 24.2253 185.11 25.5323C185.11 27.4999 184.265 29.039 182.651 30.0114C180.936 31.0436 178.341 31.1277 176.034 30.225C175.408 29.9875 174.808 29.6884 174.243 29.3323L174.093 29.2426V32.241L174.541 32.4503C175.057 32.6905 175.6 32.8674 176.159 32.9771C176.618 33.0768 177.661 33.2035 178.202 33.2277C180.746 33.3388 182.602 32.9871 184.202 32.093C185.962 31.1077 187.248 29.4761 187.72 27.6323C188.156 25.9309 188.075 23.7981 187.521 22.3687C186.627 20.0608 184.619 18.5587 181.805 18.0917C180.815 17.928 180.082 17.8952 178.669 17.9536C177.966 17.9821 177.384 17.9963 177.372 17.9849C177.354 17.9664 177.774 11.6777 177.837 11.037L177.866 10.7522H186.854V8.20085H181.139ZM58.7058 10.3863C59.4072 10.3806 60.1244 10.4433 60.7871 10.5757C63.9571 11.2036 66.2149 13.6026 67.0067 17.1819C67.4886 19.3688 67.4628 22.1437 66.9407 24.1626C65.9581 27.9541 63.4293 30.2036 59.6855 30.6151C59.1232 30.6777 57.8997 30.6649 57.3675 30.5937C53.2393 30.0285 50.4666 26.7382 50.0219 21.8746C49.9502 21.0901 49.9889 19.2891 50.0908 18.6342C50.3949 16.7021 50.9944 15.1659 51.9971 13.7478C52.3801 13.2068 53.321 12.2728 53.879 11.8813C54.7401 11.2898 55.7025 10.8589 56.7192 10.6099C57.3187 10.4675 58.0044 10.392 58.7058 10.3863ZM109.657 14.864C109.363 14.8598 109.066 14.8697 108.768 14.8911C106.874 15.0249 105.523 15.4549 104.182 16.349C102.059 17.7657 100.728 20.0821 100.395 22.9453C100.292 23.8366 100.325 25.5935 100.46 26.3339C100.808 28.2388 101.65 29.8548 102.918 31.0579C104.29 32.3578 105.84 33.0127 108.065 33.232C108.415 33.2661 109.811 33.212 110.283 33.1451C111.249 33.0202 112.188 32.7323 113.057 32.2937L113.596 32.0218V29.3437L113.141 29.6384C112.364 30.1486 111.499 30.5138 110.59 30.7162C109.977 30.8472 108.853 30.8771 108.184 30.7788C106.94 30.5966 105.956 30.131 105.11 29.3209C103.96 28.2218 103.364 26.8322 103.221 24.9072C103.108 23.4052 103.4 21.7365 103.973 20.6075C104.414 19.739 105.295 18.7182 106.024 18.2369C107.091 17.5293 108.229 17.2303 109.649 17.283C110.9 17.3153 112.12 17.6849 113.176 18.3523C113.385 18.4818 113.566 18.5886 113.577 18.5886C113.587 18.5886 113.596 17.9451 113.596 17.1591V15.7283L113.217 15.5688C112.159 15.1189 110.932 14.8783 109.657 14.864ZM123.654 14.864C121.815 14.8798 120.042 15.5531 118.662 16.7605C117.095 18.1088 115.971 20.4025 115.71 22.7901C115.639 23.455 115.65 25.1165 115.733 25.8327C116 28.1079 116.772 29.8548 118.093 31.1647C118.803 31.8939 119.679 32.4444 120.646 32.7707C121.376 33.0227 121.89 33.1238 122.984 33.232C123.354 33.269 124.935 33.212 125.489 33.1423C127.064 32.9429 128.472 32.4617 129.535 31.7555L129.845 31.5505V28.9365L129.26 29.328C127.739 30.3474 126.128 30.8443 124.344 30.8443C122.656 30.8443 121.317 30.3745 120.328 29.4348C119.266 28.4268 118.73 27.1112 118.575 25.1379L118.543 24.7392H131.099L131.07 23.4294C131.056 22.6833 131.013 21.8746 130.97 21.55C130.706 19.4671 130.016 17.9294 128.815 16.742C127.653 15.593 126.352 15.0392 124.465 14.8911C124.192 14.8697 123.921 14.8612 123.654 14.864ZM94.5931 15.2627V32.849H97.3931V15.2627H95.9931H94.5931ZM123.723 17.2745C123.816 17.2745 123.909 17.2773 124.006 17.2816C125.167 17.33 125.972 17.6375 126.688 18.3067C127.576 19.1382 128.041 20.2857 128.172 21.9715L128.204 22.3701H118.595L118.625 22.1993C118.859 20.8538 119.433 19.6621 120.269 18.7851C121.251 17.7529 122.334 17.2773 123.723 17.2759V17.2745ZM163.605 19.8016C164.408 19.8016 164.514 19.8116 164.936 19.9241C165.739 20.1377 166.256 20.4253 166.835 20.9777C167.416 21.5315 167.798 22.1594 168.075 23.0193C168.288 23.68 168.362 24.1712 168.39 25.0809C168.416 26.0021 168.347 26.63 168.145 27.3248C167.637 29.0675 166.441 30.2905 164.832 30.7133C164.424 30.8215 163.271 30.87 162.852 30.7959C162.377 30.6942 161.916 30.5325 161.482 30.3147C160.432 29.7338 159.483 28.5279 159.044 27.2166C158.793 26.4734 158.712 25.9779 158.685 25.0354C158.659 24.0587 158.718 23.6515 158.991 22.9111C159.431 21.7152 160.528 20.5904 161.716 20.1206C162.41 19.8444 162.661 19.8016 163.605 19.8016Z" fill="#F2F2F2"/>
</svg>
