<svg width="148" height="37" viewBox="0 0 148 37" fill="none" xmlns="http://www.w3.org/2000/svg">
<path d="M47.1936 28.8136L49.0361 24.6183C51.0273 26.075 53.6723 26.8325 56.2876 26.8325C58.2193 26.8325 59.4378 26.1041 59.4378 24.997C59.408 21.9088 47.8771 24.3269 47.788 16.5773C47.7582 12.6443 51.3245 9.61434 56.3767 9.61434C59.3783 9.61434 62.3799 10.3427 64.5197 12.0033L62.796 16.286C60.8345 15.0624 58.3976 14.1884 56.0795 14.1884C54.5044 14.1884 53.4643 14.9167 53.4643 15.849C53.494 18.8789 65.1141 17.2183 65.2329 24.6183C65.2329 28.6388 61.7558 31.4647 56.7631 31.4647C53.1076 31.4647 49.7494 30.6199 47.1936 28.8136ZM117.895 23.1033C116.973 24.6765 115.25 25.7545 113.259 25.7545C110.316 25.7545 107.939 23.4238 107.939 20.5395C107.939 17.6553 110.316 15.3246 113.259 15.3246C115.25 15.3246 116.973 16.4025 117.895 17.9758L122.977 15.208C121.075 11.8868 117.419 9.61434 113.259 9.61434C107.107 9.61434 102.114 14.5088 102.114 20.5395C102.114 26.5702 107.107 31.4647 113.259 31.4647C117.449 31.4647 121.075 29.2214 122.977 25.871L117.895 23.1033ZM67.7888 0.553711H74.1486V31.0569H67.7888V0.553711ZM125.473 0.553711V31.0569H131.833V21.9088L139.382 31.0569H147.525L137.925 20.1899L146.811 10.0513H139.025L131.833 18.471V0.553711H125.473ZM93.0498 23.1616C92.1285 24.6474 90.2265 25.7545 88.0868 25.7545C85.1446 25.7545 82.7671 23.4238 82.7671 20.5395C82.7671 17.6553 85.1446 15.3246 88.0868 15.3246C90.2265 15.3246 92.1285 16.4899 93.0498 18.0049V23.1616ZM93.0498 10.0513V12.5277C92.0096 10.8088 89.4241 9.61434 86.7197 9.61434C81.1325 9.61434 76.7341 14.4506 76.7341 20.5104C76.7341 26.5702 81.1325 31.4647 86.7197 31.4647C89.4241 31.4647 92.0096 30.2702 93.0498 28.5513V31.0277H99.4096V10.0513H93.0498Z" fill="#F2F2F2"/>
<path d="M7.8755 23.1323C7.8755 25.2591 6.12209 26.978 3.95261 26.978C1.78313 26.978 0.0297165 25.2591 0.0297165 23.1323C0.0297165 21.0055 1.78313 19.2866 3.95261 19.2866H7.8755V23.1323ZM9.83695 23.1323C9.83695 21.0055 11.5904 19.2866 13.7598 19.2866C15.9293 19.2866 17.6827 21.0055 17.6827 23.1323V32.7465C17.6827 34.8732 15.9293 36.5921 13.7598 36.5921C11.5904 36.5921 9.83695 34.8732 9.83695 32.7465V23.1323Z" fill="#F2F2F2"/>
<path d="M13.7598 7.69134C11.5904 7.69134 9.83695 5.97244 9.83695 3.84567C9.83695 1.7189 11.5904 0 13.7598 0C15.9293 0 17.6827 1.7189 17.6827 3.84567V7.69134H13.7598ZM13.7598 9.64331C15.9293 9.64331 17.6827 11.3622 17.6827 13.489C17.6827 15.6157 15.9293 17.3346 13.7598 17.3346H3.92289C1.75341 17.3346 0 15.6157 0 13.489C0 11.3622 1.75341 9.64331 3.92289 9.64331H13.7598Z" fill="#F2F2F2"/>
<path d="M29.4811 13.489C29.4811 11.3622 31.2345 9.64331 33.404 9.64331C35.5735 9.64331 37.3269 11.3622 37.3269 13.489C37.3269 15.6157 35.5735 17.3346 33.404 17.3346H29.4811V13.489ZM27.5197 13.489C27.5197 15.6157 25.7663 17.3346 23.5968 17.3346C21.4273 17.3346 19.6739 15.6157 19.6739 13.489V3.84567C19.6739 1.7189 21.4273 0 23.5968 0C25.7663 0 27.5197 1.7189 27.5197 3.84567V13.489Z" fill="#F2F2F2"/>
<path d="M23.5968 28.9008C25.7663 28.9008 27.5197 30.6197 27.5197 32.7465C27.5197 34.8732 25.7663 36.5921 23.5968 36.5921C21.4273 36.5921 19.6739 34.8732 19.6739 32.7465V28.9008H23.5968ZM23.5968 26.978C21.4273 26.978 19.6739 25.2591 19.6739 23.1323C19.6739 21.0055 21.4273 19.2866 23.5968 19.2866H33.4337C35.6032 19.2866 37.3566 21.0055 37.3566 23.1323C37.3566 25.2591 35.6032 26.978 33.4337 26.978H23.5968Z" fill="#F2F2F2"/>
</svg>
