<svg width="122" height="28" viewBox="0 0 122 28" fill="none" xmlns="http://www.w3.org/2000/svg">
<path fill-rule="evenodd" clip-rule="evenodd" d="M99.3306 8.39647C99.797 9.21819 99.9496 10.1531 99.9999 11.2041L100.066 12.605V22.4009L100.134 23.8032C100.269 26.0934 101.923 27.7869 104.183 27.9309L105.549 28V12.605L105.616 11.2041C105.672 10.1648 105.823 9.21231 106.297 8.38472C106.78 7.53586 107.472 6.83158 108.306 6.34261C109.139 5.85363 110.083 5.59716 111.045 5.59895C112.006 5.60074 112.949 5.86072 113.781 6.35279C114.612 6.84486 115.303 7.55171 115.782 8.40235C116.248 9.22407 116.394 10.1766 116.45 11.2041L116.518 12.6006V22.4009L116.585 23.8032C116.726 26.1052 118.367 27.7986 120.634 27.9309L122 28V11.2041C122 8.23415 120.845 5.38575 118.789 3.28525C116.733 1.18475 113.945 0.00411322 111.037 0.00294388C109.48 0.00126748 107.941 0.338839 106.523 0.993107C105.104 1.64737 103.839 2.60327 102.811 3.79694C101.783 2.60374 100.517 1.64808 99.0987 0.993614C97.6803 0.339153 96.1416 0.000926804 94.5852 0.00147363C92.3082 0.00147363 90.1953 0.70706 88.445 1.92566C87.3771 0.708529 84.9878 0.00147363 83.6161 0.00147363V28L84.9878 27.9309C87.2821 27.7766 88.9402 26.1287 89.0294 23.8032L89.1028 22.4009V12.605L89.1704 11.2041C89.228 10.1472 89.372 9.21819 89.8397 8.3906C90.3227 7.54226 91.0151 6.83816 91.8478 6.34859C92.6805 5.85901 93.6244 5.60109 94.5852 5.60059C95.5468 5.6008 96.4914 5.85923 97.3243 6.34996C98.1572 6.84068 98.8491 7.54645 99.3306 8.39647ZM5.48239 27.9324L6.85406 28H27.4148L27.3472 26.6035C27.1615 24.3016 25.5653 22.6199 23.3041 22.47L21.9324 22.4009H9.59741L26.0431 5.59912L25.9755 4.20412C25.869 1.87863 24.2051 0.19845 21.9324 0.0705618L20.5607 0.00735339L0 0.00147363L0.0676482 1.40236C0.247564 3.68228 1.8668 5.39921 4.10927 5.5315L5.48239 5.60059H17.8174L1.37168 22.4024L1.43932 23.8032C1.57462 26.1111 3.20538 27.7824 5.48239 27.9309V27.9324ZM78.2345 4.09975C79.5076 5.39967 80.5174 6.94299 81.2065 8.64157C81.8955 10.3401 82.2501 12.1607 82.2501 13.9993C82.2501 15.8378 81.8955 17.6584 81.2065 19.357C80.5174 21.0555 79.5076 22.5989 78.2345 23.8988C75.6624 26.5235 72.1752 27.9979 68.5392 27.9979C64.9032 27.9979 61.416 26.5235 58.8439 23.8988C53.491 18.432 53.491 9.56657 58.8439 4.09975C60.1158 2.80026 61.6259 1.76937 63.288 1.06593C64.95 0.362493 66.7314 0.000290188 68.5305 3.37476e-06C70.3326 -0.00127437 72.1172 0.36029 73.7823 1.06402C75.4474 1.76774 76.9603 2.79982 78.2345 4.10122V4.09975ZM74.3555 8.06426C75.8973 9.6401 76.7634 11.7767 76.7634 14.0044C76.7634 16.2321 75.8973 18.3687 74.3555 19.9446C72.8125 21.5192 70.7205 22.4037 68.5392 22.4037C66.3579 22.4037 64.2659 21.5192 62.7229 19.9446C61.1811 18.3687 60.315 16.2321 60.315 14.0044C60.315 11.7767 61.1811 9.6401 62.7229 8.06426C64.2659 6.48961 66.3579 5.60509 68.5392 5.60509C70.7205 5.60509 72.8125 6.48961 74.3555 8.06426ZM39.7613 3.37476e-06C41.5605 0.000483238 43.342 0.362918 45.0041 1.06661C46.6661 1.7703 48.1762 2.80147 49.448 4.10122C54.8023 9.56657 54.8023 18.4334 49.448 23.8988C46.8759 26.5235 43.3887 27.9979 39.7527 27.9979C36.1167 27.9979 32.6295 26.5235 30.0574 23.8988C24.7046 18.432 24.7046 9.56657 30.0574 4.09975C31.3293 2.80026 32.8394 1.76937 34.5015 1.06593C36.1635 0.362493 37.945 0.000290188 39.7441 3.37476e-06H39.7613ZM45.569 8.06132C47.1113 9.63722 47.9776 11.7741 47.9776 14.0022C47.9776 16.2303 47.1113 18.3672 45.569 19.9431C44.026 21.5177 41.934 22.4023 39.7527 22.4023C37.5714 22.4023 35.4794 21.5177 33.9364 19.9431C32.3946 18.3673 31.5285 16.2307 31.5285 14.0029C31.5285 11.7752 32.3946 9.63863 33.9364 8.06279C35.4794 6.48814 37.5714 5.60362 39.7527 5.60362C41.934 5.60362 44.026 6.48814 45.569 8.06279V8.06132Z" fill="#F2F2F2"/>
</svg>
