<svg width="134" height="52" viewBox="0 0 134 52" fill="none" xmlns="http://www.w3.org/2000/svg">
<path d="M133.888 44.7616C133.831 44.6552 133.754 44.561 133.66 44.4847C133.566 44.4083 133.457 44.3513 133.341 44.3169C133.225 44.2825 133.102 44.2714 132.982 44.2844C132.861 44.2973 132.744 44.3339 132.638 44.3921C131.673 44.9242 128.438 45.9885 127.426 46.3618C123.603 46.9826 118.923 46.8422 116.63 41.3064C115.99 39.6154 115.125 38.0171 114.058 36.554C112.718 34.7617 108.325 32.6332 104.215 36.4838C103.229 37.403 102.374 38.4525 101.676 39.6028C101.39 40.0462 101.14 40.4897 100.891 40.9184C100.872 40.8629 100.854 40.8112 100.835 40.741C100.463 39.4993 99.3198 34.9022 94.5064 34.1594C93.8438 34.104 91.156 33.7898 87.4333 37.8548C86.1883 39.2375 85.0532 40.7139 84.0383 42.2709C83.9239 41.6145 83.7197 40.9767 83.4315 40.3751C80.2672 35.5489 75.4799 39.3995 73.4249 40.8371C68.8163 44.0632 66.672 48.3906 63.8465 38.5644C63.4743 37.1638 63.1876 35.7632 62.9717 34.3442C65.76 29.6066 71.478 15.2239 68.2058 5.57505C67.9936 4.97269 66.8507 1.85003 64.1108 2.04589C63.72 2.07915 60.5929 1.76134 58.8991 10.4161C57.3095 18.79 57.6483 29.5918 58.0392 33.1727C58.0764 33.5422 58.1657 34.2813 58.3072 35.2311C55.612 39.8245 52.0569 45.0388 49.894 45.2864C47.0871 45.6079 47.8726 43.0359 46.1713 37.3227C45.8661 36.5836 44.9205 33.0471 40.6655 33.2244C38.5771 33.3131 36.377 33.8453 33.3579 37.1268C28.4626 42.4483 17.2946 50.4305 9.3095 45.412C8.43468 44.7358 4.12756 41.2436 5.71714 30.7596C6.20077 27.8713 7.06046 25.0577 8.2746 22.3894C9.4381 19.7906 10.9023 17.3351 12.6376 15.0724C20.8274 5.06877 27.9526 3.89731 29.3449 3.986C32.9373 3.986 33.8828 8.59793 33.8642 8.56098C33.9374 8.91903 34.1415 9.2375 34.4373 9.45496C34.733 9.6724 35.0994 9.77342 35.4658 9.73853C35.8321 9.70363 36.1725 9.53528 36.4212 9.26597C36.6699 8.99666 36.8093 8.64546 36.8125 8.28012C36.7903 7.2809 36.5847 6.29408 36.2058 5.3681C35.6511 3.56103 34.028 1.85742 33.0787 1.23659C28.578 -1.88607 18.3928 0.634226 8.54636 11.9127C6.49383 14.4667 4.76592 17.2617 3.40164 20.2349C1.97797 23.3176 0.969151 26.573 0.401169 29.917C-2.26426 48.5236 9.15315 51.4689 11.0852 51.8421C21.0731 52.9914 28.4328 47.5997 31.9321 44.2849C33.1829 50.4933 39.437 50.5672 42.1881 47.7623C42.8831 47.0223 43.456 46.178 43.8856 45.2605C45.5124 51.1326 50.713 49.126 51.3309 48.8784C54.2234 47.7956 57.2611 43.786 59.424 40.4195C60.7828 45.0277 63.4259 49.9796 68.4813 49.4475C71.5376 49.3736 79.1653 41.3175 79.88 42.367C80.5799 43.2391 80.7735 44.8355 80.7214 47.2302C80.6693 49.6249 82.5827 49.7283 83.4389 49.4992C84.7791 49.1297 85.6167 46.5207 87.0127 44.248C87.871 42.8238 88.8766 41.4924 90.0131 40.2754C90.5678 39.6915 93.0508 37.1379 94.8005 38.0063C96.5501 38.8748 96.7325 40.6486 96.8554 41.6427C96.9782 42.6368 97.0006 43.6826 97.0341 44.8171C96.982 48.7712 98.8582 49.3218 99.3756 49.4623C103.698 50.6152 103.966 42.5444 107.149 39.5474C107.45 39.248 110.22 36.4099 111.794 41.0255C114.08 49.3957 121.101 52.5369 130.59 47.8695C131.678 47.3521 132.697 46.7029 133.624 45.9368C133.803 45.8017 133.928 45.6081 133.977 45.3904C134.026 45.1727 133.996 44.9447 133.892 44.7469M41.1978 43.0433C39.303 46.9124 35.1411 46.6796 35.2118 42.4594C35.2639 38.1505 40.6804 35.438 42.1248 38.435C42.2426 38.6927 42.3385 38.9597 42.4114 39.2332C42.1434 40.0462 42.0392 41.3249 41.1978 43.0433ZM64.4794 6.77238C65.2649 8.22839 66.981 17.4153 62.3165 27.4374C62.2979 27.1159 62.2979 26.798 62.2793 26.4802C62.2272 10.1796 64.3193 6.48783 64.4794 6.77238Z" fill="#F2F2F2"/>
</svg>
