<svg width="157" height="33" viewBox="0 0 157 33" fill="none" xmlns="http://www.w3.org/2000/svg">
<path d="M27.0025 17.8418C27.584 18.8571 27.9111 20.1264 27.9111 21.6132V21.6857C27.9111 23.2088 27.6204 24.5868 27.0025 25.8198C26.3847 27.0527 25.5125 28.0681 24.4222 28.9385C23.2956 29.7725 21.9509 30.4253 20.3519 30.8967C18.7528 31.3681 16.972 31.5857 15.0095 31.5857C12.0294 31.5857 9.23102 31.1868 6.65069 30.3527C4.07037 29.5187 1.85347 28.2857 0 26.6538L5.23333 20.4527C6.83241 21.6857 8.50417 22.556 10.2486 23.0637C11.9931 23.6077 13.7375 23.8615 15.4819 23.8615C16.3905 23.8615 17.0083 23.7527 17.4081 23.5352C17.8079 23.3176 17.9896 22.9912 17.9896 22.6286V22.556C17.9896 22.1209 17.6988 21.7945 17.1174 21.5044C16.5359 21.2143 15.4819 20.9242 13.9192 20.6341C12.2838 20.3077 10.7211 19.9088 9.23102 19.4736C7.74097 19.0385 6.43264 18.4582 5.30602 17.7692C4.1794 17.0802 3.27083 16.2099 2.61667 15.1582C1.88981 14.0341 1.56273 12.7286 1.56273 11.2055V11.133C1.56273 9.75495 1.81713 8.44945 2.36227 7.25275C2.90741 6.05604 3.70694 5.0044 4.76088 4.13407C5.81482 3.22747 7.12315 2.53846 8.64954 2.03077C10.1759 1.52308 11.9567 1.26923 13.9919 1.26923C16.8266 1.26923 19.3343 1.5956 21.4421 2.28462C23.5863 2.93736 25.4762 3.95275 27.1843 5.29451L22.4234 11.8582C21.0424 10.8429 19.5523 10.1176 18.0259 9.64615C16.4632 9.17473 15.0095 8.95714 13.6648 8.95714C12.938 8.95714 12.3928 9.06593 12.0657 9.28352C11.7023 9.5011 11.5569 9.79121 11.5569 10.1538V10.2264C11.5569 10.6253 11.8113 10.9516 12.3565 11.2418C12.9016 11.5319 13.9192 11.822 15.4456 12.1121C17.2991 12.4385 19.0072 12.8374 20.5336 13.3088C22.06 13.7802 23.3683 14.3967 24.4949 15.122C25.5488 15.9198 26.4211 16.7901 27.0025 17.8418ZM27.366 10.0813H35.9792V31.0418H45.7553V10.0813H54.3685V1.81319H27.366V10.0813ZM140.9 0L125.164 31.0418H134.54L140.9 18.4945L147.297 31.0418H156.673L140.9 0ZM97.0711 0L112.844 31.0418H103.467L97.1074 18.4945L90.7475 31.0418H84.3875H81.3711H73.2303L67.7063 22.7011H67.6336H65.6347V31.0418H55.8586V1.81319H70.0685C72.6852 1.81319 74.8294 2.1033 76.5375 2.71978C78.2093 3.3 79.5903 4.13407 80.6079 5.14945C81.5164 6.01978 82.1706 7.03516 82.6067 8.15934C83.0428 9.28352 83.2609 10.589 83.2609 12.0758V12.1484C83.2609 14.2879 82.7521 16.1011 81.6982 17.5516C80.6806 19.0385 79.2632 20.1989 77.4824 21.0692L82.5704 28.467L97.0711 0ZM73.5211 12.8011C73.5211 11.8582 73.194 11.1692 72.5035 10.6978C71.8493 10.2264 70.9407 10.0088 69.7778 10.0088H65.5257V15.7385H69.7414C70.9044 15.7385 71.8493 15.4846 72.5035 14.9769C73.1576 14.4692 73.5211 13.7802 73.5211 12.8736V12.8011ZM125.382 1.81319L118.986 14.3967L112.589 1.81319H103.213L118.986 32.8549L134.722 1.81319H125.382Z" fill="#F2F2F2"/>
</svg>
