<svg width="132" height="32" viewBox="0 0 132 32" fill="none" xmlns="http://www.w3.org/2000/svg">
<path d="M55.1054 31.4058V9.88406H54.9464L46.3628 31.4058H43.0247L34.4411 9.88406H34.2821V31.4058H30.3082V2.23188H35.3948L44.6143 25.5072H44.7732L53.9927 2.23188H59.2383V31.4058H55.1054ZM81.6511 31.4058H77.5182V27.7391H77.3592C76.2466 30.2899 74.0212 31.7246 70.842 31.7246C66.2323 31.7246 63.5301 28.6957 63.5301 23.7536V10.0435H67.8219V22.9565C67.8219 26.1449 69.4114 27.8986 72.2727 27.8986C75.4518 27.8986 77.2003 25.6667 77.2003 22.3188V10.0435H81.4921L81.6511 31.4058ZM93.4138 9.72464C98.3415 9.72464 101.362 12.4348 101.521 16.4203H97.5467C97.2288 14.3478 95.7982 13.0725 93.4138 13.0725C91.0295 13.0725 89.4399 14.1884 89.4399 15.942C89.4399 17.2174 90.3936 18.1739 92.619 18.6522L95.9571 19.4493C100.249 20.4058 101.838 22.1594 101.838 25.1884C101.838 29.0145 98.3415 31.7246 93.4138 31.7246C88.1683 31.7246 84.9891 29.1739 84.6712 25.029H88.963C89.281 27.2609 90.8705 28.3768 93.4138 28.3768C95.9571 28.3768 97.5467 27.2609 97.5467 25.5072C97.5467 24.0725 96.7519 23.2754 94.5265 22.7971L91.1884 22C87.2145 21.0435 85.3071 19.1304 85.3071 15.942C85.3071 12.2754 88.4862 9.72464 93.4138 9.72464ZM105.018 4.46377C105.018 3.02899 106.13 1.91304 107.561 1.91304C108.992 1.91304 110.104 3.02899 110.104 4.46377C110.104 5.89855 108.992 7.01449 107.561 7.01449C106.13 7.01449 105.018 5.89855 105.018 4.46377ZM105.336 10.0435H109.627V31.4058H105.336V10.0435ZM127.748 17.3768C127.271 15.1449 125.682 13.2319 122.821 13.2319C119.483 13.2319 117.257 16.1014 117.257 20.5652C117.257 25.1884 119.483 27.8986 122.821 27.8986C125.523 27.8986 127.113 26.4638 127.748 23.913H131.881C131.404 28.3768 127.907 31.5652 122.821 31.5652C116.78 31.5652 112.965 27.4203 112.965 20.5652C112.965 13.8696 116.78 9.56522 122.821 9.56522C128.225 9.56522 131.404 13.0725 131.881 17.2174L127.748 17.3768ZM17.1149 5.10145C16.0022 6.37681 14.2537 7.49275 12.5052 7.33333C12.1872 5.42029 13.141 3.50725 14.0947 2.3913C15.2074 0.956522 17.1149 0 18.7044 0C18.8634 1.75362 18.2276 3.66667 17.1149 5.10145ZM18.7044 7.65217C19.6582 7.65217 22.5194 7.97101 24.4269 10.8406C24.2679 11 21.0888 12.913 21.0888 16.8986C21.0888 21.6812 25.2216 23.2754 25.2216 23.2754C25.2216 23.4348 24.5858 25.5072 23.1552 27.7391C21.8836 29.6522 20.453 31.5652 18.3865 31.5652C16.3201 31.5652 15.6843 30.2899 13.2999 30.2899C10.9156 30.2899 10.1208 31.5652 8.21334 31.5652C6.14691 31.5652 4.55735 29.4928 3.2857 27.5797C0.583443 23.5942 -1.48299 16.4203 1.37822 11.6377C2.64987 9.24638 5.19317 7.65217 7.73647 7.65217C9.8029 7.65217 11.7104 9.08696 12.8231 9.08696C13.9358 9.08696 16.1611 7.49275 18.7044 7.65217Z" fill="#F2F2F2"/>
</svg>
