<svg width="121" height="32" viewBox="0 0 121 32" fill="none" xmlns="http://www.w3.org/2000/svg">
<path d="M16.6379 29.9374C14.8177 30.2502 12.9654 30.3439 11.0494 30.5937L5.20525 13.8438V31.3126C3.38505 31.5 1.72449 31.75 0 32V0H4.85418L11.4964 18.1565V0H16.6379V29.9374ZM26.6973 11.7188C28.6774 11.7188 31.7111 11.625 33.5313 11.625V16.6249C31.2638 16.6249 28.6134 16.6249 26.6973 16.7186V24.1563C29.6992 23.9688 32.7011 23.7186 35.7347 23.6248V28.4371L21.5876 29.531V0H35.7347V5.00001H26.6973V11.7188ZM54.7357 5.00012H49.4346V28.0001C47.7102 28.0001 45.9857 28.0001 44.3253 28.0624V5.00012H39.0243V0H54.736L54.7357 5.00012ZM63.0386 11.3751H70.0324V16.375H63.0386V27.7189H58.0246V0H72.2997V5.00001H63.0386V11.3751ZM80.6027 23.3437C83.5088 23.4061 86.4466 23.6252 89.2889 23.7812V28.7187C84.7223 28.4373 80.1556 28.1564 75.4932 28.0624V0H80.6027V23.3437ZM93.6 29.0625C95.2287 29.1564 96.9531 29.2502 98.6137 29.4374V0H93.6V29.0625ZM121 0L114.517 15.2188L121 32C119.084 31.75 117.168 31.4062 115.252 31.0937L111.579 21.8439L107.843 30.3439C105.991 30.0311 104.202 29.9374 102.351 29.6874L108.929 15.0311L102.989 0H108.481L111.835 8.40627L115.411 0L121 0Z" fill="#F2F2F2"/>
</svg>
