<svg width="139" height="31" viewBox="0 0 139 31" fill="none" xmlns="http://www.w3.org/2000/svg">
<path d="M22.1641 0C22.2339 5.91521e-06 36.0341 0.00231023 39.4814 0.925781C41.3897 1.4361 42.8895 2.93445 43.4004 4.84082C44.3236 8.29294 44.3281 15.5 44.3281 15.5C44.3281 15.518 44.3261 22.7113 43.4004 26.1592C42.8895 28.0655 41.3897 29.564 39.4814 30.0742C36.0341 30.9977 22.2339 31 22.1641 31C22.1641 31 8.30128 31.0002 4.8457 30.0742C2.93738 29.564 1.43765 28.0656 0.926758 26.1592C0.00107905 22.7113 1.45112e-06 15.518 0 15.5C0 15.5 -8.11197e-05 8.29294 0.926758 4.84082C1.43765 2.93441 2.9374 1.43614 4.8457 0.925781C8.30128 -0.000133712 22.1641 0 22.1641 0ZM17.7266 22.1416L29.2432 15.5L17.7266 8.8584V22.1416Z" fill="#F2F2F2"/>
<path d="M53.6873 20.1557L48.7101 2.19873H53.0524L54.7967 10.3388C55.2418 12.3437 55.5665 14.0534 55.7782 15.4677H55.9059C56.0519 14.4543 56.3803 12.7556 56.8875 10.3679L58.6937 2.19873H63.036L57.9967 20.1557V28.7696H53.6837V20.1557H53.6873Z" fill="#F2F2F2"/>
<path d="M64.3422 28.2004C63.4665 27.6098 62.8425 26.6911 62.4703 25.4445C62.1018 24.1978 61.9158 22.5429 61.9158 20.4722V17.6543C61.9158 15.5656 62.1274 13.8851 62.5506 12.6202C62.9739 11.3553 63.6344 10.4294 64.532 9.84975C65.4297 9.27015 66.6082 8.97852 68.0679 8.97852C69.5056 8.97852 70.655 9.27379 71.5234 9.86434C72.3882 10.4549 73.0231 11.3808 73.4245 12.6348C73.8259 13.8924 74.0266 15.5656 74.0266 17.6543V20.4722C74.0266 22.5429 73.8296 24.2051 73.4392 25.459C73.0487 26.7167 72.4138 27.6354 71.538 28.2149C70.6623 28.7946 69.4727 29.0862 67.973 29.0862C66.4258 29.0898 65.2181 28.7909 64.3422 28.2004ZM69.2538 25.1602C69.4946 24.5259 69.6187 23.4943 69.6187 22.058V16.0104C69.6187 14.6179 69.4983 13.5971 69.2538 12.9556C69.0093 12.3104 68.5824 11.9896 67.9693 11.9896C67.3783 11.9896 66.9586 12.3104 66.7178 12.9556C66.4733 13.6008 66.3529 14.6179 66.3529 16.0104V22.058C66.3529 23.4943 66.4695 24.5295 66.7032 25.1602C66.9367 25.7945 67.3562 26.1116 67.9693 26.1116C68.5824 26.1116 69.0093 25.7945 69.2538 25.1602Z" fill="#F2F2F2"/>
<path d="M88.1517 28.7732H84.729L84.3495 26.3965H84.2547C83.3241 28.19 81.9302 29.0866 80.0693 29.0866C78.7812 29.0866 77.8289 28.6638 77.2158 27.8218C76.6028 26.976 76.2962 25.6565 76.2962 23.863V9.35813H80.6714V23.6077C80.6714 24.4754 80.7662 25.0914 80.956 25.4596C81.1457 25.8278 81.4632 26.0136 81.9083 26.0136C82.2878 26.0136 82.6528 25.8971 83.0031 25.6638C83.3534 25.4303 83.6088 25.1351 83.7803 24.778V9.35449H88.1517V28.7732Z" fill="#F2F2F2"/>
<path d="M100.037 5.71577H95.6944V28.7725H91.4142V5.71577H87.0719V2.20166H100.037V5.71577Z" fill="#F2F2F2"/>
<path d="M110.589 28.7732H107.167L106.787 26.3965H106.692C105.762 28.19 104.368 29.0866 102.507 29.0866C101.219 29.0866 100.266 28.6638 99.6533 27.8218C99.0403 26.976 98.7337 25.6565 98.7337 23.863V9.35813H103.109V23.6077C103.109 24.4754 103.204 25.0914 103.393 25.4596C103.583 25.8278 103.901 26.0136 104.346 26.0136C104.725 26.0136 105.09 25.8971 105.441 25.6638C105.791 25.4303 106.046 25.1351 106.218 24.778V9.35449H110.589V28.7732Z" fill="#F2F2F2"/>
<path d="M125.069 12.46C124.802 11.2352 124.375 10.3493 123.784 9.79889C123.193 9.24845 122.379 8.97505 121.343 8.97505C120.54 8.97505 119.788 9.20106 119.092 9.65672C118.395 10.1124 117.854 10.7066 117.475 11.4466H117.442V1.21777H113.228V28.7692H116.84L117.285 26.932H117.38C117.72 27.5881 118.227 28.1021 118.902 28.4849C119.577 28.8641 120.329 29.0536 121.153 29.0536C122.631 29.0536 123.722 28.3719 124.419 27.0121C125.116 25.6488 125.466 23.5236 125.466 20.6292V17.5562C125.466 15.3872 125.331 13.6848 125.069 12.46ZM121.058 20.3812C121.058 21.7956 121 22.9039 120.883 23.7058C120.766 24.5078 120.573 25.0802 120.296 25.4155C120.022 25.7545 119.65 25.9222 119.186 25.9222C118.825 25.9222 118.493 25.8383 118.187 25.667C117.88 25.4993 117.632 25.2442 117.442 24.9088V13.889C117.588 13.3604 117.844 12.9302 118.205 12.5912C118.562 12.2522 118.957 12.0845 119.376 12.0845C119.821 12.0845 120.164 12.2595 120.405 12.6058C120.65 12.9558 120.817 13.539 120.912 14.3629C121.007 15.1867 121.055 16.3568 121.055 17.8769V20.3812H121.058Z" fill="#F2F2F2"/>
<path d="M131.673 21.5003C131.673 22.7469 131.709 23.6802 131.783 24.3036C131.855 24.9268 132.009 25.379 132.242 25.667C132.476 25.9512 132.833 26.0934 133.319 26.0934C133.972 26.0934 134.424 25.8382 134.665 25.3315C134.91 24.8249 135.041 23.9792 135.063 22.7981L138.836 23.0203C138.858 23.1881 138.869 23.4213 138.869 23.7166C138.869 25.5101 138.376 26.8516 137.395 27.7375C136.413 28.6233 135.023 29.068 133.228 29.068C131.071 29.068 129.56 28.3936 128.695 27.0412C127.827 25.6888 127.396 23.6 127.396 20.7711V17.381C127.396 14.4684 127.845 12.3396 128.743 10.9981C129.641 9.65659 131.177 8.98584 133.355 8.98584C134.855 8.98584 136.008 9.25924 136.811 9.80969C137.614 10.3601 138.179 11.2131 138.508 12.376C138.836 13.5389 139 15.1428 139 17.1914V20.516H131.673V21.5003ZM132.228 12.3505C132.005 12.6239 131.859 13.0723 131.783 13.6956C131.709 14.319 131.673 15.2631 131.673 16.5318V17.9243H134.873V16.5318C134.873 15.285 134.829 14.3408 134.746 13.6956C134.662 13.0504 134.508 12.5984 134.286 12.3323C134.063 12.0698 133.72 11.9349 133.257 11.9349C132.79 11.9386 132.447 12.0771 132.228 12.3505Z" fill="#F2F2F2"/>
</svg>
