<svg width="179" height="44" viewBox="0 0 179 44" fill="none" xmlns="http://www.w3.org/2000/svg">
<path d="M40.5325 2.63343C39.7099 1.82539 38.8398 1.06732 37.9268 0.363283C37.7701 0.245695 37.5909 0.161815 37.4003 0.11691C37.2097 0.0720061 37.0119 0.0670477 36.8193 0.102347C31.4346 0.993083 25.9906 1.47718 20.5334 1.55054C15.0654 1.453 9.61263 0.942732 4.22133 0.0240657C4.02876 -0.0120372 3.83079 -0.00747617 3.64009 0.0374567C3.44939 0.0823896 3.27016 0.166704 3.11388 0.285002C2.18981 1.01357 1.31091 1.79784 0.482065 2.63343C0.215427 2.85772 0.0432455 3.1746 0 3.52061C0 4.73397 0 5.73857 0 6.70403C0 7.6695 0 8.94809 0.0781727 10.2528C0.435184 19.1637 2.16678 27.9657 5.21151 36.3464C5.29141 36.5677 5.42586 36.7652 5.60238 36.9205C9.74553 40.5344 16.1817 43.5221 20.5334 43.5221C24.885 43.5221 31.2691 40.5475 35.4383 36.9205C35.6148 36.7652 35.7493 36.5677 35.8292 36.3464C38.865 27.9643 40.5878 19.1623 40.9364 10.2528C40.9364 8.94809 41.0146 7.79997 41.0146 6.71708C41.0146 5.6342 41.0146 4.73397 41.0146 3.53366C40.9745 3.18297 40.8021 2.86091 40.5325 2.63343ZM17.4325 27.2136L17.3543 27.3441C15.7257 30.2405 13.0939 30.6058 10.1364 29.4316C7.17886 28.2574 4.71642 25.8307 5.74569 22.4385C6.72285 19.3855 11.4784 20.625 13.6802 21.1338C16.7811 21.9036 19.1393 23.7432 17.4846 27.0571C17.5498 26.9788 17.5758 26.9527 17.4325 27.2136ZM35.308 25.1C34.5523 28.1921 31.4645 29.8099 28.4158 30.1361C25.6146 30.4231 23.1391 27.7094 23.0349 24.9174C23.0349 25.1 23.0349 25.2697 23.0349 24.8C23.0349 24.6695 23.0349 24.6695 23.0349 24.7086C23.1261 21.4078 27.9858 20.7946 30.4352 20.5728C33.6664 20.2597 36.207 21.3687 35.308 25.1Z" fill="#F2F2F2"/>
<path d="M111.565 16.985L112.048 14.3756C112.075 14.2154 112.069 14.0512 112.028 13.8937C111.988 13.7363 111.914 13.5892 111.813 13.4623C111.713 13.3365 111.587 13.2349 111.442 13.1649C111.298 13.0948 111.14 13.0583 110.979 13.0579H104.66C104.402 13.0609 104.152 13.1556 103.957 13.3252C103.761 13.4948 103.632 13.7282 103.592 13.9842L99.9177 35.5636L99.4096 38.7731C99.3819 38.9333 99.3885 39.0976 99.4289 39.255C99.4694 39.4124 99.5427 39.5595 99.6441 39.6864C99.7439 39.8122 99.8707 39.9138 100.015 39.9839C100.159 40.0539 100.318 40.0904 100.478 40.0909H106.771C107.03 40.0878 107.279 39.9931 107.474 39.8235C107.67 39.6539 107.799 39.4205 107.839 39.1645L111.513 17.6242C111.545 17.4126 111.563 17.199 111.565 16.985Z" fill="#F2F2F2"/>
<path d="M100.582 14.154C100.619 13.9304 100.606 13.7015 100.543 13.4837C100.481 13.266 100.371 13.0648 100.221 12.895C100.072 12.7251 99.886 12.5907 99.678 12.5015C99.47 12.4124 99.2448 12.3707 99.0188 12.3796C97.5965 12.4519 96.1858 12.6749 94.8105 13.045C93.0483 13.501 91.3838 14.2747 89.8986 15.3282C88.305 16.5114 86.974 18.013 85.99 19.738C85.3479 20.8494 84.8364 22.0315 84.4656 23.2606C84.4656 22.9214 84.4656 22.5822 84.4656 22.243C84.4653 21.5191 84.4218 20.7959 84.3353 20.0772C84.1706 18.7414 83.8559 17.4284 83.3972 16.1632L82.394 13.3972C82.2913 13.1193 82.083 12.8933 81.8145 12.7686C81.5459 12.6439 81.2391 12.6307 80.9609 12.7319L65.3263 18.4464C65.0487 18.5492 64.8231 18.7578 64.6986 19.0267C64.5741 19.2956 64.5609 19.6029 64.6619 19.8815L66.9679 26.1179C67.0706 26.3959 67.279 26.6219 67.5475 26.7465C67.816 26.8712 68.1229 26.8844 68.4011 26.7833L75.3585 24.2522C74.9399 26.0094 73.9979 27.5977 72.6573 28.8066C71.3167 30.0154 69.6409 30.7877 67.852 31.021C66.0631 31.2544 64.2456 30.9377 62.6406 30.1131C61.0355 29.2884 59.7186 27.9947 58.8645 26.4035C58.0104 24.8123 57.6594 22.9987 57.8581 21.2032C58.0568 19.4077 58.7958 17.7151 59.9771 16.3497C61.1584 14.9844 62.7261 14.0108 64.4726 13.5581C66.219 13.1054 68.0616 13.1949 69.7561 13.8147C70.0343 13.9159 70.3412 13.9027 70.6097 13.778C70.8782 13.6533 71.0866 13.4273 71.1893 13.1494L73.4823 6.88688C73.5833 6.60828 73.5701 6.30099 73.4456 6.0321C73.3211 5.76321 73.0955 5.55457 72.8179 5.45173C70.8632 4.74196 68.7996 4.37989 66.7204 4.38189C63.4619 4.37363 60.2633 5.25943 57.472 6.94311C54.6807 8.62679 52.4034 11.044 50.8872 13.9323C49.371 16.8207 48.674 20.0697 48.8717 23.3268C49.0695 26.5839 50.1545 29.7244 52.0089 32.4076C53.8633 35.0907 56.4163 37.2139 59.3907 38.5465C62.3651 39.8792 65.6473 40.3704 68.8808 39.9669C72.1144 39.5634 75.1758 38.2806 77.7326 36.2577C80.2895 34.2348 82.2441 31.5492 83.3842 28.4924L81.7035 38.3036C81.6677 38.5216 81.6795 38.7448 81.7383 38.9578C81.797 39.1708 81.9012 39.3684 82.0436 39.5371C82.1861 39.7059 82.3634 39.8416 82.5634 39.935C82.7634 40.0283 82.9812 40.0771 83.2018 40.078H89.4947C89.8589 40.0756 90.2102 39.9427 90.4851 39.7034C90.7599 39.4641 90.9401 39.1341 90.993 38.7733L93.1819 26.1179C93.2949 24.9182 93.809 23.7919 94.6411 22.9214C95.5182 22.2449 96.6111 21.911 97.7159 21.982H97.9634C98.3276 21.9797 98.679 21.8468 98.9538 21.6075C99.2286 21.3682 99.4088 21.0382 99.4617 20.6774L100.582 14.154Z" fill="#F2F2F2"/>
<path d="M178.234 12.8885C178.082 12.7193 177.894 12.5859 177.685 12.4979C177.475 12.4099 177.249 12.3696 177.022 12.3797C175.6 12.4521 174.189 12.6751 172.814 13.045C171.079 13.5096 169.442 14.283 167.98 15.3282C166.386 16.5114 165.056 18.0131 164.071 19.7381C163.445 20.8173 162.942 21.964 162.573 23.1563L165.466 6.37813C165.501 6.16012 165.49 5.93692 165.431 5.72395C165.372 5.51097 165.268 5.31331 165.125 5.14459C164.983 4.97588 164.806 4.84015 164.606 4.74678C164.406 4.6534 164.188 4.6046 163.967 4.60376H157.648C157.284 4.60612 156.933 4.739 156.658 4.97832C156.383 5.21764 156.203 5.54759 156.15 5.90844L154.756 14.1149C153.172 13.3954 151.453 13.0261 149.714 13.032C146.721 13.1135 143.826 14.1131 141.419 15.8958C139.012 17.6784 137.209 20.1582 136.255 22.9998C136.659 19.0857 135.825 16.3198 133.753 14.8194C131.557 13.2543 128.918 12.4358 126.223 12.484C123.41 12.6315 120.679 13.479 118.275 14.9499C115.67 16.5416 113.898 19.6467 113.064 24.174L110.588 38.6559C110.561 38.8161 110.567 38.9804 110.608 39.1378C110.648 39.2952 110.721 39.4423 110.823 39.5692C110.923 39.695 111.049 39.7967 111.194 39.8667C111.338 39.9367 111.496 39.9733 111.657 39.9737H117.95C118.208 39.9706 118.458 39.8759 118.653 39.7063C118.849 39.5368 118.978 39.3033 119.018 39.0474L121.715 23.2607C121.754 22.7754 121.89 22.3028 122.113 21.8704C122.337 21.4381 122.644 21.0547 123.018 20.7427C123.721 20.2136 124.575 19.9254 125.454 19.9207C126.202 19.8959 126.931 20.1625 127.487 20.6644C127.656 20.821 128.151 21.2776 127.878 22.8823L125.728 35.5117C125.728 35.6943 125.728 35.877 125.728 36.0466L125.259 38.8256C125.231 38.9857 125.238 39.15 125.278 39.3074C125.318 39.4649 125.392 39.6119 125.493 39.7388C125.593 39.8646 125.72 39.9663 125.864 40.0363C126.008 40.1063 126.167 40.1429 126.327 40.1433H132.62C132.879 40.1402 133.128 40.0455 133.323 39.8759C133.519 39.7064 133.648 39.4729 133.688 39.217L135.499 28.5577C135.621 31.6646 136.943 34.6027 139.187 36.7521C141.43 38.9014 144.42 40.094 147.525 40.0781C150.956 39.9581 154.237 38.6403 156.799 36.3529C159.362 34.0654 161.045 30.9524 161.557 27.5531L159.72 38.3428C159.682 38.5612 159.692 38.7852 159.75 38.9992C159.808 39.2131 159.912 39.4117 160.054 39.581C160.197 39.7503 160.376 39.886 160.577 39.9787C160.778 40.0713 160.997 40.1186 161.218 40.1172H167.511C167.875 40.1148 168.227 39.982 168.501 39.7426C168.776 39.5033 168.956 39.1734 169.009 38.8125L171.198 26.118C171.311 24.9183 171.825 23.792 172.657 22.9215C173.54 22.2466 174.638 21.9172 175.745 21.9952H175.993C176.357 21.9928 176.708 21.8599 176.983 21.6206C177.258 21.3813 177.438 21.0513 177.491 20.6905L178.612 14.1671C178.649 13.9392 178.635 13.7058 178.569 13.4843C178.504 13.2628 178.389 13.0591 178.234 12.8885ZM153.818 26.5355C153.7 27.979 153.056 29.3287 152.008 30.3273C150.961 31.3258 149.583 31.9034 148.137 31.9499C147.452 31.9529 146.775 31.8101 146.149 31.5309C145.523 31.2518 144.964 30.8427 144.508 30.3307C144.052 29.8188 143.71 29.2157 143.505 28.5614C143.3 27.9071 143.235 27.2165 143.317 26.5355C143.434 25.0919 144.078 23.7422 145.126 22.7436C146.174 21.7451 147.552 21.1675 148.997 21.121C149.682 21.118 150.36 21.2608 150.985 21.54C151.611 21.8191 152.17 22.2282 152.626 22.7402C153.082 23.2521 153.424 23.8553 153.629 24.5096C153.835 25.1639 153.899 25.8544 153.818 26.5355Z" fill="#F2F2F2"/>
<path d="M171.446 37.2073H172.032V38.7207H172.397V37.2073H172.983V36.9072H171.446V37.2073Z" fill="#F2F2F2"/>
<path d="M174.273 38.2119L173.817 36.9072H173.296V38.7207H173.635V37.2595L174.13 38.7207H174.429L174.924 37.2595V38.7207H175.263V36.9072H174.742L174.273 38.2119Z" fill="#F2F2F2"/>
</svg>
