<svg width="201" height="33" viewBox="0 0 201 33" fill="none" xmlns="http://www.w3.org/2000/svg">
<path d="M183.863 22.2302C184.291 26.1747 186.99 27.2358 190.118 27.2358C192.174 27.2358 193.931 27.4716 195.42 25.3493C195.87 24.7062 197.348 23.9345 198.569 24.6955C199.94 25.553 199.833 27.1286 198.997 28.2755C196.973 31.0516 193.835 31.759 190.118 31.759C184.334 31.759 179.021 27.7503 179.021 21.0083C179.021 14.2235 182.791 8.89639 190.289 8.89639C197.155 8.89639 200.829 13.4946 200.829 20.4081V20.6653C200.829 21.3728 200.347 22.2302 199.651 22.2302H183.863ZM196.341 18.1894C195.656 14.7058 193.513 13.4196 190.289 13.4196C186.99 13.4196 184.548 14.7487 183.863 18.1894H196.341ZM170.945 25.0492C170.945 26.5177 171.995 27.1929 173.623 27.1929C173.869 27.1929 174.137 27.2465 174.426 27.1929C175.454 27.0107 176.45 27.8789 176.675 28.9079C176.922 29.9476 176.311 30.9551 175.294 31.266C174.597 31.4803 173.783 31.7697 172.744 31.759C169.242 31.7269 166.103 29.1973 166.103 25.6923V2.43311C166.136 1.80216 166.4 1.20544 166.845 0.756708C167.289 0.307977 167.883 0.0386237 168.513 0C169.144 0.035838 169.739 0.302558 170.185 0.749311C170.632 1.19606 170.898 1.7916 170.934 2.42239V25.0492H170.945ZM151.622 31.759C150.233 31.8147 148.849 31.5498 147.579 30.9847C146.308 30.4197 145.185 29.5697 144.295 28.5006V28.8865C144.295 30.1191 143.096 31.1159 141.864 31.1159C140.643 31.1159 139.443 30.1191 139.443 28.8865V2.43311C139.477 1.80042 139.742 1.20228 140.189 0.753297C140.635 0.304316 141.232 0.0360824 141.864 0C142.498 0.0335274 143.097 0.300635 143.546 0.749868C143.995 1.1991 144.262 1.79868 144.295 2.43311V12.4335C145.194 11.3784 146.321 10.5409 147.59 9.98392C148.859 9.42698 150.237 9.1651 151.622 9.21794C157.192 9.21794 162.055 13.7733 162.055 20.4724C162.055 27.2036 157.202 31.759 151.622 31.759ZM151.172 14.1485C147.916 14.1485 144.295 15.7991 144.295 20.6117C144.295 25.4244 147.916 27.075 151.172 27.075C154.792 27.075 157.62 24.6098 157.62 20.6117C157.66 19.7534 157.52 18.8962 157.21 18.0948C156.9 17.2935 156.427 16.5655 155.82 15.9574C155.213 15.3493 154.487 14.8744 153.686 14.5629C152.886 14.2515 152.03 14.1103 151.172 14.1485ZM133.788 29.0901C133.75 29.7212 133.483 30.3168 133.037 30.7648C132.591 31.2128 131.997 31.4825 131.367 31.5232C130.736 31.4825 130.143 31.2128 129.697 30.7648C129.251 30.3168 128.984 29.7212 128.946 29.0901V18.8646C128.946 15.7241 126.847 13.977 124.105 13.977C120.624 13.977 119.253 16.1957 119.253 20.9655V29.0901C119.215 29.7212 118.948 30.3168 118.502 30.7648C118.056 31.2128 117.462 31.4825 116.832 31.5232C116.201 31.4825 115.607 31.2128 115.162 30.7648C114.716 30.3168 114.449 29.7212 114.411 29.0901V18.8646C114.411 15.7241 112.719 13.7519 109.977 13.7519C106.549 13.7519 104.718 16.1957 104.718 20.9655V29.0901C104.68 29.7212 104.413 30.3168 103.967 30.7648C103.521 31.2128 102.927 31.4825 102.297 31.5232C101.666 31.4825 101.072 31.2128 100.627 30.7648C100.181 30.3168 99.914 29.7212 99.8761 29.0901V12.1227C99.9165 11.4935 100.184 10.9005 100.63 10.4547C101.076 10.0088 101.668 9.74067 102.297 9.70028C102.926 9.74067 103.518 10.0088 103.964 10.4547C104.409 10.9005 104.677 11.4935 104.718 12.1227C106.26 10.2362 108.092 9.26082 111.144 9.26082C114.176 9.26082 116.254 10.5363 117.625 13.0123C119.338 10.6221 121.823 9.32513 125.337 9.32513C129.75 9.32513 133.798 12.9373 133.798 17.9535V29.1008L133.788 29.0901ZM89.3685 29.3045C87.5797 31.1695 86.4336 31.7697 82.5561 31.7697C77.4148 31.7697 74.0301 28.4363 74.0301 23.0663V12.1227C74.0659 11.4919 74.3324 10.8963 74.7788 10.4496C75.2253 10.0028 75.8204 9.73611 76.4508 9.70028C77.0811 9.73611 77.6763 10.0028 78.1227 10.4496C78.5691 10.8963 78.8357 11.4919 78.8715 12.1227V22.1659C78.8715 25.6495 80.4996 27.4823 83.5844 27.4823C86.1551 27.4823 88.2545 27.0536 89.3685 23.9238C89.347 23.9238 89.3685 21.8337 89.3685 20.0651V12.1119C89.4045 11.4794 89.6726 10.8824 90.1212 10.4354C90.5699 9.98844 91.1676 9.72285 91.7999 9.68956C92.4302 9.7254 93.0254 9.99212 93.4718 10.4389C93.9183 10.8856 94.1848 11.4812 94.2206 12.1119V29.283C94.2206 30.5157 93.0317 31.5125 91.7999 31.5125C90.5681 31.5125 89.3685 30.5157 89.3685 29.283V29.3045ZM59.5592 31.7697C58.1674 31.8258 56.7814 31.56 55.509 30.993C54.2365 30.4261 53.1117 29.5732 52.2221 28.5006V28.8865C52.2221 30.1191 51.0331 31.1159 49.8014 31.1159C48.5696 31.1159 47.3806 30.1191 47.3806 28.8865V2.43311C47.4139 1.80042 47.6793 1.20228 48.126 0.753297C48.5727 0.304316 49.1693 0.0360824 49.8014 0C50.4335 0.0360824 51.03 0.304316 51.4767 0.753297C51.9234 1.20228 52.1888 1.80042 52.2221 2.43311V12.4335C53.1222 11.3769 54.2503 10.5385 55.5212 9.98154C56.7921 9.42455 58.1728 9.16346 59.5592 9.21794C65.1291 9.21794 69.9919 13.7733 69.9919 20.4724C69.9919 27.2036 65.1291 31.759 59.5592 31.759V31.7697ZM59.1094 14.1485C55.8425 14.1485 52.2221 15.7991 52.2221 20.6117C52.2221 25.4244 55.8425 27.075 59.1094 27.075C62.7297 27.075 65.5468 24.6098 65.5468 20.6117C65.5862 19.7543 65.4469 18.8981 65.1376 18.0975C64.8283 17.2969 64.3559 16.5695 63.7504 15.9615C63.1449 15.3536 62.4196 14.8784 61.6205 14.5663C60.8215 14.2542 59.9663 14.1119 59.1094 14.1485ZM36.2946 14.9845C36.7123 15.7134 36.7123 16.6137 36.2946 17.3426L28.3147 31.1481C28.1084 31.5057 27.8118 31.8029 27.4546 32.0098C27.0975 32.2167 26.6923 32.3261 26.2796 32.3271H10.3199C9.90726 32.3261 9.50206 32.2167 9.14491 32.0098C8.78776 31.8029 8.49117 31.5057 8.28482 31.1481L0.315706 17.3426C0.108883 16.9841 0 16.5775 0 16.1636C0 15.7496 0.108883 15.343 0.315706 14.9845L8.28482 1.17904C8.49117 0.821392 8.78776 0.524244 9.14491 0.317329C9.50206 0.110413 9.90726 0.000987294 10.3199 0H26.2796C27.1151 0 27.8863 0.450178 28.3147 1.17904L36.2946 14.9845ZM26.3546 18.1894C27.4578 18.1894 28.3576 17.2783 28.3576 16.1636C28.3576 15.0488 27.4578 14.1485 26.3546 14.1485H10.2557C9.72019 14.1485 9.20664 14.3613 8.82799 14.7402C8.44934 15.1191 8.23662 15.6331 8.23662 16.1689C8.23662 16.7048 8.44934 17.2187 8.82799 17.5976C9.20664 17.9765 9.72019 18.1894 10.2557 18.1894H26.3439H26.3546ZM20.7419 25.0492C21.8345 25.0492 22.7235 24.1489 22.7235 23.0341C22.7235 21.9194 21.8345 21.0083 20.7419 21.0083H15.8469C14.7544 21.0083 13.8653 21.9194 13.8653 23.0341C13.8653 24.1489 14.7544 25.0492 15.8469 25.0492H20.7312H20.7419ZM13.8653 7.2886C12.7621 7.2886 11.8624 8.18896 11.8624 9.30369C11.8624 10.4184 12.7621 11.3295 13.8653 11.3295H22.7342C23.8375 11.3295 24.7372 10.4184 24.7372 9.30369C24.7372 8.18896 23.8375 7.2886 22.7342 7.2886H13.8653Z" fill="#F2F2F2"/>
</svg>
