<svg width="138" height="53" viewBox="0 0 138 53" fill="none" xmlns="http://www.w3.org/2000/svg">
<path d="M36.2072 19.9296C35.5156 20.3054 34.7983 20.6319 34.0607 20.9068C32.4686 21.4804 30.8225 21.7776 29.1383 21.8888C28.7738 21.9119 28.4087 21.9369 28.0431 21.9435C27.8602 21.9435 27.792 22.016 27.8056 22.1919C27.8133 22.2805 27.8056 22.3702 27.8056 22.4588V37.899C27.8056 38.3364 27.8056 38.3371 27.3705 38.3371C25.5113 38.3371 23.652 38.3305 21.7904 38.3442C21.487 38.3442 21.411 38.2562 21.4116 37.959C21.4199 32.773 21.4219 27.5869 21.4176 22.4005C21.4176 21.9791 21.4176 21.9761 20.9931 21.9779C18.1942 21.9922 15.3952 21.9351 12.5974 22.0118C11.647 22.0337 10.7069 22.213 9.81507 22.5426C8.05557 23.2042 7.10099 24.5309 6.6819 26.3135C6.46167 27.2544 6.40468 28.212 6.4005 29.1714C6.38866 32.0911 6.39636 35.0108 6.39578 37.9305C6.39578 38.3359 6.39578 38.3371 5.99034 38.3371C4.12098 38.3371 2.25045 38.3311 0.382891 38.3442C0.0795463 38.3442 0 38.2538 0 37.9566C0.00712355 25.6244 0.00930024 13.2921 0.00652996 0.959878C0.00652996 0.566385 0.00652983 0.561632 0.401294 0.561632C2.27083 0.561632 4.13999 0.561632 6.00872 0.561632C6.39516 0.561632 6.39578 0.565196 6.39578 0.963447C6.39578 6.47673 6.39578 11.9896 6.39578 17.5021V17.8468C6.51034 17.911 6.55901 17.8248 6.61721 17.7832C8.28706 16.5944 10.1588 15.9275 12.1712 15.6166C13.2991 15.4431 14.4305 15.3896 15.5679 15.3908C17.3781 15.3935 19.1881 15.3935 20.9979 15.3908C21.4211 15.3908 21.4217 15.3908 21.4217 14.9747V1.0217C21.4217 0.562225 21.4217 0.561035 21.8664 0.561035C23.7153 0.561035 25.5647 0.561035 27.4144 0.561035C27.8062 0.561035 27.8074 0.561035 27.8074 0.956907V14.9717C27.8074 15.3908 27.8074 15.3943 28.2265 15.3878C29.4221 15.3765 30.6165 15.4044 31.8102 15.2736C34.2958 15.002 36.0957 13.7669 37.1891 11.52C37.3334 11.2228 37.461 11.1984 37.7489 11.312C39.2656 11.9093 40.7901 12.4883 42.3162 13.0619C42.5509 13.1499 42.6519 13.2569 42.6511 13.5261C42.6432 21.6718 42.6432 29.8173 42.6511 37.9626C42.6511 38.2693 42.5592 38.343 42.2658 38.3412C40.3965 38.3287 38.526 38.3352 36.6584 38.3347C36.2601 38.3347 36.2589 38.3347 36.2589 37.9186C36.2589 32.0594 36.2589 26.2002 36.2589 20.3409C36.2583 20.2197 36.2886 20.0895 36.2072 19.9296Z" fill="#F2F2F2"/>
<path d="M98.9582 36.1946C98.8734 36.1726 98.8291 36.2362 98.7798 36.2772C96.8656 37.7971 94.6841 38.6346 92.25 38.8206C89.6777 39.0174 87.2002 38.6394 84.8688 37.5082C81.5528 35.8985 79.4643 33.2416 78.4048 29.7424C77.8009 27.7428 77.6383 25.6933 77.7906 23.6105C77.959 21.2971 78.5376 19.1091 79.7371 17.1113C81.588 14.0293 84.3291 12.1914 87.8037 11.405C89.0002 11.1338 90.2261 11.0154 91.452 11.0526C94.5487 11.1453 97.2584 12.1998 99.5257 14.3408C99.582 14.3949 99.6416 14.4454 99.7231 14.5191C99.8638 14.1779 99.8659 13.8314 99.9263 13.4997C100.026 12.9558 100.104 12.4084 100.183 11.8604C100.216 11.6226 100.301 11.5097 100.576 11.512C102.098 11.5275 103.621 11.5251 105.147 11.512C105.415 11.512 105.503 11.5864 105.503 11.8616C105.51 21.0456 105.562 30.2286 105.524 39.4133C105.508 43.312 104.039 46.62 100.998 49.143C99.3361 50.5226 97.4 51.3518 95.2966 51.7812C92.4098 52.3701 89.52 52.4165 86.6758 51.5657C82.8106 50.4098 79.9833 48.0095 78.2649 44.3361C78.1246 44.0298 78.0124 43.7115 77.9292 43.385C77.8866 43.2238 77.9292 43.1343 78.1076 43.0878C79.8881 42.5984 81.6674 42.1032 83.4446 41.6017C83.5878 41.5615 83.6619 41.5839 83.7058 41.7372C84.2575 43.6672 85.5795 44.908 87.3443 45.7157C88.7014 46.3369 90.1462 46.4981 91.6304 46.4003C92.9131 46.3162 94.1605 46.0903 95.3281 45.535C97.609 44.4509 98.8792 42.6597 98.9926 40.1182C99.0472 38.883 99.0108 37.6443 99.0137 36.4074C99.0067 36.3402 99.0294 36.2546 98.9582 36.1946ZM99.1722 24.7226C99.1871 24.2828 99.1196 23.6248 98.9814 22.9751C98.4802 20.6284 97.2311 18.8422 95.023 17.8168C93.4201 17.0727 91.7248 16.9484 90.0072 17.2617C87.6576 17.6909 85.8866 18.9551 84.8738 21.1408C83.8283 23.3959 83.7807 25.7378 84.5845 28.0733C85.303 30.1602 86.7358 31.5909 88.8202 32.3393C90.0891 32.7952 91.4028 32.8855 92.738 32.7239C94.8811 32.4641 96.6235 31.5059 97.8499 29.7008C98.8167 28.2724 99.173 26.6586 99.173 24.725L99.1722 24.7226Z" fill="#F2F2F2"/>
<path d="M116.375 27.2354C116.515 27.8971 116.765 28.5306 117.114 29.1096C118.245 31.0242 119.94 32.1494 122.1 32.547C124.178 32.9298 126.217 32.7782 128.155 31.8753C129.292 31.3463 130.228 30.5379 131.095 29.6458C131.176 29.5625 131.24 29.4561 131.382 29.4116L135.532 33.674C135.604 33.7043 135.532 33.7525 135.481 33.8077C133.387 36.0231 130.926 37.6196 127.918 38.2919C126.025 38.7116 124.08 38.849 122.146 38.6997C119.973 38.5398 117.928 37.9549 116.057 36.8243C113.099 35.0346 111.266 32.4026 110.375 29.0882C109.963 27.5371 109.787 25.9325 109.854 24.3288C109.963 21.3782 110.712 18.6226 112.491 16.2194C114.332 13.7289 116.81 12.184 119.801 11.4802C122.843 10.767 125.873 10.8858 128.824 11.9272C133.12 13.4406 135.793 16.475 136.92 20.8706C137.425 22.8422 137.555 24.8471 137.235 26.8711C137.19 27.1564 137.092 27.2414 136.805 27.2408C130.139 27.2329 123.473 27.2311 116.807 27.2354H116.375ZM116.519 22.0137H130.684C130.734 21.925 130.695 21.871 130.676 21.8175C130.016 19.9552 128.819 18.5708 127.015 17.7423C125.543 17.0658 123.991 16.9303 122.403 17.1342C120.61 17.3636 119.079 18.1227 117.892 19.5052C117.262 20.2355 116.795 21.091 116.519 22.0154V22.0137Z" fill="#F2F2F2"/>
<path d="M55.1959 14.2702C55.3941 14.0919 55.5945 13.9058 55.8022 13.7281C57.4321 12.3301 59.2888 11.3701 61.4281 11.1365C64.6059 10.7894 67.4203 11.6715 69.7195 13.954C71.4843 15.7057 72.4387 17.8824 72.9059 20.2963C73.1294 21.447 73.182 22.6109 73.182 23.7795C73.182 28.4697 73.182 33.1603 73.182 37.8513C73.182 38.3369 73.182 38.3376 72.699 38.3376H67.1782C66.7221 38.3376 66.7209 38.3376 66.7209 37.8864C66.7209 33.2449 66.7209 28.6036 66.7209 23.9625C66.7209 22.8706 66.6509 21.79 66.3368 20.7355C65.704 18.6111 64.0716 17.3058 61.8656 17.1257C60.9414 17.0509 60.0255 17.0556 59.1274 17.2755C57.2823 17.7255 56.1735 18.9363 55.6325 20.7189C55.3097 21.7823 55.2484 22.8748 55.2484 23.9756C55.2484 28.5878 55.2484 33.1994 55.2484 37.8103C55.2484 38.4642 55.222 38.3346 54.7141 38.3358C52.8852 38.3411 51.0558 38.3358 49.226 38.3358C48.8374 38.3358 48.8362 38.3358 48.8362 37.9399C48.8362 29.2707 48.8362 20.6018 48.8362 11.933C48.8362 11.5229 48.8361 11.5217 49.2409 11.5217H54.3731C54.8147 11.5217 54.8085 11.5217 54.8548 11.9533C54.9335 12.6802 55.0196 13.406 55.1023 14.1323C55.1036 14.1617 55.1131 14.1902 55.1292 14.2146C55.1458 14.239 55.169 14.2582 55.1959 14.2702Z" fill="#F2F2F2"/>
<path d="M35.9004 3.8369C35.9069 1.68933 37.626 -0.00947069 39.7845 3.97367e-05C41.9007 0.00895577 43.6009 1.74639 43.5927 3.88624C43.5856 4.90762 43.1738 5.88445 42.4479 6.60181C41.7219 7.31922 40.7407 7.71835 39.7207 7.71151C38.7006 7.70463 37.725 7.29232 37.0086 6.56526C36.2922 5.8382 35.8935 4.8559 35.9004 3.83452V3.8369Z" fill="#F2F2F2"/>
</svg>
