<svg width="167" height="42" viewBox="0 0 167 42" fill="none" xmlns="http://www.w3.org/2000/svg">
<path fill-rule="evenodd" clip-rule="evenodd" d="M0 41.2263V40.3421C1.68801 39.9 3.15094 38.6842 3.15094 35.1474V19.6737C3.15094 16.2474 2.02561 15.0316 0 14.8105V14.0368C3.48854 13.7053 6.86456 12.9316 9.90297 11.7158H10.0155C9.79043 13.8158 9.56536 16.3579 9.56536 19.0105H9.6779C11.0283 13.9263 14.5168 12.0474 18.6806 12.0474C22.8443 12.0474 25.9953 14.2579 27.1206 19.0105C28.3585 13.9263 31.9596 12.0474 36.1233 12.0474C40.2871 12.0474 45.126 15.8053 45.126 21.7737V35.2579C45.126 38.7947 46.589 40.0105 48.277 40.4526V41.3368H34.6604V40.4526C36.3484 40.0105 37.6988 38.7947 37.6988 35.2579V21.7737C37.6988 16.2474 36.3484 14.2579 33.535 14.2579C30.7217 14.2579 27.7958 16.3579 27.7958 21.8842V35.2579C27.7958 38.7947 29.1462 40.0105 30.8342 40.4526V41.3368H17.2177V40.4526C18.9057 40.0105 20.2561 38.7947 20.2561 35.2579V21.7737C20.2561 16.2474 18.7931 14.2579 15.8673 14.2579C12.9414 14.2579 10.3531 16.3579 10.3531 21.8842V35.2579C10.3531 38.7947 11.7035 40.0105 13.3915 40.4526V41.3368H0V41.2263ZM147.757 35.1474V21.7737C147.757 15.5842 144.493 11.9368 138.754 11.9368C133.015 11.9368 131.889 13.4842 130.089 17.1316H129.976L130.314 11.9368V0H130.201C126.713 1.21579 123.337 1.98947 119.736 2.1V2.87368C121.874 3.31579 122.887 4.64211 122.887 7.62632V34.9263C122.887 38.4632 121.987 39.6789 119.736 40.1211V41.0053H133.24V40.1211C131.102 39.6789 130.314 38.4632 130.314 34.9263V21.5526C130.314 15.5842 133.69 13.9263 136.166 13.9263C138.642 13.9263 140.33 16.0263 140.33 21.5526V34.9263C140.33 38.3526 139.429 39.6789 137.291 40.1211V41.0053H150.908V40.1211C148.77 39.6789 147.757 38.2421 147.757 34.9263V35.1474ZM79.2237 38.5737C78.0984 40.3421 76.2979 42 73.7096 42C71.1213 42 68.8706 39.3474 68.1954 36.1421H68.0829C66.5074 39.6789 63.0189 42 58.8551 42C54.6914 42 50.0775 39.9 50.0775 34.8158C50.0775 25.2 67.0701 28.6263 65.9447 22.3263C64.8194 16.0263 63.5815 13.1526 59.7554 13.1526C55.9292 13.1526 55.8167 14.0368 55.8167 16.5789C55.8167 19.1211 57.8423 19.2316 57.8423 21.7737C57.8423 24.3158 56.3794 25.2 54.1287 25.2C51.878 25.2 49.8524 23.3211 49.8524 20.6684C49.8524 15.9158 55.029 12.0474 61.6685 12.0474C68.308 12.0474 72.1341 17.0211 73.0344 22.3263L74.8349 33.1579C75.6227 38.1316 76.5229 38.7947 77.6483 38.7947C78.7736 38.7947 78.5485 38.6842 78.9987 38.3526L79.2237 38.6842V38.5737ZM67.4077 33.2684C67.4077 31.5 67.0701 29.1789 66.3949 25.2H66.2823C64.3693 28.1842 57.3922 28.6263 57.3922 33.6C57.3922 38.5737 59.8679 38.3526 62.5687 38.3526C65.2695 38.3526 67.4077 36.5842 67.4077 33.2684ZM92.2776 38.9053C90.3646 38.9053 88.2264 37.6895 88.2264 33.4895V13.9263H95.7662V11.6053C93.5155 12.2684 90.4771 12.6 88.2264 12.6V1.98947H87.3261C85.8632 6.3 81.1368 12.0474 75.6226 12.7105V13.9263H80.7992V33.4895C80.7992 39.4579 83.5 42 88.0014 42C92.5027 42 94.3032 39.7895 95.091 38.5737L94.7534 38.2421C94.0782 38.6842 93.2904 38.9053 92.1651 38.9053H92.2776ZM111.296 36.8053C105.219 36.8053 100.605 31.1684 100.605 23.5421C100.605 15.9158 103.644 13.0421 108.595 13.0421C113.547 13.0421 113.209 15.0316 113.209 17.1316C113.209 19.2316 111.858 19.4526 111.858 21.6632C111.858 23.8737 113.321 25.0895 115.572 25.0895C117.823 25.0895 119.398 23.4316 119.398 20.5579C119.398 15.4737 114.334 11.9368 108.82 11.9368C100.268 11.9368 93.9656 18.9 93.9656 26.8579C93.9656 34.8158 98.6921 41.8895 108.032 41.8895C117.373 41.8895 118.611 37.3579 119.961 31.8316H119.511C117.485 35.4789 114.222 36.6947 111.183 36.6947L111.296 36.8053ZM159.348 30.5053C158.673 29.1789 157.322 28.0737 155.522 28.0737C153.721 28.0737 151.47 29.7316 151.47 32.0526C151.47 36.1421 157.097 38.6842 159.235 42C161.373 38.5737 167 36.1421 167 32.0526C167 27.9632 165.312 28.0737 163.061 28.0737C160.811 28.0737 159.91 29.1789 159.235 30.5053H159.348Z" fill="#F2F2F2"/>
</svg>
