<svg width="168" height="40" viewBox="0 0 168 40" fill="none" xmlns="http://www.w3.org/2000/svg">
<path fill-rule="evenodd" clip-rule="evenodd" d="M10.1277 16.0981C17.7385 13.4715 19.034 6.62946 18.0624 0.338677C18.0624 0.11169 18.2567 -0.0504432 18.451 0.0144102C25.738 3.58135 33.9318 11.3638 33.9318 23.0374C33.9318 31.9871 27.0011 39.8993 16.9289 39.8993C13.3348 40.0629 9.78866 39.0235 6.85014 36.9451C3.91162 34.8667 1.74808 31.8677 0.700986 28.4214C-0.346103 24.9751 -0.217104 21.2778 1.06762 17.913C2.35235 14.5483 4.71964 11.7077 7.79585 9.8397C7.99017 9.71 8.24926 9.8397 8.24926 10.0667C8.34642 11.2665 8.67029 14.2822 9.99814 16.0981H10.1277Z" fill="#F2F2F2"/>
<path fill-rule="evenodd" clip-rule="evenodd" d="M55.3717 32.798L55.9222 32.1495L57.6387 37.5972L57.412 37.8241C56.1166 39.0239 54.1734 39.64 51.6796 39.64H51.5825C49.3154 39.64 47.5341 38.9915 46.3034 37.7917C45.0728 36.5595 44.425 34.7112 44.425 32.3765V17.525H40.0528V11.5261H44.425V4.29493H51.1614V11.5261H56.5052V17.525H51.129V30.9173C51.129 31.5334 51.291 33.5114 53.1694 33.5114C54.141 33.5114 55.0478 33.1547 55.3717 32.7656V32.798ZM58.9342 39.0239V11.5585H65.6706V39.0239H58.9342ZM62.27 0.338867C63.0693 0.338893 63.8507 0.575821 64.5157 1.01979C65.1808 1.46376 65.6996 2.0949 66.007 2.83366C66.3143 3.57243 66.3963 4.38575 66.2427 5.17112C66.0891 5.9565 65.7068 6.67877 65.1439 7.24691C64.5809 7.81505 63.8626 8.20363 63.0795 8.36367C62.2963 8.52371 61.4834 8.44805 60.7431 8.14623C60.0028 7.84441 59.3684 7.32993 58.9196 6.66764C58.4709 6.00535 58.2281 5.2249 58.2217 4.42463C58.2217 2.21962 60.0677 0.338867 62.27 0.338867ZM83.7747 10.8775C89.6043 10.8775 92.8105 14.0554 92.8105 19.8597V38.9915H86.0741V21.4811C85.9446 18.3681 84.4548 16.9413 81.2809 16.9413C78.4309 16.9413 76.1315 18.6924 74.9655 20.184V38.9915H68.2291V11.5909H74.9655V14.5093C76.9087 12.6286 80.0178 10.9424 83.7747 10.9424V10.8775ZM115.222 14.4121V1.50623H121.958V39.0564H115.222V36.2028C114.191 37.2914 112.951 38.1599 111.576 38.7562C110.202 39.3524 108.721 39.6641 107.223 39.6725C99.8708 39.6725 94.948 33.9005 94.948 25.3074C94.948 16.6819 99.8708 10.91 107.223 10.91C108.724 10.9168 110.208 11.231 111.584 11.8333C112.959 12.4355 114.198 13.3131 115.222 14.4121ZM115.222 20.2164C114.471 19.2374 113.512 18.4384 112.414 17.8774C111.316 17.3165 110.107 17.0078 108.874 16.9738C104.696 16.9738 101.911 20.3137 101.911 25.3074C101.911 30.2687 104.696 33.6087 108.874 33.6087C111.303 33.6087 113.959 32.3116 115.222 30.4309V20.2164ZM137.698 10.91C145.665 10.91 151.203 17.071 151.203 25.8263V27.6746H130.832C131.512 31.5334 134.557 33.9978 138.702 33.9978C141.326 33.9978 144.208 32.8629 145.86 31.2091L146.313 30.82L149.519 35.4246L149.195 35.7164C146.161 38.4105 142.205 39.8277 138.152 39.6725C129.731 39.6725 123.804 33.7384 123.804 25.275C123.739 23.4065 124.051 21.5439 124.723 19.7992C125.394 18.0545 126.41 16.4636 127.711 15.1219C129.012 13.7803 130.57 12.7157 132.291 11.9919C134.013 11.2681 135.863 10.9001 137.731 10.91H137.698ZM130.8 22.5836H144.629C144.24 18.4654 140.84 16.5846 137.698 16.5846C132.97 16.5846 131.189 20.1516 130.8 22.616V22.5836ZM167.494 10.91H167.98V17.7196L167.397 17.6223C166.911 17.525 166.296 17.4602 165.68 17.4602C163.51 17.4602 160.498 18.9842 159.365 20.6056V38.9915H152.628V11.5585H159.397V14.6066C161.632 12.2719 164.579 10.91 167.494 10.91Z" fill="#F2F2F2"/>
</svg>
