<svg width="119" height="48" viewBox="0 0 119 48" fill="none" xmlns="http://www.w3.org/2000/svg">
<path d="M75.2962 25.0377C69.8919 25.2132 66.534 26.1791 66.534 29.7051C66.534 31.9877 68.3712 34.4624 73.0354 34.4624C79.2888 34.4624 82.6268 31.0861 82.6268 25.5487L82.6272 24.9396C80.4348 24.9396 77.7312 24.9586 75.2962 25.0377ZM88.5875 32.3538C88.5875 34.0718 88.6377 35.7677 88.789 37.2948H83.2449C83.097 36.0374 83.043 34.7879 83.043 33.576C80.0456 37.2256 76.4804 38.2748 71.5345 38.2748C64.1989 38.2748 60.2711 34.4343 60.2711 29.9921C60.2711 23.5584 65.6133 21.29 74.8873 21.0795C77.4234 21.0222 80.272 21.0137 82.6271 21.0137L82.6268 20.3851C82.6268 16.0779 79.8385 14.307 75.0068 14.307C71.4198 14.307 68.7762 15.7773 68.5037 18.3179H62.2415C62.9043 11.9832 69.6235 10.3811 75.5315 10.3811C82.6092 10.3811 88.5875 12.8754 88.5875 20.2905L88.5875 32.3538Z" fill="#F2F2F2"/>
<path d="M23.7441 21.8961C23.5128 16.3736 19.4886 14.307 15.1876 14.307C10.5498 14.307 6.84698 16.6316 6.19835 21.8961H23.7441ZM6.06986 25.822C6.39151 31.1803 10.122 34.3495 15.2515 34.3495C18.8054 34.3495 21.9666 32.9151 23.0251 29.795H29.1723C27.9767 36.1259 21.1852 38.2748 15.3396 38.2748C4.71066 38.2748 0 32.4767 0 24.6576C0 16.05 4.87232 10.3811 15.4366 10.3811C23.8452 10.3811 30.0063 14.7399 30.0063 24.2536V25.822H6.06986Z" fill="#F2F2F2"/>
<path d="M45.2949 34.2377C50.834 34.2377 54.6244 30.2885 54.6244 24.329C54.6244 18.3701 50.834 14.4204 45.2949 14.4204C39.7869 14.4204 35.965 18.3701 35.965 24.329C35.965 30.2885 39.7869 34.2377 45.2949 34.2377ZM30.006 0H35.965L35.9644 14.8293C38.8851 11.3823 42.909 10.3814 46.8697 10.3814C53.5105 10.3814 60.8866 14.8201 60.8866 24.4039C60.8866 32.4293 55.0204 38.2752 46.7591 38.2752C42.4349 38.2752 38.3645 36.7386 35.8542 33.6945C35.8542 34.9104 35.7857 36.1359 35.6514 37.2951H29.8031C29.9048 35.4209 30.006 33.0872 30.006 31.199L30.006 0Z" fill="#F2F2F2"/>
<path d="M118.937 11.3633L100.508 47.2114H93.835L99.1332 37.2572L85.2646 11.3633H92.2374L102.443 31.5945L112.619 11.3633H118.937Z" fill="#F2F2F2"/>
</svg>
