<svg width="88" height="42" viewBox="0 0 88 42" fill="none" xmlns="http://www.w3.org/2000/svg">
<path d="M9.34321 3.20235V15.0422C9.34321 15.0422 13.4734 15.0422 15.6839 14.8727C17.4222 14.5653 17.7421 14.3958 18.0621 12.6399L18.702 10.0682H20.5925L20.2726 15.6886L20.4403 21.4469H18.5342L18.0621 19.1984C17.59 17.5982 16.9501 17.273 15.6839 17.1193C14.0997 16.9498 9.34321 16.9498 9.34321 16.9498V26.8801C9.34321 28.7897 10.3031 29.6055 12.5135 29.6055H19.1742C21.2324 29.6055 23.2888 29.436 24.5705 26.4032L26.2933 22.5544H27.8931C27.7253 23.3545 26.9332 30.4056 26.781 31.992C26.781 31.992 20.7603 31.8383 18.2299 31.8383H6.8128L0 31.992V30.2519L2.21045 29.7592C3.81025 29.436 4.28239 28.9591 4.28239 27.6802C4.28239 27.6802 4.45017 23.3545 4.45017 16.1477C4.45017 8.95871 4.28239 4.6311 4.28239 4.6311C4.28239 3.19841 3.81025 2.87522 2.21045 2.55203L0 2.07907V0.323191L6.66062 0.461139H19.3419C21.8724 0.461139 26.1391 0 26.1391 0C26.1391 0 25.987 2.70968 25.8192 9.11439H24.0809L23.4409 6.86585C22.8166 3.98668 21.8704 2.554 20.1184 2.554H10.1509C9.34321 2.55597 9.34321 2.70968 9.34321 3.20235ZM35.0102 4.46556H36.9163V11.1935L43.4248 10.8703L43.1048 13.9189L36.7641 13.4262V25.2818C36.7641 28.6379 37.8762 29.9307 39.7823 29.9307C41.505 29.9307 42.7848 28.9611 43.257 28.161L44.2012 29.2843C43.257 31.5171 40.5744 32.6404 38.0284 32.6404C34.8736 32.6404 32.312 30.7308 32.312 27.0515V13.5937H28.531V11.9936C31.7033 11.6704 34.0659 9.74501 35.0102 4.46556ZM48.6514 25.1104L49.9156 28.159C50.3878 29.436 51.4998 30.7308 54.0302 30.7308C56.7284 30.7308 57.8405 29.2843 57.8405 27.5284C57.8405 22.0775 47.2174 23.6797 47.2174 16.3192C47.2174 12.163 50.5399 10.2219 54.8223 10.2219C56.7284 10.2219 59.5788 10.5451 61.0108 11.1915C60.6909 12.7917 60.5231 14.8707 60.5231 16.4729L58.9525 16.6266L57.8405 13.4243C57.5205 12.6399 56.2407 11.9916 54.6702 11.9916C52.7641 11.9916 50.8599 12.7917 50.8599 14.8707C50.8599 19.829 61.8029 18.7195 61.8029 26.08C61.8029 30.2519 58.1604 32.4847 53.7103 32.4847C50.3878 32.4847 47.0497 31.1919 47.0497 31.1919C47.3696 29.2823 47.2174 27.2052 47.0497 25.1104H48.6514ZM61.0128 40.4758C61.4849 38.7199 61.8049 36.4891 62.1248 34.3943L63.8631 34.2406L64.5031 37.5966C64.6552 38.3967 65.1274 39.0431 66.3936 39.0431C68.4518 39.0431 71.15 37.7661 73.6941 33.2848C72.5664 30.5593 69.2439 21.7681 66.2258 15.0402C65.4337 13.2706 65.2815 13.1149 64.1831 12.7917L63.3754 12.4843V10.8683L68.1455 11.0378L73.9984 10.7146V12.3167L72.5664 12.6399C71.4544 12.7937 70.9959 13.4243 70.9959 14.0726C70.9959 14.2421 70.9959 14.3958 71.1481 14.719C71.4524 15.6886 73.9984 22.8796 75.9045 27.6821C77.4751 24.3261 80.4932 16.7981 80.9654 15.5191C81.1331 14.8727 81.2853 14.719 81.2853 14.2421C81.2853 13.4262 80.8132 12.9493 79.7148 12.6419L78.5871 12.3167V10.7166L83.0373 10.8703L87.1519 10.7166V12.3167L86.3598 12.9474C84.7756 13.5937 84.6078 13.7475 83.9816 15.0402L77.0166 31.5131C72.8864 40.9665 68.604 41.7666 65.5995 41.7666C63.6954 41.7686 62.2633 41.2759 61.0128 40.4758Z" fill="#F2F2F2"/>
</svg>
