<svg width="79" height="79" viewBox="0 0 79 79" fill="none" xmlns="http://www.w3.org/2000/svg">
<mask id="mask0_633_3569" style="mask-type:luminance" maskUnits="userSpaceOnUse" x="0" y="0" width="79" height="79">
<path d="M0 78.9493H78.9489V0H0V78.9493Z" fill="white"/>
</mask>
<g mask="url(#mask0_633_3569)">
<path d="M61.4013 -7.62939e-05C71.0926 -7.62939e-05 78.9491 7.85624 78.9491 17.5474V61.4012C78.9491 71.0927 71.0926 78.949 61.4013 78.949H17.5477C7.85632 78.949 0 71.0927 0 61.4012V17.5474C0 7.85624 7.85632 -7.62939e-05 17.5477 -7.62939e-05H61.4013ZM41.6641 41.0086H40.6157C39.6828 41.0086 38.9195 41.7642 38.9272 42.6972V54.3005C38.9272 55.2334 39.6828 55.9966 40.6157 55.9966C41.5485 55.9966 42.3117 55.2411 42.3117 54.3005V46.6831L45.1643 50.7077C45.758 51.5404 46.9916 51.5404 47.5929 50.7077L50.4456 46.6831V54.3005C50.4456 55.2334 51.2011 55.9966 52.1418 55.9966C53.0747 55.9966 53.8381 55.2411 53.8303 54.3005V42.6972C53.8303 41.7642 53.0747 41.001 52.1418 41.0086H51.0933C50.6924 41.0086 50.3068 41.2014 50.0756 41.5329L46.3826 47.0841L42.6818 41.5329C42.4505 41.2014 42.0727 41.0086 41.6641 41.0086ZM67.8931 41.0086C66.9602 41.0086 66.197 41.7642 66.197 42.6972V49.7826C66.197 52.0106 64.9403 53.1519 62.874 53.144C60.8077 53.144 59.5511 51.9646 59.5589 49.6823V42.6972C59.5589 41.7642 58.8031 41.001 57.8625 41.0086C56.9296 41.0086 56.1664 41.7642 56.1742 42.6972V49.7593C56.1742 53.8917 58.7028 55.9966 62.8354 55.9966C66.968 55.9966 69.5891 53.915 69.5815 49.6591V42.6972C69.5815 41.7642 68.8259 41.001 67.8931 41.0086ZM20.3308 41.0086H10.4392C9.50621 41.0086 8.743 41.7642 8.743 42.6972C8.743 43.63 9.49863 44.3934 10.4392 44.3934H13.6927V54.285C13.6927 55.2179 14.4483 55.9814 15.3811 55.9814C16.3141 55.9814 17.0774 55.2256 17.0774 54.285V44.3934H20.3308C21.2638 44.3934 22.027 43.6376 22.027 42.6972C22.027 41.7642 21.2716 41.001 20.3308 41.0086ZM34.972 41.0086H25.8049C24.872 41.0086 24.1088 41.7642 24.1088 42.6972V54.285C24.1088 55.2179 24.8643 55.9814 25.8049 55.9814H34.972C35.9048 55.9814 36.6682 55.2256 36.6605 54.285C36.6605 53.3522 35.9048 52.589 34.972 52.589H27.4933V50.1835H34.0006C34.9334 50.1835 35.6966 49.4278 35.6966 48.4948C35.6966 47.5622 34.9412 46.7989 34.0006 46.7989H27.4933V44.3934H34.972C35.9048 44.3934 36.6682 43.6376 36.6605 42.6972C36.6605 41.7642 35.9048 41.001 34.972 41.0086ZM18.4343 23.3223L18.1182 23.3299C16.7998 23.4148 15.8978 23.9853 15.3889 24.7564C14.7953 23.8697 13.6849 23.245 12.012 23.3378L11.9734 23.3917C11.7807 23.6999 11.0559 25.0802 12.2279 26.5835C12.4668 26.838 13.0528 27.5549 12.8137 28.4724L9.41374 33.9697C9.13615 34.4167 9.25961 34.995 9.68358 35.2957C10.5625 35.9123 12.3281 36.7605 15.3889 36.7605C18.4419 36.7605 20.2075 35.9123 21.0865 35.2957L21.2022 35.1955C21.3646 35.0398 21.4686 34.8331 21.4966 34.6099C21.5247 34.3867 21.4751 34.1607 21.3563 33.9697L17.964 28.4724L17.9871 28.5728L17.9485 28.4185C17.7636 27.5935 18.2261 26.9381 18.4805 26.6453L18.5423 26.5835C19.7219 25.0802 18.9893 23.7079 18.7967 23.3917L18.7658 23.3378L18.4343 23.3223ZM29.4439 25.8973C28.2798 23.5846 26.7687 23.1911 26.0131 23.7924C25.4348 24.2553 24.1011 26.0824 24.0084 26.2059C22.5359 28.295 22.6208 28.8041 24.5095 29.9913C25.5736 30.6622 26.4295 29.7986 26.7995 29.544C26.6221 30.6467 26.0825 32.3815 25.2729 33.5996C24.8335 33.268 24.5095 33.0136 24.3091 32.8285C24.0547 32.5972 23.6694 32.6127 23.4226 32.8516C23.3649 32.9087 23.3199 32.9774 23.2906 33.0531C23.2614 33.1289 23.2486 33.21 23.253 33.291C23.26 33.452 23.329 33.604 23.4457 33.7152C25.4117 35.5116 27.9944 36.5292 30.747 36.5371C33.5071 36.5371 36.1053 35.5192 38.0713 33.7152C38.3257 33.4839 38.3334 33.0983 38.1022 32.8516C37.9862 32.7336 37.8289 32.6652 37.6635 32.6609C37.4981 32.6566 37.3375 32.7167 37.2155 32.8285C37.0623 32.9663 36.9055 33.1 36.7452 33.2294L35.8818 31.3021C35.743 30.9705 35.5887 30.5541 35.4191 30.0529C35.5039 29.8447 35.6813 29.6443 35.9357 29.3822C36.1208 29.1972 36.2749 29.0121 36.3906 28.8347C36.9611 27.9327 36.6372 27.4006 36.46 27.046C36.0512 26.2134 35.4115 26.4834 34.9488 26.9766C34.3782 27.578 33.8231 27.8402 32.9288 28.0409C32.1809 28.2103 31.6027 28.1254 31.1248 27.8248C30.4616 27.4161 29.4439 25.8973 29.4439 25.8973ZM50.8234 23.546C48.3563 25.8897 50.7231 30.9859 46.2361 33.1523C45.7425 33.3914 45.3339 32.6048 44.6709 32.6048C42.7975 32.6203 39.2201 34.2704 39.0813 35.103C38.9656 35.789 40.4922 36.3365 44.9948 36.3442C48.9115 36.3442 50.1758 30.3846 51.5483 30.3768C52.9204 30.3768 52.2806 35.7815 52.1341 36.3442H53.5682C53.4449 35.7815 53.3523 34.0853 53.36 31.6876C53.36 29.2897 53.7917 28.7578 54.1387 26.946C54.4394 25.3731 52.111 24.0085 50.8234 23.546ZM64.8862 23.7385H60.8694C58.2711 23.7385 56.1125 25.7509 55.935 28.3412L55.6421 32.497C55.5033 34.4708 57.0684 36.1436 59.0421 36.1515H66.7057C68.6873 36.1515 70.2445 34.4784 70.1136 32.497L69.8205 28.3412C69.6356 25.7509 67.4844 23.7385 64.8862 23.7385ZM30.7623 33.2988C31.9729 33.2988 32.898 33.8924 33.2372 34.995C32.4122 35.211 31.5873 35.3189 30.747 35.311C29.4825 35.311 29.0354 35.1955 28.2257 34.9797C28.5496 34.0081 29.6213 33.2988 30.7623 33.2988ZM61.0543 27.1848V27.3006C61.0543 28.3028 61.8716 29.1278 62.874 29.1278C63.8762 29.1278 64.7012 28.3105 64.7012 27.3006V27.1848C64.7012 26.7378 66.3203 26.7378 66.3203 27.1848V27.3006C66.3203 29.1972 64.7784 30.7391 62.874 30.7391C60.9773 30.7391 59.4354 29.1972 59.4354 27.3006V27.1848C59.4354 26.7378 61.0467 26.7378 61.0543 27.1848Z" fill="#F2F2F2"/>
</g>
</svg>
