<svg width="162" height="39" viewBox="0 0 162 39" fill="none" xmlns="http://www.w3.org/2000/svg">
<path d="M93.7912 20.2421C93.7912 16.4722 92.1797 13.1497 86.7375 13.1497C83.9419 13.1497 81.7228 13.9346 80.5106 14.6351L81.3966 17.6679C82.5019 16.9702 84.2653 16.3906 85.9359 16.3906C88.6978 16.385 89.1506 17.9548 89.1506 18.962V19.2011C83.1291 19.1899 79.3266 21.2746 79.3266 25.5227C79.3266 28.1166 81.2644 30.5501 84.6337 30.5501C86.7037 30.5501 88.4391 29.723 89.4741 28.3979H89.5781C89.5781 28.3979 90.2644 31.276 94.0556 30.176C93.8559 28.9775 93.7912 27.7002 93.7912 26.1641M89.2941 24.2286C89.2941 24.5352 89.2687 24.8503 89.1816 25.1316C88.8328 26.2823 87.6375 27.2585 86.1469 27.2585C84.9009 27.2585 83.9137 26.5524 83.9137 25.0557C83.9137 22.7713 86.4309 22.1383 89.2941 22.1523V24.2286Z" fill="#F2F2F2"/>
<path d="M0 8.01514C0 8.01514 3.93187 24.1383 4.56187 26.7576C5.29312 29.8128 6.615 30.9354 10.4203 30.1786L12.8756 20.1828C13.5 17.6986 13.9162 15.929 14.3156 13.4055H14.3859C14.67 15.9544 15.0694 17.7071 15.5812 20.1912C15.5812 20.1912 16.5797 24.7291 17.0916 27.112C17.6034 29.4949 19.035 30.9972 22.7616 30.1786L28.6144 8.01795H23.8894L21.8925 17.6002C21.3553 20.3882 20.8687 22.5713 20.4919 25.1202H20.4244C20.0841 22.5966 19.6481 20.5007 19.1025 17.7858L17.0212 8.02077H12.0994L9.87469 17.5411C9.24469 20.436 8.65406 22.7683 8.28 25.2355H8.2125C7.82719 22.9145 7.31531 19.9802 6.76125 17.1782C6.76125 17.1782 5.43937 10.3727 4.97531 8.02358" fill="#F2F2F2"/>
<path d="M42.0441 20.2421C42.0441 16.4722 40.4325 13.1497 34.9903 13.1497C32.1947 13.1497 29.9756 13.9346 28.7662 14.6351L29.6522 17.6679C30.7575 16.9702 32.5209 16.3906 34.1916 16.3906C36.9562 16.385 37.4062 17.9548 37.4062 18.962V19.2011C31.3847 19.1899 27.5822 21.2746 27.5822 25.5227C27.5822 28.1166 29.52 30.5501 32.8866 30.5501C34.9594 30.5501 36.6919 29.723 37.7297 28.3979H37.8309C37.8309 28.3979 38.52 31.276 42.3084 30.176C42.1087 28.9775 42.0441 27.7002 42.0441 26.1641M37.5497 24.2286C37.5497 24.5352 37.5216 24.8503 37.4372 25.1316C37.0884 26.2823 35.8959 27.2585 34.4025 27.2585C33.1566 27.2585 32.1694 26.5524 32.1694 25.0557C32.1694 22.7713 34.6866 22.1383 37.5497 22.1523V24.2286Z" fill="#F2F2F2"/>
<path d="M49.545 25.4691V8.01514H45.045V30.1758H49.545" fill="#F2F2F2"/>
<path d="M108.405 8.01514V24.3634C108.405 26.6169 108.83 28.198 109.735 29.1601C110.526 30.0041 111.831 30.5499 113.397 30.5499C114.727 30.5499 116.035 30.2967 116.654 30.0689L116.595 26.555C116.137 26.6675 115.608 26.7547 114.885 26.7547C113.352 26.7547 112.84 25.7729 112.84 23.7501V17.4933H116.755V13.2564H112.84V8.01514" fill="#F2F2F2"/>
<path d="M96.7894 13.5321V30.1786H101.43V21.6542C101.43 21.1957 101.458 20.7962 101.531 20.4276C101.874 18.6412 103.241 17.4989 105.199 17.4989C105.739 17.4989 106.124 17.558 106.54 17.6171V13.2564C106.189 13.1861 105.95 13.1523 105.514 13.1523C103.781 13.1523 101.815 14.272 100.986 16.669H100.856V13.5321" fill="#F2F2F2"/>
<path d="M52.695 13.532V30.1785H57.2175V20.4162C57.2175 19.9577 57.2709 19.4738 57.4312 19.0518C57.8053 18.0671 58.7194 16.9193 60.1791 16.9193C62.0016 16.9193 62.8566 18.4638 62.8566 20.6891V30.1785H67.3734V20.2981C67.3734 19.862 67.4353 19.3359 67.5619 18.9477C67.9331 17.8308 68.9175 16.9193 70.2759 16.9193C72.1266 16.9193 73.0153 18.4357 73.0153 21.0549V30.1785H77.535V20.374C77.535 15.2031 74.9109 13.155 71.9466 13.155C70.6331 13.155 69.5981 13.4842 68.6616 14.0581C67.8741 14.542 67.1681 15.2313 66.555 16.1343H66.4875C65.7731 14.3394 64.0912 13.155 61.9003 13.155C59.085 13.155 57.8194 14.5842 57.0516 15.7939H56.9841V13.532" fill="#F2F2F2"/>
<path d="M141.081 12.8597C141.975 12.8597 142.709 12.3927 142.807 11.7907L143.691 1.79772C143.691 0.810244 142.537 0 141.081 0C139.627 0 138.473 0.810244 138.473 1.79772L139.357 11.7907C139.452 12.3927 140.189 12.8597 141.081 12.8597Z" fill="#F2F2F2"/>
<path d="M135.681 15.9798C136.128 15.209 136.094 14.334 135.622 13.9486L127.412 8.18971C126.56 7.69457 125.277 8.29099 124.552 9.54855C123.826 10.8089 123.952 12.2128 124.805 12.7051L133.892 16.9364C134.463 17.1474 135.233 16.7451 135.683 15.9686" fill="#F2F2F2"/>
<path d="M146.481 15.9714C146.928 16.7479 147.701 17.1502 148.267 16.9392L157.359 12.7079C158.214 12.2128 158.341 10.8089 157.613 9.55136C156.887 8.29099 155.602 7.69737 154.752 8.19252L146.542 13.9514C146.073 14.3368 146.039 15.2118 146.483 15.9826" fill="#F2F2F2"/>
<path d="M141.081 25.3396C141.975 25.3396 142.709 25.801 142.807 26.4002L143.691 36.3904C143.691 37.3807 142.537 38.1909 141.081 38.1909C139.627 38.1909 138.473 37.3807 138.473 36.3904L139.357 26.4002C139.452 25.801 140.189 25.3396 141.081 25.3396Z" fill="#F2F2F2"/>
<path d="M146.481 22.2196C146.928 21.4431 147.701 21.0408 148.267 21.2518L157.359 25.4802C158.214 25.9782 158.341 27.382 157.613 28.6424C156.887 29.9 155.602 30.4964 154.752 30.0012L146.542 24.248C146.073 23.8597 146.039 22.9876 146.483 22.2139" fill="#F2F2F2"/>
<path d="M135.681 22.2139C136.128 22.9904 136.094 23.8597 135.622 24.2479L127.412 30.004C126.56 30.4964 125.277 29.8999 124.552 28.6452C123.826 27.3848 123.952 25.9781 124.805 25.4802L133.892 21.2546C134.463 21.0379 135.233 21.4431 135.683 22.2167" fill="#F2F2F2"/>
<path d="M160.56 27.9673C161.364 27.9673 162 28.5918 162 29.388C162 30.2039 161.364 30.8284 160.549 30.8284C159.736 30.8284 159.092 30.2011 159.092 29.388C159.092 28.5918 159.736 27.9673 160.549 27.9673M160.543 28.2177C159.896 28.2177 159.407 28.7438 159.407 29.388C159.407 30.052 159.896 30.5696 160.56 30.5696C161.204 30.5809 161.677 30.0548 161.677 29.3993C161.677 28.7466 161.204 28.2177 160.549 28.2177H160.543ZM160.29 30.1758H160.014V28.6819C160.163 28.6537 160.324 28.6369 160.532 28.6369C160.782 28.6369 160.909 28.6819 161.004 28.755C161.094 28.8169 161.156 28.9351 161.156 29.0701C161.156 29.2586 161.021 29.374 160.861 29.4274V29.4443C160.996 29.4977 161.066 29.6131 161.111 29.8016C161.156 30.0323 161.184 30.1223 161.218 30.1758H160.928C160.886 30.1223 160.853 29.9873 160.813 29.7819C160.779 29.6215 160.681 29.5484 160.464 29.5484H160.284V30.1758H160.29ZM160.29 29.3346H160.478C160.687 29.3346 160.864 29.2727 160.864 29.0926C160.864 28.9491 160.774 28.8507 160.507 28.8507C160.403 28.8507 160.341 28.8591 160.29 28.8704V29.3346Z" fill="#F2F2F2"/>
</svg>
