<svg width="105" height="47" viewBox="0 0 105 47" fill="none" xmlns="http://www.w3.org/2000/svg">
<path d="M0 46.3589H104.989V0H0V46.3589ZM29.1218 31.6766C24.705 31.6766 21.1129 28.837 19.9432 24.842H18.9433V31.3734H14.9489V13.5922H21.6876C22.7381 13.5922 23.6618 13.7389 24.459 14.0327C25.2558 14.3254 25.9221 14.7257 26.4561 15.2325C26.9909 15.7387 27.3894 16.3305 27.6514 17.0048C27.9141 17.68 28.0458 18.4008 28.0458 19.1638C28.0458 20.3192 27.7879 21.328 27.2711 22.1902C26.7552 23.0524 26.0263 23.6624 25.0838 24.1786C24.781 24.3575 24.4371 24.5207 23.9578 24.6462C24.88 26.5981 26.7427 27.8845 29.1218 27.8845L29.1218 31.6766ZM49.3779 31.3874H36.7327V13.5977H48.796V17.1183H40.7281V20.5858H46.8025V23.999H40.7281V27.8401H49.3779V31.3874ZM62.2129 19.5713C62.859 19.9465 63.7475 20.2597 64.8781 20.5091C65.5423 20.6705 66.1931 20.8883 66.8299 21.1652C67.4677 21.4425 68.0371 21.8039 68.5405 22.2507C69.0423 22.6969 69.446 23.2469 69.7526 23.8988C70.0567 24.55 70.2094 25.3401 70.2094 26.2682C70.2094 27.0717 70.0296 27.814 69.6706 28.4923C69.3112 29.1719 68.8234 29.76 68.2035 30.2605C67.5844 30.7611 66.857 31.1499 66.0224 31.4263C65.1876 31.7023 64.2861 31.8408 63.3166 31.8408C62.4188 31.8408 61.6028 31.7557 60.8665 31.5864C60.1309 31.4167 59.4665 31.1944 58.8741 30.9167C58.282 30.6407 57.748 30.3235 57.2724 29.966C56.7961 29.6097 56.3881 29.2432 56.0463 28.8685L58.6588 26.0543C58.8917 26.3052 59.1664 26.5601 59.4795 26.8189C59.7933 27.0773 60.1433 27.3137 60.5298 27.5277C60.9161 27.7433 61.3377 27.9166 61.7955 28.05C62.2525 28.1845 62.7422 28.2519 63.2629 28.2519C63.5677 28.2519 63.873 28.2069 64.1784 28.1175C64.4831 28.0289 64.7619 27.8991 65.013 27.7295C65.2641 27.5593 65.4668 27.3547 65.6196 27.1132C65.7711 26.8724 65.8477 26.6002 65.8477 26.2968C65.8477 25.6362 65.5257 25.1226 64.8782 24.7563C64.2314 24.3899 63.2093 24.0288 61.8087 23.6714C61.1259 23.5101 60.4946 23.2777 59.9104 22.9746C59.3273 22.6708 58.8251 22.3045 58.4031 21.8755C57.9809 21.447 57.6533 20.9564 57.4203 20.4021C57.1869 19.8496 57.0697 19.2332 57.0697 18.5536C57.0697 17.8042 57.2048 17.0993 57.4739 16.4375C57.7428 15.7767 58.1514 15.1922 58.6985 14.6824C59.2462 14.1739 59.9286 13.7721 60.7446 13.4778C61.5622 13.1824 62.5261 13.0352 63.6402 13.0352C64.5556 13.0352 65.3631 13.129 66.0625 13.3169C66.7627 13.5047 67.3598 13.7278 67.8533 13.986C68.3472 14.2448 68.7504 14.5137 69.0652 14.7903C69.3788 15.0667 69.617 15.286 69.779 15.4457L67.4364 18.0181C67.2378 17.8577 67.0097 17.6835 66.7497 17.4957C66.4897 17.3084 66.1979 17.1346 65.8744 16.9732C65.5524 16.8128 65.1969 16.6782 64.8119 16.5715C64.4247 16.4649 64.0163 16.4107 63.5859 16.4107C63.2988 16.4107 63.0158 16.4552 62.7377 16.5451C62.4588 16.6341 62.2076 16.7553 61.9836 16.9062C61.7597 17.0587 61.5799 17.2377 61.4454 17.4428C61.3106 17.6482 61.2428 17.8665 61.2428 18.0989C61.2428 18.7057 61.5669 19.1955 62.2129 19.5713ZM92.4407 13.5977L86.1514 23.9196V31.3874H82.0386V23.9458L75.7492 13.5977H80.3452L84.2433 20.3191L88.0323 13.5977H92.4407ZM23.3611 21.0821C23.7958 20.6381 24.0129 20.078 24.0129 19.4028C24.0129 18.6736 23.7958 18.0959 23.3611 17.669C22.9266 17.2426 22.3284 17.0297 21.5677 17.0297H19.1183V21.7486H21.5677C22.3284 21.7486 22.9266 21.5263 23.3611 21.0821Z" fill="#F2F2F2"/>
</svg>
