<svg width="72" height="72" viewBox="0 0 72 72" fill="none" xmlns="http://www.w3.org/2000/svg">
<path d="M35.4749 12.5849C36.7456 13.32 38.0935 14.2659 39.1195 15.2683L38.7164 15.6748C36.6917 15.4588 34.5592 15.7284 32.6398 15.7581C32.4258 15.5413 31.9945 15.2155 32.3962 14.9432L35.4749 12.5849ZM71.2762 37.8254C71.3031 38.7426 71.389 39.5302 71.0325 40.4689C67.3335 41.5246 64.9037 37.5943 61.3146 38.1871L61.7204 40.2243C65.0408 40.3339 67.1148 43.5293 70.5452 43.3919C70.0579 44.3688 70.7626 46.9423 68.6035 45.9136C66.3623 45.3732 64.7419 43.3919 62.2859 43.3919C61.9895 43.938 62.1771 44.6939 62.1252 45.3398C64.7161 45.7478 66.5795 47.9453 69.1697 48.351C68.926 49.2444 68.6845 50.2446 67.955 50.7894C65.8478 50.2748 64.2019 48.3756 61.9585 48.4299L61.559 50.3006C63.691 50.3557 65.0685 52.2485 66.9845 52.8167C67.0372 53.6058 66.3344 54.3109 65.9296 55.0152C64.2286 54.5025 62.9314 53.0361 60.988 53.1443C60.961 52.4095 61.3957 51.5751 61.2316 50.7894C59.0489 51.4409 57.5853 49.4056 55.9675 48.1847C55.9209 44.1893 51.7298 41.5682 51.5084 37.8254C51.466 37.0792 51.5793 36.2825 51.9181 35.4265C53.2956 32.2302 52.8629 28.0804 51.3524 25.1003C50.8935 24.3161 50.0802 23.697 49.3223 23.236C50.4311 25.5942 51.7824 28.3807 51.108 31.2794C51.0298 33.5178 49.7138 35.6676 49.6987 37.8254C49.6936 38.5948 49.8572 39.3641 50.2981 40.1411C52.0542 43.315 55.2135 46.3194 54.0256 50.2999C53.6989 51.5225 52.7262 52.4679 52.4835 53.7122C54.5379 55.4197 56.4803 57.3438 59.2062 57.4521C60.1774 56.8296 59.6379 54.069 61.636 55.3423L64.5533 56.8067C64.3407 57.5905 63.6869 58.2929 63.0947 58.8326C61.9878 58.2919 60.9081 57.6438 59.528 57.6967C59.121 58.1299 58.7708 58.6163 58.8019 59.2381C59.7731 59.3986 60.664 59.8099 61.4753 60.3798C61.0986 61.194 60.3645 61.7042 59.6896 62.3277L57.4266 61.5157C57.0487 62.0583 56.2639 62.6285 56.5393 63.224C57.0499 63.4434 57.6163 63.74 57.9923 64.1202C56.9934 65.2037 55.7273 65.9008 54.509 66.6363C53.4596 63.1942 50.0021 60.7809 50.2989 56.8004L50.1382 56.6394C49.3255 57.5564 49.597 59.0228 49.6494 60.2127C50.6221 62.7059 52.9422 64.6317 53.2941 67.3657C52.8878 68.0693 51.972 68.2096 51.2694 68.5075C51.3509 63.5781 43.9002 59.8394 48.6782 54.8532C50.2717 52.4117 52.9415 50.0817 51.9955 46.7202C51.0243 43.4747 47.589 41.4638 47.6194 37.8254L47.6247 37.5417C48.4071 33.7475 50.784 29.7102 48.8396 25.6739C48.2977 24.0504 47.0869 22.2055 45.4401 21.527C47.8953 24.3473 48.8687 28.9489 47.4641 32.7438C46.7561 34.2533 45.7815 36.0517 45.6837 37.8261H45.6779C45.6257 38.7528 45.8143 39.6744 46.4101 40.5483C48.2744 43.5838 51.5123 46.9182 49.6497 50.8742C47.5441 54.0427 43.8725 57.2658 45.923 61.4392C47.4078 63.9317 49.7045 66.4188 49.085 69.4829L46.6552 70.2949C48.2751 64.5798 40.3369 61.2218 43.66 55.5047C45.7116 52.4433 49.381 49.5709 47.3039 45.5079C46.0621 42.9903 43.4961 41.5003 43.5772 38.3541L43.6655 37.8259C44.5016 33.3639 47.8815 29.1403 45.5182 24.3721C44.8972 22.9642 43.6561 21.5287 42.2786 20.7153L42.1953 20.7988C44.9506 23.481 45.7888 27.894 44.3033 31.4416C43.6102 33.5229 42.089 35.5962 41.7799 37.8266C41.6328 38.8783 41.7568 39.9681 42.3623 41.1162C44.1169 43.9046 47.1939 46.8625 45.2738 50.4674C43.2518 53.4451 39.876 56.3423 41.2244 60.2144C42.7096 63.6022 45.8109 66.8294 44.1363 71.0301L41.6292 71.5983C43.6262 67.5045 40.6317 63.4424 38.8776 59.892C36.7436 54.7982 43.4624 52.3591 43.5702 47.702C43.5447 44.6961 40.3604 42.9893 39.6874 40.2261C38.3092 39.0592 36.8808 40.69 35.2332 40.3873C34.0168 40.6325 32.1486 38.7071 31.4225 40.7943C30.5578 43.8542 26.6185 46.1038 28.3499 49.7332C29.9972 52.9584 33.9617 55.317 32.6374 59.4909C31.4516 63.3896 27.5347 67.1017 29.964 71.5983C28.966 71.2739 27.1025 71.895 27.1294 70.2951C25.5912 64.8496 32.1506 61.6772 30.1246 56.2346C29.1818 52.901 24.886 51.0593 25.8317 47.0498C26.5309 43.7492 30.2215 41.4418 29.7038 37.8264C29.6618 37.5237 29.5876 37.2139 29.4815 36.8909C28.104 32.9895 25.2937 29.0872 26.9687 24.5338C27.4286 23.2333 28.3472 22.1227 29.1544 20.9603C26.4814 22.3957 25.1331 25.4311 25.1884 28.519C25.0719 31.877 27.5437 34.7536 27.8953 37.8264C28.0336 39.0665 27.8312 40.3364 26.9687 41.6834C25.2153 44.0712 22.9222 46.5887 23.9735 49.7327C24.9731 52.9039 28.9143 54.825 28.6714 58.5111C28.6447 62.8713 23.5961 65.5861 25.027 70.4624L22.5142 69.6443C21.5165 65.3111 26.1053 63.0941 26.1579 59.0849C26.8073 54.4743 20.9477 52.7636 21.2993 48.2692C21.2741 44.8544 24.2693 42.6917 25.5922 39.8193C25.8191 39.1203 25.8946 38.4599 25.8643 37.8266C25.7022 34.6508 22.8506 32.1678 23.3238 28.5972C23.483 25.9693 24.3739 23.6658 26.0754 21.6894C23.7279 22.6359 22.7581 25.3478 22.1097 27.624C20.9843 31.2738 23.6706 34.5568 23.94 37.8269C24.0594 39.2709 23.7078 40.7066 22.3538 42.1744C20.4089 44.4745 18.4366 47.3766 19.8408 50.4679C21.3277 53.8788 25.9992 56.5337 23.973 60.788C22.8676 63.4707 20.2206 65.5014 20.3293 68.6702C19.628 68.372 18.9004 68.0749 18.3044 67.5345C18.3044 63.4984 24.0254 60.9775 21.2996 56.7239C21.0581 57.5632 21.0062 58.7037 20.8171 59.6519C19.8711 62.1185 17.8471 64.0929 17.0897 66.6429C15.8231 66.1524 14.4988 65.1217 13.4453 64.0381L14.9046 63.1419C14.7425 62.599 14.3112 62.139 13.9341 61.6784C12.9864 61.5447 12.3641 62.1687 11.5829 62.4132C10.908 61.816 10.2566 61.2739 9.71861 60.5425C10.203 59.1579 13.9879 60.3028 12.0705 58.0264C10.776 57.2142 9.47665 58.3744 8.34306 58.9161L6.80637 56.9682C8.12926 56.1562 9.44874 55.0157 11.0942 55.3428C11.4997 56.0756 11.5278 57.1533 12.309 57.5359C15.0902 57.4816 17.0608 55.3705 19.1928 53.7173C17.7069 51.4984 16.4973 48.435 17.8173 45.7516C18.8749 43.0626 21.6306 40.7979 21.7556 37.8252C21.7837 37.1486 21.6787 36.4367 21.3838 35.6705C19.9267 31.904 19.4125 26.8137 22.1936 23.48C20.6815 23.8877 19.7898 25.7791 19.2761 27.2153C17.6042 30.8931 19.7187 34.3003 19.7918 37.8249C19.8017 38.4589 19.7505 39.0943 19.5974 39.7343C18.166 42.633 15.8469 45.1764 15.4703 48.512C13.8229 49.5666 12.4704 51.4107 10.1232 50.7884C10.0407 51.4109 10.2297 52.3598 10.445 53.0649C8.58356 52.9865 7.31432 54.3632 5.74705 55.0135C4.91221 54.7446 4.695 53.6616 4.37175 52.9036C6.20621 52.2819 7.52958 50.4363 9.63585 50.4655C9.87999 49.7848 9.49898 49.1611 9.39147 48.5115C6.77143 47.3444 2.61834 54.2807 2.26911 48.267C4.88721 48.1043 6.56029 45.6654 9.15315 45.4224L9.23057 43.4745C6.288 43.1761 4.39504 46.2119 1.45369 45.9126L0.80499 43.3133C4.20745 43.5266 6.23461 40.4667 9.47495 40.302C9.90547 39.7338 9.95741 38.8939 10.0404 38.1089C6.5035 37.6464 4.0764 41.5799 0.32253 40.3853C0.32253 40.3853 0.193178 38.7482 0.123042 37.8252H0.128138C0.102656 37.4642 0.0783876 37.2126 0.0783876 37.2126C3.42576 38.5161 6.36687 36.1033 9.23057 34.8578C9.95887 34.6391 11.0946 35.0183 11.4213 34.2063C11.3929 33.5831 12.5255 32.8544 11.5827 32.4194C7.3961 31.8493 4.61492 36.9167 0.322044 34.6125L0 33.961C0.893085 21.7167 7.77421 9.87887 19.1928 4.05347C23.8175 1.40125 29.5628 0.049317 35.3569 0.00133819C42.3494 -0.0568695 49.415 1.78386 54.6711 5.51768C59.7753 8.65968 64.6576 13.8377 67.3073 19.0942C69.8414 23.6997 71.0078 28.8675 71.356 34.3692C66.9275 37.7273 63.9565 31.2056 59.4469 32.6651C59.6899 33.3709 59.8243 34.1011 60.3398 34.697C64.3366 34.6688 67.0889 38.8685 71.2725 37.2134L71.2762 37.8254ZM20.4063 22.7455C17.5981 20.9025 14.0379 22.6378 11.4208 23.6415C11.1779 21.1748 10.1797 18.9276 8.09843 17.3022C7.89652 17.2014 7.61743 16.9892 7.36601 16.9736C7.21554 16.9641 7.07236 17.025 6.96121 17.2182C7.90453 23.0421 4.13197 27.1059 1.45854 31.5239C2.34872 32.254 3.77886 32.1449 4.85857 31.9304C7.69266 30.793 10.3923 28.8134 13.7669 29.492C14.7648 27.7852 16.4415 26.132 17.8163 24.7774C18.6562 24.048 19.8102 23.5847 20.4063 22.7455ZM28.993 26.4031C28.9391 26.7538 29.0199 27.3789 29.5587 27.1373C30.3969 25.9725 31.8809 26.894 32.7983 26.9761V26.6483C32.295 25.8551 31.2594 25.4566 30.2079 25.4963C29.9652 25.5049 29.7186 25.5404 29.4813 25.5957C29.1294 25.6741 28.8845 25.9973 28.993 26.4031ZM42.1941 22.9128C41.4403 21.2325 39.7124 20.5526 38.1444 20.1463C37.3758 20.0513 36.5781 19.987 35.787 19.9795C35.6387 19.978 35.4907 19.9761 35.3431 19.9795C33.13 20.0243 31.0155 20.5945 29.7237 22.4225C29.5383 22.9386 28.7231 23.6634 29.48 24.1259C31.181 24.0168 33.122 23.8027 34.2559 25.2676C34.2559 26.5694 35.0934 28.3013 33.6902 28.9245C32.5275 27.8441 31.1505 29.3843 29.8853 28.5173C29.2905 28.1646 28.9141 28.5762 28.6704 29.0908C28.3188 32.4496 30.0712 36.1564 33.2024 38.0251C34.4714 38.4844 36.1772 38.9214 37.5015 38.2696C40.687 36.7811 42.0065 33.3695 42.5997 30.2263C42.5201 29.6281 42.5485 28.4625 41.7122 28.4342C40.7679 29.0336 39.3906 28.6795 38.3898 28.4342C37.7981 28.6259 37.7709 29.4946 37.0975 29.6593L36.6871 29.3307C36.3357 27.8429 36.119 25.7289 37.4972 24.6994C39.0373 24.0762 40.846 23.8039 42.4388 24.293C42.736 23.7786 42.2771 23.3736 42.1941 22.9128ZM40.5689 25.5842C40.4618 25.5869 40.3577 25.5923 40.2524 25.5957C39.6867 25.9744 38.0381 25.7021 38.6332 26.9761C39.6598 26.1612 41.0906 26.7323 42.1165 27.1373C42.4958 26.9484 42.4135 26.5689 42.4385 26.2418C42.1092 25.6269 41.3222 25.5691 40.5689 25.5842ZM52.3231 14.1293C50.3248 14.0228 48.6515 15.1612 46.8154 15.6763C46.6554 14.1083 47.8424 12.4524 48.1132 10.8784C45.1445 11.0701 42.7931 12.8633 40.3371 14.2958C39.7687 12.9176 39.1987 11.5323 38.6342 10.149L41.8738 7.05957L41.9568 6.65261L37.5809 6.40809C36.8271 5.0827 36.5301 3.48625 35.6392 2.26706C34.9101 3.6487 34.4204 5.11095 33.6921 6.49138L29.3213 6.73663V7.05957L32.6386 10.0654C32.2331 11.6105 31.8562 13.2893 30.8583 14.4571C28.9146 13.2888 26.9986 12.0172 24.8676 11.206C24.3548 11.0399 23.6238 10.7698 23.1649 11.1227C23.8388 12.6132 24.7826 14.2164 24.6239 15.8433C23.7325 15.6787 23.0319 15.1052 22.1944 14.864C21.1928 14.5898 20.0044 14.054 19.0327 14.3799C20.6528 16.6544 21.9752 19.0348 22.4327 21.772C27.8075 19.1687 34.0756 17.7369 40.582 18.8494C43.6318 19.3365 46.4363 20.5833 49.1633 21.6103C49.2699 18.7401 51.0786 16.4337 52.3231 14.1293ZM61.553 29.7367C64.3045 30.4676 67.0648 33.4761 69.9785 31.5241C67.441 27.2983 63.6641 23.396 64.7144 17.8699C64.8244 17.4926 64.5814 17.1108 64.232 17.0572C62.5858 17.7323 61.311 19.3599 60.6596 20.9598C60.3917 21.906 60.233 22.9118 59.8556 23.8037C57.8835 22.7737 55.7792 21.7759 53.3766 22.017C52.5102 22.1254 51.2682 22.1824 51.1082 23.075C53.8348 24.5372 56.077 26.9776 57.7479 29.5762C58.9113 29.3858 60.3381 29.5485 61.553 29.7367ZM32.7204 33.5558L32.798 34.0456C33.853 34.7509 34.1775 35.9462 35.638 35.8376C36.9332 35.9148 37.9049 34.697 38.5502 33.7224C36.7975 33.4796 34.6648 33.8554 32.7204 33.5558ZM34.1789 31.3626C34.2316 31.5796 34.0452 31.9048 34.3396 32.0144C35.2036 31.8261 36.7686 32.4757 37.2511 31.4462C36.9142 31.0675 36.3643 30.8955 35.7872 30.8955C35.2104 30.8955 34.6116 31.0643 34.1789 31.3626Z" fill="#F2F2F2"/>
<path d="M61.7821 71.7718V68.2956H60.5448V67.5879H63.858V68.2956H62.6237V71.7718H61.7821Z" fill="#F2F2F2"/>
<path d="M64.3929 71.7715V67.5874H65.6527L66.4091 70.4415L67.1571 67.5874H68.4198V71.7715H67.6376V68.478L66.81 71.7715H65.9995L65.1748 68.478V71.7715H64.3929Z" fill="#F2F2F2"/>
</svg>
