<svg width="176" height="35" viewBox="0 0 176 35" fill="none" xmlns="http://www.w3.org/2000/svg">
<path d="M167.34 28.0142H163.218V16.807C163.166 15.186 164.482 13.7973 166.121 13.7973H167.329L167.34 28.0142ZM157.736 20.9236C157.736 18.835 155.956 17.3191 154.328 17.3191C149.804 17.3191 149.661 24.5232 154.289 24.5232V24.533C155.971 24.533 157.736 23.0055 157.736 20.9236ZM151.006 9.11184V14.9613C154.455 11.5051 162.022 13.6519 162.022 20.8304C162.022 28.5072 153.712 30.4869 150.926 26.4789V27.9945H146.806V12.0513C146.843 10.4426 148.157 9.13323 149.759 9.11184H151.006ZM141.403 20.9236C141.403 18.835 139.622 17.3191 137.994 17.3191C133.476 17.3191 133.318 24.5232 137.955 24.5232V24.533C139.637 24.533 141.403 23.0055 141.403 20.9236ZM134.702 9.11184V14.9613C138.143 11.5081 145.718 13.6461 145.718 20.8304C145.718 28.51 137.404 30.4851 134.623 26.4789V27.9945H130.411V12.0513C130.449 10.4237 131.796 9.10603 133.415 9.11184H134.702ZM120.929 17.0187C116.203 17.0187 116.309 24.5232 120.903 24.5232C125.578 24.5232 125.625 17.0187 120.929 17.0187ZM128.636 28.0144C126.664 28.0144 124.424 28.4627 124.424 26.4994H124.375C122.548 30.0709 113.189 29.2661 113.189 20.9206C113.189 13.5249 121.523 11.2289 124.375 15.3625H124.424C124.424 13.3903 126.686 13.8472 128.636 13.8472V28.0144Z" fill="#F2F2F2"/>
<path fill-rule="evenodd" clip-rule="evenodd" d="M165.284 13.0365C162.371 13.0365 162.368 8.60156 165.284 8.60156C168.196 8.60156 168.199 13.0365 165.284 13.0365Z" fill="#F2F2F2"/>
<path d="M175.391 23.7408C174.946 23.7239 174.51 23.6076 174.115 23.4001C173.008 22.7943 173.236 22.1989 173.236 17.0688H175.98V13.7577H173.236V9.1126H171.988C170.347 9.1126 168.995 10.4712 168.995 12.1226C168.995 22.0243 168.993 21.8079 168.993 21.8079C168.993 24.7442 171.047 28.055 176 28.055V23.7408H175.391ZM105.267 18.6343H103.621V13.3865C105.261 13.3865 108.409 13.049 108.409 15.9348C108.461 17.4864 107.528 18.6343 105.267 18.6343ZM111.254 23.7408C109.954 23.6616 109.481 22.9484 108.719 21.9645L108.379 21.5641C113.551 20.6056 114.583 13.7722 110.755 10.4672C108.648 8.8366 106.628 9.10251 98.9803 9.10251V28.0148H103.59V22.3567C107.345 27.1025 107.658 28.0148 113.119 28.0148V23.7408H111.254Z" fill="#F2F2F2"/>
<path d="M48.3433 13.386H44.0826C44.0826 11.8865 44.0797 11.9212 44.0797 11.9212C44.0797 10.3771 45.3285 9.04199 46.966 9.04199H57.2633V13.3162H53.1425V28.0145H51.3463C49.7039 28.0145 48.3529 26.6564 48.3529 25.0042L48.3433 13.386Z" fill="#F2F2F2"/>
<path d="M83.7543 24.2326V28.0144H88.0049V21.2825C90.4786 24.9467 91.377 28.0445 97.8735 28.0445V24.292C96.22 24.292 94.266 24.1747 93.2634 22.5969C92.9038 22.0307 91.9716 20.6875 91.6265 20.0784L96.9252 13.8375H91.9364L88.0348 18.9446H87.9851V12.0514C87.9851 10.2594 86.5423 9.04324 84.9918 9.11216H83.7543V24.2326ZM78.1369 17.8013C78.1369 15.2644 72.6547 17.7475 77.7874 19.2161C80.1724 19.8773 82.7067 20.5905 82.7067 23.6506C82.7067 29.7853 71.925 30.32 71.2521 23.7306H75.4329C75.5548 25.6464 78.4861 25.365 78.4861 24.0108C78.4861 21.739 71.4242 22.4659 71.4019 18.0522C71.4019 12.2715 81.6566 11.4221 82.2575 17.8315L78.1369 17.8013ZM62.4588 17.0188C57.7391 17.0188 57.8157 24.4577 62.4315 24.5234C67.0993 24.5234 67.1665 17.0188 62.4588 17.0188ZM70.1642 28.0145C68.1915 28.0145 65.9538 28.4629 65.9538 26.4996H65.854C64.0272 30.0711 54.6688 29.2663 54.6688 20.9207C54.6688 13.5227 63.002 11.2308 65.854 15.3627H65.9041C65.9041 13.39 68.1662 13.8474 70.1147 13.8474L70.1642 28.0145Z" fill="#F2F2F2"/>
<path d="M18.1299 0.56543C21.5481 -1.80931 27.2868 3.7958 29.834 8.10938C33.4559 14.226 34.4616 9.37277 38.3155 15.8047C40.6206 19.5769 37.9552 22.121 33.4659 22.3975C28.0525 22.9115 29.0697 20.9062 28.6768 23.0078C31.8352 24.0414 31.4483 27.5055 27.1602 27.2627C24.6576 31.8642 19.8403 34.7372 14.6241 34.7373C5.40973 34.7373 -1.64591 25.8514 0.828171 16.627C-0.884569 14.6801 0.0939317 11.3907 3.44243 11.3906C6.71801 7.22919 12.0281 5.21379 17.2217 6.16309C15.5925 4.6484 15.1623 3.67126 14.9668 2.78223C14.9218 2.52476 14.9439 2.25987 15.0313 2.01367C15.1188 1.76747 15.2687 1.54841 15.4659 1.37793C16.0122 0.95619 16.6547 0.93934 17.3213 1.14648L18.1299 0.56543ZM28.9356 8.65137C24.45 1.2847 18.9621 0.253164 18.962 1.39746C18.9943 1.41494 25.1658 4.75328 28.127 10.4668C28.1945 10.5738 28.0317 10.6713 27.9678 10.5674C25.4135 7.31611 17.521 1.15675 16.1641 2.24023C15.0482 3.13413 20.9843 8.80181 25.8223 11.2695C26.2379 11.4732 25.5195 12.5858 23.6875 12.5234C21.1333 12.5233 18.6987 8.73091 13.1709 8.66016C11.4937 8.63824 9.83188 8.98633 8.30278 9.67969C6.77368 10.3731 5.41436 11.3953 4.32036 12.6738C4.30055 12.6899 4.27548 12.6992 4.25005 12.6992C4.22477 12.6991 4.2004 12.6898 4.18071 12.6738C1.84038 11.4324 -0.19296 14.7641 1.99614 16.2354C2.0807 16.2863 2.11797 16.3919 2.08501 16.4863C-1.36948 27.3378 10.4068 35.814 19.1172 30.1113C23.3656 27.5306 22.8215 24.1752 17.0518 26.4492C17.04 26.4523 17.0279 26.4541 17.0157 26.4541C16.8962 26.4541 16.8299 26.311 16.9131 26.2188C20.9674 21.9804 17.9214 14.9213 12.1309 14.9209H12.1231C9.41639 14.7604 6.90066 16.39 5.9268 18.9346C5.90873 19.0053 5.84523 19.0556 5.77251 19.0557C5.7482 19.0556 5.72401 19.0498 5.70219 19.0391C5.68043 19.0283 5.66143 19.0124 5.64653 18.9932C5.6316 18.9738 5.62123 18.9507 5.61626 18.9268C5.61135 18.9029 5.61128 18.8781 5.61723 18.8545C6.30668 15.6788 9.05457 13.3466 12.2832 13.1953C18.048 12.8468 21.9299 19.215 18.8682 24.2324C18.7413 24.4135 18.9521 24.6477 19.1475 24.5332C20.3514 23.8592 21.2875 22.7757 21.2979 22.7637C21.3119 22.7636 21.3261 22.7667 21.3389 22.7725C21.3518 22.7783 21.3638 22.7872 21.3731 22.7979C24.965 26.7504 29.5647 26.8097 29.6846 25.2852C29.8236 23.5401 25.3836 24.6728 25.1045 20.3398C25.1048 20.2536 25.2038 20.2099 25.2637 20.2598C25.8385 20.7338 26.7068 20.3742 26.7911 19.6377C26.8047 19.5633 26.8917 19.5328 26.9502 19.5762C28.8657 21.4525 30.8116 21.5836 33.4659 21.3828C37.2572 21.1721 39.0233 19.0752 37.4571 16.376C33.9249 10.4768 32.7075 14.7313 28.9356 8.65137ZM33.7061 14.5205C33.9699 14.5321 34.2223 14.632 34.4229 14.8047C34.6236 14.9774 34.7605 15.2132 34.8125 15.4736C34.8278 15.5337 34.8289 15.5951 34.835 15.6562C34.8814 16.1062 34.426 16.4331 34.0147 16.376C33.588 16.3172 33.0498 15.9818 32.9268 15.4736C32.9127 15.4143 32.9061 15.353 32.9063 15.292C32.9064 14.8681 33.2522 14.5198 33.6739 14.5195C33.6845 14.5195 33.6958 14.5205 33.7061 14.5205Z" fill="#F2F2F2"/>
</svg>
