<svg width="48" height="48" viewBox="0 0 48 48" fill="none" xmlns="http://www.w3.org/2000/svg">
<path d="M23.9628 0C10.6997 0 0 10.5974 0 23.7338C0 36.8702 10.6997 47.4676 23.9628 47.4676C37.226 47.4676 47.9257 36.8702 47.9257 23.7338C47.9257 10.5974 37.1145 0 23.9628 0ZM46.3653 23.7338C46.3653 35.9871 36.3344 45.9222 23.9628 45.9222C11.5913 45.9222 1.56037 35.9871 1.56037 23.7338C1.56037 11.4805 11.5913 1.54546 23.9628 1.54546C36.3344 1.54546 46.3653 11.4805 46.3653 23.7338Z" fill="#F2F2F2"/>
<path d="M23.9628 9.71436V10.4871C31.3189 10.4871 37.4489 16.4481 37.4489 23.8443H38.2291C38.1176 16.0066 31.7647 9.71436 23.9628 9.71436ZM23.9628 37.091C16.6068 37.091 10.4768 31.13 10.4768 23.7339H9.69659C9.69659 31.4612 16.0495 37.7534 23.8514 37.7534" fill="#F2F2F2"/>
<path d="M35.44 13.6573C35.7743 13.9884 36.2202 14.5404 36.4431 14.8716L41.3471 11.891C41.1242 11.5599 40.6784 11.1183 40.4555 10.7871L37.3347 12.7742L37.1118 12.9949L37.2232 12.7742L38.5607 10.1248L37.6691 9.13129L34.9941 10.456L34.7712 10.5664L34.9941 10.3456L37.0003 7.36505C36.666 7.03388 36.3316 6.8131 35.8858 6.48193L32.765 11.2287C33.2109 11.5599 33.6567 12.0014 33.9911 12.2222L36.8889 10.7871L37.1118 10.6767L37.0003 10.8975L35.44 13.6573Z" fill="#F2F2F2"/>
<path d="M24.4059 7.69647L25.7434 4.71594L25.8548 4.49517V4.71594L25.9663 8.57959C26.4121 8.57959 26.8579 8.68998 27.4152 8.80037L27.1923 3.0601C26.5236 2.94971 25.8548 2.94971 25.1861 2.94971L23.8486 6.15101L22.5112 2.94971C21.8424 2.94971 21.1737 3.0601 20.505 3.0601L20.2821 8.80037C20.7279 8.68998 21.2852 8.68998 21.731 8.57959L21.8424 4.71594L23.1799 7.58608H24.4059V7.69647Z" fill="#F2F2F2"/>
<path d="M13.7062 12.2218C14.4864 11.4491 14.9322 10.4556 14.152 9.68286C13.7062 9.2413 13.0375 9.13091 12.4802 9.35169H12.3688C12.4802 9.13091 12.4802 8.35818 11.9229 7.91662C11.5886 7.69584 11.2542 7.58545 10.8084 7.58545C10.1397 7.69584 9.58238 8.1374 8.02201 9.79325C7.57619 10.3452 6.90746 11.1179 6.46164 11.5595L10.5855 15.4231C12.0344 13.9881 12.5917 13.4361 13.7062 12.2218ZM8.24492 11.3387C9.02511 10.3452 9.91675 9.46208 10.3626 9.02052C10.474 8.91013 10.5855 8.79974 10.8084 8.79974C11.0313 8.68935 11.3657 8.91013 11.4771 9.2413C11.5886 9.46208 11.3657 9.79325 11.1428 10.014C10.6969 10.4556 9.13656 12.2218 9.13656 12.2218L8.24492 11.3387ZM9.91675 12.8842C9.91675 12.8842 11.4771 11.2283 12.0344 10.6764C12.2573 10.4556 12.3688 10.3452 12.4802 10.2348C12.7031 10.1244 12.8146 10.1244 13.0375 10.2348C13.2604 10.3452 13.2604 10.566 13.2604 10.7868C13.2604 11.0075 13.0375 11.2283 12.8146 11.4491C12.5917 11.6699 10.6969 13.6569 10.6969 13.6569L9.91675 12.8842Z" fill="#F2F2F2"/>
<path d="M23.9628 9.71436V23.7339H9.69659C9.69659 16.0066 16.0495 9.71436 23.9628 9.71436Z" fill="#F2F2F2"/>
<path d="M38.1176 23.7334C38.1176 31.4607 31.7647 37.7529 23.9628 37.7529V23.7334H38.1176Z" fill="#F2F2F2"/>
</svg>
