<svg width="123" height="30" viewBox="0 0 123 30" fill="none" xmlns="http://www.w3.org/2000/svg">
<path d="M60.4453 6.87158H58.5472L53.362 17.1655L48.2959 6.87158H46.3733L44.751 21.2288H46.4663L47.5223 10.4621L52.5541 20.3913H53.4501L58.6076 10.4229L59.7647 21.2288H62.1101L60.4453 6.87158Z" fill="#F2F2F2"/>
<path d="M69.8005 7.09861L63.3619 21.2285H65.2209L67.5858 15.8549H72.6616L74.9237 21.2285H77.4486L71.2858 6.8418L69.8022 7.09861H69.8005ZM72.0773 14.3271H68.2174L70.1743 9.82219L72.0773 14.3271Z" fill="#F2F2F2"/>
<path d="M91.1566 19.3372C90.3422 19.4975 89.3907 19.5957 88.3298 19.63C87.2951 19.6627 85.0265 19.6791 81.5827 19.6807L90.4761 7.5694V6.87256H79.5654L78.9828 8.42164H87.1433L78.3381 20.3694L78.2924 20.4315V21.2314H90.6899L91.7165 19.3356H91.204L91.1599 19.3405L91.1566 19.3372Z" fill="#F2F2F2"/>
<path d="M105.207 8.67748C103.872 7.47846 101.943 6.87158 99.4771 6.87158H94.0471V21.2305H98.9875C101.45 21.2305 103.459 20.6007 104.956 19.3591C106.466 18.1061 107.231 16.328 107.231 14.0723C107.231 11.6988 106.551 9.88469 105.207 8.67912V8.67748ZM96.3467 8.41903H98.8455C100.881 8.41903 102.399 8.87214 103.355 9.76528C104.307 10.6551 104.79 12.1028 104.79 14.069C104.79 17.8444 102.792 19.6781 98.6823 19.6781H96.3467V8.4174V8.41903Z" fill="#F2F2F2"/>
<path d="M116.312 6.84424L114.829 7.10106L108.39 21.2309H110.249L112.614 15.8574H117.69L119.952 21.2309H122.477L116.314 6.84424H116.312ZM117.104 14.3279H113.244L115.201 9.82299L117.104 14.3279Z" fill="#F2F2F2"/>
<path d="M18.1397 0C7.11085 0 0 6.33127 0 14.826C0 23.3207 7.11085 29.6523 18.1397 29.6523C29.1685 29.6523 36.2793 23.3207 36.2793 14.826C36.2793 6.33127 29.1685 0 18.1397 0ZM18.1397 1.5741C23.2431 1.5741 26.8195 3.02977 29.3977 5.38007C30.127 6.04495 30.744 6.73646 31.2603 7.46109L23.9728 11.0842C23.3087 11.4143 22.0924 12.0893 21.6864 12.4961C21.3325 12.8509 20.8445 13.4623 20.3458 14.1853L18.1397 17.3837L15.9335 14.1853C15.4348 13.4623 14.9469 12.8509 14.5929 12.4961C14.187 12.0893 12.9706 11.4143 12.3065 11.0842L5.019 7.46109C5.53536 6.73646 6.15231 6.04495 6.88166 5.38007C9.45984 3.02977 13.0363 1.5741 18.1397 1.5741ZM3.36898 10.9189L11.3149 14.5732C12.8274 15.2688 13.8522 15.749 14.3485 16.1665C14.9202 16.6473 15.4317 17.3972 16.6672 19.095L17.9401 20.8444H18.3392L19.6122 19.095C20.8476 17.3972 21.3809 16.629 21.9308 16.1665C22.4271 15.749 23.4519 15.2688 24.9644 14.5732L32.9103 10.9189C33.2466 12.1223 33.4033 13.4166 33.4033 14.826C33.4033 18.6746 32.2489 21.6727 29.3977 24.2719C26.8195 26.6222 23.2431 28.0779 18.1397 28.0779C13.0363 28.0779 9.45984 26.6222 6.88166 24.2719C4.0304 21.6727 2.87605 18.6746 2.87605 14.826C2.87605 13.4166 3.03272 12.1223 3.36898 10.9189Z" fill="#F2F2F2"/>
</svg>
