<svg width="265" height="33" viewBox="0 0 265 33" fill="none" xmlns="http://www.w3.org/2000/svg">
<path fill-rule="evenodd" clip-rule="evenodd" d="M78.3696 9.25194V22.1846C78.3696 23.9033 78.7385 25.1999 79.4762 26.0746C80.214 26.9492 81.307 27.3866 82.7535 27.3866C84.1984 27.3866 85.2914 26.9492 86.0291 26.0763C86.7057 25.2731 87.0728 24.116 87.1289 22.6049L87.1357 22.1846V9.25194H92.56V22.5453C92.56 25.4416 91.6556 27.7558 89.8487 29.4898C88.0401 31.2255 85.6756 32.0934 82.7535 32.0934C79.8298 32.0934 77.467 31.2255 75.6584 29.4898C73.9568 27.8579 73.0559 25.7121 72.9556 23.0507L72.9471 22.5453V9.25194H78.3696ZM123.869 8.06928C127.184 8.06928 129.955 9.14814 132.185 11.3024C134.289 13.341 135.401 15.948 135.518 19.1301L135.529 19.695V20.5101C135.529 23.9186 134.414 26.7008 132.185 28.8568C129.955 31.0145 127.184 32.0917 123.869 32.0917C120.555 32.0917 117.806 31.0213 115.622 28.8789C113.558 26.8573 112.47 24.2555 112.356 21.0768L112.346 20.5101V19.695C112.346 16.2577 113.437 13.4602 115.622 11.3041C117.806 9.14814 120.555 8.06928 123.869 8.06928ZM236.53 8.06928C239.693 8.06928 242.284 9.12431 244.303 11.2361C246.321 13.3461 247.329 16.0926 247.329 19.4704C247.329 19.8022 247.322 20.163 247.309 20.5561L247.28 21.1551L247.241 21.7762H230.88C231.121 23.6174 231.753 25.0502 232.778 26.0746C233.803 27.1007 235.128 27.6129 236.756 27.6129C238.051 27.6129 239.09 27.3866 239.874 26.9339C240.352 26.6537 240.77 26.2812 241.103 25.838L241.307 25.5522H246.845C246.211 27.5159 245.08 29.0644 243.445 30.1909C241.606 31.4586 239.316 32.0917 236.574 32.0917C233.351 32.0917 230.662 30.9907 228.508 28.7904C226.474 26.711 225.399 24.1194 225.287 21.0172L225.277 20.4642V19.741C225.277 16.3938 226.353 13.6116 228.507 11.3943C230.662 9.17707 233.334 8.06928 236.53 8.06928ZM221.643 0V31.3684H217.441L216.672 28.833H216.582C215.751 29.9169 214.654 30.7669 213.397 31.3004C212.146 31.8279 210.677 32.0917 208.989 32.0917C206.067 32.0917 203.567 31.006 201.488 28.8347C199.533 26.791 198.496 24.2521 198.38 21.2197L198.37 20.6463V19.7869C198.37 16.3496 199.402 13.5367 201.466 11.3484C203.529 9.16345 206.188 8.06928 209.441 8.06928C210.947 8.06928 212.236 8.27348 213.305 8.68018C214.24 9.03753 215.068 9.55994 215.785 10.2508L216.086 10.5571H216.176V0H221.643ZM182.609 8.06928C184.085 8.06928 185.433 8.34155 186.653 8.88268C187.721 9.35914 188.725 10.0534 189.667 10.9672L190.066 11.3722H190.155L191.059 8.74825H195.037V31.3684H190.787L189.93 28.6526H189.839C189.065 29.7621 188.003 30.6388 186.767 31.1881C185.501 31.7598 184.056 32.0457 182.427 32.0457C179.475 32.0457 176.983 30.9771 174.948 28.8347C173.036 26.8199 172.021 24.2691 171.909 21.1857L171.898 20.6003V19.7869C171.898 16.4091 172.906 13.6099 174.926 11.3943C176.944 9.17707 179.505 8.06928 182.609 8.06928ZM103.872 3.03577V8.14756H109.614V12.4H103.874V24.6724C103.874 25.5164 104.078 26.1494 104.486 26.5732C104.891 26.9952 105.516 27.2062 106.359 27.2062C106.903 27.2062 107.43 27.1228 107.94 26.9577C108.352 26.825 108.77 26.6293 109.198 26.3707L109.523 26.1648H110.291V30.6435C109.749 30.9464 109.011 31.2102 108.076 31.4365C107.141 31.6628 106.359 31.7768 105.727 31.7768C103.286 31.7768 101.448 31.1421 100.214 29.8744C99.0602 28.6917 98.4465 26.9577 98.3683 24.6741L98.3598 24.1755V12.4H95.2865V9.91048C96.7331 9.21791 97.9383 8.34495 98.9021 7.28822C99.7605 6.3489 100.534 5.12541 101.224 3.61433L101.479 3.03577H103.872ZM155.706 1.36133V6.29275H147.39V31.3684H141.696V6.29275H133.02V1.36133H155.706ZM168.111 8.56617C168.665 8.57371 169.218 8.61177 169.767 8.68018L169.92 8.7023V14.0864H167.885C165.867 14.0864 164.412 14.5305 163.525 15.4205C162.694 16.2509 162.252 17.7977 162.197 20.0592L162.191 20.5561V31.3684H156.722V8.74654H160.61L161.783 13.0892H161.875C162.145 11.7492 162.922 10.5657 164.044 9.78626C165.188 8.97116 166.544 8.56617 168.111 8.56617ZM262.492 8.56617C263.045 8.57143 263.598 8.60894 264.147 8.67848L264.3 8.7023V14.0864H262.266C260.248 14.0864 258.793 14.5322 257.906 15.4205C257.076 16.2509 256.632 17.7977 256.578 20.0609L256.571 20.5544V31.3684H251.103V8.74654H254.99L256.165 13.0892H256.255C256.525 11.7497 257.302 10.5668 258.424 9.78796C259.57 8.97116 260.924 8.56617 262.492 8.56617ZM59.617 1.96202L71.1861 30.6435V31.3684H65.3556L63.0965 25.3956L62.6172 24.1194H50.4276L49.9448 25.4007L47.6857 31.3684H42.0831V30.6435L53.6522 1.96202H59.617ZM37.1722 19.1556L34.4916 25.8006C33.1334 29.0338 30.0839 31.3106 26.5567 31.3616L0 31.3684L4.92615 19.1556H37.1722ZM183.468 12.5021C181.508 12.5021 179.988 13.1811 178.904 14.539C177.819 15.8952 177.277 17.7364 177.277 20.0575C177.277 22.3803 177.819 24.213 178.904 25.5539C179.988 26.8982 181.508 27.5686 183.468 27.5686C185.395 27.5686 186.91 26.8965 188.01 25.5539C189.109 24.213 189.658 22.3803 189.658 20.0575C189.658 17.7364 189.109 15.8952 188.01 14.539C186.91 13.1811 185.395 12.5021 183.468 12.5021ZM210.075 12.5021C208.115 12.5021 206.596 13.1811 205.51 14.539C204.425 15.8952 203.883 17.7364 203.883 20.0575C203.883 22.3803 204.427 24.213 205.51 25.5539C206.596 26.8982 208.115 27.5686 210.075 27.5686C212.003 27.5686 213.516 26.8965 214.617 25.5539C215.715 24.213 216.266 22.3803 216.266 20.0575C216.266 17.7364 215.715 15.8952 214.617 14.539C213.516 13.1811 212.003 12.5021 210.075 12.5021ZM123.915 12.5923C122.017 12.5923 120.533 13.2645 119.463 14.6071C118.392 15.948 117.859 17.7654 117.859 20.0575C117.859 22.3496 118.392 24.167 119.463 25.5096C120.533 26.8522 122.017 27.5227 123.915 27.5227C125.812 27.5227 127.305 26.8522 128.389 25.5096C129.474 24.167 130.016 22.3496 130.016 20.0575C130.016 17.7654 129.472 15.948 128.389 14.6071C127.305 13.2645 125.812 12.5923 123.915 12.5923ZM56.5878 7.5724H56.4977C56.3771 8.0846 56.2105 8.64955 55.9997 9.26725C55.8127 9.81689 55.5169 10.6235 55.1158 11.6836L54.9611 12.0954L52.2889 19.1811H60.7644L58.1245 12.0954C57.7161 10.9755 57.3166 9.85239 56.9261 8.72612C56.7983 8.3454 56.6849 7.95999 56.5861 7.5707L56.5878 7.5724ZM236.708 12.5481C235.202 12.5481 233.975 12.9565 233.025 13.7699C232.163 14.5101 231.529 15.5991 231.128 17.037L231.014 17.4795H241.725C241.635 15.9412 241.145 14.7347 240.256 13.86C239.367 12.9854 238.184 12.5481 236.708 12.5481Z" fill="#F2F2F2"/>
<path fill-rule="evenodd" clip-rule="evenodd" d="M44.1093 1.96191L17.5526 1.96532C14.0254 2.01807 10.9776 4.29319 9.61773 7.52465L6.93707 14.173H39.1831L44.1093 1.96191Z" fill="#F2F2F2"/>
</svg>
