<svg width="191" height="30" viewBox="0 0 191 30" fill="none" xmlns="http://www.w3.org/2000/svg">
<path d="M22.4828 19.6446C20.8649 23.2224 17.5955 25.3491 13.7862 25.3491C8.32545 25.3491 3.90982 20.5563 3.90982 14.6493C3.90982 8.74222 8.35895 3.94882 13.7862 3.94882C17.7302 3.94882 20.8984 6.04129 22.4828 9.65327L22.5505 9.82233H26.6626L26.5279 9.41712C24.707 3.67846 19.8198 0.134888 13.7862 0.134888C6.16822 0.134888 0 6.61555 0 14.6151C0 22.6146 6.16822 29.1295 13.7862 29.1295C19.7521 29.1295 24.64 25.5517 26.5273 19.8137L26.6619 19.4085H22.5833L22.4828 19.6446ZM38.7632 25.4504C35.1904 25.4504 32.2915 22.2778 32.2915 18.3619C32.2915 14.3789 35.1904 11.1721 38.7632 11.1721C42.3361 11.1721 45.3361 14.4802 45.3361 18.3619C45.3026 22.21 42.3026 25.4504 38.7632 25.4504ZM45.4372 10.5985C44.6255 9.60908 43.6076 8.80935 42.4547 8.2554C41.3018 7.70145 40.0419 7.40668 38.7632 7.39175C32.932 7.39175 28.3475 12.1845 28.3475 18.3284C28.3475 24.438 32.932 29.2308 38.7632 29.2308C40.045 29.2141 41.3073 28.9152 42.4608 28.3552C43.6142 27.7952 44.6304 26.9878 45.4372 25.9904V28.7243H49.2459V7.89826H45.4372V10.5985ZM62.1558 7.39175C61.1222 7.37978 60.0968 7.57689 59.1411 7.97126C58.1854 8.36562 57.319 8.94913 56.5939 9.68682V7.8976H52.7852V28.7236H56.7292V16.0662C56.7292 13.1633 58.8188 11.0708 61.7177 11.0708C64.1784 11.0708 65.864 12.5219 66.268 14.9525V15.0203L70.1778 14.9867V14.8854C69.6391 10.2946 66.6056 7.39175 62.1558 7.39175Z" fill="#F2F2F2"/>
<path d="M12.9099 11.476H15.4718V19.0032H12.9099V11.476Z" fill="#F2F2F2"/>
<path d="M18.9435 14.1093C19.7627 14.1093 20.4267 13.4443 20.4267 12.624C20.4267 11.8037 19.7627 11.1387 18.9435 11.1387C18.1243 11.1387 17.4602 11.8037 17.4602 12.624C17.4602 13.4443 18.1243 14.1093 18.9435 14.1093Z" fill="#F2F2F2"/>
<path d="M9.40407 14.1093C10.2233 14.1093 10.8873 13.4443 10.8873 12.624C10.8873 11.8037 10.2233 11.1387 9.40407 11.1387C8.58489 11.1387 7.92081 11.8037 7.92081 12.624C7.92081 13.4443 8.58489 14.1093 9.40407 14.1093Z" fill="#F2F2F2"/>
<path d="M151.616 29.0393C146.668 29.0393 143.077 25.4431 143.077 20.4886V8.12323H146.537V20.4879C146.537 23.5704 148.579 25.6418 151.616 25.6418C154.634 25.6418 156.661 23.5704 156.661 20.4879V8.12323H160.155V20.4879C160.154 25.4438 156.563 29.0393 151.616 29.0393ZM111.369 29.0393C106.421 29.0393 102.83 25.4431 102.83 20.4886V8.12323H106.29V20.4879C106.29 23.5704 108.331 25.6418 111.369 25.6418C114.387 25.6418 116.414 23.5704 116.414 20.4879V8.12323H119.908V20.4879C119.908 25.4438 116.317 29.0393 111.369 29.0393ZM172.447 15.5261C168.335 14.8848 167.593 14.3447 167.593 13.2311C167.593 11.8135 169.481 10.6998 171.874 10.6998C174.368 10.6998 176.02 11.8135 176.424 13.704L176.492 13.9402H180.469L180.436 13.6027C179.998 9.55197 176.728 7.02075 171.908 7.02075C166.245 7.02075 163.684 10.2946 163.684 13.333C163.684 17.3496 166.785 18.5987 171.808 19.3072C176.661 19.9485 177.033 20.9273 177.033 22.1423C177.033 23.6276 175.415 25.1465 172.28 25.1465C169.415 25.1465 167.325 23.7625 166.92 21.5687L166.887 21.3325H162.943L162.976 21.67C163.549 26.024 167.19 28.8598 172.279 28.8598C177.403 28.8598 180.841 26.0917 180.841 21.9739C180.873 17.2476 177.234 16.2688 172.447 15.5261ZM85.1109 15.0538V18.5303H93.774L93.8752 18.3612C94.1248 17.8238 94.3061 17.2568 94.4145 16.6733C94.5249 16.1392 94.5925 15.5978 94.6168 15.0532L85.1109 15.0538Z" fill="#F2F2F2"/>
<path d="M96.1671 15.0538C95.9648 20.8595 91.785 25.2477 86.493 25.2477C80.9653 25.2477 76.4485 20.455 76.4485 14.615C76.4485 8.74152 80.9653 3.94878 86.493 3.94878C90.2347 3.94878 93.4371 6.07545 95.0885 9.65324L95.1561 9.82229H99.3695L99.2348 9.41708C97.2464 3.67908 92.2573 0 86.4937 0C78.7746 0 72.5052 6.54841 72.5052 14.5815C72.5052 22.6146 78.7746 29.163 86.4937 29.163C88.2374 29.1689 89.9647 28.8255 91.5739 28.1532C93.1832 27.4808 94.6419 26.4929 95.8643 25.2477C97.1801 23.9022 98.2154 22.308 98.9099 20.5578C99.6043 18.8077 99.9441 16.9367 99.9094 15.0538H96.1671ZM132.84 7.39171C131.806 7.37975 130.781 7.57685 129.825 7.97122C128.87 8.36558 128.003 8.94909 127.278 9.68678V7.89756H123.47V28.7236H127.414V16.0661C127.414 13.1633 129.503 11.0708 132.402 11.0708C134.863 11.0708 136.548 12.5219 136.952 14.9525V15.0202L140.862 14.9867V14.8854C140.323 10.2946 137.29 7.39171 132.84 7.39171ZM187.379 7.56077C187.343 7.49412 187.301 7.43092 187.253 7.37198C187.208 7.31734 187.154 7.27007 187.094 7.23187C187.427 7.17334 187.729 7.00218 187.95 6.74707C188.143 6.50171 188.244 6.19649 188.235 5.88403C188.247 5.69452 188.213 5.50492 188.136 5.33154C188.058 5.15816 187.94 5.00621 187.791 4.88878C187.38 4.63276 186.898 4.51456 186.415 4.55133H184.869V9.36117H185.709V7.45355H186.135C186.206 7.44909 186.278 7.46196 186.343 7.49104C186.389 7.51801 186.428 7.55485 186.458 7.59892L187.546 9.22698C187.572 9.27122 187.61 9.30727 187.656 9.33108C187.702 9.35489 187.753 9.36554 187.804 9.36183H188.606L187.379 7.56209L187.379 7.56077ZM186.33 6.83785H185.71V5.1986H186.416C186.575 5.19532 186.733 5.21176 186.887 5.24662C186.999 5.27162 187.104 5.32096 187.194 5.392C187.272 5.45712 187.331 5.54329 187.363 5.63999C187.399 5.75313 187.416 5.87154 187.414 5.9906C187.422 6.10664 187.404 6.22292 187.362 6.33139C187.32 6.43986 187.255 6.53793 187.172 6.6188C186.926 6.79039 186.627 6.86811 186.33 6.83785Z" fill="#F2F2F2"/>
<path d="M86.3242 12.6568C87.1804 12.6568 87.8745 11.9618 87.8745 11.1044C87.8745 10.247 87.1804 9.552 86.3242 9.552C85.468 9.552 84.774 10.247 84.774 11.1044C84.774 11.9618 85.468 12.6568 86.3242 12.6568Z" fill="#F2F2F2"/>
<path d="M92.2231 12.6568C93.0793 12.6568 93.7734 11.9618 93.7734 11.1044C93.7734 10.247 93.0793 9.552 92.2231 9.552C91.3669 9.552 90.6729 10.247 90.6729 11.1044C90.6729 11.9618 91.3669 12.6568 92.2231 12.6568Z" fill="#F2F2F2"/>
<path d="M186.559 10.9609C185.769 10.9608 184.995 10.7258 184.338 10.2857C183.68 9.84565 183.168 9.2202 182.865 8.48846C182.563 7.75673 182.483 6.95157 182.638 6.1748C182.792 5.39802 183.173 4.68451 183.732 4.12449C184.292 3.56446 185.004 3.18306 185.78 3.02852C186.555 2.87398 187.359 2.95323 188.09 3.25625C188.821 3.55928 189.446 4.07247 189.885 4.73093C190.324 5.3894 190.559 6.16358 190.559 6.95558C190.558 8.01759 190.137 9.03587 189.387 9.78683C188.637 10.5378 187.62 10.9601 186.559 10.9609ZM186.559 3.60013C185.897 3.60039 185.249 3.79746 184.698 4.16642C184.147 4.53538 183.717 5.05966 183.464 5.67297C183.211 6.28628 183.144 6.96107 183.274 7.61203C183.403 8.26298 183.723 8.86085 184.192 9.33005C184.66 9.79926 185.258 10.1187 185.908 10.248C186.558 10.3773 187.232 10.3107 187.844 10.0566C188.456 9.8024 188.98 9.37214 189.348 8.82017C189.716 8.2682 189.912 7.61932 189.912 6.95558C189.911 6.06558 189.558 5.21232 188.929 4.58318C188.3 3.95405 187.448 3.60048 186.559 3.60013Z" fill="#F2F2F2"/>
</svg>
